<svg xmlns="http://www.w3.org/2000/svg" xmlns:xlink="http://www.w3.org/1999/xlink" viewBox="0 0 223.3 157"><defs><style>.cls-1{fill:none;}.cls-2{isolation:isolate;}.cls-3{fill:#fff;}.cls-4{fill:#0453a5;}.cls-5{opacity:0.12;}.cls-6{clip-path:url(#clip-path);}.cls-7{clip-path:url(#clip-path-2);}.cls-8{fill:#e82327;}.cls-9{fill:#272870;}.cls-10{fill:#fbca0c;}.cls-11{opacity:0.75;mix-blend-mode:multiply;}</style><clipPath id="clip-path" transform="translate(-498.2 -215.4)"><path class="cls-1" d="M665.8,294.7a75.6,75.6,0,0,1-142.9,34.5h0a75.6,75.6,0,1,1,142.9-34.5Z"/></clipPath><clipPath id="clip-path-2" transform="translate(-498.2 -215.4)"><rect class="cls-1" x="506.3" y="253.2" width="213.7" height="142.49" transform="translate(161 -201.7) rotate(21.4)"/></clipPath></defs><title>map_white</title><g class="cls-2"><g id="Layer_1" data-name="Layer 1"><path class="cls-3" d="M668,294.7a77.8,77.8,0,0,1-146.9,35.5h0A77.7,77.7,0,1,1,668,294.7Z" transform="translate(-498.2 -215.4)"/><path class="cls-4" d="M665.8,294.7a75.6,75.6,0,0,1-142.9,34.5h0a75.6,75.6,0,1,1,142.9-34.5Z" transform="translate(-498.2 -215.4)"/><g class="cls-5"><g class="cls-6"><g class="cls-7"><path class="cls-8" d="M607.2,247.5h.2l-13.2-6.3v.2Z" transform="translate(-498.2 -215.4)"/><path class="cls-8" d="M666.4,282.5h-.1a.1.1,0,0,1-.1-.1h0l-2.2-1,28,13.5h.4a.1.1,0,0,0,.1-.1h0a.1.1,0,0,0-.1-.1c0-.1,0-.1-.1-.1h-.1l-92.7-45.1,56.3,27.2h.3a.1.1,0,0,0,.1-.1h.1a.1.1,0,0,0-.1-.1h-.1c0-.1,0-.1-.1-.1l-57.4-27.9h0L645.9,271h.3a.1.1,0,0,0,.1-.1h-.1a.1.1,0,0,1-.1-.1l-40.7-19.6h.1l91.1,43.8h.5c.1-.1,0-.1,0-.1v-.2c-.1,0-.1,0-.1-.1h-.2l-26.9-12.9h.1c.1,0,.1-.1,0-.1h-.2l-23.3-11.2h.1l62.2,29.8h.4c.1,0,.1,0,.1-.1h0a.1.1,0,0,0-.1-.1h-.3l-46.6-22.4h0l23,10.9h.2l-44.9-21.5,25.3,12h.5l43.2,20.5h.6c-.1-.1-.1-.1-.1-.2a.1.1,0,0,1-.1-.1h-.2l-52.7-25h.1l2.3,1.1h0a.1.1,0,0,1,.1.1h.3l52.3,24.7h.5c.1-.1.1-.1,0-.2h-.3l-118.3-56-.9,1.5,1.4.7-1.4-.7-.3.5,1.1.5-1.1-.5-.3.4,3,1.4h-.1l-2.9-1.4-1.3,1.9,12.8,6.2h0l62.3,30.5C666.5,282.6,666.5,282.6,666.4,282.5Z" transform="translate(-498.2 -215.4)"/><path class="cls-3" d="M721.5,315.9h-.1a.1.1,0,0,0-.1-.1h-.2L607.8,258.9h.1L654,281.7h0a.1.1,0,0,0,.1.1h.3l63.3,31.4h.5c.1,0,.1-.1,0-.1v-.2h-.3l-8.8-4.4h.1c0-.1,0-.1-.1-.1v-.2h-.2l-69.4-34.4h0c0-.1,0-.1-.1-.1h-.1L611.4,259h.1l26.9,13.3h.2c.1,0,.1,0,.1-.1h.1a.1.1,0,0,0-.1-.1h-.1l-4.3-2.1h0l10.4,5.1h.4c.1,0,.1,0,.1-.1h-.1a.1.1,0,0,0-.1-.1l70.1,34.3h0a.1.1,0,0,0,.1.1h.3a.1.1,0,0,0,.1-.1h0c0-.1,0-.1-.1-.1s-.1-.1-.1-.2h-.2l-69.8-34.3h.1l3.7,1.8h.3c.1,0,.1,0,.1-.1h0v-.2a.1.1,0,0,1-.1-.1h-.1l-6.2-3.1h.1l44.6,21.7h.5v-.2h-.2l-21.7-10.5h0l-62.3-30.5h0l-12.9-6.3-3,4.6,76.3,38.6h0c0-.1,0-.1-.1-.1h-.1a.1.1,0,0,0-.1-.1l-35.6-17.9h0l85.6,42.9h.5c0-.1-.1-.1-.1-.2h-.2L599.3,255.4,721,316.1h.5Z" transform="translate(-498.2 -215.4)"/><path class="cls-8" d="M587.8,251.1l5.4,2.7h0l-5.4-2.7-.3.4,3.4,1.7h0l-3.4-1.7-2.4,3.7,59.4,31,56.4,29.2h.5a.1.1,0,0,0,.1-.1h0a.1.1,0,0,0-.1-.1c0-.1-.1-.1-.1-.2h-.2L593.3,259.1h0l39,20.1h.4c.1,0,.1,0,.1-.1h-.3L622,273.3l41.8,21.4a.1.1,0,0,0,.1.1h.4l14.4,7.5h.4c.1,0,.1,0,.1-.1h-.3L656.5,290h.1l60.7,31.1h.5v-.2h-.2c0-.1-.1-.1-.1-.2l-76.4-39.1h.1a.1.1,0,0,0-.1-.1.1.1,0,0,0-.1-.1l-4.7-2.4h.1l6.5,3.3h.3a.1.1,0,0,1-.1-.1l-17.7-9h.1c0-.1,0-.1-.1-.1h-.2l-29.4-15,9.9,5h.4L698,308.5h.2s.1.1.1,0h0a.1.1,0,0,0-.1-.1l-68.1-34.6h0a.1.1,0,0,1-.1-.1h0l-17-8.6h.1l13.5,6.8h.4c0-.1,0-.1-.1-.1h-.1l-22.5-11.4h0l59.7,30h.5l-76.3-38.6Z" transform="translate(-498.2 -215.4)"/><path class="cls-3" d="M581.9,260.2l27,14.6h.1L703.2,325h.2a.1.1,0,0,0,.1.1h.2l-.2-.2h-.1l-70.6-37.7h.1c0-.1,0-.1-.1-.1h-.2l-24.3-13h-.1l-12.3-6.5h.1l7.2,3.9h.3l41.2,21.8h.4a.1.1,0,0,0-.1-.1.1.1,0,0,0-.1-.1L604.5,270h.1a.1.1,0,0,1-.1-.1h-.1L590,261.9h0l116.9,61.7h.6c0-.1-.1-.1-.1-.2a.1.1,0,0,1-.1-.1h-.2l-85.9-45.3h.1l3.4,1.8h.2l-13.6-7.1,64,33.4h.5c0-.1-.1-.1-.1-.2a.1.1,0,0,1-.1-.1h-.1l-62.7-32.9h0l32.7,17h.2a.1.1,0,0,0,.1.1h.2l44.7,23.3h.6a.1.1,0,0,0-.1-.1c0-.1-.1-.1-.1-.2h-.2l-61.4-32h.1a.1.1,0,0,1-.1-.1h-.1L594.5,261l10.9,5.6h.5a.1.1,0,0,0-.1-.1h0c-.1,0-.1,0-.1-.1l-3.1-1.6,41.9,21.7-59.4-31Z" transform="translate(-498.2 -215.4)"/><path class="cls-8" d="M640.5,299.6l22.8,12.6h.5a.1.1,0,0,0-.1-.1h-.1c0-.1-.1-.1-.1-.2L599,276l69,37.9h.4c0-.1,0-.1-.1-.1a.1.1,0,0,0-.1-.1l-35.8-19.7h.1c0-.1,0-.1-.1-.1h-.2l-52-28.6h.1l45.3,24.9h.5l14.1,7.7h.2c0,.1,0,.1.1.1h-.1l-1.1-.6h0l42.5,23.2h.5l-.2-.2H682l-39.3-21.4h0c.1-.1.1-.1.1-.2h-.2a.1.1,0,0,1-.1-.1l-29.6-16.1,46.2,25h.4c0-.1,0-.1-.1-.2h-.1l-.4-.2,51,27.6h.5c0-.1,0-.1.1-.1V332a.1.1,0,0,1-.1-.1l-.2-.2h-.1L581,261.7l-2.3,3.6Z" transform="translate(-498.2 -215.4)"/><path class="cls-8" d="M581,261.7l36.5,19.6h.5l66.2,35.6h.3c.1,0,.1,0,.1-.1h.1v-.2h-.1a.1.1,0,0,0-.1-.1.1.1,0,0,0-.1-.1h0l-97-52.3h0L644,294.5h.5a.1.1,0,0,1-.1-.1h-.2l-39.8-21.3h.1l4.1,2.2h.3l-27-14.6Z" transform="translate(-498.2 -215.4)"/><path class="cls-3" d="M576.3,268.9l14.2,8h.3l68.3,38.5h.4a.1.1,0,0,1,.1-.1h.1l48.9,27.6h.6a.1.1,0,0,0-.1-.1v-.2h-.2c0-.1-.1-.1-.1-.2L602.6,282.5h.1l3.3,1.8h0a.1.1,0,0,1,.1.1h.1c.1,0,.1,0,.1-.1h.1c0-.1,0-.1-.1-.1h-.1l-14.3-8h0l1.6.9h.4L614.4,288h0a.1.1,0,0,0,.1.1h.3a.1.1,0,0,0,.1-.1h-.3l-25.7-14.4h.1l44.4,24.8h.3a.1.1,0,0,0,.1-.1h.1v-.2c-.1,0-.1,0-.1-.1h-.2l-29.2-16.3,56.8,31.4h.4a.1.1,0,0,0,.1-.1h0v-.2h-.2l-27.6-15.3h.1c-.1-.1-.1-.1-.1-.2h-.2l-49.3-27.4,2.6,1.4h.2l53.4,29.4-61.8-34.3Z" transform="translate(-498.2 -215.4)"/><path class="cls-3" d="M643.7,309.6h.1l46.7,26.6a.1.1,0,0,0,.1.1h.3a.1.1,0,0,0,.1-.1h0c0-.1,0-.1-.1-.2h-.1c0-.1-.1-.1-.2-.1L586.4,276.2h.1l5.2,3h.4c0-.1,0-.1.1-.1h0l2.3,1.3h.2l97.7,55.2c0,.1.1.1.2.1h.3v-.2h-.2c0-.1-.1-.1-.1-.2L576.3,269l-.9,1.4Z" transform="translate(-498.2 -215.4)"/><path class="cls-8" d="M545.9,253.5h-.1l-19.2-10.9h-.3l17.8,10.2h0l-24.5-13.9h-.1l-.6.8,20.9,12.1h0l-21-12.1-.3.4L552.1,260l-33.7-19.4h0l-.3.3,8.1,4.7-8.1-4.7-.3.4,11.9,7h-.1l-9.7-5.6h-.2l23.1,13.6h0l-25.4-14.8-.5.6L546.8,260h-.1l-12.8-7.5h-.3l-16.9-9.9h0v.2L685.5,343h0c.1,0,.1-.1,0-.1v-.2h-.1l-.2-.2L564.1,271h.1L584.7,283h.2c.1,0,.1,0,.1-.1h.1l25.8,15.1h.4v-.2h-.2l-10-5.9h.1l32,18.8h.5l2.3,1.3h.5c0-.1,0-.1-.1-.1v-.2h-.1L620,301.6h.1a.1.1,0,0,1-.1-.1h-.1l-28.4-16.6h0l16.9,9.8h.5a.1.1,0,0,0-.1-.1h-.1l-23.9-13.9,27.6,15.8c0,.1,0,.1.1.1h.2a.1.1,0,0,0,.1-.1h-.2l-18.2-10.6L652.3,318h.4c0-.1,0-.1.1-.1h0c0-.1-.1-.1-.1-.2h-.2L593,283.1h.1a.1.1,0,0,0-.1-.1h-.1l-3.5-2h.1L618.3,297h.1c.1,0,.1.1.2,0h.1l85.2,48.8h.5v-.2h0l-.2-.2H704L572.5,269.7h.2l11.7,6.6a.1.1,0,0,1,.1.1h.3l58.5,33.4h.4l-68.3-39.2Z" transform="translate(-498.2 -215.4)"/><path class="cls-3" d="M516.4,243h.1c0,.1,0,.1.1.1h0l31.9,18.8h0L529.1,251h-.3L516,243.4l-.2.4,34.7,20.7h0l-34.8-20.7-.6.7,13.1,7.8h.1l20.3,12.2h0l14,8.3h-.1l-22.7-13.5h-.4l-24.9-14.9-.3.3,33,20h-.1l-11.5-6.9h-.1c0-.1,0-.1-.1-.1h-.1l-13-7.8H522l19.9,12.1h0l-6.9-4.1a.1.1,0,0,1-.1-.1h-.2a.1.1,0,0,1-.1.1l-21.2-12.9-.4.4L679.4,349h-.3l-50.5-30.8h0a.1.1,0,0,0-.1-.1h-.1l-35.3-21.5L610,306h.4l27.8,16.8h.5v-.2c-.1,0-.1,0-.1-.1h-.2l-50.6-30.7,54.1,32.6h.5l18.3,11h.5s.1-.1,0-.1v-.2h-.3l-52.5-31.7h.1c0-.1-.1-.1-.1-.2a.1.1,0,0,1-.1-.1h0l-19.1-11.5h.1l15.4,9.2h.5l8.6,5.2h.5c0-.1-.1-.1-.1-.2h-.1l-6.8-4L692,350.9h.4a.1.1,0,0,0,.1-.1h.1v-.2a.1.1,0,0,0-.1-.1l-.2-.2-60.5-36.1h.1v-.2h-.1a.1.1,0,0,1-.1-.1h-.1l-23.7-14.2,4.8,2.9h.3a.1.1,0,0,1,.1-.1h0l22.6,13.5h.4a.1.1,0,0,0,.1-.1h0l9.1,5.3h0a.1.1,0,0,0,.1.1h.3a.1.1,0,0,1,.1-.1h0l8.2,4.8a.1.1,0,0,0,.1.1h.4v-.2h-.2l-42.9-25.4L685,343h.4c.1,0,.1,0,.1-.1L516.6,242.8Z" transform="translate(-498.2 -215.4)"/><path class="cls-8" d="M512.7,247.5l-.2.2,37.2,22.9h-.1l-29.4-17.9h-.6l-7.6-4.6h-.1l-.2.2,31.1,19.2h-.1l-23.5-14.4h-.4a.1.1,0,0,0,.1.1h0l6.1,3.7h0l-13.9-8.5-.4.5-.2.3,5.6,3.5h0l-5.9-3.7h0l-.3.3,16.2,10.1-16.2-10.1-.4.6,134.7,85.4H644l-38.2-24.2h-.1c0-.1,0-.1-.1-.1h0l-21.9-13.9h.1l35.5,22.3h.4c0-.1.1-.1,0-.2h0a.1.1,0,0,0-.1-.1h-.1l-28-17.6h0a.1.1,0,0,0-.1-.1h0L571.2,289h0l70.6,44.1h.5v-.2a.1.1,0,0,1-.1-.1H642l-43.8-27.4h0V305h-.1a.1.1,0,0,0-.1-.1l-35-21.8h.1l101.2,62.9h.5c0-.1,0-.1.1-.1v-.2h-.1c0-.1-.1-.1-.1-.2h-.2L621,318h0l19.8,12.3h.4c.1,0,.1,0,.1-.1h0c0-.1-.1-.1-.1-.2H641l-69.2-42.9h.1l6.2,3.9h.5l22.2,13.6h.4a.1.1,0,0,0-.1-.1l-10.3-6.4h.1l18.8,11.6h.4a.1.1,0,0,0,.1-.1h0l62.6,38.4h.6v-.2h-.1c0-.1,0-.1-.1-.2h-.1L655,335.4h0c0-.1,0-.1-.1-.2h-.1l-51.1-31.3h.1l75.1,45.8a.1.1,0,0,0,.1.1h.3a.1.1,0,0,0,.1-.1h0L513,247Z" transform="translate(-498.2 -215.4)"/><path class="cls-3" d="M509.4,251.5l6.2,3.9h-.1l-6.2-3.9-.4.6,4.2,2.7H513l-4.2-2.7h-.1l-.4.5,12.3,7.9h-.2L508.1,253l-.3.4v.2l.9.6h0l2.3,1.5h0l9.8,6.3-11.3-7.2h-.3l-2-1.2-.3.3,29.3,18.9h-.5L508.3,256H508a.1.1,0,0,0-.1.1h0l-1.5-1-.3.4L513,260h0a.1.1,0,0,0-.1.1h.1l9.2,6h-.1l-16.3-10.5h0l101.3,66.4h-.2l-54.2-35.3h.1l96,62.3h.5c0-.1-.1-.1-.1-.2H649l-55.8-36.3h.1l15.3,9.9h.1c.1,0,.1.1.2,0h.2a.1.1,0,0,0-.1-.1h-.2l-4.7-3.1,51,32.8h.5a.1.1,0,0,1,.1-.1h0c0-.1-.1-.1-.1-.2h-.1c0-.1-.1-.1-.2-.2l-85.4-55.2L641.2,341h.5a.1.1,0,0,1,.1-.1h0c0-.1-.1-.1-.1-.2h-.1a.1.1,0,0,0-.1-.1l-43.7-28.2h-.1a.1.1,0,0,0-.1-.1h0l-30.8-19.8h0a.1.1,0,0,0,.1-.1h-.1a.1.1,0,0,0-.1-.1l-14.9-9.6h0l66.7,42.5h.5v-.2c-.1,0-.1,0-.1-.1h-.1L577,297.4h.1a.1.1,0,0,1-.1-.1L562.9,288l110.4,70h.6v-.4h-.2l-60.7-38.6h.1c0-.1,0-.1-.1-.2h-.1l-11-7h.1V311h-.1a.1.1,0,0,0-.1-.1L567.4,289h.1l76.2,48.1h.5L509.5,251.4Z" transform="translate(-498.2 -215.4)"/><path class="cls-8" d="M505.2,256.5l-.7.9,11.3,7.5h0l22.4,14.8h-.1l-34-22.4-.3.4-.3.4,22.5,15h0l-22.6-14.9-.3.4,20.6,13.7h-.2l-9.6-6.5h-.3a.1.1,0,0,0-.1.1h.1l.8.5h-.1l-11.6-7.8-.2.2-.5.5L654,363.4h.2v-.2a.3.3,0,0,1-.1-.2H654c0-.1-.1-.1-.2-.2l-6.9-4.6h0v-.2h0v-.2h-.2L537.1,283.6h0l110.8,74.3h.6v-.2h-.1c0-.1,0-.1-.1-.2h-.1L581,312.2h.1v-.2H581a.1.1,0,0,1-.1-.1h0l-.7-.5h0l74,49.5h.4a.1.1,0,0,0,.1-.1h.1c0-.1,0-.1-.1-.2a.1.1,0,0,0-.1-.1c0-.1-.1-.1-.1-.2L617,335h.1v-.2a.1.1,0,0,0-.1-.1.1.1,0,0,0-.1-.1l-28.7-19.2h.1c0-.1,0-.1-.1-.2h0c-.1,0-.1,0-.1-.1h0l-36.9-24.5h.1l4.4,2.9h.3l30.3,20h.1a.1.1,0,1,0,.2,0h.1l18.8,12.3h.4c0-.1.1-.1,0-.2h0a.1.1,0,0,0-.1-.1h-.1l-12.4-8.2h.1l71.9,47.3h.5c.1-.1.1-.1.1-.2h-.1a.3.3,0,0,0-.1-.2h-.2l-12.9-8.5h.1c0-.1-.1-.1-.1-.2h-.1c0-.1-.1-.1-.2-.1l-79.4-52.2h.2L650.3,352a.1.1,0,0,0,.1.1h.3c.1,0,.1,0,.1-.1h0v-.2h-.3L578,303.9h.1l28.5,18.6h.5L505.8,255.8Z" transform="translate(-498.2 -215.4)"/><path class="cls-3" d="M502,260.4h-.1l16.5,11h-.1a.1.1,0,0,0,.1.1h0l10.4,7h0c-.1,0-.1,0-.1.1h.1l7.4,5h-.1L501.5,261l-.8.9-.4.5,2.5,1.7h.1l12.8,8.8h0c0,.1,0,.1.1.1h0l2.6,1.8h-.1l-18.4-12.5-.3.4h0l.7.4h-.1l-.7-.4-.5.6,24,16.6h-.1l-24-16.5-.2.3,10.4,7.3h0l-10.5-7.2-.4.5,110.2,77.3h.1a.1.1,0,0,0-.1-.1v-.2h-.2l-23.1-16.1h.1v-.2c-.1,0-.1,0-.1-.1H585l-32-22.3h0l28.5,19.7h0a.1.1,0,0,1,.1.1h.3c0-.1,0-.1.1-.1h0v-.2h-.2L542,294.3,587.8,326h.4l12,8.2h.5l36,24.8h.5a.1.1,0,0,0,.1-.1c0-.1-.1-.1-.1-.2a.1.1,0,0,0-.1-.1c0-.1-.1-.1-.1-.2l-57.6-39.7h.1l4.7,3.2h.5l11.3,7.8h.5c0-.1.1-.1,0-.1V329a.1.1,0,0,0-.1-.1h-.1L583.5,320h.1v-.2h0a.1.1,0,0,0-.1-.1.1.1,0,0,0-.1-.1h0l-24.6-16.9L579,316.3h.5a.1.1,0,0,0-.1-.1h-.1l-36.1-24.7h.1l11.4,7.7a.1.1,0,0,0,.1.1h.2a.1.1,0,0,0,.1-.1l94.2,64h.5c0-.1,0-.1.1-.1v-.2h-.1c0-.1,0-.2-.1-.2h-.1l-82.8-56.3h.1l74.6,50.4h.5v-.2h-.1l-.2-.2h0l-38.3-25.9h.1l50.1,33.8h.4L502,260.3Z" transform="translate(-498.2 -215.4)"/><path class="cls-9" d="M568.5,231.7h-.3a.1.1,0,0,1-.1.1h.2l24.3,11.7.3-.4Z" transform="translate(-498.2 -215.4)"/><path class="cls-9" d="M537.5,217.5l-.4.5,45.5,22h0L537,218.1v.2h-.1l20.9,10.1.6.2.5.2.5.2.5.3.5.2.5.3.4.2.5.3,13.9,6.8h0l-13.2-6.4.4.3.4.3.4.3.3.3,24.8,12.1h.1l2.5,1.2,1.3-1.9Z" transform="translate(-498.2 -215.4)"/><path class="cls-9" d="M555.8,227.9l.5.2h.5l-9.4-4.5h-.2a.1.1,0,0,0-.1.1h.1l7.7,3.7h.9Z" transform="translate(-498.2 -215.4)"/><path class="cls-9" d="M593.6,241.2h0l.5.2v-.2l-4.5-2.1L576.8,233h0l-37.6-17.6-.4.5,19,9h0l-19.1-9v.2h-.1l11.3,5.4h0c-.1,0,0,0,0,.1h.1l34.3,16.3h.1l8.9,4.2.9-1.5Z" transform="translate(-498.2 -215.4)"/><path class="cls-9" d="M542.7,219h-.2l50.4,24.2.3-.5Z" transform="translate(-498.2 -215.4)"/><path class="cls-9" d="M550.3,227.4h.5L535.6,220h-.1l-.2.3h0l14.6,7.1h.4Z" transform="translate(-498.2 -215.4)"/><polygon class="cls-9" points="66 22.9 66.3 23.9 67.8 24.6 68.5 24.1 66 22.9"/><path class="cls-9" d="M551.4,227.4h.4l-2.6-1.3h-.3l2,1h.5Z" transform="translate(-498.2 -215.4)"/><path class="cls-9" d="M591.2,245.9l-11.9-5.7h-.2l1.6.8h-.1l-14.8-7.1.3.4.3.4.2.4a.5.5,0,0,1,.2.4l8.1,3.9h0l-8-3.8.2.3a.8.8,0,0,0,.2.4c0,.1.1.2.1.4l.2.3-.3-.4-.2-.4-.3-.4-.3-.4-6.3-3.1h-.4l-6.5-3.2h-2.2l18.8,9.4h0l-19-9.4h-1.6l10.6,5.3h-.1l-10.6-5.3h-.7l15.3,7.6.2-.7.2,1,2.5,1.2,1.2-1-.5,1.4h.3l-.3-.2-.2.8,1.5.7,2.4-.5-1.4,1.1,18.1,9.1.4-.6Z" transform="translate(-498.2 -215.4)"/><path class="cls-9" d="M546.5,228h.5l-12.8-6.4-.2.2-.3.3,12.3,6.2h.5Z" transform="translate(-498.2 -215.4)"/><path class="cls-9" d="M545.2,228.5h.3l-8.6-4.3h-.2l8.2,4.2h.3Z" transform="translate(-498.2 -215.4)"/><path class="cls-9" d="M548.1,227.7h1L535,220.6l-.4.5,1.9.9h-.1l-1.9-.9-.2.3,12.9,6.4h.9Z" transform="translate(-498.2 -215.4)"/><path class="cls-9" d="M565.5,234.5l-.6-.5c-.2-.2-.3-.4-.5-.5l-7.1-3.4h-1.5l5.5,2.7h-.1l-5.6-2.7h-1.2l12,5.9-.5-.5Z" transform="translate(-498.2 -215.4)"/><path class="cls-9" d="M548.4,230.4h-.6c-.1,0-.2,0-.2.1l15.9,8,.2-.7Z" transform="translate(-498.2 -215.4)"/><path class="cls-9" d="M544.6,232.7h-.3l13.7,7.2-.8-1Z" transform="translate(-498.2 -215.4)"/><path class="cls-9" d="M544.4,228.8h.4l-7-3.5h-.2l.8.4h0L544,229h.4Z" transform="translate(-498.2 -215.4)"/><polygon class="cls-9" points="65.1 24 62.5 22.7 64.7 25.2 65.1 24"/><path class="cls-9" d="M558.5,240.7l-14.4-7.4h-.3l2.4,1.3h.1l13.3,6.9h.2Z" transform="translate(-498.2 -215.4)"/><path class="cls-9" d="M574.7,244.6h-.3l13.1,6.6.3-.4Z" transform="translate(-498.2 -215.4)"/><path class="cls-9" d="M541.5,230.7h.3l-10.6-5.4-.2.2v.2l10.4,5.4h.2Z" transform="translate(-498.2 -215.4)"/><polygon class="cls-9" points="73.8 28.4 71 27 69.8 27.9 73.8 28.4"/><path class="cls-9" d="M541,231.1h.2l-10.4-5.4h-.1l-.2.2,10.4,5.4h.1Z" transform="translate(-498.2 -215.4)"/><polygon class="cls-9" points="69.5 26.2 68.7 25.8 68.5 26.4 69.5 26.2"/><path class="cls-9" d="M540.5,231.7h.2l-10.4-5.3-.3.3,10.4,5.4h.1Z" transform="translate(-498.2 -215.4)"/><path class="cls-9" d="M542.7,229.7h.4l-10.9-5.6-.3.4h-.1l9.8,5h.1l.7.3h.1C542.6,229.8,542.7,229.8,542.7,229.7Z" transform="translate(-498.2 -215.4)"/><path class="cls-9" d="M545.2,232.2h-.5L557,239h-.1l2.8,1.4,1.4.8-.3-1Z" transform="translate(-498.2 -215.4)"/><path class="cls-9" d="M546.8,231.2h-.5l-.3.2-.2.2,5.2,2.6h.1l8.9,4.6h0l.8.4-.6-2.1Z" transform="translate(-498.2 -215.4)"/><polygon class="cls-9" points="67.2 25.1 66.5 24.7 66.7 25.5 67.2 25.1"/><polygon class="cls-9" points="66.6 32.4 66.6 32.4 66.6 32.4 66.6 32.4"/><path class="cls-9" d="M539.7,232.9h.1l-10.4-5.4-.3.3,10.5,5.5h.1Z" transform="translate(-498.2 -215.4)"/><path class="cls-9" d="M539.9,232.5h.1l-4.7-2.4H535l4.8,2.5h.1Z" transform="translate(-498.2 -215.4)"/><path class="cls-9" d="M559.4,245.1l-4.5-.6,2.4-.5-3.9-2h-.3l-10.8-5.7v.8l9.5,5h0l-9.5-5v.2h0v.2a.3.3,0,0,0-.1.2h.2l15.7,8.3,1.7-1.3Z" transform="translate(-498.2 -215.4)"/><path class="cls-9" d="M538.8,234.9v-.4l-5.9-3.1h-.3l3.4,1.8h0l2.6,1.4V235Z" transform="translate(-498.2 -215.4)"/><path class="cls-9" d="M555.1,241.4l3.5.5-15.2-7.8a.3.3,0,0,0-.1.2h-.1v.2c-.1.1-.1.2-.2.2l8,4.2h0l.8.4h0l7,3.7h.6Z" transform="translate(-498.2 -215.4)"/><path class="cls-9" d="M585.1,255.3l2.4-3.7-15-7.5-2.7.5,6.2,3.2h0l-6.3-3.2-1.2.3,4.4,2.3-4.9-.8.6.7,3.3,1.7-3.2-1.7,2.4,2.7-4.4-2.3v.5l12.9,6.7h-.1l-7-3.7h-.4l-5.2-2.7.2.6,11.1,5.9-11.1-5.8.6,2.2-2.9-3.4h-.1l-1.1,3.6-1-3.9-1.1.9,1.2.7h0l-1.3-.6-1.8,1.5.7-2.1-1.7-.9-2.2.5,1.3-1-14.6-7.8H543l12.3,6.6h0L542,238.7a1.5,1.5,0,0,0,.1.7,2,2,0,0,0,.1.7,1.3,1.3,0,0,0,.1.6c.1.2.1.5.2.7l24.7,13.4h-.1l-8-4.3h-1l-1.2.2h-3.8l2.3,1.3h.1l16.8,9.4h.1l5.3,3h0l-.8-.4h0l-26-14.3-1.3-.3-1.3-.5-1.3-.5-1.2-.7-1.2-.6-1-.8-.9-.7-.9-.9-13.5-7.4H528l4.5,2.5h0l38.6,21.5H571l-1.3-.7a.1.1,0,0,1-.1-.1h-.2l-46.9-26-.4.4H522l13.4,7.6h.1l30.1,16.9h-.1l-18.9-10.5h-.3l-24.7-13.8-.5.5,11.7,6.6-11.7-6.6-.3.4,25.3,14.4h.1l8.5,4.9-23.8-13.4h-.3l-10.2-5.8-.3.4,27.5,15.7h-.1l-1.3-.8h-.3l29.5,16.9.9-1.4-.9-.5h.1l.8.5,2.4-3.6,2.3-3.6-2.4-1.3h0l2.4,1.3.9-1.5Z" transform="translate(-498.2 -215.4)"/><polygon class="cls-9" points="60.7 31.6 62.2 32.4 62.7 31.1 60.7 31.6"/><path class="cls-9" d="M538.6,235.5h0v-.2l-11.1-5.8v.2h-.1l11.2,6h0Z" transform="translate(-498.2 -215.4)"/><path class="cls-9" d="M538.4,238v-1.2l-11.7-6.2-.3.3,4.4,2.3h-.1l-4.4-2.3-.2.3-.7.8,13.2,7.1a1.3,1.3,0,0,1-.1-.6A1.3,1.3,0,0,1,538.4,238Z" transform="translate(-498.2 -215.4)"/><path class="cls-9" d="M539,240.6a6181264102169.3,6181264102169.3,0,0,1-.2-.6h-.2l-13.7-7.4-.4.5h0l14.7,8.1c0-.2-.1-.3-.1-.4A.4.4,0,0,1,539,240.6Z" transform="translate(-498.2 -215.4)"/><path class="cls-9" d="M539.8,242.5l-.3-.6a.8.8,0,0,1-.2-.5l-14.9-8.1h0l-.7.8,16.8,9.3-.4-.5Z" transform="translate(-498.2 -215.4)"/><path class="cls-9" d="M554.4,250.2l1.9.2h1.8l-15.3-8.3.2.4c.1.2.1.3.2.4s.2.3.2.4l.3.4h0l.6.9.8.9.9.8,1,.8,3.7,2.1,1.8.6Z" transform="translate(-498.2 -215.4)"/><path class="cls-10" d="M560.8,229.9l-.5-.3-.5-.2-.5-.3-.5-.2-.5-.2-.6-.2,4,1.9-.5-.3Z" transform="translate(-498.2 -215.4)"/><path class="cls-10" d="M563.2,231.5l-.4-.3-.4-.3-5.6-2.7h-.5l-.5-.2h-.9l9,4.4-.3-.3Z" transform="translate(-498.2 -215.4)"/><path class="cls-10" d="M555,229.7h.6l-4.8-2.4h-.9l4.5,2.2h.6Z" transform="translate(-498.2 -215.4)"/><path class="cls-10" d="M556.6,229.9h.7l-5.5-2.7h-.9l4.9,2.4h.8Z" transform="translate(-498.2 -215.4)"/><path class="cls-10" d="M550.1,230h.8l-3.9-1.9h-1l1.7.8h0l1.6.8h.8Z" transform="translate(-498.2 -215.4)"/><path class="cls-10" d="M548.8,230.3h.4l-3.7-1.8h-.6l3.6,1.8h.3Z" transform="translate(-498.2 -215.4)"/><path class="cls-10" d="M566.4,235l-.3-.4-.3-.4-1.4-.7c.2.1.3.3.5.5l.6.5.4.5.5.5.4.3a.5.5,0,0,0-.2-.4Z" transform="translate(-498.2 -215.4)"/><path class="cls-10" d="M567.1,236.5l.2.4.3.4-.2-.3c0-.2-.1-.3-.1-.4a.8.8,0,0,1-.2-.4l-.2-.3-.4-.2.3.4Z" transform="translate(-498.2 -215.4)"/><path class="cls-10" d="M552.2,229.7h1.1l-4.2-2.1h-1.9l3.9,2h1.1Z" transform="translate(-498.2 -215.4)"/><path class="cls-10" d="M544.9,232.4h.3l-3.4-1.7h-.5l3.4,1.7h.2Z" transform="translate(-498.2 -215.4)"/><path class="cls-10" d="M544.4,232.9h.2l-3.4-1.7h-.3l3.4,1.7h.1Z" transform="translate(-498.2 -215.4)"/><path class="cls-10" d="M543.9,233.4h.2l-3.4-1.8h-.3l3.4,1.7h.1Z" transform="translate(-498.2 -215.4)"/><path class="cls-10" d="M546.3,231.4h0l-3.2-1.6h-.4c0,.1-.1.1-.2.2h-.1l3.4,1.8.2-.2Z" transform="translate(-498.2 -215.4)"/><path class="cls-10" d="M548,230.6h.4l-3.6-1.8H544l3.6,1.8c0-.1.1-.1.2-.1Z" transform="translate(-498.2 -215.4)"/><path class="cls-10" d="M543.2,234.4h.1a.3.3,0,0,1,.1-.2l-3.4-1.8h-.2l3.2,1.6-3.2-1.6h-.2l3.3,1.7c.1,0,.1-.1.2-.2Z" transform="translate(-498.2 -215.4)"/><path class="cls-10" d="M542.2,236.7v-.4l-3.4-1.8v.4h-.1v.2l3.4,1.9v-.4Z" transform="translate(-498.2 -215.4)"/><path class="cls-10" d="M542.1,237.4h0v-.2l-3.4-1.9v.2h.1l3.3,1.8a.3.3,0,0,1,.1-.2Z" transform="translate(-498.2 -215.4)"/><path class="cls-10" d="M555.7,250.6h1.2l1.2-.2h-1.8l-1.9-.2-1.9-.4-1.8-.6,2.4,1.3h2.6Z" transform="translate(-498.2 -215.4)"/><path class="cls-10" d="M543.2,242.9c-.1-.1-.1-.2-.2-.4l-.2-.4-3.8-2h-.2a9271896154040.7,9271896154040.7,0,0,1,.3.9c0,.1.1.2.1.4l4.5,2.4-.3-.4C543.4,243.2,543.3,243.1,543.2,242.9Z" transform="translate(-498.2 -215.4)"/><path class="cls-10" d="M542.2,240.1a2,2,0,0,1-.1-.7,1.5,1.5,0,0,1-.1-.7l-3.6-1.9V238a1.3,1.3,0,0,0,.1.6,1.3,1.3,0,0,0,.1.6l3.9,2.2c-.1-.2-.1-.5-.2-.7A1.3,1.3,0,0,1,542.2,240.1Z" transform="translate(-498.2 -215.4)"/><path class="cls-10" d="M545.1,245.5l-.8-.9-.6-.9h-.1l-4.3-2.4a.8.8,0,0,0,.2.5l.3.6.3.5.4.5,6.5,3.6-1-.8Z" transform="translate(-498.2 -215.4)"/><path class="cls-10" d="M543.6,246.7l1,.8,1.2.6,1.2.7,1.3.5,1.3.5,1.3.3-9.1-5,.9.9Z" transform="translate(-498.2 -215.4)"/><polygon class="cls-10" points="65.5 22.6 65.3 23.4 66.3 23.9 66 22.9 65.5 22.6"/><polygon class="cls-10" points="68.5 24.1 69.2 24.4 69.7 23.1 68.5 24.1"/><polygon class="cls-10" points="65.5 22.6 66 22.8 65.8 21.9 65.5 22.6"/><polygon class="cls-10" points="70.5 26 71.5 26.5 72.9 25.4 70.5 26"/><polygon class="cls-10" points="68.5 24.1 67.8 24.6 69 25.2 69.2 24.5 68.5 24.1"/><path class="cls-10" d="M572.9,247.2l-4.4-2.3,1.2-.3-8.9-4.5.3,1,3,1.5H564l-6.8-3.5.8,1,3.5,1.7h-.1l-2.9-1.5,1.3,1.4h-.2l7.5,3.9H567a.1.1,0,0,1,.1.1h.1l1.4.8-.6-.7Z" transform="translate(-498.2 -215.4)"/><polygon class="cls-10" points="58.8 23.5 61.4 24.9 58.7 23.5 58.8 23.5"/><polygon class="cls-10" points="73.8 28.4 69.8 27.9 71 27 69.5 26.2 68.5 26.4 68.7 25.8 67.2 25.1 66.7 25.5 66.5 24.7 65.1 24 64.7 25.2 62.5 22.7 62 22.5 62.6 24.5 71.6 29.2 74.3 28.6 73.8 28.4"/><polygon class="cls-10" points="61.2 29.7 59 28.5 56.7 29 61.2 29.7"/><polygon class="cls-10" points="72.9 34.4 70.4 31.7 60.4 26.5 56.9 25.9 61.1 28.1 60.4 28.2 68.6 32.5 68.5 32 72.9 34.4"/><path class="cls-10" d="M561.2,245.5H561l3.8,2h0l2.4,1.2-.2-.6Z" transform="translate(-498.2 -215.4)"/><polygon class="cls-10" points="68.9 33.7 66.7 32.5 69.6 35.9 68.9 33.7"/><polygon class="cls-10" points="65.5 36 66.6 32.5 61.4 29.8 59.7 31.1 60.7 31.6 62.7 31.1 62.2 32.4 63.4 33 64.5 32.1 65.5 36"/><polygon class="cls-10" points="63.3 33.1 62.2 32.5 61.4 34.6 63.3 33.1"/><polygon class="cls-10" points="60.5 31.6 59.6 31.1 58.3 32.1 60.5 31.6"/></g></g></g><image class="cls-11" width="382" height="483" transform="translate(48.1 22.3) scale(0.24)" xlink:href="map_white1.png"/><path class="cls-3" d="M590.3,245.8h-.2a36.7,36.7,0,0,0-36.5,36.6,50.2,50.2,0,0,0,7.2,23.5c6.7,10.7,26.5,34.1,29.4,37.6h.2c2.9-3.5,22.6-27,29.4-37.7a51,51,0,0,0,7.1-23.4A36.6,36.6,0,0,0,590.3,245.8Zm0,63.8a26.5,26.5,0,1,1,26.4-26.5A26.5,26.5,0,0,1,590.3,309.6Z" transform="translate(-498.2 -215.4)"/><circle class="cls-3" cx="92" cy="67.6" r="11.7"/></g></g></svg>