<svg xmlns="http://www.w3.org/2000/svg" xmlns:xlink="http://www.w3.org/1999/xlink" viewBox="0 0 223.3 157"><defs><style>.cls-1{fill:none;}.cls-2{isolation:isolate;}.cls-3{fill:#1e439b;}.cls-4{fill:#e82327;}.cls-5{fill:#fff;}.cls-6{opacity:0.29;}.cls-7{clip-path:url(#clip-path);}.cls-8{clip-path:url(#clip-path-2);}.cls-9{fill:#272870;}.cls-10{fill:#fbca0c;}.cls-11{opacity:0.43;mix-blend-mode:multiply;}</style><clipPath id="clip-path" transform="translate(-122.3 -204.4)"><path class="cls-1" d="M290,283.7a75.6,75.6,0,0,1-142.9,34.4h0A75.6,75.6,0,1,1,290,283.7Z"/></clipPath><clipPath id="clip-path-2" transform="translate(-122.3 -204.4)"><rect class="cls-1" x="130.5" y="242.2" width="213.7" height="142.49" transform="translate(131 -65.1) rotate(21.4)"/></clipPath></defs><title>bio_red</title><g class="cls-2"><g id="Layer_1" data-name="Layer 1"><path class="cls-3" d="M214.4,283.7" transform="translate(-122.3 -204.4)"/><path class="cls-4" d="M292.1,283.7a77.7,77.7,0,0,1-146.9,35.4h0a76.8,76.8,0,0,1-8.6-35.4,77.8,77.8,0,1,1,155.5,0Z" transform="translate(-122.3 -204.4)"/><path class="cls-5" d="M290,283.7a75.6,75.6,0,0,1-142.9,34.4h0A75.6,75.6,0,1,1,290,283.7Z" transform="translate(-122.3 -204.4)"/><g class="cls-6"><g class="cls-7"><g class="cls-8"><path class="cls-4" d="M231.3,236.4h.2l-13.1-6.2-.2.2Z" transform="translate(-122.3 -204.4)"/><path class="cls-4" d="M290.6,271.5a.1.1,0,0,0-.1-.1h-.1a.1.1,0,0,0-.1-.1h0l-2.2-1.1,28,13.6h.3a.1.1,0,0,0,.1-.1h.1v-.2h-.3l-92.7-45,56.3,27.2h.2l-57.4-27.8h0L270,259.9h.3a.1.1,0,0,1,.1-.1h-.1a.1.1,0,0,0-.1-.1l-40.7-19.7h.1l91.2,43.8h.1l-26.9-13h.2c0-.1-.1-.1-.1-.2h-.2l-23.3-11.2h.1l62.2,29.7h.5c0-.1,0-.1-.1-.2h-.1a.1.1,0,0,1-.1-.1l-46.7-22.3h0l23.1,11h0a.1.1,0,0,1,.1.1h.2a.1.1,0,0,1,.1-.1h0c.1-.1.1-.1,0-.2h-.3l-44.9-21.4,25.3,12h.4c.1,0,.1,0,.1-.1h0l43.3,20.6h.4a.1.1,0,0,0,.1-.1h-.1a.1.1,0,0,0-.1-.1h-.2l-52.7-25.1h.1l2.3,1.1h.4l52.3,24.7h.5a.1.1,0,0,0-.1-.1h-.2L218.2,230.4l-.9,1.4,1.4.7-1.4-.6-.3.4,1.1.6-1.1-.6-.3.4,3,1.4h-.1l-2.9-1.4-1.2,2,12.7,6.2h0l62.4,30.6Z" transform="translate(-122.3 -204.4)"/><path class="cls-5" d="M345.6,304.9h0l-.2-.2h-.1L231.9,247.9h.1l46.1,22.9h.5l63.2,31.5h.5a.1.1,0,0,0,.1-.1h-.1v-.2c-.1,0-.2,0-.2-.1l-8.8-4.3h.1v-.2H333l-69.5-34.5h0a.1.1,0,0,0,.1-.1h-.3L235.5,248h.1l26.9,13.3h.4s.1,0,0-.1h-.2l-4.3-2.2h0l10.5,5.1a.1.1,0,0,0,.1.1h.1l70.1,34.4h.5v-.2a.1.1,0,0,0-.1-.1h-.1c0-.1-.1-.1-.2-.1l-69.8-34.3h.1l3.7,1.8h0a.1.1,0,0,0,.1.1h.1l-6.2-3h.1L312,282.7h.5c.1,0,.1,0,0-.1h-.3l-21.6-10.6h0L228.2,241h.1l-13-6.2-3,4.6L288.6,278h0c-.1,0-.1,0-.1-.1h-.2l-35.6-18h0l85.7,42.9h.5v-.2h-.4L223.4,244.4,345.1,305h.5C345.7,305,345.6,304.9,345.6,304.9Z" transform="translate(-122.3 -204.4)"/><path class="cls-4" d="M212,240.1l5.3,2.7h0l-5.4-2.7-.2.4,3.4,1.8h0l-3.5-1.7-2.4,3.7,59.4,30.9,56.5,29.2h.3c.1,0,.1,0,.1-.1h.1v-.2h-.1a.1.1,0,0,0-.1-.1c0-.1-.1-.1-.2-.1h0L217.5,248h0l38.9,20.1h.5c0-.1,0-.1-.1-.1h-.2l-10.5-5.4,41.8,21.4h.5l14.4,7.4h.5v-.2H303L280.6,279h.1L341.4,310h.5a.1.1,0,0,1,.1-.1h0c-.1-.1-.1-.1-.1-.2h-.3l-76.4-39.1h.2c-.1-.1-.1-.1-.1-.2h-.2l-4.7-2.4h.1l6.5,3.3h.4c0-.1.1-.1,0-.1h-.1a.1.1,0,0,0-.1-.1l-17.7-9h0c-.1,0-.1,0-.1-.1l-29.5-14.9,9.9,5h.4l91.9,46.6h.5c0-.1,0-.1.1-.1h-.1v-.2h-.3l-68.1-34.6h.1a829303603133.4,829303603133.4,0,0,1-.2-.2h0l-17-8.6h.1l13.5,6.8h.4a.1.1,0,0,1,.1-.1H251l-22.6-11.4h0l59.7,30h.5l-76.3-38.5Z" transform="translate(-122.3 -204.4)"/><path class="cls-5" d="M206.1,249.2,233,263.7h.1l94.2,50.2h.5c.1-.1.1-.1,0-.1v-.2a.1.1,0,0,1-.1-.1h-.2l-70.6-37.7h0a.1.1,0,0,1-.1-.1l-24.4-13h.1c0-.1,0-.1-.1-.1h-.1L220,255.2h.1l7.2,3.8h.1a.1.1,0,1,0,.2,0h.1l41.1,21.8h.5c-.1-.1-.1-.1-.1-.2H269l-40.4-21.5h.1c0-.1,0-.1-.1-.1h-.1l-14.4-7.6h0L331,312.6h.6v-.2h-.1a.1.1,0,0,0-.1-.1l-.2-.2h0l-85.9-45.3h.1l3.4,1.8a.1.1,0,0,1,.1.1h.4a.1.1,0,0,0-.1-.1h-.1c0-.1,0-.1-.1-.1h0l-13.6-7.2,64,33.5h.4a.1.1,0,0,0,.1-.1h0a.1.1,0,0,0-.1-.1c0-.1,0-.1-.1-.1h-.1l-62.7-32.9h.1l32.7,17h.4l44.8,23.3h.5v-.2h-.1a.1.1,0,0,0-.1-.1H315l-61.3-32.1h0a.1.1,0,0,0-.1-.1h-.1l-34.9-18.2,11,5.7h.3a.1.1,0,0,0-.1-.1l-3.1-1.6,41.9,21.6-59.4-30.9Z" transform="translate(-122.3 -204.4)"/><path class="cls-4" d="M264.7,288.6l22.7,12.5h.5v-.2h0a.1.1,0,0,1-.1-.1h-.2L223.1,265l69,37.8h.5v-.2h-.3l-35.8-19.7h.1a.1.1,0,0,1-.1-.1h-.1l-52.1-28.6h.1l45.3,24.8h.5l14.1,7.7h.2l-1.1-.6h.1l42.4,23.1h.5c.1-.1.1-.1,0-.2h-.3l-39.3-21.4h0c0-.1,0-.1-.1-.1s0-.1-.1-.1L237,269.3l46.2,25h.4c.1,0,.1,0,.1-.1h0a.1.1,0,0,1-.1-.1h-.2l-.4-.2,51,27.5h.6c0-.1-.1-.1-.1-.2h-.3L205.1,250.7l-2.3,3.5Z" transform="translate(-122.3 -204.4)"/><path class="cls-4" d="M205.1,250.6l36.6,19.7h.3c.1,0,.1,0,.1-.1h0l66.2,35.6h.5c-.1-.1-.1-.1-.1-.2h-.2l-97-52.2h0l56.6,30.3h.3a.1.1,0,0,0,.1-.1h.1c0-.1,0-.1-.1-.1V283h-.1l-39.8-21.4h.1l4.1,2.2h.3l-26.9-14.5Z" transform="translate(-122.3 -204.4)"/><path class="cls-5" d="M200.5,257.8l14.2,8h.2l68.4,38.4h.5l48.9,27.6h.6v-.2h-.1c0-.1-.1-.1-.1-.2h-.2L226.7,271.4h.1l3.3,1.9h.2l-14.3-8h.1l1.5.8h.3c.1,0,.1,0,.1-.1L238.5,277h.4c-.1,0-.1,0-.1-.1h0L213,262.1h.1l44.4,24.7h.5a497582161916,497582161916,0,0,1-.2-.2l-29.3-16.3,56.8,31.4h.2a.1.1,0,0,0,.2,0c.1,0,.1,0,.1-.1h-.3l-27.6-15.4h-.1l-49.4-27.4,2.6,1.4h.2l53.5,29.4-61.9-34.4Z" transform="translate(-122.3 -204.4)"/><path class="cls-5" d="M267.8,298.6h.1l46.7,26.6h.3c.1,0,.1,0,.1-.1h.1l-.2-.2h-.1L210.5,265.1h0a.1.1,0,0,1,.1-.1h0l5.3,3h.3a.1.1,0,0,0,.1-.1h0l2.3,1.3h.2l97.7,55.3h.2c0,.1.1.1.2.1a.1.1,0,0,1,.1-.1h.1a.1.1,0,0,1-.1-.1c0-.1-.1-.1-.1-.2h-.2L200.4,258l-.9,1.3Z" transform="translate(-122.3 -204.4)"/><path class="cls-4" d="M170,242.4h-.1l-19.2-11h-.2l17.7,10.2h0l-24.5-14h-.1l-.6.8,20.9,12.1h0l-21-12-.3.3,33.7,19.5-33.8-19.4h0l-.3.3,8.1,4.6-8.1-4.6-.3.4,11.9,6.9h-.1l-9.6-5.6h-.3l23.1,13.5h0l-25.4-14.8-.5.5,29.9,17.6h0L158,241.5h-.3l-16.9-9.9h-.1L309.6,332h0c0-.1-.1-.1-.1-.2h-.2l-121-71.5h0l20.5,12h.3c.1,0,.1,0,.1-.1L235,287a.1.1,0,0,0,.1.1h.3c0-.1,0-.1-.1-.1h-.1l-10-5.9h.1l32,18.7h.5l2.3,1.4h.4a.1.1,0,0,0,.1-.1h0a.1.1,0,0,1-.1-.1h-.2l-16.2-9.5h.1v-.2h-.1a.1.1,0,0,1-.1-.1l-28.4-16.5h0l17,9.8h.1a.1.1,0,0,0,.1.1h.1a.1.1,0,0,1-.1-.1l-23.9-13.9,27.6,15.9h.2a.1.1,0,0,0,.1-.1h.1v-.2h-.2l-18.2-10.5L276.4,307h.4a.1.1,0,0,0,.1-.1h0a.1.1,0,0,0-.1-.1v-.2h-.1L217.1,272h0l-3.6-2.1h.1l28.8,16.5h.4a.1.1,0,0,1,.1-.1L328,334.8h.6c-.1-.1-.1-.1-.1-.2h-.2a.1.1,0,0,0-.1-.1h0L196.7,258.6h.1l11.7,6.7h.4l58.5,33.3h.4l-68.3-39.3Z" transform="translate(-122.3 -204.4)"/><path class="cls-5" d="M140.5,231.9h.1c.1,0,.1,0,.1.1h0l31.9,18.9h0l-19.3-11.3h-.4l-12.7-7.5-.3.3,34.8,20.7h-.1l-34.8-20.6-.5.7,13.1,7.8h0l20.3,12.2h.1l13.9,8.4h-.1l-22.7-13.5h-.3l-25-14.9-.3.3,33,19.9h0l-11.5-6.9h-.4l-13-7.8h-.3l20,12.1H166l-6.9-4.1h-.3l-21.3-12.8-.3.4L303.5,338h-.1c0-.1,0-.1-.1-.1h-.1l-50.5-30.9h.1c0-.1,0-.1-.1-.2h-.2l-35.3-21.5L234.1,295h.5l27.7,16.9h.4c.1,0,.1,0,.1-.1h-.2l-50.7-30.8L266,313.1h.5L284.8,324h.6v-.2h-.1c0-.1-.1-.1-.1-.2a.1.1,0,0,1-.1-.1l-52.6-31.7h0a.1.1,0,0,0-.1-.1h0l-19.1-11.5h.1l15.4,9.2h.5l8.7,5.2h.3c.1,0,.1,0,.1-.1h0a.1.1,0,0,0-.1-.1h-.1l-6.8-4.1,84.8,50.6h.5v-.2h0l-.2-.2h-.1L255.8,303h0a.1.1,0,0,0-.1-.1h0l-23.8-14.2,4.8,2.8h.5l22.5,13.4h.3c.1,0,.1,0,.1-.1h.1l9.1,5.4h0a.1.1,0,0,1,.1.1h.2a.1.1,0,0,0,.1-.1h.1l8.2,4.9h.2a.1.1,0,1,0,.2,0c.1,0,.1,0,.1-.1h0c-.1-.1-.1-.1-.1-.2h-.2l-42.9-25.4L309.1,332h.5L140.7,231.7Z" transform="translate(-122.3 -204.4)"/><path class="cls-4" d="M136.8,236.4l-.2.3,37.2,22.8h0a.1.1,0,0,1-.1.1l-29.3-18h-.7l-7.5-4.7-.2.2-.2.2,31.1,19.2h-.1l-23.5-14.4h-.2l6,3.8h0l-13.9-8.6-.4.5-.2.3,5.6,3.6h0a.1.1,0,0,0-.1.1h.1l-5.8-3.6h-.1l-.2.3,16.1,10.2L134,239.8l-.4.5,134.7,85.4h-.1a.1.1,0,0,0-.1-.1l-38.2-24.1h.1c0-.1-.1-.1-.1-.2h-.2l-21.9-13.8h.1l35.5,22.2a.1.1,0,0,0,.1.1h.4c0-.1,0-.1-.1-.1s0-.1-.1-.2h-.1l-28-17.6h-.1l-20.2-12.7h0l70.6,44.2h.4c.1,0,.1,0,.1-.1h0c0-.1-.1-.1-.1-.2h-.2l-43.8-27.4h-.1c0-.1,0-.1-.1-.1l-35-21.9h.1l101.2,63h.6c0-.1,0-.1-.1-.2a.1.1,0,0,0-.1-.1h-.1L245.1,307h0l19.8,12.3h.5c0-.1.1-.1,0-.1v-.2h-.1a.1.1,0,0,0-.1-.1h0l-69.3-43h.1l6.3,3.8h.2a.1.1,0,0,0,.1-.1h.1L225,293.1h.3c.1,0,.1,0,.1-.1h-.2l-10.3-6.4h.1l18.8,11.6h.5L297,336h0a.1.1,0,0,0,.1.1h.3c.1,0,.1,0,.1-.1h0v-.2h-.2c0-.1-.1-.1-.1-.2l-18.1-11h.1V324a.1.1,0,0,0-.1-.1h-.1l-51.1-31.3a.1.1,0,0,0,.1-.1h0L303,338.2h.2a.1.1,0,0,0,.1.1h.2L137.2,236Z" transform="translate(-122.3 -204.4)"/><path class="cls-5" d="M133.5,240.4l6.2,3.9h0l-6.2-3.8-.5.5,4.3,2.7h-.2l-4.2-2.6h-.1l-.4.6,12.3,7.8h-.1l-12.3-7.8-.4.5h-.1l1,.6h-.1c-.1,0-.1,0-.1.1h.1L135,245h0l9.8,6.3-11.3-7.2h-.3l-2-1.3-.3.3,29.3,19H160c0-.1,0-.1-.1-.1h-.1c-.1,0-.1,0-.1.1L132.4,245H132l-1.5-1-.3.4,6.9,4.5h0l9.2,5.9h-.1L130,244.7h-.1l101.3,66.4H231l-54.1-35.3h0l96,62.2h.6c0-.1-.1-.1-.1-.2h-.1c0-.1-.1-.1-.1-.2l-55.9-36.2h.1l15.3,9.9h.5v-.2c-.1,0-.1,0-.1-.1H233l-4.8-3.1,51,32.9c.1,0,.2,0,.2.1h.2a.1.1,0,0,0,.1-.1h.1v-.2h-.1c0-.1,0-.1-.1-.2h-.1L194,284.1,265.4,330h0a.1.1,0,0,1,.1.1h.2a.1.1,0,0,0,.1-.1h.1v-.2a.1.1,0,0,0-.1-.1v-.2h-.1l-43.7-28.1h0v-.2h-.2L191,281.1h0a.1.1,0,0,1-.1-.1h-.1l-14.9-9.5h0l66.7,42.6h.4c.1,0,.1,0,.1-.1h0a.1.1,0,0,0-.1-.1c0-.1-.1-.1-.1-.2l-41.8-26.6h.1a.1.1,0,0,0-.1-.1l-14.1-9L297.4,347h0c.1,0,.2,0,.2.1h.2a.1.1,0,0,0,.1-.1c.1,0,.1,0,.1-.1h0a.3.3,0,0,0-.1-.2,497582161915.8,497582161915.8,0,0,0-.2-.2L237,307.7h.1v-.2h-.3l-11-7h0c0-.1,0-.1-.1-.1L191.5,278h.1l76.3,48.2h.4a.1.1,0,0,0,.1-.1h0a.1.1,0,0,1-.1-.1L133.6,240.3Z" transform="translate(-122.3 -204.4)"/><path class="cls-4" d="M129.3,245.4l-.7,1,11.3,7.5h0l22.4,14.9h-.1l-34-22.3-.3.4-.3.4,22.5,15h0l-22.6-15-.3.4,20.6,13.7h-.1l-9.7-6.4h-.3l.8.6h0l-11.7-7.8-.2.2-.4.6,151.9,103h.2c0-.1,0-.2-.1-.2v-.2H278l-7-4.7h.1c0-.1-.1-.1-.1-.2s-.1-.1-.1-.2h-.2L161.2,272.5h0l110.9,74.4h.3a.1.1,0,0,0,.1-.1h.1v-.2a.1.1,0,0,1-.1-.1l-.2-.2-67.2-45h0c0-.1,0-.1-.1-.1h0l-.7-.5h0l74.1,49.4h.5v-.2h0v-.2h-.2l-37.5-25.1h.1a.1.1,0,0,0,.1-.1h-.1c0-.1,0-.1-.1-.2H241l-28.7-19.1h0a.1.1,0,0,0-.1-.1h0l-36.9-24.5h.1l4.4,2.9a.1.1,0,0,1,.1.1h.1a.1.1,0,0,0,.1-.1h.1l30.2,19.9h.5L229.6,314h0a.1.1,0,0,0,.1.1h.3a.1.1,0,0,0,.1-.1v-.2h-.2l-12.4-8.2h.1l71.9,47.2h0a.1.1,0,0,0,.1.1h.5c0-.1-.1-.1-.1-.2s-.1-.1-.1-.2h-.2l-12.8-8.5h0v-.2h-.1c0-.1,0-.1-.1-.2h-.1l-79.4-52.2h.1L274.4,341h.5v-.2h0c0-.1-.1-.1-.1-.2h-.2l-72.5-47.5h.1l28.5,18.6h.5L129.9,244.8Z" transform="translate(-122.3 -204.4)"/><path class="cls-5" d="M126.1,249.3h0l16.4,11.1h0c-.1,0-.1,0,0,.1h.1l10.3,7.1h0a.1.1,0,0,1-.1.1h.1a.1.1,0,0,0,.1.1l7.3,4.9h-.1l-34.6-23.4-.8,1-.3.4,2.4,1.7h.1l12.8,8.8h.1l2.6,1.8h-.1l-18.3-12.6-.4.4h0l.7.5h-.1l-.7-.5-.5.6,24,16.7h0l-24-16.6-.3.4,10.4,7.3h0l-10.5-7.3-.4.5,110.2,77.3h.1v-.2h-.3l-23-16.2h0a.1.1,0,0,0-.1-.1h-.1l-32-22.3h.1l28.4,19.8h.4a.1.1,0,0,0,.1-.1H206c0-.1,0-.1-.1-.1h0l-39.8-27.7,45.8,31.6a.1.1,0,0,0,.1.1h.3a.1.1,0,0,1,.1-.1h0l11.9,8.2h.5l36,24.9h.6a.1.1,0,0,0-.1-.1c0-.1,0-.2-.1-.2a.1.1,0,0,0-.1-.1l-57.5-39.7h.1l4.6,3.2h.4a.1.1,0,0,0,.1-.1h0l11.4,7.7h0a.1.1,0,0,0,.1.1h.4a.1.1,0,0,0-.1-.1v-.2h-.2l-12.8-8.8h.1a.1.1,0,0,0,.1-.1h-.1v-.2h-.1l-24.7-16.9,20.2,13.8h0a.1.1,0,0,1,.1.1h.3c0-.1,0-.1.1-.1h0v-.2h-.1a.1.1,0,0,1-.1-.1L167.3,280h.1l11.4,7.8h.1a.1.1,0,0,1,.1.1.1.1,0,0,0,.1-.1h.1l94.2,63.9h.6c0-.1,0-.1-.1-.2a.3.3,0,0,0-.1-.2h-.1l-82.8-56.2h.2l74.5,50.4h.5c.1,0,.1,0,.1-.1h-.1a.3.3,0,0,0-.1-.2h-.1l-38.3-26h0l50.1,33.7h0a.1.1,0,0,1,.1.1h.3l-151.9-103Z" transform="translate(-122.3 -204.4)"/><path class="cls-9" d="M192.6,220.7h-.2l24.3,11.7.3-.4Z" transform="translate(-122.3 -204.4)"/><path class="cls-9" d="M161.7,206.4l-.5.5,45.5,22h0L161.1,207v.2h-.1l21,10.2h.5l.5.3.5.2.5.2.5.3.5.2.4.3.5.3,14,6.7h-.1l-13.1-6.3.4.3.3.3.4.3.4.3,24.7,12h.1l2.6,1.3,1.2-2Z" transform="translate(-122.3 -204.4)"/><path class="cls-9" d="M180,216.9h.9l-9.3-4.4h-.3l7.7,3.8h1Z" transform="translate(-122.3 -204.4)"/><path class="cls-9" d="M217.7,230.2h.1l.4.2.2-.2-4.5-2.2-13-6.1h0l-37.6-17.6-.4.5,19,9h0l-19-8.9-.2.2h-.1l11.4,5.4h0l34.3,16.4h.1l8.9,4.2.9-1.4Z" transform="translate(-122.3 -204.4)"/><path class="cls-9" d="M166.9,207.9h-.3L217,232.3l.3-.4Z" transform="translate(-122.3 -204.4)"/><path class="cls-9" d="M174.5,216.4h.4l-15.2-7.4h-.1l-.2.2h.1l14.5,7.2h.5Z" transform="translate(-122.3 -204.4)"/><polygon class="cls-9" points="66 22.9 66.3 23.9 67.8 24.6 68.5 24.1 66 22.9"/><path class="cls-9" d="M175.5,216.3h.5l-2.7-1.3H173l2.1,1h.4Z" transform="translate(-122.3 -204.4)"/><path class="cls-9" d="M215.3,234.9l-11.9-5.8H203c0,.1,0,.1.1.1h.1l1.6.8h-.1l-14.8-7.2.3.4.3.4a.8.8,0,0,1,.2.4l.3.4,8,4h0l-8-3.9.2.4.2.3c0,.2.1.3.1.4s.1.2.2.4l-.3-.5c0-.1-.1-.2-.2-.4l-.3-.4-.3-.4-6.3-3.1h-.4a.1.1,0,0,1,.1.1l-6.5-3.2h-2.3l18.9,9.4H194l-19-9.4h-1.5l10.5,5.3h-.1l-10.6-5.3h-.6l15.2,7.7.2-.7.3.9,2.4,1.3,1.2-1-.4,1.3.3.2h-.3l-.3.7,1.5.8,2.4-.6-1.3,1.1,18.1,9.2.3-.6Z" transform="translate(-122.3 -204.4)"/><path class="cls-9" d="M170.6,217h.5l-12.8-6.3-.2.2-.2.3,12.2,6.1h.5Z" transform="translate(-122.3 -204.4)"/><path class="cls-9" d="M169.3,217.4h.3l-8.6-4.2h-.2l8.3,4.1h.2Z" transform="translate(-122.3 -204.4)"/><path class="cls-9" d="M172.2,216.6h1l-14.1-7-.4.5,1.9.9h-.1l-1.9-.9-.2.3,12.9,6.4h.9Z" transform="translate(-122.3 -204.4)"/><path class="cls-9" d="M189.6,223.4l-.6-.5c-.1-.2-.3-.3-.5-.5l-7.1-3.4H180l5.4,2.7h0l-5.7-2.7h-1.2l12,5.9-.4-.5Z" transform="translate(-122.3 -204.4)"/><path class="cls-9" d="M172.6,219.4h-.9l15.9,8.1.3-.8Z" transform="translate(-122.3 -204.4)"/><path class="cls-9" d="M168.7,221.7h-.1c0,.1,0,.1-.1.1h-.1l13.8,7.1-.9-1Z" transform="translate(-122.3 -204.4)"/><path class="cls-9" d="M168.5,217.7h.4l-7-3.5h-.2l.8.4h0l5.7,2.8h.1C168.4,217.8,168.5,217.8,168.5,217.7Z" transform="translate(-122.3 -204.4)"/><polygon class="cls-9" points="65.1 24 62.5 22.7 64.7 25.2 65.1 24"/><path class="cls-9" d="M182.6,229.6l-14.4-7.4h-.3l2.4,1.2h.1l13.4,6.9h.1Z" transform="translate(-122.3 -204.4)"/><path class="cls-9" d="M198.8,233.6h-.2l13.1,6.6.2-.4Z" transform="translate(-122.3 -204.4)"/><path class="cls-9" d="M165.7,219.6h.2L155.3,214l-.2.3v.2l10.4,5.3a.1.1,0,0,0,.1-.1Z" transform="translate(-122.3 -204.4)"/><polygon class="cls-9" points="73.8 28.4 71 27 69.8 27.9 73.8 28.4"/><path class="cls-9" d="M165.2,220.1h.1l-10.4-5.3h-.1l-.2.3,10.4,5.3h.2Z" transform="translate(-122.3 -204.4)"/><polygon class="cls-9" points="69.5 26.2 68.7 25.8 68.5 26.4 69.5 26.2"/><path class="cls-9" d="M164.6,220.6h.2l-10.4-5.4-.2.4,10.3,5.3h.1Z" transform="translate(-122.3 -204.4)"/><path class="cls-9" d="M166.9,218.7h.1l.2-.2-10.9-5.5-.3.3v.2l9.9,5h0l.7.4.2-.2Z" transform="translate(-122.3 -204.4)"/><path class="cls-9" d="M169.3,221.1h-.1v.2h-.3l12.3,6.3H181l2.8,1.5,1.4.7-.3-.9Z" transform="translate(-122.3 -204.4)"/><path class="cls-9" d="M170.9,220.1h-.3c0,.1-.1.1-.2.2h-.3l-.2.2,5.3,2.7h0l8.9,4.5h0l.8.3-.6-2Z" transform="translate(-122.3 -204.4)"/><polygon class="cls-9" points="67.2 25.1 66.5 24.7 66.7 25.5 67.2 25.1"/><polygon class="cls-9" points="66.6 32.4 66.6 32.4 66.6 32.4 66.6 32.4"/><path class="cls-9" d="M163.8,221.8a.1.1,0,0,1,.1-.1h0l-10.4-5.4-.2.3,10.4,5.5h.1Z" transform="translate(-122.3 -204.4)"/><path class="cls-9" d="M164,221.4h.1l-4.7-2.5h-.3l4.8,2.5h.1Z" transform="translate(-122.3 -204.4)"/><path class="cls-9" d="M183.5,234.1l-4.4-.7,2.3-.5-3.9-2h-.3l-10.8-5.6v.2h-.1v.4l9.5,5h-.1l-9.4-5v.4h0v.2h.2l15.6,8.4,1.7-1.3Z" transform="translate(-122.3 -204.4)"/><path class="cls-9" d="M162.9,223.8v-.2h.1l-5.9-3.1h-.3l3.4,1.7h0l2.6,1.4v-.4Z" transform="translate(-122.3 -204.4)"/><path class="cls-9" d="M179.2,230.3l3.5.6L167.5,223v.2c0,.1-.1.1-.1.2v.2c-.1,0-.1.1-.1.2l7.9,4.1h0l.8.4h0l7,3.6h.6Z" transform="translate(-122.3 -204.4)"/><path class="cls-9" d="M209.2,244.3l2.4-3.7-15-7.6-2.7.6,6.3,3.1h-.1l-6.3-3.2-1.2.3,4.4,2.2-4.9-.8.7.7,3.2,1.7-3.2-1.6,2.4,2.7-4.4-2.4v.5l12.9,6.8h0l-7.1-3.7h-.4l-5.2-2.7.2.7,11.2,5.9-11.2-5.9.6,2.2-2.9-3.4h-.1l-1.1,3.5-.9-3.9-1.2.9,1.3.7h-.1l-1.3-.7-1.8,1.5.7-2.1-1.6-.9-2.2.5,1.2-1-14.6-7.7h-.2l12.3,6.6h0l-13.3-7a1.3,1.3,0,0,0,.1.6,1.5,1.5,0,0,0,.1.7c0,.2.1.4.1.7a1.4,1.4,0,0,1,.2.6l24.7,13.4h0l-8.1-4.3h-4.7l-1.2-.2,2.3,1.3h0l16.9,9.3h-.1a.1.1,0,0,1,.1.1l5.3,2.9h0l-.8-.4h0l-26-14.2-1.3-.4-1.3-.4-1.3-.6-1.2-.6-1.1-.7-1.1-.7-.9-.8-.9-.8-13.5-7.4h-.3c-.1,0-.1,0,0,.1h.1l4.4,2.4h0l38.6,21.5h-.1l-1.3-.7h-.3l-46.9-26.1-.4.4v.2l13.4,7.5h.1l30.1,16.9h-.1l-18.9-10.6h-.3l-24.7-13.8-.5.6,11.7,6.6-11.7-6.6-.3.3L170.3,241h0l8.5,4.8L155,232.8h-.3l-10.2-5.8-.3.4,27.5,15.6h-.1l-1.3-.8H170l29.5,16.9.9-1.3-.9-.6h.1l.9.5,2.3-3.6,2.3-3.5-2.4-1.3h.1l2.3,1.3,1-1.4Z" transform="translate(-122.3 -204.4)"/><polygon class="cls-9" points="60.7 31.6 62.2 32.4 62.7 31.1 60.7 31.6"/><path class="cls-9" d="M162.7,224.4h.1l-11-5.8h-.2v.2l11.2,5.9h0Z" transform="translate(-122.3 -204.4)"/><path class="cls-9" d="M162.5,227v-1.2l-11.7-6.3-.3.4,4.4,2.3h-.1l-4.3-2.4-.3.3-.7.8,13.2,7.2a1.3,1.3,0,0,1-.1-.6C162.6,227.4,162.5,227.2,162.5,227Z" transform="translate(-122.3 -204.4)"/><path class="cls-9" d="M163.1,229.6a.4.4,0,0,1-.1-.3.4.4,0,0,1-.1-.3h-.2L149,221.6l-.4.5h0l14.7,8v-.6Z" transform="translate(-122.3 -204.4)"/><path class="cls-9" d="M163.9,231.4l-.3-.5c-.1-.2-.1-.4-.2-.5l-14.9-8.1h0l-.7.9,16.8,9.3a2.1,2.1,0,0,0-.4-.6Z" transform="translate(-122.3 -204.4)"/><path class="cls-9" d="M178.5,239.1l1.9.2h1.9l-15.4-8.2a.8.8,0,0,1,.2.4,4917165483587.5,4917165483587.5,0,0,1,.4.8l.3.3h0l.7.9.7.8.9.9,1,.7,3.7,2.1,1.9.6Z" transform="translate(-122.3 -204.4)"/><path class="cls-10" d="M184.9,218.8l-.5-.2-.5-.3-.5-.2-.5-.2-.5-.3h-.5l3.9,1.9-.5-.3Z" transform="translate(-122.3 -204.4)"/><path class="cls-10" d="M187.3,220.5l-.3-.3-.4-.3-5.7-2.8H179l9.1,4.4-.4-.3Z" transform="translate(-122.3 -204.4)"/><path class="cls-10" d="M179.1,218.6h.6l-4.8-2.4H174l4.5,2.2h.6Z" transform="translate(-122.3 -204.4)"/><path class="cls-10" d="M180.7,218.9h.7l-5.4-2.7h-.9l4.9,2.4h.7Z" transform="translate(-122.3 -204.4)"/><path class="cls-10" d="M174.2,218.9h.8l-3.9-2h-1l1.7.8h0l1.7.8h.7Z" transform="translate(-122.3 -204.4)"/><path class="cls-10" d="M173,219.2h.3l-3.7-1.8h-.5l3.6,1.8h.3Z" transform="translate(-122.3 -204.4)"/><path class="cls-10" d="M190.5,223.9l-.3-.4-.3-.4-1.4-.7c.2.2.4.3.5.5l.6.5.5.6.4.5.5.2-.3-.4A.8.8,0,0,0,190.5,223.9Z" transform="translate(-122.3 -204.4)"/><path class="cls-10" d="M191.2,225.4c.1.2.2.3.2.4l.3.5c-.1-.2-.1-.3-.2-.4s-.1-.2-.1-.4l-.2-.3-.2-.4-.4-.2.3.4Z" transform="translate(-122.3 -204.4)"/><path class="cls-10" d="M176.3,218.6h1.2l-4.3-2.1h-1.9l3.9,1.9h1.1Z" transform="translate(-122.3 -204.4)"/><path class="cls-10" d="M169.1,221.4v-.2h.1l-3.4-1.7h-.4a.1.1,0,0,1-.1.1l3.4,1.8h.3Z" transform="translate(-122.3 -204.4)"/><path class="cls-10" d="M168.5,221.8c.1,0,.1,0,.1-.1h.1l-3.4-1.8H165l3.4,1.8h.1Z" transform="translate(-122.3 -204.4)"/><path class="cls-10" d="M168,222.4h.2l-3.4-1.7h-.3l3.4,1.8h.1Z" transform="translate(-122.3 -204.4)"/><path class="cls-10" d="M170.4,220.4c.1-.1.2-.1.2-.2h-.2l-3.2-1.7-.2.2h-.3l-.2.2,3.4,1.7.2-.2Z" transform="translate(-122.3 -204.4)"/><path class="cls-10" d="M172.1,219.5h.5l-3.7-1.8h-.4c0,.1-.1.1-.2.1h-.1l3.5,1.8h.4Z" transform="translate(-122.3 -204.4)"/><path class="cls-10" d="M167.3,223.4c0-.1.1-.1.1-.2V223l-3.4-1.7h-.2l3.2,1.7-3.2-1.7h0a.1.1,0,0,0-.1.1h-.1l3.4,1.8c0-.1,0-.2.1-.2Z" transform="translate(-122.3 -204.4)"/><path class="cls-10" d="M166.3,225.6h.1v-.2l-3.4-1.8h-.1v.6l3.5,1.8v-.4Z" transform="translate(-122.3 -204.4)"/><path class="cls-10" d="M166.2,226.4V226l-3.5-1.8h0l3.4,1.8v-.2Z" transform="translate(-122.3 -204.4)"/><path class="cls-10" d="M179.8,239.6h.6l-1.9-.2-1.8-.4-1.9-.6,2.5,1.3,1.2.2Z" transform="translate(-122.3 -204.4)"/><path class="cls-10" d="M167.3,231.9a.5.5,0,0,0-.2-.4.8.8,0,0,0-.2-.4l-3.8-2.1h-.2a.4.4,0,0,0,.1.3.4.4,0,0,0,.1.3v.6l4.5,2.4-.3-.3A.5.5,0,0,0,167.3,231.9Z" transform="translate(-122.3 -204.4)"/><path class="cls-10" d="M166.3,229a1.5,1.5,0,0,1-.1-.7,1.3,1.3,0,0,1-.1-.6l-3.6-1.9V227c0,.2.1.4.1.6a1.3,1.3,0,0,0,.1.6l3.9,2.1a1.4,1.4,0,0,0-.2-.6C166.4,229.4,166.3,229.2,166.3,229Z" transform="translate(-122.3 -204.4)"/><path class="cls-10" d="M169.2,234.4l-.7-.8-.7-.9h0l-4.4-2.3c.1.1.1.3.2.5l.3.5.3.5a2.1,2.1,0,0,1,.4.6l6.5,3.5-1-.7Z" transform="translate(-122.3 -204.4)"/><path class="cls-10" d="M167.7,235.7l1.1.7,1.1.7,1.2.6,1.3.6,1.3.4,1.3.4-9.1-5,.9.8Z" transform="translate(-122.3 -204.4)"/><polygon class="cls-10" points="65.5 22.6 65.3 23.4 66.3 23.9 66 22.9 65.5 22.6"/><polygon class="cls-10" points="68.5 24.1 69.2 24.4 69.7 23.1 68.5 24.1"/><polygon class="cls-10" points="65.5 22.6 66 22.8 65.8 21.9 65.5 22.6"/><polygon class="cls-10" points="70.5 26 71.5 26.5 72.9 25.4 70.5 26"/><polygon class="cls-10" points="68.5 24.1 67.8 24.6 69 25.2 69.2 24.5 68.5 24.1"/><path class="cls-10" d="M197,236.1l-4.4-2.2,1.2-.3-8.9-4.5.3.9,3.1,1.6h-.1l-6.9-3.5.9,1,3.4,1.8h0l-3-1.5,1.3,1.5h-.1l7.5,3.9h-.1a.1.1,0,0,0,.1.1h0l1.5.7-.7-.7Z" transform="translate(-122.3 -204.4)"/><polygon class="cls-10" points="58.8 23.5 61.4 24.9 58.7 23.5 58.8 23.5"/><polygon class="cls-10" points="73.8 28.4 69.8 27.9 71 27 69.5 26.2 68.5 26.4 68.7 25.8 67.2 25.1 66.7 25.5 66.5 24.7 65.1 24 64.7 25.2 62.5 22.7 62 22.5 62.6 24.5 71.6 29.2 74.3 28.6 73.8 28.4"/><polygon class="cls-10" points="61.2 29.7 59 28.5 56.7 29 61.2 29.7"/><polygon class="cls-10" points="72.9 34.4 70.4 31.7 60.4 26.5 56.9 25.9 61.1 28.1 60.4 28.2 68.6 32.5 68.5 32 72.9 34.4"/><path class="cls-10" d="M185.3,234.5H185a.1.1,0,0,0,.1.1l3.8,2h0l2.4,1.3-.2-.7Z" transform="translate(-122.3 -204.4)"/><polygon class="cls-10" points="68.9 33.7 66.7 32.5 69.6 35.9 68.9 33.7"/><polygon class="cls-10" points="65.5 36 66.6 32.5 61.4 29.8 59.7 31.1 60.7 31.6 62.7 31.1 62.2 32.4 63.4 33 64.5 32.1 65.5 36"/><polygon class="cls-10" points="63.3 33.1 62.2 32.5 61.4 34.6 63.3 33.1"/><polygon class="cls-10" points="60.5 31.6 59.6 31.1 58.3 32.1 60.5 31.6"/></g></g></g><image class="cls-11" width="453" height="482" transform="translate(39.7 21.4) scale(0.24)" xlink:href="bio_red1.png"/><rect class="cls-4" x="52.7" y="43.3" width="16.7" height="8.7"/><rect class="cls-4" x="84.1" y="43.3" width="47.2" height="8.7"/><path class="cls-4" d="M188.3,241v21.9h21.9V241Zm19.1,19.1H191.1V243.8h16.3Z" transform="translate(-122.3 -204.4)"/><rect class="cls-4" x="114.6" y="74.3" width="16.7" height="8.7"/><rect class="cls-4" x="52.7" y="74.3" width="47.2" height="8.7"/><path class="cls-4" d="M240.4,272v21.9H218.5V272Zm-19,19.1h16.2V274.8H221.4Z" transform="translate(-122.3 -204.4)"/><rect class="cls-4" x="52.7" y="106.7" width="16.7" height="8.7"/><rect class="cls-4" x="84.1" y="106.7" width="47.2" height="8.7"/><path class="cls-4" d="M188.3,304.4v21.9h21.9V304.4Zm19.1,19.1H191.1V307.2h16.3Z" transform="translate(-122.3 -204.4)"/></g></g></svg>