<svg xmlns="http://www.w3.org/2000/svg" xmlns:xlink="http://www.w3.org/1999/xlink" viewBox="0 0 223.3 157"><defs><style>.cls-1{fill:none;}.cls-2{isolation:isolate;}.cls-3{fill:#1e439b;}.cls-4{fill:#fff;}.cls-5{fill:#0453a5;}.cls-6{opacity:0.12;}.cls-7{clip-path:url(#clip-path);}.cls-8{clip-path:url(#clip-path-2);}.cls-9{fill:#e82327;}.cls-10{fill:#272870;}.cls-11{fill:#fbca0c;}.cls-12{opacity:0.43;mix-blend-mode:multiply;}</style><clipPath id="clip-path" transform="translate(-288.9 -204.8)"><path class="cls-1" d="M456.5,284.1a75.6,75.6,0,0,1-142.9,34.5h0a75.6,75.6,0,1,1,142.9-34.5Z"/></clipPath><clipPath id="clip-path-2" transform="translate(-288.9 -204.8)"><rect class="cls-1" x="297" y="242.6" width="213.7" height="142.49" transform="translate(142.7 -125.9) rotate(21.4)"/></clipPath></defs><title>bio_white</title><g class="cls-2"><g id="Layer_1" data-name="Layer 1"><path class="cls-3" d="M380.9,284.1" transform="translate(-288.9 -204.8)"/><path class="cls-4" d="M458.6,284.1a77.7,77.7,0,0,1-146.9,35.4h0a77.7,77.7,0,1,1,146.9-35.4Z" transform="translate(-288.9 -204.8)"/><path class="cls-5" d="M456.5,284.1a75.6,75.6,0,0,1-142.9,34.5h0a75.6,75.6,0,1,1,142.9-34.5Z" transform="translate(-288.9 -204.8)"/><g class="cls-6"><g class="cls-7"><g class="cls-8"><path class="cls-9" d="M397.8,236.8h.3l-13.2-6.2v.2Z" transform="translate(-288.9 -204.8)"/><path class="cls-9" d="M457.1,271.9h0a.1.1,0,0,1-.1-.1h-.2l-2.1-1,28,13.5h.5c0-.1-.1-.1-.1-.2a.1.1,0,0,1-.1-.1h-.2l-92.6-45,56.3,27.2h.4a.1.1,0,0,1-.1-.1h-.1l-57.5-27.8h0l47.3,22.8h.2L396,240.2h.1L487.3,284h.4c.1,0,.1,0,.1-.1h0a.1.1,0,0,0-.1-.1h-.2l-26.9-12.9h-.2l-23.2-11.2h0l62.2,29.7h.5c0-.1-.1-.1-.1-.2h-.2l-46.7-22.3h.1l23,11h.5c0-.1,0-.1-.1-.2h-.2l-45-21.4,25.4,12a.1.1,0,0,1,.1.1h.4l43.2,20.6h.3a.1.1,0,0,0-.1-.1l-52.8-25.1h.2l2.2,1.1h.4c.1,0,.1,0,.1-.1l52.3,24.8h.4c.1,0,.1,0,.1-.1h0a.1.1,0,0,0-.1-.1c0-.1,0-.1-.1-.1H503l-118.2-56-1,1.5,1.5.7-1.5-.7-.3.4,1.2.6-1.2-.6-.2.4,2.9,1.4h0l-3-1.5-1.2,2,12.7,6.2h0L457.1,272Z" transform="translate(-288.9 -204.8)"/><path class="cls-4" d="M512.2,305.3h-.1c0-.1-.1-.1-.1-.2h-.2L398.4,248.3h.2l46.1,22.9h.3c.1,0,.1,0,.1-.1l63.3,31.5h.3c.1,0,.1,0,.1-.1s.1,0,.1-.1h0a.1.1,0,0,0-.1-.1h-.1c0-.1-.1-.1-.2-.2l-8.8-4.3h.2v-.2a.1.1,0,0,1-.1-.1h-.3l-69.4-34.5h0a.1.1,0,0,1-.1-.1h-.1l-27.8-13.7h0L429,261.6h.4a.1.1,0,0,0,.1-.1h0c-.1,0-.1,0-.1-.1h-.1L425,259h0l10.4,5.1h.5a.1.1,0,0,0-.1-.1h-.2l70.1,34.4h.6v-.2h-.4L436,263.3h.1l3.7,1.8h.5a.1.1,0,0,0-.1-.1H440l-6.2-3h.1a.1.1,0,0,1,.1-.1h0l44.6,21.7h.4c.1,0,.1,0,.1-.1H479a.1.1,0,0,0-.1-.1h-.1L457.1,272h0l-62.4-30.6h.1l-12.9-6.3-3,4.6,76.3,38.5h0c-.1,0-.1,0-.1-.1h-.2l-35.7-18h.1L504.9,303h.5c.1-.1,0-.1,0-.1v-.2h-.3L390,244.8l121.6,60.7h.5c.1,0,.1,0,.1-.1h0Z" transform="translate(-288.9 -204.8)"/><path class="cls-9" d="M378.5,240.5l5.4,2.7h0l-5.4-2.7-.3.5,3.4,1.7h0l-3.4-1.7-2.4,3.7,59.4,30.9,56.4,29.2h.5c.1-.1.1-.1,0-.1v-.2a.1.1,0,0,1-.1-.1h-.2L384,248.5h0l39,20.1h.2c.1,0,.1,0,.1-.1h.1a.1.1,0,0,0-.1-.1h-.1l-10.5-5.4,41.7,21.4h.4c.1,0,.1,0,.1-.1h0l14.5,7.4h.4a.1.1,0,0,1,.1-.1h0c0-.1,0-.1-.1-.2h-.1a.1.1,0,0,1-.1-.1l-22.4-11.5h.1L508,310.4a.1.1,0,0,0,.1.1h.3a.1.1,0,0,0,.1-.1h0c0-.1,0-.1-.1-.2a.1.1,0,0,1-.1-.1h-.2l-76.3-39.1h0a.1.1,0,0,1,.1-.1h0c0-.1,0-.1-.1-.1h-.1l-4.7-2.4h.1l6.4,3.2h.4a.1.1,0,0,1,.1-.1h-.3l-17.6-9h-.2l-29.4-14.9,9.9,5h.3l92,46.6h.5v-.2h-.2l-68.2-34.5h.2c0-.1,0-.1-.1-.1h-.2l-16.9-8.6h0l13.6,6.8h.4a.1.1,0,0,1-.1-.1h-.1l-22.6-11.4h.1l59.7,30h.4a.1.1,0,0,1,.1-.1h0l-76.3-38.5Z" transform="translate(-288.9 -204.8)"/><path class="cls-4" d="M372.6,249.6l27,14.5h0l94.3,50.2h.5V314a.1.1,0,0,0-.1-.1H494l-70.5-37.7h0c.1,0,.1,0,.1-.1h-.1a.1.1,0,0,0-.1-.1h-.1l-24.3-13h.1c0-.1,0-.1-.1-.1h-.1l-12.3-6.6h0l7.2,3.8h0c.1,0,.1,0,.1.1h.3l41.2,21.8h.4s.1-.1,0-.1h0c0-.1,0-.1-.1-.1h-.1l-40.5-21.5h.1c0-.1,0-.1-.1-.1a.1.1,0,0,0-.1-.1l-14.4-7.6h.1L497.6,313h.5c.1-.1.1-.1,0-.2h-.2c0-.1-.1-.1-.1-.2h0l-85.9-45.3h0l3.5,1.8h.2L402,261.3l63.9,33.4h.2s.1.1.1,0h-.1l-62.7-32.9h.1l32.7,17a.1.1,0,0,0,.1.1h.3a.1.1,0,0,1,.1-.1h0l44.7,23.3h.5v-.2h-.3l-61.4-32.1h.1a.1.1,0,0,0-.1-.1H420l-34.8-18.2,10.9,5.7h.4c0-.1,0-.1-.1-.1h-.1l-3-1.6,41.9,21.6-59.4-30.9Z" transform="translate(-288.9 -204.8)"/><path class="cls-9" d="M431.2,289,454,301.5h.4c0-.1,0-.1.1-.1h0c0-.1-.1-.1-.1-.2h-.2l-64.5-35.6,68.9,37.8h.6c-.1-.1-.1-.1-.1-.2h-.3L423.1,283h0s.1,0,0-.1h-.2l-52-28.6h0l45.4,24.8h.5l14.1,7.7a.1.1,0,0,0,.1.1h.3c0-.1,0-.1-.1-.1h-.1l-1.1-.6h0l42.5,23.1h.5c0-.1,0-.1-.1-.2h-.1a.1.1,0,0,0-.1-.1l-39.3-21.4h-.2l-29.6-16.1,46.2,25h0a.1.1,0,0,1,.1.1h.3c.1-.1.1-.1.1-.2a.1.1,0,0,1-.1-.1H450l-.5-.2,51.1,27.6h.5v-.2h-.3L371.6,251.1l-2.2,3.5Z" transform="translate(-288.9 -204.8)"/><path class="cls-9" d="M371.7,251l36.5,19.7h.5l66.2,35.7h.4a.1.1,0,0,0,.1-.1h-.1c0-.1-.1-.1-.1-.2H475l-97-52.2h0l56.6,30.3h.5a.1.1,0,0,0-.1-.1.1.1,0,0,0-.1-.1L395.1,262h.1l4.1,2.2h.3l-27-14.5Z" transform="translate(-288.9 -204.8)"/><path class="cls-4" d="M367,258.3l14.2,7.9c0,.1,0,.1.1.1h.2l68.3,38.4h.4a.1.1,0,0,0,.1-.1h0l49,27.5h.4a.1.1,0,0,0,.1-.1V332a.1.1,0,0,0-.1-.1v-.2h-.2L393.3,271.8h.1l3.2,1.9h.4a.1.1,0,0,0,.1-.1h0c-.1,0-.1,0-.1-.1h-.1l-14.3-8h0l1.6.9h.4l20.5,11.5h.1s.1.1.1,0h0l-25.8-14.4h.1l44.5,24.8h.4a.1.1,0,0,0-.1-.1h-.1l-29.2-16.3,56.8,31.4a.1.1,0,0,1,.1.1h.2a.1.1,0,0,0,.1-.1h.1v-.2h-.1a497582161915.8,497582161915.8,0,0,1-.2-.2L424.4,286h.2a.1.1,0,0,1-.1-.1h-.1a.1.1,0,0,0-.1-.1L375,258.2l2.6,1.3h0a.1.1,0,0,0,.1.1h0L431.2,289l-61.8-34.4Z" transform="translate(-288.9 -204.8)"/><path class="cls-4" d="M434.4,299h0l46.7,26.6h.6v-.2h-.1c0-.1-.1-.1-.1-.2h-.2L377,265.5h.1l5.3,3h.3c0-.1,0-.1.1-.1h0l2.4,1.3h.2l97.7,55.3a.1.1,0,0,1,.1.1h.2a.1.1,0,0,0,.1-.1h0c0-.1,0-.1-.1-.2h-.2L366.9,258.4l-.9,1.4Z" transform="translate(-288.9 -204.8)"/><path class="cls-9" d="M336.6,242.8h-.1L317.3,232h-.4a.1.1,0,0,1,.1.1h0l17.8,10.2h0l-24.6-14h0l-.7.8,21,12.1h-.1l-21-12-.2.3,33.6,19.5L309.1,230H309l-.2.3,8,4.7-8-4.7-.4.4,12,6.9h-.1l-9.7-5.6h-.2l23.1,13.5h-.1L308,231.2l-.4.6,29.8,17.5h0l-12.8-7.5h-.3L307.4,232h-.2l169,100.3h0v-.2h0l-.2-.2h-.1L354.8,260.3h0l20.6,12.1h.4l25.7,15h.4a.1.1,0,0,0-.1-.1l-10-5.9h0l32.1,18.7h.4a.1.1,0,0,1,.1-.1h0l2.2,1.3h.2a.1.1,0,0,0,.1.1h.1a.1.1,0,0,0-.1-.1L410.6,291h.2a.1.1,0,0,0-.1-.1v-.2h-.1l-28.4-16.5h.1l16.9,9.8h.5c0-.1,0-.1-.1-.2h-.1l-24-13.9L403,285.1h.5v-.2c-.1,0-.1,0-.1-.1h-.1l-18.2-10.5,57.8,33.3h.5a.1.1,0,0,0-.1-.1h-.2l-59.5-34.5h.2v-.2a.1.1,0,0,1-.1-.1h-.1l-3.5-2.1h0L409,286.3h.4l85.1,48.9c.1,0,.2,0,.2.1h.2c.1,0,.1,0,.1-.1h.1a.1.1,0,0,0-.1-.1c0-.1,0-.2-.1-.2h-.2L363.2,259.1h.1l11.8,6.7h.3L434,299h.4L366,259.8Z" transform="translate(-288.9 -204.8)"/><path class="cls-4" d="M307.1,232.3h.2l31.9,18.9h0l-19.4-11.3h-.3l-12.8-7.5-.3.3,34.8,20.7h0l-34.8-20.6-.6.7,13.1,7.8h0l20.4,12.1h0l13.9,8.4h0l-22.7-13.5h-.4l-24.9-14.9-.3.3,33,19.9h-.1l-11.5-6.9h-.4L313,240.5h-.4a.1.1,0,0,0,.1.1h0l19.9,12.1h-.1l-6.9-4.2h-.3L304.1,236l-.4.4,166.4,102h-.4l-50.4-30.8h0c0-.1-.1-.1-.1-.2h-.1l-35.3-21.5,16.9,10.3h.4l27.8,16.9a.1.1,0,0,1,.1.1h.2a.1.1,0,0,0,.1-.1h.1V312h-.2c0-.1,0-.1-.1-.1h0l-50.6-30.8,54,32.6h.5l18.4,11.1h.5v-.2h-.1l-.2-.2-52.5-31.7h.1a.1.1,0,0,1-.1-.1H399l-19.2-11.5h.1l15.5,9.2h.4l8.7,5.2h.4a.1.1,0,0,1-.1-.1l-6.8-4.1,84.7,50.6h.6V340h-.1c0-.1-.1-.1-.1-.2h-.2l-60.5-36.2h-.2l-23.8-14.2,4.8,2.8h.4a.1.1,0,0,0,.1-.1h0l22.6,13.4h.5l9,5.4h.5l8.2,4.9c.1,0,.2,0,.2.1h.3c.1,0,.1,0,.1-.1H445a.1.1,0,0,0-.1-.1c0-.1-.1-.1-.1-.2l-42.9-25.4,73.8,43.5h.5l-169-100.3Z" transform="translate(-288.9 -204.8)"/><path class="cls-9" d="M303.4,236.8l-.2.3,37.2,22.8h-.1l-29.4-18h-.6l-7.6-4.7v.2l-.2.2,31.1,19.2h-.1l-23.5-14.4h-.3l6.1,3.8h-.1l-13.8-8.6-.5.6-.2.2,5.7,3.6h0l-5.9-3.6h0l-.3.4,16.2,10.1-16.2-10.1-.5.5,134.8,85.5h-.2c0-.1,0-.1-.1-.1l-38.1-24.1h0c0-.1-.1-.1-.1-.2h-.1l-22-13.8h.1l35.5,22.2h.5c0-.1-.1-.1-.1-.2h-.1l-28-17.6h.1v-.2h0c-.1,0-.1,0-.1-.1h0l-20.2-12.6h0l70.6,44.1a.1.1,0,0,1,.1.1h.2a.1.1,0,0,0,.1-.1h.1a.1.1,0,0,0-.1-.1h-.1c0-.1,0-.1-.1-.2h0l-43.8-27.4h0a.1.1,0,0,0-.1-.1h-.1l-35-21.9h.1l101.2,63h.5v-.2h-.3l-43.5-27.1h0l19.8,12.2h.5v-.2a.1.1,0,0,1-.1-.1h-.2l-69.2-43h0l6.3,3.8h.2c.1,0,.1,0,.1-.1h.1l22.3,13.7h.3a.1.1,0,0,1,.1-.1h0v-.2h-.1c-.1,0-.1,0-.1-.1l-10.4-6.3h.1l18.9,11.5h.5l62.6,38.3h.4c0-.1,0-.1.1-.1h.1c0-.1-.1-.1-.1-.2h-.3l-18-11.1h0c.1,0,.1-.1,0-.1v-.2h-.3l-51-31.3h.1l75,45.8h.5a.1.1,0,0,0,.1-.1h0l-166.4-102Z" transform="translate(-288.9 -204.8)"/><path class="cls-4" d="M300.1,240.8l6.2,3.9h-.1l-6.2-3.9-.5.5,4.3,2.7h-.1l-4.3-2.6h0l-.5.5,12.4,7.8h-.2l-12.3-7.8-.4.5h-.1l1,.6h0l2.3,1.5h0l9.8,6.3-11.3-7.2h-.4l-2-1.3-.2.4,29.2,18.9h-.1a.1.1,0,0,1-.1-.1h-.3l-27.3-17.6h-.3l-1.6-.9-.3.3,7,4.5h0l9.1,5.9h0l-16.3-10.5h0l101.3,66.4h-.2a.1.1,0,0,0-.1-.1l-54.1-35.3h0l96.1,62.2h.5v-.2a.1.1,0,0,1-.1-.1l-.2-.2-55.8-36.2h.1l15.3,9.9c0,.1,0,.1.1.1h.2a.1.1,0,0,0,.1-.1h0v-.2h-.1a.1.1,0,0,0-.1-.1l-4.7-3.1,51,32.9h.5v-.2h0c0-.1-.1-.1-.1-.2H446l-85.5-55.2,71.4,45.9h.5v-.2h0c0-.1-.1-.1-.1-.2h-.2l-43.7-28.1h.1c0-.1-.1-.1-.1-.2h-.2l-30.7-19.7h-.1l-15-9.6h.1L409.2,314h.3a.1.1,0,0,1,.1-.1h.1a.1.1,0,0,0-.1-.1h-.2l-41.7-26.7h.1c0-.1,0-.1-.1-.1h-.1l-14-9L464,347.4h.5c0-.1,0-.1.1-.1v-.2h-.1a.3.3,0,0,0-.1-.2h-.2l-60.7-38.6h.1v-.2h-.2l-11-7h.1a.1.1,0,0,0-.1-.1h-.1l-34.2-21.7h0l76.3,48.2h.2a.1.1,0,0,0,.1.1c.1,0,.1,0,.1-.1s.1,0,.1-.1h0L300.1,240.7Z" transform="translate(-288.9 -204.8)"/><path class="cls-9" d="M295.9,245.8l-.8,1,11.4,7.5h0l22.4,14.9h-.1l-34-22.3-.3.4-.4.4,22.6,15h0l-22.6-15-.3.4,20.5,13.7h-.1l-9.7-6.4c0-.1,0-.1-.1-.1h-.3a.1.1,0,0,1,.1.1h0l.9.6H305l-11.7-7.8v.2l-.5.6,152,103h.1s.1-.1,0-.1v-.4h-.2l-6.9-4.7h0V347a.1.1,0,0,1-.1-.1l-.2-.2L327.8,272.9h0l110.8,74.4h.6a.3.3,0,0,1-.1-.2H439a.1.1,0,0,0-.1-.1l-67.2-45.1h0c.1,0,.1,0,.1-.1h-.2l-.8-.5h.1l74,49.4h.5a.1.1,0,0,1,.1-.1h0v-.4h-.2l-37.5-25h.2c0-.1-.1-.1-.1-.2a.1.1,0,0,1-.1-.1l-28.7-19.1h0a.1.1,0,0,0-.1-.1h-.1l-36.8-24.5h.1l4.3,2.9h.4l30.2,19.9h.5l18.7,12.3h.5c0-.1-.1-.1-.1-.2a.1.1,0,0,1-.1-.1L384,305.7h.1l71.8,47.2h.1c0,.1,0,.1.1.1a.1.1,0,0,1,.1.1h.1a.1.1,0,0,0,.1-.1h.1v-.2h-.2c0-.1-.1-.1-.1-.2h0l-12.9-8.5h0v-.2c0-.1-.1-.1-.1-.2H443L363.6,291h.2l77.1,50.5h.6v-.2h-.1c0-.1,0-.1-.1-.2h-.1l-72.6-47.5h.1l28.6,18.6h.5L296.5,245.2Z" transform="translate(-288.9 -204.8)"/><path class="cls-4" d="M292.7,249.7h-.1L309,260.9h.1l10.4,7.1h0l7.3,5h0l-34.6-23.4-.8,1-.4.4,2.5,1.7h0l12.9,8.8h0l2.7,1.7H309l-18.4-12.6-.3.4h0l.6.5h-.1l-.6-.5-.5.7L313.6,270h0l-24-16.6-.3.4,10.5,7.3h0l-10.5-7.3-.4.5,110.2,77.3h0v-.2a.1.1,0,0,0-.1-.1h-.1L375.8,315h-.2l-31.9-22.3h0l28.5,19.8h.1c.1,0,.1.1.1,0h.2c.1,0,.1,0,.1-.1h-.2l-39.9-27.7,45.8,31.6h.5l11.9,8.2h.3c.1,0,.1,0,.1-.1h.1l36.1,24.9h.5V348h0c0-.1-.1-.1-.1-.2h-.2l-57.5-39.7h.1l4.7,3.2h.3a.1.1,0,0,1,.1-.1h.1l11.3,7.8h.4c0-.1-.1-.1-.1-.2l-12.9-8.8h.2a.1.1,0,0,0-.1-.1h-.1l-24.6-16.9,20.2,13.7h.4v-.2h-.1l-36.1-24.6h.1l11.5,7.7h.3L440,352c0,.1.1.1.2.1h.2c.1,0,.1,0,.1-.1h0v-.2h-.1l-.2-.2-82.7-56.2h.1l74.5,50.4h.1a.1.1,0,0,1,.1.1h.3a.1.1,0,0,1,.1-.1v-.2h0c-.1-.1-.1-.1-.1-.2h-.2L394.1,319h0l50.2,33.7h.4l-152-103Z" transform="translate(-288.9 -204.8)"/><path class="cls-10" d="M359.1,221.1h-.2l24.4,11.7.2-.4Z" transform="translate(-288.9 -204.8)"/><path class="cls-10" d="M328.2,206.8l-.4.5,45.5,22h-.1l-45.5-21.9-.2.2h0l20.9,10.2.5.2.6.2.5.2.5.2.5.3.4.2.5.3.4.3,14,6.7h-.1l-13.1-6.3.4.3.4.3.4.3.3.3,24.7,12h0a.1.1,0,0,0,.1.1h.1l2.5,1.3,1.2-2Z" transform="translate(-288.9 -204.8)"/><path class="cls-10" d="M346.5,217.3h.5l.4.2-9.3-4.5h-.2l7.7,3.7h.9Z" transform="translate(-288.9 -204.8)"/><path class="cls-10" d="M384.3,230.6h0l.5.2v-.2l-4.5-2.1-12.9-6.2h0l-37.6-17.6-.4.5,19,9h-.1l-19-8.9-.2.2h0l11.3,5.4h0l34.3,16.4h.1l8.9,4.3,1-1.5Z" transform="translate(-288.9 -204.8)"/><path class="cls-10" d="M333.4,208.3h-.2l50.3,24.1.3-.4Z" transform="translate(-288.9 -204.8)"/><path class="cls-10" d="M341,216.8h.2c.1,0,.2,0,.2-.1l-15.2-7.4h-.1l-.2.3h.1l14.6,7.2h.4Z" transform="translate(-288.9 -204.8)"/><polygon class="cls-10" points="66 22.9 66.3 23.9 67.8 24.6 68.5 24.1 66 22.9"/><path class="cls-10" d="M342.1,216.7h.4l-2.7-1.3h-.3a.1.1,0,0,1,.1.1l2,.9h.5Z" transform="translate(-288.9 -204.8)"/><path class="cls-10" d="M381.9,235.3,370,229.5h-.4a.1.1,0,0,0,.1.1h0l1.6.8h0l-14.8-7.2.3.4c.1.2.2.3.2.4l.3.4c.1.2.1.3.2.4l8.1,4h0l-8-3.9c0,.1.1.3.1.4l.2.3.2.4v.4c-.1-.2-.1-.3-.2-.4l-.3-.5a.5.5,0,0,1-.2-.4l-.3-.4-6.4-3h-.3L344,219h-2.2l18.8,9.4h-.1l-18.9-9.4H340l10.5,5.3h0l-10.7-5.2h-.6l15.2,7.7.3-.7.2.9,2.5,1.3,1.2-1-.5,1.3.3.2h-.3l-.3.7,1.6.8,2.4-.6-1.4,1.1,18.1,9.2.4-.6Z" transform="translate(-288.9 -204.8)"/><path class="cls-10" d="M337.2,217.4h.5l-12.9-6.3v.2l-.3.3,12.3,6.1h.5Z" transform="translate(-288.9 -204.8)"/><path class="cls-10" d="M335.9,217.8h.2l-8.5-4.2h-.3c0,.1,0,.1.1.1h0l8.2,4.1h.3Z" transform="translate(-288.9 -204.8)"/><path class="cls-10" d="M338.8,217h.9l-14.1-7-.4.5,1.9,1h0l-1.9-.9-.3.3,13,6.4h.9Z" transform="translate(-288.9 -204.8)"/><path class="cls-10" d="M356.1,223.8l-.5-.5-.6-.5-7-3.4h-1.5l5.4,2.7h0l-5.6-2.8h-1.2l12,5.9-.5-.5Z" transform="translate(-288.9 -204.8)"/><path class="cls-10" d="M339.1,219.8h-.9l16,8.1.2-.8Z" transform="translate(-288.9 -204.8)"/><path class="cls-10" d="M335.3,222.1h-.2a.1.1,0,0,1-.1.1h-.1l13.8,7.1-.9-1Z" transform="translate(-288.9 -204.8)"/><path class="cls-10" d="M335.1,218.2h.4l-7-3.5h-.3l.8.4h0l5.7,2.8h.4Z" transform="translate(-288.9 -204.8)"/><polygon class="cls-10" points="65.1 24 62.5 22.7 64.7 25.2 65.1 24"/><path class="cls-10" d="M349.2,230l-14.5-7.4h0a.1.1,0,0,0-.1.1h-.2l2.5,1.3h0c-.1.1,0,.1,0,.1h.1l13.3,6.9h.2Z" transform="translate(-288.9 -204.8)"/><path class="cls-10" d="M365.3,234h-.2l13.1,6.7.3-.5Z" transform="translate(-288.9 -204.8)"/><path class="cls-10" d="M332.2,220h.3l-10.6-5.4-.2.3-.2.2,10.5,5.3h.2Z" transform="translate(-288.9 -204.8)"/><polygon class="cls-10" points="73.8 28.4 71 27 69.8 27.9 73.8 28.4"/><path class="cls-10" d="M331.7,220.5h.2L321.4,215h0l-.2.2,10.4,5.4h.1Z" transform="translate(-288.9 -204.8)"/><polygon class="cls-10" points="69.5 26.2 68.7 25.8 68.5 26.4 69.5 26.2"/><path class="cls-10" d="M331.2,221h.1L321,215.5l-.3.4,10.3,5.3h.2Z" transform="translate(-288.9 -204.8)"/><path class="cls-10" d="M333.4,219.1h.2l.2-.2-11-5.5-.2.3v.2l9.8,5h.1l.6.4.2-.2Z" transform="translate(-288.9 -204.8)"/><path class="cls-10" d="M335.9,221.5l-.2.2a.1.1,0,0,0-.1.1h-.3l12.4,6.3h-.1l2.7,1.4,1.4.7-.2-.9Z" transform="translate(-288.9 -204.8)"/><path class="cls-10" d="M337.4,220.5l-.2.2h-.3l-.2.2h-.2l5.2,2.7h0l8.9,4.5h.1l.7.3-.5-2Z" transform="translate(-288.9 -204.8)"/><polygon class="cls-10" points="67.2 25.1 66.5 24.7 66.7 25.5 67.2 25.1"/><polygon class="cls-10" points="66.6 32.4 66.6 32.4 66.6 32.4 66.6 32.4"/><path class="cls-10" d="M330.3,222.2h.2l-10.4-5.4-.3.4,10.4,5.4h.1Z" transform="translate(-288.9 -204.8)"/><path class="cls-10" d="M330.6,221.9h.1l-4.8-2.5h-.2a.1.1,0,0,0-.1.1h.1l4.8,2.5h.1Z" transform="translate(-288.9 -204.8)"/><path class="cls-10" d="M350.1,234.5l-4.5-.7,2.3-.5-3.8-2h-.4L333,225.7a.3.3,0,0,1-.1.2h0c0,.1,0,.2-.1.2v.2l9.5,5h0l-9.5-5.1v.4h0v.2h.2l15.7,8.4,1.7-1.3Z" transform="translate(-288.9 -204.8)"/><path class="cls-10" d="M329.4,224.2c.1,0,.1-.1.1-.2h0l-5.9-3.1h0c0-.1,0-.1-.1-.1h-.1l3.4,1.8h-.1l2.6,1.4v-.4Z" transform="translate(-288.9 -204.8)"/><path class="cls-10" d="M345.8,230.8l3.5.5-15.2-7.9v.2l-.2.2v.4l7.9,4.1h.1l.7.3h.1l6.9,3.6h.6Z" transform="translate(-288.9 -204.8)"/><path class="cls-10" d="M375.8,244.7l2.4-3.7-15.1-7.6-2.6.6,6.2,3.2h-.1l-6.2-3.2-1.3.3,4.5,2.2-4.9-.8.6.8,3.3,1.7-3.3-1.7,2.5,2.7-4.5-2.4.2.5,12.9,6.8h-.1l-7.1-3.7h-.3l-5.3-2.8.2.7,11.2,5.9-11.2-5.9.7,2.2-2.9-3.4h-.1l-1.1,3.5-1-3.9-1.1.9,1.2.7h-.1l-1.2-.7-1.9,1.5.8-2.1-1.7-.9-2.2.5,1.3-.9-14.6-7.8h-.3l12.4,6.6h-.1l-13.2-7v.7c0,.2.1.4.1.6s.1.5.2.7a1.4,1.4,0,0,0,.2.6l24.6,13.4h0l-8-4.3h-.7a.1.1,0,0,0-.1.1h-5.2l2.3,1.2h0l16.9,9.3h.1l5.3,2.9h-.1l-.7-.4h0l-26-14.2-1.4-.4-1.3-.4-1.2-.6-1.3-.6-1.1-.7-1-.7-1-.8-.8-.8L319,227.1h-.3l4.5,2.5h-.1l38.6,21.5h-.1l-1.3-.7h-.2l-47-26.1-.3.5h-.1l13.4,7.5h.1l30,16.9h0l-19-10.6h-.3l-24.7-13.8-.4.6,11.7,6.6-11.8-6.6-.2.4,25.3,14.3h0l8.5,4.8-23.7-13.3h-.3l-10.2-5.8-.3.4,27.5,15.7h-.1l-1.4-.8h-.2l29.4,17,.9-1.4-.9-.5h.1l.9.5,2.4-3.7,2.2-3.5-2.4-1.3h.1l2.4,1.3.9-1.4Z" transform="translate(-288.9 -204.8)"/><polygon class="cls-10" points="60.7 31.6 62.2 32.4 62.7 31.1 60.7 31.6"/><path class="cls-10" d="M329.3,224.8h0l-11-5.8h-.1v.2l11.1,5.9h.1Z" transform="translate(-288.9 -204.8)"/><path class="cls-10" d="M329.1,227.4v-1.2l-11.8-6.3-.2.4,4.3,2.3h0l-4.4-2.4-.2.3-.7.9,13.1,7.1a1.3,1.3,0,0,0-.1-.6Z" transform="translate(-288.9 -204.8)"/><path class="cls-10" d="M329.6,230a6181264102574.5,6181264102574.5,0,0,0-.2-.6h-.1L315.6,222l-.4.6h0l14.7,8-.2-.3A.4.4,0,0,0,329.6,230Z" transform="translate(-288.9 -204.8)"/><path class="cls-10" d="M330.5,231.8l-.3-.5-.3-.5-14.8-8.1H315l-.7.9,16.8,9.3-.3-.6Z" transform="translate(-288.9 -204.8)"/><path class="cls-10" d="M345.1,239.5a10.8,10.8,0,0,0,1.9.3h1.8l-15.3-8.3.2.4.2.4.2.4a.5.5,0,0,1,.2.4h0l.7.9a3,3,0,0,0,.8.8l.8.9,1,.7,3.8,2.1,1.8.6Z" transform="translate(-288.9 -204.8)"/><path class="cls-11" d="M351.4,219.2l-.4-.2-.5-.3-.5-.2-.5-.2-.6-.2-.5-.2,3.9,1.9-.4-.3Z" transform="translate(-288.9 -204.8)"/><path class="cls-11" d="M353.9,220.9l-.4-.3-.4-.3-5.7-2.7-.4-.2h-1.4l9,4.4-.3-.3Z" transform="translate(-288.9 -204.8)"/><path class="cls-11" d="M345.7,219h.6l-4.9-2.4c0,.1-.1.1-.2.1h-.6l4.5,2.2h.6Z" transform="translate(-288.9 -204.8)"/><path class="cls-11" d="M347.3,219.3h.7l-5.5-2.6h-.9l4.9,2.4h.8Z" transform="translate(-288.9 -204.8)"/><path class="cls-11" d="M340.8,219.3h.8l-3.9-2h-1l1.6.9h0l1.7.8h.8Z" transform="translate(-288.9 -204.8)"/><path class="cls-11" d="M339.5,219.7h.3l-3.7-1.9h-.5l3.6,1.8h.3Z" transform="translate(-288.9 -204.8)"/><path class="cls-11" d="M357,224.3c0-.1-.1-.2-.2-.4l-.3-.4-1.5-.7.6.5.5.5.5.6.5.5.4.2c-.1-.1-.1-.2-.2-.4Z" transform="translate(-288.9 -204.8)"/><path class="cls-11" d="M357.7,225.8l.3.5c.1.1.1.2.2.4v-.4l-.2-.4-.2-.3c0-.1-.1-.3-.1-.4l-.4-.2.3.4A.5.5,0,0,0,357.7,225.8Z" transform="translate(-288.9 -204.8)"/><path class="cls-11" d="M342.9,219H344l-4.3-2.1h-1.8l3.9,1.9h1.1Z" transform="translate(-288.9 -204.8)"/><path class="cls-11" d="M335.6,221.8a.1.1,0,0,1,.1-.1l.2-.2-3.4-1.7H332l3.3,1.8h.3Z" transform="translate(-288.9 -204.8)"/><path class="cls-11" d="M335.1,222.2h.2l-3.4-1.8h-.3l3.3,1.7h.1A.1.1,0,0,0,335.1,222.2Z" transform="translate(-288.9 -204.8)"/><path class="cls-11" d="M334.6,222.8a.1.1,0,0,1,.1-.1h0l-3.4-1.7H331l3.4,1.8h.2Z" transform="translate(-288.9 -204.8)"/><path class="cls-11" d="M336.9,220.8h.3l.2-.2H337l-3.2-1.7-.2.2h-.4l-.2.2,3.5,1.7h.2Z" transform="translate(-288.9 -204.8)"/><path class="cls-11" d="M338.7,220h.4l-3.6-1.8h-.8l3.5,1.8h.5Z" transform="translate(-288.9 -204.8)"/><path class="cls-11" d="M333.8,223.8l.2-.2v-.2l-3.4-1.7h-.2l3.1,1.7-3.1-1.7h-.3l3.4,1.8v-.4Z" transform="translate(-288.9 -204.8)"/><path class="cls-11" d="M332.9,226h0a.3.3,0,0,0,.1-.2l-3.5-1.8h0c0,.1,0,.2-.1.2v.4l3.5,1.8v-.2C332.9,226.2,332.9,226.1,332.9,226Z" transform="translate(-288.9 -204.8)"/><path class="cls-11" d="M332.7,226.8v-.4l-3.5-1.8h.1l3.3,1.8v-.2Z" transform="translate(-288.9 -204.8)"/><path class="cls-11" d="M346.3,240h.7a10.8,10.8,0,0,1-1.9-.3l-1.9-.4-1.8-.6,2.4,1.4h2.5Z" transform="translate(-288.9 -204.8)"/><path class="cls-11" d="M333.9,232.3l-.2-.4-.2-.4-3.9-2.1h-.2a2317974038441.4,2317974038441.4,0,0,1,.3.9l.2.3,4.4,2.5a.5.5,0,0,0-.2-.4Z" transform="translate(-288.9 -204.8)"/><path class="cls-11" d="M332.8,229.4c0-.2-.1-.4-.1-.6v-.7l-3.6-1.9V228a1.3,1.3,0,0,1,.1.6l4,2.1a1.4,1.4,0,0,1-.2-.6C332.9,229.9,332.9,229.6,332.8,229.4Z" transform="translate(-288.9 -204.8)"/><path class="cls-11" d="M335.8,234.8a3,3,0,0,1-.8-.8l-.7-.9h0l-4.4-2.3.3.5.3.5.3.5.3.6,6.5,3.5-1-.7Z" transform="translate(-288.9 -204.8)"/><path class="cls-11" d="M334.3,236.1l1,.7,1.1.7,1.3.6,1.2.6,1.3.4,1.4.4-9.1-5,.8.8Z" transform="translate(-288.9 -204.8)"/><polygon class="cls-11" points="65.5 22.6 65.3 23.4 66.3 23.9 66 22.9 65.5 22.6"/><polygon class="cls-11" points="68.5 24.1 69.2 24.4 69.7 23.1 68.5 24.1"/><polygon class="cls-11" points="65.5 22.6 66 22.8 65.8 21.9 65.5 22.6"/><polygon class="cls-11" points="70.5 26 71.5 26.5 72.9 25.4 70.5 26"/><polygon class="cls-11" points="68.5 24.1 67.8 24.6 69 25.2 69.2 24.5 68.5 24.1"/><path class="cls-11" d="M363.6,236.5l-4.5-2.2,1.3-.3-8.9-4.5.2.9,3.1,1.6h-.1l-6.9-3.5.9,1,3.5,1.8h-.1l-2.9-1.6,1.3,1.5h-.2l7.5,3.9h0l1.5.8-.6-.8Z" transform="translate(-288.9 -204.8)"/><polygon class="cls-11" points="58.8 23.5 61.4 24.9 58.7 23.5 58.8 23.5"/><polygon class="cls-11" points="73.8 28.4 69.8 27.9 71 27 69.5 26.2 68.5 26.4 68.7 25.8 67.2 25.1 66.7 25.5 66.5 24.7 65.1 24 64.7 25.2 62.5 22.7 62 22.5 62.6 24.5 71.6 29.2 74.3 28.6 73.8 28.4"/><polygon class="cls-11" points="61.2 29.7 59 28.5 56.7 29 61.2 29.7"/><polygon class="cls-11" points="72.9 34.4 70.4 31.7 60.4 26.5 56.9 25.9 61.1 28.1 60.4 28.2 68.6 32.5 68.5 32 72.9 34.4"/><path class="cls-11" d="M351.9,234.9h-.2l3.8,2h0l2.3,1.3-.2-.7Z" transform="translate(-288.9 -204.8)"/><polygon class="cls-11" points="68.9 33.7 66.7 32.5 69.6 35.9 68.9 33.7"/><polygon class="cls-11" points="65.5 36 66.6 32.5 61.4 29.8 59.7 31.1 60.7 31.6 62.7 31.1 62.2 32.4 63.4 33 64.5 32.1 65.5 36"/><polygon class="cls-11" points="63.3 33.1 62.2 32.5 61.4 34.6 63.3 33.1"/><polygon class="cls-11" points="60.5 31.6 59.6 31.1 58.3 32.1 60.5 31.6"/></g></g></g><image class="cls-12" width="454" height="482" transform="translate(39.6 21.4) scale(0.24)" xlink:href="bio_white1.png"/><rect class="cls-4" x="52.7" y="43.3" width="16.7" height="8.7"/><rect class="cls-4" x="84.1" y="43.3" width="47.2" height="8.7"/><path class="cls-4" d="M354.8,241.4v21.9h21.9V241.4Zm19.1,19.1H357.7V244.2h16.2Z" transform="translate(-288.9 -204.8)"/><rect class="cls-4" x="114.6" y="74.3" width="16.7" height="8.7"/><rect class="cls-4" x="52.7" y="74.3" width="47.2" height="8.7"/><path class="cls-4" d="M407,272.4v21.9H385.1V272.4Zm-19.1,19.1h16.3V275.2H387.9Z" transform="translate(-288.9 -204.8)"/><rect class="cls-4" x="52.7" y="106.7" width="16.7" height="8.7"/><rect class="cls-4" x="84.1" y="106.7" width="47.2" height="8.7"/><path class="cls-4" d="M354.8,304.8v21.9h21.9V304.8Zm19.1,19.1H357.7V307.6h16.2Z" transform="translate(-288.9 -204.8)"/></g></g></svg>