<svg xmlns="http://www.w3.org/2000/svg" xmlns:xlink="http://www.w3.org/1999/xlink" viewBox="0 0 223.3 157"><defs><style>.cls-1{fill:none;}.cls-2{isolation:isolate;}.cls-3{fill:#1e439b;}.cls-13,.cls-4{fill:#ffc50b;}.cls-5{fill:#fff;}.cls-6{opacity:0.12;}.cls-7{clip-path:url(#clip-path);}.cls-8{clip-path:url(#clip-path-2);}.cls-9{fill:#e82327;}.cls-10{fill:#272870;}.cls-11{fill:#fbca0c;}.cls-12{opacity:0.43;mix-blend-mode:multiply;}.cls-13{stroke:#ffc50b;stroke-miterlimit:10;}</style><clipPath id="clip-path" transform="translate(-162.1 -212.4)"><path class="cls-1" d="M329.8,291.6a75.6,75.6,0,0,1-142.9,34.5h0a75.6,75.6,0,1,1,142.9-34.5Z"/></clipPath><clipPath id="clip-path-2" transform="translate(-162.1 -212.4)"><rect class="cls-1" x="170.3" y="250.1" width="213.7" height="142.49" transform="translate(136.7 -79.1) rotate(21.4)"/></clipPath></defs><title>bio_yellow</title><g class="cls-2"><g id="Layer_1" data-name="Layer 1"><path class="cls-3" d="M254.2,291.6" transform="translate(-162.1 -212.4)"/><path class="cls-4" d="M331.9,291.6A77.8,77.8,0,0,1,185,327.1h0a77.7,77.7,0,1,1,146.9-35.5Z" transform="translate(-162.1 -212.4)"/><path class="cls-5" d="M329.8,291.6a75.6,75.6,0,0,1-142.9,34.5h0a75.6,75.6,0,1,1,142.9-34.5Z" transform="translate(-162.1 -212.4)"/><g class="cls-6"><g class="cls-7"><g class="cls-8"><path class="cls-9" d="M271.1,244.4h.2l-13.2-6.3v.2Z" transform="translate(-162.1 -212.4)"/><path class="cls-9" d="M330.4,279.4h-.3l-2.2-1.1,28,13.6h.5a.1.1,0,0,0-.1-.1h-.1a.1.1,0,0,0-.1-.1l-92.7-45.1,56.3,27.2h.2l-57.4-27.8h0l47.3,22.9h.4a497582161916,497582161916,0,0,0-.2-.2l-40.7-19.6h.1l91.2,43.8a.1.1,0,0,0,.1.1h.3c0-.1,0-.1.1-.1H361c0-.1-.1-.1-.1-.2h-.2l-26.9-12.9h.1a.1.1,0,0,0-.1-.1h-.1l-23.3-11.1h.1l62.2,29.8h.2a.1.1,0,1,0,.2,0h.1a.1.1,0,0,0-.1-.1H373a.1.1,0,0,0-.1-.1l-46.7-22.4h0l23.1,11h.4c.1,0,.1-.1,0-.1h-.3l-44.9-21.5,25.3,12.1h.4a.1.1,0,0,0,.1-.1h0l43.3,20.5h.4a.1.1,0,0,1,.1-.1h0c0-.1-.1-.1-.1-.2h-.3l-52.7-25h.1l2.3,1.1h.4l52.3,24.7h.6c-.1-.1-.1-.1-.1-.2h-.3L258,238.4l-.9,1.4,1.4.7-1.4-.7-.3.5,1.1.5-1.1-.5-.3.4,3,1.4h-.1l-2.9-1.4-1.3,1.9,12.8,6.2h0l62.4,30.5Z" transform="translate(-162.1 -212.4)"/><path class="cls-5" d="M385.4,312.8h-.2c0-.1-.1-.1-.2-.1L271.7,255.8h.1l46.1,22.8h.5L381.6,310h.5a.1.1,0,0,1,.1-.1h0c-.1-.1-.1-.1-.1-.2h-.3l-8.8-4.4h0c0-.1,0-.1-.1-.2a.1.1,0,0,1-.1-.1l-69.5-34.4h.1a.1.1,0,0,0-.1-.1h-.1c0-.1,0-.1-.1-.1l-27.8-13.8h.1l26.9,13.3h.3a.1.1,0,0,0-.1-.1h0l-4.3-2.1h0l10.5,5.1h.1c.1,0,.1.1.1,0h.2a.1.1,0,0,0-.1-.1h-.1L379,305.6h.5c0-.1,0-.1-.1-.1v-.2h-.2l-69.8-34.3h.1l3.7,1.8h.3a.1.1,0,0,1,.1-.1h0a.1.1,0,0,0-.1-.1h-.1l-6.2-3.1h.1l44.6,21.6h.5c.1,0,.1-.1,0-.1h0c0-.1-.1-.1-.1-.2H352l-21.7-10.5h.1L268,249h.1l-13-6.3-3,4.6L328.4,286h-.3l-35.6-17.9h0l85.6,42.9h.5c.1,0,.1,0,.1-.1h-.1c0-.1-.1-.1-.1-.2h-.2L263.2,252.3,384.9,313h.5Z" transform="translate(-162.1 -212.4)"/><path class="cls-9" d="M251.8,248l5.3,2.7h0l-5.4-2.7-.2.4,3.4,1.7h-.1l-3.4-1.7-2.4,3.7,59.4,31,56.5,29.2h.4c0-.1-.1-.1-.1-.2H365L257.3,256h0l38.9,20.1h.2l-10.5-5.4,41.8,21.4h.5l14.4,7.5h.2L320.4,287h.1L381.2,318h.5c0-.1,0-.1.1-.1s0-.1-.1-.2h-.2c0-.1-.1-.1-.1-.2L305,278.3h.2a.1.1,0,0,0-.1-.1h-.2l-4.7-2.4h.1l6.5,3.3h.2l-17.7-9h-.1l-29.5-15,9.9,5c.1,0,.1,0,.1.1h.2a.1.1,0,0,1,.1-.1l91.9,46.7h.4a.1.1,0,0,1,.1-.1h0c.1,0,.1,0,0-.1h-.3L294,270.3h.1a.1.1,0,0,1-.1-.1h-.1l-17-8.6h.1l13.5,6.7h.3a.1.1,0,0,0,.1-.1h.1a.1.1,0,0,0-.1-.1h0a.1.1,0,0,1-.1-.1h-.1l-22.5-11.4h0l59.7,30h.5l-76.3-38.6Z" transform="translate(-162.1 -212.4)"/><path class="cls-5" d="M245.9,257.1l26.9,14.6h.1l94.2,50.3h.2a.1.1,0,0,0,.1.1h.2c.1,0,.1,0,0-.1h0l-.2-.2h-.1l-70.6-37.7h-.1l-24.4-13h-.1l-12.3-6.5h.1l7.2,3.9h.4l41.1,21.8h.4a.1.1,0,0,0,.1-.1h0a.1.1,0,0,1-.1-.1h-.2l-40.4-21.4h0c.1,0,.1,0,.1-.1h-.2l-14.4-7.7h0l116.9,61.8h.5c.1,0,.1,0,.1-.1h-.1c0-.1-.1-.1-.1-.2H371l-85.9-45.3h.1l3.4,1.8h.4a.1.1,0,0,0,.1-.1h-.3l-13.6-7.2,64,33.4h.4a.1.1,0,0,1,.1-.1h0c0-.1,0-.1-.1-.2h-.1a.1.1,0,0,1-.1-.1l-62.7-32.9h.1l32.6,17h.5l44.8,23.4h.4a.1.1,0,0,0,.1-.1h-.1c0-.1-.1-.1-.1-.2h-.2l-61.3-32h-.1a.1.1,0,0,1-.1-.1h0l-34.9-18.1,11,5.6c0,.1,0,.1.1.1h.2a.1.1,0,0,1,.1-.1h0c-.1,0-.1,0-.1-.1h-.1l-3.1-1.6,41.9,21.7-59.4-31Z" transform="translate(-162.1 -212.4)"/><path class="cls-9" d="M304.4,296.5l22.8,12.6h.4c.1,0,.1,0,.1-.1h-.3l-64.5-35.7,69,37.9h.4c.1,0,.1,0,.1-.1h0a497582161916,497582161916,0,0,0-.2-.2h-.1l-35.8-19.7h-.2l-52-28.6h.1l45.3,24.8h.4a.1.1,0,0,0,.1-.1h0l14.1,7.7h.5v-.2h0c-.1,0-.1,0-.1-.1h-.2l-1.1-.6h.1l42.4,23.2h.5v-.2h-.2l-39.3-21.4h.1v-.2h-.2l-29.6-16.1,46.2,25h.4a.1.1,0,0,0,.1-.1h0v-.2h-.2l-.4-.2,51,27.6h.6v-.2h-.1c0-.1-.1-.1-.1-.2H374L244.9,258.7l-2.3,3.5Z" transform="translate(-162.1 -212.4)"/><path class="cls-9" d="M244.9,258.6l36.6,19.6h.3a.1.1,0,0,0,.1-.1h0l66.2,35.6h.5v-.2h-.3l-97-52.3h0l56.6,30.4h.4a497582161915.9,497582161915.9,0,0,1-.2-.2l-39.8-21.3h.1l4.1,2.2h.3l-26.9-14.6Z" transform="translate(-162.1 -212.4)"/><path class="cls-5" d="M240.3,265.8l14.1,8h.3l68.4,38.5h.5l48.9,27.6h.5a.1.1,0,0,0,.1-.1h0c-.1-.1-.1-.1-.1-.2h-.3L266.5,279.4h.1l3.3,1.8h.3c0-.1,0-.1-.1-.1h0l-14.3-8h.1l1.5.9h.2a.1.1,0,0,0,.1-.1h.1l20.5,11.4h.4c0-.1,0-.1.1-.1h0a.1.1,0,0,0-.1-.1h0a.1.1,0,0,1-.1-.1h0l-25.8-14.4h.1l44.4,24.8h.5v-.2c-.1,0-.1,0-.1-.1h-.1l-29.3-16.2,56.8,31.3h.4a.1.1,0,0,0,.1-.1h0c-.1-.1-.1-.1-.1-.2h-.2l-27.6-15.3h-.1l-49.4-27.4,2.6,1.4h.2l53.4,29.4-61.8-34.3Z" transform="translate(-162.1 -212.4)"/><path class="cls-5" d="M307.6,306.5h.1l46.7,26.6h.5v-.2h-.3L250.3,273.1h.1l5.3,2.9h0c0,.1,0,.1.1.1h.3l2.3,1.3h.2l97.7,55.2h.5c.1,0,.1-.1,0-.1v-.2a.1.1,0,0,1-.1-.1l-.2-.2L240.2,265.9l-.9,1.4Z" transform="translate(-162.1 -212.4)"/><path class="cls-9" d="M209.8,250.4h-.1l-19.2-10.9h-.3c-.1,0-.1.1,0,.1h.1L208,250h0l-24.5-13.9h-.1l-.6.8L203.7,249h0l-21-12.1-.3.4,33.7,19.5-33.8-19.4h0l-.3.3,8.1,4.7-8.1-4.7-.3.4,11.9,7h-.1l-9.6-5.6h-.3l23.1,13.5h0l-25.4-14.8-.5.6,29.9,17.6h0l-12.9-7.5h-.3l-16.9-9.9h0v.2L349.4,339.9h.1c0-.1-.1-.1-.1-.2h-.1l-.2-.2-121-71.4h0l20.5,12.1h0c.1,0,.1,0,.1.1h.3L274.8,295a.1.1,0,0,1,.1.1h.1c.1,0,.1,0,.1-.1h.1v-.2H275l-10-5.8h.1l32,18.8h.4c.1,0,.1,0,.1-.1h0l2.3,1.3a.1.1,0,0,0,.1.1h.3v-.2h-.2l-16.2-9.5h-.1l-28.4-16.6h0l17,9.8h.2l-23.9-13.9,27.6,15.9h.3a.1.1,0,0,0-.1-.1h0l-18.2-10.6,57.9,33.3h.4a.1.1,0,0,1,.1-.1h0c0-.1,0-.1-.1-.2a.1.1,0,0,0-.1-.1h-.1L256.9,280h.1a.1.1,0,0,1-.1-.1l-3.6-2h.1l28.8,16.5h.2c0,.1,0,.1.1.1h.2l85.1,48.8c0,.1.1.1.2.1h.3a.1.1,0,0,1,.1-.1h-.1v-.2l-.2-.2H368L236.5,266.6h0a.1.1,0,0,1,.1-.1h0l11.7,6.6h.4l58.5,33.4c.1,0,.1,0,.1.1h.2c.1,0,.1,0,.1-.1l-68.3-39.2Z" transform="translate(-162.1 -212.4)"/><path class="cls-5" d="M180.3,239.9h.2l31.9,18.8h0l-19.3-11.3h-.4L180,240.3l-.3.4,34.8,20.7h-.1l-34.8-20.7-.5.7,13,7.9h0c-.1,0-.1,0,0,.1h.1l20.3,12.2h.1l13.9,8.3h-.1l-22.7-13.5h-.2a.1.1,0,0,0-.1.1h0l-25-14.9-.3.3,33,20h0l-11.5-6.9h-.4l-13-7.8h-.3l20,12h-.1l-6.9-4.1h-.3l-21.3-12.9-.3.4L343.3,346v-.2a.1.1,0,0,1-.1-.1h-.1a.1.1,0,0,1-.1-.1l-50.5-30.8h.1v-.2h-.2c0-.1,0-.1-.1-.1L257,292.7l16.9,10.2h.4a.1.1,0,0,1,.1-.1l27.7,16.8h.4a.1.1,0,0,0,.1-.1h0c0-.1-.1-.1-.1-.2a.1.1,0,0,1-.1-.1h0l-50.7-30.7,54.1,32.6h.5l18.3,11h.6c0-.1-.1-.1-.1-.2a.1.1,0,0,1-.1-.1h-.2l-52.5-31.7h.1v-.2h-.1l-19.1-11.6h.1l15.4,9.2h.3a.1.1,0,0,0,.1-.1h.1l8.7,5.1a.1.1,0,0,0,.1.1h.3c0-.1,0-.1-.1-.2H278l-6.8-4.1L356,347.8h.4c.1,0,.1,0,.1-.1h0v-.2h-.2c0-.1-.1-.1-.1-.2L295.6,311h.1c0-.1-.1-.1-.1-.2a.1.1,0,0,1-.1-.1h0l-23.8-14.2,4.8,2.9h.5l22.5,13.4h.4c.1,0,.1,0,.1-.1h0l9.1,5.4h.5l8.2,4.8c0,.1.1.1.2.1h.2a.1.1,0,0,0,.1-.1h0v-.2a.1.1,0,0,1-.1-.1H318l-42.9-25.4,73.8,43.4h.5L180.5,239.7Z" transform="translate(-162.1 -212.4)"/><path class="cls-9" d="M176.6,244.4l-.2.2,37.2,22.9h-.1l-29.3-17.9h-.7l-7.6-4.6h-.1l-.2.3,31.1,19.1h-.1l-23.5-14.4h-.3a.1.1,0,0,0,.1.1l6,3.7h-.1a.1.1,0,0,0,.1.1h0L175,246.3l-.4.5-.2.3,5.6,3.5h0l-5.8-3.7h-.1l-.2.3L190,257.9l-16.2-10.2-.4.6,134.7,85.4h-.2l-38.2-24.1h0a497582161916,497582161916,0,0,0-.2-.2h0l-21.9-13.8h.1l35.5,22.3a.1.1,0,0,1,.1.1h.3c.1-.1.1-.1.1-.2h-.2a.1.1,0,0,0-.1-.1l-28-17.6h.1a.1.1,0,0,0-.1-.1h-.1l-20.2-12.7h0L305.7,330h.4a.1.1,0,0,0,.1-.1h0v-.2h-.3l-43.8-27.4h0v-.2h-.2l-35-21.8h.1l101.2,62.9h.6v-.2h-.1c0-.1,0-.1-.1-.1s-.1-.1-.1-.2l-43.6-27.1h0l19.8,12.3h.2a.1.1,0,0,0,.1.1h.2c0-.1-.1-.1-.1-.2H305l-69.3-42.9h.1l6.2,3.9h.5L264.7,301h.5a.1.1,0,0,0-.1-.1H265l-10.3-6.4h.1l18.8,11.6h.2s.1.1.1,0h.2L336.8,344h.5v-.2h0l-.2-.2H337l-18.1-11.1h.1a.1.1,0,0,0-.1-.1c0-.1,0-.1-.1-.2a.1.1,0,0,1-.1-.1l-51.1-31.3h.1l75.1,45.8h.5L177,243.9Z" transform="translate(-162.1 -212.4)"/><path class="cls-5" d="M173.3,248.4l6.2,3.9h0l-6.2-3.9-.5.6,4.2,2.7h-.1l-4.2-2.7h-.1l-.4.5,12.3,7.9h-.1L172,249.9l-.3.4v.2l.9.6h0l2.3,1.5h-.1a.1.1,0,0,1,.1.1l9.8,6.3-11.3-7.2H173l-2-1.3-.3.3L200,270.4h-.5l-27.3-17.6h-.4l-1.5-1-.3.4,6.9,4.5h0l9.2,6H186l-16.2-10.5h-.1L271,319.1h-.2l-54.1-35.4h0l96,62.3h.5c.1,0,.1,0,.1-.1h-.1c0-.1-.1-.1-.1-.2H313l-55.9-36.3h.1l15.3,9.9h.4a.1.1,0,0,0,.1-.1h0a.1.1,0,0,1-.1-.1h-.1L268,315l51,32.8h.6v-.2a.1.1,0,0,0-.1-.1c0-.1-.1-.1-.1-.2l-85.5-55.1,71.4,45.8h0a.1.1,0,0,0,.1.1h.3a.1.1,0,0,0,.1-.1h0c0-.1,0-.1-.1-.2a.1.1,0,0,0-.1-.1h-.1l-43.7-28.2h0a.1.1,0,0,0-.1-.1h-.1L230.7,289h-.1L215.7,279h0l66.7,42.5h.4a.1.1,0,0,0,.1-.1h0v-.2h-.2l-41.8-26.7h0l-14.1-8.9,110.4,70h.5c.1,0,.1,0,.1-.1h0c0-.1,0-.1-.1-.2a.3.3,0,0,0-.1-.2h-.1l-60.7-38.6h0a.1.1,0,0,0,0-.2h0l-.2-.2-11-6.9h.1v-.2h-.2l-34.2-21.7h.1L307.7,334h0a.1.1,0,0,0,.1.1h.3L173.4,248.3Z" transform="translate(-162.1 -212.4)"/><path class="cls-9" d="M169.1,253.4l-.7.9,11.3,7.5h0L202.1,277H202l-34-22.4-.3.4-.3.4,22.5,15h0l-22.6-14.9-.3.4,20.6,13.7h-.1l-9.7-6.5h-.3l.8.5h-.1l-11.6-7.8-.2.2-.4.5L317.9,360.3h.2V360a.1.1,0,0,0-.1-.1c0-.1,0-.2-.1-.2h-.1l-7-4.7h0c.1-.1.1-.1.1-.2h-.1c0-.1-.1-.1-.1-.2h-.2L201,280.5h0l110.9,74.3h.5v-.4h-.2l-67.2-45.1h.1v-.2h-.1l-.7-.5h0l74.1,49.5h.4c.1,0,.1,0,.1-.1h0v-.2h-.1l-.2-.2-37.5-25h.2c0-.1-.1-.1-.1-.2a.1.1,0,0,0-.1-.1h-.1l-28.7-19.2h.1c-.1-.1-.1-.1-.1-.2H252l-36.9-24.5h.1l4.4,2.9h.4l30.2,20h.4L269.4,322h0a.1.1,0,0,1,.1.1h.3v-.2h-.3l-12.4-8.2h.1l71.9,47.3h0a.1.1,0,0,1,.1.1h.5v-.2h-.1c0-.1-.1-.1-.1-.2h-.2l-12.9-8.5h0c0-.1,0-.2-.1-.2h-.1l-79.4-52.2h.1L314.2,349h.2a.1.1,0,0,0,.2,0c.1,0,.1,0,.1-.1h0v-.2h-.3l-72.5-47.5h.1l28.5,18.6h.4c.1,0,.1,0,.1-.1h0L169.7,252.7Z" transform="translate(-162.1 -212.4)"/><path class="cls-5" d="M165.9,257.3h0l16.4,11.1h0c0,.1,0,.1.1.1l10.3,7h0c-.1,0-.1,0-.1.1h.2l7.3,5H200l-34.6-23.3-.8.9-.3.5,2.4,1.7h.1l12.8,8.8h0a.1.1,0,0,0,.1.1h0l2.6,1.8h-.1l-18.3-12.5-.4.4h0l.7.4h-.1l-.7-.4-.5.6,24,16.6h0l-24-16.5-.3.3,10.4,7.3h0l-10.5-7.2-.4.5,110.2,77.3h.1c-.1-.1-.1-.1-.1-.2h-.2l-23-16.1h0v-.2h-.2l-32-22.3h.1l28.4,19.7h.4a.1.1,0,0,1,.1-.1h0v-.2a.1.1,0,0,1-.1-.1h-.1l-39.8-27.7,45.8,31.7a.1.1,0,0,1,.1.1h.4l11.9,8.2a.1.1,0,0,0,.1.1h.3a.1.1,0,0,1,.1-.1h0l36,24.8h.6c0-.1,0-.1-.1-.2H301c0-.1-.1-.1-.1-.2l-57.5-39.7h.1l4.6,3.2h.5l11.4,7.8h.5c0-.1,0-.1-.1-.2h-.2l-12.8-8.8h.1c0-.1.1-.1.1-.2a.1.1,0,0,1-.1-.1h-.1l-24.7-16.9,20.2,13.8h.4a.1.1,0,0,0-.1-.1L207.1,288h0a.1.1,0,0,1,.1-.1h0l11.4,7.7h.4l94.2,63.9h.6v-.2h-.1c0-.1,0-.1-.1-.2h-.1l-82.8-56.2a.1.1,0,0,1,.1-.1h0L305.4,353h.5s.1-.1,0-.1v-.2h-.1c0-.1-.1-.1-.1-.2h-.1l-38.3-25.9h.1l50.1,33.7h.4L166,257.2Z" transform="translate(-162.1 -212.4)"/><path class="cls-10" d="M232.4,228.6h-.3c-.1,0-.1,0-.1.1h.2l24.3,11.7.3-.4Z" transform="translate(-162.1 -212.4)"/><path class="cls-10" d="M201.4,214.4l-.4.5,45.5,22h0L200.9,215v.2h-.1l21,10.1.5.2.5.2.5.2.5.3.5.2.5.3.4.2.5.3,14,6.8h-.1l-13.1-6.4.4.3.3.3.4.3.4.3,24.7,12.1h.1l2.5,1.2,1.3-1.9Z" transform="translate(-162.1 -212.4)"/><path class="cls-10" d="M219.8,224.9h.9l-9.3-4.5h-.3l7.7,3.7h.5Z" transform="translate(-162.1 -212.4)"/><path class="cls-10" d="M257.5,238.1h0l.5.2v-.2l-4.4-2.1-13-6.1h0l-37.6-17.5-.4.4,19,9h0l-19-9-.2.2h-.1l11.3,5.4h.1l34.3,16.3h.1l8.9,4.2.9-1.4Z" transform="translate(-162.1 -212.4)"/><path class="cls-10" d="M206.7,215.9h-.3l50.4,24.2.3-.5Z" transform="translate(-162.1 -212.4)"/><path class="cls-10" d="M214.3,224.3h.4l-15.2-7.4h-.1l-.2.2h.1l14.5,7.1h.5Z" transform="translate(-162.1 -212.4)"/><polygon class="cls-10" points="66 22.9 66.3 23.9 67.8 24.6 68.5 24.1 66 22.9"/><path class="cls-10" d="M215.3,224.3h.4l-2.6-1.3h-.3l2.1,1h.4Z" transform="translate(-162.1 -212.4)"/><path class="cls-10" d="M255.1,242.8l-11.9-5.7H243l1.6.8h-.1l-14.8-7.2.3.4.3.4a.5.5,0,0,1,.2.4l.3.4,8,3.9h0l-8-3.8.2.3c.1.1.1.3.2.4s.1.2.1.4l.2.3-.3-.4a.8.8,0,0,0-.2-.4l-.3-.4-.3-.4-6.3-3.1h-.3l-6.6-3.2H215l18.9,9.4h-.1l-19-9.4h-1.6l10.6,5.2h-.1l-10.6-5.3h-.5a.1.1,0,0,1-.1.1l15.2,7.6.2-.7.3,1,2.4,1.2,1.2-1-.4,1.4h.3l-.3-.2-.3.8,1.5.7,2.4-.5-1.4,1.1,18.2,9.1.3-.6Z" transform="translate(-162.1 -212.4)"/><path class="cls-10" d="M210.4,224.9h.5l-12.8-6.4-.2.2-.2.3,12.2,6.2h.5Z" transform="translate(-162.1 -212.4)"/><path class="cls-10" d="M209.1,225.4h.3l-8.6-4.2h-.2l8.2,4.2h.3Z" transform="translate(-162.1 -212.4)"/><path class="cls-10" d="M212,224.6h1l-14.1-6.9-.4.5,1.9.9h-.1l-1.9-.9-.2.3,12.9,6.5h.9Z" transform="translate(-162.1 -212.4)"/><path class="cls-10" d="M229.4,231.4l-.6-.5-.5-.5-7.1-3.4h-1.4l5.4,2.7h-.1l-5.6-2.7h-1.2l12,5.9-.4-.6Z" transform="translate(-162.1 -212.4)"/><path class="cls-10" d="M212.4,227.3h-.9l15.9,8,.3-.7Z" transform="translate(-162.1 -212.4)"/><path class="cls-10" d="M208.5,229.6h-.1a.1.1,0,0,1-.1.1h-.1l13.8,7.2-.9-1Z" transform="translate(-162.1 -212.4)"/><path class="cls-10" d="M208.3,225.7h.4l-7-3.5h-.2l.8.4h0l5.7,2.9h.3Z" transform="translate(-162.1 -212.4)"/><polygon class="cls-10" points="65.1 24 62.5 22.7 64.7 25.2 65.1 24"/><path class="cls-10" d="M222.4,237.6,208,230.2c-.1,0-.1,0-.1.1h-.2l2.4,1.3h.1l13.4,6.9h.1Z" transform="translate(-162.1 -212.4)"/><path class="cls-10" d="M238.6,241.5h-.4a.1.1,0,0,0,.1.1h.1l13.1,6.6.2-.4Z" transform="translate(-162.1 -212.4)"/><path class="cls-10" d="M205.4,227.6h.3L195.1,222l-.2.2v.2l10.4,5.4h.2Z" transform="translate(-162.1 -212.4)"/><polygon class="cls-10" points="73.8 28.4 71 27 69.8 27.9 73.8 28.4"/><path class="cls-10" d="M205,228h.1l-10.4-5.4h-.1l-.2.3,10.4,5.3h.2Z" transform="translate(-162.1 -212.4)"/><polygon class="cls-10" points="69.5 26.2 68.7 25.8 68.5 26.4 69.5 26.2"/><path class="cls-10" d="M204.4,228.6h.2l-10.4-5.3-.2.3,10.3,5.4h.1Z" transform="translate(-162.1 -212.4)"/><path class="cls-10" d="M206.7,226.6h.3l-10.9-5.5-.3.3h-.1l9.8,5h.1l.7.3h.2C206.5,226.7,206.6,226.7,206.7,226.6Z" transform="translate(-162.1 -212.4)"/><path class="cls-10" d="M209.1,229.1h-.5l12.3,6.4h-.1l2.8,1.4,1.4.8-.3-1Z" transform="translate(-162.1 -212.4)"/><path class="cls-10" d="M210.7,228.1h-.3c0,.1-.1.1-.2.2h-.3l-.2.2,5.2,2.6h.1l8.9,4.5h0l.8.4-.6-2.1Z" transform="translate(-162.1 -212.4)"/><polygon class="cls-10" points="67.2 25.1 66.5 24.7 66.7 25.5 67.2 25.1"/><polygon class="cls-10" points="66.6 32.4 66.6 32.4 66.6 32.4 66.6 32.4"/><path class="cls-10" d="M203.6,229.8c0-.1,0-.1.1-.1h0l-10.4-5.4-.2.3,10.4,5.5h.1Z" transform="translate(-162.1 -212.4)"/><path class="cls-10" d="M203.8,229.4h.1l-4.7-2.4H199a.1.1,0,0,1-.1.1h0l4.8,2.5h.1Z" transform="translate(-162.1 -212.4)"/><path class="cls-10" d="M223.3,242l-4.5-.6,2.4-.5-3.9-2H217l-10.8-5.7v.8l9.5,5h-.1l-9.4-5c-.1,0-.1.1-.1.2h0v.4h.1l15.7,8.3,1.7-1.3Z" transform="translate(-162.1 -212.4)"/><path class="cls-10" d="M202.7,231.8v-.4l-5.9-3.1h-.3l3.4,1.8h0l2.6,1.4v-.2Z" transform="translate(-162.1 -212.4)"/><path class="cls-10" d="M219,238.3l3.5.5L207.3,231v.4H207v.2l7.9,4.2h0l.8.4h0l7,3.7h.6Z" transform="translate(-162.1 -212.4)"/><path class="cls-10" d="M249,252.2l2.4-3.7-15-7.5-2.7.5,6.2,3.2h0l-6.3-3.1-1.2.2,4.4,2.3-4.9-.8.6.7,3.3,1.7-3.2-1.7,2.4,2.7-4.4-2.3v.5l12.9,6.8h0l-7.1-3.7h-.4l-5.2-2.7.2.6,11.2,5.9-11.2-5.8.6,2.2-2.9-3.4h-.1l-1.1,3.6-1-3.9-1.1.9,1.2.7h0l-1.3-.6-1.8,1.5.7-2.1-1.6-.9-2.2.5,1.2-1-14.6-7.7c0-.1,0-.1-.1-.1h-.1l12.3,6.6h0l-13.3-7.1a1.5,1.5,0,0,0,.1.7,2,2,0,0,0,.1.7c0,.2.1.4.1.6s.1.5.2.7l24.7,13.4h0l-8.1-4.3h-.9l-1.3.2h-3.7l2.3,1.3h-.1c-.1,0,0,.1,0,.1h.1l16.8,9.4h.1l5.3,3h0l-.8-.4h0l-26-14.3-1.3-.3-1.3-.5-1.3-.5-1.2-.7-1.1-.6-1.1-.8-.9-.7-.9-.8-13.5-7.5h-.4c0,.1,0,.1.1.1h.1l4.4,2.5h0L235,259.2h-.1l-1.3-.7h-.3l-46.9-26-.4.4h-.1l13.4,7.6h.1l30.1,16.9h-.1l-18.9-10.5h-.3l-24.7-13.8-.5.5,11.7,6.6L185,234.3l-.3.3L210.1,249h0l8.5,4.9-23.8-13.4h-.3l-10.2-5.7-.3.3,27.5,15.7h-.1l-1.3-.8h-.3l29.5,16.9.9-1.4-.9-.5h.1l.9.5,2.3-3.6,2.3-3.5-2.4-1.4h.1l2.3,1.3,1-1.5Z" transform="translate(-162.1 -212.4)"/><polygon class="cls-10" points="60.7 31.6 62.2 32.4 62.7 31.1 60.7 31.6"/><path class="cls-10" d="M202.5,232.4h.1l-11.1-5.9v.2h-.1l11.2,6h0Z" transform="translate(-162.1 -212.4)"/><path class="cls-10" d="M202.3,234.9v-1.2l-11.7-6.2-.3.3,4.4,2.4h-.1l-4.3-2.3-.3.3-.7.8,13.2,7.1a1.3,1.3,0,0,1-.1-.6C202.4,235.3,202.3,235.1,202.3,234.9Z" transform="translate(-162.1 -212.4)"/><path class="cls-10" d="M202.9,237.5a3090632051186.6,3090632051186.6,0,0,0-.2-.6h-.2l-13.7-7.4-.4.5h0l14.7,8.1v-.3C203,237.8,202.9,237.7,202.9,237.5Z" transform="translate(-162.1 -212.4)"/><path class="cls-10" d="M203.7,239.4l-.3-.6c-.1-.1-.1-.3-.2-.5l-14.9-8.1h0l-.7.8,16.8,9.3-.4-.5Z" transform="translate(-162.1 -212.4)"/><path class="cls-10" d="M218.3,247.1l1.9.2H222l-15.3-8.2.2.3.2.4.2.4.3.4h0l.7.9.7.9.9.8,1,.8,3.7,2.1,1.9.6Z" transform="translate(-162.1 -212.4)"/><path class="cls-11" d="M224.7,226.8l-.5-.3-.5-.2-.5-.3-.5-.2-.5-.2-.5-.2,3.9,1.9-.5-.3Z" transform="translate(-162.1 -212.4)"/><path class="cls-11" d="M227.1,228.4l-.3-.3-.4-.3-5.7-2.7h-.9l-.5-.2h-.5l9.1,4.4-.4-.3Z" transform="translate(-162.1 -212.4)"/><path class="cls-11" d="M218.9,226.6h.6l-4.8-2.4h-.9l4.5,2.3h.6Z" transform="translate(-162.1 -212.4)"/><path class="cls-11" d="M220.5,226.8h.7l-5.5-2.7h-.8l4.9,2.4h.7Z" transform="translate(-162.1 -212.4)"/><path class="cls-11" d="M214,226.9h.8l-3.9-1.9h-1l1.7.8h0l1.6.9h.8Z" transform="translate(-162.1 -212.4)"/><path class="cls-11" d="M212.8,227.2h.3l-3.7-1.8h-.6l3.7,1.8a.1.1,0,0,0,.1-.1Z" transform="translate(-162.1 -212.4)"/><path class="cls-11" d="M230.3,231.9l-.3-.4-.3-.4-1.4-.7.5.5.6.5.5.5.4.6.5.2-.3-.4A.5.5,0,0,0,230.3,231.9Z" transform="translate(-162.1 -212.4)"/><path class="cls-11" d="M231,233.4a.8.8,0,0,1,.2.4l.3.4-.2-.3c0-.2-.1-.3-.1-.4s-.1-.3-.2-.4l-.2-.3-.4-.2.3.4Z" transform="translate(-162.1 -212.4)"/><path class="cls-11" d="M216.1,226.6h1.1l-4.2-2.1h-1.9l3.9,1.9h1.1Z" transform="translate(-162.1 -212.4)"/><path class="cls-11" d="M208.8,229.3h.3l-3.4-1.7h-.5l3.4,1.7h.2Z" transform="translate(-162.1 -212.4)"/><path class="cls-11" d="M208.3,229.8a.1.1,0,0,0,.1-.1h.1l-3.4-1.7h-.3l3.4,1.7h.1Z" transform="translate(-162.1 -212.4)"/><path class="cls-11" d="M207.8,230.3h.1c0-.1,0-.1.1-.1l-3.4-1.8h-.3l3.4,1.7h.1Z" transform="translate(-162.1 -212.4)"/><path class="cls-11" d="M210.2,228.4c.1-.1.2-.1.2-.2h-.2l-3.2-1.6h-.3c-.1.1-.2.1-.2.2h-.2l3.4,1.8.2-.2Z" transform="translate(-162.1 -212.4)"/><path class="cls-11" d="M211.9,227.5h.5l-3.7-1.8H208l3.5,1.8h.4Z" transform="translate(-162.1 -212.4)"/><path class="cls-11" d="M207.1,231.4V231l-3.4-1.8h-.2l3.2,1.6-3.2-1.6h0c-.1,0-.1,0-.1.1h-.1l3.4,1.7v-.2Z" transform="translate(-162.1 -212.4)"/><path class="cls-11" d="M206.1,233.6v-.4l-3.4-1.8v.4h-.1v.2l3.5,1.9v-.4Z" transform="translate(-162.1 -212.4)"/><path class="cls-11" d="M206,234.3h0c0-.1,0-.2.1-.2l-3.5-1.8h0l3.4,1.8v-.4Z" transform="translate(-162.1 -212.4)"/><path class="cls-11" d="M219.6,247.5h1.2l1.3-.2h-1.9l-1.9-.2-1.8-.4-1.9-.6,2.5,1.3h2.5Z" transform="translate(-162.1 -212.4)"/><path class="cls-11" d="M207.1,239.8l-.2-.4-.2-.3-3.8-2.1h-.2a3090632051186.6,3090632051186.6,0,0,1,.2.6c0,.2.1.3.1.4v.3l4.5,2.4-.3-.4Z" transform="translate(-162.1 -212.4)"/><path class="cls-11" d="M206.1,237a2,2,0,0,1-.1-.7,1.5,1.5,0,0,1-.1-.7l-3.6-1.9v1.2c0,.2.1.4.1.6a1.3,1.3,0,0,0,.1.6l3.9,2.2c-.1-.2-.1-.5-.2-.7S206.1,237.2,206.1,237Z" transform="translate(-162.1 -212.4)"/><path class="cls-11" d="M209,242.4l-.7-.9-.7-.9h-.1l-4.3-2.4c.1.2.1.4.2.5l.3.6.3.5.4.5,6.5,3.6-1-.8Z" transform="translate(-162.1 -212.4)"/><path class="cls-11" d="M207.5,243.6l1.1.8,1.1.6,1.2.7,1.3.5,1.3.5,1.3.3-9.1-4.9.9.8Z" transform="translate(-162.1 -212.4)"/><polygon class="cls-11" points="65.5 22.6 65.3 23.4 66.3 23.9 66 22.9 65.5 22.6"/><polygon class="cls-11" points="68.5 24.1 69.2 24.4 69.7 23.1 68.5 24.1"/><polygon class="cls-11" points="65.5 22.6 66 22.8 65.8 21.9 65.5 22.6"/><polygon class="cls-11" points="70.5 26 71.5 26.5 72.9 25.4 70.5 26"/><polygon class="cls-11" points="68.5 24.1 67.8 24.6 69 25.2 69.2 24.5 68.5 24.1"/><path class="cls-11" d="M236.8,244.1l-4.4-2.3,1.2-.2-8.9-4.6.3,1,3.1,1.6H228l-6.9-3.5.9,1,3.4,1.8h0l-3-1.5,1.3,1.4h-.1l7.5,3.9H231a.1.1,0,0,1,.1.1h0l1.4.7-.6-.7Z" transform="translate(-162.1 -212.4)"/><polygon class="cls-11" points="58.8 23.5 61.4 24.9 58.7 23.5 58.8 23.5"/><polygon class="cls-11" points="73.8 28.4 69.8 27.9 71 27 69.5 26.2 68.5 26.4 68.7 25.8 67.2 25.1 66.7 25.5 66.5 24.7 65.1 24 64.7 25.2 62.5 22.7 62 22.5 62.6 24.5 71.6 29.2 74.3 28.6 73.8 28.4"/><polygon class="cls-11" points="61.2 29.7 59 28.5 56.7 29 61.2 29.7"/><polygon class="cls-11" points="72.9 34.4 70.4 31.7 60.4 26.5 56.9 25.9 61.1 28.1 60.4 28.2 68.6 32.5 68.5 32 72.9 34.4"/><path class="cls-11" d="M225.1,242.4h-.2l3.8,2h0l2.4,1.2-.2-.6Z" transform="translate(-162.1 -212.4)"/><polygon class="cls-11" points="68.9 33.7 66.7 32.5 69.6 35.9 68.9 33.7"/><polygon class="cls-11" points="65.5 36 66.6 32.5 61.4 29.8 59.7 31.1 60.7 31.6 62.7 31.1 62.2 32.4 63.4 33 64.5 32.1 65.5 36"/><polygon class="cls-11" points="63.3 33.1 62.2 32.5 61.4 34.6 63.3 33.1"/><polygon class="cls-11" points="60.5 31.6 59.6 31.1 58.3 32.1 60.5 31.6"/></g></g></g><image class="cls-12" width="458" height="485" transform="translate(39.1 21) scale(0.24)" xlink:href="bio_yellow1.png"/><rect class="cls-13" x="52.7" y="43.3" width="16.7" height="8.7"/><rect class="cls-13" x="84.1" y="43.3" width="47.2" height="8.7"/><path class="cls-13" d="M228.1,249v21.9H250V249Zm19.1,19.1H230.9V251.8h16.3Z" transform="translate(-162.1 -212.4)"/><rect class="cls-13" x="114.6" y="74.3" width="16.7" height="8.7"/><rect class="cls-13" x="52.7" y="74.3" width="47.2" height="8.7"/><path class="cls-13" d="M280.2,279.9v22H258.3v-22ZM261.1,299h16.3V282.8H261.1Z" transform="translate(-162.1 -212.4)"/><rect class="cls-13" x="52.7" y="106.7" width="16.7" height="8.7"/><rect class="cls-13" x="84.1" y="106.7" width="47.2" height="8.7"/><path class="cls-13" d="M228.1,312.3v22H250v-22Zm19.1,19.1H230.9V315.2h16.3Z" transform="translate(-162.1 -212.4)"/></g></g></svg>