<svg xmlns="http://www.w3.org/2000/svg" xmlns:xlink="http://www.w3.org/1999/xlink" viewBox="0 0 223.3 157"><defs><style>.cls-1{fill:none;}.cls-2{isolation:isolate;}.cls-3{fill:#1e439b;}.cls-4{fill:#0453a5;}.cls-5{fill:#fff;}.cls-6{opacity:0.29;}.cls-7{clip-path:url(#clip-path);}.cls-8{clip-path:url(#clip-path-2);}.cls-9{fill:#e82327;}.cls-10{fill:#272870;}.cls-11{fill:#fbca0c;}.cls-12{opacity:0.43;mix-blend-mode:multiply;}</style><clipPath id="clip-path" transform="translate(4.4 -211.9)"><path class="cls-1" d="M163.2,291.2A75.6,75.6,0,0,1,20.3,325.7h0a75.6,75.6,0,1,1,142.9-34.5Z"/></clipPath><clipPath id="clip-path-2" transform="translate(4.4 -211.9)"><rect class="cls-1" x="3.7" y="249.7" width="213.7" height="142.49" transform="translate(125 -18.2) rotate(21.4)"/></clipPath></defs><title>bio_blue</title><g class="cls-2"><g id="Layer_1" data-name="Layer 1"><path class="cls-3" d="M87.6,291.2" transform="translate(4.4 -211.9)"/><path class="cls-4" d="M165.3,291.2A77.8,77.8,0,0,1,18.4,326.7h0A77.8,77.8,0,0,1,87.6,213.5a77.6,77.6,0,0,1,77.7,77.7Z" transform="translate(4.4 -211.9)"/><path class="cls-5" d="M163.2,291.2A75.6,75.6,0,0,1,20.3,325.7h0a75.6,75.6,0,1,1,142.9-34.5Z" transform="translate(4.4 -211.9)"/><g class="cls-6"><g class="cls-7"><g class="cls-8"><path class="cls-9" d="M104.5,243.9h.3l-13.2-6.3v.2Z" transform="translate(4.4 -211.9)"/><path class="cls-9" d="M163.8,279h-.3l-2.1-1,28,13.5a.1.1,0,0,0,.1.1h.3a.1.1,0,0,1,.1-.1h-.1a.1.1,0,0,0-.1-.1h-.2L96.9,245.7l56.3,27.2a.1.1,0,0,1,.1.1h.2a.1.1,0,0,1,.1-.1h-.1a.1.1,0,0,0-.1-.1L95.9,244.6h0l47.3,22.8h.5a.1.1,0,0,0-.1-.1h-.2l-40.7-19.6h.1L194,291.1h.5c0-.1,0-.1-.1-.2h-.2l-26.9-12.9h-.2L143.9,266h0l62.2,29.8h.6a.1.1,0,0,1-.1-.1h-.3l-46.7-22.4h.1l23,10.9h.4a.1.1,0,0,0,.1-.1h0a.1.1,0,0,0-.1-.1c0-.1,0-.1-.1-.1h-.1l-45-21.5,25.4,12h.5L207,294.3h.5V294h-.3l-52.8-25.1h.2l2.2,1.1h.3a.1.1,0,0,0,.1-.1h.1l52.3,24.7h.3c.1,0,.1,0,.1-.1h.1v-.2H210a.1.1,0,0,0-.1-.1h-.2l-118.2-56-1,1.5,1.5.7-1.5-.7-.3.5,1.2.5-1.2-.5-.2.4,2.9,1.4h0l-3-1.4-1.2,1.9,12.7,6.2h0l62.4,30.5Z" transform="translate(4.4 -211.9)"/><path class="cls-5" d="M218.9,312.4h-.4L105.1,255.4h.2l46,22.9h.1a.1.1,0,0,0,.1.1h.3l63.3,31.4h.5c0-.1,0-.1-.1-.2a.1.1,0,0,0-.1-.1h-.2l-8.8-4.4h.2a.1.1,0,0,0-.1-.1c0-.1-.1-.1-.1-.2h-.2l-69.4-34.4h0a.1.1,0,0,0-.1-.1h-.1l-27.8-13.8h0l26.9,13.3h.3c.1,0,.1,0,.1-.1H136l-4.3-2.1h0l10.4,5.1h.2l70.1,34.3h.6c-.1-.1-.1-.1-.1-.2h-.3l-69.9-34.3h.1l3.7,1.8h.4a.1.1,0,0,0,.1-.1h-.3l-6.2-3.1h.2l44.6,21.7h.5c0-.1,0-.1-.1-.2h-.1a.1.1,0,0,1-.1-.1l-21.7-10.5h0l-62.4-30.5h.1l-12.9-6.3-3,4.6,76.3,38.6h-.2a.1.1,0,0,0-.1-.1l-35.7-17.9h.1l85.6,42.9h.5l-.2-.2h-.1L96.7,251.9l121.6,60.7h.6Z" transform="translate(4.4 -211.9)"/><path class="cls-9" d="M85.2,247.6l5.4,2.7h0l-5.4-2.6-.3.4,3.4,1.7h0l-3.4-1.7-2.4,3.7,59.4,31,56.4,29.1h.5c.1,0,.1-.1,0-.1h0c-.1-.1-.1-.1-.1-.2s-.2,0-.2-.1h0L90.7,255.6h0l39,20.1h.3a.1.1,0,0,1-.1-.1l-10.5-5.4,41.7,21.4h.5l14.5,7.5h.4a.1.1,0,0,0,.1-.1h-.1c0-.1,0-.1-.1-.1h-.1l-22.4-11.6h.1l60.7,31.1h.5v-.2h-.1c0-.1-.1-.1-.1-.2h-.2l-76.3-39.1h-.1l-4.7-2.4h.1l6.4,3.3h.2l-17.6-9h0c0-.1,0-.1-.1-.1h-.1l-29.4-15,9.9,5h.3l92,46.7h.4c.1,0,.1,0,.1-.1h0a.1.1,0,0,0-.1-.1h-.1c0-.1-.1-.1-.1-.2l-68.2-34.5h-.1l-16.9-8.6h0l13.6,6.8a.1.1,0,0,1,.1.1h.1a.1.1,0,0,0,.1-.1h.1a.1.1,0,0,0-.1-.1h-.1l-22.6-11.4h.1l59.7,30h.5L85.6,247Z" transform="translate(4.4 -211.9)"/><path class="cls-5" d="M79.3,256.7l27,14.6h0l94.3,50.3h.3a.1.1,0,0,1,.1-.1c.1,0,.1,0,.1-.1h0a.1.1,0,0,0-.1-.1V321h-.2l-70.5-37.7h0c0-.1.1-.1,0-.1h0c0-.1,0-.1-.1-.2H130l-24.3-13h.1a.1.1,0,0,0-.1-.1h-.1l-12.3-6.5h0l7.2,3.8h.4l41.2,21.8h.2l-40.5-21.4h-.1l-14.4-7.6h0l117,61.7h.5c.1,0,.1-.1,0-.1v-.2h-.3l-85.9-45.3h0l3.5,1.8h.3a.1.1,0,0,0,.1-.1h-.1a.1.1,0,0,1-.1-.1h0l-13.6-7.1,63.9,33.4h.5v-.2c-.1,0-.1,0-.1-.1h-.2l-62.7-32.9h.1l32.7,17h.1c.1,0,.1.1.2,0h.2l44.7,23.3h.5c-.1-.1-.1-.1-.1-.2h-.2l-61.4-32h-.2L91.9,257.5l10.9,5.6h.2l-3-1.6,41.9,21.7-59.4-31Z" transform="translate(4.4 -211.9)"/><path class="cls-9" d="M137.9,296.1l22.8,12.6h.4c0-.1-.1-.1-.1-.2h-.1L96.4,272.5l68.9,37.9h.4c0-.1,0-.1.1-.1h0c.1,0,.1,0,.1-.1h-.1a.1.1,0,0,0-.1-.1h-.2l-35.7-19.7h-.1a.1.1,0,0,0-.1-.1h0l-52-28.6h0L123,285.9h.5l14.1,7.7h.3c0-.1,0-.1.1-.1h0c.1,0,.1,0,.1-.1H138a.1.1,0,0,0-.1-.1h-.1l-1.1-.6h0l42.5,23.1h.4c0-.1,0-.1-.1-.2h-.1l-39.3-21.4h0v-.2h0a.1.1,0,0,1-.1-.1.1.1,0,0,1-.1-.1l-29.6-16.1,46.2,25h.4a.1.1,0,0,0,.1-.1h-.1c0-.1-.1-.1-.1-.2h-.1l-.5-.2,51.1,27.6h.5v-.2a.1.1,0,0,0-.1-.1v-.2h-.2L78.3,258.2l-2.2,3.6Z" transform="translate(4.4 -211.9)"/><path class="cls-9" d="M78.4,258.2l36.5,19.6h.5l66.1,35.6c.1,0,.2,0,.2.1h.2a.1.1,0,0,0,.1-.1h.1v-.2h-.2c0-.1-.1-.1-.2-.1h0l-97-52.3h0L141.3,291h.4c.1,0,.1,0,.1-.1h-.2l-39.8-21.4h.1l4.1,2.2a.1.1,0,0,0,.1.1h.2l-27-14.6Z" transform="translate(4.4 -211.9)"/><path class="cls-5" d="M73.7,265.4l14.2,8h.3l68.3,38.5h.2a.1.1,0,1,0,.2,0h.1l48.9,27.5h.2c.1,0,.2.1.2,0h.2V339a.1.1,0,0,0-.1-.1l-.2-.2L100,279h.1l3.2,1.8h.3a.1.1,0,0,0,.1-.1h-.1l-14.3-8h0l1.6.9h.4l20.5,11.4h0a.1.1,0,0,0,.1.1h.3c0-.1,0-.1-.1-.1H112L86.2,269.7h.1l44.5,24.8h0a.1.1,0,0,1,.1.1h.4c0-.1-.1-.1-.1-.2H131l-29.2-16.3L158.6,309a.1.1,0,0,0,.1.1h.3a.1.1,0,0,1,.1-.1H159c0-.1,0-.1-.1-.2a.1.1,0,0,1-.1-.1l-27.7-15.3h.2a.1.1,0,0,0-.1-.1v-.2H131L81.7,265.3l2.6,1.4h.1l53.5,29.4L76.1,261.8Z" transform="translate(4.4 -211.9)"/><path class="cls-5" d="M141.1,306.1h0l46.7,26.6h.6c0-.1-.1-.1-.1-.2h-.1l-.2-.2L83.7,272.7h.1l5.3,3h0a.1.1,0,0,0,.1.1h.3l2.4,1.3h.2L189.7,332h.5a.1.1,0,0,0,.1-.1h0v-.2h-.1c0-.1-.1-.1-.2-.2L73.6,265.5l-.9,1.4Z" transform="translate(4.4 -211.9)"/><path class="cls-9" d="M43.3,250h-.1L24,239.1h-.3l17.8,10.2h0l-24.6-14h0l-.7.8,21,12.1h-.1l-21-12.1-.2.4,33.6,19.5L15.8,237.1h-.1l-.2.3,8,4.7-8-4.7-.4.4,11.9,7h0l-9.7-5.6h-.2a.1.1,0,0,0-.1.1h0c-.1.1-.1.1,0,.1h.1l23.1,13.6h-.1L14.7,238.3l-.4.6,29.8,17.6h0L31.3,249H31l-16.9-9.9h0l-.2.2,169,100.2h0v-.2h-.1c0-.1-.1-.1-.1-.2L61.5,267.5h0l20.6,12.1h.1a.1.1,0,0,0,.2,0h.1l25.7,15.1h.4a.1.1,0,0,0,.1-.1h0c-.1,0-.1,0-.1-.1h-.1l-10-5.9h0l32.1,18.8h.5l2.2,1.3h.5v-.2a.1.1,0,0,1-.1-.1h-.1l-16.3-9.5h.1a.1.1,0,0,0,.1-.1h-.1a.1.1,0,0,0-.1-.1h-.1L88.8,281h.1l16.9,9.8h.4a.1.1,0,0,1,.1-.1h0a.1.1,0,0,0-.1-.1h-.1l-24-13.9,27.6,15.8h.4a.1.1,0,0,1,.1-.1h0a.1.1,0,0,1-.1-.1H110L91.8,281.2l57.8,33.3h.5v-.2h-.3L90.3,279.6h0l-3.5-2h0l28.9,16.6h.4l85.1,48.8h.6v-.2a.1.1,0,0,0-.1-.1c0-.1-.1-.1-.1-.2h-.2L69.9,266.2H70l11.8,6.6h.3l58.6,33.4h.4L72.7,266.9Z" transform="translate(4.4 -211.9)"/><path class="cls-5" d="M13.8,239.5H14l31.9,18.8h0L26.5,247.5h-.3l-12.8-7.6-.3.4L47.9,261h0L13.1,240.3l-.6.7,13.1,7.8h0L46,261.4h-.1a.1.1,0,0,1,.1.1l13.9,8.3h0L37.2,256.7h-.4L11.9,241.8l-.3.3,33,20h-.1L33,255.3h-.1a.1.1,0,0,0-.1-.1.1.1,0,0,1-.1.1h-.1l-12.9-7.8h-.3L39.3,260h-.1L32.3,256H32L10.8,243.1l-.4.4,166.4,102h-.1a.1.1,0,0,1-.1-.1h-.2L126,314.3h-.2L90.5,292.3l16.9,10.2h.4l27.8,16.8h.5V319h-.2L85.2,288.1l54,32.6h.5l18.4,11a.1.1,0,0,0,.1.1h.3a.1.1,0,0,0,.1-.1h0v-.2h-.3l-52.5-31.7h.1v-.2h-.1c-.1,0-.1,0-.1-.1h0L86.5,287.2h.1l15.5,9.3h.3c.1,0,.1,0,.1-.1h0l8.7,5.2h.5c-.1-.1-.1-.1-.1-.2h-.1l-6.8-4,84.7,50.5h.6c0-.1-.1-.1-.1-.2h-.1l-.2-.2-60.5-36.1h.1v-.2H129a.1.1,0,0,0-.1-.1h0l-23.8-14.2,4.8,2.9h.2a.1.1,0,1,0,.2,0h.1L133,312.1h.5l9,5.3h.4a.1.1,0,0,0,.1-.1h0l8.2,4.8h.6c0-.1-.1-.1-.1-.2h-.2l-42.9-25.4,73.8,43.4a.1.1,0,0,0,.1.1h.3a.1.1,0,0,0,.1-.1L13.9,239.3Z" transform="translate(4.4 -211.9)"/><path class="cls-9" d="M10.1,244l-.2.2,37.2,22.9H47L17.6,249.2H17l-7.6-4.6H9.3l-.2.2,31.1,19.2h-.1L16.6,250h-.3l6.1,3.7h-.1L8.5,245.9l-.5.5-.2.3,5.7,3.5h0l-5.9-3.7h0l-.3.3,16.2,10.1L7.3,247.3l-.5.6,134.8,85.4a.1.1,0,0,0-.1-.1h-.2l-38.1-24.2h-.1a.1.1,0,0,0-.1-.1h0L81,294.6h.1l35.5,22.3h.4c.1,0,.1,0,.1-.1h-.2l-28-17.6h0a.1.1,0,0,0,0-.2h-.1L68.6,285.5h0l70.6,44.1h.5c0-.1,0-.1-.1-.2a.1.1,0,0,0-.1-.1h-.1L95.6,301.7h-.2l-35-21.8h.1l101.2,62.9h.5V342h0c0-.1-.1-.1-.1-.2h-.2l-43.5-27.1h0l19.8,12.3h.4a.1.1,0,0,0,.1-.1h0v-.2h-.2L69.2,283.3h0l6.3,3.9h.3a.1.1,0,0,0,.1-.1h0l22.3,13.6h.4a.1.1,0,0,0,.1-.1c0-.1,0-.1-.1-.1h-.2l-10.3-6.4h.1l18.9,11.6h.5l62.6,38.4h.6v-.2h-.1c0-.1-.1-.1-.1-.2h-.2l-18-11.1h0s.1,0,0-.1h0c0-.1-.1-.1-.1-.2h-.2l-51-31.3h0a.1.1,0,0,0,.1-.1h0l75,45.8h.6L10.4,243.5Z" transform="translate(4.4 -211.9)"/><path class="cls-5" d="M6.8,248l6.2,3.9h-.1L6.7,248l-.5.6,4.3,2.7h-.1l-4.3-2.7h0l-.5.5L18,257.2h-.2L5.5,249.5l-.4.4v.2l1,.6H6l2.3,1.5h0l9.8,6.3L6.8,252H6.4l-2-1.2-.2.3L33.4,270h-.5L5.6,252.5H5.3l-1.6-1-.3.4,7,4.5h-.1a.1.1,0,0,0,.1.1l9.1,6h0L3.2,252.2h0l101.3,66.4h0c-.1,0-.1,0-.1-.1h-.2L50.1,283h0l96.1,62.3h.4c.1,0,.1,0,.1-.1h0v-.2h-.2L90.6,308.4h.1l15.2,9.9h.4c0-.1,0-.1-.1-.1l-4.7-3.1,51,32.8c0,.1.1.1.2.1h.2a.1.1,0,0,0,.1-.1h0v-.2h-.1l-.2-.2L67.2,291.6l71.4,45.9h.4a.1.1,0,0,0,.1-.1h0v-.2h-.3L95.1,308.8h-.2L64.2,288.6h-.1l-15-9.6h.1l66.7,42.5h.4a.1.1,0,0,0,.1-.1c0-.1,0-.1-.1-.2a.1.1,0,0,0-.1-.1h-.1L74.4,293.9h.1a2487910809553.7,2487910809553.7,0,0,0-.2-.2l-14-8.9,110.4,70h.5a.1.1,0,0,1,.1-.1h0a.3.3,0,0,1-.1-.2c0-.1-.1-.1-.1-.2h-.2l-60.7-38.6h.1c0-.1-.1-.1-.1-.2a.1.1,0,0,1-.1-.1l-11-7h.1v-.2H99L64.7,285.5h.1l76.3,48.1h.5L6.8,247.9Z" transform="translate(4.4 -211.9)"/><path class="cls-9" d="M2.6,253l-.8.9,11.4,7.5h-.1a.1.1,0,0,0,.1.1h0l22.4,14.8h-.1l-34-22.4-.3.4-.4.4,22.6,15h0L.8,255.2l-.3.3L21,269.3h-.1l-9.7-6.5h-.3a.1.1,0,0,1-.1.1h.1l.9.5h-.1L0,256.1v.2l-.5.5,152,103.1h.1v-.4h-.1l-.2-.2-6.9-4.6h0v-.2h-.2c0-.1,0-.1-.1-.1L34.4,280.1h.1l110.8,74.3h.5c.1-.1.1-.1.1-.2h-.1c0-.1,0-.1-.1-.2h-.1L78.4,308.7h.1c0-.1,0-.1-.1-.2h0a.1.1,0,0,1-.1-.1h0l-.8-.5h.1l74,49.5h.2a.1.1,0,0,0,.1.1h.3c0-.1-.1-.1-.1-.2H152l-.2-.2-37.5-25h.1a.1.1,0,0,1,.1-.1h0v-.2h-.1a.1.1,0,0,0-.1-.1L85.6,311.7h0v-.2h-.2L48.6,286.7h.1l4.3,2.9h.3c.1,0,.1,0,.1-.1l30.2,20h.2c0,.1,0,.1.1.1h.2l18.7,12.4h.4a.1.1,0,0,0,.1-.1h-.2l-12.4-8.2h.1l71.8,47.3h.6v-.2h0c-.1-.1-.1-.2-.2-.2a.1.1,0,0,0-.1-.1h0L150,351h0v-.2h-.3L70.3,298.1h.1a.1.1,0,0,0,.1-.1h0l77.1,50.5h.5a.1.1,0,0,0,.1-.1h0v-.2H148c0-.1-.1-.1-.1-.2h0L75.3,300.4h.1L104,318.9h.5L3.2,252.3Z" transform="translate(4.4 -211.9)"/><path class="cls-5" d="M-.6,256.9H-.7L15.7,268h.1l10.4,7h-.1a.1.1,0,0,0,.1.1l7.3,5h0L-1.1,257.5l-.8.9-.4.5,2.5,1.7h0l12.9,8.8H13a.1.1,0,0,0,.1.1h0l2.6,1.8h0L-2.7,259.4l-.3.4h0l.6.4h-.1l-.6-.4-.5.6,23.9,16.6h0l-24-16.5-.3.3,10.5,7.3h0L-4,261l-.4.5,110.2,77.3h0c0-.1,0-.1-.1-.2h-.1L82.5,322.1h0c0-.1,0-.1.1-.1s-.1-.1-.1-.2h-.2L50.4,299.3h0L78.9,319h.5v-.2h0a.1.1,0,0,1-.1-.1h0L39.3,290.8l45.8,31.7h.2a.1.1,0,1,0,.2,0c.1,0,.1,0,.1-.1h0l11.9,8.2H98l36.1,24.8h.5V355c0-.1-.1-.1-.1-.2h-.2L76.8,315h.1l4.7,3.2h.5l11.3,7.8h.5v-.2h-.2l-12.9-8.8a.1.1,0,0,0,.1-.1H81v-.2h-.2L56.1,299l20.3,13.8h.3c.1,0,.1,0,.1-.1h0a.1.1,0,0,0-.1-.1h-.1L40.5,287.6h.1l11.5,7.7c0,.1,0,.1.1.1h.2l94.3,64h.5V359h0v-.2h-.2L64.2,302.3h.1l74.5,50.4h.6v-.2l-.2-.2h-.1l-38.3-25.9h0L151,359.8h.4L-.6,256.8Z" transform="translate(4.4 -211.9)"/><path class="cls-10" d="M65.8,228.2h-.2a.1.1,0,0,0-.1.1h.1L90,240.3l.2-.4Z" transform="translate(4.4 -211.9)"/><path class="cls-10" d="M34.9,214l-.4.5,45.5,22h-.1L34.4,214.6l-.2.2h0L55.1,225l.5.2.6.2.5.2.5.3.5.2.4.3.5.2.4.3,14,6.8h-.1l-13.1-6.4.4.3.4.3.4.3.3.3L86,240.7h.2l2.5,1.2,1.2-1.9Z" transform="translate(4.4 -211.9)"/><path class="cls-10" d="M53.2,224.4l.5.2h.4l-9.3-4.5h-.2l7.7,3.7h.9Z" transform="translate(4.4 -211.9)"/><path class="cls-10" d="M91,237.7h0l.5.2v-.2l-4.5-2.1-12.9-6.1h0L36.6,211.9l-.4.5,19,9h-.1l-19-9-.2.2h0l11.3,5.4h0l34.3,16.3h.1l8.9,4.2,1-1.5Z" transform="translate(4.4 -211.9)"/><path class="cls-10" d="M40.1,215.5h-.2l50.3,24.2.3-.5Z" transform="translate(4.4 -211.9)"/><path class="cls-10" d="M47.7,223.9h.4l-15.2-7.4h-.1l-.2.3h.1l14.6,7.1h.4Z" transform="translate(4.4 -211.9)"/><polygon class="cls-10" points="66 22.9 66.3 23.9 67.8 24.6 68.5 24.1 66 22.9"/><path class="cls-10" d="M48.8,223.9h.4l-2.7-1.3h-.2l2,1h.5Z" transform="translate(4.4 -211.9)"/><path class="cls-10" d="M88.6,242.4l-11.9-5.7h-.3l1.6.8h0l-14.8-7.1.3.4a.5.5,0,0,1,.2.4l.3.4.2.4,8.1,3.9h0l-8-3.8v.3l.2.4.2.3c0,.2.1.3.1.4l-.2-.4-.3-.4-.3-.4a.5.5,0,0,0-.2-.4l-6.4-3.1h-.3l-6.5-3.2H48.5l18.8,9.4h-.1l-18.9-9.4H46.7l10.5,5.3h0l-10.7-5.3h-.6l15.2,7.6.3-.7.2,1,2.5,1.2,1.2-1-.5,1.4h.3l-.3-.2-.3.8,1.6.7,2.4-.5-1.4,1.1,18.1,9.1.4-.6Z" transform="translate(4.4 -211.9)"/><path class="cls-10" d="M43.9,224.5h.5L31.5,218v.2l-.3.3,12.3,6.2h.5Z" transform="translate(4.4 -211.9)"/><path class="cls-10" d="M42.6,225h.2l-8.5-4.3H34a.1.1,0,0,0-.1.1h.2l8.2,4.2h.3Z" transform="translate(4.4 -211.9)"/><path class="cls-10" d="M45.5,224.2h.9l-14.1-6.9-.4.4,1.9,1h0l-1.9-.9-.3.3,13,6.4h.9Z" transform="translate(4.4 -211.9)"/><path class="cls-10" d="M62.8,231l-.5-.5-.6-.5-7-3.4H53.2l5.4,2.7h0L53,226.3H51.8l12,5.9-.5-.5Z" transform="translate(4.4 -211.9)"/><path class="cls-10" d="M45.8,226.9h-.9l16,8,.2-.7Z" transform="translate(4.4 -211.9)"/><path class="cls-10" d="M42,229.2h-.4l13.8,7.1-.9-.9Z" transform="translate(4.4 -211.9)"/><path class="cls-10" d="M41.8,225.3h.4l-7-3.5h-.3l.8.4h0l5.7,2.9h.4Z" transform="translate(4.4 -211.9)"/><polygon class="cls-10" points="65.1 24 62.5 22.7 64.7 25.2 65.1 24"/><path class="cls-10" d="M55.9,237.2l-14.5-7.4h-.3l2.5,1.3h.1L57,238.6h.1Z" transform="translate(4.4 -211.9)"/><path class="cls-10" d="M72,241.1h-.2l13.1,6.6.3-.4Z" transform="translate(4.4 -211.9)"/><path class="cls-10" d="M38.9,227.2h.3l-10.6-5.4-.2.2-.2.2,10.5,5.4h.1A.1.1,0,0,1,38.9,227.2Z" transform="translate(4.4 -211.9)"/><polygon class="cls-10" points="73.8 28.4 71 27 69.8 27.9 73.8 28.4"/><path class="cls-10" d="M38.4,227.6h.2l-10.5-5.4h0l-.2.2,10.4,5.4h.1Z" transform="translate(4.4 -211.9)"/><polygon class="cls-10" points="69.5 26.2 68.7 25.8 68.5 26.4 69.5 26.2"/><path class="cls-10" d="M37.9,228.2H38l-10.3-5.3-.3.3,10.3,5.4h.1A.1.1,0,0,1,37.9,228.2Z" transform="translate(4.4 -211.9)"/><path class="cls-10" d="M40.1,226.2h.4l-11-5.6-.2.4h-.1l9.8,5h.1l.6.3h.2Z" transform="translate(4.4 -211.9)"/><path class="cls-10" d="M42.6,228.7H42l12.3,6.4h0l2.7,1.4,1.4.8-.2-1Z" transform="translate(4.4 -211.9)"/><path class="cls-10" d="M44.1,227.7h-.5l-.2.2a.2.2,0,0,0-.2.2l5.2,2.6h0l8.9,4.6h.1l.7.4-.5-2.1Z" transform="translate(4.4 -211.9)"/><polygon class="cls-10" points="67.2 25.1 66.5 24.7 66.7 25.5 67.2 25.1"/><polygon class="cls-10" points="66.6 32.4 66.6 32.4 66.6 32.4 66.6 32.4"/><path class="cls-10" d="M37,229.4h.1c0-.1,0-.1.1-.1l-10.4-5.4-.3.3,10.4,5.4H37Z" transform="translate(4.4 -211.9)"/><path class="cls-10" d="M37.3,229h.1l-4.8-2.4h-.2l4.8,2.5h.1Z" transform="translate(4.4 -211.9)"/><path class="cls-10" d="M56.8,241.6l-4.5-.6,2.3-.5-3.8-2h-.4l-10.7-5.7v.4a.3.3,0,0,1-.1.2h0l9.5,5.1h0l-9.5-5h0c0,.1,0,.2-.1.2v.2h.2L55.3,243l1.7-1.3Z" transform="translate(4.4 -211.9)"/><path class="cls-10" d="M36.1,231.4V231l-5.9-3.1h-.2l3.4,1.8h-.1l2.6,1.4v-.2Z" transform="translate(4.4 -211.9)"/><path class="cls-10" d="M52.4,237.9l3.6.5-15.2-7.8-.2.2h-.1c0,.1,0,.2-.1.2v.2l7.9,4.2h0c0,.1,0,.1.1.1l.7.4h0l7,3.7h.6Z" transform="translate(4.4 -211.9)"/><path class="cls-10" d="M82.5,251.8l2.4-3.7-15.1-7.5-2.6.5,6.2,3.2h-.1l-6.2-3.2-1.3.3,4.5,2.3-4.9-.8.6.7,3.3,1.7L66,243.6l2.5,2.7L64,243.9l.2.6,12.9,6.7H77l-7.1-3.7h-.3L64.3,245l.2.6,11.2,5.9-11.2-5.8.7,2.2-2.9-3.4h-.2L61,247.9l-.9-3.9L59,245l1.2.6h-.1l-1.2-.6L57,246.6l.8-2.1-1.7-.9-2.2.5,1.3-1-14.6-7.8h-.3l12.4,6.6h-.1l-13.2-7.1v.7c0,.2.1.4.1.7s.1.4.2.6a1.9,1.9,0,0,0,.2.7l24.6,13.3h0l-8-4.3h-1l-1.2.2H50.5l2.3,1.3h0L69.7,258h-.1a.1.1,0,0,1,.1.1h.1l5.3,3H75l-.7-.4h0l-26-14.3-1.4-.3-1.3-.5-1.2-.5-1.3-.7L42,244l-1-.8-1-.7-.8-.9-13.5-7.4h-.3a.1.1,0,0,0-.1.1h.1l4.4,2.5h-.1a.1.1,0,0,0,.1.1h0l38.6,21.5h-.1l-1.3-.7h-.2l-47-26-.3.4h-.1l13.4,7.5h.1l30,16.9h0l-19-10.5h-.3L18.9,233.3l-.4.5,11.7,6.6-11.8-6.6-.2.4,25.3,14.4h0l8.5,4.9L28.3,240.4H28l-10.2-5.8-.3.4L45,250.7h-.1l-1.4-.8h-.2l29.4,16.9.9-1.4-.9-.5h.1l.9.5,2.4-3.6,2.2-3.6-2.4-1.3H76l2.4,1.3.9-1.5Z" transform="translate(4.4 -211.9)"/><polygon class="cls-10" points="60.7 31.6 62.2 32.4 62.7 31.1 60.7 31.6"/><path class="cls-10" d="M36,232v-.2h0l-11-5.8v.2h-.1l11.1,6H36Z" transform="translate(4.4 -211.9)"/><path class="cls-10" d="M35.8,234.5v-1.2L24,227.1l-.2.3,4.3,2.3h0l-4.4-2.3-.2.3-.7.8,13.1,7.1a1.3,1.3,0,0,0-.1-.6Z" transform="translate(4.4 -211.9)"/><path class="cls-10" d="M36.3,237.1a12362528204812.2,12362528204812.2,0,0,1-.2-.6H36l-13.7-7.4-.4.5h0l14.7,8-.2-.3A.4.4,0,0,0,36.3,237.1Z" transform="translate(4.4 -211.9)"/><path class="cls-10" d="M37.2,239l-.3-.6-.3-.5-14.8-8.1h-.1l-.7.8L37.8,240l-.3-.5Z" transform="translate(4.4 -211.9)"/><path class="cls-10" d="M51.8,246.7l1.8.2h1.9l-15.3-8.3a.5.5,0,0,0,.2.4.5.5,0,0,0,.2.4.5.5,0,0,0,.2.4l.2.4h0l.7.9.8.9.8.8,1,.8,3.8,2.1,1.8.6Z" transform="translate(4.4 -211.9)"/><path class="cls-11" d="M58.1,226.4l-.4-.3-.5-.2-.5-.3-.5-.2-.6-.2-.5-.2,3.9,1.9-.4-.3Z" transform="translate(4.4 -211.9)"/><path class="cls-11" d="M60.6,228l-.4-.3-.4-.3-5.7-2.7h-.4l-.5-.2h-.9l9,4.4-.3-.3Z" transform="translate(4.4 -211.9)"/><path class="cls-11" d="M52.4,226.2H53l-4.9-2.4h-.8l4.5,2.2h.6Z" transform="translate(4.4 -211.9)"/><path class="cls-11" d="M53.9,226.4h.8l-5.5-2.7h-.9l4.9,2.4h.7Z" transform="translate(4.4 -211.9)"/><path class="cls-11" d="M47.5,226.5h.8l-3.9-1.9h-1l1.6.8h0l1.7.8h.8Z" transform="translate(4.4 -211.9)"/><path class="cls-11" d="M46.2,226.8h.3l-3.7-1.8h-.5l3.6,1.8h.3Z" transform="translate(4.4 -211.9)"/><path class="cls-11" d="M63.7,231.5a.5.5,0,0,0-.2-.4l-.3-.4-1.5-.7.6.5.5.5.5.5.5.5.4.3-.2-.4Z" transform="translate(4.4 -211.9)"/><path class="cls-11" d="M64.4,233l.3.4.2.4c0-.1-.1-.2-.1-.4l-.2-.3-.2-.4v-.3l-.4-.2a.5.5,0,0,1,.2.4Z" transform="translate(4.4 -211.9)"/><path class="cls-11" d="M49.6,226.2h1.1L46.4,224H44.6l3.9,2h1.1Z" transform="translate(4.4 -211.9)"/><path class="cls-11" d="M42.3,228.9h.3L39.2,227h-.3a.1.1,0,0,0-.1.1h-.1l3.3,1.7h.3Z" transform="translate(4.4 -211.9)"/><path class="cls-11" d="M41.8,229.4H42l-3.4-1.7h-.3l3.3,1.7h.2Z" transform="translate(4.4 -211.9)"/><path class="cls-11" d="M41.3,229.9h.1L38,228h-.1a.1.1,0,0,0-.1.1h-.1l3.4,1.7h.2Z" transform="translate(4.4 -211.9)"/><path class="cls-11" d="M43.6,227.9h.1L40.5,226h-.4l-.2.2h-.2l3.5,1.8a.2.2,0,0,1,.2-.2Z" transform="translate(4.4 -211.9)"/><path class="cls-11" d="M45.4,227.1h.4l-3.6-1.8h-.8l3.5,1.8h.5Z" transform="translate(4.4 -211.9)"/><path class="cls-11" d="M40.5,230.9h.1l.2-.2-3.4-1.8h-.2l3.1,1.6-3.1-1.6c-.1,0-.1,0-.1.1h-.2l3.4,1.8v-.2C40.5,231.1,40.5,231,40.5,230.9Z" transform="translate(4.4 -211.9)"/><path class="cls-11" d="M39.6,233.2v-.4L36.2,231v.4h0v.2l3.5,1.8h0A.3.3,0,0,0,39.6,233.2Z" transform="translate(4.4 -211.9)"/><path class="cls-11" d="M39.4,233.9c.1,0,.1-.1.1-.2h0L36,231.7h0v.2h.1l3.3,1.7h0Z" transform="translate(4.4 -211.9)"/><path class="cls-11" d="M53,247.1h1.3l1.2-.2H53.6l-1.8-.2-1.9-.4-1.8-.6,2.4,1.3H53Z" transform="translate(4.4 -211.9)"/><path class="cls-11" d="M40.6,239.4a.5.5,0,0,1-.2-.4.5.5,0,0,1-.2-.4l-3.9-2h-.2a12362528204812.2,12362528204812.2,0,0,0,.2.6.4.4,0,0,1,.1.3l.2.3,4.4,2.5-.2-.4A.5.5,0,0,1,40.6,239.4Z" transform="translate(4.4 -211.9)"/><path class="cls-11" d="M39.5,236.6c0-.3-.1-.5-.1-.7v-.7l-3.6-1.9v1.8a1.3,1.3,0,0,1,.1.6l4,2.2a1.9,1.9,0,0,1-.2-.7C39.6,237,39.6,236.8,39.5,236.6Z" transform="translate(4.4 -211.9)"/><path class="cls-11" d="M42.5,242l-.8-.9-.7-.9h0l-4.4-2.4.3.5.3.6.3.5.3.5,6.5,3.6-1-.8Z" transform="translate(4.4 -211.9)"/><path class="cls-11" d="M41,243.2l1,.8,1.1.6,1.3.7,1.2.5,1.3.5,1.4.3-9.1-5,.8.9Z" transform="translate(4.4 -211.9)"/><polygon class="cls-11" points="65.5 22.6 65.3 23.4 66.3 23.9 66 22.9 65.5 22.6"/><polygon class="cls-11" points="68.5 24.1 69.2 24.4 69.7 23.1 68.5 24.1"/><polygon class="cls-11" points="65.5 22.6 66 22.8 65.8 21.9 65.5 22.6"/><polygon class="cls-11" points="70.5 26 71.5 26.5 72.9 25.4 70.5 26"/><polygon class="cls-11" points="68.5 24.1 67.8 24.6 69 25.2 69.2 24.5 68.5 24.1"/><path class="cls-11" d="M70.3,243.7l-4.5-2.3,1.3-.3-8.9-4.5.2,1,3.1,1.5h-.1l-6.9-3.5.9.9,3.5,1.8h-.1l-2.9-1.5,1.2,1.4H57l7.5,3.9h-.1a.1.1,0,0,0,.1.1h0l1.5.8-.6-.7Z" transform="translate(4.4 -211.9)"/><polygon class="cls-11" points="58.8 23.5 61.4 24.9 58.7 23.5 58.8 23.5"/><polygon class="cls-11" points="73.8 28.4 69.8 27.9 71 27 69.5 26.2 68.5 26.4 68.7 25.8 67.2 25.1 66.7 25.5 66.5 24.7 65.1 24 64.7 25.2 62.5 22.7 62 22.5 62.6 24.5 71.6 29.2 74.3 28.6 73.8 28.4"/><polygon class="cls-11" points="61.2 29.7 59 28.5 56.7 29 61.2 29.7"/><polygon class="cls-11" points="72.9 34.4 70.4 31.7 60.4 26.5 56.9 25.9 61.1 28.1 60.4 28.2 68.6 32.5 68.5 32 72.9 34.4"/><path class="cls-11" d="M58.6,242h-.4c0,.1,0,.1.1.1h.1l3.8,2h0l2.3,1.2-.2-.6Z" transform="translate(4.4 -211.9)"/><polygon class="cls-11" points="68.9 33.7 66.7 32.5 69.6 35.9 68.9 33.7"/><polygon class="cls-11" points="65.5 36 66.6 32.5 61.4 29.8 59.7 31.1 60.7 31.6 62.7 31.1 62.2 32.4 63.4 33 64.5 32.1 65.5 36"/><polygon class="cls-11" points="63.3 33.1 62.2 32.5 61.4 34.6 63.3 33.1"/><polygon class="cls-11" points="60.5 31.6 59.6 31.1 58.3 32.1 60.5 31.6"/></g></g></g><image class="cls-12" width="454" height="482" transform="translate(39.6 21.5) scale(0.24)" xlink:href="bio_blue1.png"/><rect class="cls-4" x="52.7" y="43.3" width="16.7" height="8.7"/><rect class="cls-4" x="84.1" y="43.3" width="47.2" height="8.7"/><path class="cls-4" d="M61.5,248.6v21.9H83.4V248.6Zm19.1,19.1H64.4V251.4H80.6Z" transform="translate(4.4 -211.9)"/><rect class="cls-4" x="114.6" y="74.3" width="16.7" height="8.7"/><rect class="cls-4" x="52.7" y="74.3" width="47.2" height="8.7"/><path class="cls-4" d="M113.7,279.5v21.9H91.8V279.5ZM94.6,298.6h16.3V282.4H94.6Z" transform="translate(4.4 -211.9)"/><rect class="cls-4" x="52.7" y="106.7" width="16.7" height="8.7"/><rect class="cls-4" x="84.1" y="106.7" width="47.2" height="8.7"/><path class="cls-4" d="M61.5,311.9v22H83.4v-22ZM80.6,331H64.4V314.8H80.6Z" transform="translate(4.4 -211.9)"/></g></g></svg>