<svg xmlns="http://www.w3.org/2000/svg" xmlns:xlink="http://www.w3.org/1999/xlink" viewBox="0 0 223.3 157"><defs><style>.cls-1{fill:none;}.cls-2{isolation:isolate;}.cls-3{fill:#e82327;}.cls-4{fill:#fff;}.cls-5{opacity:0.29;}.cls-6{clip-path:url(#clip-path);}.cls-7{clip-path:url(#clip-path-2);}.cls-8{fill:#272870;}.cls-9{fill:#fbca0c;}.cls-10{opacity:0.75;mix-blend-mode:multiply;}</style><clipPath id="clip-path" transform="translate(-207 -223.1)"><path class="cls-1" d="M374.6,302.3a75.6,75.6,0,0,1-142.9,34.5h0a75.6,75.6,0,1,1,142.9-34.5Z"/></clipPath><clipPath id="clip-path-2" transform="translate(-207 -223.1)"><rect class="cls-1" x="215.1" y="260.9" width="213.7" height="142.49" transform="translate(143.7 -94.7) rotate(21.4)"/></clipPath></defs><title>calender_red</title><g class="cls-2"><g id="Layer_1" data-name="Layer 1"><path class="cls-3" d="M376.7,302.3a77.7,77.7,0,0,1-146.9,35.5h0a77.7,77.7,0,1,1,146.9-35.5Z" transform="translate(-207 -223.1)"/><path class="cls-4" d="M374.6,302.3a75.6,75.6,0,0,1-142.9,34.5h0a75.6,75.6,0,1,1,142.9-34.5Z" transform="translate(-207 -223.1)"/><g class="cls-5"><g class="cls-6"><g class="cls-7"><path class="cls-3" d="M315.9,255.1h.3L303,248.9v.2Z" transform="translate(-207 -223.1)"/><path class="cls-3" d="M375.2,290.2h-.3l-2.1-1.1,28,13.6h.3c0-.1-.1-.1-.2-.1l-92.6-45.1L364.6,284a.1.1,0,0,0,.1.1h.3c.1,0,.1-.1,0-.1h0a.1.1,0,0,0-.1-.1h-.1l-57.5-27.8h0l47.3,22.8h.4c.1,0,.1,0,.1-.1h0c-.1,0-.1,0-.1-.1h-.2l-40.7-19.7h.1l91.2,43.8h.4a.1.1,0,0,0,.1-.1h-.3l-26.9-13h.1a.1.1,0,0,1-.1-.1h-.2l-23.2-11.1h.1l62.1,29.8h.1a.1.1,0,0,1,.1.1h.2a.1.1,0,0,0,.1-.1h.1v-.2h-.4L371,284h.1l23,11h.4a497582161916.1,497582161916.1,0,0,1-.2-.2h0l-45-21.5L374.7,285h.5l43.2,20.5h.5l-.2-.2a.1.1,0,0,1-.1-.1l-52.8-25h.2l2.3,1h.4L421,305.5h.5v-.2h-.1a.1.1,0,0,1-.1-.1h0L302.9,249.1l-1,1.4,1.5.7-1.5-.7-.3.5,1.2.6-1.2-.6-.2.4,2.9,1.4h0l-2.9-1.4-1.3,1.9,12.7,6.2h0l62.4,30.6Z" transform="translate(-207 -223.1)"/><path class="cls-4" d="M430.3,323.6c0-.1,0-.1-.1-.2h-.3L316.6,266.6h.1l46.1,22.8h.4l63.3,31.4c0,.1.1.1.2.1h.3c0-.1,0-.1-.1-.1s0-.1-.1-.2h-.2l-8.8-4.4h.1a.1.1,0,0,0-.1-.1l-.2-.2-69.4-34.4H348l-27.8-13.8h0l27,13.2h.4a.1.1,0,0,1-.1-.1.1.1,0,0,1-.1-.1h0l-4.3-2.1h0l10.4,5.1h.5c0-.1,0-.1-.1-.1h-.2l70.1,34.4h.5c0-.1-.1-.1-.1-.2H424l-69.8-34.3h0l3.7,1.8h.3c.1,0,.1,0,.1-.1h-.2l-6.2-3a.1.1,0,0,0,.1-.1h.1l44.6,21.6h.4c0-.1,0-.1-.1-.1a.1.1,0,0,0-.1-.1l-21.7-10.6h0l-62.4-30.6h0a.1.1,0,0,1,.1.1h0L300,253.5l-3,4.6,76.3,38.6h-.1a.1.1,0,0,0-.1-.1H373l-35.6-17.9h0L423,321.3h.5c.1,0,.1,0,0-.1h-.2c0-.1-.1-.1-.1-.2L308.1,263l121.7,60.7h0a.1.1,0,0,0,.1.1h.3a.1.1,0,0,0,.1-.1h0Z" transform="translate(-207 -223.1)"/><path class="cls-3" d="M296.6,258.7l5.4,2.7h0l-5.4-2.7-.3.4,3.4,1.7h0l-3.4-1.8-2.4,3.7,59.4,31,56.4,29.2h.5c.1,0,.1,0,0-.1h0a.1.1,0,0,0-.1-.1l-.2-.2h0L302.1,266.7h0l39,20.1h.2l-10.5-5.5,41.7,21.4h.5l14.5,7.4h.2a.1.1,0,0,0,.1.1h-.1l-22.4-11.5h.1l60.7,31.1h.5v-.2h-.2c0-.1-.1-.1-.2-.1L349.9,289h.1c.1,0,.1,0,0-.1h-.1a.1.1,0,0,1-.1-.1l-4.7-2.4h.1l6.4,3.3h.4c.1,0,.1,0,.1-.1h0c-.1,0-.1,0-.1-.1h-.2l-17.6-9.1h0c0-.1.1-.1,0-.1h0c0-.1,0-.1-.1-.1a.1.1,0,0,0-.1-.1l-29.4-15,9.9,5c0,.1,0,.1.1.1h.2l92,46.7h.5v-.2h-.1a.1.1,0,0,0-.1-.1H407L338.8,281h0l-17-8.6h0l13.6,6.7h.3a.1.1,0,0,0-.1-.1h0L313,266.8h.1l59.7,30h.4a.1.1,0,0,0,.1-.1h0L297,258.1Z" transform="translate(-207 -223.1)"/><path class="cls-4" d="M290.7,267.9l27,14.5h0L412,332.6h.5v-.2h-.1c0-.1,0-.1-.1-.1l-.2-.2h0l-70.5-37.7h0a.1.1,0,0,0,.1-.1h-.1c0-.1,0-.1-.1-.1s0-.1-.1-.1l-24.3-13h.1c-.1,0-.1,0-.1-.1H317l-12.3-6.6h0l7.2,3.8h.4l41.2,21.8h.3a.1.1,0,0,1,.1-.1h.1c-.1,0-.1,0-.1-.1h-.1a.1.1,0,0,1-.1-.1l-40.4-21.4h-.2l-14.4-7.6h.1l116.9,61.8h.5v-.2h-.2L330,285.4h0l3.5,1.8h.3c.1,0,.1,0,.1-.1h0v-.2a.1.1,0,0,1-.1-.1h-.1l-13.6-7.2L384,312.9h.5c.1,0,.1-.1,0-.1h0c0-.1-.1-.1-.1-.2h-.2l-62.6-32.8h0l32.7,17h.3a.1.1,0,0,0,.1-.1h.1l44.7,23.3h.5c.1,0,.1,0,0-.1h-.1l-.2-.2-61.4-32h-.2l-34.8-18.2,10.9,5.7h.2l-3-1.6,41.9,21.6-59.4-31Z" transform="translate(-207 -223.1)"/><path class="cls-3" d="M349.3,307.3l22.8,12.5h.4a.1.1,0,0,0-.1-.1h-.1l-64.5-35.7,68.9,37.9h.1a.1.1,0,0,1,.1.1h.4v-.2a.1.1,0,0,1-.1-.1h-.1a.1.1,0,0,0-.1-.1l-35.8-19.7h0a.1.1,0,0,0-.1-.1H341l-52-28.6h0L334.4,297h.1c.1,0,.1.1.2,0h.2l14.1,7.7h.5c0-.1-.1-.1-.1-.2h-.2l-1.1-.6h0l42.5,23.2h.4c.1,0,.1,0,.1-.1h0a.1.1,0,0,0-.1-.1h-.1c0-.1-.1-.1-.1-.2l-39.3-21.4h0c0-.1-.1-.1-.1-.2a.1.1,0,0,1-.1-.1l-29.6-16.1L367.9,313h.3a.1.1,0,0,0-.1-.1l-.4-.3,51,27.6h.5v-.2H419l-.2-.2L289.7,269.4l-2.2,3.5Z" transform="translate(-207 -223.1)"/><path class="cls-3" d="M289.8,269.3,326.3,289h.5L393,324.5h.4a.1.1,0,0,1,.1-.1h0v-.2h-.3l-97-52.3h0l56.6,30.4h.4c.1,0,.1,0,.1-.1h0a.1.1,0,0,1-.1-.1H353l-39.8-21.3h.1l4.1,2.1h.3l-27-14.5Z" transform="translate(-207 -223.1)"/><path class="cls-4" d="M285.1,276.5l14.2,8h.1a.1.1,0,0,0,.1.1h.1L367.9,323h.5l49,27.6h.5a.3.3,0,0,0-.1-.2.1.1,0,0,0-.1-.1h-.2L311.4,290.1h.1l3.2,1.8h.3l-14.3-8h0l1.6.8a.1.1,0,0,1,.1.1h.2c0-.1,0-.1.1-.1l20.5,11.4h.3a.1.1,0,0,0-.1-.1h0l-25.8-14.4h.1l44.5,24.7h.4c0-.1,0-.1.1-.1h-.1c0-.1,0-.1-.1-.2h-.1l-29.2-16.3L370,320.2h.5a.1.1,0,0,0-.1-.1h-.1c0-.1-.1-.1-.1-.2l-27.7-15.3h.2a.1.1,0,0,0-.1-.1c0-.1,0-.1-.1-.1h-.1l-49.3-27.4,2.6,1.4h.2l53.4,29.5-61.8-34.4Z" transform="translate(-207 -223.1)"/><path class="cls-4" d="M352.5,317.3h0l46.7,26.7h.2c.1,0,.1.1.2,0h.2c0-.1-.1-.1-.1-.2h-.3L295.1,283.8h.1l5.3,3h.5l2.3,1.3h.2l97.7,55.2h.5c0-.1,0-.1-.1-.2a.1.1,0,0,0-.1-.1h-.2L285,276.6l-.8,1.4Z" transform="translate(-207 -223.1)"/><path class="cls-3" d="M254.7,261.1h-.1l-19.2-11h-.3l17.8,10.2h0l-24.5-13.9h-.1l-.7.7,21,12.1h-.1l-21-12-.2.3,33.6,19.5-33.7-19.4h-.1l-.2.2,8,4.7-8-4.6-.3.3,11.9,7h-.1l-9.7-5.6h-.2l23.1,13.5h-.1l-25.4-14.8-.4.6,29.8,17.6h0l-12.8-7.5h-.3l-16.9-9.9h0l-.2.2,169,100.2h0v-.2H394L272.9,278.6h0l20.6,12h.4l25.7,15.1h.3a.1.1,0,0,0,.1-.1h.1c0-.1-.1-.1-.1-.2h-.1l-10-5.9h0L342,318h.2c0,.1,0,.1.1.1h.1a.1.1,0,0,0,.1-.1h0l2.3,1.3a.1.1,0,0,0,.1.1h.3s.1-.1,0-.1h0c0-.1,0-.1-.1-.1s-.1-.1-.1-.2l-16.3-9.5h-.1l-28.4-16.6h.1l16.9,9.8h.5a497582161916.1,497582161916.1,0,0,0-.2-.2l-24-13.9,27.6,15.9h.5a.1.1,0,0,1-.1-.1h-.1l-18.2-10.5L361,325.6h.5v-.2a.1.1,0,0,1-.1-.1h-.1l-59.6-34.4h0l-3.5-2h0l28.9,16.5h.4l85.1,48.8h.5a.1.1,0,0,0,.1-.1h0c0-.1,0-.1-.1-.2a.1.1,0,0,0-.1-.1c0-.1-.1-.1-.2-.2h0L281.3,277.3h.1l11.8,6.6h.4l58.5,33.3h.4L284.2,278Z" transform="translate(-207 -223.1)"/><path class="cls-4" d="M225.2,250.6h.2l31.9,18.9h0l-19.4-11.3h0a.1.1,0,0,0-.1-.1h0c-.1,0-.1,0-.1.1h-.1L224.8,251l-.3.4,34.8,20.7h0l-34.8-20.6-.6.6L237,260h0l20.4,12.2h0l14,8.4h-.1l-22.7-13.5h-.1c-.1-.1-.1-.1-.1,0h-.2l-24.9-14.9-.3.4,33,19.9h-.1l-11.5-6.9H244l-12.9-7.8h-.4c.1,0,.1,0,.1.1h0l19.9,12.1h-.1l-6.9-4.1h-.1a.1.1,0,0,0-.1.1h-.1l-21.2-12.9-.4.5,166.4,102h0c-.1-.1-.1-.1-.1-.2h-.3l-50.4-30.8h0v-.2h-.2l-35.3-21.5,16.9,10.2h.4L347,330.5h.4a.1.1,0,0,0,.1-.1h0a.1.1,0,0,0-.1-.1V330h-.2l-50.6-30.7,54,32.6h.5l18.4,11.1h.2a.1.1,0,1,0,.2,0h.1c-.1-.1-.1-.1-.1-.2h-.2l-52.5-31.7h0a.1.1,0,0,0-.1-.1h0l-19.2-11.6h.2l15.4,9.2h.4l8.7,5.1h.3l-6.8-4.1,84.7,50.6h.4a497582161916,497582161916,0,0,0,.2-.2h0v-.2H401l-60.5-36.2h.1c0-.1,0-.1-.1-.1v-.2h-.2l-23.8-14.2,4.9,2.9h.4l22.6,13.4h.5l9,5.4h.5l8.2,4.8h.6a.1.1,0,0,0-.1-.1v-.2h-.1L320,307.2l73.8,43.5h.5l-169-100.2Z" transform="translate(-207 -223.1)"/><path class="cls-3" d="M221.5,255.1l-.2.2,37.2,22.9h-.1L229,260.3h-.6l-7.6-4.6v.2l-.2.2,31.1,19.2h-.1L228,261.2h-.3c-.1,0-.1,0-.1.1h.1l6.1,3.8h0L219.9,257l-.4.5-.3.3,5.7,3.5h0L219,258h0l-.3.3,16.2,10.2-16.2-10.1-.5.5L353,344.4h-.1a.1.1,0,0,0-.1-.1h0l-38.2-24.1h0v-.2h-.2l-22-13.8h.1L328,327.9h.5v-.2h-.2l-28-17.6h.1a.1.1,0,0,1-.1-.1h-.1L280,296.6h0l70.6,44.1a.1.1,0,0,0,.1.1h.3a.1.1,0,0,0,.1-.1h0c0-.1,0-.1-.1-.2h-.1a.1.1,0,0,0-.1-.1h0L307,312.8h0c0-.1-.1-.1-.1-.2h-.1l-35-21.8h.1l101.2,62.9h.5c.1,0,.1-.1,0-.1V353h-.1l-.2-.2-43.5-27h0l19.8,12.3a.1.1,0,0,1,.1.1h.2a.1.1,0,0,0,.1-.1h.1v-.2H350l-.2-.2h0l-69.2-42.9h0l6.3,3.9h.4l22.3,13.7h.4a.1.1,0,0,1,.1-.1h0a.1.1,0,0,0-.1-.1h-.1l-10.4-6.4h.2l18.8,11.6h.3a.1.1,0,0,1,.1-.1h.1l62.6,38.4h.6v-.2h-.1c0-.1-.1-.1-.1-.2h-.2l-18-11.1h0v-.2a.1.1,0,0,1-.1-.1h-.1c0-.1-.1-.1-.2-.2l-51-31.3h.1l75,45.8h.6l-166.4-102Z" transform="translate(-207 -223.1)"/><path class="cls-4" d="M218.2,259.1l6.2,3.9h-.1l-6.2-3.9-.4.6,4.2,2.7h-.1l-4.2-2.7h-.1l-.4.5,12.3,7.9h-.2l-12.3-7.8-.4.4v.2l1,.6h0l2.3,1.4h-.1c0,.1,0,.1.1.1l9.8,6.3-11.3-7.2h-.4l-2-1.3-.2.3,29.2,18.9h-.4L217,263.6h-.3l-1.5-1-.4.4,7,4.5h0l9.1,6h0l-16.3-10.5h0l101.3,66.4h-.2c0-.1,0-.1-.1-.1l-54.1-35.3h.1l96,62.2h.5v-.2h0c-.1-.1-.1-.1-.1-.2h-.2L302,319.5h.1l15.3,9.9h.4c0-.1.1-.1.1-.2a.1.1,0,0,1-.1-.1.1.1,0,0,0-.1-.1h-.1l-4.7-3.1,51,32.9h.5v-.2h-.3l-85.5-55.2L350,348.7h.5c0-.1-.1-.1-.1-.2h-.1l-43.8-28.2h.1a.1.1,0,0,0-.1-.1h-.2l-30.7-19.8h-.1l-15-9.6h.1l66.7,42.5a.1.1,0,0,0,.1.1h.3a.1.1,0,0,1,.1-.1h0c0-.1,0-.1-.1-.1v-.2h-.2L285.8,305h-.1l-14-8.9,110.4,70h.2c0,.1.1.1.2.1a.1.1,0,0,1,.1-.1h.1c0-.1-.1-.1-.1-.2h-.1l-.2-.2-60.7-38.6h.1c0-.1,0-.1-.1-.1a.1.1,0,0,0-.1-.1l-11-7h.1v-.2a.1.1,0,0,1-.1-.1h-.1l-34.2-21.7h0l76.3,48.1h.5L218.2,259Z" transform="translate(-207 -223.1)"/><path class="cls-3" d="M214,264.1l-.8.9,11.4,7.5h-.1c-.1,0-.1,0,0,.1h.1L247,287.7h-.1l-34-22.4-.3.4-.3.4,22.5,15h0l-22.6-14.9-.3.4,20.5,13.7h-.1l-9.7-6.5h-.2c-.1,0-.1,0-.1.1h.1l.8.5h-.1l-11.7-7.8v.2l-.5.6,152,103h.1c.1-.1.1-.1.1-.2h-.1c0-.1-.1-.1-.1-.2h-.2l-6.9-4.7h0v-.2h0v-.2h-.2L245.9,291.2h0l110.8,74.3h.6v-.2h-.1c0-.1-.1-.1-.1-.2l-67.2-45h0a.1.1,0,0,0,.1-.1h-.1a.1.1,0,0,0-.1-.1h0l-.8-.5h.1l74,49.5h.6v-.2a.1.1,0,0,0-.1-.1c0-.1,0-.2-.1-.2a.1.1,0,0,0-.1-.1l-37.5-25.1h0c.1,0,.1,0,.1-.1h0v-.2h-.2L297,322.9h0c0-.1,0-.1-.1-.2h-.1L260,297.8h.1l4.3,2.9h.4L295,320.5h.3a.1.1,0,0,0,.1-.1h.1l18.7,12.3h.5v-.2h-.2L302.1,324h.1l71.9,47.3h0a.1.1,0,0,0,.1.1h.4V371h0c-.1-.1-.1-.1-.1-.2h-.2l-12.9-8.5h0v-.2h0c0-.1-.1-.1-.1-.2h-.2l-79.4-52.2h.2L359,359.7c.1,0,.2,0,.2.1h.2a.1.1,0,0,0,.1-.1h.1a.1.1,0,0,0-.1-.1v-.2h-.1l-72.6-47.5h.1L315.4,330h.3a.1.1,0,0,1,.1-.1h.1L214.6,263.4Z" transform="translate(-207 -223.1)"/><path class="cls-4" d="M210.8,268h-.1l16.5,11.1h0l10.4,7h0l7.3,5h0l-34.6-23.4-.8,1-.4.4,2.5,1.7h0a.1.1,0,0,1-.1.1h0a.1.1,0,0,1,.1.1h0l12.9,8.9h0a.1.1,0,0,0-.1.1h.2l2.6,1.8h-.1l-18.4-12.5-.3.4h0l.6.4h0l-.7-.4-.5.6,23.9,16.6h0l-24-16.5-.3.4,10.5,7.2h0l-10.5-7.3-.4.5,110.2,77.3h0c0-.1.1-.1.1-.2h-.1c0-.1,0-.1-.1-.2H317l-23.1-16.1h.1c0-.1,0-.1-.1-.1v-.2c-.1,0-.1,0-.1-.1h0l-32-22.3h0l28.5,19.7h.4a.1.1,0,0,0,.1-.1c0-.1,0-.1-.1-.1v-.2h-.1L250.7,302l45.9,31.6h.4l11.9,8.3h.4c.1,0,.1,0,.1-.1h0l36.1,24.8c0,.1.1.1.2.1a.1.1,0,1,0,.2,0c.1,0,.1,0,.1-.1h0v-.2h-.1l-.2-.2-57.5-39.6h.1l4.7,3.2a.1.1,0,0,0,.1.1h.3a.1.1,0,0,1,.1-.1h0l11.3,7.8h.4a.1.1,0,0,0,.1-.1h0v-.2h-.2l-12.9-8.8h.2v-.2h-.1a.1.1,0,0,0-.1-.1h0l-24.6-16.9,20.2,13.8h.1a.1.1,0,0,0,.2,0h.1v-.2H288l-36.1-24.7h.1l11.5,7.8h.3l94.3,63.9h.5c.1-.1.1-.1,0-.2h0c0-.1-.1-.1-.1-.2h-.2l-82.7-56.2h.1l74.6,50.3h0a.1.1,0,0,0,.1.1h.3a.1.1,0,0,0,.1-.1h0v-.2h-.1l-.2-.2h0l-38.3-25.9h.1l50.1,33.7h0a.1.1,0,0,1,.1.1h.3l-152-103Z" transform="translate(-207 -223.1)"/><path class="cls-8" d="M277.3,239.4H277l24.4,11.7.2-.4Z" transform="translate(-207 -223.1)"/><path class="cls-8" d="M246.3,225.1l-.4.5,45.5,22h0l-45.6-21.9-.2.2h0l20.9,10.1.5.2.6.2.5.3.5.2.5.2.4.3.5.3.4.2,14,6.8h0l-13.2-6.3.4.2.4.3.4.3.3.4,24.7,12h.2l2.5,1.2,1.3-1.9Z" transform="translate(-207 -223.1)"/><path class="cls-8" d="M264.6,235.6h.9l-9.3-4.5H256l7.7,3.8h.9Z" transform="translate(-207 -223.1)"/><path class="cls-8" d="M302.4,248.8h0l.5.3v-.2l-4.5-2.2-12.9-6.1h0L248,223.1l-.4.4,19,9h-.1l-19-9v.2h-.1l11.3,5.4h0L292.9,246h.1a.1.1,0,0,0,.1.1l8.8,4.2,1-1.4Z" transform="translate(-207 -223.1)"/><path class="cls-8" d="M251.5,226.6h-.2L301.6,251l.3-.5Z" transform="translate(-207 -223.1)"/><path class="cls-8" d="M259.1,235h.4l-15.2-7.4h0l-.3.2h.1l14.6,7.2h.4Z" transform="translate(-207 -223.1)"/><polygon class="cls-8" points="66 22.9 66.3 23.9 67.8 24.6 68.5 24.1 66 22.9"/><path class="cls-8" d="M260.2,235h.4l-2.7-1.3h-.2c-.1,0-.1,0-.1.1h.1l2,1h.5Z" transform="translate(-207 -223.1)"/><path class="cls-8" d="M300,253.5l-11.9-5.7c-.1,0-.1,0-.1-.1h-.1a.1.1,0,0,0-.1.1h0l1.7.8h-.1l-14.8-7.2.3.4.2.4.3.4c.1.1.1.3.2.4l8.1,4h0l-8-3.9.2.3c0,.2.1.3.1.4s.1.2.2.4v.3l-.2-.4-.3-.4c-.1-.1-.1-.3-.2-.4l-.3-.4-6.3-3.1h-.3a.1.1,0,0,0-.1.1h0l-6.5-3.2h-2.2l18.8,9.4h-.1l-18.9-9.4h-1.6l10.5,5.2h0l-10.7-5.3h-.6l15.2,7.7.3-.8.2,1,2.5,1.2,1.2-1-.5,1.4.3.2h0l-.3-.2-.2.8,1.5.8,2.4-.6-1.4,1.1,18.1,9.1.4-.6Z" transform="translate(-207 -223.1)"/><path class="cls-8" d="M255.3,235.6h.5L243,229.1l-.2.3-.3.3,12.3,6.1h.5Z" transform="translate(-207 -223.1)"/><path class="cls-8" d="M254,236.1h.2l-8.5-4.2h-.2a.1.1,0,0,1-.1.1h.1l8.2,4.1h.3Z" transform="translate(-207 -223.1)"/><path class="cls-8" d="M256.9,235.3h.9l-14.1-6.9-.4.5,1.9.9h0l-1.9-1-.3.3,13,6.5h.9Z" transform="translate(-207 -223.1)"/><path class="cls-8" d="M274.2,242.1c-.1-.2-.3-.3-.5-.5l-.6-.5-7-3.4h-1.5l5.5,2.7H270l-5.6-2.7h-1.2l12,5.9-.5-.6C274.6,242.4,274.4,242.3,274.2,242.1Z" transform="translate(-207 -223.1)"/><path class="cls-8" d="M257.2,238h-.8l15.9,8,.2-.7Z" transform="translate(-207 -223.1)"/><path class="cls-8" d="M253.4,240.3H253l13.8,7.1-.9-1Z" transform="translate(-207 -223.1)"/><path class="cls-8" d="M253.2,236.4h.4l-7-3.5h-.3a.1.1,0,0,1-.1.1h.1l.9.4h0l5.6,2.9h.4Z" transform="translate(-207 -223.1)"/><polygon class="cls-8" points="65.1 24 62.5 22.7 64.7 25.2 65.1 24"/><path class="cls-8" d="M267.3,248.3l-14.5-7.4h-.3l2.5,1.3h0a.1.1,0,0,0,.1.1l13.3,6.9h.2Z" transform="translate(-207 -223.1)"/><path class="cls-8" d="M283.5,252.2h-.3a.1.1,0,0,0-.1.1h.1l13.1,6.6.3-.4Z" transform="translate(-207 -223.1)"/><path class="cls-8" d="M250.3,238.3a.1.1,0,0,0,.1-.1h.2L240,232.7l-.2.3h-.2l10.5,5.4h.2Z" transform="translate(-207 -223.1)"/><polygon class="cls-8" points="73.8 28.4 71 27 69.8 27.9 73.8 28.4"/><path class="cls-8" d="M249.8,238.8a.1.1,0,0,1,.1-.1h.1l-10.5-5.3h0l-.2.3,10.4,5.3h.1Z" transform="translate(-207 -223.1)"/><polygon class="cls-8" points="69.5 26.2 68.7 25.8 68.5 26.4 69.5 26.2"/><path class="cls-8" d="M249.3,239.3a.1.1,0,0,0,.1-.1h.1l-10.4-5.3-.3.3,10.4,5.4h.1Z" transform="translate(-207 -223.1)"/><path class="cls-8" d="M251.5,237.4l.2-.2h.2l-11-5.5-.2.3h-.1l9.8,5h0a.1.1,0,0,0,.1.1l.6.3h.4Z" transform="translate(-207 -223.1)"/><path class="cls-8" d="M254,239.8h-.4c-.1.1-.1.1-.1.2l12.3,6.3h-.1l2.7,1.5,1.4.7-.2-.9Z" transform="translate(-207 -223.1)"/><path class="cls-8" d="M255.6,238.8h-.3l-.3.2h-.2l-.2.2,5.2,2.7h-.1a.1.1,0,0,0,.1.1h.1l8.8,4.5h.1l.8.4-.6-2.1Z" transform="translate(-207 -223.1)"/><polygon class="cls-8" points="67.2 25.1 66.5 24.7 66.7 25.5 67.2 25.1"/><polygon class="cls-8" points="66.6 32.4 66.6 32.4 66.6 32.4 66.6 32.4"/><path class="cls-8" d="M248.5,240.5h.1l-10.4-5.4-.3.3,10.4,5.5h.2Z" transform="translate(-207 -223.1)"/><path class="cls-8" d="M248.7,240.1h.1l-4.8-2.5h-.3a.1.1,0,0,0,.1.1h0l4.8,2.5h.1Z" transform="translate(-207 -223.1)"/><path class="cls-8" d="M268.2,252.7l-4.5-.6,2.3-.5-3.8-2h-.4L251.1,244H251v.6l9.5,5h0l-9.5-5v.2h0v.4h.1a.1.1,0,0,1,.1.1h0l15.7,8.3,1.7-1.3Z" transform="translate(-207 -223.1)"/><path class="cls-8" d="M247.5,242.5v-.2a.3.3,0,0,1,.1-.2l-6-3.1h-.2l3.4,1.8h-.1a.1.1,0,0,0-.1.1h.2l2.5,1.3a.1.1,0,0,0,.1-.1Z" transform="translate(-207 -223.1)"/><path class="cls-8" d="M263.9,249l3.5.6-15.2-7.9v.2l-.2.2v.2h-.1l8,4.2h0l.7.4h.1l6.9,3.7h.7Z" transform="translate(-207 -223.1)"/><path class="cls-8" d="M293.9,262.9l2.4-3.7-15-7.5-2.7.5,6.2,3.2h0l-6.3-3.2-1.3.2,4.5,2.3-4.9-.8.6.7,3.3,1.7-3.3-1.7,2.5,2.7-4.4-2.3v.5l12.9,6.8h-.1l-7-3.7h-.1c-.1,0-.1-.1-.1,0H281l-5.2-2.7v.6l11.2,5.9-11.2-5.8.7,2.2-2.9-3.4h-.1l-1.1,3.6-1-3.9-1.1.9,1.2.7h-.1l-1.2-.6-1.9,1.5.8-2.1-1.7-.9-2.2.5,1.3-1L252,246.5h-.3l12.4,6.6H264l-13.2-7v.6a1.7,1.7,0,0,1,.1.7l.2.6a1.4,1.4,0,0,0,.2.7l24.6,13.4h0l-8-4.3a.1.1,0,0,1-.1-.1h-.9l-1.2.2h-1.2a5.6,5.6,0,0,1-1.3,0h-1.3l2.3,1.3h.1l16.8,9.3h0a.1.1,0,0,1,.1.1l5.3,2.9h-.1l-.7-.4h0l-26-14.3-1.4-.3-1.3-.5-1.2-.5-1.3-.6-1.1-.7-1-.7-.9-.8-.9-.8-13.5-7.5h-.3l4.5,2.4h-.1c-.1,0-.1,0-.1.1h.1L279.8,270h-.1l-1.3-.7h-.2l-47-26.1-.3.4h-.1l13.4,7.6h.1l30,16.8h0l-19-10.5H255l-24.7-13.8-.4.5,11.7,6.6L229.8,245l-.2.3,25.3,14.4h-.1c0,.1,0,.1.1.1h0l8.6,4.8-23.8-13.4h-.3l-10.2-5.7-.3.3,27.5,15.7h-.1l-1.3-.8h-.3L284.2,278l.8-1.4-.9-.5h.1l.9.5,2.4-3.6,2.2-3.5-2.4-1.3h.1l2.4,1.3.9-1.4Z" transform="translate(-207 -223.1)"/><polygon class="cls-8" points="60.7 31.6 62.2 32.4 62.7 31.1 60.7 31.6"/><path class="cls-8" d="M247.4,243.1h0l-11-5.9v.2h-.1l11.1,6h.1Z" transform="translate(-207 -223.1)"/><path class="cls-8" d="M247.2,245.6v-1.2l-11.7-6.2-.3.3,4.3,2.4h0l-4.4-2.3-.2.3-.7.8,13.1,7.2a1.3,1.3,0,0,0-.1-.6Z" transform="translate(-207 -223.1)"/><path class="cls-8" d="M247.7,248.3a.4.4,0,0,0-.1-.3.4.4,0,0,0-.1-.3h-.1l-13.7-7.4-.4.5h0l14.7,8.1a.4.4,0,0,1-.1-.3Z" transform="translate(-207 -223.1)"/><path class="cls-8" d="M248.6,250.1l-.3-.5-.3-.6-14.8-8.1h-.1l-.7.9,16.8,9.2-.3-.5Z" transform="translate(-207 -223.1)"/><path class="cls-8" d="M263.2,257.8l1.9.2a5.4,5.4,0,0,0,1.8,0l-15.3-8.2.2.4c0,.1.1.2.2.3s.1.3.2.4.2.3.2.4h.1l.6.9.8.9a3.4,3.4,0,0,0,.9.8l.9.8,3.8,2.1,1.8.6Z" transform="translate(-207 -223.1)"/><path class="cls-9" d="M269.5,237.5l-.4-.3-.5-.2-.5-.2-.5-.3-.6-.2-.5-.2,3.9,1.9-.4-.2Z" transform="translate(-207 -223.1)"/><path class="cls-9" d="M272,239.1l-.4-.3-.4-.2-5.7-2.8h-1.8l9,4.4-.3-.4Z" transform="translate(-207 -223.1)"/><path class="cls-9" d="M263.8,237.3h.6l-4.9-2.4h-.8l4.5,2.2h.6Z" transform="translate(-207 -223.1)"/><path class="cls-9" d="M265.4,237.5h.7l-5.5-2.7h-.9l4.9,2.4h.8Z" transform="translate(-207 -223.1)"/><path class="cls-9" d="M258.9,237.6h.8l-3.9-1.9h-1l1.7.8h-.1c-.1,0-.1,0-.1.1h.1l1.7.9h.8Z" transform="translate(-207 -223.1)"/><path class="cls-9" d="M257.6,237.9h.3l-3.7-1.8h-.5l3.6,1.8h.3Z" transform="translate(-207 -223.1)"/><path class="cls-9" d="M275.1,242.6l-.2-.4-.3-.4-1.5-.7.6.5c.2.2.4.3.5.5s.4.3.5.5l.5.6.4.2c-.1-.1-.1-.3-.2-.4Z" transform="translate(-207 -223.1)"/><path class="cls-9" d="M275.8,244.1l.3.4.2.4v-.3c-.1-.2-.1-.3-.2-.4s-.1-.2-.1-.4l-.2-.3-.4-.2.3.4C275.7,243.8,275.7,244,275.8,244.1Z" transform="translate(-207 -223.1)"/><path class="cls-9" d="M261,237.3h1.1l-4.3-2.1H256l3.9,1.9H261Z" transform="translate(-207 -223.1)"/><path class="cls-9" d="M253.7,240h.3l-3.4-1.7h-.2a.1.1,0,0,1-.1.1h-.2l3.4,1.8c0-.1,0-.1.1-.2Z" transform="translate(-207 -223.1)"/><path class="cls-9" d="M253.2,240.5h.2l-3.4-1.7h-.1a.1.1,0,0,0-.1.1h-.1l3.3,1.8h.2Z" transform="translate(-207 -223.1)"/><path class="cls-9" d="M252.7,241.1h.1l-3.3-1.8h-.1a.1.1,0,0,1-.1.1h-.1l3.3,1.7h.2Z" transform="translate(-207 -223.1)"/><path class="cls-9" d="M255,239.1l.3-.2h-.2l-3.2-1.6h-.2l-.2.2h-.4l3.5,1.8.2-.2Z" transform="translate(-207 -223.1)"/><path class="cls-9" d="M256.8,238.2h.4l-3.6-1.8h-.8l3.6,1.8h.4Z" transform="translate(-207 -223.1)"/><path class="cls-9" d="M251.9,242.1l.2-.2v-.2l-3.4-1.7h-.2l3.1,1.6-3.1-1.6h-.3l3.4,1.7h.1Z" transform="translate(-207 -223.1)"/><path class="cls-9" d="M251,244.3v-.2h.1l-3.4-1.9a.3.3,0,0,0-.1.2v.4a.1.1,0,0,1-.1.1l3.5,1.9v-.4Z" transform="translate(-207 -223.1)"/><path class="cls-9" d="M250.9,245h0v-.2l-3.5-1.8h.1l3.3,1.8V245Z" transform="translate(-207 -223.1)"/><path class="cls-9" d="M264.5,258.2h1.2l1.2-.2h0a5.4,5.4,0,0,1-1.8,0l-1.9-.2-1.9-.4-1.8-.6,2.4,1.3h1.3A5.6,5.6,0,0,0,264.5,258.2Z" transform="translate(-207 -223.1)"/><path class="cls-9" d="M252,250.5c-.1-.1-.2-.2-.2-.3l-.2-.4-3.9-2.1h-.2a.4.4,0,0,1,.1.3.4.4,0,0,1,.1.3l.2.3a.4.4,0,0,0,.1.3l4.4,2.4c0-.1-.1-.2-.2-.4S252.1,250.7,252,250.5Z" transform="translate(-207 -223.1)"/><path class="cls-9" d="M250.9,247.7a1.7,1.7,0,0,0-.1-.7v-.6l-3.6-2v1.9a1.3,1.3,0,0,1,.1.6l4,2.1a1.4,1.4,0,0,1-.2-.7Z" transform="translate(-207 -223.1)"/><path class="cls-9" d="M253.9,253.1l-.8-.9-.6-.9h-.1L248,249l.3.6.3.5.3.5.3.5,6.5,3.6-.9-.8A3.4,3.4,0,0,1,253.9,253.1Z" transform="translate(-207 -223.1)"/><path class="cls-9" d="M252.4,254.4l1,.7,1.1.7,1.3.6,1.2.5,1.3.5,1.4.3-9.1-4.9.9.8Z" transform="translate(-207 -223.1)"/><polygon class="cls-9" points="65.5 22.6 65.3 23.4 66.3 23.9 66 22.9 65.5 22.6"/><polygon class="cls-9" points="68.5 24.1 69.2 24.4 69.7 23.1 68.5 24.1"/><polygon class="cls-9" points="65.5 22.6 66 22.8 65.8 21.9 65.5 22.6"/><polygon class="cls-9" points="70.5 26 71.5 26.5 72.9 25.4 70.5 26"/><polygon class="cls-9" points="68.5 24.1 67.8 24.6 69 25.2 69.2 24.5 68.5 24.1"/><path class="cls-9" d="M281.7,254.8l-4.5-2.3,1.3-.2-8.9-4.5.2.9,3.1,1.6h-.1l-6.9-3.5.9,1,3.5,1.8h-.1l-2.9-1.5,1.3,1.4h-.2l7.5,3.9h.1l1.4.7-.6-.7Z" transform="translate(-207 -223.1)"/><polygon class="cls-9" points="58.8 23.5 61.4 24.9 58.7 23.5 58.8 23.5"/><polygon class="cls-9" points="73.8 28.4 69.8 27.9 71 27 69.5 26.2 68.5 26.4 68.7 25.8 67.2 25.1 66.7 25.5 66.5 24.7 65.1 24 64.7 25.2 62.5 22.7 62 22.5 62.6 24.5 71.6 29.2 74.3 28.6 73.8 28.4"/><polygon class="cls-9" points="61.2 29.7 59 28.5 56.7 29 61.2 29.7"/><polygon class="cls-9" points="72.9 34.4 70.4 31.7 60.4 26.5 56.9 25.9 61.1 28.1 60.4 28.2 68.6 32.5 68.5 32 72.9 34.4"/><path class="cls-9" d="M270,253.1h-.2l3.8,2h0l2.3,1.2v-.6Z" transform="translate(-207 -223.1)"/><polygon class="cls-9" points="68.9 33.7 66.7 32.5 69.6 35.9 68.9 33.7"/><polygon class="cls-9" points="65.5 36 66.6 32.5 61.4 29.8 59.7 31.1 60.7 31.6 62.7 31.1 62.2 32.4 63.4 33 64.5 32.1 65.5 36"/><polygon class="cls-9" points="63.3 33.1 62.2 32.5 61.4 34.6 63.3 33.1"/><polygon class="cls-9" points="60.5 31.6 59.6 31.1 58.3 32.1 60.5 31.6"/></g></g></g><image class="cls-10" width="451" height="468" transform="translate(44.9 26.2) scale(0.24)" xlink:href="calender_red1.png"/><rect class="cls-3" x="66.3" y="75.8" width="13.4" height="13.43"/><rect class="cls-3" x="66.3" y="94.6" width="13.4" height="13.43"/><rect class="cls-3" x="85.2" y="75.8" width="13.4" height="13.43"/><rect class="cls-3" x="85.2" y="94.6" width="13.4" height="13.43"/><rect class="cls-3" x="104.3" y="75.8" width="13.4" height="13.43"/><rect class="cls-3" x="104.3" y="94.6" width="13.4" height="13.43"/><path class="cls-3" d="M254,267.9v81.4h90V267.9ZM336.6,344H260.4V287h76.2Z" transform="translate(-207 -223.1)"/><rect class="cls-3" x="65.4" y="32.3" width="13" height="15.67"/><rect class="cls-3" x="104.2" y="32.3" width="13" height="15.67"/></g></g></svg>