<svg xmlns="http://www.w3.org/2000/svg" xmlns:xlink="http://www.w3.org/1999/xlink" viewBox="0 0 223.3 157"><defs><style>.cls-1{fill:none;}.cls-2{isolation:isolate;}.cls-3{fill:#0453a5;}.cls-4{fill:#fff;}.cls-5{opacity:0.29;}.cls-6{clip-path:url(#clip-path);}.cls-7{clip-path:url(#clip-path-2);}.cls-8{fill:#e82327;}.cls-9{fill:#272870;}.cls-10{fill:#fbca0c;}.cls-11{opacity:0.75;mix-blend-mode:multiply;}</style><clipPath id="clip-path" transform="translate(4.6 -212.6)"><path class="cls-1" d="M163,291.9A75.6,75.6,0,0,1,20.1,326.4h0A75.6,75.6,0,1,1,163,291.9Z"/></clipPath><clipPath id="clip-path-2" transform="translate(4.6 -212.6)"><rect class="cls-1" x="3.5" y="250.4" width="213.7" height="142.49" transform="translate(125.2 -18.1) rotate(21.4)"/></clipPath></defs><title>calender_yellow</title><g class="cls-2"><g id="Layer_1" data-name="Layer 1"><path class="cls-3" d="M165.2,291.9A77.8,77.8,0,0,1,18.3,327.4h0a77.7,77.7,0,1,1,146.9-35.5Z" transform="translate(4.6 -212.6)"/><path class="cls-4" d="M163,291.9A75.6,75.6,0,0,1,20.1,326.4h0A75.6,75.6,0,1,1,163,291.9Z" transform="translate(4.6 -212.6)"/><g class="cls-5"><g class="cls-6"><g class="cls-7"><path class="cls-8" d="M104.3,244.6h.3l-13.2-6.3v.2Z" transform="translate(4.6 -212.6)"/><path class="cls-8" d="M163.6,279.7h0a.1.1,0,0,1-.1-.1.1.1,0,0,1-.1-.1h0l-2.2-1,28,13.5c0,.1.1.1.2.1h.3a.1.1,0,0,0-.1-.1h-.1a.1.1,0,0,0-.1-.1L96.7,246.4,153,273.6h.5a.1.1,0,0,0-.1-.1h-.1a.1.1,0,0,0-.1-.1L95.7,245.3h.1l47.3,22.8h.3c-.1,0-.1,0-.1-.1l-40.7-19.6h.1l91.1,43.8h.5v-.2c-.1,0-.1,0-.1-.1H194l-26.9-12.9h0a.1.1,0,0,1-.1-.1h-.1l-23.2-11.2h.1L206,296.5h.1c.1,0,.1.1.2,0h.1a.1.1,0,0,0,.1-.1h-.4l-46.6-22.4h0l23,10.9h.4a.1.1,0,0,0,.1-.1h-.3l-45-21.5,25.4,12h.4a.1.1,0,0,1,.1-.1h0L206.8,295h.4a.1.1,0,0,0,.1-.1h0c.1-.1.1-.1,0-.1v-.2H207l-52.7-25.1h.1l2.3,1.1h0a.1.1,0,0,1,.1.1h.3l52.3,24.7h.5v-.2h-.3l-118.3-56-1,1.5,1.5.7-1.5-.7-.3.5,1.2.5-1.2-.5-.2.4,2.9,1.4h0L89.8,241l-1.3,1.9,12.7,6.2h0l62.4,30.5Z" transform="translate(4.6 -212.6)"/><path class="cls-4" d="M218.7,313.1a.1.1,0,0,0-.1-.1h-.3L105,256.1h.1l46.1,22.9h.4l63.3,31.4h.5V310h-.3l-8.8-4.4h0c0-.1-.1-.1-.1-.2H206l-69.4-34.4h-.1a.1.1,0,0,0-.1-.1l-27.8-13.8h0l27,13.3h.2c.1,0,.1,0,.1-.1h-.1l-4.3-2.1h0l10.4,5.1h.4a.1.1,0,0,0,.1-.1h-.2l70,34.3h.1a.1.1,0,0,0,.1.1h.3a.1.1,0,0,0,.1-.1h0c0-.1-.1-.1-.1-.2a.1.1,0,0,1-.1-.1h-.2l-69.8-34.3h0l3.8,1.8h.3c.1,0,.1,0,.1-.1h0c-.1,0-.1,0-.1-.1h-.1l-6.2-3.1h.1l44.6,21.7h.5v-.2h-.3l-21.7-10.5h0l-62.4-30.5h.1l-12.9-6.3-3,4.6,76.3,38.6h-.1c0-.1,0-.1-.1-.1s0-.1-.1-.1L125.8,268h0l85.6,42.9h.5c0-.1-.1-.1-.1-.2h-.2L96.5,252.6l121.7,60.7h.5Z" transform="translate(4.6 -212.6)"/><path class="cls-8" d="M85,248.3l5.4,2.7h0L85,248.4l-.3.4,3.4,1.7h0l-3.4-1.7-2.4,3.7,59.4,31,56.4,29.1h.6a.1.1,0,0,0-.1-.1c0-.1-.1-.1-.1-.2h-.2L90.5,256.3h0l39,20.1h.4c.1,0,.1,0,.1-.1h-.1a.1.1,0,0,0-.1-.1h-.1l-10.5-5.4L161,291.9h.4l14.5,7.5h.4c.1,0,.1,0,.1-.1h-.3l-22.4-11.6h.1l60.7,31.1h.5v-.2a.1.1,0,0,0-.1-.1c0-.1,0-.1-.1-.2h-.2l-76.3-39.1h.1a.1.1,0,0,0,.1-.1h-.1a.1.1,0,0,0-.1-.1h-.1l-4.7-2.4h.1l6.5,3.3h.3a.1.1,0,0,1-.1-.1l-17.7-9h.1a.1.1,0,0,0-.1-.1h-.2L93,254l9.9,5h.1a.1.1,0,0,0,.1.1h.1l92,46.7h.3c0-.1-.1-.1-.1-.2l-68.2-34.5h.1a.1.1,0,0,1,.1-.1h0a.1.1,0,0,1-.1-.1h-.1l-17-8.6h.1l13.5,6.8c.1,0,.1,0,.1.1h.2a.1.1,0,0,1,.1-.1h0c0-.1.1-.1,0-.1h0c0-.1,0-.1-.1-.1H124l-22.5-11.4h0l59.7,30h.5L85.4,247.7Z" transform="translate(4.6 -212.6)"/><path class="cls-4" d="M79.1,257.4l27,14.6h.1l94.2,50.3h.2a.1.1,0,0,0,.1.1h.2a.1.1,0,0,0-.1-.1v-.2h-.1L130,283.9h.1c0-.1,0-.1-.1-.1h-.2l-24.3-13h0a.1.1,0,0,1-.1-.1l-12.3-6.5h0l7.3,3.8h.3l41.2,21.8h.4a.1.1,0,0,0-.1-.1h-.1l-40.4-21.4h-.2l-14.3-7.6h0l116.9,61.7h.6c-.1-.1-.1-.1-.1-.2h-.3L118.4,275h0l3.5,1.8h.3a.1.1,0,0,1-.1-.1h0l-13.6-7.1,64,33.4h.4c0-.1,0-.1.1-.1h0c-.1-.1-.1-.1-.1-.2h-.3L110,269.1h0l32.7,17h.4a.1.1,0,0,0,.1-.1h0l44.7,23.3h.5c0-.1-.1-.1-.1-.2h-.2l-61.4-32h.1c-.1,0-.1,0-.1-.1h-.1L91.7,258.2l10.9,5.6h.4a.1.1,0,0,0,.1-.1H103c-.1,0-.1,0-.1-.1l-3.1-1.6,41.9,21.7-59.4-31Z" transform="translate(4.6 -212.6)"/><path class="cls-8" d="M137.7,296.8l22.8,12.6h.4c0-.1,0-.1-.1-.2h-.1L96.2,273.2l69,37.9h.4a.1.1,0,0,0,.1-.1h-.1c0-.1,0-.1-.1-.1h-.1l-35.8-19.7h0c0-.1,0-.1-.1-.1s0-.1-.1-.1h0l-52-28.6h.1l45.3,24.9h.4a.1.1,0,0,1,.1-.1h0l14.1,7.7h.4a.1.1,0,0,0-.1-.1h-.1l-1.1-.6h0L179,316c0,.1.1.1.2.1h.2c.1,0,.1,0,.1-.1h0l-.2-.2h-.1l-39.3-21.4h0c0-.1.1-.1,0-.2h-.2l-29.6-16.1,46.2,25h0a.1.1,0,0,0,.1.1h.3c0-.1,0-.1-.1-.2a.1.1,0,0,1-.1-.1l-.4-.2,51,27.6h.5c.1-.1.1-.1,0-.2h0l-.2-.2h-.1L78.2,258.9l-2.3,3.6Z" transform="translate(4.6 -212.6)"/><path class="cls-8" d="M78.2,258.9l36.5,19.6h.5l66.2,35.6h.5v-.2h-.1a.1.1,0,0,0-.1-.1h-.1l-97-52.3h0l56.6,30.4h.2l-39.8-21.4h.1l4.1,2.2a.1.1,0,0,0,.1.1h.2l-27-14.6Z" transform="translate(4.6 -212.6)"/><path class="cls-4" d="M73.5,266.1l14.2,8H88l68.3,38.5h.5l49,27.5c0,.1.1.1.2.1h.3c.1,0,.1-.1,0-.1v-.2h-.2c0-.1-.1-.1-.2-.2L99.8,279.7h.1l3.3,1.8h.2c.1,0,.1,0,.1-.1h0a.1.1,0,0,0-.1-.1h0l-14.3-8h0l1.6.9h.4l20.5,11.4h0a.1.1,0,0,0,.1.1h.3s.1-.1,0-.1h0c0-.1,0-.1-.1-.1h-.1L86.1,270.4h0l44.5,24.8h.5c0-.1,0-.1-.1-.2h-.2l-29.2-16.3,56.8,31.4a.1.1,0,0,0,.1.1h.4c0-.1,0-.1-.1-.1s0-.1-.1-.2h-.1L131,293.9h0v-.2h-.2L81.5,266l2.6,1.4h.2l53.4,29.4L75.9,262.5Z" transform="translate(4.6 -212.6)"/><path class="cls-4" d="M140.9,306.8h0l46.7,26.6h.5a.1.1,0,0,0,.1-.1h0c0-.1,0-.1-.1-.2a.1.1,0,0,0-.1-.1c0-.1-.1-.1-.2-.2L83.5,273.4h.1l5.3,3h.5l2.3,1.3h.2l97.7,55.2c0,.1.1.1.2.1h.2a.1.1,0,0,0,.1-.1h0v-.2h-.2c0-.1-.1-.1-.1-.2L73.5,266.2l-.9,1.4Z" transform="translate(4.6 -212.6)"/><path class="cls-8" d="M43.1,250.7H43L23.8,239.8h-.3l17.8,10.2h0l-24.5-14h-.1l-.6.8L37,249.3h-.1L16,237.3l-.3.4,33.6,19.5L15.6,237.8h-.1l-.2.3,8.1,4.7-8.1-4.7-.3.4,11.9,7h-.1l-9.7-5.6h-.2L40,253.8h-.1L14.6,239l-.5.6L44,257.2h-.1l-12.8-7.5h-.3l-16.9-9.9h0v.2L182.7,340.2h0v-.2h-.2c0-.1-.1-.1-.1-.2L61.3,268.2h0l20.6,12.1H82a.1.1,0,0,0,.2,0h.1L108,295.3h.4c.1,0,.1,0,.1-.1h0a.1.1,0,0,1-.1-.1h-.1l-10-5.9h.1l32,18.8h.4c.1,0,.1,0,.1-.1h0l2.3,1.3h.4a.1.1,0,0,0,.1-.1c0-.1-.1-.1-.1-.2h-.2l-16.3-9.5h.2a.1.1,0,0,1-.1-.1H117L88.7,281.7h0l16.9,9.8h.4a.1.1,0,0,0-.1-.1l-24-13.9,27.6,15.8h.4a.1.1,0,0,0-.1-.1h0L91.6,281.9l57.8,33.3h.6c-.1-.1-.1-.1-.1-.2h-.2L90.2,280.3h.1a.1.1,0,0,0-.1-.1h-.1l-3.5-2h.1l28.8,16.6h.4L201.1,343h.5v-.2h0l-.2-.2h-.2L69.7,266.9h.1l11.8,6.6h.3a.1.1,0,0,1,.1-.1l58.5,33.4h.4L72.6,267.6Z" transform="translate(4.6 -212.6)"/><path class="cls-4" d="M13.6,240.2h.2l31.9,18.8h0L26.3,248.2H26l-12.8-7.6-.3.4,34.8,20.7h0L12.9,241l-.6.7,13.1,7.8h0l20.4,12.2h0l14,8.3h-.1L37,257.4h-.4L11.7,242.5l-.3.3,33,20h-.1L32.8,256h-.4l-12.9-7.8h-.3l19.9,12.1h0l-7-4.1h-.3L10.6,243.8l-.4.4,166.4,102h0c-.1,0-.1,0-.1-.1h-.2L125.8,315h-.1a.1.1,0,0,0-.1-.1L90.3,293l16.9,10.2h.4L135.4,320a.1.1,0,0,0,.1.1h.4v-.2h-.3L85,288.8l54,32.6h.6l18.3,11h.4a.1.1,0,0,0,.1-.1h0v-.2h-.3L105.6,300h.1v-.2a2487910809617.3,2487910809617.3,0,0,1-.2-.2h0L86.4,287.9h.1l15.4,9.3h.3a.1.1,0,0,1,.1-.1h.1L111,302h.4a.1.1,0,0,1,.1-.1h0c0-.1-.1-.1-.1-.2a.1.1,0,0,1-.1-.1l-6.8-4L189.2,348h.5c.1,0,.1,0,.1-.1h0v-.2h-.1c0-.1-.1-.1-.2-.2l-60.5-36.1h.1v-.2h-.3l-23.8-14.2,4.9,2.9h.2a.1.1,0,0,0,.1-.1h.1l22.6,13.5h.4a.1.1,0,0,0,.1-.1h0l9.1,5.3h0a.1.1,0,0,0,.1.1h.4l8.2,4.8a.1.1,0,0,0,.1.1h.4c0-.1,0-.1-.1-.2h-.2l-42.9-25.4,73.8,43.4c0,.1.1.1.2.1h.2c.1,0,.1,0,.1-.1L13.8,240Z" transform="translate(4.6 -212.6)"/><path class="cls-8" d="M9.9,244.7l-.2.2,37.2,22.9h-.1L17.4,249.9h-.6l-7.6-4.6H9.1l-.2.2L40,265h-.1L16.4,250.7h-.3l6.1,3.7h0L8.3,246.6l-.4.5-.3.3,5.7,3.5h-.1a.1.1,0,0,1,.1.1l-5.9-3.7h0l-.3.3,16.2,10.1L7.1,248l-.5.6L141.4,334h-.2L103,309.6h-.1a.1.1,0,0,0-.1-.1h0L80.9,295.3H81l35.4,22.3h.2a.1.1,0,0,0,.1.1c.1,0,.1,0,.1-.1s.1,0,.1-.1h-.1a.1.1,0,0,0-.1-.1l-28-17.6h.1a1658607206407.4,1658607206407.4,0,0,0-.2-.2h0L68.4,286.2h0L139,330.3h.5V330a.1.1,0,0,1-.1-.1h-.2L95.4,302.4h-.2l-35-21.8h.1l101.2,62.9h.5c.1-.1.1-.1.1-.2H162c0-.1-.1-.1-.1-.2h-.2l-43.5-27.1h0L138,327.5h.4c.1,0,.1,0,.1-.1h0c0-.1-.1-.1-.1-.2h-.2L69,284h0l6.3,3.9h.5L98,301.3h.4a.1.1,0,0,0-.1-.1L88,294.5h.1L106.9,306h.5L170,344.3h.6v-.2a.1.1,0,0,0-.1-.1c0-.1,0-.1-.1-.2h-.2l-18-11.1h0c0-.1,0-.1-.1-.2H152l-51.1-31.3h.1l75.1,45.8a.1.1,0,0,0,.1.1h.3a.1.1,0,0,0,.1-.1h0L10.2,244.2Z" transform="translate(4.6 -212.6)"/><path class="cls-4" d="M6.6,248.7l6.2,3.9h-.1l-6.2-3.9-.4.6,4.2,2.7h-.1L6,249.4H5.9l-.4.5,12.3,7.9h-.2L5.3,250.2l-.3.4-.2.2,1,.6h0l2.3,1.5h0l9.8,6.3L6.6,252.7H6.3l-2-1.2-.3.3,29.3,18.9h-.5L5.5,253.2H5.2a.1.1,0,0,0-.1.1h0l-1.5-1-.3.4,6.9,4.5h0l9.1,6h0L3,252.9H3l101.3,66.4h-.1c-.1,0-.1,0-.1-.1L49.9,283.7H50L146,346h.2a.1.1,0,0,0,.1.1c.1,0,.1,0,.1-.1s.1,0,.1-.1h0v-.2h-.2L90.4,309.1h.1l15.3,9.9h.4c.1,0,.1,0,.1-.1H106l-4.7-3.1,51,32.8h.5a.1.1,0,0,0,.1-.1v-.2h-.1l-.2-.2L67.1,292.3l71.3,45.9h.6c0-.1-.1-.1-.1-.2h-.1a.1.1,0,0,0-.1-.1L94.9,309.5h-.1L64,289.3h0a.1.1,0,0,0,.1-.1H64a.1.1,0,0,0-.1-.1L49,279.3h0l66.7,42.5h.5v-.2a.1.1,0,0,1-.1-.1h-.2L74.2,294.6h0l-14.1-8.9,110.4,70h.6c0-.1,0-.2-.1-.2s-.1-.1-.1-.2h-.2L110,316h.1v-.2h-.1l-11-7H99v-.2h0a.1.1,0,0,0-.1-.1h-.1L64.6,286.2h.1l76.2,48.1h.5a.1.1,0,0,0,.1-.1h-.1L6.6,248.6Z" transform="translate(4.6 -212.6)"/><path class="cls-8" d="M2.4,253.7l-.8.9L13,262.1h-.1a.1.1,0,0,0,.1.1h0l22.4,14.8h-.1L1.3,255l-.3.4-.3.4,22.5,15h0L.6,255.9l-.3.4L20.9,270h-.1c-.1,0-.1,0-.1.1L11,263.6h-.2l.8.5h-.1L-.1,256.8l-.2.2-.5.5,152,103.1h.2v-.4h-.1c0-.1-.1-.1-.2-.2l-6.9-4.6h0v-.2h-.3L34.3,280.8h0l110.8,74.3h.6v-.2h-.1c0-.1,0-.1-.1-.2h-.1L78.2,309.4h.1v-.2a1658607206405.1,1658607206405.1,0,0,0-.2-.2h0l-.7-.5h0l74,49.5h.4a.1.1,0,0,0,.1-.1h.1v-.2a.1.1,0,0,0-.1-.1c0-.1-.1-.1-.1-.2l-37.5-25h.1v-.2h-.2L85.4,312.4h.1c0-.1-.1-.1-.1-.2h0c-.1,0-.1,0-.1-.1h-.1L48.4,287.4h.1l4.3,2.9h.4l30.3,20h.3c.1,0,.1,0,.1-.1h0l18.7,12.4h.4c.1,0,.1,0,.1-.1h0a.1.1,0,0,0-.1-.1h-.1l-12.4-8.2h.1l71.9,47.3h.5c0-.1.1-.1,0-.2h0a.3.3,0,0,0-.1-.2h-.2l-12.9-8.5h0a.1.1,0,0,0,.1-.1v-.2h-.3L70.1,298.8h.2l77.2,50.5a.1.1,0,0,0,.1.1h.3c.1,0,.1,0,.1-.1h0v-.2h-.1l-.2-.2h0L75.2,301.1h.1l28.5,18.6h.4a.1.1,0,0,0,.1-.1h0L3,253Z" transform="translate(4.6 -212.6)"/><path class="cls-4" d="M-.8,257.6H-.9l16.5,11.1h-.1c0,.1,0,.1.1.1h0l10.4,7h0l7.4,5h-.1L-1.3,258.2l-.8.9-.4.5L0,261.3H0c-.1,0-.1,0-.1.1H0l12.9,8.8h0c-.1.1-.1.1,0,.1h0a.1.1,0,0,0,.1.1h0l2.6,1.8h-.1L-2.9,260.1l-.3.4h0l.6.4h0l-.7-.4-.5.6,24,16.6h-.1l-24-16.5-.3.3,10.5,7.3h0l-10.5-7.2-.4.5,110.2,77.3h.1a.1.1,0,0,0-.1-.1V339a.1.1,0,0,0-.1-.1L82.3,322.8h.1v-.2c-.1,0-.1,0-.1-.1h-.1L50.2,300h0l28.5,19.7h.4c0-.1,0-.1.1-.1h0v-.2H79L39.1,291.5,85,323.2h.4l12,8.2h.5l36,24.8h.4a.1.1,0,0,0,.1-.1s.1-.1,0-.1v-.2c0-.1-.1-.1-.1-.2a.1.1,0,0,1-.1-.1L76.6,315.7h.1l4.7,3.2h.5l11.3,7.8h.5v-.2h-.1c0-.1,0-.1-.1-.1l-12.8-8.8h.1v-.2h0a.1.1,0,0,0-.1-.1h-.1L56,299.7l20.2,13.8h.3c.1,0,.1,0,.1-.1h-.1L40.3,288.3h.1l11.5,7.7a.1.1,0,0,0,.1.1h.3l94.2,64h.5c.1-.1.1-.1.1-.2H147a.3.3,0,0,0-.1-.2h-.2L64,303h.1l74.6,50.4h.5V353c0-.1-.1-.1-.1-.2h-.2l-38.3-25.9h.1l50.1,33.8h.4L-.8,257.5Z" transform="translate(4.6 -212.6)"/><path class="cls-9" d="M65.7,228.9h-.3L89.8,241l.2-.4Z" transform="translate(4.6 -212.6)"/><path class="cls-9" d="M34.7,214.7l-.4.5,45.5,22h0L34.2,215.3v.2H34l20.9,10.1.6.2.5.2.5.2.5.3.5.2.5.3.4.2.5.3,13.9,6.8h0l-13.2-6.4.4.3.4.3.4.3.3.3,24.8,12.1H86l2.5,1.2,1.3-1.9Z" transform="translate(4.6 -212.6)"/><path class="cls-9" d="M53,225.1l.5.2H54l-9.4-4.5h-.2l7.7,3.7H53Z" transform="translate(4.6 -212.6)"/><path class="cls-9" d="M90.8,238.4h0l.5.2v-.2l-4.5-2.1L74,230.2h0L36.4,212.6l-.4.5,19,9h0l-19.1-9v.2h-.1L47,218.9h.1l34.3,16.3h.1l8.8,4.2,1-1.5Z" transform="translate(4.6 -212.6)"/><path class="cls-9" d="M39.9,216.2h-.2L90,240.6l.3-.5Z" transform="translate(4.6 -212.6)"/><path class="cls-9" d="M47.5,224.6H48l-15.2-7.4h-.1l-.2.3h0l14.6,7.1h.4Z" transform="translate(4.6 -212.6)"/><polygon class="cls-9" points="66 22.9 66.3 23.9 67.8 24.6 68.5 24.1 66 22.9"/><path class="cls-9" d="M48.6,224.6H49l-2.7-1.3h-.2l2,1h.5Z" transform="translate(4.6 -212.6)"/><path class="cls-9" d="M88.4,243.1l-11.9-5.7h-.2l1.6.8h-.1L63,231.4l.3.4.3.4c0,.1.1.2.2.4a.5.5,0,0,1,.2.4l8.1,3.9h0l-8-3.8.2.3c0,.1.1.3.1.4l.2.3a.8.8,0,0,1,.1.4l-.2-.4a.8.8,0,0,1-.2-.4l-.3-.4-.3-.4-6.3-3.1H57l-6.5-3.2H48.3l18.8,9.4H67L48.1,227H46.5l10.6,5.3H57l-10.7-5.3h-.6l15.2,7.6.3-.7.2,1,2.5,1.2,1.2-1-.5,1.4h.3l-.3-.2-.2.8,1.5.7,2.4-.5-1.4,1.1L85,248.3l.4-.6Z" transform="translate(4.6 -212.6)"/><path class="cls-9" d="M43.7,225.2h.5l-12.8-6.4-.2.2-.3.3,12.3,6.2h.5Z" transform="translate(4.6 -212.6)"/><path class="cls-9" d="M42.4,225.7h.2l-8.5-4.3h-.2l8.2,4.2h.3Z" transform="translate(4.6 -212.6)"/><path class="cls-9" d="M45.3,224.9h1l-14.2-6.9-.3.5,1.9.9h-.1l-1.9-.9-.2.3L44.4,225h.9Z" transform="translate(4.6 -212.6)"/><path class="cls-9" d="M62.6,231.7l-.5-.5-.5-.5-7.1-3.4H53l5.5,2.7h-.1L52.8,227H51.6l12,5.9-.5-.5Z" transform="translate(4.6 -212.6)"/><path class="cls-9" d="M45.6,227.6h-.8l15.9,8,.2-.7Z" transform="translate(4.6 -212.6)"/><path class="cls-9" d="M41.8,229.9h-.3l13.7,7.1-.9-.9Z" transform="translate(4.6 -212.6)"/><path class="cls-9" d="M41.6,226H42l-7-3.5h-.3l.9.4h0l5.6,2.9h.4Z" transform="translate(4.6 -212.6)"/><polygon class="cls-9" points="65.1 24 62.5 22.7 64.7 25.2 65.1 24"/><path class="cls-9" d="M55.7,237.9l-14.5-7.4H41c0,.1,0,.1-.1.1l2.5,1.3h.1l13.3,6.9H57Z" transform="translate(4.6 -212.6)"/><path class="cls-9" d="M71.9,241.8h-.3l13.1,6.6.3-.4Z" transform="translate(4.6 -212.6)"/><path class="cls-9" d="M38.7,227.9H39l-10.6-5.4-.2.2-.2.2,10.5,5.4h.2Z" transform="translate(4.6 -212.6)"/><polygon class="cls-9" points="73.8 28.4 71 27 69.8 27.9 73.8 28.4"/><path class="cls-9" d="M38.2,228.3h.1a.1.1,0,0,1,.1-.1L28,222.8h-.1l-.2.2,10.4,5.4h.1Z" transform="translate(4.6 -212.6)"/><polygon class="cls-9" points="69.5 26.2 68.7 25.8 68.5 26.4 69.5 26.2"/><path class="cls-9" d="M37.7,228.9h.1a.1.1,0,0,1,.1-.1l-10.4-5.3-.3.3,10.4,5.4h.1Z" transform="translate(4.6 -212.6)"/><path class="cls-9" d="M39.9,226.9h.4l-10.9-5.6-.3.4H29l9.8,5h.1l.6.3h.2Z" transform="translate(4.6 -212.6)"/><path class="cls-9" d="M42.4,229.4H42a.1.1,0,0,1-.1.1l12.3,6.4h-.1l2.7,1.4,1.5.8-.3-1Z" transform="translate(4.6 -212.6)"/><path class="cls-9" d="M44,228.4h-.5l-.3.2-.2.2,5.2,2.6h.1l8.8,4.6h.1l.8.4-.6-2.1Z" transform="translate(4.6 -212.6)"/><polygon class="cls-9" points="67.2 25.1 66.5 24.7 66.7 25.5 67.2 25.1"/><polygon class="cls-9" points="66.6 32.4 66.6 32.4 66.6 32.4 66.6 32.4"/><path class="cls-9" d="M36.9,230.1H37l-10.4-5.4-.3.3,10.5,5.4h.1Z" transform="translate(4.6 -212.6)"/><path class="cls-9" d="M37.1,229.7h.1l-4.8-2.4h-.2l4.8,2.5h.1Z" transform="translate(4.6 -212.6)"/><path class="cls-9" d="M56.6,242.3l-4.5-.6,2.4-.5-3.9-2h-.3l-10.8-5.7v.6h-.1l9.5,5.1h0l-9.5-5h0v.4h.2l15.7,8.3,1.7-1.3Z" transform="translate(4.6 -212.6)"/><path class="cls-9" d="M36,232.1v-.4l-6-3.1h-.2l3.4,1.8h-.1c-.1.1-.1.1,0,.1h.1l2.6,1.4v-.2Z" transform="translate(4.6 -212.6)"/><path class="cls-9" d="M52.3,238.6l3.5.5-15.2-7.8v.2h-.1l-.2.2c0,.1,0,.2-.1.2l8,4.2h0l.7.4h.1l6.9,3.7h.7Z" transform="translate(4.6 -212.6)"/><path class="cls-9" d="M82.3,252.5l2.4-3.7-15-7.5-2.7.5,6.2,3.2h0l-6.3-3.2-1.2.3,4.4,2.3-4.9-.8.6.7,3.3,1.7-3.3-1.7,2.5,2.7-4.4-2.4v.6l12.9,6.7h-.1l-7-3.7h-.4l-5.2-2.7v.6l11.2,5.9-11.1-5.8.6,2.2-2.9-3.4H62l-1.1,3.5-1-3.9-1.1,1,1.2.6h-.1l-1.2-.6-1.9,1.5.8-2.1-1.7-.9-2.2.5,1.3-1L40.4,236h-.2L52.5,243h-.1l-13.2-7.1v.7a1.5,1.5,0,0,1,.1.7c.1.2.1.4.2.6s.1.5.2.7l24.7,13.3h-.1l-8-4.3h-1l-1.2.2H50.3l2.3,1.3h-.1a.1.1,0,0,1,.1.1h.1l16.8,9.4h0a.1.1,0,0,0-.1.1h.2l5.3,3h0l-.8-.4h0l-26-14.3-1.3-.3-1.3-.5-1.3-.5-1.3-.7-1.1-.6-1-.8-.9-.7-.9-.9-13.5-7.4h-.3l4.5,2.5h0l38.6,21.5h-.1l-1.3-.7a.1.1,0,0,1-.1-.1h-.2l-46.9-26-.4.4h-.1l13.4,7.5h.1l30,16.9h0L43.8,247.8h-.3a.1.1,0,0,1-.1.1L18.8,234l-.5.5L30,241.1l-11.7-6.6-.3.4,25.3,14.4h.1l8.5,4.9L28.1,241.1h-.3l-10.2-5.8-.3.4,27.5,15.7h-.1l-1.3-.8h-.3l29.5,16.9.9-1.4-1-.5h.1l.9.5,2.4-3.6,2.3-3.6-2.5-1.3h.1l2.4,1.3.9-1.5Z" transform="translate(4.6 -212.6)"/><polygon class="cls-9" points="60.7 31.6 62.2 32.4 62.7 31.1 60.7 31.6"/><path class="cls-9" d="M35.8,232.7v-.2h0l-11-5.8v.2h-.1l11.1,6h.1Z" transform="translate(4.6 -212.6)"/><path class="cls-9" d="M35.6,235.2V234l-11.7-6.2-.3.3,4.4,2.3h-.1l-4.4-2.3-.2.3-.7.8,13.2,7.1a1.3,1.3,0,0,1-.1-.6A1.3,1.3,0,0,1,35.6,235.2Z" transform="translate(4.6 -212.6)"/><path class="cls-9" d="M36.2,237.8l-.2-.3v-.3h-.2l-13.7-7.4-.4.5h0l14.7,8a12362528204868.7,12362528204868.7,0,0,0-.2-.6Z" transform="translate(4.6 -212.6)"/><path class="cls-9" d="M37,239.7l-.3-.6a.8.8,0,0,1-.2-.5l-14.9-8.1h0l-.8.8,16.9,9.3-.4-.5Z" transform="translate(4.6 -212.6)"/><path class="cls-9" d="M51.6,247.4l1.9.2h1.8L40,239.3l.2.4c.1.2.1.3.2.4l.2.4.3.4h0l.6.9.8.9.9.8.9.8,3.8,2.1,1.8.6Z" transform="translate(4.6 -212.6)"/><path class="cls-10" d="M58,227.1l-.5-.3-.5-.2-.5-.3-.5-.2-.5-.2-.6-.2,4,1.9-.5-.3Z" transform="translate(4.6 -212.6)"/><path class="cls-10" d="M60.4,228.7l-.4-.3-.4-.3L54,225.4h-.5l-.5-.2h-.9l9,4.4-.3-.3Z" transform="translate(4.6 -212.6)"/><path class="cls-10" d="M52.2,226.9h.6L48,224.6h-.9l4.5,2.2h.6Z" transform="translate(4.6 -212.6)"/><path class="cls-10" d="M53.8,227.1h.7L49,224.6h-.9L53,227h.8Z" transform="translate(4.6 -212.6)"/><path class="cls-10" d="M47.3,227.2h.8l-3.9-1.9h-1l1.7.8h0l1.6.8h.8Z" transform="translate(4.6 -212.6)"/><path class="cls-10" d="M46,227.5h.3l-3.7-1.8h-.5l3.6,1.8H46Z" transform="translate(4.6 -212.6)"/><path class="cls-10" d="M63.6,232.2l-.3-.4-.3-.4-1.4-.7.5.5.5.5.5.5.5.5.4.3a.5.5,0,0,0-.2-.4C63.7,232.4,63.6,232.3,63.6,232.2Z" transform="translate(4.6 -212.6)"/><path class="cls-10" d="M64.3,233.7a.8.8,0,0,0,.2.4l.2.4a.8.8,0,0,0-.1-.4l-.2-.3c0-.1-.1-.3-.1-.4l-.2-.3-.4-.2.3.4Z" transform="translate(4.6 -212.6)"/><path class="cls-10" d="M49.4,226.9h1.1l-4.2-2.1H44.4l3.9,2h1.1Z" transform="translate(4.6 -212.6)"/><path class="cls-10" d="M42.1,229.6h.3L39,227.7h-.5l3.4,1.7a.1.1,0,0,0,.1-.1Z" transform="translate(4.6 -212.6)"/><path class="cls-10" d="M41.6,230.1h.2l-3.4-1.7a.1.1,0,0,0-.1.1h-.2l3.4,1.7h.1Z" transform="translate(4.6 -212.6)"/><path class="cls-10" d="M41.1,230.6h.1l-3.3-1.8a.1.1,0,0,0-.1.1h-.2l3.3,1.7c.1,0,.1,0,.1-.1Z" transform="translate(4.6 -212.6)"/><path class="cls-10" d="M43.5,228.6h0l-3.2-1.6h-.4l-.2.2h-.2L43,229l.2-.2Z" transform="translate(4.6 -212.6)"/><path class="cls-10" d="M45.2,227.8h.4L42,225.8h-.8l3.6,1.8h.4Z" transform="translate(4.6 -212.6)"/><path class="cls-10" d="M40.4,231.6h.1v-.2l-3.4-1.8H37l3.1,1.6L37,229.9h-.2l3.3,1.8c.1,0,.1-.1.1-.2Z" transform="translate(4.6 -212.6)"/><path class="cls-10" d="M39.4,233.9v-.4l-3.4-1.8v.4h-.1v.2l3.4,1.8h.1Z" transform="translate(4.6 -212.6)"/><path class="cls-10" d="M39.3,234.6v-.2h0l-3.5-1.9h0v.2h.1l3.3,1.7h0Z" transform="translate(4.6 -212.6)"/><path class="cls-10" d="M52.9,247.8h1.2l1.2-.2H53.5l-1.9-.2-1.9-.4-1.8-.6,2.4,1.3h2.6Z" transform="translate(4.6 -212.6)"/><path class="cls-10" d="M40.4,240.1c-.1-.1-.1-.2-.2-.4l-.2-.4-3.9-2H36v.3l.2.3a12362528204868.7,12362528204868.7,0,0,1,.2.6l4.5,2.5-.3-.4Z" transform="translate(4.6 -212.6)"/><path class="cls-10" d="M39.3,237.3a1.5,1.5,0,0,0-.1-.7v-.7L35.6,234v1.2a1.3,1.3,0,0,0,.1.6,1.3,1.3,0,0,0,.1.6l3.9,2.2c-.1-.2-.1-.5-.2-.7S39.4,237.5,39.3,237.3Z" transform="translate(4.6 -212.6)"/><path class="cls-10" d="M42.3,242.7l-.8-.9-.6-.9h-.1l-4.3-2.4a.8.8,0,0,0,.2.5l.3.6.3.5.4.5,6.4,3.6-.9-.8Z" transform="translate(4.6 -212.6)"/><path class="cls-10" d="M40.8,243.9l1,.8,1.1.6,1.3.7,1.3.5,1.3.5,1.3.3-9.1-5,.9.9Z" transform="translate(4.6 -212.6)"/><polygon class="cls-10" points="65.5 22.6 65.3 23.4 66.3 23.9 66 22.9 65.5 22.6"/><polygon class="cls-10" points="68.5 24.1 69.2 24.4 69.7 23.1 68.5 24.1"/><polygon class="cls-10" points="65.5 22.6 66 22.8 65.8 21.9 65.5 22.6"/><polygon class="cls-10" points="70.5 26 71.5 26.5 72.9 25.4 70.5 26"/><polygon class="cls-10" points="68.5 24.1 67.8 24.6 69 25.2 69.2 24.5 68.5 24.1"/><path class="cls-10" d="M70.1,244.4l-4.4-2.3,1.2-.3L58,237.3l.3,1,3,1.5h-.1l-6.9-3.5.9.9,3.5,1.8h-.1l-2.9-1.5,1.3,1.4h-.2l7.5,3.9h.1l1.4.8-.6-.7Z" transform="translate(4.6 -212.6)"/><polygon class="cls-10" points="58.8 23.5 61.4 24.9 58.7 23.5 58.8 23.5"/><polygon class="cls-10" points="73.8 28.4 69.8 27.9 71 27 69.5 26.2 68.5 26.4 68.7 25.8 67.2 25.1 66.7 25.5 66.5 24.7 65.1 24 64.7 25.2 62.5 22.7 62 22.5 62.6 24.5 71.6 29.2 74.3 28.6 73.8 28.4"/><polygon class="cls-10" points="61.2 29.7 59 28.5 56.7 29 61.2 29.7"/><polygon class="cls-10" points="72.9 34.4 70.4 31.7 60.4 26.5 56.9 25.9 61.1 28.1 60.4 28.2 68.6 32.5 68.5 32 72.9 34.4"/><path class="cls-10" d="M58.4,242.7h-.2l3.8,2h0l2.3,1.2v-.6Z" transform="translate(4.6 -212.6)"/><polygon class="cls-10" points="68.9 33.7 66.7 32.5 69.6 35.9 68.9 33.7"/><polygon class="cls-10" points="65.5 36 66.6 32.5 61.4 29.8 59.7 31.1 60.7 31.6 62.7 31.1 62.2 32.4 63.4 33 64.5 32.1 65.5 36"/><polygon class="cls-10" points="63.3 33.1 62.2 32.5 61.4 34.6 63.3 33.1"/><polygon class="cls-10" points="60.5 31.6 59.6 31.1 58.3 32.1 60.5 31.6"/></g></g></g><image class="cls-11" width="451" height="468" transform="translate(44.8 26) scale(0.24)" xlink:href="calender_yellow1.png"/><rect class="cls-3" x="66.3" y="75.8" width="13.4" height="13.43"/><rect class="cls-3" x="66.3" y="94.6" width="13.4" height="13.43"/><rect class="cls-3" x="85.2" y="75.8" width="13.4" height="13.43"/><rect class="cls-3" x="85.2" y="94.6" width="13.4" height="13.43"/><rect class="cls-3" x="104.3" y="75.8" width="13.4" height="13.43"/><rect class="cls-3" x="104.3" y="94.6" width="13.4" height="13.43"/><path class="cls-3" d="M42.4,257.4v81.5h90V257.4ZM125,333.5H48.9v-57H125Z" transform="translate(4.6 -212.6)"/><rect class="cls-3" x="65.4" y="32.3" width="13" height="15.67"/><rect class="cls-3" x="104.2" y="32.3" width="13" height="15.67"/></g></g></svg>