<svg id="Layer_1" data-name="Layer 1" xmlns="http://www.w3.org/2000/svg" xmlns:xlink="http://www.w3.org/1999/xlink" viewBox="0 0 223.3 157"><defs><style>.cls-1{fill:none;}.cls-2{fill:#0453a5;}.cls-3{fill:#fff;}.cls-4{opacity:0.29;}.cls-5{clip-path:url(#clip-path);}.cls-6{clip-path:url(#clip-path-2);}.cls-7{fill:#e82327;}.cls-8{fill:#272870;}.cls-9{fill:#fbca0c;}</style><clipPath id="clip-path" transform="translate(-129.3 -482.3)"><path class="cls-1" d="M297,561.6a75.6,75.6,0,0,1-142.9,34.5h0A75.6,75.6,0,1,1,297,561.6Z"/></clipPath><clipPath id="clip-path-2" transform="translate(-129.3 -482.3)"><rect class="cls-1" x="137.5" y="520.1" width="213.7" height="142.49" transform="translate(233.1 -48.4) rotate(21.4)"/></clipPath></defs><title>e-embassy</title><path class="cls-2" d="M299.1,561.6A77.7,77.7,0,0,1,152.2,597h0a76.4,76.4,0,0,1-8.5-35.4,77.7,77.7,0,1,1,155.4,0Z" transform="translate(-129.3 -482.3)"/><path class="cls-3" d="M297,561.6a75.6,75.6,0,0,1-142.9,34.5h0A75.6,75.6,0,1,1,297,561.6Z" transform="translate(-129.3 -482.3)"/><g class="cls-4"><g class="cls-5"><g class="cls-6"><path class="cls-7" d="M238.3,514.3h.2l-13.1-6.3-.2.2Z" transform="translate(-129.3 -482.3)"/><path class="cls-7" d="M297.6,549.4h-.3l-2.2-1,28,13.5h.5v-.2h-.2l-92.7-45,56.3,27.2h.5c-.1,0-.1,0-.1-.1h-.2L229.7,515h0L277,537.8h.4a497582161915.8,497582161915.8,0,0,0-.2-.2l-40.7-19.6h.1l91.2,43.8a.1.1,0,0,1,.1.1h.2a.1.1,0,0,0,.1-.1h.1v-.2h-.4l-26.8-12.9h.1c0-.1,0-.1-.1-.1H301a.1.1,0,0,0-.1-.1h0l-23.2-11.2h0l62.2,29.8h.2l-46.7-22.4h0l23.1,10.9h0a.1.1,0,0,0,.1.1h.3c0-.1,0-.1.1-.1h0a497582161916.5,497582161916.5,0,0,1-.2-.2h-.2l-44.9-21.5,25.4,12h.4l43.3,20.5h.4c.1,0,.1,0,.1-.1h-.4l-52.7-25.1h.1l2.3,1.1h.5l52.3,24.8h.3a.1.1,0,0,1,.1-.1h-.3l-118.3-56-.9,1.5,1.4.7-1.4-.7-.3.4,1.2.6-1.2-.6-.3.4,3,1.5h-.1l-2.9-1.4-1.2,1.9,12.7,6.2h0l62.4,30.5Z" transform="translate(-129.3 -482.3)"/><path class="cls-3" d="M352.6,582.8h0l-.2-.2a.1.1,0,0,1-.1-.1L238.9,525.8h.1l46.1,22.9h.3a.1.1,0,0,0,.1-.1h.1L348.8,580h.5a.1.1,0,0,1,.1-.1v-.2H349l-8.8-4.4h.1v-.2H340l-69.5-34.4h-.2l-27.8-13.8h.1l26.9,13.3h.2c0,.1,0,.1.1.1a.1.1,0,0,1,.1-.1h.1a.1.1,0,0,0-.1-.1c0-.1,0-.1-.1-.1h-.1l-4.3-2.1h0l10.5,5.2h.2l70.1,34.3h.5v-.2h-.3l-69.9-34.3h.1l3.7,1.8h.4c.1,0,.1,0,.1-.1h-.2a.1.1,0,0,1-.1-.1l-6.2-3h.1l44.7,21.7h0a.1.1,0,0,1,.1.1h.2a.1.1,0,0,0,.1-.1h.1v-.2c-.1,0-.1,0-.1-.1h-.3l-21.6-10.6h0L235.2,519h.1l-13-6.3-2.9,4.6,76.2,38.5h-.2l-35.7-17.9h0l85.7,42.9h0c0,.1.1.1.2.1h.2a.1.1,0,0,0,.1-.1h0c0-.1,0-.1-.1-.2h-.3L230.4,522.3,352.1,583h.5Z" transform="translate(-129.3 -482.3)"/><path class="cls-7" d="M219,518l5.4,2.7h-.1l-5.4-2.7-.2.5,3.4,1.7h0l-3.4-1.7-2.4,3.7,59.3,31,56.5,29.1c0,.1.1.1.2.1h.2a.1.1,0,0,0,.1-.1h0c0-.1,0-.1-.1-.2a.1.1,0,0,0-.1-.1h-.1L224.5,526h0l38.9,20h.4a.1.1,0,0,1,.1-.1h-.1a.1.1,0,0,1-.1-.1l-10.6-5.4,41.8,21.4h.3a.1.1,0,0,0,.1-.1h.1l14.4,7.4h.5a.1.1,0,0,0,.1-.1h-.1c0-.1-.1-.1-.1-.2H310l-22.4-11.5h.1L348.4,588h.5a.1.1,0,0,0,.1-.1h-.1c0-.1-.1-.1-.1-.2h-.2l-76.4-39.1h0l-4.7-2.4h0l6.5,3.2a.1.1,0,0,0,.1.1h.3a.1.1,0,0,0,.1-.1h-.2a.1.1,0,0,0-.1-.1l-17.7-9h-.1l-29.4-15,9.8,5h.4l91.9,46.6h.6a.1.1,0,0,0-.1-.1c0-.1-.1-.1-.1-.2h-.2l-68.1-34.5h.1a497582161916.1,497582161916.1,0,0,1-.2-.2h0l-17-8.6h.1l13.6,6.8h.3a.1.1,0,0,0,.1-.1H258l-22.6-11.4h0L295.2,556h0a.1.1,0,0,0,.1.1h.3l-76.2-38.5Z" transform="translate(-129.3 -482.3)"/><path class="cls-3" d="M213.1,527.1l27,14.5h0l94.2,50.2h.6c-.1-.1-.1-.1-.1-.2a.1.1,0,0,1-.1-.1h-.2L264,553.6h-.1a.1.1,0,0,1-.1-.1l-24.4-12.9a.1.1,0,0,1,.1-.1h0a.1.1,0,0,0-.1-.1h-.1L227,533.2h.1l7.2,3.8h0a.1.1,0,0,0,.1.1h.2a.1.1,0,0,0,.1-.1l41.1,21.8h.2l-40.4-21.5h.1a.1.1,0,0,1-.1-.1.1.1,0,0,1-.1-.1l-14.4-7.6h0l117,61.7a.1.1,0,0,0,.1.1h.3a.1.1,0,0,0,.1-.1h0c0-.1,0-.1-.1-.2a.1.1,0,0,0-.1-.1c0-.1-.1-.1-.2-.1h0l-85.8-45.4h0l3.4,1.7h.4a.1.1,0,0,1,.1-.1h0a.1.1,0,0,0-.1-.1H256l-13.5-7.1,63.9,33.4h.5V572h-.1a.1.1,0,0,0-.1-.1h-.1l-62.7-32.9h.1l32.7,17.1h.4L321.9,579c0,.1.1.1.2.1h.2a.1.1,0,0,0,.1-.1h0c0-.1,0-.1-.1-.2h-.2l-61.4-32h0a497582161916.4,497582161916.4,0,0,0-.2-.2h0l-34.8-18.1,10.9,5.6a.1.1,0,0,1,.1.1h.1a.1.1,0,0,0,.1-.1h-.1l-3.1-1.6,41.9,21.7-59.3-31Z" transform="translate(-129.3 -482.3)"/><path class="cls-7" d="M271.7,566.5,294.4,579h.4a.1.1,0,0,0,.1-.1h0c-.1-.1-.1-.1-.1-.2h-.2l-64.5-35.6,69,37.9h.5c-.1-.1-.1-.1-.1-.2h-.2l-35.8-19.7h.1v-.2a.1.1,0,0,1-.1-.1.1.1,0,0,1-.1-.1h0l-52.1-28.6h.1l45.4,24.8h.4l14.1,7.7h.3l-1.2-.6h.1l42.4,23.1h.6c-.1-.1-.1-.1-.1-.2h-.3l-39.3-21.4h.1a.1.1,0,0,0-.1-.1h-.2L244,547.2l46.2,25h.5v-.2c-.1,0-.1,0-.1-.1h-.2l-.4-.2,51,27.6h.4a.1.1,0,0,0,.1-.1c.1,0,.1,0,.1-.1h-.1c0-.1-.1-.1-.1-.2h-.2L212.1,528.6l-2.3,3.5Z" transform="translate(-129.3 -482.3)"/><path class="cls-7" d="M212.2,528.5l36.5,19.7h.4l66.2,35.6h.2a.1.1,0,0,0,.1.1h.2a.1.1,0,0,0-.1-.1l-.2-.2h0l-97-52.2h0l56.6,30.3h.5a.1.1,0,0,0-.1-.1h-.2l-39.7-21.4h0l4.1,2.2h.3a.1.1,0,0,1,.1-.1l-27-14.5Z" transform="translate(-129.3 -482.3)"/><path class="cls-3" d="M207.5,535.8l14.2,8h.2l68.4,38.5h.5l48.9,27.5h.6c0-.1-.1-.1-.1-.2h-.1l-.2-.2L233.7,549.3h.1l3.3,1.8h.1c.1,0,.1.1.2,0h.2c0-.1-.1-.1-.1-.2h-.2l-14.2-8.1h0l1.5.9h.4l20.5,11.4h.3a.1.1,0,0,0,.1-.1h0a.1.1,0,0,0-.1-.1h0L220,540.1h.1l44.4,24.8h.2s.1.1.1,0h0L235.6,548l56.7,31.4h.5v-.2h-.3l-27.6-15.4h.1v-.2h0a497582161916.5,497582161916.5,0,0,1-.2-.2l-49.3-27.3,2.6,1.3h.1l53.5,29.4-61.9-34.4Z" transform="translate(-129.3 -482.3)"/><path class="cls-3" d="M274.8,576.5h.1l46.7,26.6h.5v-.2h-.2c0-.1-.1-.1-.1-.2L217.5,543h.1l5.3,3h.2c.1,0,.1,0,.1-.1h.1l2.3,1.3h.3l97.6,55.2h.5a.1.1,0,0,1,.1-.1v-.2H324c0-.1-.1-.1-.1-.2h-.2L207.4,535.9l-.9,1.4Z" transform="translate(-129.3 -482.3)"/><path class="cls-7" d="M177,520.4h0l-19.3-10.9h-.1a.1.1,0,0,0-.1.1h-.1c0,.1,0,.1.1.1h0L175.3,520h-.1l-24.5-14h-.1l-.6.8L170.9,519h0l-21-12-.3.3,33.7,19.5-33.8-19.3h0l-.3.3,8.1,4.7-8.1-4.7-.3.4,11.9,6.9h-.1l-9.6-5.6h-.3L174,523.5h-.1l-25.4-14.8-.5.6,29.9,17.6h0L165,519.4h-.2l-17-9.9h0v.2l169,100.2h0v-.2h-.1c0-.1-.1-.1-.1-.2h-.2l-121-71.5h0l20.5,12.1h.4L242,565h.4c.1,0,.1,0,.1-.1h-.3l-10-5.9h.1l32.1,18.7h.4l2.3,1.3h.3a.1.1,0,0,0,.1-.1h.1v-.2a.1.1,0,0,1-.1-.1h-.2l-16.2-9.5h.1a.1.1,0,0,0-.1-.1.1.1,0,0,0-.1-.1l-28.4-16.6h.1l16.9,9.8h.4c0-.1,0-.1-.1-.1h-.1l-23.9-14,27.6,15.9a.1.1,0,0,0,.1.1h.3s.1-.1,0-.1h0c0-.1,0-.1-.1-.1h-.1l-18.2-10.6,57.9,33.3h.3a.1.1,0,0,0,.1-.1h.1v-.2h0a.1.1,0,0,1-.1-.1h-.2L224.1,550h.1a.1.1,0,0,0-.1-.1l-3.6-2.1h.1l28.8,16.6h.4a.1.1,0,0,0,.1-.1L335,612.7h.6v-.2h-.1c0-.1-.1-.1-.1-.2h-.2L203.7,536.6h.1l11.8,6.6h.1c0,.1,0,.1.1.1h.1l58.5,33.4h.4l-68.3-39.2Z" transform="translate(-129.3 -482.3)"/><path class="cls-3" d="M147.5,509.9h.3l31.8,18.9h0l-19.3-11.3H160l-12.8-7.5-.3.4,34.8,20.6h-.1l-34.8-20.7-.5.7,13.1,7.8h0l20.3,12.2h-.1c.1,0,.1,0,.1.1h.1l13.9,8.4h0l-22.8-13.5h0c0-.1,0-.1-.1-.1h-.2l-25-14.9-.3.3,33.1,19.9h-.1l-11.5-6.8a.1.1,0,0,1-.1-.1h-.1c-.1,0-.1,0-.1.1h-.1l-13-7.8h-.1s0-.1-.1,0h-.1c-.1,0-.1.1,0,.1h.1l19.9,12.1H173l-6.9-4.2h-.3l-21.3-12.9-.3.4,166.4,102a.1.1,0,0,1-.1-.1h-.1a.1.1,0,0,0-.1-.1h-.1l-50.5-30.8h.1a.1.1,0,0,0-.1-.1h-.2l-35.3-21.6,16.9,10.3h.3a.1.1,0,0,0,.1-.1h.1l27.7,16.8h.5c0-.1.1-.1,0-.1v-.2h-.2l-50.7-30.8L273,591a.1.1,0,0,0,.1.1h.4l18.3,11h.6v-.2a497582161915.8,497582161915.8,0,0,1-.2-.2l-52.6-31.8h.1c0-.1.1-.1.1-.2a.1.1,0,0,1-.1-.1h-.2l-19.1-11.5h.1l15.4,9.3h.4a.1.1,0,0,0,.1-.1h0l8.7,5.2h.4c0-.1.1-.1,0-.1v-.2h-.2l-6.7-4,84.7,50.5h.5c.1,0,.1-.1,0-.1v-.2l-.2-.2a.1.1,0,0,1-.1-.1l-60.5-36.2h0v-.2h0a.1.1,0,0,0-.1-.1h-.1l-23.8-14.2,4.8,2.9h.5l22.5,13.4h.4a.1.1,0,0,0,.1-.1h0l9.1,5.3h0c0,.1.1.1.2.1h.3l8.2,4.9h.5v-.2h0a.1.1,0,0,1-.1-.1h-.2l-42.9-25.5,73.8,43.5h.5a.1.1,0,0,1,.1-.1l-169-100.2Z" transform="translate(-129.3 -482.3)"/><path class="cls-7" d="M143.8,514.3l-.2.3,37.3,22.8h-.1l-29.4-17.9h-.3c0,.1,0,.1-.1.1h-.2l-7.6-4.7-.2.2v.2l31,19.2h-.1l-23.5-14.4h-.2c-.1,0-.1,0-.1.1h.1l6,3.8h0a.1.1,0,0,0-.1.1h.1l-13.8-8.6-.5.6-.2.2,5.7,3.6h-.2a.1.1,0,0,0,.1.1h0l-5.8-3.6h-.1l-.2.3,16.1,10.1L141,517.7l-.4.6,134.7,85.4h-.2l-38.2-24.1h.1a.1.1,0,0,0-.1-.1h-.2L214.8,565h.1l35.5,22.3h.5a.1.1,0,0,0-.1-.1h-.2l-28-17.6h0c0-.1,0-.1-.1-.1h0l-20.2-12.7h0L272.9,600h.5c0-.1.1-.1,0-.2h-.1a.1.1,0,0,0-.1-.1h0L229.3,572h0c.1,0,.1,0,.1-.1a.1.1,0,0,0-.1-.1h-.2l-35-21.9h.1l101.3,62.9a.1.1,0,0,1,.1.1h.2a.1.1,0,0,0,.1-.1h.1v-.2a.1.1,0,0,0-.1-.1v-.2h-.1l-43.6-27.1h.1l19.7,12.2h.5a.1.1,0,1,0,0-.2c0-.1,0-.1-.1-.2h-.1l-69.3-42.9h.1l6.3,3.8c0,.1,0,.1.1.1h.2a.1.1,0,0,1,.1-.1h0L232,571h.2c.1,0,.1,0,.1-.1h.1v-.2h-.1l-10.3-6.3h0a.1.1,0,0,0,.1-.1h0l18.8,11.5h.4a.1.1,0,0,0,.1-.1h0L304,614h.2a.1.1,0,0,0,.1.1c.1,0,.1,0,.1-.1s.1,0,.1-.1h0a.3.3,0,0,1-.1-.2h-.2l-18.1-11.1h.1v-.2c-.1,0-.1,0-.1-.1h-.2l-51.1-31.3h.2l75,45.8h.5a.1.1,0,0,0,.1-.1h0l-166.4-102Z" transform="translate(-129.3 -482.3)"/><path class="cls-3" d="M140.5,518.3l6.2,3.9h0l-6.2-3.9-.5.6,4.3,2.6h-.2l-4.2-2.7h-.1l-.4.5,12.3,7.8h0c0,.1,0,.1-.1.1h0l-12.3-7.7-.4.4h-.1l1,.7h-.1a.1.1,0,0,0-.1.1h.1l2.3,1.5h-.1a.1.1,0,0,0,.1.1h0l9.8,6.3-11.2-7.2h-.3a.1.1,0,0,1-.1.1h0l-2-1.3-.3.4,29.3,18.9h-.3c-.1,0-.1,0-.1.1h-.1l-27.3-17.6h-.1c0-.1-.1-.1-.1,0H139l-1.5-1-.3.3,6.9,4.6h0c-.1,0-.1,0,0,.1h0c0,.1,0,.1.1.1l9.1,5.9h0L137,522.6h-.1l101.3,66.4H238l-54.1-35.3h0l96,62.2h.6c0-.1,0-.1-.1-.2h-.1a.1.1,0,0,0-.1-.1l-55.8-36.3h0l15.3,9.8h.5c0-.1-.1-.1-.1-.2a.1.1,0,0,1-.1-.1l-4.8-3,51,32.8h.6v-.2a.1.1,0,0,0-.1-.1c0-.1,0-.1-.1-.2h-.1L201,562l71.4,45.9h.5v-.2a.1.1,0,0,1-.1-.1l-.2-.2-43.7-28.1h0c0-.1,0-.1-.1-.2h-.1L198,559h-.1c0-.1,0-.1-.1-.1L182.9,549h0l66.7,42.5h.5v-.2h0a.1.1,0,0,0-.1-.1.1.1,0,0,0-.1-.1l-41.8-26.7h.2a.1.1,0,0,1-.1-.1h-.1l-14-9,110.4,70.1h.4a.1.1,0,0,0,.1-.1v-.2h0l-.2-.2h-.1L244,585.7h.1v-.2h-.3l-11-7h.1c.1,0,.1,0,.1-.1a.1.1,0,0,0-.1-.1h-.2l-34.2-21.7h.1L274.9,604h.4a.1.1,0,0,1,.1-.1h-.1L140.6,518.3Z" transform="translate(-129.3 -482.3)"/><path class="cls-7" d="M136.4,523.4l-.8.9,11.3,7.5h-.1c.1,0,.1,0,.1.1h0L169.3,547h0l-34-22.3-.4.4-.3.4,22.5,15h0l-22.5-15-.4.4,20.6,13.8h-.1l-9.7-6.4h-.3l.8.6h0l-11.7-7.7h-.2l-.4.6L285.1,630.3h.2v-.2h-.2c0-.1-.1-.1-.1-.2l-7-4.6h.1c0-.1-.1-.1-.1-.2a.1.1,0,0,0-.1-.1c0-.1-.1-.1-.1-.2L168.2,550.5h.1l110.8,74.4h.5v-.2h0c0-.1-.1-.1-.1-.2h-.2l-67.1-45.1h0v-.2h-.1a.1.1,0,0,0-.1-.1h0l-.7-.5h0l74.1,49.4c0,.1.1.1.2.1s.1.1.1,0h.1c.1,0,.1,0,.1-.1h0v-.2h-.1l-.2-.2-37.5-25h.2v-.2a.1.1,0,0,0-.1-.1h0l-.2-.2-28.7-19.1h.1v-.2h-.2l-36.8-24.5h.1l4.3,2.8a.1.1,0,0,0,.1.1h.3l30.2,20h.5L236.6,592h.4l-.2-.2-12.3-8.1h0l71.9,47.3h.6v-.2a.1.1,0,0,0-.1-.1c0-.1-.1-.1-.1-.2h-.1l-12.8-8.4h0c0-.1,0-.1-.1-.2a.1.1,0,0,0-.1-.1c0-.1-.1-.1-.1-.2l-79.4-52.2h.1l77.2,50.5h.5a.1.1,0,0,0,.1-.1c-.1-.1-.1-.1-.1-.2h-.1c0-.1-.1-.1-.2-.2h0l-72.5-47.5h.1l28.5,18.5h.5L136.9,522.7Z" transform="translate(-129.3 -482.3)"/><path class="cls-3" d="M133.1,527.3h0l16.4,11.1h.1l10.4,7h-.2c0,.1,0,.1.1.1h0c0,.1,0,.1.1.1l7.3,5h0l-34.7-23.3-.7.9-.4.5L134,531h0l12.9,8.8h-.1a.1.1,0,0,1,.1.1h0l2.6,1.8h-.1l-18.3-12.6-.4.4h0l.7.4h-.1l-.6-.4-.6.6,24,16.6h0l-24-16.5-.3.3,10.4,7.3h0l-10.5-7.2-.4.4,110.2,77.4h.1v-.2h-.2l-23.1-16.1h0v-.2h0a829303603142.9,829303603142.9,0,0,1-.2-.2h0l-32-22.3h.1l28.4,19.8h.3a.1.1,0,0,0,.1-.1h.1v-.2h0a2487910809278.3,2487910809278.3,0,0,1-.2-.2h0l-39.8-27.7,45.8,31.7h.4a.1.1,0,0,0,.1-.1h0l11.9,8.2h.4a.1.1,0,0,1,.1-.1h0l36,24.8h.6v-.2a.1.1,0,0,0-.1-.1c0-.1,0-.1-.1-.2a.1.1,0,0,0-.1-.1l-57.5-39.7h.1l4.7,3.2h.2c.1,0,.1,0,.1-.1h.1l11.4,7.8h.5V596h0a.1.1,0,0,1-.1-.1h-.1l-12.9-8.9h.1c.1,0,.1,0,.1-.1h0a.1.1,0,0,1-.1-.1.1.1,0,0,0-.1-.1h0l-24.7-16.9,20.2,13.7h.4a.1.1,0,0,1,.1-.1h0a.1.1,0,0,0-.1-.1h-.1L174.3,558h.1l11.4,7.7a.1.1,0,0,1,.1.1h.2a.1.1,0,0,0,.1-.1l94.2,64c.1,0,.2,0,.2.1h.2a497582161916.3,497582161916.3,0,0,1,.2-.2h0v-.2h-.2c0-.1-.1-.1-.1-.2l-82.8-56.2h.2L272.6,623h.5c0-.1,0-.1.1-.1v-.2h-.1c0-.1,0-.1-.1-.2h-.1l-38.3-25.9h0l50.1,33.8h.4L133.2,527.2Z" transform="translate(-129.3 -482.3)"/><path class="cls-8" d="M199.6,498.6h-.4c0,.1,0,.1.1.1h.1l24.3,11.7.3-.4Z" transform="translate(-129.3 -482.3)"/><path class="cls-8" d="M168.7,484.3l-.5.6,45.5,22h0L168.2,485h-.3l21,10.2.5.2.5.2.5.2.6.3.4.2.5.3.5.2.4.3,14,6.8h-.1l-13.1-6.3.4.3.4.3.3.3.4.3,24.7,12h.1l2.6,1.2,1.2-1.9Z" transform="translate(-129.3 -482.3)"/><path class="cls-8" d="M187,494.8h.4l.5.2-9.3-4.5h-.3l7.7,3.7h1Z" transform="translate(-129.3 -482.3)"/><path class="cls-8" d="M224.8,508.1h0l.4.2.2-.2-4.5-2.1L208,499.8h0l-37.7-17.6-.3.5,18.9,9h0l-19-9-.2.2h-.1l11.4,5.4h0l34.3,16.4h.1l8.9,4.3.9-1.5Z" transform="translate(-129.3 -482.3)"/><path class="cls-8" d="M173.9,485.8h-.4a.1.1,0,0,1,.1.1h0L224,510.2l.3-.4Z" transform="translate(-129.3 -482.3)"/><path class="cls-8" d="M181.5,494.3h.4l-15.2-7.4h-.1l-.2.3h.1l14.6,7.2h.4Z" transform="translate(-129.3 -482.3)"/><polygon class="cls-8" points="66 22.9 66.3 23.9 67.8 24.6 68.5 24.1 66 22.9"/><path class="cls-8" d="M182.5,494.3h.5l-2.7-1.3a.1.1,0,0,1-.1-.1h-.1a.1.1,0,0,1-.1.1h0a.1.1,0,0,0-.1.1h.1a.1.1,0,0,0,.1.1l2,1h.4Z" transform="translate(-129.3 -482.3)"/><path class="cls-8" d="M222.3,512.8,210.4,507h-.2l1.6.8h-.1L197,501.1c.1.1.1.2.2.4l.3.3.3.4a.5.5,0,0,0,.2.4l8,4h0l-8-3.9c.1.2.2.3.2.4s.1.2.2.4.1.2.1.3.1.3.2.4a.8.8,0,0,1-.2-.4l-.3-.4-.3-.5-.3-.4-6.3-3a.1.1,0,0,1-.1-.1h-.1a.1.1,0,0,1-.1.1h0l-6.5-3.2h-2.3l18.9,9.3H201l-19-9.4h-1.5l10.5,5.3h-.1l-10.6-5.2h-.6l15.2,7.6.2-.7.3,1,2.4,1.2,1.2-1-.4,1.4h0l-.3.7,1.5.8,2.4-.5-1.3,1L219,518l.4-.6Z" transform="translate(-129.3 -482.3)"/><path class="cls-8" d="M177.7,494.9h.5l-12.9-6.4-.2.2-.2.3,12.3,6.2c0-.1.1-.1.2-.1Z" transform="translate(-129.3 -482.3)"/><path class="cls-8" d="M176.3,495.3h.3l-8.5-4.2h-.3l8.3,4.2a.1.1,0,0,1,.1-.1Z" transform="translate(-129.3 -482.3)"/><path class="cls-8" d="M179.3,494.5h.9l-14.1-6.9-.4.4,1.9,1h-.1l-1.8-.9-.3.3,12.9,6.4h1Z" transform="translate(-129.3 -482.3)"/><path class="cls-8" d="M196.6,501.4l-.5-.6-.6-.4-7-3.5H187l5.4,2.6h0l-5.7-2.8h-1.2l12,5.9-.4-.5C196.9,501.7,196.8,501.5,196.6,501.4Z" transform="translate(-129.3 -482.3)"/><path class="cls-8" d="M179.6,497.3h-.9l15.9,8.1.3-.8Z" transform="translate(-129.3 -482.3)"/><path class="cls-8" d="M175.7,499.6h-.3l13.8,7.1-.9-1Z" transform="translate(-129.3 -482.3)"/><path class="cls-8" d="M175.6,495.7h.4l-7.1-3.5h-.3a.1.1,0,0,0,.1.1h0l.8.4h0l5.7,2.9h.2C175.4,495.7,175.5,495.7,175.6,495.7Z" transform="translate(-129.3 -482.3)"/><polygon class="cls-8" points="65.1 24 62.5 22.7 64.7 25.2 65.1 24"/><path class="cls-8" d="M189.7,507.6l-14.5-7.5h-.1c0,.1,0,.1-.1.1h0a.1.1,0,0,0-.1.1l2.5,1.3h-.1a.1.1,0,0,0,.1.1h0l13.4,7h.1Z" transform="translate(-129.3 -482.3)"/><path class="cls-8" d="M205.8,511.5h-.2l13.1,6.7.2-.5Z" transform="translate(-129.3 -482.3)"/><path class="cls-8" d="M172.7,497.5h.2L162.4,492l-.2.2-.2.2,10.4,5.4h.1Z" transform="translate(-129.3 -482.3)"/><polygon class="cls-8" points="73.8 28.4 71 27 69.8 27.9 73.8 28.4"/><path class="cls-8" d="M172.2,498h.1l-10.4-5.4h-.1l-.2.2,10.4,5.4h.1A.1.1,0,0,1,172.2,498Z" transform="translate(-129.3 -482.3)"/><polygon class="cls-8" points="69.5 26.2 68.7 25.8 68.5 26.4 69.5 26.2"/><path class="cls-8" d="M171.7,498.6h0a.1.1,0,0,0,.1-.1l-10.4-5.3-.2.3,10.3,5.3h.2Z" transform="translate(-129.3 -482.3)"/><path class="cls-8" d="M173.9,496.6h.4l-11-5.6-.3.4h-.1l9.9,5h-.1a.1.1,0,0,0,.1.1h.1l.6.3h.2C173.7,496.7,173.8,496.7,173.9,496.6Z" transform="translate(-129.3 -482.3)"/><path class="cls-8" d="M176.3,499.1h-.1a.1.1,0,0,0-.1.1h-.2a.1.1,0,0,1-.1.1l12.3,6.3h0l2.7,1.4,1.4.7-.3-.9Z" transform="translate(-129.3 -482.3)"/><path class="cls-8" d="M177.9,498l-.2.2h-.3c-.1.1-.2.1-.2.2h-.3l5.3,2.7h0l8.9,4.6h0a.1.1,0,0,0,.1.1l.7.4-.6-2.1Z" transform="translate(-129.3 -482.3)"/><polygon class="cls-8" points="67.2 25.1 66.5 24.7 66.7 25.5 67.2 25.1"/><polygon class="cls-8" points="66.6 32.4 66.6 32.4 66.6 32.4 66.6 32.4"/><path class="cls-8" d="M170.8,499.7h.1l-10.4-5.4-.2.3,10.4,5.4h.1Z" transform="translate(-129.3 -482.3)"/><path class="cls-8" d="M171,499.4h.1a.1.1,0,0,1,.1-.1l-4.8-2.4a.1.1,0,0,0-.1-.1H166a.1.1,0,0,0,.1.1h0l4.8,2.5h.1Z" transform="translate(-129.3 -482.3)"/><path class="cls-8" d="M190.6,512l-4.5-.6,2.3-.5-3.9-2.1h-.3l-10.8-5.7v.4h-.1v.2l9.5,5.1h0l-9.5-5h-.1v.4h0a.1.1,0,0,1,.1.1h.1l15.6,8.4,1.7-1.3Z" transform="translate(-129.3 -482.3)"/><path class="cls-8" d="M169.9,501.7h.1v-.2l-5.9-3.1H164c0-.1-.1-.1-.1,0h-.1l3.4,1.8h0l2.6,1.4v-.2C169.9,501.9,169.9,501.8,169.9,501.7Z" transform="translate(-129.3 -482.3)"/><path class="cls-8" d="M186.2,508.3l3.5.5L174.5,501a.1.1,0,0,1-.1.1v.4c0,.1-.1.1-.1.2l7.9,4.1h-.1c0,.1,0,.1.1.1h0l.8.4h0l7,3.7.6-.2Z" transform="translate(-129.3 -482.3)"/><path class="cls-8" d="M216.3,522.2l2.4-3.7-15.1-7.6-2.6.6,6.2,3.2h-.1l-6.3-3.2-1.2.3,4.5,2.2-5-.7.7.7,3.2,1.7-3.2-1.7,2.4,2.7-4.4-2.4.2.6,12.9,6.7h-.1l-7.1-3.6h0a.1.1,0,0,0-.1-.1h-.2l-5.3-2.7.2.6,11.2,5.9L198.3,516l.6,2.2-2.9-3.3h-.1l-1.1,3.5-.9-3.9-1.2,1,1.3.6h-.1l-1.2-.7-1.9,1.6.7-2.2-1.6-.8-2.2.5,1.3-1-14.7-7.8h-.2c-.1,0-.1,0-.1.1h.1l12.3,6.6h0l-13.3-7.1c0,.2.1.5.1.7a1.3,1.3,0,0,0,.1.6c0,.3.1.5.1.7a1.4,1.4,0,0,1,.2.7l24.7,13.3h0l-8.1-4.4H190a.1.1,0,0,0-.1.1h-5.6l2.3,1.3h0l16.9,9.3h0l5.3,2.9h0l-.7-.4H208L182,517l-1.3-.4-1.3-.4-1.3-.6a6.7,6.7,0,0,1-1.2-.6,4.1,4.1,0,0,1-1.1-.7l-1.1-.7-.9-.8a3,3,0,0,1-.8-.8l-13.6-7.4h-.2l4.4,2.5h0l38.6,21.5h-.1l-1.3-.8h-.3l-46.9-26.1-.4.5h-.1l13.5,7.5h0l30.1,16.9h0a.1.1,0,0,0-.1.1h.1l-19-10.6h-.3l-24.7-13.8-.5.6,11.7,6.6-11.7-6.6-.3.4L177.3,519h0l8.5,4.9L162,510.8h-.2a.1.1,0,0,1-.1.1L151.5,505l-.3.4,27.5,15.7h0l-1.4-.7a.1.1,0,0,0-.1-.1H177l29.5,16.9.9-1.4-.9-.5h0a.1.1,0,0,1,.1-.1h0l.9.5,2.3-3.7,2.3-3.5-2.4-1.3h.1l2.4,1.2.9-1.4Z" transform="translate(-129.3 -482.3)"/><polygon class="cls-8" points="60.7 31.6 62.2 32.4 62.7 31.1 60.7 31.6"/><path class="cls-8" d="M169.7,502.3a.1.1,0,0,0,.1-.1h0l-11-5.8-.2.2h-.1l11.2,5.9h0Z" transform="translate(-129.3 -482.3)"/><path class="cls-8" d="M169.5,504.9v-1.2l-11.7-6.2-.3.3,4.4,2.3h-.1l-4.3-2.3-.3.3-.7.8,13.2,7.1c0-.2-.1-.4-.1-.6A1.3,1.3,0,0,0,169.5,504.9Z" transform="translate(-129.3 -482.3)"/><path class="cls-8" d="M170.1,507.5c0-.1-.1-.2-.1-.3s-.1-.2-.1-.3h-.2l-13.6-7.4-.5.5h0l14.7,8a.4.4,0,0,0-.1-.3C170.2,507.7,170.1,507.6,170.1,507.5Z" transform="translate(-129.3 -482.3)"/><path class="cls-8" d="M170.9,509.3a.8.8,0,0,1-.2-.5l-.3-.5-14.9-8.1h0l-.7.9,16.8,9.3-.3-.5A2.1,2.1,0,0,1,170.9,509.3Z" transform="translate(-129.3 -482.3)"/><path class="cls-8" d="M185.5,517.1l1.9.2h1.9L173.9,509l.2.4a.8.8,0,0,1,.2.4l.3.4c0,.1.1.2.2.4h0l.7.9.7.9.9.8,1,.8,3.7,2,1.9.7Z" transform="translate(-129.3 -482.3)"/><path class="cls-9" d="M191.9,496.8l-.5-.3-.4-.2-.6-.3-.5-.2-.5-.2-.5-.2,3.9,1.9-.4-.3Z" transform="translate(-129.3 -482.3)"/><path class="cls-9" d="M194.4,498.4l-.4-.3-.4-.3-5.7-2.7-.5-.2H186l9.1,4.4-.4-.3Z" transform="translate(-129.3 -482.3)"/><path class="cls-9" d="M186.1,496.6h.6l-4.8-2.3h-.8l4.4,2.2h.6Z" transform="translate(-129.3 -482.3)"/><path class="cls-9" d="M187.7,496.8h.8l-5.5-2.6h-.9l4.9,2.4h.7Z" transform="translate(-129.3 -482.3)"/><path class="cls-9" d="M181.2,496.8h.8l-3.8-1.9h-.8c-.1,0-.2,0-.2.1l1.6.8h0l1.7.8h.7Z" transform="translate(-129.3 -482.3)"/><path class="cls-9" d="M180,497.2h.3l-3.7-1.9h-.4a.1.1,0,0,0-.1.1l3.6,1.8h.3Z" transform="translate(-129.3 -482.3)"/><path class="cls-9" d="M197.5,501.8l-.3-.3c-.1-.2-.1-.3-.2-.4l-1.5-.7.6.4.5.6c.2.1.3.3.5.5l.4.5.5.2a.5.5,0,0,1-.2-.4Z" transform="translate(-129.3 -482.3)"/><path class="cls-9" d="M198.2,503.4l.3.4a.8.8,0,0,0,.2.4c-.1-.1-.1-.2-.2-.4s-.1-.2-.1-.3-.1-.3-.2-.4-.1-.2-.2-.4l-.4-.2.3.4Z" transform="translate(-129.3 -482.3)"/><path class="cls-9" d="M183.3,496.5h1.2l-4.3-2.1h-1.9l3.9,2h1.1Z" transform="translate(-129.3 -482.3)"/><path class="cls-9" d="M176.1,499.3a.1.1,0,0,1,.1-.1h.1l-3.4-1.8h-.2l-.2.2h-.1l3.4,1.7a.1.1,0,0,0,.1-.1Z" transform="translate(-129.3 -482.3)"/><path class="cls-9" d="M175.6,499.8h.1l-3.4-1.7h-.1a.1.1,0,0,0-.1.1H172l3.4,1.7h.2Z" transform="translate(-129.3 -482.3)"/><path class="cls-9" d="M175,500.3c.1,0,.1,0,.1-.1h.1l-3.4-1.7a.1.1,0,0,1-.1.1h-.2l3.4,1.8a.1.1,0,0,1,.1-.1Z" transform="translate(-129.3 -482.3)"/><path class="cls-9" d="M177.4,498.3h.3l.2-.2h-.1a.1.1,0,0,1-.1-.1h-.1a.1.1,0,0,0-.1.1h0l-3.2-1.6h-.4c-.1.1-.2.1-.2.2h-.2l3.4,1.7h.3C177.2,498.4,177.3,498.4,177.4,498.3Z" transform="translate(-129.3 -482.3)"/><path class="cls-9" d="M179.1,497.5h.5l-3.6-1.8h-.4c-.1,0-.2,0-.2.1h-.2l3.5,1.7h.4Z" transform="translate(-129.3 -482.3)"/><path class="cls-9" d="M174.3,501.3v-.2a.1.1,0,0,0,.1-.1l-3.3-1.8a.1.1,0,0,0-.1.1h-.2l3.2,1.7-3.2-1.6h-.2l3.4,1.8c0-.1.1-.1.1-.2Z" transform="translate(-129.3 -482.3)"/><path class="cls-9" d="M173.4,503.6v-.4l-3.4-1.8v.2h-.1c0,.1,0,.2-.1.2v.2l3.5,1.8v-.2Z" transform="translate(-129.3 -482.3)"/><path class="cls-9" d="M173.2,504.3v-.2h.1l-3.5-1.9h0a.1.1,0,0,1-.1.1h0a.1.1,0,0,0,.1.1h0l3.4,1.7h0Z" transform="translate(-129.3 -482.3)"/><path class="cls-9" d="M186.8,517.5h.6l-1.9-.2-1.8-.4-1.9-.7,2.5,1.4h2.5Z" transform="translate(-129.3 -482.3)"/><path class="cls-9" d="M174.3,509.8a.8.8,0,0,0-.2-.4l-.2-.4-3.8-2.1h-.2c0,.1.1.2.1.3s.1.2.1.3.1.2.1.3a.4.4,0,0,1,.1.3l4.5,2.5c-.1-.2-.2-.3-.2-.4Z" transform="translate(-129.3 -482.3)"/><path class="cls-9" d="M173.3,506.9a1.3,1.3,0,0,1-.1-.6c0-.2-.1-.5-.1-.7l-3.6-1.9v1.2a1.3,1.3,0,0,1,.1.6c0,.2.1.4.1.6l3.9,2.2a1.4,1.4,0,0,0-.2-.7C173.4,507.4,173.3,507.2,173.3,506.9Z" transform="translate(-129.3 -482.3)"/><path class="cls-9" d="M176.2,512.4l-.7-.9-.7-.9h0l-4.4-2.4.3.5a.8.8,0,0,0,.2.5,2.1,2.1,0,0,0,.4.6l.3.5,6.5,3.6-1-.8Z" transform="translate(-129.3 -482.3)"/><path class="cls-9" d="M174.7,513.6l1.1.7a4.1,4.1,0,0,0,1.1.7,6.7,6.7,0,0,0,1.2.6l1.3.6,1.3.4,1.3.4-9-5a3,3,0,0,0,.8.8Z" transform="translate(-129.3 -482.3)"/><polygon class="cls-9" points="65.5 22.6 65.3 23.4 66.3 23.9 66 22.9 65.5 22.6"/><polygon class="cls-9" points="68.5 24.1 69.2 24.4 69.7 23.1 68.5 24.1"/><polygon class="cls-9" points="65.5 22.6 66 22.8 65.8 21.9 65.5 22.6"/><polygon class="cls-9" points="70.5 26 71.5 26.5 72.9 25.4 70.5 26"/><polygon class="cls-9" points="68.5 24.1 67.8 24.6 69 25.2 69.2 24.5 68.5 24.1"/><path class="cls-9" d="M204.1,514l-4.5-2.2,1.2-.3-8.9-4.5.3.9,3.1,1.6h-.1l-6.9-3.6.9,1,3.4,1.8h0a.1.1,0,0,0-.1.1h.1l-2.9-1.5,1.2,1.4h-.1l7.5,3.9h0l1.5.8-.7-.7Z" transform="translate(-129.3 -482.3)"/><polygon class="cls-9" points="58.8 23.5 61.4 24.9 58.7 23.5 58.8 23.5"/><polygon class="cls-9" points="73.8 28.4 69.8 27.9 71 27 69.5 26.2 68.5 26.4 68.7 25.8 67.2 25.1 66.7 25.5 66.5 24.7 65.1 24 64.7 25.2 62.5 22.7 62 22.5 62.6 24.5 71.6 29.2 74.3 28.6 73.8 28.4"/><polygon class="cls-9" points="61.2 29.7 59 28.5 56.7 29 61.2 29.7"/><polygon class="cls-9" points="72.9 34.4 70.4 31.7 60.4 26.5 56.9 25.9 61.1 28.1 60.4 28.2 68.6 32.5 68.5 32 72.9 34.4"/><path class="cls-9" d="M192.4,512.4h-.3c-.1,0-.1,0-.1.1h.1l3.8,2.1h0l2.4,1.2-.2-.6Z" transform="translate(-129.3 -482.3)"/><polygon class="cls-9" points="68.9 33.7 66.7 32.5 69.6 35.9 68.9 33.7"/><polygon class="cls-9" points="65.5 36 66.6 32.5 61.4 29.8 59.7 31.1 60.7 31.6 62.7 31.1 62.2 32.4 63.4 33 64.5 32.1 65.5 36"/><polygon class="cls-9" points="63.3 33.1 62.2 32.5 61.4 34.6 63.3 33.1"/><polygon class="cls-9" points="60.5 31.6 59.6 31.1 58.3 32.1 60.5 31.6"/></g></g></g><path class="cls-2" d="M262.3,523.1H180.4a7.4,7.4,0,0,0-7.3,7.4v55a7.3,7.3,0,0,0,7.3,7.3h81.9a7.3,7.3,0,0,0,7.3-7.3v-55A7.4,7.4,0,0,0,262.3,523.1Zm1.2,63.7H179.3V528.7h84.2Z" transform="translate(-129.3 -482.3)"/><rect class="cls-2" x="83.5" y="110.5" width="17.1" height="10.04"/><path class="cls-2" d="M238.4,613.6H204.2c-.1-.5-1-4.9,1.9-8.3a9.7,9.7,0,0,1,4-2.5h22.8a7.8,7.8,0,0,1,4.1,2.7C239.7,609,238.5,613.2,238.4,613.6Z" transform="translate(-129.3 -482.3)"/><rect class="cls-3" x="48.5" y="45.6" width="86.9" height="59.58"/><path class="cls-2" d="M202.7,565.4h-3.9a1.1,1.1,0,0,0-1.1,1.1v3.9a1.1,1.1,0,0,0,1.1,1.1h3.9a1.1,1.1,0,0,0,1.1-1.1v-3.9A1.1,1.1,0,0,0,202.7,565.4Zm-1,4h-1.9v-1.9h1.9Z" transform="translate(-129.3 -482.3)"/><path class="cls-2" d="M241.2,565.3h-4a1.1,1.1,0,0,0-1.1,1.1v3.9a1.1,1.1,0,0,0,1.1,1.1h4a1.1,1.1,0,0,0,1-1.1v-3.9A1.1,1.1,0,0,0,241.2,565.3Zm-1.1,4h-1.9v-1.9h1.9Z" transform="translate(-129.3 -482.3)"/><path class="cls-2" d="M202.8,573.6h-4a1.1,1.1,0,0,0-1.1,1.1v3.9a1.1,1.1,0,0,0,1.1,1.1h4a1.1,1.1,0,0,0,1-1.1v-3.9A1.1,1.1,0,0,0,202.8,573.6Zm-1.1,4h-1.9v-1.9h1.9Z" transform="translate(-129.3 -482.3)"/><path class="cls-2" d="M241.2,573.5h-4a1.1,1.1,0,0,0-1.1,1.1v3.9a1.1,1.1,0,0,0,1.1,1.1h4a1,1,0,0,0,1-1.1v-3.9A1,1,0,0,0,241.2,573.5Zm-1,4h-2v-1.9h2Z" transform="translate(-129.3 -482.3)"/><rect class="cls-2" x="76.5" y="80.8" width="2" height="14.93"/><rect class="cls-2" x="80.7" y="80.8" width="2" height="14.93"/><rect class="cls-2" x="98.4" y="80.8" width="2" height="14.93"/><rect class="cls-2" x="102.6" y="80.8" width="2" height="14.93"/><rect class="cls-2" x="87.5" y="80.8" width="2" height="14.93"/><rect class="cls-2" x="91.7" y="80.8" width="2" height="14.93"/><rect class="cls-2" x="73.2" y="95.4" width="34.7" height="1.82"/><path class="cls-2" d="M245.1,561.2H194.8a1.3,1.3,0,0,0-1.3,1.3v20.2a1.3,1.3,0,0,0,1.3,1.3H216v-2.2H195.6V563.4h48.6v18.4H223.6V584h21.5a1.3,1.3,0,0,0,1.3-1.3V562.5A1.3,1.3,0,0,0,245.1,561.2Z" transform="translate(-129.3 -482.3)"/><circle class="cls-2" cx="90.6" cy="100.5" r="1.1"/><path class="cls-2" d="M220.2,552.5l-18.4,4.1c0,2.3,0,4.6-.1,6.8h2V559l16.5-4.2,16.4,4.2v4.4h1.8c.1-2.2.1-4.5.1-6.8Z" transform="translate(-129.3 -482.3)"/><path class="cls-2" d="M211.2,550.3a11.5,11.5,0,0,1,8.6-4,10.5,10.5,0,0,1,8.1,3.4,13,13,0,0,1,3.4,6.9h1.9a13.5,13.5,0,0,0-4.2-9,13.7,13.7,0,0,0-18.7.6,13.5,13.5,0,0,0-3.8,8.4h1.7A15.5,15.5,0,0,1,211.2,550.3Z" transform="translate(-129.3 -482.3)"/><rect class="cls-2" x="72.4" y="97" width="2.1" height="2.98"/><rect class="cls-2" x="106.8" y="97" width="2.1" height="2.98"/><path class="cls-2" d="M229.8,536.2l4-4.4a1.5,1.5,0,0,0-1.3-.7H220.4a1.5,1.5,0,0,0-1.5,1.5v7.2a1.6,1.6,0,0,0,1.5,1.6h12.1a1.5,1.5,0,0,0,1.4-1Zm-8.8,3.1v-6.2h8.8l-2.4,2.4a1.1,1.1,0,0,0-.3.7.7.7,0,0,0,.3.6l2.4,2.5Z" transform="translate(-129.3 -482.3)"/><rect class="cls-2" x="89.5" y="52" width="2.1" height="10.55"/></svg>