<svg id="Layer_1" data-name="Layer 1" xmlns="http://www.w3.org/2000/svg" xmlns:xlink="http://www.w3.org/1999/xlink" viewBox="0 0 223.3 157"><defs><style>.cls-1{fill:none;}.cls-10,.cls-2{fill:#0453a5;}.cls-3{fill:#fff;}.cls-4{opacity:0.29;}.cls-5{clip-path:url(#clip-path);}.cls-6{clip-path:url(#clip-path-2);}.cls-7{fill:#e82327;}.cls-8{fill:#272870;}.cls-9{fill:#fbca0c;}.cls-10{fill-rule:evenodd;}</style><clipPath id="clip-path" transform="translate(-183.1 -313.3)"><path class="cls-1" d="M350.7,392.6a75.6,75.6,0,0,1-142.9,34.5h0a75.6,75.6,0,1,1,142.9-34.5Z"/></clipPath><clipPath id="clip-path-2" transform="translate(-183.1 -313.3)"><rect class="cls-1" x="191.2" y="351.1" width="213.7" height="142.49" transform="translate(175 -79.7) rotate(21.4)"/></clipPath></defs><title>e-madical2</title><path class="cls-2" d="M352.8,392.6a77.8,77.8,0,0,1-146.9,35.5h0a77.8,77.8,0,0,1,69.2-113.2,77.6,77.6,0,0,1,77.7,77.7Z" transform="translate(-183.1 -313.3)"/><path class="cls-3" d="M350.7,392.6a75.6,75.6,0,0,1-142.9,34.5h0a75.6,75.6,0,1,1,142.9-34.5Z" transform="translate(-183.1 -313.3)"/><g class="cls-4"><g class="cls-5"><g class="cls-6"><path class="cls-7" d="M292,345.3h.3l-13.2-6.3v.2Z" transform="translate(-183.1 -313.3)"/><path class="cls-7" d="M351.3,380.4h0c-.1,0-.1,0-.1-.1H351l-2.1-1,28,13.5h.5a.1.1,0,0,0-.1-.1c0-.1-.1-.1-.1-.2H377l-92.6-45.1,56.3,27.2h.4a.1.1,0,0,0-.1-.1.1.1,0,0,0-.1-.1L283.4,346h0l47.3,22.8h.5a.1.1,0,0,1-.1-.1h-.2l-40.7-19.6h.1l91.2,43.8h.3c.1,0,.1,0,.1-.1h.1v-.2h-.2l-26.9-12.9h.1a.1.1,0,0,1-.1-.1h-.2l-23.2-11.2h0l62.2,29.8h.6a.1.1,0,0,1-.1-.1h-.3l-46.7-22.4h.1l23,10.9h.5a.1.1,0,0,0-.1-.1h-.1a.1.1,0,0,0-.1-.1h0l-45-21.5,25.4,12a.1.1,0,0,0,.1.1h.3c0-.1,0-.1.1-.1h0l43.2,20.5h.5v-.2h-.3l-52.8-25.1h.1c.1,0,.1,0,.1-.1h0l2.2,1.1h.5l52.3,24.7h.4c.1,0,.1,0,.1-.1h-.1a.1.1,0,0,0-.1-.1h-.2L279,339.3l-1,1.5,1.5.7-1.5-.7-.3.5,1.2.5-1.2-.5-.2.3,2.9,1.5h0l-3-1.4-1.2,1.9,12.7,6.2h0l62.4,30.5Z" transform="translate(-183.1 -313.3)"/><path class="cls-3" d="M406.4,413.8h-.2l-.2-.2L292.6,356.8h.1a.1.1,0,0,1,.1-.1h0l46.1,22.9h.4L402.6,411h.5v-.2h-.3l-8.8-4.4h.1a.1.1,0,0,1,.1-.1h0c0-.1-.1-.1-.1-.2h-.3l-69.4-34.4h-.1a.1.1,0,0,0-.1-.1l-27.8-13.8h0l26.9,13.3h.3l-4.3-2.1h0l10.4,5.1h.2l70.1,34.3h.6v-.2a.1.1,0,0,1-.1-.1h-.2l-69.9-34.3h.1l3.7,1.8h.4a.1.1,0,0,0,.1-.1h-.3L328,370h.2l44.6,21.7h.5c0-.1,0-.1-.1-.2H373l-21.7-10.5h0L288.9,350h.1l-12.9-6.3-3,4.6L349.4,387h-.1a.1.1,0,0,0-.1-.1h-.1l-35.7-17.9h.1l85.6,42.8h.5c.1,0,0-.1,0-.1h0l-.2-.2h-.1L284.2,353.3,405.8,414h0c.1,0,.2,0,.2.1h.2a.1.1,0,0,0,.1-.1h.1Z" transform="translate(-183.1 -313.3)"/><path class="cls-7" d="M272.7,349l5.4,2.7h0l-5.4-2.6-.3.4,3.4,1.7h0l-3.4-1.7-2.4,3.7,59.4,31,56.4,29.1h.5c.1,0,.1-.1,0-.1h0c-.1-.1-.1-.1-.1-.2H386L278.2,357h0l39,20a.1.1,0,0,0,.1.1h.2a.1.1,0,0,0,.1-.1h-.2l-10.5-5.4,41.7,21.4h.5l14.5,7.5h.5a.1.1,0,0,0-.1-.1h-.1a.1.1,0,0,0-.1-.1l-22.4-11.6h.1L402.2,419a.1.1,0,0,1,.1.1h.2c.1,0,.1,0,.1-.1s.1,0,.1-.1h0a.1.1,0,0,0-.1-.1c0-.1-.1-.1-.1-.2h-.2L326,379.3h.1a.1.1,0,0,0-.1-.1h-.1l-4.7-2.4h.1l6.4,3.3h.5a.1.1,0,0,1-.1-.1h-.2l-17.6-9h-.1c0-.1,0-.1-.1-.1l-29.4-15,9.9,5h.1a.1.1,0,0,0,.1.1h.1l92,46.7h.4c0-.1,0-.1-.1-.2h-.1l-68.2-34.5h.2a.1.1,0,0,0-.1-.1h-.2l-16.9-8.6h0l13.6,6.8h.2a.1.1,0,0,0,.1-.1h0a.1.1,0,0,0-.1-.1h0l-22.6-11.4h.1l59.7,30h.5l-76.3-38.6Z" transform="translate(-183.1 -313.3)"/><path class="cls-3" d="M266.8,358.1l27,14.5h0l94.3,50.3h.4c0-.1,0-.1-.1-.2h-.2l-70.5-37.7h.1v-.2h-.2l-24.3-13h.1a.1.1,0,0,0-.1-.1h0a.1.1,0,0,1-.1-.1l-12.3-6.5h0l7.2,3.8h.4l41.2,21.8h.4s.1-.1,0-.1h0a.1.1,0,0,0-.1-.1h-.1l-40.5-21.4h.1a.1.1,0,0,0-.1-.1h-.1l-14.4-7.6h.1l116.9,61.7h.5c.1,0,.1-.1,0-.1v-.2H392l-85.9-45.3h0l3.5,1.8h.3a.1.1,0,0,1-.1-.1h0l-13.6-7.1,63.9,33.4h.5v-.2h-.3l-62.7-32.9h.1l32.7,17h.5L375.6,410h.5v-.2h-.3l-61.4-32h.1a.1.1,0,0,0-.1-.1h-.2l-34.8-18.1,10.9,5.6a.1.1,0,0,1,.1.1h.3a.1.1,0,0,0-.1-.1h-.1l-3-1.6,41.9,21.7-59.4-31Z" transform="translate(-183.1 -313.3)"/><path class="cls-7" d="M325.4,397.5,348.2,410a.1.1,0,0,0,.1.1h.3a.1.1,0,0,1,.1-.1h-.1c0-.1-.1-.1-.1-.2a.1.1,0,0,1-.1-.1l-64.5-35.6,68.9,37.9h.6a.1.1,0,0,1-.1-.1.1.1,0,0,0-.1-.1l-.2-.2-35.7-19.7h0c0-.1.1-.1,0-.1h0c0-.1,0-.1-.1-.2h-.1l-52-28.6h0l45.4,24.9h.5l14.1,7.7h.5a.1.1,0,0,1-.1-.1.1.1,0,0,0-.1-.1h-.1l-1.1-.6h0l42.5,23.1a.1.1,0,0,0,.1.1h.3a.1.1,0,0,0,.1-.1h0c0-.1,0-.1-.1-.1s0-.1-.1-.2h-.1l-39.3-21.4h-.2l-29.6-16.1,46.2,25h0a.1.1,0,0,0,.1.1h.4c0-.1-.1-.1-.1-.2h-.1a.1.1,0,0,1-.1-.1l-.5-.2,51.1,27.6h.5v-.2h-.1c0-.1,0-.1-.1-.2h-.2L265.8,359.6l-2.2,3.5Z" transform="translate(-183.1 -313.3)"/><path class="cls-7" d="M265.9,359.6l36.5,19.6h.4c0-.1,0-.1.1-.1h0l66.2,35.6h.5v-.2h-.4l-97-52.3h0l56.6,30.4h.3l-39.8-21.4h.1l4.1,2.2h.3l-27-14.5Z" transform="translate(-183.1 -313.3)"/><path class="cls-3" d="M261.2,366.8l14.2,8h.3L344,413.3h.4c.1,0,.1,0,.1-.1h0l49,27.5a.1.1,0,0,0,.1.1h.3c.1,0,.1,0,.1-.1h0c0-.1,0-.1-.1-.2h-.1c0-.1-.1-.1-.2-.2L287.5,380.4h.1l3.2,1.8h.4a.1.1,0,0,0-.1-.1h0l-14.3-8h0l1.6.9h.4l20.5,11.4h.2c.1,0,.1,0,.1-.1h0c0-.1,0-.1-.1-.1h0l-25.8-14.4h.1l44.5,24.8h.4v-.2a.1.1,0,0,1-.1-.1h-.2L289.3,379l56.8,31.4a.1.1,0,0,0,.1.1h.3a.1.1,0,0,1,.1-.1h0c0-.1-.1-.1-.1-.2h-.2l-27.7-15.3h.2c0-.1-.1-.1-.1-.2h-.2l-49.3-27.3,2.6,1.4h.1l53.5,29.4-61.8-34.4Z" transform="translate(-183.1 -313.3)"/><path class="cls-3" d="M328.6,407.5h0l46.7,26.6h.6c0-.1-.1-.1-.1-.2h-.1l-.2-.2L271.2,374.1h.1l5.3,3h.4l2.4,1.3h.2l97.7,55.2h.5v-.2h-.1c0-.1,0-.1-.1-.1s-.1-.1-.2-.2L261.1,366.9l-.9,1.4Z" transform="translate(-183.1 -313.3)"/><path class="cls-7" d="M230.8,351.4h-.1l-19.2-10.9h-.3L229,351h0l-24.6-14h0l-.7.8,21,12.1h-.1l-21-12-.2.4L237,357.9l-33.7-19.4h-.1l-.2.3,8,4.7-8-4.7-.4.4,12,7h-.1l-9.7-5.6h-.2l23.1,13.6h-.1l-25.4-14.8-.4.6,29.8,17.6h0l-12.8-7.5h-.3l-16.9-9.9h0l-.2.2,169,100.2h0v-.2h-.2c0-.1-.1-.1-.1-.2L249,368.8h0l20.6,12.1h.4L295.7,396h.2s.1.1.1,0h.1a.1.1,0,0,0,.1-.1H296l-10-5.9h0l32.1,18.7a.1.1,0,0,0,.1.1h.4l2.2,1.3h.5v-.2h-.2l-16.3-9.5h0c0-.1,0-.1-.1-.1l-28.4-16.6h.1l16.9,9.8h.5a.1.1,0,0,0-.1-.1h-.1l-24-14,27.6,15.9h.3l-18.2-10.6,57.8,33.3h.5v-.2h-.3L277.8,381h.1c0-.1,0-.1-.1-.1l-3.5-2h0l28.9,16.6h.4l85.1,48.8h.6v-.2a.1.1,0,0,0-.1-.1v-.2h-.2L257.4,367.6h.1l11.8,6.6h.3l58.6,33.4h.3a.1.1,0,0,1,.1-.1l-68.4-39.2Z" transform="translate(-183.1 -313.3)"/><path class="cls-3" d="M201.3,340.9h.1a.1.1,0,0,1,.1.1l31.9,18.8h0L214,348.8h-.3l-12.8-7.6-.3.4,34.8,20.7h0l-34.8-20.7-.6.7,13.1,7.8H213a.1.1,0,0,1,.1.1l20.4,12.2h0l13.9,8.3h0l-22.7-13.5h-.4l-24.9-14.9-.3.3,33,20H232l-11.5-6.9h-.4L207.2,349h-.3l19.9,12.1h-.1l-6.9-4.1h-.3l-21.2-12.9-.4.4,166.4,102h-.4l-50.4-30.8h-.1a.1.1,0,0,0-.1-.1L278,393.6l16.9,10.3h.4l27.8,16.8a.1.1,0,0,0,.1.1h.4c0-.1,0-.1-.1-.2h-.1a.1.1,0,0,0-.1-.1h0l-50.6-30.7,54,32.5h.4a.1.1,0,0,0,.1-.1h0l18.4,11c0,.1.1.1.2.1h.2a.1.1,0,0,0,.1-.1h0v-.2a.1.1,0,0,1-.1-.1h-.2l-52.5-31.8h.1v-.2c-.1,0-.1,0-.1-.1h-.1L274,388.6h.1l15.5,9.3h.1c.1,0,.1.1.1,0h.2l8.7,5.2a.1.1,0,0,1,.1.1h.2a.1.1,0,0,0,.1-.1h.1v-.2h-.1c-.1,0-.1,0-.1-.1l-6.8-4,84.7,50.5h.5a.1.1,0,0,0,.1-.1h0c0-.1-.1-.1-.1-.2h-.1l-.2-.2L316.6,412h.1c0-.1,0-.1-.1-.2h-.2l-23.8-14.2,4.8,2.9h.4c.1,0,.1,0,.1-.1h0l22.6,13.4a.1.1,0,0,0,.1.1h.4l9,5.3h.5l8.2,4.8h.6c0-.1-.1-.1-.1-.2h-.1a.1.1,0,0,0-.1-.1l-42.9-25.4,73.8,43.4a.1.1,0,0,0,.1.1h.3a.1.1,0,0,0,.1-.1l-169-100.2Z" transform="translate(-183.1 -313.3)"/><path class="cls-7" d="M197.6,345.4l-.2.2,37.2,22.8h-.1l-29.4-17.9h-.6l-7.6-4.6h-.1l-.2.2,31.1,19.2h-.1l-23.5-14.4h-.4c.1,0,.1,0,.1.1l6.1,3.7h-.1L196,347.3l-.5.5-.2.3,5.7,3.5h0l-5.9-3.7h0l-.3.3L211,358.8l-16.2-10.1-.5.6,134.8,85.4H329a.1.1,0,0,0-.1-.1h-.1l-38.1-24.1h0a497582161915.8,497582161915.8,0,0,0-.2-.2h0l-22-13.9h.1l35.5,22.3h.2a.1.1,0,0,0,.2,0h0a.1.1,0,0,0-.1-.1l-28-17.6h0a.1.1,0,0,0,.1-.1h-.2l-20.2-12.7h0L326.7,431h.4c0-.1,0-.1.1-.1h0v-.2H327c0-.1,0-.1-.1-.1h0l-43.8-27.4h-.2l-35-21.9h.1l101.2,62.9h.5v-.2h0c0-.1-.1-.1-.1-.2h-.2l-43.5-27.1h0l19.8,12.3h.5c-.1-.1-.1-.1-.1-.2h-.2l-69.2-42.9h0l6.3,3.8a.1.1,0,0,0,.1.1h.2a.1.1,0,0,0,.1-.1h0L285.7,402a.1.1,0,0,0,.1.1h.3a.1.1,0,0,0,.1-.1H286l-10.4-6.4h.1l18.9,11.6h.5L357.7,445h.6v-.2h-.1c0-.1-.1-.1-.1-.2h-.2l-18-11.1h0c.1,0,.1-.1,0-.1h0c0-.1-.1-.1-.1-.2h-.2l-51-31.3h.1l75,45.8h.6l-166.4-102Z" transform="translate(-183.1 -313.3)"/><path class="cls-3" d="M194.3,349.4l6.2,3.9h-.1l-6.2-3.9-.5.6,4.3,2.7h-.1l-4.3-2.7h0l-.5.5,12.4,7.8a.1.1,0,0,0-.1.1h-.1L193,350.9l-.4.4h-.1l1,.7h0l2.3,1.5h-.1a.1.1,0,0,0,.1.1l9.8,6.3-11.3-7.2h-.4l-2-1.2-.2.3,29.2,18.9h-.5l-27.3-17.6h-.3l-1.6-1-.3.4,7,4.5h0l9.1,6h0l-16.3-10.6h0L292,420.1h0a.1.1,0,0,1-.1-.1h-.2l-54.1-35.3h0l96.1,62.3h.5v-.2a.1.1,0,0,1-.1-.1h-.2l-55.8-36.3h.1l15.3,9.9h.3c.1,0,.1,0,.1-.1h0c0-.1,0-.1-.1-.1V419l-4.7-3,51,32.8h.5v-.2h-.1l-.2-.2L254.7,393l71.4,45.9h.4a.1.1,0,0,0,.1-.1h0v-.2h-.3l-43.7-28.2h.1a.1.1,0,0,0-.1-.1h-.2L251.7,390h-.1l-15-9.6h.1l66.7,42.5h.4c0-.1,0-.1.1-.1h0v-.2h-.2l-41.7-26.7h0a.1.1,0,0,0,.1-.1h0a.1.1,0,0,0-.1-.1h-.1l-14-9,110.4,70.1h.5a.1.1,0,0,1,.1-.1v-.2h-.1c0-.1-.1-.1-.1-.2h-.2l-60.7-38.6h.1c0-.1-.1-.1-.1-.2h-.1l-11-7h-.1l-34.2-21.7h0L328.6,435h.5L194.3,349.3Z" transform="translate(-183.1 -313.3)"/><path class="cls-7" d="M190.1,354.4l-.8.9,11.4,7.5h0L223.1,378H223l-34-22.3-.3.4-.4.4,22.6,15h0l-22.6-14.9-.3.3,20.5,13.8h-.1l-9.7-6.5h-.3l.9.5h-.1l-11.7-7.7v.2l-.5.5,152,103.1h.1s.1,0,0-.1v-.2h-.1l-.2-.2-6.9-4.6h0v-.2a.1.1,0,0,1-.1-.1h-.2L222,381.5h0l110.8,74.3h.6v-.2h-.1c0-.1,0-.1-.1-.2h-.1l-67.2-45.1h.1c0-.1,0-.1-.1-.2h-.1l-.8-.5h.1l74,49.4h.6c0-.1-.1-.1-.1-.2h-.1c0-.1-.1-.1-.2-.2l-37.5-25h.2v-.2h-.2l-28.7-19.2h0v-.2h-.2l-36.8-24.5h.1l4.3,2.8h.4l30.2,20h.4a.1.1,0,0,0,.1-.1h0L290.3,423h.2a.1.1,0,0,0,.1.1h.1a.1.1,0,0,0,.1-.1h-.1a.1.1,0,0,0-.1-.1l-12.4-8.2h.1l71.8,47.3h.2a.1.1,0,0,0,.1.1h.2a.1.1,0,0,1,.1-.1h0v-.4h-.2c0-.1-.1-.1-.1-.2h0l-12.9-8.4h0V452h-.1l-.2-.2-79.4-52.2h.1a.1.1,0,0,0,.1-.1h0l77.1,50.5h.5a.1.1,0,0,0,.1-.1h0c0-.1,0-.1-.1-.2a.1.1,0,0,0-.1-.1c0-.1-.1-.1-.1-.2h0l-72.6-47.5h.1l28.6,18.5a.1.1,0,0,0,.1.1h.4L190.7,353.7Z" transform="translate(-183.1 -313.3)"/><path class="cls-3" d="M186.9,358.3h-.1l16.4,11.1h0a.1.1,0,0,1,.1.1l10.4,7h0l7.3,5h0l-34.6-23.3-.8.9-.4.5,2.5,1.7h0a.1.1,0,0,0-.1.1h.1l12.9,8.8h0l2.7,1.8h-.1l-18.4-12.5-.3.4h0l.6.4H185l-.6-.4-.5.6,23.9,16.6h0l-24-16.5-.3.3,10.5,7.3h0l-10.5-7.2-.4.4,110.2,77.4h0v-.2h-.1L270,423.5h0a.1.1,0,0,1,.1-.1c0-.1-.1-.1-.1-.2h-.2l-31.9-22.3h0l28.5,19.7h.5c0-.1,0-.1-.1-.2h0a.1.1,0,0,1-.1-.1h0l-39.9-27.7,45.8,31.7h.2s.1.1.1,0h.2L285,432h.4a.1.1,0,0,0,.1-.1h0l36.1,24.8a.1.1,0,0,0,.1.1h.3a.1.1,0,0,0,.1-.1h0v-.2c0-.1-.1-.1-.1-.2h-.2l-57.5-39.7h.1l4.7,3.2h.5l11.3,7.8h.3a.1.1,0,0,0,.1-.1h.1V427h-.1a.1.1,0,0,0-.1-.1l-12.9-8.9h0l-24.6-16.9,20.2,13.8h.3c0-.1,0-.1-.1-.1L228,389h.1l11.5,7.7h.3l94.3,64h.5v-.4h-.3l-82.7-56.3h.1L326.3,454h.1a.1.1,0,0,0,.1.1h.4v-.2h0c-.1-.1-.1-.1-.1-.2h-.2l-38.3-25.9h0l50.2,33.8h.4l-152-103.1Z" transform="translate(-183.1 -313.3)"/><path class="cls-8" d="M253.3,329.6h-.2l24.4,11.7.2-.3Z" transform="translate(-183.1 -313.3)"/><path class="cls-8" d="M222.4,315.4l-.4.5,45.5,22h-.1L221.9,316l-.2.2h0l20.9,10.2.5.2.6.2.5.2.5.3.5.2.4.3.5.2.4.3,14,6.8h-.1l-13.1-6.3.4.3.4.3.4.3.3.3,24.7,12.1h0c0,.1,0,.1.1.1h.1l2.5,1.2,1.2-1.9Z" transform="translate(-183.1 -313.3)"/><path class="cls-8" d="M240.7,325.8l.5.2h.4l-9.3-4.5h-.2l7.7,3.7h.9Z" transform="translate(-183.1 -313.3)"/><path class="cls-8" d="M278.5,339.1h0l.5.2v-.2l-4.5-2.1-12.9-6.1h0l-37.6-17.6-.4.5,19,9h-.1l-19-9-.2.2h0l11.3,5.4h-.1a.1.1,0,0,0,.1.1h0L269,336.2h0a.1.1,0,0,0,.1.1h0l8.9,4.3,1-1.5Z" transform="translate(-183.1 -313.3)"/><path class="cls-8" d="M227.6,316.8h-.2l50.3,24.2.3-.5Z" transform="translate(-183.1 -313.3)"/><path class="cls-8" d="M235.2,325.3h.4l-15.2-7.4h-.1l-.2.3h.1l14.6,7.2h.4Z" transform="translate(-183.1 -313.3)"/><polygon class="cls-8" points="66 22.9 66.3 23.9 67.8 24.6 68.5 24.1 66 22.9"/><path class="cls-8" d="M236.3,325.3h.4L234,324h-.3a.1.1,0,0,0,.1.1l2,1h.5Z" transform="translate(-183.1 -313.3)"/><path class="cls-8" d="M276.1,343.8,264.2,338h-.4c0,.1,0,.1.1.1h0l1.6.8h0l-14.8-7.1.3.4a.5.5,0,0,1,.2.4l.3.4c.1.1.1.2.2.4l8.1,3.9h0l-8-3.9c0,.2.1.3.1.4a.8.8,0,0,1,.2.4l.2.3c0,.2.1.3.1.4s-.1-.3-.2-.4l-.3-.4c-.1-.2-.2-.3-.2-.4l-.3-.5-6.4-3h-.3l-6.5-3.2H236l18.8,9.3h-.1l-18.9-9.4h-1.6l10.5,5.3h0L234,328.1h-.6l15.2,7.6.3-.7.2,1,2.5,1.2,1.2-1-.5,1.4h0l-.3.8,1.6.7,2.4-.5-1.4,1,18.1,9.2.4-.6Z" transform="translate(-183.1 -313.3)"/><path class="cls-8" d="M231.4,325.9h.5L219,319.4v.2l-.3.3,12.3,6.2h.5Z" transform="translate(-183.1 -313.3)"/><path class="cls-8" d="M230.1,326.4h.2l-8.5-4.3h-.2l8.2,4.2a.1.1,0,0,1,.1-.1Z" transform="translate(-183.1 -313.3)"/><path class="cls-8" d="M233,325.5h.9l-14.1-6.9-.4.4,1.9,1h0l-1.9-.9-.3.3,13,6.4h.9Z" transform="translate(-183.1 -313.3)"/><path class="cls-8" d="M250.3,332.4l-.5-.5-.6-.5-7-3.4h-1.5l5.4,2.6h0l-5.6-2.8h-1.2l12,5.9c-.2-.1-.3-.3-.5-.5Z" transform="translate(-183.1 -313.3)"/><path class="cls-8" d="M233.3,328.3h-.4c-.1,0-.2,0-.2.1h-.3l16,8,.2-.7Z" transform="translate(-183.1 -313.3)"/><path class="cls-8" d="M229.5,330.6h-.1c-.1,0-.1,0-.1.1h-.2l13.8,7.1-.9-.9Z" transform="translate(-183.1 -313.3)"/><path class="cls-8" d="M229.3,326.7h.4l-7-3.5h-.3l.8.4h-.1a.1.1,0,0,1,.1.1h0l5.7,2.9h.4Z" transform="translate(-183.1 -313.3)"/><polygon class="cls-8" points="65.1 24 62.5 22.7 64.7 25.2 65.1 24"/><path class="cls-8" d="M243.4,338.6l-14.5-7.5h-.3l2.5,1.3h.1l13.3,6.9h.2Z" transform="translate(-183.1 -313.3)"/><path class="cls-8" d="M259.5,342.5h-.2l13.1,6.6.3-.4Z" transform="translate(-183.1 -313.3)"/><path class="cls-8" d="M226.4,328.6c0-.1.1-.1.1-.2h.2L216.1,323l-.2.2-.2.2,10.5,5.4c0-.1,0-.1.1-.1Z" transform="translate(-183.1 -313.3)"/><polygon class="cls-8" points="73.8 28.4 71 27 69.8 27.9 73.8 28.4"/><path class="cls-8" d="M225.9,329a.1.1,0,0,0,.1-.1h.1l-10.5-5.4h0l-.2.2,10.4,5.4h0C225.9,329.1,225.9,329.1,225.9,329Z" transform="translate(-183.1 -313.3)"/><polygon class="cls-8" points="69.5 26.2 68.7 25.8 68.5 26.4 69.5 26.2"/><path class="cls-8" d="M225.4,329.6a.1.1,0,0,1,.1-.1h0l-10.3-5.3-.3.3,10.3,5.4h.2Z" transform="translate(-183.1 -313.3)"/><path class="cls-8" d="M227.6,327.6h.4l-11-5.6-.2.4h-.1l9.8,5h.1l.6.3h.2Z" transform="translate(-183.1 -313.3)"/><path class="cls-8" d="M230.1,330.1h-.6l12.4,6.4h-.1l2.7,1.4,1.4.8-.2-1Z" transform="translate(-183.1 -313.3)"/><path class="cls-8" d="M231.6,329c0,.1-.1.1-.2.2h-.3l-.2.2h-.2l5.2,2.7h-.1a.1.1,0,0,0,.1.1h0l8.9,4.6h0a.1.1,0,0,0,.1.1l.7.4-.5-2.1Z" transform="translate(-183.1 -313.3)"/><polygon class="cls-8" points="67.2 25.1 66.5 24.7 66.7 25.5 67.2 25.1"/><polygon class="cls-8" points="66.6 32.4 66.6 32.4 66.6 32.4 66.6 32.4"/><path class="cls-8" d="M224.5,330.8h.2l-10.4-5.4-.3.3,10.4,5.4Z" transform="translate(-183.1 -313.3)"/><path class="cls-8" d="M224.8,330.4h0c.1,0,.1,0,.1-.1l-4.8-2.4c0-.1,0-.1-.1-.1h-.2a.1.1,0,0,1,.1.1h0l4.8,2.5h.1Z" transform="translate(-183.1 -313.3)"/><path class="cls-8" d="M244.3,343l-4.5-.6,2.3-.5-3.8-2h-.4l-10.7-5.7c0,.1,0,.1-.1.2v.4h0l9.5,5.1h0l-9.5-5h0c0,.1,0,.2-.1.2v.2h.2l15.7,8.4,1.7-1.3Z" transform="translate(-183.1 -313.3)"/><path class="cls-8" d="M223.6,332.8v-.4l-5.9-3.1h-.3a.1.1,0,0,0,.1.1l3.4,1.8h-.1l2.6,1.4c.1-.1.1-.1.1-.2Z" transform="translate(-183.1 -313.3)"/><path class="cls-8" d="M240,339.3l3.5.5L228.3,332c-.1,0-.1.1-.1.2H228c0,.1,0,.2-.1.2s0,.1-.1.2l7.9,4.2h.1l.7.4h.1l6.9,3.7.6-.2Z" transform="translate(-183.1 -313.3)"/><path class="cls-8" d="M270,353.2l2.4-3.7L257.3,342l-2.6.5,6.2,3.2h-.1l-6.2-3.2-1.3.3,4.5,2.3-4.9-.8.6.7,3.3,1.7-3.3-1.7,2.5,2.7-4.5-2.4.2.6,12.9,6.7h-.1l-7.1-3.6h0c0-.1,0-.1-.1-.1h-.2l-5.3-2.7.2.6,11.2,5.9L252,347.1l.7,2.2-2.9-3.4h-.1l-1.1,3.5-1-3.9-1.1,1,1.2.6h-.1l-1.2-.7-1.9,1.6.8-2.1-1.7-.9-2.2.5,1.3-1-14.6-7.8h-.3a.1.1,0,0,1-.1.1h0c0,.1,0,.1.1.1h0l12.4,6.6h-.1l-13.2-7.1v.7c0,.2.1.4.1.6a6.4,6.4,0,0,0,.2.7,2.5,2.5,0,0,0,.2.7L252,352.6h0l-8-4.3h-6l2.3,1.3h0l16.9,9.3h.1l5.3,2.9h-.1l-.7-.4h0l-26-14.3-1.4-.4-1.3-.4-1.2-.5-1.3-.7-1.1-.6-1-.8-1-.8a6,6,0,0,1-.8-.8l-13.5-7.4h-.3l4.5,2.5h-.1l38.6,21.5h-.1l-1.3-.7h-.2l-47-26-.3.4h-.1l13.4,7.5h.1l30,16.9h0l-19-10.5h-.2a.1.1,0,0,0-.1.1l-24.7-13.9-.4.6,11.7,6.6-11.8-6.6-.2.4L231,350h0l8.5,4.9-23.7-13.4h-.1a.1.1,0,0,0-.1-.1.1.1,0,0,1-.1.1h0L205.3,336l-.3.4,27.5,15.7h-.1l-1.4-.7h-.2l29.4,16.9.9-1.4-.9-.5h.1l.9.5,2.4-3.7,2.2-3.5-2.4-1.3h.1l2.4,1.3.9-1.5Z" transform="translate(-183.1 -313.3)"/><polygon class="cls-8" points="60.7 31.6 62.2 32.4 62.7 31.1 60.7 31.6"/><path class="cls-8" d="M223.5,333.3h0l-11-5.8v.2h-.1l11.1,6c0-.1,0-.1.1-.2Z" transform="translate(-183.1 -313.3)"/><path class="cls-8" d="M223.3,335.9v-1.2l-11.8-6.2-.2.3,4.3,2.3h0l-4.4-2.3-.2.3-.7.8,13.1,7.1a1.3,1.3,0,0,0-.1-.6Z" transform="translate(-183.1 -313.3)"/><path class="cls-8" d="M223.8,338.5a6181264102579.6,6181264102579.6,0,0,1-.2-.6h-.1l-13.7-7.4-.4.5h0l14.7,8-.2-.3A.4.4,0,0,0,223.8,338.5Z" transform="translate(-183.1 -313.3)"/><path class="cls-8" d="M224.7,340.4l-.3-.6-.3-.5-14.8-8.1h-.1l-.7.8,16.8,9.3-.3-.5Z" transform="translate(-183.1 -313.3)"/><path class="cls-8" d="M239.3,348.1l1.9.2H243L227.7,340a4917165483453.8,4917165483453.8,0,0,1,.4.8.8.8,0,0,0,.2.4.8.8,0,0,1,.2.4h0l.7.9.8.9.8.8,1,.8,3.8,2,1.8.7Z" transform="translate(-183.1 -313.3)"/><path class="cls-9" d="M245.6,327.8l-.4-.3-.5-.2-.5-.3-.5-.2-.6-.2-.5-.2,3.9,1.9-.4-.3Z" transform="translate(-183.1 -313.3)"/><path class="cls-9" d="M248.1,329.4l-.4-.3-.4-.3-5.7-2.7h-.4l-.5-.2h-.9l9,4.4-.3-.3Z" transform="translate(-183.1 -313.3)"/><path class="cls-9" d="M239.9,327.6h.6l-4.9-2.3h-.8l4.5,2.2h.6Z" transform="translate(-183.1 -313.3)"/><path class="cls-9" d="M241.5,327.8h.7l-5.5-2.7h-.9l4.9,2.4h.8Z" transform="translate(-183.1 -313.3)"/><path class="cls-9" d="M235,327.8h.8l-3.9-1.9h-1l1.6.8h0l1.7.8h.8Z" transform="translate(-183.1 -313.3)"/><path class="cls-9" d="M233.7,328.2h.3l-3.7-1.8h-.4a.1.1,0,0,0-.1.1l3.6,1.8h.3Z" transform="translate(-183.1 -313.3)"/><path class="cls-9" d="M251.2,332.9a.5.5,0,0,0-.2-.4l-.3-.4-1.5-.7.6.5.5.5.5.5c.2.2.3.4.5.5l.4.3c-.1-.2-.1-.3-.2-.4Z" transform="translate(-183.1 -313.3)"/><path class="cls-9" d="M251.9,334.4l.3.4c.1.1.1.3.2.4s-.1-.2-.1-.4l-.2-.3a.8.8,0,0,0-.2-.4c0-.1-.1-.2-.1-.4l-.4-.2.3.5C251.7,334.1,251.8,334.2,251.9,334.4Z" transform="translate(-183.1 -313.3)"/><path class="cls-9" d="M237.1,327.5h1.1l-4.3-2.1h-1.8l3.9,2h1.1Z" transform="translate(-183.1 -313.3)"/><path class="cls-9" d="M229.8,330.3h.3l-3.4-1.8h-.2c0,.1-.1.1-.1.2h-.1c-.1,0-.1,0-.1.1l3.3,1.7h.3Z" transform="translate(-183.1 -313.3)"/><path class="cls-9" d="M229.3,330.8c0-.1,0-.1.1-.1h.1l-3.4-1.7H226a.1.1,0,0,1-.1.1c0,.1,0,.1-.1.1h0l3.3,1.7h.2Z" transform="translate(-183.1 -313.3)"/><path class="cls-9" d="M228.8,331.3h.1l-3.4-1.7h0a.1.1,0,0,0-.1.1h-.2l3.4,1.7h.2Z" transform="translate(-183.1 -313.3)"/><path class="cls-9" d="M231.1,329.3h.3c.1-.1.2-.1.2-.2h-.4l-3.2-1.6h-.4l-.2.2h-.2l3.5,1.7h.2Z" transform="translate(-183.1 -313.3)"/><path class="cls-9" d="M232.9,328.5h.4l-3.6-1.8h-.8l3.5,1.8h.3C232.7,328.5,232.8,328.5,232.9,328.5Z" transform="translate(-183.1 -313.3)"/><path class="cls-9" d="M228,332.3h.2c0-.1,0-.2.1-.2l-3.4-1.8c0,.1,0,.1-.1.1h-.1l3.1,1.6-3.1-1.6h-.3l3.4,1.8c.1-.1.1-.1.1-.2S228,332.4,228,332.3Z" transform="translate(-183.1 -313.3)"/><path class="cls-9" d="M227.1,334.6v-.2c.1-.1.1-.1.1-.2l-3.5-1.8v.4h0c0,.1,0,.1-.1.2l3.5,1.8h0Z" transform="translate(-183.1 -313.3)"/><path class="cls-9" d="M226.9,335.3c.1,0,.1-.1.1-.2h0l-3.5-1.9h0c-.1.1-.1.1-.1.2h.2l3.3,1.7h0Z" transform="translate(-183.1 -313.3)"/><path class="cls-9" d="M240.5,348.5h.7l-1.9-.2-1.9-.4-1.8-.7,2.4,1.4h2.5Z" transform="translate(-183.1 -313.3)"/><path class="cls-9" d="M228.1,340.8a4917165483453.8,4917165483453.8,0,0,0-.4-.8l-3.9-2h-.2a6181264102579.6,6181264102579.6,0,0,0,.2.6.4.4,0,0,1,.1.3l.2.3,4.4,2.5a.8.8,0,0,0-.2-.4A.8.8,0,0,1,228.1,340.8Z" transform="translate(-183.1 -313.3)"/><path class="cls-9" d="M227,337.9c0-.2-.1-.4-.1-.6v-.7l-3.6-1.9v1.8a1.3,1.3,0,0,1,.1.6l4,2.2a2.5,2.5,0,0,1-.2-.7A6.4,6.4,0,0,1,227,337.9Z" transform="translate(-183.1 -313.3)"/><path class="cls-9" d="M230,343.4l-.8-.9-.7-.9h0l-4.4-2.4.3.5.3.6.3.5.3.5,6.5,3.6-1-.8Z" transform="translate(-183.1 -313.3)"/><path class="cls-9" d="M228.5,344.6l1,.8,1.1.6,1.3.7,1.2.5,1.3.4,1.4.4-9.1-5a6,6,0,0,0,.8.8Z" transform="translate(-183.1 -313.3)"/><polygon class="cls-9" points="65.5 22.6 65.3 23.4 66.3 23.9 66 22.9 65.5 22.6"/><polygon class="cls-9" points="68.5 24.1 69.2 24.4 69.7 23.1 68.5 24.1"/><polygon class="cls-9" points="65.5 22.6 66 22.8 65.8 21.9 65.5 22.6"/><polygon class="cls-9" points="70.5 26 71.5 26.5 72.9 25.4 70.5 26"/><polygon class="cls-9" points="68.5 24.1 67.8 24.6 69 25.2 69.2 24.5 68.5 24.1"/><path class="cls-9" d="M257.8,345.1l-4.5-2.3,1.3-.3-8.9-4.5.2,1,3.1,1.5h-.1l-6.9-3.5.9.9,3.5,1.8h-.1l-2.9-1.5,1.3,1.4h-.2l7.5,3.9h0l1.5.8-.6-.7Z" transform="translate(-183.1 -313.3)"/><polygon class="cls-9" points="58.8 23.5 61.4 24.9 58.7 23.5 58.8 23.5"/><polygon class="cls-9" points="73.8 28.4 69.8 27.9 71 27 69.5 26.2 68.5 26.4 68.7 25.8 67.2 25.1 66.7 25.5 66.5 24.7 65.1 24 64.7 25.2 62.5 22.7 62 22.5 62.6 24.5 71.6 29.2 74.3 28.6 73.8 28.4"/><polygon class="cls-9" points="61.2 29.7 59 28.5 56.7 29 61.2 29.7"/><polygon class="cls-9" points="72.9 34.4 70.4 31.7 60.4 26.5 56.9 25.9 61.1 28.1 60.4 28.2 68.6 32.5 68.5 32 72.9 34.4"/><path class="cls-9" d="M246.1,343.4h-.2l3.8,2h0L252,347l-.2-.6Z" transform="translate(-183.1 -313.3)"/><polygon class="cls-9" points="68.9 33.7 66.7 32.5 69.6 35.9 68.9 33.7"/><polygon class="cls-9" points="65.5 36 66.6 32.5 61.4 29.8 59.7 31.1 60.7 31.6 62.7 31.1 62.2 32.4 63.4 33 64.5 32.1 65.5 36"/><polygon class="cls-9" points="63.3 33.1 62.2 32.5 61.4 34.6 63.3 33.1"/><polygon class="cls-9" points="60.5 31.6 59.6 31.1 58.3 32.1 60.5 31.6"/></g></g></g><path class="cls-2" d="M316,354.2H234.2a7.2,7.2,0,0,0-7.3,7.3v55a7.3,7.3,0,0,0,7.3,7.3H316a7.4,7.4,0,0,0,7.4-7.3v-55A7.3,7.3,0,0,0,316,354.2Zm1.2,63.6H233V359.7h84.2Z" transform="translate(-183.1 -313.3)"/><rect class="cls-2" x="83.5" y="110.5" width="17.1" height="10.04"/><path class="cls-2" d="M292.1,444.7H258c-.1-.6-1.1-5,1.8-8.3a9.9,9.9,0,0,1,4.1-2.6h22.7a8,8,0,0,1,4.2,2.7A9.4,9.4,0,0,1,292.1,444.7Z" transform="translate(-183.1 -313.3)"/><rect class="cls-3" x="48.5" y="45.6" width="86.9" height="59.58"/><rect class="cls-2" x="90.6" y="71" width="7" height="16.67" rx="2.3"/><rect class="cls-2" x="273.6" y="384.3" width="7" height="16.67" rx="2.3" transform="translate(-298.6 356.4) rotate(-90)"/><path class="cls-2" d="M301.2,374.5H253.3a1.8,1.8,0,0,0-1.8,1.8v32.2a1.8,1.8,0,0,0,1.8,1.8h47.9a1.8,1.8,0,0,0,1.8-1.8V376.3A1.8,1.8,0,0,0,301.2,374.5Zm-24,32a14.1,14.1,0,1,1,14.1-14.1A14.1,14.1,0,0,1,277.2,406.5Z" transform="translate(-183.1 -313.3)"/><path class="cls-10" d="M283.7,367.2H271.5a2.5,2.5,0,0,0-2.5,2.4v5.1h4v-3.3h8.2v3.3h4.3V369A1.8,1.8,0,0,0,283.7,367.2Z" transform="translate(-183.1 -313.3)"/></svg>