<svg id="Layer_1" data-name="Layer 1" xmlns="http://www.w3.org/2000/svg" xmlns:xlink="http://www.w3.org/1999/xlink" viewBox="0 0 223.3 157"><defs><style>.cls-1{fill:none;}.cls-2{fill:#0453a5;}.cls-3{fill:#fff;}.cls-4{opacity:0.29;}.cls-5{clip-path:url(#clip-path);}.cls-6{clip-path:url(#clip-path-2);}.cls-7{fill:#e82327;}.cls-8{fill:#272870;}.cls-9{fill:#fbca0c;}.cls-10{fill:#e53230;fill-rule:evenodd;}</style><clipPath id="clip-path" transform="translate(-227 -475.3)"><path class="cls-1" d="M394.6,554.6a75.6,75.6,0,0,1-142.9,34.5h0a75.6,75.6,0,1,1,142.9-34.5Z"/></clipPath><clipPath id="clip-path-2" transform="translate(-227 -475.3)"><rect class="cls-1" x="235.1" y="513.1" width="213.7" height="142.49" transform="translate(237.3 -84.6) rotate(21.4)"/></clipPath></defs><title>e-medical</title><path class="cls-2" d="M396.7,554.6a77.8,77.8,0,0,1-146.9,35.5h0A77.8,77.8,0,0,1,319,476.9a77.6,77.6,0,0,1,77.7,77.7Z" transform="translate(-227 -475.3)"/><path class="cls-3" d="M394.6,554.6a75.6,75.6,0,0,1-142.9,34.5h0a75.6,75.6,0,1,1,142.9-34.5Z" transform="translate(-227 -475.3)"/><g class="cls-4"><g class="cls-5"><g class="cls-6"><path class="cls-7" d="M335.9,507.3h.3L323,501.1v.2Z" transform="translate(-227 -475.3)"/><path class="cls-7" d="M395.2,542.4h-.3l-2.1-1,28,13.5a.1.1,0,0,0,.1.1h.3a.1.1,0,0,1,.1-.1h0a497582161916,497582161916,0,0,1-.2-.2h-.2l-92.6-45.1,56.3,27.2a.1.1,0,0,1,.1.1h.2a.1.1,0,0,1,.1-.1h0a497582161916,497582161916,0,0,1-.2-.2L327.3,508h0l47.3,22.8h.5a.1.1,0,0,0-.1-.1h-.2l-40.7-19.6h.1l91.2,43.8h.3c.1,0,.1,0,.1-.1h.1c0-.1,0-.1-.1-.2h-.1a.1.1,0,0,1-.1-.1l-26.9-12.9h-.2l-23.2-11.2h0l62.2,29.8h.6a.1.1,0,0,1-.1-.1h-.3L391,536.3h.1l23,10.9h.4a.1.1,0,0,0,.1-.1h0a.1.1,0,0,0-.1-.1c0-.1,0-.1-.1-.1h-.1l-45-21.5,25.4,12h.5l43.2,20.5h.5v-.2h-.3l-52.8-25.1h.2l2.2,1.1h.3a.1.1,0,0,0,.1-.1h.1L441,557.8h.3c.1,0,.1,0,.1-.1h.1v-.2h-.1a.1.1,0,0,0-.1-.1h-.2l-118.2-56-1,1.5,1.5.7-1.5-.7-.3.5,1.2.5-1.2-.5-.2.3,2.9,1.5h0l-3-1.4-1.2,1.9,12.7,6.2h0l62.4,30.5Z" transform="translate(-227 -475.3)"/><path class="cls-3" d="M450.3,575.8h-.4L336.5,518.8h.2l46,22.9h.1a.1.1,0,0,0,.1.1h.3L446.5,573c0,.1.1.1.2.1h.3c0-.1,0-.1-.1-.2a.1.1,0,0,0-.1-.1h-.2l-8.8-4.4h.2a.1.1,0,0,0-.1-.1c0-.1-.1-.1-.1-.2h-.2l-69.4-34.4h0a.1.1,0,0,0-.1-.1H368l-27.8-13.8h0l26.9,13.3h.3c.1,0,.1,0,.1-.1h-.1l-4.3-2.1h0l10.4,5.1h.2l70.1,34.3h.6c-.1-.1-.1-.1-.1-.2H444l-69.9-34.3h.1l3.7,1.8h.4a.1.1,0,0,0,.1-.1h-.3l-6.2-3.1h.2l44.6,21.7h.5c0-.1,0-.1-.1-.2H417a.1.1,0,0,1-.1-.1l-21.7-10.5h0L332.8,512h.1L320,505.8l-3,4.6L393.3,549h-.2a.1.1,0,0,0-.1-.1l-35.7-17.9h.1L443,573.6h.5l-.2-.2h-.1L328.1,515.3,449.7,576h.4a.1.1,0,0,0,.1-.1h.1Z" transform="translate(-227 -475.3)"/><path class="cls-7" d="M316.6,511l5.4,2.7h0l-5.4-2.6-.3.4,3.4,1.7h0l-3.4-1.7-2.4,3.7,59.4,31,56.4,29.1h.5c.1,0,.1-.1,0-.1h0c-.1-.1-.1-.1-.1-.2h-.2L322.1,519h0l39,20.1h.3a.1.1,0,0,0,.1-.1h-.2l-10.5-5.4,41.7,21.4h.5l14.5,7.5h.4a.1.1,0,0,0,.1-.1h-.1c0-.1,0-.1-.1-.1a.1.1,0,0,0-.1-.1l-22.4-11.6h.1L446.1,581a.1.1,0,0,1,.1.1h.2c.1,0,.1,0,.1-.1s.1,0,.1-.1h-.1c0-.1-.1-.1-.1-.2h-.2l-76.3-39.1h-.1l-4.7-2.4h.1l6.4,3.3h.2l-17.6-9h0c0-.1,0-.1-.1-.1H354l-29.4-15,9.9,5h.3l92,46.7h.4c.1,0,.1,0,.1-.1h0a.1.1,0,0,0-.1-.1c0-.1,0-.1-.1-.1s-.1-.1-.1-.2l-68.2-34.5h.2a.1.1,0,0,0-.1-.1h-.2l-16.9-8.6h0l13.6,6.8a.1.1,0,0,1,.1.1h.1a.1.1,0,0,0,.1-.1h.1a497582161916.3,497582161916.3,0,0,1-.2-.2h0L333,519.1h.1l59.7,30h.5L317,510.4Z" transform="translate(-227 -475.3)"/><path class="cls-3" d="M310.7,520.1l27,14.6h0L432,584.9h.1c.1,0,.2.1.2,0h.1c.1,0,.1,0,.1-.1h0a.1.1,0,0,0-.1-.1c0-.1,0-.1-.1-.2h-.2l-70.5-37.7h0c0-.1.1-.1,0-.1h0c0-.1,0-.1-.1-.2h-.1l-24.3-13h.1a.1.1,0,0,0-.1-.1H337l-12.3-6.5h0l7.2,3.8h.4l41.2,21.8h.2l-40.5-21.4h.1a.1.1,0,0,0-.1-.1h-.1l-14.4-7.6h0l117,61.7h.5c.1,0,.1-.1,0-.1v-.2h-.3L350,537.7h0l3.5,1.8h.4c-.1,0-.1,0-.1-.1a.1.1,0,0,1-.1-.1h0l-13.6-7.1L404,565.2h.5v-.2a.1.1,0,0,1-.1-.1h-.2l-62.7-32.9h.1l32.7,17h.5L419.5,572h.5c-.1-.1-.1-.1-.1-.2h-.2l-61.4-32h-.2l-34.8-18.1,10.9,5.6a.1.1,0,0,1,.1.1h.1l-3-1.6,41.9,21.7-59.4-31Z" transform="translate(-227 -475.3)"/><path class="cls-7" d="M369.3,559.5l22.8,12.6h.4a.1.1,0,0,1,.1-.1h-.1c0-.1-.1-.1-.1-.2a.1.1,0,0,1-.1-.1l-64.5-35.6,68.9,37.9h.2c.1,0,.1.1.2,0h.1c.1,0,.1,0,.1-.1a.1.1,0,0,1-.1-.1.1.1,0,0,0-.1-.1h-.2l-35.7-19.8h-.1a.1.1,0,0,0-.1-.1h0l-52-28.6h0l45.4,24.9h.5l14.1,7.7h.1c.1,0,.1.1.2,0h.1c.1,0,.1,0,.1-.1s-.1,0-.1-.1a.1.1,0,0,0-.1-.1h-.1l-1.1-.6h0l42.5,23.1h.5c0-.1,0-.1-.1-.1s0-.1-.1-.2h-.1l-39.3-21.4h0a.1.1,0,0,1-.1-.1h-.1l-29.6-16.1,46.2,25h.4a.1.1,0,0,0,.1-.1h-.1c0-.1-.1-.1-.1-.2h-.1l-.5-.2,51.1,27.6h.5v-.2a.1.1,0,0,0-.1-.1v-.2h-.2L309.7,521.6l-2.2,3.6Z" transform="translate(-227 -475.3)"/><path class="cls-7" d="M309.8,521.6l36.5,19.6h.5l66.1,35.6c.1,0,.2,0,.2.1h.2a.1.1,0,0,0,.1-.1h.1v-.2h-.2c0-.1-.1-.1-.2-.1h0l-97-52.3h0l56.6,30.4h.4c.1,0,.1,0,.1-.1H373l-39.8-21.4h.1l4.1,2.2h.3l-27-14.6Z" transform="translate(-227 -475.3)"/><path class="cls-3" d="M305.1,528.8l14.2,8h.3l68.3,38.5h.2a.1.1,0,0,0,.2,0h.1l48.9,27.5h.6c0-.1,0-.1-.1-.2a.1.1,0,0,0-.1-.1l-.2-.2L331.4,542.4h.1l3.2,1.8h.3l-14.3-8h0l1.6.9h.4l20.5,11.4h.4c0-.1,0-.1-.1-.1a.1.1,0,0,0-.1-.1h0l-25.8-14.4h.1l44.5,24.8h0a.1.1,0,0,1,.1.1h.2a.1.1,0,0,1,.1-.1h0c.1-.1.1-.1.1-.2a.1.1,0,0,1-.1-.1h-.2L333.2,541,390,572.4a.1.1,0,0,0,.1.1h.3a.1.1,0,0,1,.1-.1h0c0-.1-.1-.1-.1-.2h-.2l-27.7-15.3a.1.1,0,0,0,.1-.1h.1c0-.1-.1-.1-.1-.2h-.2l-49.3-27.3,2.6,1.4h.1l53.5,29.4-61.8-34.3Z" transform="translate(-227 -475.3)"/><path class="cls-3" d="M372.5,569.5h0l46.7,26.6h.6c0-.1-.1-.1-.1-.2h-.1l-.2-.2L315.1,536.1h.1l5.3,3h0a.1.1,0,0,0,.1.1h.3l2.4,1.3h0a.1.1,0,0,0,.1.1h.1l97.6,55.2h.5a.1.1,0,0,0,.1-.1v-.2h-.1a.1.1,0,0,0-.1-.1c0-.1-.1-.1-.2-.2L305,528.9l-.9,1.4Z" transform="translate(-227 -475.3)"/><path class="cls-7" d="M274.7,513.4h-.1l-19.2-10.9h-.3L272.9,513h0l-24.6-14h0l-.7.8,21,12.1h-.1l-21-12.1-.2.4,33.6,19.5-33.7-19.4h-.1l-.2.3,8,4.7-8-4.7-.4.4,11.9,7h0l-9.7-5.6h-.3c-.1.1-.1.1,0,.1h.1l23.1,13.6h-.1l-25.4-14.8-.4.6,29.8,17.6h0l-12.8-7.5h-.3l-16.9-9.9h0l-.2.2,169,100.2h0v-.2a.1.1,0,0,0-.1-.1c0-.1-.1-.1-.1-.2L292.9,530.8h0l20.6,12.1h.1a.1.1,0,0,0,.2,0h.1L339.6,558h.2a.1.1,0,0,0,.1.1.1.1,0,0,1,.1-.1.1.1,0,0,0,.1-.1h0c-.1,0-.1,0-.1-.1a.1.1,0,0,1-.1-.1l-10-5.9h0L362,570.3h.5l2.2,1.3h.5v-.2a497582161916.5,497582161916.5,0,0,0-.2-.2l-16.3-9.5h.1a.1.1,0,0,0,.1-.1h-.1c0-.1,0-.1-.1-.1s0-.1-.1-.1l-28.4-16.6h.1l16.9,9.8h.4c0-.1,0-.1.1-.1h0a.1.1,0,0,0-.1-.1h-.1l-24-14,27.6,15.9h.4a.1.1,0,0,1,.1-.1h-.2l-18.2-10.6L381,577.9h.5v-.2h-.3L321.7,543h.2a497582161916.3,497582161916.3,0,0,0-.2-.2l-3.5-2h0l28.9,16.6h.4l85.1,48.8h.6v-.2a.1.1,0,0,0-.1-.1c0-.1-.1-.1-.1-.2h-.2L301.3,529.6h.1l11.8,6.6a.1.1,0,0,1,.1.1h.2l58.6,33.4h.1a.1.1,0,0,0,.1.1h.2l-68.4-39.2Z" transform="translate(-227 -475.3)"/><path class="cls-3" d="M245.2,502.9h.1a.1.1,0,0,1,.1.1l31.9,18.8h0l-19.4-11.3h-.3l-12.8-7.6-.3.4,34.8,20.7h0l-34.8-20.7-.6.7,13.1,7.8h0l20.4,12.2h-.1a.1.1,0,0,1,.1.1l13.9,8.3h0l-22.7-13.5h-.4l-24.9-14.9-.3.3,33,20h-.1l-11.5-6.9a.1.1,0,0,1-.1-.1h-.1a.1.1,0,0,1-.1.1H264L251.1,511h-.3l19.9,12.1h-.1l-6.9-4.1c0-.1,0-.1-.1-.1h-.1a.1.1,0,0,0-.1.1l-21.2-12.9-.4.4,166.4,102h-.1a.1.1,0,0,1-.1-.1h-.2l-50.4-30.8h-.2l-35.3-21.6,16.9,10.3h.4L367,582.7h.5c0-.1,0-.1-.1-.2h-.2l-50.6-30.7,54,32.5h.4a.1.1,0,0,0,.1-.1h0l18.4,11a.1.1,0,0,0,.1.1h.3a.1.1,0,0,0,.1-.1h0v-.2a.1.1,0,0,1-.1-.1h-.2l-52.5-31.8h.1v-.2h-.1c-.1,0-.1,0-.1-.1h0l-19.2-11.5h.1l15.5,9.3h.3c.1,0,.1,0,.1-.1h0l8.7,5.2h.5v-.2c-.1,0-.1,0-.1-.1h-.1l-6.8-4,84.7,50.5h.4a.1.1,0,0,1,.1-.1h.1c0-.1-.1-.1-.1-.2h-.1l-.2-.2L360.5,574h.1v-.2h-.1a.1.1,0,0,0-.1-.1h0l-23.8-14.2,4.8,2.9h.2a.1.1,0,0,0,.1.1h.1c.1,0,.1,0,.1-.1h0l22.6,13.4a.1.1,0,0,0,.1.1h.4l9,5.3h.4a.1.1,0,0,0,.1-.1h0l8.2,4.8h.6c0-.1-.1-.1-.1-.2h-.2L340,559.5l73.8,43.4a.1.1,0,0,0,.1.1h.4l-169-100.2Z" transform="translate(-227 -475.3)"/><path class="cls-7" d="M241.5,507.4l-.2.2,37.2,22.8h-.1L249,512.6h-.2a.1.1,0,0,1-.1.1h-.3l-7.6-4.6h-.1l-.2.2,31.1,19.2h-.1L248,513.4h-.3l6.1,3.7h-.1l-13.8-8.5-.5.5-.2.3,5.7,3.5h0l-5.9-3.7h0l-.3.3,16.2,10.1-16.2-10.1-.5.6L373,596.7a.1.1,0,0,0-.1-.1h0a.1.1,0,0,0-.1-.1h-.1l-38.1-24.1h-.1a.1.1,0,0,0-.1-.1h0l-22-13.9h.1L348,580.2h.4c.1,0,.1,0,.1-.1h-.2l-28-17.6h0a.1.1,0,0,0,0-.2h-.1L300,548.9h0L370.6,593a.1.1,0,0,0,.1.1h.3a.1.1,0,0,1,.1-.1h0c0-.1,0-.1-.1-.2a497582161916.5,497582161916.5,0,0,1-.2-.2h0L327,565.1h-.2l-35-21.8h.1l101.2,62.9h.5v-.2h0c0-.1-.1-.1-.1-.2h-.2l-43.5-27.1h0l19.8,12.3h.4a.1.1,0,0,0,.1-.1h0v-.2h-.2l-69.2-42.9h0l6.3,3.9h.3a.1.1,0,0,0,.1-.1h0L329.6,564a.1.1,0,0,0,.1.1h.3a.1.1,0,0,0,.1-.1c0-.1,0-.1-.1-.1h-.2l-10.3-6.4h.1l18.9,11.6h.5L401.6,607h.5c0-.1,0-.1.1-.1v-.2h-.1c0-.1-.1-.1-.1-.2h-.2l-18-11.1h0s.1,0,0-.1h0c0-.1-.1-.1-.1-.2h-.2l-51-31.3h0a.1.1,0,0,0,.1-.1h0l75,45.8h.6l-166.4-102Z" transform="translate(-227 -475.3)"/><path class="cls-3" d="M238.2,511.4l6.2,3.9h-.1l-6.2-3.9-.5.6,4.3,2.7h-.1l-4.3-2.7h0l-.5.5,12.4,7.9h-.2l-12.3-7.7-.4.4v.2l1,.6h0l2.3,1.5h0l9.8,6.3-11.3-7.2H238a.1.1,0,0,0-.1.1h-.1l-2-1.2-.2.3,29.2,18.9h-.5L237,515.9h-.3l-1.6-1-.3.4,7,4.5h-.1a.1.1,0,0,0,.1.1l9.1,6h0l-16.3-10.6h0l101.3,66.4h0a.1.1,0,0,1-.1-.1h-.2l-54.1-35.3h0l96.1,62.3h.4c.1,0,.1,0,.1-.1h0v-.2h-.3L322,571.8h.1l15.2,9.9h.4c.1,0,.1,0,.1-.1h-.1c0-.1,0-.1-.1-.1l-4.7-3.1,51,32.8c0,.1.1.1.2.1h.2a.1.1,0,0,0,.1-.1h0v-.2h-.1l-.2-.2L298.6,555,370,600.9h.4a.1.1,0,0,0,.1-.1h0v-.2h-.3l-43.7-28.2h-.2L295.6,552h-.1l-15-9.6h.1l66.7,42.5h.5c0-.1,0-.1-.1-.2a497582161916.4,497582161916.4,0,0,0-.2-.2l-41.7-26.7h.1a497582161916.4,497582161916.4,0,0,0-.2-.2l-14-8.9,110.4,70h.5a.1.1,0,0,1,.1-.1h0a.3.3,0,0,1-.1-.2c0-.1-.1-.1-.1-.2h-.2l-60.7-38.6h.1c0-.1-.1-.1-.1-.2a.1.1,0,0,1-.1-.1l-11-7h-.1l-34.3-21.7h.1L372.5,597h.5L238.2,511.3Z" transform="translate(-227 -475.3)"/><path class="cls-7" d="M234,516.4l-.8.9,11.4,7.5h-.1a.1.1,0,0,0,.1.1h0L267,540h-.1l-34-22.4-.3.4-.4.4,22.6,15h0l-22.6-14.9-.3.3,20.5,13.8h-.1l-9.7-6.5h-.3a.1.1,0,0,1-.1.1h.1l.9.5h-.1l-11.7-7.8v.2l-.5.5,152,103.1h.1v-.2h-.1l-.2-.2-6.9-4.6h0v-.2h-.2c0-.1,0-.1-.1-.1L265.8,543.5h.1l110.8,74.3h.5a.1.1,0,0,1,.1-.1v-.2h-.1c0-.1,0-.1-.1-.2H377l-67.2-45.1h.1c0-.1,0-.1-.1-.2h0a.1.1,0,0,1-.1-.1h0l-.8-.5h.1l74,49.5h.2a.1.1,0,0,0,.1.1h.3c0-.1-.1-.1-.1-.2h-.1c0-.1-.1-.1-.2-.2l-37.5-25h.2v-.2h-.1a.1.1,0,0,0-.1-.1L317,575.1h0v-.2h-.2L280,550.1h.1l4.3,2.8h.3c.1,0,.1,0,.1-.1l30.2,20h.2a.1.1,0,0,0,.1.1.1.1,0,0,1,.1-.1h.1L334.2,585h.2a.1.1,0,0,0,.1.1h.1a.1.1,0,0,0,.1-.1h-.1a.1.1,0,0,0-.1-.1l-12.4-8.2h.1L394,623.5h.2a.1.1,0,0,0,.1.1h.2a.1.1,0,0,1,.1-.1h0v-.4h-.2a.1.1,0,0,0-.1-.1h0l-12.9-8.4h0V614h-.3l-79.4-52.3h.1a.1.1,0,0,0,.1-.1h0L379,611.9h.5a.1.1,0,0,0,.1-.1h0v-.2a.1.1,0,0,0-.1-.1c0-.1-.1-.1-.1-.2h0l-72.6-47.5h.1l28.6,18.6h.5L234.6,515.7Z" transform="translate(-227 -475.3)"/><path class="cls-3" d="M230.8,520.3h-.1l16.4,11.1h.1l10.4,7h-.1a.1.1,0,0,0,.1.1l7.3,5h0l-34.6-23.3-.8.9-.4.5,2.5,1.7h0a.1.1,0,0,0-.1.1h.1l12.9,8.8h-.1a.1.1,0,0,0,.1.1h0l2.6,1.8h0l-18.4-12.5-.3.4h0l.6.4h-.1l-.6-.4-.5.6,23.9,16.6h0l-24-16.5-.3.3,10.5,7.3h0l-10.5-7.2-.4.5,110.2,77.3h0c0-.1,0-.1-.1-.2H337l-23.1-16.1h0c0-.1,0-.1.1-.1s-.1-.1-.1-.2h-.2l-31.9-22.3h0l28.5,19.7h.5v-.2h0a.1.1,0,0,1-.1-.1h0l-39.9-27.7,45.8,31.7h.2a.1.1,0,1,0,.2,0c.1,0,.1,0,.1-.1h0l11.9,8.2h.4a.1.1,0,0,0,.1-.1h0l36.1,24.8h.5v-.2c0-.1-.1-.1-.1-.2h-.2l-57.5-39.7h.1l4.7,3.2h.5l11.3,7.8h.5V589h-.2l-12.9-8.8h0l-24.7-16.9,20.3,13.8h.3c.1,0,.1,0,.1-.1h0a.1.1,0,0,0-.1-.1H308L271.9,551h.1l11.5,7.7c0,.1,0,.1.1.1h.2l94.3,64h.5v-.2h0v-.2h-.2l-82.7-56.3h.1L370.2,616h.6v-.2l-.2-.2h-.1l-38.3-25.9h0l50.2,33.8h.4l-152-103.1Z" transform="translate(-227 -475.3)"/><path class="cls-8" d="M297.2,491.6H297l24.4,11.7.2-.3Z" transform="translate(-227 -475.3)"/><path class="cls-8" d="M266.3,477.4l-.4.5,45.5,22h-.1L265.8,478l-.2.2h0l20.9,10.2.5.2.6.2.5.2.5.3.5.2.4.3.5.2.4.3,14,6.8h-.1l-13.1-6.3.4.3.4.3.4.3.3.3,24.7,12.1h0c0,.1,0,.1.1.1h.1l2.5,1.2,1.2-1.9Z" transform="translate(-227 -475.3)"/><path class="cls-8" d="M284.6,487.8l.5.2h.4l-9.3-4.5H276l7.7,3.7h.9Z" transform="translate(-227 -475.3)"/><path class="cls-8" d="M322.4,501.1h0l.5.2v-.2l-4.5-2.1-12.9-6.1h0L268,475.3l-.4.5,19,9h-.1l-19-9-.2.2h0l11.3,5.4h0l34.3,16.3h0a.1.1,0,0,0,.1.1h0l8.9,4.2,1-1.5Z" transform="translate(-227 -475.3)"/><path class="cls-8" d="M271.5,478.8h-.2l50.3,24.2.3-.5Z" transform="translate(-227 -475.3)"/><path class="cls-8" d="M279.1,487.3h.4l-15.2-7.4h-.1l-.2.3h.1l14.6,7.2h.4Z" transform="translate(-227 -475.3)"/><polygon class="cls-8" points="66 22.9 66.3 23.9 67.8 24.6 68.5 24.1 66 22.9"/><path class="cls-8" d="M280.2,487.3h.4l-2.7-1.3h-.3a.1.1,0,0,0,.1.1l2,1h.5Z" transform="translate(-227 -475.3)"/><path class="cls-8" d="M320,505.8l-11.9-5.7h-.3l1.6.8h0l-14.8-7.1.3.4a.5.5,0,0,1,.2.4l.3.4c.1.1.1.2.2.4l8.1,3.9h0l-8-3.8c0,.1.1.2.1.3a.8.8,0,0,1,.2.4l.2.3c0,.2.1.3.1.4s-.1-.3-.2-.4l-.3-.4-.3-.4a.5.5,0,0,0-.2-.4l-6.4-3.1h-.3l-6.5-3.2h-2.2l18.8,9.4h-.1l-18.9-9.4h-1.6l10.5,5.3h0l-10.7-5.3h-.6l15.2,7.6.3-.7.2,1,2.5,1.2,1.2-1-.5,1.4h0l-.3.8,1.6.7,2.4-.5-1.4,1.1,18.1,9.1.4-.6Z" transform="translate(-227 -475.3)"/><path class="cls-8" d="M275.3,487.9h.5l-12.9-6.4v.2l-.3.3,12.3,6.2h.5Z" transform="translate(-227 -475.3)"/><path class="cls-8" d="M274,488.4h.2l-8.5-4.3h-.4a.1.1,0,0,1,.1.1h.1l8.2,4.2h.3Z" transform="translate(-227 -475.3)"/><path class="cls-8" d="M276.9,487.6h.9l-14.1-6.9-.4.4,1.9,1h0l-1.9-.9-.3.3,13,6.4h.9Z" transform="translate(-227 -475.3)"/><path class="cls-8" d="M294.2,494.4a1.2,1.2,0,0,0-.5-.5l-.6-.5-7-3.4h-1.5l5.4,2.7h0l-5.6-2.8h-1.2l12,5.9c-.2-.1-.3-.3-.5-.5A1.2,1.2,0,0,0,294.2,494.4Z" transform="translate(-227 -475.3)"/><path class="cls-8" d="M277.2,490.3h-.4c-.1,0-.2,0-.2.1h-.3l16,8,.2-.7Z" transform="translate(-227 -475.3)"/><path class="cls-8" d="M273.4,492.6h-.1c-.1,0-.1,0-.1.1H273l13.8,7.1-.9-.9Z" transform="translate(-227 -475.3)"/><path class="cls-8" d="M273.2,488.7h.4l-7-3.5h-.3l.8.4h0l5.7,2.9h.4Z" transform="translate(-227 -475.3)"/><polygon class="cls-8" points="65.1 24 62.5 22.7 64.7 25.2 65.1 24"/><path class="cls-8" d="M287.3,500.6l-14.5-7.4h-.3l2.5,1.3h.1l13.3,6.9h.1Z" transform="translate(-227 -475.3)"/><path class="cls-8" d="M303.4,504.5h-.2l13.1,6.6.3-.4Z" transform="translate(-227 -475.3)"/><path class="cls-8" d="M270.3,490.6a.1.1,0,0,1,.1-.1l.2-.2L260,485l-.2.2-.2.2,10.5,5.4c0-.1,0-.1.1-.1Z" transform="translate(-227 -475.3)"/><polygon class="cls-8" points="73.8 28.4 71 27 69.8 27.9 73.8 28.4"/><path class="cls-8" d="M269.8,491h.1c0-.1,0-.1.1-.1l-10.5-5.4h0l-.2.2,10.4,5.4h0C269.8,491.1,269.8,491.1,269.8,491Z" transform="translate(-227 -475.3)"/><polygon class="cls-8" points="69.5 26.2 68.7 25.8 68.5 26.4 69.5 26.2"/><path class="cls-8" d="M269.3,491.6a.1.1,0,0,1,.1-.1h0l-10.3-5.3-.3.3,10.3,5.4h.2Z" transform="translate(-227 -475.3)"/><path class="cls-8" d="M271.5,489.6h.4l-11-5.6-.2.4h-.1l9.8,5h.1l.6.3h.2Z" transform="translate(-227 -475.3)"/><path class="cls-8" d="M274,492.1h-.6l12.3,6.4h0l2.7,1.4,1.4.8-.2-1Z" transform="translate(-227 -475.3)"/><path class="cls-8" d="M275.5,491.1H275l-.2.2a.2.2,0,0,0-.2.2l5.2,2.6h-.1a.1.1,0,0,0,.1.1h0l8.9,4.6h0a.1.1,0,0,0,.1.1l.7.4-.5-2.1Z" transform="translate(-227 -475.3)"/><polygon class="cls-8" points="67.2 25.1 66.5 24.7 66.7 25.5 67.2 25.1"/><polygon class="cls-8" points="66.6 32.4 66.6 32.4 66.6 32.4 66.6 32.4"/><path class="cls-8" d="M268.4,492.8h.2l-10.4-5.4-.3.3,10.4,5.4h.1Z" transform="translate(-227 -475.3)"/><path class="cls-8" d="M268.7,492.4h0c.1,0,.1,0,.1-.1l-4.8-2.4a.1.1,0,0,0-.1-.1h-.1l4.8,2.5h.1Z" transform="translate(-227 -475.3)"/><path class="cls-8" d="M288.2,505l-4.5-.6,2.3-.5-3.8-2h-.4l-10.7-5.7c0,.1-.1.1-.1.2v.4h0l9.5,5.1h0l-9.5-5h0c0,.1,0,.2-.1.2v.2h.2l15.7,8.4,1.7-1.3Z" transform="translate(-227 -475.3)"/><path class="cls-8" d="M267.5,494.8a.3.3,0,0,1,.1-.2v-.2l-5.9-3.1h-.3a.1.1,0,0,0,.1.1l3.4,1.8h-.1l2.6,1.4c0-.1.1-.1.1-.2Z" transform="translate(-227 -475.3)"/><path class="cls-8" d="M283.8,501.3l3.6.5L272.2,494l-.2.2a.1.1,0,0,1-.1.1c0,.1,0,.2-.1.2a.3.3,0,0,1-.1.2l7.9,4.2h.1l.7.4h0l7,3.7h.6Z" transform="translate(-227 -475.3)"/><path class="cls-8" d="M313.9,515.2l2.4-3.7L301.2,504l-2.6.5,6.2,3.2h-.1l-6.2-3.2-1.3.3,4.5,2.3-4.9-.8.6.7,3.3,1.7-3.3-1.7,2.5,2.7-4.5-2.4.2.6,12.9,6.7h-.1l-7.1-3.6h0c0-.1,0-.1-.1-.1H301l-5.3-2.7.2.6,11.2,5.9-11.2-5.8.7,2.2-2.9-3.4h-.2l-1.1,3.5-.9-3.9-1.1,1,1.2.6h-.1l-1.2-.7-1.9,1.6.8-2.1-1.7-.9-2.2.5,1.3-1L272,498.7h-.3a.1.1,0,0,1-.1.1h0c0,.1,0,.1.1.1h0l12.4,6.6H284l-13.2-7.1v.7c0,.2.1.4.1.6a6.4,6.4,0,0,0,.2.7,1.9,1.9,0,0,0,.2.7l24.6,13.3h0l-8-4.3h-6l2.3,1.3h0l16.9,9.3H301a.1.1,0,0,1,.1.1h.1l5.3,3h-.1l-.7-.4h0l-26-14.3-1.4-.3-1.3-.5-1.2-.5-1.3-.7-1.1-.6-1-.8-1-.7-.8-.9-13.5-7.4h-.3l4.4,2.5h0l38.6,21.5h-.1l-1.3-.7h-.2l-47-26-.3.4h-.1l13.4,7.5h.1l30,16.9h0l-19-10.5h-.2a.1.1,0,0,0-.1.1l-24.7-13.8-.4.5,11.7,6.6-11.8-6.6-.2.4L274.9,512h0l8.5,4.9-23.7-13.4h-.1s-.1-.1-.1,0h-.1L249.2,498l-.3.4,27.5,15.7h-.1l-1.4-.8h0a.1.1,0,0,0-.1-.1h-.1l29.4,16.9.9-1.4-.9-.5h.1l.9.5,2.4-3.6,2.2-3.6-2.4-1.3h.1l2.4,1.3.9-1.5Z" transform="translate(-227 -475.3)"/><polygon class="cls-8" points="60.7 31.6 62.2 32.4 62.7 31.1 60.7 31.6"/><path class="cls-8" d="M267.4,495.3h0l-11-5.8v.2h-.1l11.1,6h0Z" transform="translate(-227 -475.3)"/><path class="cls-8" d="M267.2,497.9v-1.2l-11.8-6.2-.2.3,4.3,2.3h0l-4.4-2.3-.2.3-.7.8,13.1,7.1a1.3,1.3,0,0,0-.1-.6Z" transform="translate(-227 -475.3)"/><path class="cls-8" d="M267.7,500.5a3090632051022.4,3090632051022.4,0,0,0-.2-.6h-.1l-13.7-7.4-.4.5h0l14.7,8-.2-.3A.4.4,0,0,0,267.7,500.5Z" transform="translate(-227 -475.3)"/><path class="cls-8" d="M268.6,502.4l-.3-.6-.3-.5-14.8-8.1h-.1l-.7.8,16.8,9.3-.3-.5Z" transform="translate(-227 -475.3)"/><path class="cls-8" d="M283.2,510.1l1.8.2h1.9L271.6,502a4917165483630.8,4917165483630.8,0,0,1,.4.8.5.5,0,0,0,.2.4.8.8,0,0,1,.2.4h0l.7.9.8.9.8.8,1,.8,3.8,2,1.8.7Z" transform="translate(-227 -475.3)"/><path class="cls-9" d="M289.5,489.8l-.4-.3-.5-.2-.5-.3-.5-.2-.6-.2-.5-.2,3.9,1.9-.4-.3Z" transform="translate(-227 -475.3)"/><path class="cls-9" d="M292,491.4l-.4-.3-.4-.3-5.7-2.7h-.4l-.5-.2h-.9l9,4.4-.3-.3Z" transform="translate(-227 -475.3)"/><path class="cls-9" d="M283.8,489.6h.6l-4.9-2.3h-.8l4.5,2.2h.6Z" transform="translate(-227 -475.3)"/><path class="cls-9" d="M285.3,489.8h.8l-5.5-2.7h-.9l4.9,2.4h.7Z" transform="translate(-227 -475.3)"/><path class="cls-9" d="M278.9,489.9h.8l-3.9-1.9h-1l1.6.8h0a.1.1,0,0,1-.1.1h.1l1.7.8h.8Z" transform="translate(-227 -475.3)"/><path class="cls-9" d="M277.6,490.2h.3l-3.7-1.8h-.5l3.6,1.8h.3Z" transform="translate(-227 -475.3)"/><path class="cls-9" d="M295.1,494.9a.5.5,0,0,0-.2-.4l-.3-.4-1.5-.7.6.5a1.2,1.2,0,0,1,.5.5,1.2,1.2,0,0,1,.5.5c.2.2.3.4.5.5l.4.3c-.1-.2-.1-.3-.2-.4Z" transform="translate(-227 -475.3)"/><path class="cls-9" d="M295.8,496.4l.3.4c.1.1.1.3.2.4s-.1-.2-.1-.4l-.2-.3a.8.8,0,0,0-.2-.4c0-.1-.1-.2-.1-.3l-.4-.2a.5.5,0,0,1,.2.4Z" transform="translate(-227 -475.3)"/><path class="cls-9" d="M281,489.6h1.1l-4.3-2.1H276l3.9,2H281Z" transform="translate(-227 -475.3)"/><path class="cls-9" d="M273.7,492.3h.3l-3.4-1.8-.2.2a.1.1,0,0,0-.1.1h-.1c-.1,0-.1,0-.1.1l3.3,1.7h.3Z" transform="translate(-227 -475.3)"/><path class="cls-9" d="M273.2,492.8c0-.1,0-.1.1-.1h.1l-3.4-1.7c-.1,0-.1,0-.1.1h-.1c0,.1,0,.1-.1.1h0l3.3,1.7h.2Z" transform="translate(-227 -475.3)"/><path class="cls-9" d="M272.7,493.3h.1l-3.4-1.8h0a.1.1,0,0,0-.1.1h-.2l3.4,1.7h.2Z" transform="translate(-227 -475.3)"/><path class="cls-9" d="M275,491.3h.3c0-.1,0-.1-.1-.1h-.1l-3.2-1.6h-.4l-.2.2h-.2l3.5,1.8a.2.2,0,0,1,.2-.2Z" transform="translate(-227 -475.3)"/><path class="cls-9" d="M276.8,490.5h.4l-3.6-1.8h-.8l3.5,1.8h.3C276.6,490.5,276.7,490.5,276.8,490.5Z" transform="translate(-227 -475.3)"/><path class="cls-9" d="M271.9,494.3a.1.1,0,0,0,.1-.1l.2-.2-3.4-1.8c0,.1,0,.1-.1.1h-.1l3.1,1.6-3.1-1.6h-.3l3.4,1.8a.3.3,0,0,0,.1-.2C271.9,494.5,271.9,494.4,271.9,494.3Z" transform="translate(-227 -475.3)"/><path class="cls-9" d="M271,496.6v-.2c0-.1.1-.1.1-.2l-3.5-1.8v.2a.3.3,0,0,0-.1.2h0c0,.1-.1.1-.1.2l3.5,1.8h0Z" transform="translate(-227 -475.3)"/><path class="cls-9" d="M270.8,497.3c.1,0,.1-.1.1-.2h0l-3.5-1.9h0v.2h.2l3.3,1.7h0Z" transform="translate(-227 -475.3)"/><path class="cls-9" d="M284.4,510.5h.6l-1.8-.2-1.9-.4-1.8-.7,2.4,1.4h2.5Z" transform="translate(-227 -475.3)"/><path class="cls-9" d="M272,502.8a4917165483630.8,4917165483630.8,0,0,0-.4-.8l-3.9-2h-.2a4635948076768.1,4635948076768.1,0,0,0,.3.9l.2.3,4.4,2.5a.8.8,0,0,0-.2-.4A.5.5,0,0,1,272,502.8Z" transform="translate(-227 -475.3)"/><path class="cls-9" d="M270.9,499.9c0-.2-.1-.4-.1-.6v-.7l-3.6-1.9v1.8a1.3,1.3,0,0,1,.1.6l4,2.2a1.9,1.9,0,0,1-.2-.7A6.4,6.4,0,0,1,270.9,499.9Z" transform="translate(-227 -475.3)"/><path class="cls-9" d="M273.9,505.4l-.8-.9-.7-.9h0l-4.4-2.4.3.5.3.6.3.5.3.5,6.5,3.6-1-.8Z" transform="translate(-227 -475.3)"/><path class="cls-9" d="M272.4,506.6l1,.8,1.1.6,1.3.7,1.2.5,1.3.5,1.4.3-9.1-5,.8.9Z" transform="translate(-227 -475.3)"/><polygon class="cls-9" points="65.5 22.6 65.3 23.4 66.3 23.9 66 22.9 65.5 22.6"/><polygon class="cls-9" points="68.5 24.1 69.2 24.4 69.7 23.1 68.5 24.1"/><polygon class="cls-9" points="65.5 22.6 66 22.8 65.8 21.9 65.5 22.6"/><polygon class="cls-9" points="70.5 26 71.5 26.5 72.9 25.4 70.5 26"/><polygon class="cls-9" points="68.5 24.1 67.8 24.6 69 25.2 69.2 24.5 68.5 24.1"/><path class="cls-9" d="M301.7,507.1l-4.5-2.3,1.3-.3-8.9-4.5.2,1,3.1,1.5h-.1l-6.9-3.5.9.9,3.5,1.8h-.1l-2.9-1.5,1.2,1.4h-.1l7.5,3.9h0l1.5.8-.6-.7Z" transform="translate(-227 -475.3)"/><polygon class="cls-9" points="58.8 23.5 61.4 24.9 58.7 23.5 58.8 23.5"/><polygon class="cls-9" points="73.8 28.4 69.8 27.9 71 27 69.5 26.2 68.5 26.4 68.7 25.8 67.2 25.1 66.7 25.5 66.5 24.7 65.1 24 64.7 25.2 62.5 22.7 62 22.5 62.6 24.5 71.6 29.2 74.3 28.6 73.8 28.4"/><polygon class="cls-9" points="61.2 29.7 59 28.5 56.7 29 61.2 29.7"/><polygon class="cls-9" points="72.9 34.4 70.4 31.7 60.4 26.5 56.9 25.9 61.1 28.1 60.4 28.2 68.6 32.5 68.5 32 72.9 34.4"/><path class="cls-9" d="M290,505.4h-.2l3.8,2h0l2.3,1.2-.2-.6Z" transform="translate(-227 -475.3)"/><polygon class="cls-9" points="68.9 33.7 66.7 32.5 69.6 35.9 68.9 33.7"/><polygon class="cls-9" points="65.5 36 66.6 32.5 61.4 29.8 59.7 31.1 60.7 31.6 62.7 31.1 62.2 32.4 63.4 33 64.5 32.1 65.5 36"/><polygon class="cls-9" points="63.3 33.1 62.2 32.5 61.4 34.6 63.3 33.1"/><polygon class="cls-9" points="60.5 31.6 59.6 31.1 58.3 32.1 60.5 31.6"/></g></g></g><rect class="cls-3" x="48.6" y="43.1" width="86.9" height="59.58"/><path class="cls-2" d="M359.9,513.6H278.1a7.2,7.2,0,0,0-7.3,7.3v55a7.2,7.2,0,0,0,7.3,7.3h81.8a7.3,7.3,0,0,0,7.4-7.3v-55A7.3,7.3,0,0,0,359.9,513.6Zm1.2,63.6H276.9V519.1h84.2Z" transform="translate(-227 -475.3)"/><rect class="cls-2" x="83.5" y="107.9" width="17.1" height="10.04"/><path class="cls-2" d="M336,604.1H301.9a9.5,9.5,0,0,1,1.8-8.3,8.6,8.6,0,0,1,4.1-2.5h22.7a8.7,8.7,0,0,1,4.2,2.7A9.4,9.4,0,0,1,336,604.1Z" transform="translate(-227 -475.3)"/><path class="cls-10" d="M343.4,537.4H294.6a2.8,2.8,0,0,0-2.7,2.8v29a2.8,2.8,0,0,0,2.7,2.8h48.8a2.9,2.9,0,0,0,2.8-2.8v-29A2.9,2.9,0,0,0,343.4,537.4Zm-13.1,24.5a2.3,2.3,0,0,1-2.3,2.3h-3.3v3.3a2.4,2.4,0,0,1-2.4,2.4h-7a2.4,2.4,0,0,1-2.3-2.4v-3.3h-3.3a2.3,2.3,0,0,1-2.3-2.3v-6.6a2.3,2.3,0,0,1,2.3-2.4h3.7v-3.3a2.3,2.3,0,0,1,2.3-2.3h6.6a2.3,2.3,0,0,1,2.4,2.3v3.3H328a2.4,2.4,0,0,1,2.3,2.4Zm14.4-17.4H292.9v-2.8h51.8Z" transform="translate(-227 -475.3)"/><path class="cls-10" d="M304.7,524.8V534h28.6v-9.2Zm25.8,6.7H307.9v-3.9h22.6Z" transform="translate(-227 -475.3)"/></svg>