<svg id="Layer_1" data-name="Layer 1" xmlns="http://www.w3.org/2000/svg" xmlns:xlink="http://www.w3.org/1999/xlink" viewBox="0 0 152.5 107.2"><defs><style>.cls-1{fill:none;}.cls-2{fill:#0453a5;}.cls-3{fill:#fff;}.cls-4{opacity:0.29;}.cls-5{clip-path:url(#clip-path);}.cls-6{clip-path:url(#clip-path-2);}.cls-7{fill:#e82327;}.cls-8{fill:#272870;}.cls-9{fill:#fbca0c;}</style><clipPath id="clip-path" transform="translate(-291.9 -356.8)"><path class="cls-1" d="M406.3,410.9a51.6,51.6,0,0,1-97.5,23.6h0a50.8,50.8,0,0,1-5.7-23.6,51.6,51.6,0,1,1,103.2,0Z"/></clipPath><clipPath id="clip-path-2" transform="translate(-291.9 -356.8)"><rect class="cls-1" x="297.4" y="382.6" width="145.9" height="97.28" transform="translate(183.3 -105.5) rotate(21.4)"/></clipPath></defs><title>e-recuritment</title><path class="cls-2" d="M407.8,410.9a53.1,53.1,0,0,1-100.3,24.3h0a51.5,51.5,0,0,1-5.9-24.2,53,53,0,0,1,53.1-53A52.4,52.4,0,0,1,385.9,368,53,53,0,0,1,407.8,410.9Z" transform="translate(-291.9 -356.8)"/><path class="cls-3" d="M406.3,410.9a51.6,51.6,0,0,1-97.5,23.6h0a50.8,50.8,0,0,1-5.7-23.6,51.6,51.6,0,1,1,103.2,0Z" transform="translate(-291.9 -356.8)"/><g class="cls-4"><g class="cls-5"><g class="cls-6"><path class="cls-7" d="M366.3,378.7h.1l-9-4.3v.2Z" transform="translate(-291.9 -356.8)"/><path class="cls-7" d="M406.7,402.6h0c0-.1,0-.1-.1-.1a.1.1,0,0,0-.1-.1h0l-1.4-.7,19.1,9.3h.1L361,379.9l38.5,18.5c0,.1,0,.1.1.1h.1a.1.1,0,0,0,.1-.1h0a.1.1,0,0,1-.1-.1h-.1l-39.2-19h0l32.3,15.6h0a.1.1,0,0,1,.1.1h.2a.1.1,0,0,0-.1-.1h-.1L365,381h.1l62.3,29.9h.3c0-.1,0-.1-.1-.1h0c-.1,0-.1,0-.1-.1l-18.4-8.8h.1c-.1,0-.1,0-.1-.1H409l-15.9-7.6h.1l42.4,20.4h.3c.1,0,.1,0,.1-.1h0c0-.1,0-.1-.1-.1h-.2l-31.8-15.2h0l15.7,7.4h.3a.1.1,0,0,1-.1-.1h0l-30.7-14.6,17.3,8.2h.3l29.5,14.1h.3c.1,0,.1,0,.1-.1h0c0-.1,0-.1-.1-.1h-.2l-36-17.1h.1l1.6.8h.2c.1,0,.1,0,.1-.1L438,413.1h.3c.1,0,.1-.1,0-.1h-.2l-80.8-38.2-.6,1,1,.4-1-.4-.2.3.8.4-.8-.4-.2.3,2,.9h0l-2-.9-.8,1.3,8.6,4.2h0l42.6,20.9Z" transform="translate(-291.9 -356.8)"/><path class="cls-3" d="M444.3,425.4h-.1a.1.1,0,0,0-.1-.1l-77.4-38.7h.1l31.4,15.6h.3l43.2,21.5h.1l-6-2.9h-.1l-47.4-23.6h-.2l-19-9.4h.1l18.4,9.1h.1l-2.9-1.4h0l7.1,3.5h.2l47.8,23.4h.1l-47.6-23.5h0l2.5,1.2h.4a.1.1,0,0,1-.1-.1h-.1l-4.3-2.1h.1l30.5,14.8h.3a.1.1,0,0,0-.1-.1h-.1l-14.8-7.2h0l-42.6-20.9h.1l-8.8-4.3-2.1,3.2,52.1,26.3h-.2l-24.3-12.2h0l58.5,29.3h.1l-78.6-39.4L444,425.5h0a.1.1,0,0,0,.1.1h.2Z" transform="translate(-291.9 -356.8)"/><path class="cls-7" d="M353.1,381.2l3.7,1.8h-.1l-3.6-1.8-.2.3,2.3,1.2h0l-2.3-1.2-1.7,2.6,40.6,21.1,38.5,19.9h.4a.1.1,0,0,1-.1-.1h-.2l-73.6-38.1h0l26.6,13.7h.3a.1.1,0,0,1-.1-.1l-7.2-3.7L404.9,411h.3l9.9,5.1h.3c0-.1,0-.1-.1-.1h-.1l-15.3-7.8h.1L441.4,429h.2l-52.2-26.7h.1a.1.1,0,0,0,.1-.1h-.1a.1.1,0,0,1-.1-.1l-3.2-1.6h0l4.4,2.2h.3c.1,0,.1,0,.1-.1h-.1c-.1,0-.1,0-.1-.1l-12.1-6.1h.1a.1.1,0,0,0-.1-.1h-.1l-20.1-10.2,6.8,3.4h.2l62.8,31.8h.3c.1,0,.1,0,0-.1h-.1a.1.1,0,0,0-.1-.1l-46.5-23.6h-.1l-11.6-5.9h.1l9.2,4.7h.2l-15.4-7.8h0l40.8,20.5h.3l-52.1-26.3Z" transform="translate(-291.9 -356.8)"/><path class="cls-3" d="M349,387.4l18.5,9.9h0l64.3,34.3h.4a.1.1,0,0,0-.1-.1h-.2l-48.1-25.7h-.1L367,396.3h0l-8.4-4.5h0l4.9,2.6h.3L391.9,409h.1L364.4,394h-.1l-9.8-5.2h0l79.9,42.1h.1a.1.1,0,0,0,.1.1h.1c.1-.1.1-.1,0-.1h-.2l-58.6-30.9h0l2.3,1.2h.3c-.1,0-.1,0-.1-.1h0l-9.3-4.8,43.7,22.8h.3a.1.1,0,0,1-.1-.1h-.1l-42.8-22.4h0L392.5,407h.2a.1.1,0,0,0,.1-.1h0l30.5,15.9h.2l-42-21.9h-.1l-23.8-12.4,7.5,3.9h.2a.1.1,0,0,0,.1-.1h-.1c0-.1,0-.1-.1-.1l-2.1-1.1,28.7,14.8-40.6-21.1Z" transform="translate(-291.9 -356.8)"/><path class="cls-7" d="M389,414.3l15.6,8.6h.2c0-.1,0-.1-.1-.1l-44-24.3L407.8,424h.1l-24.4-13.5h0c0-.1.1-.1,0-.1h-.1l-35.5-19.5h0l31,17h.3l9.6,5.2a.1.1,0,0,1,.1.1h.3c-.1,0-.1,0-.1-.1H389l-.8-.4h0l29,15.8a.1.1,0,0,1,.1.1h.2a.1.1,0,0,1,.1-.1h-.2l-26.9-14.7h-.1l-20.2-11,31.5,17.1h.2l-.3-.2,34.8,18.8a.1.1,0,0,0,.1.1h.2a.1.1,0,0,0,.1-.1h-.3l-88.1-47.7-1.6,2.4Z" transform="translate(-291.9 -356.8)"/><path class="cls-7" d="M348.4,388.4l25,13.4h.3l45.1,24.3h.3a.1.1,0,0,1-.1-.1h0l-66.3-35.6h0l38.7,20.7h.3a.1.1,0,0,0-.1-.1h-.1l-27.1-14.6h0l2.8,1.5h.3L349,387.4Z" transform="translate(-291.9 -356.8)"/><path class="cls-3" d="M345.2,393.3l9.7,5.5h.2l46.7,26.3h.2c.1,0,.1,0,.1-.1h0l33.4,18.8h.3a497582161916,497582161916,0,0,1-.2-.2l-72.4-40.8h0l2.2,1.3h.2l-9.7-5.5h0l1,.6h.3l14,7.8h.2l-17.6-9.9h0l30.4,16.9h.1l-19.9-11.1,38.8,21.4h.1l-18.9-10.5h.1c0-.1,0-.1-.1-.1a.1.1,0,0,0-.1-.1l-33.6-18.7,1.7,1h.2L389,414.3l-42.2-23.5Z" transform="translate(-291.9 -356.8)"/><path class="cls-3" d="M391.2,421.1h0l31.9,18.2h.2l-71.2-40.6h0l3.6,2h.3l1.6.9h.2l66.6,37.7h.2l-79.4-45-.6.9Z" transform="translate(-291.9 -356.8)"/><path class="cls-7" d="M324.4,382.8h0l-13.1-7.4h-.2l12.1,6.9h0L306.5,373h-.1l-.4.5,14.3,8.3h-.1l-14.3-8.2-.2.2,23,13.3-23-13.2h-.1v.2l5.5,3.2-5.5-3.2-.3.3,8.2,4.7h-.1l-6.6-3.8h-.2l15.8,9.2h0L305,374.8l-.4.4,20.4,12h0l-8.8-5.2h-.1l-11.6-6.7h-.1l115.4,68.4h-.3l-82.6-48.8h0l14,8.2h.2c.1,0,.1,0,.1-.1l17.6,10.4h.2a.1.1,0,0,0,.1-.1h0c0-.1,0-.1-.1-.1h0l-6.9-4h.1l21.9,12.8h.3l1.5.9h.2L375,415.7h-.1L355.6,404h0l11.5,6.7h.4a.1.1,0,0,1-.1-.1h-.1L351,400.8l18.8,10.8h.3c0-.1,0-.1-.1-.1h0l-12.5-7.2,39.6,22.7h.2a.1.1,0,0,0-.1-.1h0L356.6,403h.1a.1.1,0,0,1-.1-.1h0l-2.5-1.4h.1l19.7,11.3h.3l58.1,33.3h.3a.1.1,0,0,0-.1-.1.1.1,0,0,0-.1-.1h0l-89.8-51.5h.1l8,4.5h.3l39.9,22.8h.3l-46.6-26.8Z" transform="translate(-291.9 -356.8)"/><path class="cls-3" d="M304.3,375.6h.2l21.7,12.9h0L313,381.1h0a.1.1,0,0,0-.1-.1h0a.1.1,0,0,0-.1.1h0l-8.7-5.2-.2.3,23.7,14.1h0l-23.8-14.1-.4.5,9,5.3h-.1c.1,0,.1,0,.1.1l13.9,8.3h-.1c0,.1,0,.1.1.1h0l9.5,5.7h0l-15.5-9.2H320l-17-10.2-.2.2L325.3,391h0l-7.9-4.7h-.2l-8.9-5.3h-.2l13.6,8.3h0l-4.7-2.8h-.3l-14.5-8.8-.2.3L415.6,448h0a.1.1,0,0,0-.1-.1h-.1l-34.5-21h0a.1.1,0,0,0-.1-.1h0l-24.1-14.6,11.5,7h.3l19,11.5h.1l-34.6-21L389.9,431h.3a.1.1,0,0,0,.1-.1h0l12.5,7.6h.2l-35.9-21.7H367l-13-7.9h.1l10.5,6.3h.1c0,.1,0,.1.1.1h.1l5.9,3.5h.3a.1.1,0,0,1-.1-.1l-4.6-2.7,57.8,34.5h.4V449c-.1,0-.1,0-.1-.1h-.2L383,424.2h-.1l-16.2-9.7L370,416c0,.1,0,.1.1.1h.2l15.4,9.2h.3l6.2,3.6h.2a.1.1,0,0,0,.1-.1h.1l5.6,3.3h.3a.1.1,0,0,0-.1-.1h-.1L369,414.3l50.4,29.6a.1.1,0,0,0,.1.1h.3L304.4,375.5Z" transform="translate(-291.9 -356.8)"/><path class="cls-7" d="M301.8,378.7l-.2.2L327,394.5h0l-20.1-12.3h-.4l-5.2-3.2h-.1v.2l21.2,13.1h-.1l-16-9.8H306l4.2,2.5h0l-9.5-5.8-.3.3-.2.2,3.9,2.5h0l-4-2.5h0l-.2.3,11,6.9-11-6.9-.3.4,92,58.3h-.2l-26.1-16.4h.1a.1.1,0,0,0-.1-.1h0a.1.1,0,0,1-.1-.1h0l-15-9.4h.1l24.2,15.2h.2L355.6,416h0a.1.1,0,0,0-.1-.1h0L341.7,407h0l48.2,30.2h.4a.1.1,0,0,0-.1-.1h-.1l-30-18.7h.1a.1.1,0,0,0-.1-.1H360l-23.9-15h.1l69.1,43h.4a.1.1,0,0,1-.1-.1h-.2l-29.7-18.5h0l13.5,8.4a.1.1,0,0,1,.1.1h.2a.1.1,0,0,1,.1-.1h0c-.1,0-.1,0-.1-.1h-.1l-47.3-29.3h.1l4.2,2.6h.3l15.2,9.4h.4a.1.1,0,0,0-.1-.1h-.1l-7-4.4h0l12.9,7.9h0a.1.1,0,0,0,.1.1h.2l42.8,26.2h0a.1.1,0,0,1,.1.1h.1c.1,0,.1,0,.1-.1h.1a.1.1,0,0,0-.1-.1h-.1l-12.4-7.6h.1a.1.1,0,0,0-.1-.1h-.1L363.9,417h.1l51.2,31.3h.4L302,378.4Z" transform="translate(-291.9 -356.8)"/><path class="cls-3" d="M299.5,381.4l4.2,2.7h0l-4.2-2.7-.3.4,2.9,1.9H302l-2.9-1.8H299l-.3.3,8.5,5.4h-.1l-8.4-5.3-.3.3h-.1l.7.5h0l1.5,1h0l6.7,4.3-7.7-4.9h-.2l-1.4-.9-.2.3,20,12.9h-.3l-18.7-12h-.2l-1-.7-.3.3,4.8,3h-.1c.1,0,.1,0,.1.1l6.2,4h0l-11.1-7.2H297l69.2,45.3h-.1l-37-24.1h0l65.6,42.4h.3c-.1,0-.1,0-.1-.1l-38.2-24.7h.1l10.4,6.7h.3a.1.1,0,0,0-.1-.1l-3.2-2.1L399,449.3h.3a.1.1,0,0,1-.1-.1l-58.4-37.7,48.7,31.4h.3a.1.1,0,0,0,.1-.1h-.1a.1.1,0,0,0-.1-.1L359.8,423h-.1l-21-13.5h.1a.1.1,0,0,0-.1-.1h-.1l-10.2-6.6h.1L374,431.4h.3a.1.1,0,0,1-.1-.1l-28.5-18.2h.1a.1.1,0,0,1-.1-.1h-.1l-9.5-6.1,75.3,47.9h.4v-.2h-.1a.1.1,0,0,1-.1-.1l-41.5-26.3h0l-7.6-4.8h0l-23.4-14.8h.1l52,32.9h.4l-92-58.3Z" transform="translate(-291.9 -356.8)"/><path class="cls-7" d="M296.7,384.8l-.6.7,7.8,5.1h0L319.2,401h-.1l-23.2-15.2-.2.2-.2.3,15.3,10.2h0l-15.4-10.2-.2.3,14.1,9.4h-.1l-6.6-4.4h-.2l.5.3h0l-8-5.3h-.1l-.3.4,103.7,70.3h.2a.1.1,0,0,1-.1-.1h-.2l-4.7-3.2h-.2l-74.8-50.4h0l75.7,50.8h.4c0-.1,0-.1-.1-.1h-.1l-45.9-30.8h-.1l-.5-.4h0L398.4,456h.4v-.2h-.1c-.1,0-.1,0-.1-.1L373,438.4h-.1l-19.6-13h-.1l-25.1-16.7h0l3,1.9c0,.1,0,.1.1.1h.2L352,423.3h.3l12.8,8.4h.2l-8.5-5.6h.1l49,32.3h.4v-.2h-.1a.1.1,0,0,1-.1-.1h0l-8.8-5.8h-.2l-54.2-35.6h.1l52.7,34.5h.4c0-.1,0-.1-.1-.1h-.1l-49.6-32.5h.1l19.5,12.7h.3L297,384.4Z" transform="translate(-291.9 -356.8)"/><path class="cls-3" d="M294.5,387.5h-.1l11.2,7.5h.1l7.1,4.8h0l5,3.4h0l-23.7-16-.5.7-.3.3L295,390h.1l8.7,6h.1l1.7,1.2h0l-12.5-8.6-.3.3h0l.5.3h-.1l-.4-.3-.4.5,16.4,11.3h0L292.4,390l-.2.3,7.1,4.9h0l-7.2-5-.2.3,75.2,52.8h.1a.1.1,0,0,0-.1-.1H367l-15.8-11h0c.1,0,.1,0,.1-.1h-.1a.1.1,0,0,0-.1-.1h0l-21.8-15.2h0l19.4,13.5h.3c0-.1,0-.1.1-.1h-.2l-27.2-18.9L353,432.3h.4l8.1,5.6h.3l24.6,16.9a.1.1,0,0,1,.1.1h.1l-39.3-27.1h.1l3.2,2.2h.3l7.8,5.4h.2c.1,0,.1,0,.1-.1h-.1l-8.8-6h0l-16.9-11.5,13.8,9.4h.4a.1.1,0,0,0-.1-.1h-.1l-24.6-16.8h0l7.8,5.3h.3L395,457.4h.4a497582161915.7,497582161915.7,0,0,0-.2-.2l-56.5-38.4h.1l50.9,34.4h.4c0-.1,0-.1-.1-.1v-.2h-.1l-26.2-17.7h0L398,457.8h.2L294.5,387.5Z" transform="translate(-291.9 -356.8)"/><path class="cls-8" d="M339.9,367.9h-.2l16.6,8,.2-.3Z" transform="translate(-291.9 -356.8)"/><path class="cls-8" d="M318.7,358.2l-.3.4,31.1,15h0l-31.1-15v.2h-.1l14.3,6.9.4.2h.3l.4.2h.3l.4.2.3.2.3.2h.3l9.5,4.7h0l-9-4.3.3.2.3.2.2.2.3.2,16.8,8.2h.1l1.8.9.8-1.3Z" transform="translate(-291.9 -356.8)"/><path class="cls-8" d="M331.2,365.4h.7l-6.4-3h-.1a.1.1,0,0,0-.1.1h0c-.1.1,0,.1,0,.1h0l5.3,2.5h.6Z" transform="translate(-291.9 -356.8)"/><path class="cls-8" d="M357,374.4h0l.3.2v-.2l-3-1.4-8.9-4.2h0l-25.6-12-.3.3,13,6.2h-.1l-13-6.1h-.1l7.7,3.7h0l23.5,11.2h0l6.1,2.9.6-1Z" transform="translate(-291.9 -356.8)"/><path class="cls-8" d="M322.3,359.2h-.2l34.4,16.5.2-.3Z" transform="translate(-291.9 -356.8)"/><path class="cls-8" d="M327.5,365h.3l-10.4-5.1h-.1v.2h0l10,4.9h.3Z" transform="translate(-291.9 -356.8)"/><polygon class="cls-8" points="45.1 15.6 45.3 16.3 46.3 16.8 46.7 16.4 45.1 15.6"/><path class="cls-8" d="M328.2,365h.3l-1.8-.9h-.3a.1.1,0,0,0,.1.1h0l1.4.7h.3Z" transform="translate(-291.9 -356.8)"/><path class="cls-8" d="M355.4,377.6l-8.2-3.9h-.1l1.1.6h-.1L338,369.6l.2.3.2.3.2.2c0,.1.1.2.1.3l5.5,2.7h0l-5.4-2.6a.3.3,0,0,1,.1.2c0,.1.1.2.1.3s.1.1.1.2a.4.4,0,0,1,.1.3c0-.1-.1-.2-.1-.3s-.2-.2-.2-.3l-.2-.3-.2-.3-4.3-2.1H334l-4.5-2.2H328l12.9,6.4h-.1l-13-6.4h-1l7.2,3.6h-.1l-7.2-3.6h-.5l10.4,5.2.2-.4.2.6,1.6.9.9-.7-.4.9h0v.5l1,.6,1.6-.4-.9.7,12.4,6.3.2-.4Z" transform="translate(-291.9 -356.8)"/><path class="cls-8" d="M324.9,365.4h.3l-8.8-4.3h-.1l-.2.2,8.4,4.2h.2C324.7,365.4,324.8,365.4,324.9,365.4Z" transform="translate(-291.9 -356.8)"/><path class="cls-8" d="M324,365.7h.1l-5.8-2.8a.1.1,0,0,0-.1-.1h-.1l5.7,2.8h.2Z" transform="translate(-291.9 -356.8)"/><path class="cls-8" d="M326,365.2h.6l-9.6-4.8-.3.4,1.3.6h0l-1.3-.6-.2.2,8.8,4.4h.7Z" transform="translate(-291.9 -356.8)"/><path class="cls-8" d="M337.8,369.8l-.4-.3c-.1-.1-.2-.3-.4-.4l-4.8-2.3h-1l3.7,1.8h0l-3.8-1.9h-.2c-.1,0-.2,0-.2-.1h-.5l8.2,4-.3-.3Z" transform="translate(-291.9 -356.8)"/><path class="cls-8" d="M326.2,367.1h-.6l10.9,5.5v-.5Z" transform="translate(-291.9 -356.8)"/><path class="cls-8" d="M323.5,368.6h-.2l9.4,4.9-.6-.7Z" transform="translate(-291.9 -356.8)"/><path class="cls-8" d="M323.4,365.9h.3l-4.8-2.4h-.2l.6.3h-.1c0,.1,0,.1.1.1h0l3.9,2a.1.1,0,0,1,.1-.1A.1.1,0,0,0,323.4,365.9Z" transform="translate(-291.9 -356.8)"/><polygon class="cls-8" points="44.4 16.4 42.7 15.5 44.2 17.2 44.4 16.4"/><path class="cls-8" d="M333.1,374.1l-9.9-5.1H323l1.7.9h-.1a.1.1,0,0,1,.1.1h0l9.1,4.7h.1Z" transform="translate(-291.9 -356.8)"/><path class="cls-8" d="M344.1,376.7h-.2l9,4.5.2-.3Z" transform="translate(-291.9 -356.8)"/><path class="cls-8" d="M321.5,367.2h.1l-7.2-3.7v.2h-.1l7.1,3.7h.1A.1.1,0,0,1,321.5,367.2Z" transform="translate(-291.9 -356.8)"/><polygon class="cls-8" points="50.4 19.4 48.4 18.4 47.7 19 50.4 19.4"/><path class="cls-8" d="M321.1,367.5h.1l-7.1-3.6h0l-.2.2,7.1,3.6h.1Z" transform="translate(-291.9 -356.8)"/><polygon class="cls-8" points="47.5 17.9 46.9 17.6 46.8 18.1 47.5 17.9"/><path class="cls-8" d="M320.8,367.9h.1l-7.1-3.6-.2.2,7.1,3.6h.1Z" transform="translate(-291.9 -356.8)"/><path class="cls-8" d="M322.3,366.6h.1a.1.1,0,0,0,.1-.1l-7.4-3.8-.2.3h-.1l6.7,3.5h.1l.4.3h.3Z" transform="translate(-291.9 -356.8)"/><path class="cls-8" d="M324,368.3h-.2a497582161916,497582161916,0,0,0-.2.2l8.4,4.3h0l1.8,1,1,.5-.2-.6Z" transform="translate(-291.9 -356.8)"/><path class="cls-8" d="M325,367.6h-.3l-.2.2a.1.1,0,0,0-.1.1l3.5,1.8h.1l6,3.1h.1l.5.3-.4-1.4Z" transform="translate(-291.9 -356.8)"/><polygon class="cls-8" points="45.9 17.1 45.4 16.9 45.5 17.4 45.9 17.1"/><polygon class="cls-8" points="45.5 22.1 45.5 22.1 45.5 22.1 45.5 22.1"/><path class="cls-8" d="M320.2,368.7h.1l-7.1-3.7-.2.2,7.1,3.7h.1Z" transform="translate(-291.9 -356.8)"/><path class="cls-8" d="M320.3,368.5h.1l-3.2-1.7H317l3.3,1.7Z" transform="translate(-291.9 -356.8)"/><path class="cls-8" d="M333.7,377.1l-3.1-.4,1.6-.4-2.6-1.4h-.3l-7.3-3.8h0a.1.1,0,0,0-.1.1v.2h0l6.5,3.4h-.1l-6.4-3.4h-.1v.2h.1l10.7,5.7,1.2-.9Z" transform="translate(-291.9 -356.8)"/><path class="cls-8" d="M319.6,370.1h0v-.2l-4-2.1h-.2l2.3,1.3h0c-.1.1-.1.1,0,.1h0l1.8.9h.1Z" transform="translate(-291.9 -356.8)"/><path class="cls-8" d="M330.7,374.5l2.4.4-10.4-5.4c0,.1,0,.1-.1.2h-.1c0,.1-.1.1-.1.2l5.4,2.8h.1l.5.3h0l4.7,2.5h.5Z" transform="translate(-291.9 -356.8)"/><path class="cls-8" d="M351.2,384.1l1.7-2.6-10.3-5.1-1.8.3,4.2,2.2h0l-4.3-2.1h-.9l3.1,1.6-3.4-.5.5.4,2.2,1.2-2.2-1.1,1.6,1.8-3-1.6v.3l8.8,4.7h0l-4.8-2.5h-.3l-3.6-1.8v.4l7.7,4-7.6-4,.4,1.5-2-2.3h-.1l-.7,2.4-.7-2.7-.7.7.8.4h-.1l-.8-.5-1.3,1.1.5-1.5-1.1-.6-1.5.4.9-.7-10-5.3h-.2l8.5,4.5h-.1l-9-4.8v.5a.6.6,0,0,0,.1.4.9.9,0,0,0,.1.5c0,.1.1.3.1.4l16.9,9.2h-.1l-5.4-3h-.2c-.1,0-.1,0-.1.1h-3.8l1.6.8h0l11.5,6.3h-.1a.1.1,0,0,1,.1.1h0l3.6,2h0l-.5-.3h0l-17.8-9.7-.9-.2a2,2,0,0,1-.8-.4l-.9-.3-.9-.5-.7-.4-.7-.5-.7-.5-.5-.6-9.3-5.1h-.2l3.1,1.7h0l26.3,14.6h-.1l-.8-.5h-.2l-32.1-17.8-.2.3h-.1l9.2,5.1h0l20.6,11.6h-.1l-12.9-7.2h-.2l-16.9-9.4-.3.4,8,4.5-8-4.5-.2.2,17.3,9.8h0l5.8,3.3-16.2-9.2H314l-7-4-.2.3,18.8,10.7h-.1l-.9-.5h-.2l20.2,11.5.6-.9-.6-.4h0l.6.3,1.6-2.5,1.6-2.4-1.7-.9h.1l1.6.9.6-1Z" transform="translate(-291.9 -356.8)"/><polygon class="cls-8" points="41.4 21.6 42.5 22.1 42.8 21.3 41.4 21.6"/><path class="cls-8" d="M319.5,370.5h0l-7.5-3.9h-.2l7.6,4h.1Z" transform="translate(-291.9 -356.8)"/><path class="cls-8" d="M319.3,372.2v-.8l-8-4.2-.2.2,3,1.6h0l-3-1.6-.2.2-.4.6,8.9,4.9v-.4A.9.9,0,0,1,319.3,372.2Z" transform="translate(-291.9 -356.8)"/><path class="cls-8" d="M319.7,374a.3.3,0,0,0-.1-.2v-.2h-.1l-9.4-5.1-.3.3h0l10.1,5.5c-.1,0-.1-.1-.1-.2A.3.3,0,0,1,319.7,374Z" transform="translate(-291.9 -356.8)"/><path class="cls-8" d="M320.3,375.3a.8.8,0,0,1-.2-.4c-.1-.1-.1-.2-.2-.4L309.8,369h-.1l-.5.5,11.5,6.4c-.1-.1-.1-.3-.2-.4Z" transform="translate(-291.9 -356.8)"/><path class="cls-8" d="M330.2,380.5l1.3.2h1.3l-10.5-5.6.2.2a.4.4,0,0,0,.1.3v.3a.2.2,0,0,1,.2.2h0l.5.6.5.6.6.6a1.8,1.8,0,0,0,.7.5l2.5,1.4,1.3.5Z" transform="translate(-291.9 -356.8)"/><path class="cls-9" d="M334.6,366.7l-.3-.2-.4-.2h-.3l-.4-.2h-.3l-.4-.2,2.7,1.3h-.3Z" transform="translate(-291.9 -356.8)"/><path class="cls-9" d="M336.3,367.8l-.3-.2-.3-.2-3.8-1.9h-1.3l6.2,3-.3-.2Z" transform="translate(-291.9 -356.8)"/><path class="cls-9" d="M330.7,366.5c0,.1.1.1.2.1h.2l-3.3-1.6h-.6l3,1.5h.5Z" transform="translate(-291.9 -356.8)"/><path class="cls-9" d="M331.7,366.7h.5l-3.7-1.8h-.6l3.3,1.6h.5Z" transform="translate(-291.9 -356.8)"/><path class="cls-9" d="M327.3,366.7h.5l-2.6-1.3h-.3c-.1,0-.2,0-.2.1h-.2l1.2.6h-.1l1.2.6h.5Z" transform="translate(-291.9 -356.8)"/><path class="cls-9" d="M326.4,367h.3l-2.6-1.3h-.3l2.4,1.2h.2Z" transform="translate(-291.9 -356.8)"/><path class="cls-9" d="M338.4,370.2l-.2-.3-.2-.3-1-.5c.2.1.3.3.4.4l.4.3.3.4.3.3.3.2c0-.1-.1-.2-.1-.3Z" transform="translate(-291.9 -356.8)"/><path class="cls-9" d="M338.9,371.2c0,.1.1.2.2.3s.1.2.1.3a.4.4,0,0,0-.1-.3c0-.1,0-.2-.1-.2s-.1-.2-.1-.3a.3.3,0,0,0-.1-.2l-.3-.2.2.3Z" transform="translate(-291.9 -356.8)"/><path class="cls-9" d="M328.7,366.5h.8l-2.9-1.4h-1.3l2.7,1.3h.7Z" transform="translate(-291.9 -356.8)"/><path class="cls-9" d="M323.8,368.4h.2l-2.4-1.2h-.1a.1.1,0,0,0-.1.1h-.1l2.3,1.2a497582161916,497582161916,0,0,1,.2-.2Z" transform="translate(-291.9 -356.8)"/><path class="cls-9" d="M323.4,368.7h.1l-2.3-1.2H321l2.3,1.2h.1Z" transform="translate(-291.9 -356.8)"/><path class="cls-9" d="M323.1,369.1h.1l-2.3-1.2h-.2l2.3,1.2h.1Z" transform="translate(-291.9 -356.8)"/><path class="cls-9" d="M324.7,367.7h0l-2.2-1.1a.1.1,0,0,1-.1.1H322l2.4,1.2a.1.1,0,0,1,.1-.1Z" transform="translate(-291.9 -356.8)"/><path class="cls-9" d="M325.9,367.2h.3l-2.5-1.3h-.3a.1.1,0,0,1-.1.1.1.1,0,0,0-.1.1l2.4,1.2h.3Z" transform="translate(-291.9 -356.8)"/><path class="cls-9" d="M322.6,369.8h0c.1-.1.1-.1.1-.2l-2.3-1.1h-.1l2.1,1.1-2.1-1.1h-.2l2.3,1.3c0-.1.1-.1.1-.2Z" transform="translate(-291.9 -356.8)"/><path class="cls-9" d="M321.9,371.3a.1.1,0,0,1,.1-.1h0l-2.4-1.3v.2h-.1l2.4,1.3h0Z" transform="translate(-291.9 -356.8)"/><path class="cls-9" d="M321.8,371.8h.1l-2.4-1.3h0c-.1,0-.1,0,0,.1h0l2.3,1.3v-.2Z" transform="translate(-291.9 -356.8)"/><path class="cls-9" d="M331.1,380.8h.4l-1.3-.2-1.2-.2-1.3-.5,1.7,1h1.7Z" transform="translate(-291.9 -356.8)"/><path class="cls-9" d="M322.6,375.6a.4.4,0,0,1-.1-.3l-.2-.2-2.6-1.5h-.1v.2a.3.3,0,0,1,.1.2.3.3,0,0,0,.1.2c0,.1,0,.2.1.2l3,1.7a.2.2,0,0,0-.2-.2Z" transform="translate(-291.9 -356.8)"/><path class="cls-9" d="M321.9,373.6a.6.6,0,0,1-.1-.4v-.5l-2.5-1.3v.8a.9.9,0,0,0,.1.5v.4l2.7,1.4c0-.1-.1-.3-.1-.4A.9.9,0,0,1,321.9,373.6Z" transform="translate(-291.9 -356.8)"/><path class="cls-9" d="M323.9,377.3l-.5-.6-.5-.6h0l-3-1.7c.1.2.1.3.2.4a.8.8,0,0,0,.2.4l.2.3c.1.1.1.3.2.4l4.5,2.4a1.8,1.8,0,0,1-.7-.5Z" transform="translate(-291.9 -356.8)"/><path class="cls-9" d="M322.9,378.2l.7.5.7.4.9.5.9.3a2,2,0,0,0,.8.4l.9.2-6.1-3.4.5.6Z" transform="translate(-291.9 -356.8)"/><polygon class="cls-9" points="44.7 15.4 44.6 16 45.3 16.3 45.1 15.6 44.7 15.4"/><polygon class="cls-9" points="46.8 16.4 47.3 16.7 47.6 15.8 46.8 16.4"/><polygon class="cls-9" points="44.7 15.4 45.1 15.6 44.9 14.9 44.7 15.4"/><polygon class="cls-9" points="48.1 17.7 48.8 18.1 49.8 17.4 48.1 17.7"/><polygon class="cls-9" points="46.7 16.4 46.3 16.8 47.1 17.2 47.3 16.7 46.7 16.4"/><path class="cls-9" d="M342.9,378.5l-3.1-1.6h.9l-6.1-3.1.2.6,2.1,1.1h-.1l-4.7-2.4.6.7,2.4,1.2h0l-2-1,.8.9h-.1l5.1,2.7h.1l1,.5-.5-.4Z" transform="translate(-291.9 -356.8)"/><polygon class="cls-9" points="40.1 16.1 41.9 17 40.1 16 40.1 16.1"/><polygon class="cls-9" points="50.4 19.4 47.7 19 48.4 18.4 47.5 17.9 46.8 18.1 46.9 17.6 45.9 17.1 45.5 17.4 45.4 16.9 44.4 16.4 44.2 17.2 42.7 15.5 42.3 15.3 42.7 16.8 48.9 19.9 50.7 19.5 50.4 19.4"/><polygon class="cls-9" points="41.8 20.3 40.3 19.5 38.7 19.8 41.8 20.3"/><polygon class="cls-9" points="49.8 23.5 48.1 21.6 41.2 18.1 38.8 17.7 41.7 19.2 41.3 19.3 46.8 22.2 46.7 21.9 49.8 23.5"/><path class="cls-9" d="M334.9,377.4h-.3c.1,0,.1,0,.1.1h0l2.6,1.4h0l1.6.8v-.4Z" transform="translate(-291.9 -356.8)"/><polygon class="cls-9" points="47.1 23 45.5 22.2 47.5 24.5 47.1 23"/><polygon class="cls-9" points="44.7 24.6 45.4 22.2 41.9 20.3 40.8 21.2 41.4 21.6 42.8 21.3 42.5 22.1 43.3 22.6 44 21.9 44.7 24.6"/><polygon class="cls-9" points="43.2 22.6 42.5 22.2 41.9 23.7 43.2 22.6"/><polygon class="cls-9" points="41.3 21.6 40.7 21.3 39.8 21.9 41.3 21.6"/></g></g></g><path class="cls-2" d="M379.6,383.8H342a1.7,1.7,0,0,0-1.7,1.7v16.3a13.3,13.3,0,0,1,1.9-1.4V385.7c0-.2.1-.3.2-.3h36.8a.3.3,0,0,1,.3.3v24.8a.3.3,0,0,1-.3.3H366.7l.3,1.6h12.6a1.8,1.8,0,0,0,1.8-1.7V385.5A1.8,1.8,0,0,0,379.6,383.8Z" transform="translate(-291.9 -356.8)"/><path class="cls-2" d="M380.3,379.3h-39a5.5,5.5,0,0,0-5.4,5.5v22.4a15.6,15.6,0,0,1,2.3-3.4V384.7a3.3,3.3,0,0,1,3.3-3.3h38.7a3.3,3.3,0,0,1,3.3,3.3v26.6a3.2,3.2,0,0,1-3.3,3.2H366.9a13.6,13.6,0,0,1-.2,2.1h13.6a5.5,5.5,0,0,0,5.5-5.4V384.8A5.5,5.5,0,0,0,380.3,379.3Z" transform="translate(-291.9 -356.8)"/><path class="cls-2" d="M350.8,402.8a11.8,11.8,0,0,0,0,23.6,11.8,11.8,0,1,0,0-23.6Zm0,22A10.3,10.3,0,1,1,361,414.6,10.3,10.3,0,0,1,350.8,424.8Z" transform="translate(-291.9 -356.8)"/><path class="cls-2" d="M354.8,407.9l-6.1,6.1-2.2-2.2-4.6,4.8,6.6,6.6,10.8-10.8Zm-6.3,12.3-3.6-3.6,1.6-1.6,2.1,2.2,6.2-6.3,1.5,1.5Z" transform="translate(-291.9 -356.8)"/><path class="cls-2" d="M333,424.4l-9.8,9.8a5.3,5.3,0,0,0,0,7.5l.2.2a5.4,5.4,0,0,0,7.6,0l9.7-9.8Zm-3.6,16a3,3,0,0,1-4.4,0l-.3-.3a3,3,0,0,1,0-4.3l8.3-8.3,4.6,4.7Z" transform="translate(-291.9 -356.8)"/><path class="cls-2" d="M338,422.6l-4.4,4.4,4.5,4.5,4.4-4.4Zm-.3,6.7-1.7-1.7,2.5-2.6,1.7,1.7Z" transform="translate(-291.9 -356.8)"/><path class="cls-2" d="M350.8,398.2a16.4,16.4,0,1,0,16.3,16.4A16.3,16.3,0,0,0,350.8,398.2Zm0,30.6A14.3,14.3,0,1,1,365,414.6,14.3,14.3,0,0,1,350.8,428.8Z" transform="translate(-291.9 -356.8)"/><path class="cls-2" d="M373.4,420.7h-7.6a9.4,9.4,0,0,1-1.2,2.2h9a2.6,2.6,0,0,1,2.6,2.7v1.3H361.1a18.7,18.7,0,0,1-2.9,2h20.3v-3.1A5.1,5.1,0,0,0,373.4,420.7Z" transform="translate(-291.9 -356.8)"/><rect class="cls-2" x="79.1" y="58.8" width="2.2" height="5.95"/><rect class="cls-2" x="52.3" y="35.1" width="17.7" height="1.88"/><rect class="cls-2" x="56.7" y="31" width="13.4" height="1.94"/><rect class="cls-2" x="52.6" y="31" width="1.9" height="1.94"/><path class="cls-2" d="M369.1,387.8a5,5,0,0,0-5,5,5,5,0,1,0,10,0A5,5,0,0,0,369.1,387.8Zm0,8.1a3.1,3.1,0,1,1,3.1-3.1A3.1,3.1,0,0,1,369.1,395.9Z" transform="translate(-291.9 -356.8)"/><path class="cls-2" d="M375.6,398.5a8.2,8.2,0,0,0-6.5-2.5,8.1,8.1,0,0,0-6.4,2.5,7.8,7.8,0,0,0-1.9,5.8h16.6A7.6,7.6,0,0,0,375.6,398.5Zm-12.5,3.7a5.3,5.3,0,0,1,1.2-2.4,7.3,7.3,0,0,1,9.6,0,5.3,5.3,0,0,1,1.2,2.4Z" transform="translate(-291.9 -356.8)"/></svg>