<svg id="Layer_1" data-name="Layer 1" xmlns="http://www.w3.org/2000/svg" xmlns:xlink="http://www.w3.org/1999/xlink" viewBox="0 0 223.3 157"><defs><style>.cls-1{fill:none;}.cls-2{fill:#0453a5;}.cls-3{fill:#fff;}.cls-4{opacity:0.29;}.cls-5{clip-path:url(#clip-path);}.cls-6{clip-path:url(#clip-path-2);}.cls-7{fill:#e82327;}.cls-8{fill:#272870;}.cls-9{fill:#fbca0c;}.cls-10{fill:#f1f9fe;}.cls-11{fill:#00a651;}</style><clipPath id="clip-path" transform="translate(-183.1 -313)"><path class="cls-1" d="M350.7,392.3a75.6,75.6,0,0,1-142.9,34.5h0a75.6,75.6,0,1,1,142.9-34.5Z"/></clipPath><clipPath id="clip-path-2" transform="translate(-183.1 -313)"><rect class="cls-1" x="191.2" y="350.8" width="213.7" height="142.49" transform="translate(174.9 -79.8) rotate(21.4)"/></clipPath></defs><title>eregestration</title><path class="cls-2" d="M352.8,392.3a77.7,77.7,0,0,1-146.9,35.4h0a77.7,77.7,0,1,1,146.9-35.4Z" transform="translate(-183.1 -313)"/><path class="cls-3" d="M350.7,392.3a75.6,75.6,0,0,1-142.9,34.5h0a75.6,75.6,0,1,1,142.9-34.5Z" transform="translate(-183.1 -313)"/><g class="cls-4"><g class="cls-5"><g class="cls-6"><path class="cls-7" d="M292,345c.1,0,.1,0,.1.1h.2l-13.2-6.3v.2Z" transform="translate(-183.1 -313)"/><path class="cls-7" d="M351.3,380.1h0a.1.1,0,0,1-.1-.1H351l-2.1-1,28,13.5h.5c0-.1-.1-.1-.1-.2a.1.1,0,0,1-.1-.1H377l-92.6-45L340.7,374h.4c.1,0,.1,0,0-.1h-.2l-57.5-27.9h0l47.3,22.8h.5a.1.1,0,0,1-.1-.1h-.2l-40.7-19.6h.1l91.2,43.8h.2a.1.1,0,0,0,.2,0h-.2l-26.9-12.9h0a.1.1,0,0,0,.1-.1h-.3l-23.2-11.2h.1l62.1,29.7h.5a.1.1,0,0,0-.1-.1h-.2L347.1,374h.1l23,11h.4c0-.1,0-.1-.1-.1s0-.1-.1-.1h0l-45-21.5,25.4,12h.3a.1.1,0,0,0,.1-.1h.1l43.2,20.5h.4a.1.1,0,0,1,.1-.1h-.3l-52.8-25.1h.2l2.3,1.1h.3c.1,0,.1,0,.1-.1l52.3,24.8h.2s.1.1.1,0h.2a.1.1,0,0,0-.1-.1h-.1a.1.1,0,0,0-.1-.1h0L279,339l-1,1.5,1.5.7-1.5-.7-.3.4,1.2.6-1.2-.6-.2.4,2.9,1.4h0l-2.9-1.4-1.3,1.9,12.7,6.2h0l62.4,30.5Z" transform="translate(-183.1 -313)"/><path class="cls-3" d="M406.4,413.5a.1.1,0,0,0-.1-.1c0-.1-.1-.1-.1-.2H406L292.7,356.5h.1l46.1,22.9h.4l63.3,31.4h.5v-.2h-.2c0-.1-.1-.1-.2-.1l-8.8-4.4h.1a.1.1,0,0,1,.1-.1h0c0-.1-.1-.1-.1-.2h-.3l-69.4-34.4h0a.1.1,0,0,1-.1-.1h-.1l-27.8-13.8h0l27,13.3h.3a.1.1,0,0,0-.1-.1h0l-4.3-2.1h0l10.4,5.2h.4c-.1,0-.1,0-.1-.1l70,34.4h.6c0-.1-.1-.1-.1-.2h-.3l-69.8-34.3h0l3.7,1.8h.2l-6.1-3h.1l44.6,21.7h.5v-.2h-.1a.1.1,0,0,0-.1-.1H373l-21.7-10.6h0l-62.4-30.5h.1l-12.9-6.3-3,4.6,76.3,38.5h0a.1.1,0,0,1-.1-.1h-.2l-35.6-18h0l85.6,42.9h.5c.1,0,.1-.1,0-.1v-.2h-.3L284.2,353l121.7,60.7h.3a.1.1,0,0,0,.1-.1h.1Z" transform="translate(-183.1 -313)"/><path class="cls-7" d="M272.7,348.7l5.4,2.7h0l-5.4-2.7-.3.5,3.4,1.7h0l-3.4-1.7-2.4,3.7,59.4,31L385.8,413h.5a.1.1,0,0,1,.1-.1.1.1,0,0,0-.1-.1v-.2H386L278.2,356.7h0l39,20a.1.1,0,0,0,.1.1h.3a.1.1,0,0,0-.1-.1h-.1l-10.5-5.4,41.7,21.4h.5l14.5,7.4h.5c0-.1,0-.1-.1-.1v-.2h-.1l-22.4-11.5h.1l60.7,31.1h.2a.1.1,0,0,0,.1.1h.2a.1.1,0,0,0-.1-.1v-.2h-.2L326,379h0c.1,0,.1,0,.1-.1h.1a.1.1,0,0,1-.1-.1H326a.1.1,0,0,0-.1-.1l-4.7-2.4h.1l6.4,3.2h.4a.1.1,0,0,0,.1-.1h0a.1.1,0,0,1-.1-.1H328l-17.7-9h.1c-.1,0-.1,0-.1-.1h-.2l-29.4-15,9.9,5h.3l92,46.6c0,.1.1.1.2.1h.2a.1.1,0,0,0,.1-.1h-.1c0-.1,0-.1-.1-.2a.1.1,0,0,1-.1-.1L314.9,371h.2a.1.1,0,0,0-.1-.1h0a.1.1,0,0,1-.1-.1h0l-17-8.6h0l13.6,6.8h.3c0-.1,0-.1-.1-.1h0l-22.6-11.4h.1l59.7,29.9h.5l-76.3-38.5Z" transform="translate(-183.1 -313)"/><path class="cls-3" d="M266.8,357.8l27,14.5h0l94.3,50.2h0a.1.1,0,0,0,.1.1h.3a.1.1,0,0,0,.1-.1h0v-.2h-.3l-70.5-37.7h.1a.1.1,0,0,1-.1-.1h-.2l-24.3-12.9h.1a.1.1,0,0,1-.1-.1h-.1l-12.3-6.5h0l7.2,3.8h.4l41.2,21.8a.1.1,0,0,0,.1.1h.4a.1.1,0,0,1-.1-.1h-.1a.1.1,0,0,0-.1-.1l-40.4-21.5h0a.1.1,0,0,0-.1-.1h-.1l-14.4-7.6h.1l116.9,61.7h.5a.1.1,0,0,1,.1-.1h-.1v-.2H392l-85.9-45.4h0l3.5,1.7a.1.1,0,0,0,.1.1h.2a.1.1,0,0,0,.1-.1h-.2l-13.6-7.1,63.9,33.4c.1,0,.2,0,.2.1h.2a.1.1,0,0,1,.1-.1h0c.1,0,.1,0,0-.1h-.3l-62.6-32.9h0l32.7,17.1h.4a.1.1,0,0,0,.1-.1h0l44.7,23.3h.5c.1-.1.1-.1,0-.1v-.2h-.3l-61.4-32h0a.1.1,0,0,1-.1-.1h0l-34.9-18.2,10.9,5.7c.1,0,.1,0,.1.1h.2a.1.1,0,0,1,.1-.1h-.2l-3-1.6,41.9,21.7-59.4-31Z" transform="translate(-183.1 -313)"/><path class="cls-7" d="M325.4,397.2l22.8,12.5a.1.1,0,0,0,.1.1h.3a.1.1,0,0,1,.1-.1h0c0-.1-.1-.1-.1-.2h-.1a.1.1,0,0,1-.1-.1l-64.5-35.6,68.9,37.8h.1a.1.1,0,0,0,.1.1h.3a.1.1,0,0,1,.1-.1h-.1c0-.1-.1-.1-.1-.2a.1.1,0,0,1-.1-.1l-35.8-19.7h.1c0-.1-.1-.1-.1-.2h-.2l-52-28.6h0l45.4,24.8h.4c0-.1,0-.1.1-.1h0l14.1,7.7h.3a.1.1,0,0,0-.1-.1l-1.1-.6h0l42.5,23.1a.1.1,0,0,0,.1.1h.3a.1.1,0,0,0,.1-.1h0c0-.1,0-.1-.1-.2a.1.1,0,0,0-.1-.1h-.1l-39.3-21.4h-.2l-29.6-16.1,46.2,25h.3a.1.1,0,0,0,.1-.1h.1c0-.1-.1-.1-.1-.2h-.2l-.4-.2,51,27.6h.5l-.2-.2h-.2L265.8,359.3l-2.2,3.5Z" transform="translate(-183.1 -313)"/><path class="cls-7" d="M265.9,359.2l36.5,19.7h.3a.1.1,0,0,0,.1-.1h.1l66.2,35.6h.4a.1.1,0,0,0,.1-.1h0a.1.1,0,0,0-.1-.1h-.1c0-.1-.1-.1-.1-.2h0l-97.1-52.2h0L328.8,392h.1a.1.1,0,0,0,.1.1h.2a.1.1,0,0,0,.1-.1h0a.1.1,0,0,0-.1-.1h-.1l-39.8-21.4h.1l4.1,2.2h.3l-27-14.5Z" transform="translate(-183.1 -313)"/><path class="cls-3" d="M261.2,366.5l14.2,8h.3L344,413h.5l49,27.5c0,.1.1.1.2.1h.3c0-.1,0-.1-.1-.2a.1.1,0,0,0-.1-.1c0-.1-.1-.1-.2-.2L287.5,380h.1l3.2,1.9h.4a.1.1,0,0,0,.1-.1h0a.1.1,0,0,1-.1-.1h-.1l-14.3-8.1h0l1.6.9h.4l20.5,11.4h.3c0-.1,0-.1-.1-.1h0l-25.8-14.4h.1l44.5,24.8h.3a.1.1,0,0,0-.1-.1l-29.2-16.3,56.8,31.4h.5c0-.1,0-.1-.1-.2a.1.1,0,0,0-.1-.1h-.1l-27.7-15.4h-.1l-49.3-27.3,2.6,1.3h.2l53.4,29.4-61.8-34.4Z" transform="translate(-183.1 -313)"/><path class="cls-3" d="M328.6,407.2h0l46.7,26.6h.6v-.2h-.1c0-.1-.1-.1-.1-.2h-.2L271.2,373.7h.1l5.3,3h.5l2.3,1.3h.2l97.7,55.2h.5v-.2h-.1c0-.1,0-.1-.1-.2h-.2L261.1,366.6l-.8,1.4Z" transform="translate(-183.1 -313)"/><path class="cls-7" d="M230.8,351h-.1l-19.2-10.9h-.3L229,350.7h0l-24.5-14h-.1l-.7.8,21,12.1h-.1l-21-12-.2.3L237,357.5l-33.7-19.3h-.1l-.2.3,8,4.7-8-4.7-.3.4,11.9,6.9h-.1l-9.7-5.6h-.2l23.1,13.6h-.1l-25.4-14.8-.4.6,29.8,17.6h0l-12.8-7.5h-.3l-16.9-9.9h0l-.2.2,169,100.2h0v-.2h0l-.2-.2a.1.1,0,0,1-.1-.1L249,368.5h0l20.6,12.1h.4l25.7,15.1h.3l-10-5.9h0l32.1,18.7h.5l2.3,1.3a.1.1,0,0,1,.1.1h.3c0-.1.1-.1.1-.2s-.1,0-.1-.1h-.2l-16.3-9.5h.2c0-.1,0-.1-.1-.1h-.2l-28.4-16.6h.1l16.9,9.8h.3l-24-14,27.6,15.9h.4a.1.1,0,0,0-.1-.1h0l-18.2-10.6,57.8,33.3h.3l-59.5-34.4h0c0-.1,0-.1-.1-.1l-3.5-2.1h.1l28.8,16.6h.3c.1,0,.1,0,.1-.1l85.1,48.9h.6v-.2h-.1c0-.1,0-.1-.1-.2h-.2L257.4,367.3h0c.1,0,.1,0,.1-.1h0l11.8,6.6h.4l58.5,33.4h.4L260.3,368Z" transform="translate(-183.1 -313)"/><path class="cls-3" d="M201.3,340.6h.2l31.9,18.9h0L214,348.5h-.3L200.9,341l-.3.3L235.4,362h0l-34.8-20.6-.6.7,13.1,7.8h0l20.4,12.2h0l14,8.4h-.1l-22.7-13.6h-.4l-24.9-14.9-.3.3,33,19.9H232l-11.5-6.8h-.4l-12.9-7.8h-.3l19.9,12.1h-.1l-6.9-4.2h-.2a.1.1,0,0,0-.1.1l-21.2-12.9-.4.4,166.4,102h0a.1.1,0,0,1-.1-.1h-.3l-50.4-30.8h0a.1.1,0,0,0-.1-.1c0-.1-.1-.1-.1-.2L278,393.3l16.9,10.3h.4l27.8,16.8h.4a.1.1,0,0,1,.1-.1h0c0-.1,0-.1-.1-.2h-.2l-50.6-30.8,54,32.6h.5l18.4,11h.5v-.2a.1.1,0,0,1-.1-.1h-.2l-52.5-31.8h.1a.1.1,0,0,1-.1-.1h-.1L274,388.3h.2l15.4,9.3h.4l8.7,5.2h.5v-.2h0c-.1,0-.1,0-.1-.1a.1.1,0,0,1-.1-.1l-6.8-4,84.7,50.5h.6c0-.1-.1-.1-.1-.2s-.1-.1-.1-.2h-.2l-60.5-36.2h.1v-.2h-.3l-23.8-14.2,4.9,2.9h.3c.1,0,.1,0,.1-.1h0l22.6,13.4h.5l9,5.3h.5l8.2,4.9h.6v-.2h-.1a.1.1,0,0,0-.1-.1H339l-42.9-25.5,73.8,43.5h.5l-169-100.2Z" transform="translate(-183.1 -313)"/><path class="cls-7" d="M197.6,345l-.2.3,37.2,22.8h-.1l-29.4-17.9c0-.1,0-.1-.1-.1h-.5l-7.6-4.7v.2l-.2.2,31.1,19.2h-.1l-23.5-14.4h-.3l6.1,3.8h0L196,346.9l-.4.6-.3.2,5.7,3.6h0l-5.9-3.6h0l-.3.3L211,358.5l-16.2-10.1-.5.6,134.8,85.4h-.2L290.7,410h0a.1.1,0,0,0-.1-.1h-.1l-22-13.9h.1l35.5,22.3h.5a.1.1,0,0,0-.1-.1.1.1,0,0,0-.1-.1l-28-17.6h.1v-.2h-.1l-20.2-12.7h0l70.6,44.1h.4a.1.1,0,0,1,.1-.1v-.2a.1.1,0,0,0-.1-.1H327c0-.1,0-.1-.1-.1h0l-43.8-27.4h-.2l-35-21.9h.1l101.2,62.9h.5c.1-.1.1-.1,0-.2h0c0-.1-.1-.1-.1-.2h-.2l-43.5-27.1h0l19.8,12.2h.5v-.2c-.1,0-.1,0-.1-.1h-.2l-69.2-42.9h0l6.3,3.8h.4l22.3,13.7a.1.1,0,0,1,.1.1h.4c0-.1,0-.1-.1-.2h0c-.1,0-.1,0-.1-.1l-10.4-6.3h.2l18.8,11.5h.5l62.6,38.4h.4a.1.1,0,0,0,.1-.1h.1v-.2h-.3l-18-11.1h.1v-.2h-.2l-51.1-31.3h.1l75,45.8h.6l-166.4-102Z" transform="translate(-183.1 -313)"/><path class="cls-3" d="M194.3,349l6.2,3.9h-.1l-6.2-3.9-.4.6,4.2,2.6h-.1l-4.2-2.6h-.1l-.4.5,12.3,7.8h-.2L193,350.6l-.4.4h-.1l1,.7h0l2.3,1.5h0l9.8,6.3L194.3,353h-.4l-2-1.3-.2.4,29.2,18.9h-.4l-27.4-17.6h-.3l-1.5-1-.4.3,7,4.6h0l9.1,5.9h0l-16.3-10.6h0L292,419.8h-.1a497582161915.8,497582161915.8,0,0,0-.2-.2l-54.1-35.3h.1l96,62.2h.5V446a.1.1,0,0,1-.1-.1h-.2l-55.8-36.3h.1l15.3,9.8a.1.1,0,0,0,.1.1h.3c0-.1,0-.1-.1-.2h-.1l-4.7-3,51,32.8h.5c0-.1.1-.1,0-.2h0c0-.1-.1-.1-.1-.2h-.2l-85.5-55.2,71.4,45.9h.5c0-.1.1-.1,0-.2h-.1c0-.1-.1-.1-.1-.2l-43.8-28.1h.1c0-.1,0-.1-.1-.1v-.2c-.1,0-.1,0-.1-.1h-.1l-30.7-19.7h.1c0-.1,0-.1-.1-.1h-.1l-15-9.6h.1l66.7,42.5a.1.1,0,0,1,.1.1h.4V422h-.3L261.9,395h0c0-.1,0-.1-.1-.1l-14-9,110.4,70.1h.6v-.2h-.1c0-.1-.1-.1-.1-.2h-.2l-60.7-38.6h.1V416h-.2l-11-7h-.1l-34.2-21.7h0l76.3,48.2h.5c.1,0,.1-.1,0-.1h0L194.3,349Z" transform="translate(-183.1 -313)"/><path class="cls-7" d="M190.1,354.1l-.8.9,11.4,7.5h-.1c-.1.1-.1.1,0,.1h.1l22.4,14.8H223l-34-22.3-.3.4-.3.4,22.5,15h0l-22.6-15-.3.4,20.5,13.8h-.1l-9.7-6.4h-.3a.1.1,0,0,1-.1.1h0c.1,0,.1,0,.1.1h.1l.8.6h-.1l-11.7-7.7h-.1l-.5.6,152,103h.1a.1.1,0,0,0,.1-.1c-.1-.1-.1-.1-.1-.2h-.1l-.2-.2-6.9-4.7h0v-.2h-.1l-.2-.2L222,381.2h0l110.8,74.4h.5c0-.1,0-.1.1-.1v-.2a.1.1,0,0,0-.1-.1V455h-.1l-67.2-45.1h.1a.1.1,0,0,1-.1-.1h-.1l-.8-.5h.1l74,49.4h.6c0-.1,0-.1-.1-.2v-.2h-.1l-37.5-25h.1v-.2h-.1c0-.1-.1-.1-.1-.2l-28.7-19.1h0a.1.1,0,0,0-.1-.1h-.1l-36.8-24.5h.1l4.3,2.8h.3a.1.1,0,0,0,.1-.1l30.2,20h.4a.1.1,0,0,0,.1-.1h0l18.7,12.4h.4c0-.1-.1-.1-.1-.2L278.2,414h.1l71.9,47.3h.5v-.2a.1.1,0,0,1-.1-.1l-.2-.2h0L337.5,452h0v-.2h-.1l-.2-.2-79.4-52.2h.2l77.1,50.5h.6c0-.1,0-.1-.1-.2a.1.1,0,0,0-.1-.1c0-.1-.1-.1-.1-.2h0l-72.6-47.5h.1l28.6,18.6a.1.1,0,0,0,.1.1h.3a.1.1,0,0,1,.1-.1h0L190.7,353.4Z" transform="translate(-183.1 -313)"/><path class="cls-3" d="M186.9,358h-.1l16.5,11.1h-.1c.1,0,.1,0,.1.1l10.4,7h0l7.3,5h0l-34.6-23.3-.8.9-.4.5,2.5,1.7h0a.1.1,0,0,0-.1.1h.1l12.9,8.8h.1l2.6,1.8h-.1l-18.4-12.6-.3.4h0l.6.4h0l-.7-.5-.5.7,23.9,16.6h0l-24-16.5-.3.3,10.5,7.3h0l-10.5-7.2-.4.4,110.2,77.4h.1c0-.1-.1-.1-.1-.2a.1.1,0,0,0-.1-.1h-.1L270,423.2h0c.1-.1.1-.1.1-.2h-.2l-32-22.3h0l28.5,19.8h.4c.1-.1.1-.1.1-.2h-.2l-39.9-27.7,45.9,31.7h.3c.1,0,.1,0,.1-.1h0l11.9,8.2h.5l36.1,24.8h.4a.1.1,0,0,0,.1-.1v-.2h0c0-.1-.1-.1-.1-.2h-.2l-57.5-39.7h.1l4.7,3.2a.1.1,0,0,1,.1.1h.4l11.3,7.8h.2a.1.1,0,0,0,.1.1h.2a497582161915.8,497582161915.8,0,0,0-.2-.2l-12.8-8.9h0c0-.1,0-.1-.1-.1h0l-24.6-16.9,20.2,13.7h.2L228,388.7h.1l11.5,7.7h.3l94.3,64h.5c.1,0,.1-.1,0-.1v-.2h-.1l-.2-.2-82.7-56.2h.1l74.6,50.4h.4a.1.1,0,0,1,.1-.1v-.2h0c-.1-.1-.1-.1-.1-.2h-.2l-38.3-25.9h.1l50.1,33.8h.2a.1.1,0,1,0,.2,0l-152-103Z" transform="translate(-183.1 -313)"/><path class="cls-8" d="M253.4,329.3h-.3l24.4,11.7.2-.4Z" transform="translate(-183.1 -313)"/><path class="cls-8" d="M222.4,315l-.4.6,45.5,22h0l-45.6-22-.2.2h0l20.9,10.2.5.2.6.2.5.2.5.2.5.3.4.2.5.3.4.3,14,6.8h0l-13.2-6.3.4.3.4.3.4.3.3.3,24.7,12h.2l2.5,1.2,1.3-1.9Z" transform="translate(-183.1 -313)"/><path class="cls-8" d="M240.7,325.5h.5l.4.2-9.3-4.5h-.1c0-.1,0-.1-.1,0h0l7.7,3.7h.9Z" transform="translate(-183.1 -313)"/><path class="cls-8" d="M278.5,338.8h0l.5.2v-.2l-4.5-2.1-12.9-6.2h0L224.1,313l-.4.5,19,9h-.1l-19-9v.2h-.1l11.3,5.4h-.1a.1.1,0,0,0,.1.1h.1L269,335.9h.2l8.8,4.3,1-1.5Z" transform="translate(-183.1 -313)"/><path class="cls-8" d="M227.6,316.5h-.2a.1.1,0,0,0-.1.1h.1l50.3,24.1.3-.4Z" transform="translate(-183.1 -313)"/><path class="cls-8" d="M235.2,325h.4l-15.2-7.5h0l-.3.3h.1l14.6,7.2h.4Z" transform="translate(-183.1 -313)"/><polygon class="cls-8" points="66 22.9 66.3 23.9 67.8 24.6 68.5 24.1 66 22.9"/><path class="cls-8" d="M236.3,325h.4l-2.7-1.3h-.2l2,1h.5Z" transform="translate(-183.1 -313)"/><path class="cls-8" d="M276.1,343.5l-11.9-5.8h-.4c0,.1,0,.1.1.1h0l1.7.8h-.1l-14.8-7.1.3.3c.1.2.2.3.2.4l.3.4c.1.2.2.3.2.4l8.1,4h0l-8-3.9a.5.5,0,0,0,.2.4c0,.1.1.2.1.4l.2.3c0,.1.1.3.1.4a.8.8,0,0,0-.2-.4l-.3-.4-.2-.5-.3-.4-6.3-3h-.4l-6.5-3.2H236l18.8,9.3h-.1l-18.9-9.4h-1.6l10.5,5.3h0L234,327.8h-.6l15.2,7.6.3-.7.2,1,2.5,1.2,1.2-1-.5,1.4h0l-.2.7,1.5.8,2.4-.5-1.4,1,18.1,9.2.4-.6Z" transform="translate(-183.1 -313)"/><path class="cls-8" d="M231.4,325.6c.1,0,.2,0,.2-.1h.3l-12.8-6.4-.2.2-.3.3,12.3,6.1h.5Z" transform="translate(-183.1 -313)"/><path class="cls-8" d="M230.1,326h.1a.1.1,0,0,0,.1-.1l-8.5-4.2h-.3c-.1.1,0,.1,0,.1h.1l8.2,4.2h.3Z" transform="translate(-183.1 -313)"/><path class="cls-8" d="M233,325.2h.9l-14.1-6.9-.4.4,2,1h-.1l-1.9-.9-.3.3,13,6.4h.9Z" transform="translate(-183.1 -313)"/><path class="cls-8" d="M250.3,332.1l-.5-.6-.6-.4-7-3.5h-1.5l5.5,2.6h-.1l-5.6-2.8h-1.2l12,5.9-.5-.5A1.2,1.2,0,0,0,250.3,332.1Z" transform="translate(-183.1 -313)"/><path class="cls-8" d="M233.3,328h-.4c-.1,0-.2,0-.2.1h-.2l15.9,8.1.2-.8Z" transform="translate(-183.1 -313)"/><path class="cls-8" d="M229.5,330.3h-.1a.1.1,0,0,0-.1.1h-.1c0,.1,0,.1-.1.1l13.8,7.1-.9-1Z" transform="translate(-183.1 -313)"/><path class="cls-8" d="M229.3,326.4h.4l-7-3.5h-.3l.9.4h0l5.6,2.9h.4Z" transform="translate(-183.1 -313)"/><polygon class="cls-8" points="65.1 24 62.5 22.7 64.7 25.2 65.1 24"/><path class="cls-8" d="M243.4,338.3l-14.5-7.5h0a.1.1,0,0,0-.1.1h-.2l2.5,1.3h.1l13.3,7h.2Z" transform="translate(-183.1 -313)"/><path class="cls-8" d="M259.6,342.2h-.3l13.1,6.7.3-.5Z" transform="translate(-183.1 -313)"/><path class="cls-8" d="M226.4,328.2h.3l-10.6-5.3-.2.2-.2.2,10.5,5.4c0-.1,0-.1.1-.1S226.4,328.3,226.4,328.2Z" transform="translate(-183.1 -313)"/><polygon class="cls-8" points="73.8 28.4 71 27 69.8 27.9 73.8 28.4"/><path class="cls-8" d="M225.9,328.7h.2l-10.5-5.4h0l-.2.2,10.4,5.4h0A.1.1,0,0,0,225.9,328.7Z" transform="translate(-183.1 -313)"/><polygon class="cls-8" points="69.5 26.2 68.7 25.8 68.5 26.4 69.5 26.2"/><path class="cls-8" d="M225.4,329.3a.1.1,0,0,1,.1-.1h.1l-10.4-5.3-.3.3,10.4,5.3h.1Z" transform="translate(-183.1 -313)"/><path class="cls-8" d="M227.6,327.3h.4l-11-5.6-.2.4h-.1l9.8,5h0a.1.1,0,0,1,.1.1l.6.3c.1-.1.2-.1.2-.2Z" transform="translate(-183.1 -313)"/><path class="cls-8" d="M230.1,329.8h-.5l12.3,6.3h-.1l2.7,1.4,1.4.7-.2-.9Z" transform="translate(-183.1 -313)"/><path class="cls-8" d="M231.7,328.7l-.3.2h-.3c0,.1-.1.1-.2.2h-.2l5.2,2.7h-.1a.1.1,0,0,1,.1.1h.1l8.8,4.6h.1l.8.4-.6-2.1Z" transform="translate(-183.1 -313)"/><polygon class="cls-8" points="67.2 25.1 66.5 24.7 66.7 25.5 67.2 25.1"/><polygon class="cls-8" points="66.6 32.4 66.6 32.4 66.6 32.4 66.6 32.4"/><path class="cls-8" d="M224.6,330.4h0a.1.1,0,0,0,.1-.1l-10.4-5.3-.3.3,10.4,5.4c.1,0,.1,0,.1-.1Z" transform="translate(-183.1 -313)"/><path class="cls-8" d="M224.8,330.1h0a.1.1,0,0,0,.1-.1l-4.8-2.5h-.2l4.8,2.5h.1Z" transform="translate(-183.1 -313)"/><path class="cls-8" d="M244.3,342.7l-4.5-.6,2.3-.5-3.8-2.1h-.4l-10.7-5.7c0,.1,0,.1-.1.2v.2h0a.3.3,0,0,0-.1.2l9.5,5.1h0l-9.5-5h0v.2c-.1,0-.1.1-.1.2h.2l15.7,8.4,1.7-1.3Z" transform="translate(-183.1 -313)"/><path class="cls-8" d="M223.6,332.4h.1c0-.1,0-.1.1-.2l-6-3.1h-.2l3.4,1.8h0l2.5,1.4v-.4Z" transform="translate(-183.1 -313)"/><path class="cls-8" d="M240,339l3.5.5-15.2-7.8a.1.1,0,0,0-.1.1c-.1.1-.1.2-.2.2s0,.1-.1.2,0,.1-.1.2l8,4.1h0l.7.4h0c0,.1,0,.1.1.1h0l6.9,3.7.7-.2Z" transform="translate(-183.1 -313)"/><path class="cls-8" d="M270,352.9l2.4-3.7-15-7.6-2.7.6,6.2,3.2h0l-6.3-3.2-1.3.3,4.5,2.2-4.9-.7.6.7,3.3,1.7-3.3-1.7,2.5,2.7-4.4-2.4v.6l12.9,6.7h-.1l-7-3.7h-.3a.1.1,0,0,0-.1.1l-5.2-2.7v.6l11.2,5.9L252,346.7l.7,2.2-2.9-3.3h-.1l-1.1,3.5-1-3.9-1.1,1,1.2.6h-.1l-1.2-.7-1.9,1.6.8-2.2-1.7-.8-2.2.5,1.3-1-14.6-7.8h-.3l12.4,6.6h-.1l-13.2-7.1v.7a1.3,1.3,0,0,1,.1.6,6.4,6.4,0,0,0,.2.7,2.5,2.5,0,0,0,.2.7L252,352.3h0l-8-4.4h-6l2.3,1.2h.1l16.8,9.3h.1l5.3,2.9h-.1l-.7-.4h0l-26-14.2-1.4-.4-1.3-.4-1.2-.6-1.3-.6-1.1-.7-1-.7-.9-.8-.9-.8-13.5-7.4h-.3l4.5,2.5h-.1l38.6,21.5h-.1l-1.3-.7h-.2l-47-26.1-.3.5h-.1l13.4,7.5h.1l30,16.9h0l-19-10.6h-.3l-24.7-13.8-.4.6,11.7,6.6-11.8-6.6-.2.4L231,349.7h-.1a.1.1,0,0,1,.1.1h0l8.6,4.8-23.8-13.3h0a.1.1,0,0,1-.1-.1h-.2l-10.2-5.8-.3.4,27.5,15.7h-.1l-1.3-.7a.1.1,0,0,1-.1-.1h-.2l29.5,17,.8-1.4-.9-.5h.1l.9.5,2.4-3.7,2.2-3.5-2.4-1.3h.1l2.4,1.2.9-1.4Z" transform="translate(-183.1 -313)"/><polygon class="cls-8" points="60.7 31.6 62.2 32.4 62.7 31.1 60.7 31.6"/><path class="cls-8" d="M223.5,333h0l-11-5.8v.2h-.1l11.1,5.9h.1Z" transform="translate(-183.1 -313)"/><path class="cls-8" d="M223.3,335.6v-1.2l-11.7-6.3-.3.4,4.3,2.3h0l-4.4-2.3-.2.3-.7.8,13.1,7.1a1.3,1.3,0,0,0-.1-.6Z" transform="translate(-183.1 -313)"/><path class="cls-8" d="M223.8,338.2a.4.4,0,0,0-.1-.3.4.4,0,0,0-.1-.3h-.1l-13.7-7.4-.4.5h0l14.7,8a.4.4,0,0,1-.1-.3Z" transform="translate(-183.1 -313)"/><path class="cls-8" d="M224.7,340l-.3-.5-.3-.5-14.8-8.1h-.1l-.7.9,16.8,9.3-.3-.5Z" transform="translate(-183.1 -313)"/><path class="cls-8" d="M239.3,347.8l1.9.2H243l-15.3-8.3.2.4.2.4c.1.1.1.3.2.4a.5.5,0,0,1,.2.4h.1l.6.9.8.9.9.8.9.8,3.8,2a6.4,6.4,0,0,0,1.8.6Z" transform="translate(-183.1 -313)"/><path class="cls-9" d="M245.6,327.4l-.4-.2-.5-.3-.5-.2-.5-.2-.6-.2-.5-.2,3.9,1.9-.4-.3Z" transform="translate(-183.1 -313)"/><path class="cls-9" d="M248.1,329.1l-.4-.3-.4-.3-5.7-2.7-.4-.2h-1.4l9,4.4-.3-.3Z" transform="translate(-183.1 -313)"/><path class="cls-9" d="M239.9,327.3h.6l-4.9-2.3h-.8l4.5,2.2h.6Z" transform="translate(-183.1 -313)"/><path class="cls-9" d="M241.5,327.5h.7l-5.5-2.6h-.9l4.9,2.4h.8Z" transform="translate(-183.1 -313)"/><path class="cls-9" d="M235,327.5h.8l-3.9-1.9h-.3c0,.1-.1.1-.2.1h-.5l1.7.9h0l1.6.8h.8Z" transform="translate(-183.1 -313)"/><path class="cls-9" d="M233.7,327.9h.3l-3.7-1.9a.1.1,0,0,1-.1.1h-.4l3.6,1.8h.3Z" transform="translate(-183.1 -313)"/><path class="cls-9" d="M251.2,332.5c0-.1-.1-.2-.2-.4l-.3-.3-1.5-.7.6.4.5.6a1.2,1.2,0,0,1,.5.5l.5.5.4.2c0-.1-.1-.2-.2-.4Z" transform="translate(-183.1 -313)"/><path class="cls-9" d="M251.9,334.1l.3.4a.8.8,0,0,1,.2.4c0-.1-.1-.3-.1-.4l-.2-.3c0-.2-.1-.3-.1-.4a.5.5,0,0,1-.2-.4l-.4-.2.3.4Z" transform="translate(-183.1 -313)"/><path class="cls-9" d="M237.1,327.2h1.1l-4.3-2.1h-1.8l3.9,2h1.1Z" transform="translate(-183.1 -313)"/><path class="cls-9" d="M229.8,330h.3l-3.4-1.8h-.3c0,.1-.1.1-.1.2s-.1,0-.1.1l3.4,1.7h.2Z" transform="translate(-183.1 -313)"/><path class="cls-9" d="M229.3,330.5a.1.1,0,0,1,.1-.1h.1l-3.4-1.7h-.2a.1.1,0,0,1-.1.1h0l3.3,1.7c.1,0,.1,0,.1-.1Z" transform="translate(-183.1 -313)"/><path class="cls-9" d="M228.8,331a.1.1,0,0,1,.1-.1h0l-3.3-1.7h-.1a.1.1,0,0,0-.1.1h-.1l3.3,1.8h.2Z" transform="translate(-183.1 -313)"/><path class="cls-9" d="M231.1,329h.3l.3-.2h-.5l-3.2-1.6h-.6c0,.1-.1.1-.2.2l3.5,1.7h.2C231,329.1,231.1,329.1,231.1,329Z" transform="translate(-183.1 -313)"/><path class="cls-9" d="M232.9,328.2h.4l-3.6-1.8h-.8l3.6,1.7h.2C232.7,328.2,232.8,328.2,232.9,328.2Z" transform="translate(-183.1 -313)"/><path class="cls-9" d="M228,332c.1,0,.1-.1.2-.2a.1.1,0,0,1,.1-.1l-3.4-1.8a.1.1,0,0,1-.1.1h-.1l3.1,1.7-3.1-1.7a.1.1,0,0,1-.1.1h-.1c0,.1,0,.1-.1.1l3.4,1.8c.1-.1.1-.1.1-.2S228,332.1,228,332Z" transform="translate(-183.1 -313)"/><path class="cls-9" d="M227.1,334.3v-.2c.1-.1.1-.1.1-.2l-3.4-1.8c-.1.1-.1.1-.1.2h-.1v.4l3.5,1.8a.3.3,0,0,1,.1-.2Z" transform="translate(-183.1 -313)"/><path class="cls-9" d="M227,335v-.2h0l-3.5-1.9h0a.1.1,0,0,1,.1.1h0l3.3,1.7h0C226.9,335.1,226.9,335,227,335Z" transform="translate(-183.1 -313)"/><path class="cls-9" d="M240.6,348.2h.6l-1.9-.2-1.9-.5a6.4,6.4,0,0,1-1.8-.6l2.4,1.4h2.6Z" transform="translate(-183.1 -313)"/><path class="cls-9" d="M228.1,340.5l-.2-.4-.2-.4-3.9-2.1h-.2a.4.4,0,0,1,.1.3.4.4,0,0,1,.1.3l.2.3a.4.4,0,0,0,.1.3l4.4,2.5a.5.5,0,0,0-.2-.4C228.2,340.8,228.2,340.6,228.1,340.5Z" transform="translate(-183.1 -313)"/><path class="cls-9" d="M227,337.6a1.3,1.3,0,0,0-.1-.6v-.7l-3.6-1.9v1.8a1.3,1.3,0,0,1,.1.6l4,2.2a2.5,2.5,0,0,1-.2-.7A6.4,6.4,0,0,1,227,337.6Z" transform="translate(-183.1 -313)"/><path class="cls-9" d="M230,343.1l-.8-.9-.6-.9h-.1l-4.4-2.4.3.5.3.5.3.6.3.5,6.5,3.6-.9-.8Z" transform="translate(-183.1 -313)"/><path class="cls-9" d="M228.5,344.3l1,.7,1.1.7,1.3.6,1.2.6,1.3.4,1.4.4-9.1-5,.9.8Z" transform="translate(-183.1 -313)"/><polygon class="cls-9" points="65.5 22.6 65.3 23.4 66.3 23.9 66 22.9 65.5 22.6"/><polygon class="cls-9" points="68.5 24.1 69.2 24.4 69.7 23.1 68.5 24.1"/><polygon class="cls-9" points="65.5 22.6 66 22.8 65.8 21.9 65.5 22.6"/><polygon class="cls-9" points="70.5 26 71.5 26.5 72.9 25.4 70.5 26"/><polygon class="cls-9" points="68.5 24.1 67.8 24.6 69 25.2 69.2 24.5 68.5 24.1"/><path class="cls-9" d="M257.8,344.7l-4.5-2.2,1.3-.3-8.9-4.5.2.9,3.1,1.6h-.1l-6.9-3.6.9,1,3.5,1.8h-.1l-2.9-1.5,1.3,1.4h-.2l7.5,3.9h.1l1.4.8-.6-.7Z" transform="translate(-183.1 -313)"/><polygon class="cls-9" points="58.8 23.5 61.4 24.9 58.7 23.5 58.8 23.5"/><polygon class="cls-9" points="73.8 28.4 69.8 27.9 71 27 69.5 26.2 68.5 26.4 68.7 25.8 67.2 25.1 66.7 25.5 66.5 24.7 65.1 24 64.7 25.2 62.5 22.7 62 22.5 62.6 24.5 71.6 29.2 74.3 28.6 73.8 28.4"/><polygon class="cls-9" points="61.2 29.7 59 28.5 56.7 29 61.2 29.7"/><polygon class="cls-9" points="72.9 34.4 70.4 31.7 60.4 26.5 56.9 25.9 61.1 28.1 60.4 28.2 68.6 32.5 68.5 32 72.9 34.4"/><path class="cls-9" d="M246.1,343.1h-.2l3.8,2h0l2.3,1.2v-.6Z" transform="translate(-183.1 -313)"/><polygon class="cls-9" points="68.9 33.7 66.7 32.5 69.6 35.9 68.9 33.7"/><polygon class="cls-9" points="65.5 36 66.6 32.5 61.4 29.8 59.7 31.1 60.7 31.6 62.7 31.1 62.2 32.4 63.4 33 64.5 32.1 65.5 36"/><polygon class="cls-9" points="63.3 33.1 62.2 32.5 61.4 34.6 63.3 33.1"/><polygon class="cls-9" points="60.5 31.6 59.6 31.1 58.3 32.1 60.5 31.6"/></g></g></g><rect class="cls-3" x="49.9" y="45.8" width="84.2" height="59.33"/><path class="cls-2" d="M316.1,353.8H234.2a7.3,7.3,0,0,0-7.3,7.3v55.1a7.3,7.3,0,0,0,7.3,7.3h81.9a7.3,7.3,0,0,0,7.3-7.3V361.1A7.3,7.3,0,0,0,316.1,353.8Zm1.2,63.7H233V359.4h84.3Z" transform="translate(-183.1 -313)"/><rect class="cls-2" x="83.5" y="110.5" width="17.1" height="10.04"/><path class="cls-2" d="M292.1,444.3H258c-.1-.5-1.1-4.9,1.9-8.3a8.7,8.7,0,0,1,4-2.5h22.7a8,8,0,0,1,4.2,2.7A9.2,9.2,0,0,1,292.1,444.3Z" transform="translate(-183.1 -313)"/><path class="cls-10" d="M72.2,34.1h39.7a6.1,6.1,0,0,1,6.1,6.1v64.2a0,0,0,0,1,0,0H66.1a0,0,0,0,1,0,0V40.1A6.1,6.1,0,0,1,72.2,34.1Z"/><path class="cls-11" d="M275.1,356.8A16.9,16.9,0,1,0,292,373.6,16.9,16.9,0,0,0,275.1,356.8Zm9.4,13.6-9.4,9.5a3.8,3.8,0,0,1-2.8,1.4,5.2,5.2,0,0,1-2.8-1l-4-4.5a2.8,2.8,0,0,1,.8-2.9,2.7,2.7,0,0,1,3-.7l1.5,1.4a1.6,1.6,0,0,0,1.2.6,2.3,2.3,0,0,0,1.8-.8l6.6-6.9a3.1,3.1,0,0,1,3.2.3A2.9,2.9,0,0,1,284.5,370.4Z" transform="translate(-183.1 -313)"/><rect class="cls-11" x="74.7" y="86.1" width="34.6" height="2.66" rx="1.3"/><rect class="cls-11" x="74.7" y="94.2" width="34.6" height="2.66" rx="1.3"/></svg>