<svg xmlns="http://www.w3.org/2000/svg" xmlns:xlink="http://www.w3.org/1999/xlink" viewBox="0 0 223.3 157"><defs><style>.cls-1{fill:none;}.cls-2{isolation:isolate;}.cls-3{fill:#0453a5;}.cls-4{fill:#fff;}.cls-5{opacity:0.29;}.cls-6{clip-path:url(#clip-path);}.cls-7{clip-path:url(#clip-path-2);}.cls-8{fill:#e82327;}.cls-9{fill:#272870;}.cls-10{fill:#fbca0c;}.cls-11{opacity:0.75;mix-blend-mode:multiply;}</style><clipPath id="clip-path" transform="translate(5.9 -212.3)"><path class="cls-1" d="M161.7,291.6A75.6,75.6,0,0,1,18.8,326.1h0a75.6,75.6,0,1,1,142.9-34.5Z"/></clipPath><clipPath id="clip-path-2" transform="translate(5.9 -212.3)"><rect class="cls-1" x="2.2" y="250.1" width="213.7" height="142.49" transform="translate(125 -17.6) rotate(21.4)"/></clipPath></defs><title>map_blue</title><g class="cls-2"><g id="Layer_1" data-name="Layer 1"><path class="cls-3" d="M163.8,291.6A77.8,77.8,0,0,1,16.9,327.1h0a77.7,77.7,0,1,1,146.9-35.4Z" transform="translate(5.9 -212.3)"/><path class="cls-4" d="M161.7,291.6A75.6,75.6,0,0,1,18.8,326.1h0a75.6,75.6,0,1,1,142.9-34.5Z" transform="translate(5.9 -212.3)"/><g class="cls-5"><g class="cls-6"><g class="cls-7"><path class="cls-8" d="M103,244.3h.3l-13.2-6.3v.2Z" transform="translate(5.9 -212.3)"/><path class="cls-8" d="M162.3,279.4h0a.1.1,0,0,1-.1-.1H162l-2.1-1,28,13.5h.5a.1.1,0,0,0-.1-.1c0-.1-.1-.1-.1-.2H188l-92.6-45,56.3,27.2h.5c-.1,0-.1,0-.1-.1h-.2L94.4,245h0l47.3,22.8h.5a.1.1,0,0,1-.1-.1.1.1,0,0,1-.1-.1l-40.8-19.6c.1,0,.1,0,.1-.1h0l91.2,43.8h.5v-.2h-.3l-26.9-12.9h0c.1,0,.1,0,.1-.1h0a.1.1,0,0,0-.1-.1h-.2l-23.2-11.2h.1l62.1,29.8h.2l-46.7-22.4h.1l23,10.9h.3c0-.1,0-.1-.1-.1h0l-45-21.5,25.4,12h.4a.1.1,0,0,1,.1-.1h0l43.2,20.5h.5v-.2h-.3l-52.8-25.1h.2l2.3,1.1h.4l52.3,24.7h.5a.1.1,0,0,0-.1-.1.1.1,0,0,0-.1-.1h-.1L90,238.3l-1,1.5,1.5.7-1.5-.7-.3.5,1.2.5-1.2-.5-.2.3,2.9,1.5h0l-2.9-1.4-1.3,1.9,12.7,6.2h0l62.4,30.5Z" transform="translate(5.9 -212.3)"/><path class="cls-4" d="M217.4,312.8a.1.1,0,0,0-.1-.1h-.1l-.2-.2L103.7,255.8h.1l46.1,22.9h.4L213.6,310h.5v-.2h-.2c0-.1-.1-.1-.2-.1l-8.8-4.4h.2c0-.1-.1-.1-.1-.2h-.3l-69.4-34.4h0a.1.1,0,0,1-.1-.1h-.1l-27.8-13.8h0l27,13.3h.3a.1.1,0,0,0-.1-.1h0l-4.3-2.1h0l10.4,5.2h.3l70,34.3h.6c0-.1-.1-.1-.1-.2h-.3l-69.8-34.3h0l3.7,1.8h.4c.1,0,.1,0,.1-.1h-.3l-6.1-3h.1l44.6,21.7h.5c0-.1,0-.1-.1-.2H184l-21.7-10.5h0L99.9,249h.1l-12.9-6.3-3,4.6,76.3,38.5h-.1c0-.1,0-.1-.1-.1h-.1l-35.6-17.9h0l85.6,42.8h.5a.1.1,0,0,1,.1-.1.1.1,0,0,0-.1-.1v-.2h-.3L95.2,252.3,216.9,313h0a.1.1,0,0,1,.1.1h.2c.1,0,.1,0,.1-.1s.1,0,.1-.1h0Z" transform="translate(5.9 -212.3)"/><path class="cls-8" d="M83.7,248l5.4,2.7h0L83.7,248l-.3.5,3.4,1.7h0l-3.4-1.7L81,252.2l59.4,31,56.4,29.1h.6c-.1-.1-.1-.1-.1-.2a.1.1,0,0,1-.1-.1H197L89.2,256h0l39,20a.1.1,0,0,0,.1.1h.3a.1.1,0,0,0-.1-.1h-.1l-10.5-5.4,41.7,21.4h.5l14.5,7.4c0,.1.1.1.2.1h.2a.1.1,0,0,0,.1-.1h0a.1.1,0,0,0-.1-.1h-.1a.1.1,0,0,0-.1-.1l-22.4-11.6h.1L213.2,318h.2a.1.1,0,0,0,.2,0c.1,0,.1,0,.1-.1h0a.1.1,0,0,0-.1-.1v-.2h-.2L137,278.3h.2a.1.1,0,0,1-.1-.1.1.1,0,0,0-.1-.1h-.1l-4.7-2.4h.1l6.4,3.3h.4a.1.1,0,0,0,.1-.1h0a.1.1,0,0,1-.1-.1H139l-17.7-9h0c.1,0,.1,0,.1-.1h-.3l-29.4-15,9.9,5h.3l92,46.6h.4c0-.1,0-.1-.1-.2h-.1l-68.2-34.5h.2a.1.1,0,0,1-.1-.1h-.1l-17-8.6h0l13.6,6.8h.1c.1,0,.1.1.2,0h0c0-.1,0-.1-.1-.1h0l-22.6-11.4h.1L159.9,286h.5L84.1,247.4Z" transform="translate(5.9 -212.3)"/><path class="cls-4" d="M77.8,257.1l27,14.5h0l94.3,50.2h.5v-.2h-.3l-70.5-37.7h0c.1,0,.1,0,.1-.1h-.3l-24.3-12.9h-.1l-12.3-6.5h0l7.3,3.8h0c0,.1,0,.1.1.1h.1c.1,0,.1,0,.1-.1l41.2,21.8a.1.1,0,0,0,.1.1h.3a.1.1,0,0,0-.1-.1h-.1l-40.4-21.5h0a.1.1,0,0,0-.1-.1h-.1l-14.4-7.6h.1l116.9,61.7h.5a.1.1,0,0,1,.1-.1h0c-.1-.1-.1-.1-.1-.2H203l-85.9-45.4h0l3.5,1.8h.3a.1.1,0,0,1-.1-.1h0l-13.6-7.1,63.9,33.4c.1,0,.2,0,.2.1h.3c.1-.1.1-.1,0-.2h-.3l-62.6-32.9h0l32.7,17h.4a.1.1,0,0,0,.1-.1h0L186.6,309h.5c.1,0,.1-.1,0-.1v-.2h-.3l-61.4-32h0a.1.1,0,0,1-.1-.1h0L90.4,257.9l10.9,5.6c.1,0,.1,0,.1.1h.2a.1.1,0,0,1,.1-.1h0a.1.1,0,0,1,.1-.1h-.2l-3.1-1.6,41.9,21.7L81,252.2Z" transform="translate(5.9 -212.3)"/><path class="cls-8" d="M136.4,296.5,159.2,309a.1.1,0,0,0,.1.1h.3a.1.1,0,0,1,.1-.1h-.1c0-.1,0-.1-.1-.2a.1.1,0,0,1-.1-.1L94.9,272.9l69,37.9h.4c0-.1-.1-.1-.1-.2a.1.1,0,0,1-.1-.1l-35.8-19.7h.1c0-.1-.1-.1-.1-.2h-.2l-52-28.5h0l45.4,24.8h.4a.1.1,0,0,1,.1-.1h0l14.1,7.7h.4a.1.1,0,0,0-.1-.1h-.1l-1.1-.6h0l42.5,23.1c0,.1.1.1.2.1h.2a.1.1,0,0,0,.1-.1h0c0-.1,0-.1-.1-.2h-.2l-39.3-21.4h-.2l-29.6-16.1,46.2,25h.4c0-.1,0-.1.1-.1h0c0-.1-.1-.1-.1-.2h-.1a.1.1,0,0,1-.1-.1l-.4-.2,51,27.6h.5l-.2-.2H206L76.9,258.6l-2.3,3.5Z" transform="translate(5.9 -212.3)"/><path class="cls-8" d="M76.9,258.5l36.5,19.7h.4c0-.1,0-.1.1-.1h0l66.2,35.6h.4a.1.1,0,0,0,.1-.1h0a.1.1,0,0,0-.1-.1c0-.1,0-.1-.1-.1h-.1L83.2,261h0l56.7,30.3h.3a.1.1,0,0,0-.1-.1l-39.8-21.4h.1l4.1,2.2h.3l-27-14.5Z" transform="translate(5.9 -212.3)"/><path class="cls-4" d="M72.2,265.8l14.2,8h.3L155,312.3h.5l49,27.5c0,.1.1.1.2.1h.3v-.2h-.2c0-.1-.1-.1-.2-.2L98.5,279.3h.1l3.2,1.8h.4a.1.1,0,0,0,.1-.1h0v-.2a.1.1,0,0,1-.1-.1h-.1l-14.3-8.1h0l1.6.9h.4l20.5,11.4h.2c.1,0,.1,0,.1-.1h0c0-.1,0-.1-.1-.1h0L84.7,270.1h.1l44.5,24.8h.4a.1.1,0,0,0-.1-.1h-.1L100.3,278l56.8,31.4h.4a.1.1,0,0,1,.1-.1h0c0-.1,0-.1-.1-.2h-.2l-27.7-15.4h.2v-.2h-.2L80.2,265.7l2.6,1.4H83l53.4,29.4L74.6,262.1Z" transform="translate(5.9 -212.3)"/><path class="cls-4" d="M139.6,306.5h0l46.7,26.6h.6v-.2h-.2l-.2-.2L82.2,273h.1l5.3,3h0a.1.1,0,0,1,.1.1h.4l2.3,1.3h.2l97.7,55.2h.5v-.2h-.1c0-.1,0-.1-.1-.2h-.1L72.1,265.9l-.8,1.4Z" transform="translate(5.9 -212.3)"/><path class="cls-8" d="M41.8,250.4h-.1L22.5,239.5h-.3L40,250h0L15.5,236h-.1l-.7.8,21,12.1h-.1l-21-12-.2.3L48,256.9,14.3,237.5h-.1l-.2.3,8,4.7-8-4.7-.3.4,11.9,7h-.1l-9.7-5.6h-.2l23.1,13.6h-.1L13.3,238.7l-.5.6,29.9,17.6h-.1l-12.8-7.5h-.3l-16.9-9.9h0v.2L181.4,339.9h0v-.2h0l-.2-.2h-.1L60,267.8h0l20.6,12.1H81L106.7,295h.4a.1.1,0,0,0,.1-.1H107l-10-5.9h0l32.1,18.7h.5l2.3,1.3h.5c-.1-.1-.1-.1-.1-.2h-.2l-16.3-9.5h.2a.1.1,0,0,0-.1-.1h-.2L87.4,281.4h0l16.9,9.8h.3l-24-14,27.6,15.9h.4a.1.1,0,0,0-.1-.1h0L90.3,281.6l57.8,33.3h.5c0-.1.1-.1,0-.2h-.1a.1.1,0,0,0-.1-.1h0L88.9,280h0c0-.1,0-.1-.1-.1l-3.5-2.1h.1l28.8,16.6h.4l85.1,48.9h.6v-.2a.1.1,0,0,0-.1-.1v-.2h-.2L68.4,266.6h.1l11.8,6.6h.4l58.5,33.4h.2c0,.1.1.1.1,0h.1L71.3,267.3Z" transform="translate(5.9 -212.3)"/><path class="cls-4" d="M12.3,239.9h.2l31.9,18.9h0L25,247.8h-.3l-12.8-7.6-.3.4,34.8,20.6h0L11.6,240.7l-.6.7,13.1,7.8h0l20.4,12.2h0l14,8.4h-.1L35.7,257.1h-.4L10.4,242.2l-.3.3,33,20H43l-11.5-6.8h-.4L18.2,248h-.3l19.9,12.1h-.1l-6.9-4.2h-.3L9.3,243.5l-.4.4,166.4,102h0a.1.1,0,0,1-.1-.1h-.1a.1.1,0,0,1-.1-.1l-50.5-30.8h-.1a.1.1,0,0,0-.1-.1L89,292.6l16.9,10.3a.1.1,0,0,1,.1.1h.3l27.8,16.8h.4a.1.1,0,0,1,.1-.1h0v-.2h-.3L83.7,288.4l54,32.6h.5l18.4,11c0,.1.1.1.2.1h.2a.1.1,0,0,0,.1-.1h0v-.2a.1.1,0,0,1-.1-.1h-.2l-52.5-31.8h.1v-.2a.1.1,0,0,1-.1-.1h-.1L85.1,287.6h.1l15.4,9.3h.4l8.7,5.2h.3a.1.1,0,0,0,.1-.1h.1v-.2h-.1c-.1,0-.1,0-.1-.1l-6.8-4,84.7,50.5h.6c0-.1,0-.1-.1-.2h-.1l-.2-.2-60.5-36.2h.1c0-.1,0-.1-.1-.2h-.2l-23.8-14.2,4.9,2.9h.3c.1,0,.1,0,.1-.1h0l22.6,13.4a.1.1,0,0,0,.1.1h.3a.1.1,0,0,1,.1-.1h0l9,5.3h.6l8.2,4.9h.4c0-.1,0-.1.1-.1v-.2h-.1a.1.1,0,0,0-.1-.1.1.1,0,0,0-.1-.1l-42.9-25.4,73.8,43.4h.4a.1.1,0,0,0,.1-.1L12.5,239.7Z" transform="translate(5.9 -212.3)"/><path class="cls-8" d="M8.6,244.3l-.2.3,37.2,22.8h0c0,.1,0,.1-.1.1h0L16.1,249.6h-.4a.1.1,0,0,0-.1.1h-.1l-7.6-4.7v.2l-.2.2,31.1,19.2h-.1L15.1,250.4h-.3l6.1,3.7h0L7,246.3l-.4.5-.3.3,5.7,3.5h0l-5.9-3.6h0l-.3.3L22,257.8,5.8,247.7l-.5.6,134.8,85.4h0c-.1,0-.1,0-.1-.1h-.1l-38.2-24.1h0a2487910809615.9,2487910809615.9,0,0,1-.2-.2h0L79.5,295h.1l35.5,22.3h.2s.1.1.1,0h.1a.1.1,0,0,0-.1-.1l-28-17.6h-.1L67.1,285.9h0L137.7,330h.4a.1.1,0,0,1,.1-.1v-.2H138c0-.1,0-.1-.1-.1h0L94.1,302h-.2l-35-21.9H59l101.2,62.9h.5c.1-.1.1-.1,0-.2h0c0-.1-.1-.1-.1-.2h-.2l-43.5-27.1h0l19.8,12.2h.5c-.1-.1-.1-.1-.1-.2h-.2L67.7,283.7h0l6.3,3.8a.1.1,0,0,0,.1.1h.3L96.7,301a.1.1,0,0,1,.1.1h.3c0-.1,0-.1.1-.1h0v-.2c-.1,0-.1,0-.1-.1l-10.3-6.3h.1l18.8,11.5h.5L168.7,344h.4a995164323832.2,995164323832.2,0,0,1,.2-.2h-.1c0-.1-.1-.1-.1-.2h-.2l-18-11.1h.1a.1.1,0,0,0-.1-.1c0-.1-.1-.1-.1-.2h-.1L99.6,300.4h.1l75,45.8h.6L8.9,243.9Z" transform="translate(5.9 -212.3)"/><path class="cls-4" d="M5.3,248.3l6.2,4h-.1l-6.2-3.9-.4.6L9,251.7H8.9l-4.2-2.7H4.6l-.4.5,12.3,7.8h-.2L4,249.9l-.4.4H3.5l1,.7h0l2.3,1.5h0l9.8,6.3L5.3,252.4H4.9L3,251.1l-.3.4,29.2,18.9h-.3a.1.1,0,0,1-.1.1h0L4.1,252.9H3.8l-1.5-1-.4.4,7,4.5h0l9.1,5.9h0L1.7,252.6h0L103,319.1h-.3L48.6,283.4h.1l96,62.2h.5v-.2a.1.1,0,0,1-.1-.1h-.2L89.1,308.8h.1l15.3,9.8a.1.1,0,0,0,.1.1h.3a.1.1,0,0,0,.1-.1h-.1c0-.1,0-.1-.1-.2h-.1l-4.7-3,51,32.8h.5c0-.1.1-.1,0-.2h0c0-.1-.1-.1-.1-.2h-.2L65.7,292l71.4,45.9h.5c0-.1.1-.1,0-.1v-.2h-.1c0-.1-.1-.1-.1-.2L93.6,309.2h.1c0-.1,0-.1-.1-.1v-.2c-.1,0-.1,0-.1-.1h-.1L62.7,289h0a.1.1,0,0,1,.1-.1h-.2l-15-9.6h.1l66.7,42.5h.4c0-.1,0-.1.1-.1h0v-.2h-.2L72.9,294.3H73a.1.1,0,0,0-.1-.1h-.1l-14-9,110.4,70.1h.5a.1.1,0,0,1,.1-.1v-.2h-.1c0-.1-.1-.1-.1-.2h-.2l-60.7-38.6h.1v-.2h-.1l-11-7h-.1L63.3,285.9h0L139.6,334h.5c0-.1,0-.1.1-.1h-.1L5.3,248.3Z" transform="translate(5.9 -212.3)"/><path class="cls-8" d="M1.1,253.4l-.8.9,11.4,7.5h0L34.1,277H34L0,254.7l-.3.4-.3.4,22.5,15h0L-.7,255.6l-.3.3,20.5,13.8h-.1l-9.7-6.4H9.6c0-.1,0-.1-.1-.1H9.4c-.1,0-.1.1,0,.1h.1l.8.6h-.1l-11.7-7.7v.2l-.5.5,152,103.1h.1a.1.1,0,0,0,.1-.1v-.2h-.1l-.2-.2-6.9-4.6h0v-.2a.1.1,0,0,1-.1-.1l-.2-.2L33,280.5h0l110.8,74.4h.6v-.2a.1.1,0,0,0-.1-.1c0-.1,0-.1-.1-.2h-.1L76.9,309.1H77v-.2h0c-.1,0-.1,0-.1-.1h-.1l-.8-.5h.1l74,49.4h.5a.1.1,0,0,0,.1-.1h0v-.2h-.1c0-.1-.1-.1-.1-.2l-37.5-25h.1v-.2h-.1c0-.1-.1-.1-.1-.2L84.1,312.1h0v-.2h-.2L47.1,287.1h.1l4.3,2.8h.4l30.2,20h.4a.1.1,0,0,0,.1-.1h0L101.3,322h.2s.1.1.1,0h.1c.1,0,.1,0,.1-.1h-.1a.1.1,0,0,0-.1-.1l-12.4-8.2h.1l71.9,47.3h.1a.1.1,0,0,0,.1.1h.3v-.2a.1.1,0,0,1-.1-.1l-.2-.2h0l-12.9-8.4h0s.1-.1,0-.1V351h-.1l-.2-.2L68.8,298.5h.1a.1.1,0,0,0,.1-.1h0l77.2,50.5a.1.1,0,0,0,.1.1h.4v-.2h-.2c0-.1,0-.1-.1-.2h0L73.9,300.8H74l28.5,18.5a.1.1,0,0,0,.1.1h.3a.1.1,0,0,1,.1-.1h0L1.7,252.7Z" transform="translate(5.9 -212.3)"/><path class="cls-4" d="M-2.1,257.3h-.1l16.5,11.1h-.1a.1.1,0,0,1,.1.1l10.4,7h0l7.4,5H32L-2.6,257.9l-.8.9-.4.5,2.5,1.7h0a.1.1,0,0,0-.1.1h.1l12.9,8.8h0a.1.1,0,0,0,.1.1h0l2.6,1.8h-.1L-4.2,259.8l-.3.3h0l.6.4h0l-.7-.4-.5.6,23.9,16.6h0L-5.2,261l-.3.3L5,268.6H5l-10.5-7.2-.4.4,110.2,77.4h0a.1.1,0,0,0,.1-.1c0-.1-.1-.1-.1-.2h-.2L81,322.5h0v-.2H81a.1.1,0,0,1-.1-.1h0l-32-22.3h0l28.5,19.7h0a.1.1,0,0,1,.1.1h.3c.1-.1.1-.1.1-.2h0a.1.1,0,0,1-.1-.1h-.1L37.8,291.2l45.9,31.7h.4L96,331h.6l36,24.8h.4a.1.1,0,0,0,.1-.1v-.2h0c0-.1-.1-.1-.1-.2h-.2L75.3,315.4h.1l4.7,3.2h.5l11.3,7.8h.3c.1,0,.1,0,.1-.1h.1V326h-.1c0-.1,0-.1-.1-.1l-12.8-8.9h.1a.1.1,0,0,0-.1-.1h-.1L54.7,299.4l20.2,13.7h.2L39,288h.1l11.5,7.7H51l94.2,64h.5c.1,0,.1,0,.1-.1s-.1-.1-.1-.2h-.1l-.2-.2L62.7,302.7h.1L137.4,353h.4a.1.1,0,0,0,.1-.1v-.2h0c-.1-.1-.1-.1-.1-.2h-.2L99.3,326.5h.1l50.1,33.8h.1a.1.1,0,0,1,.1.1h.2L-2.1,257.2Z" transform="translate(5.9 -212.3)"/><path class="cls-9" d="M64.4,228.6h-.3l24.4,11.7.2-.3Z" transform="translate(5.9 -212.3)"/><path class="cls-9" d="M33.4,214.3l-.4.6,45.5,22h0L32.9,215l-.2.2h0l20.9,10.2.5.2.6.2.5.2.5.3.5.2.4.3.5.2.4.3,14,6.8h0l-13.2-6.3.4.3.4.3.4.3.3.3,24.7,12h0a.1.1,0,0,0,.1.1h.1l2.5,1.2,1.3-1.9Z" transform="translate(5.9 -212.3)"/><path class="cls-9" d="M51.7,224.8h.5l.4.2-9.3-4.5h-.2l7.7,3.7h.9Z" transform="translate(5.9 -212.3)"/><path class="cls-9" d="M89.5,238.1h0l.5.2v-.2L85.6,236l-12.9-6.1h0L35.1,212.3l-.4.5,19,9h-.1l-19-9v.2h-.1l11.3,5.4h-.1a.1.1,0,0,0,.1.1h.1l34.3,16.3h.1l8.8,4.3,1-1.5Z" transform="translate(5.9 -212.3)"/><path class="cls-9" d="M38.6,215.8h-.2l50.3,24.2.3-.5Z" transform="translate(5.9 -212.3)"/><path class="cls-9" d="M46.2,224.3h.4l-15.2-7.4h0l-.3.3h.1l14.6,7.2h.4Z" transform="translate(5.9 -212.3)"/><polygon class="cls-9" points="66 22.9 66.3 23.9 67.8 24.6 68.5 24.1 66 22.9"/><path class="cls-9" d="M47.3,224.3h.4L45,223h-.3a.1.1,0,0,1,.1.1l2,1h.5Z" transform="translate(5.9 -212.3)"/><path class="cls-9" d="M87.1,242.8,75.2,237h-.4c0,.1,0,.1.1.1H75l1.6.8h-.1l-14.8-7.1.3.4.3.3a.5.5,0,0,0,.2.4l.2.4,8.1,4h0l-8-3.9a.5.5,0,0,0,.2.4c0,.1.1.2.1.4l.2.3c0,.2.1.3.1.4l-.2-.4-.3-.4c0-.2-.1-.3-.2-.5l-.3-.4-6.3-3h-.4l-6.5-3.2H47L65.8,236h-.1l-18.9-9.4H45.2l10.5,5.3h0L45,227.1h-.6l15.2,7.6.3-.7.2,1,2.5,1.2,1.2-1-.5,1.4h0l-.2.7,1.5.8,2.4-.5-1.4,1L83.7,248l.4-.6Z" transform="translate(5.9 -212.3)"/><path class="cls-9" d="M42.4,224.9h.5l-12.8-6.4-.2.2-.3.3,12.3,6.2h.5Z" transform="translate(5.9 -212.3)"/><path class="cls-9" d="M41.1,225.4h.2L32.8,221h-.2l8.2,4.2h.3Z" transform="translate(5.9 -212.3)"/><path class="cls-9" d="M44,224.5h.9l-14.1-6.9-.4.4,2,1h-.1l-1.9-.9-.3.3,13,6.4H44Z" transform="translate(5.9 -212.3)"/><path class="cls-9" d="M61.3,231.4a1.2,1.2,0,0,0-.5-.5l-.6-.5-7-3.5H51.7l5.5,2.6h-.1l-5.6-2.8H50.3l12,5.9-.5-.5A1.2,1.2,0,0,0,61.3,231.4Z" transform="translate(5.9 -212.3)"/><path class="cls-9" d="M44.3,227.3h-.8l15.9,8,.2-.8Z" transform="translate(5.9 -212.3)"/><path class="cls-9" d="M40.5,229.6h-.1a.1.1,0,0,0-.1.1h-.2L53.9,237l-.9-1Z" transform="translate(5.9 -212.3)"/><path class="cls-9" d="M40.3,225.7h.4l-7-3.5h-.3l.9.4h0l5.6,2.9h.4Z" transform="translate(5.9 -212.3)"/><polygon class="cls-9" points="65.1 24 62.5 22.7 64.7 25.2 65.1 24"/><path class="cls-9" d="M54.4,237.6l-14.5-7.5h-.3l2.5,1.3h.1l13.3,7h.2Z" transform="translate(5.9 -212.3)"/><path class="cls-9" d="M70.6,241.5h-.3l13.1,6.7.3-.5Z" transform="translate(5.9 -212.3)"/><path class="cls-9" d="M37.4,227.6v-.2h.2L27.1,222l-.2.2-.2.2,10.5,5.4c0-.1,0-.1.1-.1Z" transform="translate(5.9 -212.3)"/><polygon class="cls-9" points="73.8 28.4 71 27 69.8 27.9 73.8 28.4"/><path class="cls-9" d="M36.9,228h.2l-10.5-5.4h0l-.2.2,10.4,5.4h.1Z" transform="translate(5.9 -212.3)"/><polygon class="cls-9" points="69.5 26.2 68.7 25.8 68.5 26.4 69.5 26.2"/><path class="cls-9" d="M36.4,228.6h.2l-10.4-5.3-.3.3,10.4,5.3h.1Z" transform="translate(5.9 -212.3)"/><path class="cls-9" d="M38.6,226.6H39l-11-5.6-.2.4h-.1l9.8,5h.1l.6.3h.2Z" transform="translate(5.9 -212.3)"/><path class="cls-9" d="M41.1,229.1h-.2a.1.1,0,0,1-.1.1h-.2l12.3,6.3h-.1l2.7,1.4,1.4.7-.2-.9Z" transform="translate(5.9 -212.3)"/><path class="cls-9" d="M42.7,228l-.3.2h-.2l-.3.2h-.2l5.2,2.7H47l8.8,4.6h.1l.8.4-.6-2.1Z" transform="translate(5.9 -212.3)"/><polygon class="cls-9" points="67.2 25.1 66.5 24.7 66.7 25.5 67.2 25.1"/><polygon class="cls-9" points="66.6 32.4 66.6 32.4 66.6 32.4 66.6 32.4"/><path class="cls-9" d="M35.6,229.7h.1l-10.4-5.4-.3.3,10.4,5.4h.2Z" transform="translate(5.9 -212.3)"/><path class="cls-9" d="M35.8,229.4h0a.1.1,0,0,0,.1-.1l-4.8-2.4c0-.1,0-.1-.1-.1h-.1l4.8,2.5h.1Z" transform="translate(5.9 -212.3)"/><path class="cls-9" d="M55.3,242l-4.5-.6,2.3-.5-3.8-2.1h-.4l-10.7-5.7c0,.1,0,.1-.1.2v.4H38l9.5,5.1h0L38,234h0v.4h.2l15.7,8.4,1.7-1.3Z" transform="translate(5.9 -212.3)"/><path class="cls-9" d="M34.6,231.7h.1v-.2l-6-3.1h-.2l3.4,1.8h0l2.5,1.4v-.4Z" transform="translate(5.9 -212.3)"/><path class="cls-9" d="M51,238.3l3.5.5L39.3,231h-.1c-.1.1-.1.2-.2.2s0,.2-.1.2v.2l8,4.2h0l.7.4h.1l6.9,3.7.7-.2Z" transform="translate(5.9 -212.3)"/><path class="cls-9" d="M81,252.2l2.4-3.7-15-7.6-2.7.6,6.2,3.2h0l-6.3-3.2-1.3.3,4.5,2.3-4.9-.8.6.7,3.3,1.7L64.5,244l2.5,2.7-4.4-2.4v.6l12.9,6.7h-.1l-7-3.6h-.4l-5.2-2.7v.6l11.2,5.9L63,246.1l.7,2.1-2.9-3.3h-.1l-1.1,3.5-1-3.9-1.1,1,1.2.6h-.1l-1.2-.7L55.5,247l.8-2.2-1.7-.8-2.2.5,1.3-1-14.6-7.8h-.2l12.3,6.6h-.1l-13.2-7.1v.7a1.3,1.3,0,0,1,.1.6,6.4,6.4,0,0,0,.2.7,2.5,2.5,0,0,0,.2.7L63,251.6h0l-8-4.4H49l2.3,1.3h.1l16.8,9.3h0c-.1,0-.1,0-.1.1h.2l5.3,2.9h-.1l-.7-.4h0L46.8,247l-1.4-.4-1.3-.4-1.2-.5-1.3-.7-1.1-.7-1-.7-.9-.8-.9-.8-13.5-7.4h-.3l4.5,2.5h-.1l38.6,21.5h-.1l-1.3-.8h-.2l-47-26.1-.3.5h-.1l13.4,7.5h.1l30,16.9h0l-19-10.6h-.3L17.4,233.6l-.4.6,11.7,6.6L17,234.2l-.3.4L42,249h-.1a.1.1,0,0,1,.1.1h.1l8.5,4.9L26.8,240.8h0c-.1,0-.1,0-.1-.1h-.2L16.3,235l-.3.4,27.5,15.7h-.1l-1.3-.7h-.3l29.5,16.9.8-1.4-.9-.5h.1l.9.5,2.4-3.7,2.3-3.5-2.5-1.3h.1l2.4,1.2.9-1.4Z" transform="translate(5.9 -212.3)"/><polygon class="cls-9" points="60.7 31.6 62.2 32.4 62.7 31.1 60.7 31.6"/><path class="cls-9" d="M34.5,232.3h0l-11-5.8v.2h-.1l11.1,5.9h.1Z" transform="translate(5.9 -212.3)"/><path class="cls-9" d="M34.3,234.9v-1.2l-11.7-6.2-.3.3,4.3,2.3h0l-4.4-2.3-.2.3-.7.8,13.1,7.1a1.3,1.3,0,0,0-.1-.6Z" transform="translate(5.9 -212.3)"/><path class="cls-9" d="M34.8,237.5a12362528204804.7,12362528204804.7,0,0,0-.2-.6h-.1l-13.7-7.4-.4.5h0l14.7,8a.4.4,0,0,1-.1-.3Z" transform="translate(5.9 -212.3)"/><path class="cls-9" d="M35.7,239.4l-.3-.6-.3-.5-14.8-8.1h-.1l-.7.9,16.8,9.3-.3-.5Z" transform="translate(5.9 -212.3)"/><path class="cls-9" d="M50.3,247.1l1.9.2H54L38.7,239c.1.2.1.3.2.4a.5.5,0,0,0,.2.4l.2.4.3.4h0l.6.9.8.9.9.8.9.8,3.8,2,1.8.7Z" transform="translate(5.9 -212.3)"/><path class="cls-10" d="M56.6,226.8l-.4-.3-.5-.2-.5-.3-.5-.2-.6-.2-.5-.2,3.9,1.9-.4-.3Z" transform="translate(5.9 -212.3)"/><path class="cls-10" d="M59.1,228.4l-.4-.3-.4-.3-5.7-2.7-.4-.2H50.8l9,4.4-.3-.3Z" transform="translate(5.9 -212.3)"/><path class="cls-10" d="M50.9,226.6h.6l-4.9-2.3h-.8l4.5,2.2h.6Z" transform="translate(5.9 -212.3)"/><path class="cls-10" d="M52.5,226.8h.7l-5.5-2.6h-.9l4.9,2.4h.8Z" transform="translate(5.9 -212.3)"/><path class="cls-10" d="M46,226.8h.8l-3.9-1.9h-1l1.7.8h0l1.6.8H46Z" transform="translate(5.9 -212.3)"/><path class="cls-10" d="M44.7,227.2H45l-3.7-1.8h-.5l3.6,1.8h.3Z" transform="translate(5.9 -212.3)"/><path class="cls-10" d="M62.3,231.8l-.3-.3-.3-.4-1.5-.7.6.5a1.2,1.2,0,0,1,.5.5,1.2,1.2,0,0,1,.5.5l.5.5.4.2-.2-.4A.5.5,0,0,1,62.3,231.8Z" transform="translate(5.9 -212.3)"/><path class="cls-10" d="M62.9,233.4l.3.4.2.4c0-.1-.1-.2-.1-.4l-.2-.3c0-.2-.1-.3-.1-.4a.5.5,0,0,1-.2-.4l-.4-.2.3.4C62.8,233.1,62.9,233.2,62.9,233.4Z" transform="translate(5.9 -212.3)"/><path class="cls-10" d="M48.1,226.5h1.1l-4.3-2.1H43.1l3.9,2h1.1Z" transform="translate(5.9 -212.3)"/><path class="cls-10" d="M40.8,229.3a.1.1,0,0,0,.1-.1h.2l-3.4-1.8h-.2v.2h-.1c-.1,0-.1,0-.1.1l3.4,1.7h.2Z" transform="translate(5.9 -212.3)"/><path class="cls-10" d="M40.3,229.8a.1.1,0,0,1,.1-.1h.1l-3.4-1.7h-.3l3.3,1.7h.2Z" transform="translate(5.9 -212.3)"/><path class="cls-10" d="M39.8,230.3h.1l-3.3-1.7h-.3l3.3,1.8h.2Z" transform="translate(5.9 -212.3)"/><path class="cls-10" d="M42.2,228.3h.2l.3-.2h-.5L39,226.4h-.4l-.2.2h-.2l3.5,1.7h.2Z" transform="translate(5.9 -212.3)"/><path class="cls-10" d="M43.9,227.5h.4l-3.6-1.8h-.8l3.6,1.8h.4Z" transform="translate(5.9 -212.3)"/><path class="cls-10" d="M39,231.3c.1,0,.1-.1.2-.2h.1l-3.4-1.8a.1.1,0,0,1-.1.1h-.1l3.1,1.6-3.1-1.6h-.3l3.4,1.8v-.2C39,231.5,39,231.4,39,231.3Z" transform="translate(5.9 -212.3)"/><path class="cls-10" d="M38.1,233.6v-.2c.1-.1.1-.1.1-.2l-3.4-1.8v.2h-.1v.4l3.5,1.8h.1Z" transform="translate(5.9 -212.3)"/><path class="cls-10" d="M38,234.3v-.2h0l-3.5-1.9h.1l3.3,1.7h0Z" transform="translate(5.9 -212.3)"/><path class="cls-10" d="M51.6,247.5h.6l-1.9-.2-1.9-.4-1.8-.7,2.4,1.4h2.6Z" transform="translate(5.9 -212.3)"/><path class="cls-10" d="M39.1,239.8a.5.5,0,0,1-.2-.4c-.1-.1-.1-.2-.2-.4l-3.9-2.1h-.2a12362528204804.7,12362528204804.7,0,0,1,.2.6l.2.3a.4.4,0,0,0,.1.3l4.5,2.5-.3-.4Z" transform="translate(5.9 -212.3)"/><path class="cls-10" d="M38,236.9a1.3,1.3,0,0,0-.1-.6v-.7l-3.6-1.9v1.8a1.3,1.3,0,0,1,.1.6l4,2.2a2.5,2.5,0,0,1-.2-.7A6.4,6.4,0,0,1,38,236.9Z" transform="translate(5.9 -212.3)"/><path class="cls-10" d="M41,242.4l-.8-.9-.6-.9h-.1l-4.4-2.4.3.5.3.6.3.5.3.5,6.5,3.6-.9-.8Z" transform="translate(5.9 -212.3)"/><path class="cls-10" d="M39.5,243.6l1,.7,1.1.7,1.3.7,1.2.5,1.3.4,1.4.4-9.1-5,.9.8Z" transform="translate(5.9 -212.3)"/><polygon class="cls-10" points="65.5 22.6 65.3 23.4 66.3 23.9 66 22.9 65.5 22.6"/><polygon class="cls-10" points="68.5 24.1 69.2 24.4 69.7 23.1 68.5 24.1"/><polygon class="cls-10" points="65.5 22.6 66 22.8 65.8 21.9 65.5 22.6"/><polygon class="cls-10" points="70.5 26 71.5 26.5 72.9 25.4 70.5 26"/><polygon class="cls-10" points="68.5 24.1 67.8 24.6 69 25.2 69.2 24.5 68.5 24.1"/><path class="cls-10" d="M68.8,244.1l-4.5-2.3,1.3-.3L56.7,237l.2.9,3.1,1.6h-.1L53,236l.9,1,3.5,1.8h-.1l-2.9-1.5,1.3,1.4h-.2l7.5,3.9h.1l1.4.8-.6-.7Z" transform="translate(5.9 -212.3)"/><polygon class="cls-10" points="58.8 23.5 61.4 24.9 58.7 23.5 58.8 23.5"/><polygon class="cls-10" points="73.8 28.4 69.8 27.9 71 27 69.5 26.2 68.5 26.4 68.7 25.8 67.2 25.1 66.7 25.5 66.5 24.7 65.1 24 64.7 25.2 62.5 22.7 62 22.5 62.6 24.5 71.6 29.2 74.3 28.6 73.8 28.4"/><polygon class="cls-10" points="61.2 29.7 59 28.5 56.7 29 61.2 29.7"/><polygon class="cls-10" points="72.9 34.4 70.4 31.7 60.4 26.5 56.9 25.9 61.1 28.1 60.4 28.2 68.6 32.5 68.5 32 72.9 34.4"/><path class="cls-10" d="M57.1,242.4h-.2l3.8,2.1h0L63,246v-.6Z" transform="translate(5.9 -212.3)"/><polygon class="cls-10" points="68.9 33.7 66.7 32.5 69.6 35.9 68.9 33.7"/><polygon class="cls-10" points="65.5 36 66.6 32.5 61.4 29.8 59.7 31.1 60.7 31.6 62.7 31.1 62.2 32.4 63.4 33 64.5 32.1 65.5 36"/><polygon class="cls-10" points="63.3 33.1 62.2 32.5 61.4 34.6 63.3 33.1"/><polygon class="cls-10" points="60.5 31.6 59.6 31.1 58.3 32.1 60.5 31.6"/></g></g></g><image class="cls-11" width="381" height="483" transform="translate(48.3 22.3) scale(0.24)" xlink:href="map_blue1.png"/><path class="cls-3" d="M86.2,242.7H86a36.5,36.5,0,0,0-36.5,36.6,51,51,0,0,0,7.1,23.5c6.8,10.6,26.6,34.1,29.5,37.5,0,0,.1.2.1.1s.1-.1.1-.1c2.9-3.4,22.6-26.9,29.4-37.6a51,51,0,0,0,7.1-23.5A36.7,36.7,0,0,0,86.2,242.7Zm0,63.8A26.5,26.5,0,1,1,112.6,280,26.5,26.5,0,0,1,86.2,306.5Z" transform="translate(5.9 -212.3)"/><circle class="cls-3" cx="92" cy="67.6" r="11.7"/></g></g></svg>