<svg xmlns="http://www.w3.org/2000/svg" xmlns:xlink="http://www.w3.org/1999/xlink" viewBox="0 0 223.3 157"><defs><style>.cls-1,.cls-12{fill:none;}.cls-2{isolation:isolate;}.cls-13,.cls-3{fill:#ffc50b;}.cls-4{fill:#fff;}.cls-5{opacity:0.12;}.cls-6{clip-path:url(#clip-path);}.cls-7{clip-path:url(#clip-path-2);}.cls-8{fill:#e82327;}.cls-9{fill:#272870;}.cls-10{fill:#fbca0c;}.cls-11{opacity:0.75;mix-blend-mode:multiply;}.cls-12,.cls-13{stroke:#ffc50b;stroke-miterlimit:10;}</style><clipPath id="clip-path" transform="translate(-161.1 -212.4)"><path class="cls-1" d="M328.7,291.7a75.6,75.6,0,0,1-142.9,34.5h0a75.6,75.6,0,1,1,142.9-34.5Z"/></clipPath><clipPath id="clip-path-2" transform="translate(-161.1 -212.4)"><rect class="cls-1" x="169.2" y="250.2" width="213.7" height="142.49" transform="translate(136.6 -78.7) rotate(21.4)"/></clipPath></defs><title>map_yellow</title><g class="cls-2"><g id="Layer_1" data-name="Layer 1"><path class="cls-3" d="M330.9,291.7A77.7,77.7,0,0,1,184,327.1h0a76.5,76.5,0,0,1-8.6-35.4,77.8,77.8,0,1,1,155.5,0Z" transform="translate(-161.1 -212.4)"/><path class="cls-4" d="M328.7,291.7a75.6,75.6,0,0,1-142.9,34.5h0a75.6,75.6,0,1,1,142.9-34.5Z" transform="translate(-161.1 -212.4)"/><g class="cls-5"><g class="cls-6"><g class="cls-7"><path class="cls-8" d="M270,244.4h.3l-13.2-6.3v.2Z" transform="translate(-161.1 -212.4)"/><path class="cls-8" d="M329.3,279.5h-.2l-2.2-1,28,13.5h.5c0-.1,0-.1-.1-.2h-.1a.1.1,0,0,1-.1-.1l-92.7-45,56.3,27.2h.2l-57.5-27.9h.1l47.3,22.8h0a.1.1,0,0,0,.1.1h.1l-40.7-19.6h.1l91.1,43.8h.5a.1.1,0,0,1-.1-.1h-.2l-26.9-12.9h0a.1.1,0,0,0-.1-.1h0l-23.3-11.2h.1l62.2,29.7h.4a.1.1,0,0,0,.1-.1h-.1a.1.1,0,0,0-.1-.1h-.2l-46.6-22.4h0l23,11h.2l-45-21.5,25.4,12h.5l43.2,20.5h.5a.1.1,0,0,1-.1-.1h-.2L320,269.2h.1l2.3,1.1h.4l52.3,24.8h.2c.1,0,.1.1.2,0h-.1a.1.1,0,0,0-.1-.1h0L257,238.4l-1,1.5,1.5.7-1.5-.7-.3.4,1.2.6-1.2-.6-.2.4,2.9,1.4h0l-2.9-1.4-1.3,1.9,12.8,6.2h-.1l62.4,30.5Z" transform="translate(-161.1 -212.4)"/><path class="cls-4" d="M384.4,312.9h-.1c0-.1,0-.1-.1-.2H384L270.7,255.9h.1l46.1,22.9h0a.1.1,0,0,1,.1.1h.2a.1.1,0,0,1,.1-.1h0l63.3,31.4h.5v-.2h-.3l-8.8-4.4h.1c0-.1,0-.1-.1-.2a.1.1,0,0,0-.1-.1h-.2l-69.4-34.4h-.2L274.3,256h0l27,13.3h.1c.1,0,.1.1.1,0h.2a.1.1,0,0,0-.1-.1h-.1l-4.3-2.1h0l10.4,5.2h.5c-.1,0-.1,0-.1-.1h-.1l70,34.4h.6c0-.1-.1-.1-.1-.2h-.3l-69.8-34.3h0l3.8,1.8h.3c.1,0,.1,0,.1-.1h0a.1.1,0,0,1-.1-.1h-.1l-6.2-3h.1l44.6,21.7h.3a.1.1,0,0,0,.1-.1h.1v-.2h-.2a.1.1,0,0,0-.1-.1l-21.7-10.6h0l-62.4-30.5h.1l-12.9-6.3-3,4.6L327.4,286h-.2c0-.1,0-.1-.1-.1l-35.6-18h0l85.6,42.9h.6v-.2h-.3L262.2,252.4l121.7,60.7h.4c.1,0,.1,0,.1-.1h0Z" transform="translate(-161.1 -212.4)"/><path class="cls-8" d="M250.7,248.1l5.4,2.7h0l-5.4-2.7-.3.5,3.4,1.7h0l-3.4-1.7-2.4,3.7,59.4,31,56.4,29.1h.6c0-.1-.1-.1-.1-.2H364L256.2,256.1h0l39,20h.4a.1.1,0,0,0,.1-.1h-.2a.1.1,0,0,0-.1-.1l-10.5-5.4,41.8,21.4a.1.1,0,0,1,.1.1h.3l14.5,7.4h.4a.1.1,0,0,0,.1-.1h0l-.2-.2h-.1L319.4,287h.1l60.7,31.1h.5l-.2-.2h-.2L304,278.4h.1c0-.1,0-.1-.1-.1s0-.1-.1-.1l-4.7-2.4h.1l6.5,3.2h.2l-17.7-9h0c.1,0,.1,0,.1-.1h-.3l-29.4-15,9.9,5h.3l92,46.6h.5l-.2-.2a.1.1,0,0,1-.1-.1L293,270.4h.1a.1.1,0,0,1-.1-.1h-.1l-17-8.6h.1l13.5,6.8h.4c0-.1,0-.1-.1-.1h-.1l-22.5-11.4h0l59.7,29.9h.5l-76.3-38.5Z" transform="translate(-161.1 -212.4)"/><path class="cls-4" d="M244.8,257.2l27,14.5h.1l94.2,50.2h0c0,.1.1.1.2.1h.3v-.2h-.3l-70.6-37.7h-.2l-24.3-12.9h-.1l-12.3-6.5h.1l7.2,3.8h0a.1.1,0,0,0,.1.1h.2l41.2,21.8h.4c0-.1,0-.1-.1-.1s0-.1-.1-.1l-40.4-21.5h-.1a.1.1,0,0,0-.1-.1l-14.3-7.6h0l116.9,61.7h.6c0-.1-.1-.1-.1-.2H370l-85.9-45.4h0l3.5,1.7a.1.1,0,0,0,.1.1h.2a.1.1,0,0,0,.1-.1h-.2l-13.6-7.1,64,33.4h.5a.1.1,0,0,1-.1-.1h-.3l-62.6-32.9h0l32.7,17.1h.5l44.7,23.3h.6v-.2h-.3l-61.4-32h.1a.1.1,0,0,1-.1-.1h-.1l-34.9-18.2,10.9,5.7h.5c0-.1,0-.1-.1-.1h0a.1.1,0,0,1-.1-.1l-3.1-1.6,41.9,21.7-59.4-31Z" transform="translate(-161.1 -212.4)"/><path class="cls-8" d="M303.4,296.6l22.8,12.5h.5c0-.1,0-.1-.1-.2h-.2L261.9,273l69,37.8h.4c0-.1,0-.1-.1-.2h-.1l-35.8-19.7h.1c0-.1,0-.1-.1-.2h-.2l-52-28.6h.1l45.3,24.8h.5l14.1,7.7h.4a497582161915.8,497582161915.8,0,0,1-.2-.2l-1.1-.6h0l42.5,23.1h.5v-.2h-.3l-39.3-21.4h0c.1,0,.1,0,.1-.1h-.1a.1.1,0,0,0-.1-.1h-.1l-29.6-16.1,46.2,25h.5V302h-.2l-.4-.2,51,27.6h.2a.1.1,0,0,0,.1.1h.2c.1,0,.1-.1,0-.1h0l-.2-.2H373L243.9,258.7l-2.3,3.5Z" transform="translate(-161.1 -212.4)"/><path class="cls-8" d="M243.9,258.6l36.5,19.7h.5l66.2,35.6h.3a.1.1,0,0,0,.1-.1h0c0-.1,0-.1-.1-.1s-.1-.1-.1-.2h0l-97-52.2h0l56.6,30.3h0a.1.1,0,0,0,.1.1h.3s.1-.1,0-.1h-.1a.1.1,0,0,0-.1-.1l-39.8-21.4h.1l4.1,2.2h.1a.1.1,0,0,0,.1.1h.1l-27-14.5Z" transform="translate(-161.1 -212.4)"/><path class="cls-4" d="M239.2,265.9l14.2,8h.3L322,312.4h.6l48.9,27.5h.5c.1,0,.1-.1,0-.1v-.2h-.2c0-.1-.1-.1-.1-.2L265.5,279.4h.1l3.3,1.9h.2l-14.3-8.1h0l1.6.9h.4L277.3,285h0a.1.1,0,0,1,.1.1h.3a.1.1,0,0,1,.1-.1h-.1c0-.1,0-.1-.1-.1h-.1l-25.7-14.4h.1l44.4,24.8h.2l-29.2-16.3,56.8,31.4h.4a.1.1,0,0,1,.1-.1h0v-.2h-.1a.1.1,0,0,0-.1-.1l-27.6-15.4h-.2l-49.3-27.3,2.6,1.3h.2l53.4,29.4-61.8-34.4Z" transform="translate(-161.1 -212.4)"/><path class="cls-4" d="M306.6,306.6h.1l46.6,26.6h.6V333a.1.1,0,0,0-.1-.1v-.2h-.2L249.3,273.1h0l5.3,3h.5l2.3,1.3h.1c0,.1,0,.1.1.1h0l97.7,55.2h.5v-.2h0l-.2-.2a.1.1,0,0,1-.1-.1L239.2,266l-.9,1.4Z" transform="translate(-161.1 -212.4)"/><path class="cls-8" d="M208.8,250.4h-.1l-19.2-10.9h-.3L207,250.1h0l-24.5-14h-.1l-.6.8,20.9,12.1h0l-21-12-.3.3L215,256.9l-33.7-19.3h-.1l-.2.3,8.1,4.7-8.1-4.7-.3.4,11.9,6.9h-.1l-9.7-5.6h-.2a.1.1,0,0,0-.1.1h.1l23.1,13.6h-.1l-25.3-14.8-.5.6L209.7,257h-.1l-12.8-7.5h-.3l-16.9-9.9h0v.2L348.4,340h0c0-.1.1-.1,0-.2h0c-.1-.1-.1-.1-.1-.2s-.2,0-.2-.1L227,267.9h0L247.6,280h.4l25.8,15.1h.3c.1,0,.1,0,.1-.1H274l-10-5.9h.1l32,18.7h.5l2.3,1.3h.5v-.2h-.1a.1.1,0,0,0-.1-.1h-.1l-16.3-9.5h0l-28.4-16.6h0l16.9,9.8h.3a.1.1,0,0,0,.1-.1h.1a.1.1,0,0,0-.1-.1h-.1l-24-14,27.6,15.9h.4a.1.1,0,0,1,.1-.1h0a.1.1,0,0,0-.1-.1h-.1l-18.2-10.6L315.2,315a.1.1,0,0,1,.1.1h.2a.1.1,0,0,0-.1-.1h0l-59.5-34.4h.1c0-.1,0-.1-.1-.1h-.1l-3.5-2.1h.1L281.2,294h.4l85.2,48.9h.5v-.2h0l-.2-.2h-.2L235.4,266.7h.1l11.8,6.6h.4l58.5,33.4h.4l-68.3-39.2Z" transform="translate(-161.1 -212.4)"/><path class="cls-4" d="M179.3,240h.1a.1.1,0,0,0,.1.1h0l31.9,18.9h0L192,247.9h-.3l-12.8-7.5-.3.3,34.8,20.7h0l-34.8-20.6-.6.7,13.1,7.8h0l20.4,12.2h0l14,8.4h-.1l-22.7-13.6h-.4l-24.9-14.9-.3.3,33,19.9H210l-11.5-6.8c0-.1,0-.1-.1-.1h-.3l-12.9-7.8h-.3l19.9,12.1h0l-6.9-4.2h-.3a.1.1,0,0,0-.1.1l-21.2-12.9-.4.4L342.3,346H342l-50.5-30.8h0s.1-.1,0-.1h0c0-.1,0-.1-.1-.1s-.1-.1-.1-.2L256,292.7,272.9,303h.4l27.8,16.8h.5v-.2a.1.1,0,0,1-.1-.1h-.2l-50.6-30.8,54,32.6h.6l18.3,11h.5v-.2h-.3l-52.5-31.8h-.1l-19.1-11.5h.1l15.4,9.3h.5l8.6,5.2h.5v-.2H277l-6.8-4,84.7,50.5h.6v-.2c0-.1,0-.1-.1-.2h-.2L294.6,311h.1v-.2h-.3l-23.8-14.2,4.9,2.9h.4l22.6,13.4a.1.1,0,0,0,.1.1h.4l9.1,5.3h0a.1.1,0,0,0,.1.1h.4l8.2,4.9h.3a.1.1,0,0,0,.1-.1h.1v-.2h-.2a.1.1,0,0,0-.1-.1l-42.9-25.5L347.9,340h.4a.1.1,0,0,0,.1-.1L179.5,239.8Z" transform="translate(-161.1 -212.4)"/><path class="cls-8" d="M175.6,244.4l-.2.3,37.2,22.8h-.1l-29.4-17.9h-.6l-7.6-4.7v.2l-.2.2,31.1,19.2h-.1l-23.5-14.4h-.3l6.1,3.8h0L174,246.3l-.4.6-.2.2,5.6,3.6h0l-5.9-3.6h0l-.3.3L189,257.9l-16.2-10.1-.5.6,134.8,85.4h-.2l-38.2-24.1h-.1a.1.1,0,0,0-.1-.1h0l-21.9-13.9h.1l35.4,22.3h.4c.1,0,.1,0,.1-.1h0c0-.1,0-.1-.1-.1s-.1-.1-.1-.2l-28-17.5h.1c0-.1-.1-.1-.1-.2h-.1L234.1,286h0l70.6,44.1h.5v-.2h0a.1.1,0,0,1-.1-.1h-.2l-43.8-27.4H261a.1.1,0,0,0-.1-.1l-35-21.9h.1l101.2,62.9h.6v-.2h-.1c0-.1-.1-.1-.1-.2h-.2L283.9,315h0l19.8,12.2h.4a.1.1,0,0,0,.1-.1h0v-.2h-.3l-69.2-42.9h0l6.3,3.8h.5l22.2,13.7h.5v-.2c-.1,0-.1,0-.1-.1H264l-10.3-6.3h.1l18.8,11.5h.4a.1.1,0,0,1,.1-.1h0l62.6,38.4h.5a.1.1,0,0,0,.1-.1h0v-.2h-.1a.1.1,0,0,0-.1-.1l-18.1-11.1h.1c0-.1-.1-.1-.1-.2a.1.1,0,0,0-.1-.1h-.1l-51.1-31.3h.1l75.1,45.8h.5L175.9,244Z" transform="translate(-161.1 -212.4)"/><path class="cls-4" d="M172.3,248.4l6.2,3.9h-.1l-6.2-3.9-.4.5,4.2,2.7h-.1l-4.2-2.6h-.1l-.4.5,12.3,7.8h-.2L171,250l-.3.4h-.2l1,.7h0l2.3,1.5h0l9.8,6.3-11.3-7.3H172l-2-1.3-.3.4L199,270.5h-.3a.1.1,0,0,0-.1-.1h-.1L171.2,253h-.4l-1.5-1-.3.3,6.9,4.5h0c-.1,0-.1,0-.1.1h.1l9.2,5.9H185l-16.3-10.6h0L270,319.2h0a.1.1,0,0,0-.1-.1h-.1l-54.2-35.3h.1l96,62.2c0,.1.1.1.2.1h.2c.1,0,.1,0,.1-.1h0v-.2h-.3l-55.8-36.3h.1l15.3,9.8h.4a.1.1,0,0,0,0-.2v-.2h-.2l-4.7-3,51,32.8h.5c.1-.1.1-.1.1-.2h-.1c0-.1-.1-.1-.1-.2h-.2l-85.4-55.2L304.1,338h.5v-.2a.1.1,0,0,1-.1-.1h-.1c0-.1-.1-.1-.1-.2l-43.8-28.1h.1c-.1-.1-.1-.1-.1-.2h-.1l-30.8-19.7h0a.1.1,0,0,0-.1-.1l-14.9-9.6h0l66.7,42.5h.5v-.2h0a.1.1,0,0,1-.1-.1h-.2l-41.7-26.7h0l-14.1-9L336.2,355h.6v-.2a.1.1,0,0,0-.1-.1v-.2h-.2l-60.7-38.6h.1c0-.1.1-.1,0-.1v-.2h-.1a.1.1,0,0,0-.1-.1l-11-7h0a.1.1,0,0,0-.1-.1L230.3,286h.1l76.2,48.2h.5L172.3,248.4Z" transform="translate(-161.1 -212.4)"/><path class="cls-8" d="M168.1,253.5l-.8.9,11.4,7.5h0l22.4,14.8H201l-34-22.3-.3.4-.3.4,22.5,15h0l-22.6-15-.3.4,20.6,13.8h-.2l-9.6-6.4h-.3l.8.6h-.1l-11.6-7.7h-.2l-.5.6,152,103h.1a.1.1,0,0,1,.1-.1h0c0-.1-.1-.1-.1-.2h-.1c0-.1-.1-.1-.2-.2l-6.9-4.7h0v-.2h-.1l-.2-.2L200,280.6h0l110.8,74.4h.5a.1.1,0,0,1,.1-.1v-.2h-.1c0-.1,0-.1-.1-.2h-.1l-67.2-45.1h-.1l-.7-.5h0l74,49.4h.6c0-.1,0-.1-.1-.2a.3.3,0,0,0-.1-.2.1.1,0,0,1-.1-.1l-37.5-25h0c0-.1,0-.1.1-.1h0v-.2h0c0-.1,0-.1-.1-.1s-.1-.1-.1-.2l-28.7-19.1h0c.1,0,.1,0,.1-.1h-.1a.1.1,0,0,1-.1-.1h0l-36.9-24.5h.1l4.4,2.8c0,.1,0,.1.1.1h.2l30.3,20h.4l18.7,12.4h.4c.1,0,.1,0,.1-.1h0c0-.1,0-.1-.1-.1v-.2l-12.4-8.1h.1l71.9,47.3h.5c.1,0,.1-.1,0-.1v-.2h-.1l-.2-.2h0l-12.9-8.5h.1c0-.1-.1-.1-.1-.2h-.1c0-.1-.1-.1-.2-.2l-79.4-52.2h.2L313.2,349a.1.1,0,0,0,.1.1h.3a.1.1,0,0,0,.1-.1h0v-.2h-.1l-.2-.2h0l-72.5-47.5h.1l28.5,18.6h.5L168.7,252.8Z" transform="translate(-161.1 -212.4)"/><path class="cls-4" d="M164.9,257.4h-.1l16.5,11.1h-.1a.1.1,0,0,0,.1.1h0l10.4,7h0l7.4,5H199L164.4,258l-.8.9-.4.5,2.5,1.7h.1l12.8,8.8h.1l2.6,1.8h-.1l-18.4-12.6-.3.4h0l.6.5h0l-.7-.5-.5.7,24,16.6h-.1l-24-16.5-.3.3,10.5,7.3h0l-10.5-7.2-.4.4,110.2,77.4h.1c0-.1,0-.1-.1-.2h-.2L248,322.6h0c.1-.1.1-.1.1-.2h0a.1.1,0,0,1-.1-.1h-.1l-32-22.3h0l28.5,19.8h0a.1.1,0,0,1,.1.1h.4v-.2h-.2l-39.8-27.7L250.7,323h.4l12,8.2h.5l36,24.8h.5c0-.1.1-.1,0-.2h0c0-.1-.1-.1-.1-.2h-.1l-57.6-39.7h.1l4.7,3.2h.5l11.3,7.8h.4c.1,0,.1,0,.1-.1h0a.1.1,0,0,0-.1-.1h-.1l-12.8-8.9h.1a.1.1,0,0,0-.1-.1c0-.1,0-.1-.1-.1h0l-24.6-16.9,20.2,13.7h0a.1.1,0,0,0,.1.1h.2a.1.1,0,0,0,.1-.1h.1a.1.1,0,0,0-.1-.1h-.1L206,288.1h.2l11.4,7.7h.3a.1.1,0,0,1,.1-.1l94.2,64h.2a.1.1,0,0,0,.1.1h.3c0-.1-.1-.1-.1-.2h-.1l-.2-.2-82.7-56.2h.1l74.6,50.4h.5v-.2h0c0-.1-.1-.1-.1-.2h-.2l-38.3-25.9h.1l50.1,33.7h.4l-152-103Z" transform="translate(-161.1 -212.4)"/><path class="cls-9" d="M231.4,228.7h-.3a.1.1,0,0,0-.1.1h.1l24.4,11.7.2-.4Z" transform="translate(-161.1 -212.4)"/><path class="cls-9" d="M200.4,214.4l-.4.6,45.5,22h0l-45.6-22v.2h-.1l20.9,10.2.6.2.5.2.5.2.5.2.5.3.5.2.4.3.5.3,13.9,6.8h0l-13.2-6.3.4.3.4.3.4.3.3.3,24.8,12h.1l2.5,1.2,1.3-1.9Z" transform="translate(-161.1 -212.4)"/><path class="cls-9" d="M218.7,224.9h.5l.5.2-9.4-4.5h-.2l7.7,3.7h.9Z" transform="translate(-161.1 -212.4)"/><path class="cls-9" d="M256.5,238.2h0l.5.2v-.2l-4.5-2.1-12.9-6.2h0l-37.6-17.6-.4.5,19,9h0l-19.1-9v.2h-.1l11.3,5.4h0a.1.1,0,0,0-.1.1h.2l34.3,16.4h.1l8.8,4.3,1-1.5Z" transform="translate(-161.1 -212.4)"/><path class="cls-9" d="M205.6,215.9h-.2l50.3,24.1.3-.4Z" transform="translate(-161.1 -212.4)"/><path class="cls-9" d="M213.2,224.4h.5l-15.2-7.5h-.1l-.2.3h0l14.6,7.2h.4Z" transform="translate(-161.1 -212.4)"/><polygon class="cls-9" points="66 22.9 66.3 23.9 67.8 24.6 68.5 24.1 66 22.9"/><path class="cls-9" d="M214.3,224.4h.4l-2.7-1.3h-.2l2,1h.5Z" transform="translate(-161.1 -212.4)"/><path class="cls-9" d="M254.1,242.9l-11.9-5.8H242l1.6.8h-.1l-14.8-7.1.3.3.3.4a.5.5,0,0,0,.2.4l.2.4,8.1,4h0l-8-3.9.2.4c0,.1.1.2.1.4l.2.3a.6.6,0,0,1,.1.4.8.8,0,0,0-.2-.4c-.1-.2-.2-.3-.2-.5l-.3-.4-.3-.4-6.3-3h-.4l-6.5-3.2H214l18.8,9.3h-.1l-18.9-9.4h-1.6l10.6,5.3h-.1L212,227.2h-.6l15.3,7.6.2-.7.2,1,2.5,1.2,1.2-1-.5,1.4h0l-.2.7,1.5.8,2.4-.5-1.4,1,18.1,9.2.4-.6Z" transform="translate(-161.1 -212.4)"/><path class="cls-9" d="M209.4,225h.5l-12.8-6.4-.2.2-.3.3,12.3,6.1h.5Z" transform="translate(-161.1 -212.4)"/><path class="cls-9" d="M208.1,225.4h.3l-8.6-4.2h-.2l8.2,4.1h.3Z" transform="translate(-161.1 -212.4)"/><path class="cls-9" d="M211,224.6h1l-14.2-6.9-.3.4,1.9,1h-.1l-1.9-.9-.2.3,12.9,6.4h.9Z" transform="translate(-161.1 -212.4)"/><path class="cls-9" d="M228.3,231.5l-.5-.6-.5-.4-7.1-3.5h-1.5l5.5,2.6h-.1l-5.6-2.8h-1.2l12,5.9-.5-.5Z" transform="translate(-161.1 -212.4)"/><path class="cls-9" d="M211.3,227.4h-.8l15.9,8.1.2-.8Z" transform="translate(-161.1 -212.4)"/><path class="cls-9" d="M207.5,229.7h-.3l13.7,7.1-.8-1Z" transform="translate(-161.1 -212.4)"/><path class="cls-9" d="M207.3,225.8h.4l-7-3.5h-.3l.9.4h0l5.6,2.9h.4Z" transform="translate(-161.1 -212.4)"/><polygon class="cls-9" points="65.1 24 62.5 22.7 64.7 25.2 65.1 24"/><path class="cls-9" d="M221.4,237.7,207,230.2h-.4l2.5,1.3h.1l13.3,7h.2Z" transform="translate(-161.1 -212.4)"/><path class="cls-9" d="M237.6,241.6h-.3l13.1,6.7.3-.5Z" transform="translate(-161.1 -212.4)"/><path class="cls-9" d="M204.4,227.6h.3l-10.6-5.3-.2.2v.2l10.4,5.4h.1C204.3,227.7,204.4,227.7,204.4,227.6Z" transform="translate(-161.1 -212.4)"/><polygon class="cls-9" points="73.8 28.4 71 27 69.8 27.9 73.8 28.4"/><path class="cls-9" d="M203.9,228.1h.2l-10.4-5.4h-.1l-.2.2,10.4,5.4h.1Z" transform="translate(-161.1 -212.4)"/><polygon class="cls-9" points="69.5 26.2 68.7 25.8 68.5 26.4 69.5 26.2"/><path class="cls-9" d="M203.4,228.7h.2l-10.4-5.3-.3.3,10.4,5.3h.1Z" transform="translate(-161.1 -212.4)"/><path class="cls-9" d="M205.6,226.7h.4l-10.9-5.6-.3.4h-.1l9.8,5h.1l.6.3.2-.2C205.5,226.8,205.6,226.8,205.6,226.7Z" transform="translate(-161.1 -212.4)"/><path class="cls-9" d="M208.1,229.2c-.1,0-.1,0-.1.1h-.4l12.3,6.3h-.1l2.7,1.4,1.5.7-.3-.9Z" transform="translate(-161.1 -212.4)"/><path class="cls-9" d="M209.7,228.1l-.3.2h-.2l-.3.2h-.2l5.2,2.7h.1l8.8,4.6h.1l.8.4-.6-2.1Z" transform="translate(-161.1 -212.4)"/><polygon class="cls-9" points="67.2 25.1 66.5 24.7 66.7 25.5 67.2 25.1"/><polygon class="cls-9" points="66.6 32.4 66.6 32.4 66.6 32.4 66.6 32.4"/><path class="cls-9" d="M202.6,229.8h.1l-10.4-5.3-.3.3,10.5,5.4h.1Z" transform="translate(-161.1 -212.4)"/><path class="cls-9" d="M202.8,229.5h.1l-4.8-2.5h-.2l4.8,2.5h.1Z" transform="translate(-161.1 -212.4)"/><path class="cls-9" d="M222.3,242.1l-4.5-.6,2.4-.5-3.9-2.1H216l-10.8-5.7v.2c-.1,0-.1.1-.1.2h0v.2l9.5,5.1h0l-9.5-5h0v.4h.1l15.7,8.4,1.7-1.3Z" transform="translate(-161.1 -212.4)"/><path class="cls-9" d="M201.7,231.8h0v-.2l-5.9-3.1h-.3l3.4,1.8h-.1c-.1,0,0,.1,0,.1h.1l2.6,1.4v-.4Z" transform="translate(-161.1 -212.4)"/><path class="cls-9" d="M218,238.4l3.5.5-15.2-7.8h-.1v.2l-.2.2v.2l8,4.1h0l.7.4h.1l7,3.7.6-.2Z" transform="translate(-161.1 -212.4)"/><path class="cls-9" d="M248,252.3l2.4-3.7-15-7.6-2.7.6,6.2,3.2h0l-6.3-3.2-1.2.3,4.4,2.2-4.9-.7.6.7,3.3,1.7-3.3-1.7,2.5,2.7-4.4-2.4v.6l12.9,6.7h-.1l-7-3.7h-.4l-5.2-2.7v.6l11.2,5.9-11.1-5.9.6,2.2-2.9-3.3h-.1l-1.1,3.5-1-3.9-1.1,1,1.2.6h-.1l-1.2-.7-1.8,1.6.7-2.2-1.7-.8-2.2.5,1.3-1-14.6-7.8h-.2l12.3,6.6h-.1l-13.2-7.1v.7a1.3,1.3,0,0,1,.1.6,6.4,6.4,0,0,0,.2.7,6.4,6.4,0,0,1,.2.7l24.7,13.3H230l-8-4.4h-6l2.3,1.2h.1l16.8,9.3h0c-.1,0-.1,0-.1.1h.1a.1.1,0,0,0,.1.1l5.3,2.9h0l-.8-.4h0l-26-14.2-1.3-.4-1.3-.4-1.3-.6-1.2-.6-1.2-.7-1-.7-.9-.8-.9-.8-13.5-7.4h-.3l4.5,2.5h0L234,259.3h-.1l-1.3-.7h-.3l-46.9-26.1-.4.5h-.1l13.4,7.5h.1l30.1,16.9h-.1l-18.9-10.6h-.3l-24.7-13.8-.5.6,11.7,6.6L184,234.3l-.3.4L209,249.1h.1l8.5,4.8-23.8-13.3h-.3l-10.2-5.8-.3.4,27.5,15.7h-.1l-1.3-.7h-.3l29.5,17,.9-1.4-.9-.5h.1l.8.5,2.4-3.7,2.3-3.5-2.5-1.3h.1l2.4,1.2.9-1.4Z" transform="translate(-161.1 -212.4)"/><polygon class="cls-9" points="60.7 31.6 62.2 32.4 62.7 31.1 60.7 31.6"/><path class="cls-9" d="M201.5,232.4h0l-11-5.8v.2h-.1l11.2,5.9h0Z" transform="translate(-161.1 -212.4)"/><path class="cls-9" d="M201.3,235v-1.2l-11.7-6.3-.3.4,4.4,2.3h-.1l-4.4-2.3-.2.3-.7.8,13.2,7.1a1.3,1.3,0,0,1-.1-.6A1.3,1.3,0,0,1,201.3,235Z" transform="translate(-161.1 -212.4)"/><path class="cls-9" d="M201.9,237.6a6181264102396.6,6181264102396.6,0,0,0-.2-.6h-.2l-13.7-7.4-.4.5h0l14.7,8v-.3A.4.4,0,0,1,201.9,237.6Z" transform="translate(-161.1 -212.4)"/><path class="cls-9" d="M202.7,239.4l-.3-.5c-.1-.2-.2-.3-.2-.5l-14.9-8.1h0l-.8.9,16.9,9.3-.4-.5Z" transform="translate(-161.1 -212.4)"/><path class="cls-9" d="M217.3,247.2l1.9.2H221l-15.3-8.3.2.4c.1.1.1.3.2.4s.1.3.2.4l.3.4h0l.6.9.8.9.9.8.9.8,3.8,2a6.4,6.4,0,0,0,1.8.6Z" transform="translate(-161.1 -212.4)"/><path class="cls-10" d="M223.7,226.8l-.5-.2-.5-.3-.5-.2-.5-.2-.5-.2-.6-.2,4,1.9-.5-.3Z" transform="translate(-161.1 -212.4)"/><path class="cls-10" d="M226.1,228.5l-.4-.3-.4-.3-5.6-2.7-.5-.2h-1.4l9,4.4-.3-.3Z" transform="translate(-161.1 -212.4)"/><path class="cls-10" d="M217.9,226.7h.6l-4.8-2.3h-.9l4.5,2.2h.6Z" transform="translate(-161.1 -212.4)"/><path class="cls-10" d="M219.5,226.9h.7l-5.5-2.6h-.9l4.9,2.4h.8Z" transform="translate(-161.1 -212.4)"/><path class="cls-10" d="M213,226.9h.8l-3.9-1.9h-1l1.7.9h-.1c0,.1,0,.1.1.1l1.6.8h.8Z" transform="translate(-161.1 -212.4)"/><path class="cls-10" d="M211.7,227.3h.3l-3.6-1.9h-.6l3.6,1.9h.3Z" transform="translate(-161.1 -212.4)"/><path class="cls-10" d="M229.3,231.9l-.3-.4-.3-.3-1.4-.7.5.4.5.6.5.5.5.5.4.2-.2-.4A.5.5,0,0,1,229.3,231.9Z" transform="translate(-161.1 -212.4)"/><path class="cls-10" d="M230,233.4c0,.2.1.3.2.5a.8.8,0,0,1,.2.4.6.6,0,0,0-.1-.4l-.2-.3c0-.2-.1-.3-.1-.4l-.2-.4-.4-.2.3.4Z" transform="translate(-161.1 -212.4)"/><path class="cls-10" d="M215.1,226.6h1.1l-4.2-2.1h-1.9l3.9,2h1.1Z" transform="translate(-161.1 -212.4)"/><path class="cls-10" d="M207.8,229.4h.2c0-.1,0-.1.1-.1l-3.4-1.8h-.3c0,.1-.1.1-.1.2h-.1l3.4,1.7h.2Z" transform="translate(-161.1 -212.4)"/><path class="cls-10" d="M207.3,229.9h.2l-3.4-1.7h-.3l3.4,1.7h.1Z" transform="translate(-161.1 -212.4)"/><path class="cls-10" d="M206.8,230.4h.2l-3.4-1.7h-.3l3.3,1.8h.2Z" transform="translate(-161.1 -212.4)"/><path class="cls-10" d="M209.2,228.4h.2l.3-.2h-.5l-3.2-1.6h-.4c0,.1-.1.1-.2.1l-.2.2,3.5,1.7h.2Z" transform="translate(-161.1 -212.4)"/><path class="cls-10" d="M210.9,227.6h.4l-3.6-1.8h-.8l3.6,1.7h.4Z" transform="translate(-161.1 -212.4)"/><path class="cls-10" d="M206.1,231.4v-.2h.1l-3.4-1.8h-.2l3.1,1.7-3.1-1.7h-.2l3.3,1.8v-.2Z" transform="translate(-161.1 -212.4)"/><path class="cls-10" d="M205.1,233.7c0-.1,0-.2.1-.2v-.2l-3.4-1.8v.2h0v.4L205,234v-.2Z" transform="translate(-161.1 -212.4)"/><path class="cls-10" d="M205,234.4v-.2h0l-3.5-1.9h.1l3.3,1.7h.1Z" transform="translate(-161.1 -212.4)"/><path class="cls-10" d="M218.6,247.6h.6l-1.9-.2-1.9-.5a6.4,6.4,0,0,1-1.8-.6l2.4,1.4h2.6Z" transform="translate(-161.1 -212.4)"/><path class="cls-10" d="M206.1,239.9c-.1-.1-.1-.3-.2-.4l-.2-.4-3.9-2.1h-.1a6181264102396.6,6181264102396.6,0,0,1,.2.6.4.4,0,0,0,.1.3v.3l4.5,2.5-.3-.4C206.2,240.2,206.2,240,206.1,239.9Z" transform="translate(-161.1 -212.4)"/><path class="cls-10" d="M205,237a1.3,1.3,0,0,0-.1-.6v-.7l-3.6-1.9V235a1.3,1.3,0,0,0,.1.6,1.3,1.3,0,0,0,.1.6l3.9,2.2a6.4,6.4,0,0,0-.2-.7A6.4,6.4,0,0,1,205,237Z" transform="translate(-161.1 -212.4)"/><path class="cls-10" d="M208,242.5l-.8-.9-.6-.9h-.1l-4.3-2.4c0,.2.1.3.2.5l.3.5.3.6.4.5,6.4,3.6-.9-.8Z" transform="translate(-161.1 -212.4)"/><path class="cls-10" d="M206.5,243.7l1,.7,1.2.7,1.2.6,1.3.6,1.3.4,1.3.4-9.1-5,.9.8Z" transform="translate(-161.1 -212.4)"/><polygon class="cls-10" points="65.5 22.6 65.3 23.4 66.3 23.9 66 22.9 65.5 22.6"/><polygon class="cls-10" points="68.5 24.1 69.2 24.4 69.7 23.1 68.5 24.1"/><polygon class="cls-10" points="65.5 22.6 66 22.8 65.8 21.9 65.5 22.6"/><polygon class="cls-10" points="70.5 26 71.5 26.5 72.9 25.4 70.5 26"/><polygon class="cls-10" points="68.5 24.1 67.8 24.6 69 25.2 69.2 24.5 68.5 24.1"/><path class="cls-10" d="M235.8,244.1l-4.4-2.2,1.2-.3-8.9-4.5.3.9,3,1.6h-.1l-6.8-3.6.8,1,3.5,1.8h-.1l-2.9-1.5,1.3,1.4h-.2L230,243h-.1a.1.1,0,0,1,.1.1h.1l1.4.8-.6-.7Z" transform="translate(-161.1 -212.4)"/><polygon class="cls-10" points="58.8 23.5 61.4 24.9 58.7 23.5 58.8 23.5"/><polygon class="cls-10" points="73.8 28.4 69.8 27.9 71 27 69.5 26.2 68.5 26.4 68.7 25.8 67.2 25.1 66.7 25.5 66.5 24.7 65.1 24 64.7 25.2 62.5 22.7 62 22.5 62.6 24.5 71.6 29.2 74.3 28.6 73.8 28.4"/><polygon class="cls-10" points="61.2 29.7 59 28.5 56.7 29 61.2 29.7"/><polygon class="cls-10" points="72.9 34.4 70.4 31.7 60.4 26.5 56.9 25.9 61.1 28.1 60.4 28.2 68.6 32.5 68.5 32 72.9 34.4"/><path class="cls-10" d="M224.1,242.5h-.4a.1.1,0,0,1,.1.1h.1l3.8,2h0l2.3,1.2v-.6Z" transform="translate(-161.1 -212.4)"/><polygon class="cls-10" points="68.9 33.7 66.7 32.5 69.6 35.9 68.9 33.7"/><polygon class="cls-10" points="65.5 36 66.6 32.5 61.4 29.8 59.7 31.1 60.7 31.6 62.7 31.1 62.2 32.4 63.4 33 64.5 32.1 65.5 36"/><polygon class="cls-10" points="63.3 33.1 62.2 32.5 61.4 34.6 63.3 33.1"/><polygon class="cls-10" points="60.5 31.6 59.6 31.1 58.3 32.1 60.5 31.6"/></g></g></g><image class="cls-11" width="385" height="488" transform="translate(47.8 21.7) scale(0.24)" xlink:href="map_yellow1.png"/><path class="cls-3" d="M253.2,242.8H253a36.5,36.5,0,0,0-36.5,36.6,50.2,50.2,0,0,0,7.2,23.5c6.7,10.6,26.5,34.1,29.4,37.5,0,0,.1.2.1.1s.1-.1.1-.1c2.9-3.4,22.6-26.9,29.4-37.6a51,51,0,0,0,7.1-23.5A36.5,36.5,0,0,0,253.2,242.8Zm0,63.8a26.5,26.5,0,1,1,26.4-26.5A26.5,26.5,0,0,1,253.2,306.6Z" transform="translate(-161.1 -212.4)"/><path class="cls-12" d="M253.2,242.8H253a36.5,36.5,0,0,0-36.5,36.6,50.2,50.2,0,0,0,7.2,23.5c6.7,10.6,26.5,34.1,29.4,37.5,0,0,.1.2.1.1s.1-.1.1-.1c2.9-3.4,22.6-26.9,29.4-37.6a51,51,0,0,0,7.1-23.5A36.5,36.5,0,0,0,253.2,242.8Zm0,63.8a26.5,26.5,0,1,1,26.4-26.5A26.5,26.5,0,0,1,253.2,306.6Z" transform="translate(-161.1 -212.4)"/><circle class="cls-13" cx="92" cy="67.6" r="11.7"/></g></g></svg>