<svg xmlns="http://www.w3.org/2000/svg" xmlns:xlink="http://www.w3.org/1999/xlink" viewBox="0 0 223.3 157"><defs><style>.cls-1{fill:none;}.cls-2{isolation:isolate;}.cls-3{fill:#e82327;}.cls-4{fill:#fff;}.cls-5{opacity:0.29;}.cls-6{clip-path:url(#clip-path);}.cls-7{clip-path:url(#clip-path-2);}.cls-8{fill:#272870;}.cls-9{fill:#fbca0c;}.cls-10{opacity:0.75;mix-blend-mode:multiply;}</style><clipPath id="clip-path" transform="translate(-169.6 -203)"><path class="cls-1" d="M337.2,282.3a75.6,75.6,0,0,1-142.9,34.5h0a75.6,75.6,0,1,1,142.9-34.5Z"/></clipPath><clipPath id="clip-path-2" transform="translate(-169.6 -203)"><rect class="cls-1" x="177.7" y="240.8" width="213.7" height="142.49" transform="translate(133.8 -82.4) rotate(21.4)"/></clipPath></defs><title>map_red</title><g class="cls-2"><g id="Layer_1" data-name="Layer 1"><path class="cls-3" d="M339.3,282.3a77.8,77.8,0,0,1-146.9,35.5h0a77.8,77.8,0,0,1,69.2-113.2,77.6,77.6,0,0,1,77.7,77.7Z" transform="translate(-169.6 -203)"/><path class="cls-4" d="M337.2,282.3a75.6,75.6,0,0,1-142.9,34.5h0a75.6,75.6,0,1,1,142.9-34.5Z" transform="translate(-169.6 -203)"/><g class="cls-5"><g class="cls-6"><g class="cls-7"><path class="cls-3" d="M278.5,235.1h.3l-13.2-6.3v.2Z" transform="translate(-169.6 -203)"/><path class="cls-3" d="M337.8,270.1h0c-.1,0-.1,0-.1-.1h-.2l-2.1-1,28,13.5h.4a.1.1,0,0,0-.1-.1c0-.1-.1-.1-.2-.1l-92.6-45.1L327.2,264h.4c0-.1,0-.1-.1-.1h-.1l-57.5-27.8h0l47.3,22.9h.4a.1.1,0,0,0,.1-.1h0c-.1,0-.1,0-.1-.1h-.1l-40.8-19.6h.1L368,282.2h.5v-.2h-.2a.1.1,0,0,1-.1-.1l-26.9-12.9h.1a.1.1,0,0,1-.1-.1h-.2l-23.2-11.2h.1l62.1,29.8h.2L333.6,264h.1l23,11h.3c0-.1,0-.1-.1-.1h0l-45-21.5,25.4,12h.5L381,285.4h.5v-.2h-.3l-52.8-25h.2l2.3,1.1h.4l52.3,24.7h.5v-.2h-.3L265.5,229l-1,1.5,1.5.7-1.5-.7-.3.5,1.2.5-1.2-.5-.2.4,2.9,1.4h0l-2.9-1.4-1.3,1.9,12.7,6.2h0l62.4,30.5Z" transform="translate(-169.6 -203)"/><path class="cls-4" d="M392.9,303.5h-.4L279.2,246.5h.1l46.1,22.9h.4l63.3,31.4c0,.1.1.1.2.1h.3c0-.1,0-.1-.1-.2h-.3l-8.8-4.4h.1a.1.1,0,0,0,.1-.1h0a.1.1,0,0,0-.1-.1c0-.1-.1-.1-.1-.2h-.2l-69.4-34.4h0a497582161915.8,497582161915.8,0,0,1-.2-.2l-27.8-13.8h0l27,13.3h.2l-4.3-2.1h0l10.4,5.1h.5c0-.1,0-.1-.1-.1h-.1l70,34.3h.5c0-.1-.1-.1-.1-.2h-.2l-69.8-34.3h0l3.7,1.8h.2a.1.1,0,0,0,.1.1h-.1l-6.1-3.1h.1l44.6,21.7h.4c0-.1,0-.1-.1-.2h-.1l-21.7-10.5h0l-62.4-30.5h.1l-12.9-6.3-3,4.6,76.3,38.6h0a.1.1,0,0,0-.1-.1c0-.1,0-.1-.1-.1h-.1L300,258.4h0l85.6,42.9h.5l-.2-.2a.1.1,0,0,1-.1-.1L270.7,243l121.7,60.7h.5Z" transform="translate(-169.6 -203)"/><path class="cls-3" d="M259.2,238.7l5.4,2.7h0l-5.4-2.7-.3.4,3.4,1.7h0l-3.4-1.7-2.4,3.7,59.4,31,56.4,29.2h.5c0-.1-.1-.1-.1-.2h-.2L264.7,246.7h0l39,20.1h.4a.1.1,0,0,0-.1-.1h-.1l-10.5-5.4,41.7,21.4h.5l14.5,7.5h.5a.1.1,0,0,0-.1-.1h-.1a.1.1,0,0,0-.1-.1l-22.4-11.6h.1l60.7,31.1h.3c.1,0,.1,0,.1-.1h.1v-.2a.1.1,0,0,0-.1-.1H389c0-.1-.1-.1-.2-.2L312.5,269h.2a.1.1,0,0,1-.1-.1h-.2l-4.7-2.4h.1l6.4,3.3h.4c.1,0,.1,0,.1-.1h0c-.1,0-.1,0-.1-.1h-.1l-17.7-9h0c0-.1,0-.1-.1-.1s0-.1-.1-.1l-29.4-15,9.9,5h.3l92,46.7h.4c.1,0,.1,0,.1-.1h-.1c0-.1,0-.1-.1-.1h-.1L301.4,261h.1c-.1,0-.1,0-.1-.1h0l-17-8.6h0l13.6,6.8h.3a.1.1,0,0,0-.1-.1h0l-22.6-11.4h.1l59.7,30h.4a.1.1,0,0,0,.1-.1h0l-76.3-38.6Z" transform="translate(-169.6 -203)"/><path class="cls-4" d="M253.3,247.8l27,14.6h0l94.3,50.3h.4c.1,0,.1,0,.1-.1H375c0-.1,0-.1-.1-.2h-.2l-70.5-37.7h0c0-.1,0-.1-.1-.1s0-.1-.1-.1l-24.3-13h.1a497582161916,497582161916,0,0,1-.2-.2l-12.3-6.5h0l7.3,3.9h.3l41.2,21.8h.2l-40.4-21.4h-.2l-14.4-7.7h.1l116.9,61.7h.5a.1.1,0,0,1,.1-.1h0c-.1-.1-.1-.1-.1-.2h-.3l-85.9-45.3h0l3.5,1.8h.3c.1,0,.1,0,.1-.1h0a.1.1,0,0,1-.1-.1h-.1l-13.6-7.1,63.9,33.4h.5c.1-.1.1-.1,0-.1v-.2a.1.1,0,0,1-.1-.1h-.2l-62.6-32.9h0l32.7,17h.2c0,.1,0,.1.1.1h.1a.1.1,0,0,0,.1-.1h0l44.7,23.4h.5c.1,0,.1-.1,0-.1h0c0-.1-.1-.1-.1-.2h-.2l-61.4-32h0c-.1,0-.1,0-.1-.1h0l-34.9-18.1,10.9,5.6h.3l-3.1-1.6,41.9,21.7-59.4-31Z" transform="translate(-169.6 -203)"/><path class="cls-3" d="M311.9,287.2l22.8,12.6h.4c0-.1,0-.1-.1-.1s-.1-.1-.1-.2l-64.5-35.6,69,37.9h.3a.1.1,0,0,0-.1-.1l-35.8-19.7h.1a.1.1,0,0,0-.1-.1c0-.1,0-.1-.1-.1h-.1l-52-28.6h0L297,277h.5l14.1,7.7h.5a.1.1,0,0,1-.1-.1h-.1a.1.1,0,0,0-.1-.1l-1.1-.6h0l42.5,23.2h.4c.1,0,.1,0,.1-.1h0a.1.1,0,0,0-.1-.1V306a.1.1,0,0,1-.1-.1l-39.3-21.4h0v-.2H314a.1.1,0,0,1-.1-.1l-29.6-16.1,46.2,25h0a.1.1,0,0,0,.1.1h.3a.1.1,0,0,1,.1-.1h0a.1.1,0,0,0-.1-.1v-.2a.1.1,0,0,1-.1-.1l-.4-.2,51,27.6h.5v-.2h0l-.2-.2a.1.1,0,0,1-.1-.1L252.4,249.3l-2.3,3.6Z" transform="translate(-169.6 -203)"/><path class="cls-3" d="M252.4,249.3l36.5,19.6h.4a.1.1,0,0,1,.1-.1h0l66.2,35.6h.3a.1.1,0,0,0,.1-.1h.1v-.2h-.2a.1.1,0,0,0-.1-.1h0l-97.1-52.3h0l56.6,30.4h.3l-39.8-21.3h.1l4.1,2.2h.3l-27-14.6Z" transform="translate(-169.6 -203)"/><path class="cls-4" d="M247.7,256.5l14.2,8h.3L330.5,303h.5l49,27.6h.2a.1.1,0,0,0,.1.1h.2v-.2h-.2c0-.1-.1-.1-.2-.1L274,270.1h.1l3.2,1.8h.5a497582161916,497582161916,0,0,1-.2-.2h0l-14.3-8h0l1.6.9h.4l20.5,11.4h.3c0-.1,0-.1-.1-.1h0l-25.8-14.4h.1l44.5,24.8h0a.1.1,0,0,1,.1.1h.2a.1.1,0,0,0,.1-.1h.1v-.2H305l-29.2-16.3,56.8,31.4h.5c0-.1,0-.1-.1-.1v-.2h-.1l-27.7-15.3h.2c0-.1,0-.1-.1-.1s0-.1-.1-.2H305l-49.3-27.4,2.6,1.4h.2l53.4,29.4-61.8-34.3Z" transform="translate(-169.6 -203)"/><path class="cls-4" d="M315.1,297.2h0l46.7,26.6h.6c0-.1-.1-.1-.1-.2H362L257.7,263.8h.1l5.3,3h.5l2.3,1.3h.2l97.7,55.2h.5c0-.1,0-.1-.1-.2a.1.1,0,0,0-.1-.1c0-.1-.1-.1-.1-.2L247.6,256.6l-.8,1.4Z" transform="translate(-169.6 -203)"/><path class="cls-3" d="M217.3,241.1h-.1L198,230.2h-.3l17.8,10.2h0L191,226.8h-.1l-.7.8,21,12.1h-.1l-21-12.1-.2.4,33.6,19.5-33.7-19.4h-.1l-.2.3,8,4.7-8-4.7-.3.4,11.9,7H201l-9.7-5.6h-.2l23.1,13.5h-.1l-25.3-14.8-.5.6,29.9,17.6h-.1l-12.8-7.5H205l-16.9-9.9h0v.2L356.9,330.6h0v-.2h-.2c0-.1-.1-.1-.1-.2L235.5,258.6h0l20.6,12.1h.4l25.7,15.1h.5v-.2h-.1a.1.1,0,0,1-.1-.1l-10-5.8h0L304.6,298h.4a.1.1,0,0,0,.1-.1h0l2.3,1.3a.1.1,0,0,0,.1.1h.3c0-.1,0-.1-.1-.2a.1.1,0,0,1-.1-.1l-16.3-9.5h.2a.1.1,0,0,0-.1-.1h-.2l-28.3-16.6h0l16.9,9.8h.5a.1.1,0,0,1-.1-.1h-.1l-24-13.9,27.6,15.8h.5a.1.1,0,0,1-.1-.1H284l-18.2-10.6,57.8,33.3h.5c0-.1.1-.1,0-.1v-.2h-.2l-59.5-34.4h0a.1.1,0,0,0-.1-.1l-3.5-2h.1l28.8,16.5h.4l85.1,48.8h.5a.1.1,0,0,0,.1-.1v-.2h-.1c0-.1,0-.1-.1-.2h-.2L243.9,257.3h.1l11.8,6.6h.4l58.5,33.4h.1a.1.1,0,0,0,.1.1h.1a.1.1,0,0,0,.1-.1L246.8,258Z" transform="translate(-169.6 -203)"/><path class="cls-4" d="M187.8,230.6h.2l31.9,18.8h0l-19.4-11.2h-.3L187.4,231l-.3.4,34.8,20.7h0l-34.8-20.7-.6.7,13.1,7.9h0L220,252.5h0l14,8.3h-.1l-22.7-13.5h0a.1.1,0,0,1-.1-.1H211c-.1,0-.1,0-.1.1h-.1l-24.9-14.9-.3.3,33,20h-.1L207,246.4h-.4l-12.9-7.8h-.3l19.9,12.1h-.1l-6.9-4.1H206l-21.2-12.9-.4.4,166.4,102h0c-.1,0-.1,0-.1-.1h-.1a.1.1,0,0,1-.1-.1L300,305.4h-.1a.1.1,0,0,0-.1-.1l-35.3-21.5,16.9,10.2h.4l27.8,16.8a.1.1,0,0,0,.1.1h.4c-.1-.1-.1-.1-.1-.2h-.2l-50.6-30.7,54,32.6h.5l18.4,11h.5v-.2a.1.1,0,0,1-.1-.1h-.2l-52.5-31.7h.1c0-.1-.1-.1-.1-.2h-.1l-19.2-11.5h.2l15.4,9.2h.4l8.7,5.1h.4a.1.1,0,0,1,.1-.1h0c-.1-.1-.1-.1-.1-.2s-.1,0-.1-.1l-6.8-4,84.7,50.6h.5a.1.1,0,0,0,.1-.1h0c0-.1,0-.1-.1-.2h-.1l-.2-.2-60.5-36.1h.1c0-.1,0-.1-.1-.2h-.2l-23.8-14.2,4.9,2.9h.4L307,303.2h.5l9,5.3h.5l8.3,4.8h.5c0-.1-.1-.1-.1-.2a.1.1,0,0,0-.1-.1h-.1l-42.9-25.4,73.8,43.4h.5L188,230.4Z" transform="translate(-169.6 -203)"/><path class="cls-3" d="M184.1,235.1l-.2.2,37.2,22.9H221l-29.4-17.9h-.1c0-.1,0-.1-.1-.1s0,.1-.1.1H191l-7.6-4.6h-.1l-.2.2,31.1,19.2h-.1l-23.5-14.4h-.3c-.1,0-.1,0-.1.1h.1l6.1,3.7h0L182.5,237l-.4.5-.3.3,5.7,3.5h0l-5.9-3.7h0l-.3.3,16.2,10.1-16.2-10.1-.5.6,134.8,85.4h-.1c0-.1,0-.1-.1-.1h0l-38.2-24.1H277l-22-13.8h.1l35.5,22.3h.3c.1,0,.1,0,.1-.1h.1v-.2H291a.1.1,0,0,0-.1-.1l-28-17.6h-.1l-20.2-12.7h0l70.6,44.1a.1.1,0,0,0,.1.1h.4c0-.1,0-.1-.1-.2h-.1a.1.1,0,0,0-.1-.1h0l-43.8-27.4h0v-.2h0a.1.1,0,0,1-.1-.1h-.1l-35-21.8h.1l101.2,62.9h.5c.1-.1.1-.1,0-.2h0c0-.1-.1-.1-.1-.2h-.2l-43.5-27.1h0l19.8,12.3h.5c-.1-.1-.1-.1-.1-.2h-.2l-69.2-42.9h0l6.3,3.9h.4l22.3,13.6h.4a.1.1,0,0,1,.1-.1h-.2l-10.3-6.4h.1l18.8,11.6h.5l62.6,38.4h.5a.1.1,0,0,1,.1-.1v-.2h-.1c0-.1-.1-.1-.1-.2h-.2l-18-11.1h0c0-.1-.1-.1-.1-.2h-.1l-51.1-31.3h.1l75,45.8h.6l-166.4-102Z" transform="translate(-169.6 -203)"/><path class="cls-4" d="M180.8,239.1,187,243h-.1l-6.2-3.9-.4.6,4.2,2.7h-.1l-4.2-2.7h-.1l-.4.5,12.3,7.9h-.2l-12.3-7.7-.4.4v.2l1,.6h0l2.3,1.5h0l9.8,6.3-11.3-7.2h-.4l-1.9-1.2-.3.3,29.2,18.9H207l-27.4-17.6h-.3l-1.5-1-.4.4,7,4.5h0l9.1,6h0l-16.3-10.5h0l101.3,66.4h-.3l-54.1-35.4h.1l96,62.3a.1.1,0,0,1,.1.1h.2c.1,0,.1,0,.1-.1h.1c-.1-.1-.1-.1-.1-.2h-.2l-55.8-36.3h.1l15.3,9.9h.4c0-.1,0-.1-.1-.1h-.1l-4.7-3.1,51,32.8h.5s.1-.1,0-.1v-.2h-.1l-.2-.2-85.5-55.2,71.4,45.9h.5s.1-.1,0-.1v-.2h-.2l-43.8-28.2h.1a.1.1,0,0,0-.1-.1h-.2l-30.7-19.8h.1a.1.1,0,0,0-.1-.1h-.1l-15-9.6h.1l66.7,42.5a.1.1,0,0,0,.1.1h.3a.1.1,0,0,1,.1-.1h0c0-.1,0-.1-.1-.2h-.2L248.4,285h0a.1.1,0,0,0-.1-.1l-14-8.9,110.4,70h.6c0-.1-.1-.1-.1-.2s-.1-.1-.1-.2h-.2l-60.7-38.6h.1c0-.1,0-.1-.1-.2h-.1l-11-6.9h.1v-.2H273l-34.2-21.7h0l76.3,48.1h.5L180.8,239Z" transform="translate(-169.6 -203)"/><path class="cls-3" d="M176.6,244.1l-.8.9,11.4,7.5h0l22.4,14.8h-.1l-34-22.4-.3.4-.3.4,22.5,15h0l-22.6-14.9-.3.4L195,260.4h-.1l-9.7-6.5h-.3c-.1.1-.1.1,0,.1h.1l.8.5h-.1L174,247.2v.2l-.5.5L325.4,351h.1c.1-.1.1-.1.1-.2h-.1a.3.3,0,0,0-.1-.2h-.2l-6.9-4.7h0v-.2h0v-.2H318L208.5,271.2h0l110.8,74.3h.5a.1.1,0,0,1,.1-.1h0c0-.1,0-.2-.1-.2V345h-.1l-67.2-45.1h.1c-.1-.1-.1-.1-.1-.2h-.1l-.8-.5h.1l74,49.5h.5a.1.1,0,0,0,.1-.1h0c0-.1,0-.1-.1-.2H326c0-.1-.1-.1-.1-.2l-37.5-25h.1v-.2h-.1a.1.1,0,0,0-.1-.1l-28.7-19.2h0v-.2h-.2l-36.8-24.5h.1l4.3,2.9h.4l30.2,20h.2a.1.1,0,0,0,.1.1h.2l18.7,12.3h.3c.1,0,.1,0,.1-.1h.1v-.2h-.1a.1.1,0,0,0-.1-.1L264.7,304h.1l71.9,47.3h.4a.1.1,0,0,0,.1-.1h0V351h0a.3.3,0,0,1-.1-.2h-.2L324,342.1h0s.1,0,0-.1v-.2h-.3l-79.4-52.2h.2l77.2,50.5h.5v-.2h-.3l-72.5-47.6h.1L278,310h.5L177.2,243.4Z" transform="translate(-169.6 -203)"/><path class="cls-4" d="M173.4,248h-.1l16.5,11h-.1a.1.1,0,0,1,.1.1l10.4,7h0l7.4,5h-.1l-34.6-23.3-.8.9-.4.5,2.5,1.7h0l12.9,8.8h.1l2.6,1.8h-.1l-18.4-12.5-.3.4h0l.6.4h0l-.7-.4-.5.6,23.9,16.6h0l-24-16.5-.3.3,10.5,7.3h0L170,252.1l-.4.5,110.2,77.3h0c.1,0,.1,0,.1-.1h-.1c0-.1,0-.1-.1-.2h-.1l-23.1-16.1h.1c0-.1,0-.1-.1-.2h0a.1.1,0,0,1-.1-.1h0l-32-22.3h0l28.5,19.7h.5v-.2c-.1,0-.1,0-.1-.1h-.1l-39.9-27.7,45.9,31.7h.3c.1,0,.1,0,.1-.1h0l11.9,8.2h.4a.1.1,0,0,0,.1-.1h.1l36,24.8c0,.1.1.1.2.1h.2a.1.1,0,0,0,.1-.1h0v-.2h-.1l-.2-.2-57.5-39.7h.1l4.7,3.2a.1.1,0,0,0,.1.1h.3c0-.1,0-.1.1-.1h0l11.3,7.8h.5v-.2a497582161915.8,497582161915.8,0,0,0-.2-.2l-12.8-8.8h.1v-.2h-.1a.1.1,0,0,0-.1-.1h0l-24.6-16.9,20.2,13.8h.2l-36.1-24.7h.1l11.5,7.7h.4l94.2,64h.5v-.2a.1.1,0,0,1-.1-.1c0-.1-.1-.1-.1-.2h-.2l-82.7-56.3h.1l74.6,50.4h0a.1.1,0,0,0,.1.1h.3a.1.1,0,0,0,.1-.1h0v-.2h-.1l-.2-.2h0l-38.3-25.9h.1L325,350.9h.1a.1.1,0,0,0,.1.1h.2l-152-103.1Z" transform="translate(-169.6 -203)"/><path class="cls-8" d="M239.9,219.3h-.3L264,231.4l.2-.4Z" transform="translate(-169.6 -203)"/><path class="cls-8" d="M208.9,205.1l-.4.5,45.5,22h0l-45.6-21.9-.2.2h0l20.9,10.1.5.2.6.2.5.2.5.3.5.2.4.3.5.2.4.3,14,6.8h0l-13.2-6.4.4.3.4.3.4.3.3.3L260,231.8h.2l2.5,1.2,1.3-1.9Z" transform="translate(-169.6 -203)"/><path class="cls-8" d="M227.2,215.5l.5.2h.4l-9.3-4.5h-.2l7.7,3.7h.9Z" transform="translate(-169.6 -203)"/><path class="cls-8" d="M265,228.8h0l.5.2v-.2l-4.5-2.1-12.9-6.1h0L210.6,203l-.4.5,19,9h-.1l-19-9v.2h-.1l11.3,5.4h.1l34.3,16.3h.1l8.8,4.2,1-1.5Z" transform="translate(-169.6 -203)"/><path class="cls-8" d="M214.1,206.6h-.2L264.2,231l.3-.5Z" transform="translate(-169.6 -203)"/><path class="cls-8" d="M221.7,215h.4l-15.2-7.4h0l-.3.3h.1l14.6,7.1h.4Z" transform="translate(-169.6 -203)"/><polygon class="cls-8" points="66 22.9 66.3 23.9 67.8 24.6 68.5 24.1 66 22.9"/><path class="cls-8" d="M222.8,215h.4l-2.7-1.3h-.2l2,1h.5Z" transform="translate(-169.6 -203)"/><path class="cls-8" d="M262.6,233.5l-11.9-5.7h-.2c-.1,0-.1,0-.1.1h.1l1.6.8H252l-14.8-7.2.3.4.3.4.2.4a.5.5,0,0,1,.2.4l8.1,3.9h0l-8-3.8.2.3v.4l.2.4v.3a.8.8,0,0,0-.2-.4l-.3-.4a.5.5,0,0,0-.2-.4l-.3-.4-6.3-3.1h-.4l-6.5-3.2h-2.2l18.8,9.4h-.1l-18.9-9.4h-1.6l10.5,5.2h0l-10.7-5.3h-.6l15.2,7.6.3-.7.2,1,2.5,1.2,1.2-1-.5,1.4h.3l-.3-.2-.2.8,1.5.7,2.4-.5-1.4,1.1,18.1,9.1.4-.6Z" transform="translate(-169.6 -203)"/><path class="cls-8" d="M217.9,215.6h.5l-12.8-6.4-.2.2-.3.3,12.3,6.2h.5Z" transform="translate(-169.6 -203)"/><path class="cls-8" d="M216.6,216.1h.2l-8.5-4.3h-.2l8.2,4.2h.3Z" transform="translate(-169.6 -203)"/><path class="cls-8" d="M219.5,215.3h.9l-14.1-6.9-.4.5,2,.9h-.1l-1.9-.9-.3.3,13,6.4h.9Z" transform="translate(-169.6 -203)"/><path class="cls-8" d="M236.8,222.1l-.5-.5-.6-.5-7-3.4h-1.5l5.5,2.7h-.1l-5.6-2.7h-1.2l12,6-.5-.6Z" transform="translate(-169.6 -203)"/><path class="cls-8" d="M219.8,218H219l15.9,8,.2-.7Z" transform="translate(-169.6 -203)"/><path class="cls-8" d="M216,220.3h-.4l13.8,7.2-.9-1Z" transform="translate(-169.6 -203)"/><path class="cls-8" d="M215.8,216.4h.4l-7-3.5h-.3l.9.4h0l5.6,2.9h.4Z" transform="translate(-169.6 -203)"/><polygon class="cls-8" points="65.1 24 62.5 22.7 64.7 25.2 65.1 24"/><path class="cls-8" d="M229.9,228.3l-14.5-7.4h-.3l2.5,1.3h.1l13.3,6.9h.2Z" transform="translate(-169.6 -203)"/><path class="cls-8" d="M246.1,232.2h-.3c-.1,0-.1,0-.1.1h.1l13.1,6.6.3-.4Z" transform="translate(-169.6 -203)"/><path class="cls-8" d="M212.9,218.3h.3l-10.6-5.4-.2.2-.2.2,10.5,5.4h.2Z" transform="translate(-169.6 -203)"/><polygon class="cls-8" points="73.8 28.4 71 27 69.8 27.9 73.8 28.4"/><path class="cls-8" d="M212.4,218.7h.2l-10.5-5.4h0l-.2.2,10.4,5.4h0C212.4,218.8,212.4,218.8,212.4,218.7Z" transform="translate(-169.6 -203)"/><polygon class="cls-8" points="69.5 26.2 68.7 25.8 68.5 26.4 69.5 26.2"/><path class="cls-8" d="M211.9,219.3h.2l-10.4-5.3-.3.3,10.4,5.4h.1Z" transform="translate(-169.6 -203)"/><path class="cls-8" d="M214.1,217.3h.4l-11-5.6-.2.4h-.1l9.8,5h0a.1.1,0,0,0,.1.1l.6.3h.2Z" transform="translate(-169.6 -203)"/><path class="cls-8" d="M216.6,219.8h-.5l12.3,6.4h-.1l2.7,1.4,1.4.8-.2-1Z" transform="translate(-169.6 -203)"/><path class="cls-8" d="M218.2,218.8h-.5l-.3.2-.2.2,5.2,2.6h-.1a.1.1,0,0,0,.1.1h.1l8.8,4.5h.1l.8.4-.6-2.1Z" transform="translate(-169.6 -203)"/><polygon class="cls-8" points="67.2 25.1 66.5 24.7 66.7 25.5 67.2 25.1"/><polygon class="cls-8" points="66.6 32.4 66.6 32.4 66.6 32.4 66.6 32.4"/><path class="cls-8" d="M211.1,220.5h.1l-10.4-5.4-.3.3,10.4,5.5h.2Z" transform="translate(-169.6 -203)"/><path class="cls-8" d="M211.3,220.1h.1l-4.8-2.4h-.2l4.8,2.5h.1Z" transform="translate(-169.6 -203)"/><path class="cls-8" d="M230.8,232.7l-4.5-.6,2.3-.5-3.8-2h-.4l-10.7-5.7c0,.1,0,.2-.1.2v.4c-.1,0-.1.1-.1.2l9.5,5h0l-9.5-5v.2h0v.4h.1c.1,0,.1,0,.1.1h0l15.7,8.3,1.7-1.3Z" transform="translate(-169.6 -203)"/><path class="cls-8" d="M210.1,222.5v-.2c0-.1,0-.1.1-.2l-6-3.1h-.2l3.4,1.8h0l2.5,1.4c.1,0,.1-.1.1-.2Z" transform="translate(-169.6 -203)"/><path class="cls-8" d="M226.5,229l3.5.5-15.2-7.8c-.1,0-.1.1-.1.2l-.2.2h-.1c0,.1,0,.2-.1.2l8,4.2h0l.7.4h.1l6.9,3.7h.7Z" transform="translate(-169.6 -203)"/><path class="cls-8" d="M256.5,242.9l2.4-3.7-15-7.5-2.7.5,6.2,3.2h0l-6.3-3.2-1.3.3,4.5,2.3-4.9-.8.6.7,3.3,1.7-3.3-1.7,2.5,2.7-4.4-2.3v.5l12.9,6.7H251l-7-3.7h0a.1.1,0,0,1-.1-.1h-.1c-.1,0-.1,0-.1.1h-.1l-5.2-2.7v.6l11.2,5.9-11.2-5.8.7,2.2-2.9-3.4h-.1l-1.1,3.6-1-3.9-1.1.9,1.2.7h-.1l-1.2-.6-1.9,1.5.8-2.1-1.7-.9-2.2.5,1.3-1-14.6-7.7h-.3a.1.1,0,0,0,.1.1h0l12.3,6.6h-.1l-13.2-7.1v.7a1.5,1.5,0,0,1,.1.7l.2.6a1.9,1.9,0,0,0,.2.7l24.6,13.4h0l-8-4.3h-1l-1.2.2h-3.8l2.3,1.3h.1l16.8,9.4h.1l5.3,3H249l-.7-.4h0l-26-14.3-1.4-.3-1.3-.5-1.2-.5-1.3-.7-1.1-.6-1-.8-.9-.7-.9-.9-13.5-7.4h-.3l4.5,2.5h-.1l38.6,21.5h-.1l-1.3-.7h-.2l-47-26-.3.4h-.1l13.4,7.6h.1l30,16.9h0l-19-10.5h-.3l-24.7-13.8-.4.5,11.7,6.6L192.5,225l-.3.3,25.3,14.4h.1l8.5,4.9-23.8-13.4H202l-10.2-5.8-.3.4L219,241.8h-.1l-1.3-.8h-.3L246.8,258l.8-1.4-.9-.5h.1l.9.5,2.4-3.6,2.3-3.6-2.5-1.3h.1l2.4,1.3.9-1.5Z" transform="translate(-169.6 -203)"/><polygon class="cls-8" points="60.7 31.6 62.2 32.4 62.7 31.1 60.7 31.6"/><path class="cls-8" d="M210,223.1h0L199,217v.2h-.1l11.1,6a.1.1,0,0,1,.1-.1Z" transform="translate(-169.6 -203)"/><path class="cls-8" d="M209.8,225.6v-1.2l-11.7-6.2-.3.3,4.3,2.3h0l-4.4-2.3-.2.3-.7.8,13.1,7.1a1.3,1.3,0,0,0-.1-.6Z" transform="translate(-169.6 -203)"/><path class="cls-8" d="M210.3,228.2a3090632051235.1,3090632051235.1,0,0,1-.2-.6H210l-13.7-7.4-.4.5h0l14.7,8.1c-.1-.1-.1-.2-.1-.4Z" transform="translate(-169.6 -203)"/><path class="cls-8" d="M211.2,230.1l-.3-.6-.3-.5-14.8-8.1h-.1l-.7.8,16.8,9.3-.3-.5Z" transform="translate(-169.6 -203)"/><path class="cls-8" d="M225.8,237.8l1.9.2h1.8l-15.3-8.3.2.4a.5.5,0,0,0,.2.4c.1.2.1.3.2.4l.3.4h0l.6.9.8.9.9.8.9.8,3.8,2.1,1.8.6Z" transform="translate(-169.6 -203)"/><path class="cls-9" d="M232.1,217.5l-.4-.3-.5-.2-.5-.3-.5-.2-.6-.2-.5-.2L233,218l-.4-.3Z" transform="translate(-169.6 -203)"/><path class="cls-9" d="M234.6,219.1l-.4-.3-.4-.3-5.7-2.7h-.4l-.5-.2h-.9l9,4.4-.3-.3Z" transform="translate(-169.6 -203)"/><path class="cls-9" d="M226.4,217.3h.6l-4.9-2.4h-.8l4.5,2.2h.6Z" transform="translate(-169.6 -203)"/><path class="cls-9" d="M228,217.5h.7l-5.5-2.7h-.9l4.9,2.4h.8Z" transform="translate(-169.6 -203)"/><path class="cls-9" d="M221.5,217.6h.8l-3.9-1.9h-1l1.7.8h0l1.6.9h.8Z" transform="translate(-169.6 -203)"/><path class="cls-9" d="M220.2,217.9h.3l-3.7-1.8h-.5l3.6,1.8h.3Z" transform="translate(-169.6 -203)"/><path class="cls-9" d="M237.8,222.6l-.3-.4-.3-.4-1.5-.7.6.5.5.5.5.5.5.6.4.2a.5.5,0,0,0-.2-.4Z" transform="translate(-169.6 -203)"/><path class="cls-9" d="M238.4,224.1l.3.4a.8.8,0,0,1,.2.4v-.3l-.2-.4v-.4l-.2-.3-.4-.2.3.4A.5.5,0,0,1,238.4,224.1Z" transform="translate(-169.6 -203)"/><path class="cls-9" d="M223.6,217.3h1.1l-4.3-2.1h-1.8l3.9,2h1.1Z" transform="translate(-169.6 -203)"/><path class="cls-9" d="M216.3,220h.3l-3.4-1.7h-.5l3.4,1.7h.2Z" transform="translate(-169.6 -203)"/><path class="cls-9" d="M215.8,220.5h.2l-3.4-1.7h-.2c0,.1,0,.1-.1.1h0l3.3,1.7h.2Z" transform="translate(-169.6 -203)"/><path class="cls-9" d="M215.3,221h.1l-3.3-1.8h-.3l3.3,1.7h.2Z" transform="translate(-169.6 -203)"/><path class="cls-9" d="M217.7,219h0l-3.2-1.6h-.4l-.2.2h-.2l3.5,1.8.2-.2Z" transform="translate(-169.6 -203)"/><path class="cls-9" d="M219.4,218.2h.4l-3.6-1.8h-.8l3.6,1.8h.4Z" transform="translate(-169.6 -203)"/><path class="cls-9" d="M214.5,222.1l.2-.2c0-.1,0-.2.1-.2l-3.4-1.8h-.2l3.1,1.6-3.1-1.6h-.3l3.4,1.7c.1,0,.1-.1.1-.2Z" transform="translate(-169.6 -203)"/><path class="cls-9" d="M213.6,224.3v-.2c.1,0,.1-.1.1-.2l-3.4-1.8c-.1.1-.1.1-.1.2v.2h0c0,.1,0,.2-.1.2l3.5,1.9c0-.1,0-.2.1-.2Z" transform="translate(-169.6 -203)"/><path class="cls-9" d="M213.5,225h0v-.2l-3.5-1.8h0a.1.1,0,0,0-.1.1h.2l3.3,1.8V225Z" transform="translate(-169.6 -203)"/><path class="cls-9" d="M227.1,238.2h1.2l1.2-.2h-1.8l-1.9-.2-1.9-.4-1.8-.6,2.4,1.3h2.6Z" transform="translate(-169.6 -203)"/><path class="cls-9" d="M214.6,230.5a.5.5,0,0,1-.2-.4l-.2-.4-3.9-2h-.2a3090632051235.1,3090632051235.1,0,0,0,.2.6l.2.3c0,.2,0,.3.1.4l4.5,2.4-.3-.4C214.7,230.8,214.7,230.7,214.6,230.5Z" transform="translate(-169.6 -203)"/><path class="cls-9" d="M213.5,227.7a1.5,1.5,0,0,0-.1-.7v-.7l-3.6-1.9v1.8a1.3,1.3,0,0,1,.1.6l4,2.2a1.9,1.9,0,0,1-.2-.7Z" transform="translate(-169.6 -203)"/><path class="cls-9" d="M216.5,233.1l-.8-.9-.6-.9H215l-4.4-2.4.3.5.3.6.3.5.3.5,6.5,3.6-.9-.8Z" transform="translate(-169.6 -203)"/><path class="cls-9" d="M215,234.3l1,.8,1.1.6,1.3.7,1.2.5,1.3.5,1.4.3-9.1-5,.9.9Z" transform="translate(-169.6 -203)"/><polygon class="cls-9" points="65.5 22.6 65.3 23.4 66.3 23.9 66 22.9 65.5 22.6"/><polygon class="cls-9" points="68.5 24.1 69.2 24.4 69.7 23.1 68.5 24.1"/><polygon class="cls-9" points="65.5 22.6 66 22.8 65.8 21.9 65.5 22.6"/><polygon class="cls-9" points="70.5 26 71.5 26.5 72.9 25.4 70.5 26"/><polygon class="cls-9" points="68.5 24.1 67.8 24.6 69 25.2 69.2 24.5 68.5 24.1"/><path class="cls-9" d="M244.3,234.8l-4.5-2.3,1.3-.3-8.9-4.5.2,1,3.1,1.5h-.1l-6.9-3.5.9,1,3.5,1.7h-.1l-2.9-1.5,1.3,1.4H231l7.5,3.9h.1l1.4.8-.6-.7Z" transform="translate(-169.6 -203)"/><polygon class="cls-9" points="58.8 23.5 61.4 24.9 58.7 23.5 58.8 23.5"/><polygon class="cls-9" points="73.8 28.4 69.8 27.9 71 27 69.5 26.2 68.5 26.4 68.7 25.8 67.2 25.1 66.7 25.5 66.5 24.7 65.1 24 64.7 25.2 62.5 22.7 62 22.5 62.6 24.5 71.6 29.2 74.3 28.6 73.8 28.4"/><polygon class="cls-9" points="61.2 29.7 59 28.5 56.7 29 61.2 29.7"/><polygon class="cls-9" points="72.9 34.4 70.4 31.7 60.4 26.5 56.9 25.9 61.1 28.1 60.4 28.2 68.6 32.5 68.5 32 72.9 34.4"/><path class="cls-9" d="M232.6,233.1h-.2l3.8,2h0l2.3,1.2v-.6Z" transform="translate(-169.6 -203)"/><polygon class="cls-9" points="68.9 33.7 66.7 32.5 69.6 35.9 68.9 33.7"/><polygon class="cls-9" points="65.5 36 66.6 32.5 61.4 29.8 59.7 31.1 60.7 31.6 62.7 31.1 62.2 32.4 63.4 33 64.5 32.1 65.5 36"/><polygon class="cls-9" points="63.3 33.1 62.2 32.5 61.4 34.6 63.3 33.1"/><polygon class="cls-9" points="60.5 31.6 59.6 31.1 58.3 32.1 60.5 31.6"/></g></g></g><image class="cls-10" width="381" height="483" transform="translate(48.3 22.4) scale(0.24)" xlink:href="map_red1.png"/><path class="cls-3" d="M261.7,233.4h-.2A36.6,36.6,0,0,0,225,270a51,51,0,0,0,7.1,23.5c6.8,10.7,26.6,34.1,29.5,37.6h.2c2.9-3.5,22.6-27,29.4-37.7a51,51,0,0,0,7.1-23.4A36.7,36.7,0,0,0,261.7,233.4Zm0,63.8a26.5,26.5,0,1,1,26.4-26.5A26.4,26.4,0,0,1,261.7,297.2Z" transform="translate(-169.6 -203)"/><circle class="cls-3" cx="92" cy="67.6" r="11.7"/></g></g></svg>