<svg xmlns="http://www.w3.org/2000/svg" xmlns:xlink="http://www.w3.org/1999/xlink" viewBox="0 0 223.3 157"><defs><style>.cls-1{fill:none;}.cls-2{isolation:isolate;}.cls-3{fill:#1e439b;}.cls-13,.cls-4{fill:#ffc50b;}.cls-5{fill:#fff;}.cls-6{opacity:0.12;}.cls-7{clip-path:url(#clip-path);}.cls-8{clip-path:url(#clip-path-2);}.cls-9{fill:#e82327;}.cls-10{fill:#272870;}.cls-11{fill:#fbca0c;}.cls-12{opacity:0.75;mix-blend-mode:multiply;}.cls-13{fill-rule:evenodd;}</style><clipPath id="clip-path" transform="translate(-162 -211.7)"><path class="cls-1" d="M329.7,290.9a75.6,75.6,0,0,1-142.9,34.5h0a73.9,73.9,0,0,1-8.3-34.5,75.6,75.6,0,0,1,151.2,0Z"/></clipPath><clipPath id="clip-path-2" transform="translate(-162 -211.7)"><rect class="cls-1" x="170.2" y="249.5" width="213.7" height="142.49" transform="translate(136.4 -79.1) rotate(21.4)"/></clipPath></defs><title>medical_yellow</title><g class="cls-2"><g id="Layer_1" data-name="Layer 1"><path class="cls-3" d="M255.1,290.9" transform="translate(-162 -211.7)"/><path class="cls-4" d="M332.8,290.9a77.7,77.7,0,0,1-146.9,35.5h0a76.9,76.9,0,0,1-8.6-35.5,77.7,77.7,0,0,1,77.8-77.7,77.8,77.8,0,0,1,77.7,77.7Z" transform="translate(-162 -211.7)"/><path class="cls-5" d="M330.7,290.9a75.6,75.6,0,0,1-142.9,34.5h0a73.9,73.9,0,0,1-8.3-34.5,75.6,75.6,0,0,1,151.2,0Z" transform="translate(-162 -211.7)"/><g class="cls-6"><g class="cls-7"><g class="cls-8"><path class="cls-9" d="M271,243.7h.2L258,237.5v.2Z" transform="translate(-162 -211.7)"/><path class="cls-9" d="M330.3,278.8h-.2a.1.1,0,0,0-.1-.1h0l-2.2-1.1,28,13.6h.2s.1.1.1,0h.1c.1,0,.1,0,.1-.1h0a.1.1,0,0,0-.1-.1H356l-92.7-45,56.3,27.1h.5a.1.1,0,0,0-.1-.1h-.1a.1.1,0,0,0-.1-.1l-57.4-27.8h0l47.3,22.8h.4a.1.1,0,0,0-.1-.1h-.1l-40.7-19.7h.1l91.2,43.8h.4a.1.1,0,0,0-.1-.1h-.2l-26.9-13h0a.1.1,0,0,1-.1-.1h0l-23.3-11.1h.1l62.2,29.7h.3c.1,0,.1,0,.1-.1h.1v-.2h-.3l-46.6-22.3h0l23.1,11h.1c.1,0,.1.1.2,0h.1c.1,0,.1,0,0-.1h-.3l-44.9-21.4,25.3,12h.4c.1,0,.1,0,.1-.1h0L373.5,294h0a.1.1,0,0,0,.1.1h.3c0-.1-.1-.1-.1-.2h-.2l-52.7-25h.1l2.3,1h0a.1.1,0,0,0,.1.1h.3L376,294.1h.5c0-.1-.1-.1-.1-.2h-.2L257.9,237.7l-.9,1.4,1.4.7-1.4-.7-.3.5,1.1.6-1.1-.6-.3.4,3,1.4h-.1l-2.9-1.4-1.3,2,12.8,6.1h-.1c0,.1,0,.1.1.1h0l62.4,30.6Z" transform="translate(-162 -211.7)"/><path class="cls-5" d="M385.3,312.2V312h-.4L271.6,255.2h.1L317.8,278h.4a.1.1,0,0,1,.1-.1l63.2,31.5h.5l-.2-.2h-.1l-8.8-4.3h0c0-.1,0-.1-.1-.1a.1.1,0,0,0-.1-.1l-69.5-34.5h-.1a.1.1,0,0,0-.1-.1l-27.8-13.8h.1l26.9,13.3h.3a.1.1,0,0,1-.1-.1h0l-4.3-2.1h0l10.5,5.1h.2c.1,0,.1,0,.1-.1h-.1L378.9,305h.2a.1.1,0,1,0,.2,0c.1,0,.1,0,.1-.1h0a.1.1,0,0,0-.1-.1h-.1c0-.1-.1-.1-.2-.1l-69.8-34.4h.1l3.7,1.8h.4a.1.1,0,0,0-.1-.1h-.1l-6.2-3h.1L351.7,290h.2l-21.7-10.6h.1l-62.4-30.6h.1l-13-6.2-3,4.6,76.3,38.5H328L292.4,267h0L378,309.9h0c.1,0,.2,0,.2.1h.2a.1.1,0,0,0,.1-.1h.1v-.2h-.4L263.1,251.7l121.7,60.6h.5Z" transform="translate(-162 -211.7)"/><path class="cls-9" d="M251.7,247.3l5.3,2.8h0l-5.4-2.7-.3.4,3.5,1.8h-.1l-3.4-1.8-2.4,3.8,59.4,30.9,56.5,29.2a.1.1,0,0,1,.1.1h.2a.1.1,0,0,0,.1-.1h.1a.1.1,0,0,0-.1-.1h-.1c0-.1-.1-.1-.2-.1h0L257.2,255.3h0l38.9,20.1h.2c0,.1,0,.1.1.1a.1.1,0,0,1,.1-.1h.1c0-.1,0-.1-.1-.2h-.2l-10.5-5.5L327.6,291h.4a.1.1,0,0,1,.1-.1h0l14.4,7.4h.5v-.2h0a.1.1,0,0,1-.1-.1h-.2l-22.4-11.5h.1l60.7,31.1h.6c0-.1,0-.1-.1-.1V317h-.3l-76.4-39.2h.1c.1,0,.1,0,.1-.1h-.3l-4.7-2.5h.1l6.5,3.3a.1.1,0,0,1,.1.1h.2a.1.1,0,0,1,.1-.1H307a.1.1,0,0,0-.1-.1l-17.7-9.1h0a.1.1,0,0,1-.1-.1l-29.5-15,9.9,5h.4l91.9,46.6h.5c.1-.1.1-.1,0-.2H362l-68.1-34.6h.1a.1.1,0,0,1-.1-.1h-.1l-17-8.6h.1l13.5,6.7h.4a.1.1,0,0,1,.1-.1h0a.1.1,0,0,0-.1-.1h-.2l-22.5-11.4h0l59.7,30h.3a.1.1,0,0,0,.1-.1h.1L252,246.8Z" transform="translate(-162 -211.7)"/><path class="cls-5" d="M245.8,256.5,272.7,271h.1L367,321.2h.5c.1-.1.1-.1,0-.2h-.2c0-.1-.1-.1-.1-.2h0L296.6,283h0a.1.1,0,0,1-.1-.1l-24.4-13H272l-12.3-6.6h.1l7.2,3.8h.4l41.1,21.8h.5c0-.1,0-.1-.1-.2h-.2l-40.4-21.4h0c.1,0,.1,0,.1-.1h-.2l-14.4-7.6h0l116.9,61.7h.4a.1.1,0,0,0,.1-.1h0c0-.1-.1-.1-.1-.2h-.2L285,274h.1l3.4,1.8a.1.1,0,0,1,.1.1h.2a.1.1,0,0,1,.1-.1h0c0-.1.1-.1,0-.1h0c0-.1,0-.1-.1-.1h-.1l-13.6-7.2,64,33.4a.1.1,0,0,0,.1.1h.3c0-.1,0-.1-.1-.2a.1.1,0,0,1-.1-.1l-62.7-32.8h.1l32.6,17h.5l44.8,23.3h.4a.1.1,0,0,0-.1-.1c0-.1-.1-.1-.2-.1l-61.3-32.1h0a497582161915.8,497582161915.8,0,0,0-.2-.2h0l-34.9-18.2,11,5.7h.4c-.1,0-.1,0-.1-.1h-.1l-3.1-1.6,41.9,21.6-59.4-30.9Z" transform="translate(-162 -211.7)"/><path class="cls-9" d="M304.3,295.9l22.8,12.5h.3c.1,0,.1,0,.1-.1h.1v-.2h0a.1.1,0,0,1-.1-.1h-.2l-64.5-35.6,69,37.8h.5c0-.1,0-.1-.1-.2a.1.1,0,0,0-.1-.1H332l-35.8-19.7h.1a.1.1,0,0,1-.1-.1H296l-52-28.6h.1l45.3,24.8h.5l14.1,7.7h.5c-.1-.1-.1-.1-.1-.2h-.2l-1.1-.7h.1l42.4,23.1h.5v-.2h-.3l-39.3-21.5h.1c0-.1,0-.1-.1-.1h-.1c0-.1,0-.1-.1-.1l-29.6-16.1,46.2,25h.4c.1,0,.1,0,.1-.1h0a.1.1,0,0,1-.1-.1h-.2l-.4-.3,51,27.6h.6c0-.1-.1-.1-.1-.2h-.3L244.8,258l-2.3,3.5Z" transform="translate(-162 -211.7)"/><path class="cls-9" d="M244.8,257.9l36.6,19.7h.3c.1,0,.1,0,.1-.1h0L348,313.1h.5v-.2h-.3l-97-52.2h0l56.6,30.3h0a.1.1,0,0,1,.1.1h.2a.1.1,0,0,0,.1-.1h.1c0-.1-.1-.1-.1-.2H308l-39.8-21.3h.1l4.1,2.2h.3l-26.9-14.5Z" transform="translate(-162 -211.7)"/><path class="cls-5" d="M240.2,265.1l14.1,8h.3L323,311.6h.5l48.9,27.6h.6v-.2h-.1c0-.1-.1-.1-.1-.2h-.2L266.4,278.7h.1l3.3,1.8h0a.1.1,0,0,0,.1.1h.2a.1.1,0,0,0,.1-.1h-.1a.1.1,0,0,0-.1-.1h0l-14.3-8h.1l1.5.8h.4l20.5,11.5h.2l-25.7-14.4h.1l44.4,24.7h.3l-29.3-16.3L325,308.8h.4c.1,0,.1,0,.1-.1h-.3l-27.6-15.4h-.1L248.1,265l2.6,1.4h.2l53.4,29.4-61.8-34.4Z" transform="translate(-162 -211.7)"/><path class="cls-5" d="M307.5,305.9h.1l46.7,26.7h.2a.1.1,0,1,0,.2,0c.1,0,.1,0,.1-.1h0a.1.1,0,0,0-.1-.1V332h-.1L250.2,272.4h.1l5.3,3h.4l2.3,1.3h.2l97.7,55.3h.5c.1,0,.1-.1,0-.1v-.2h-.3L240.1,265.3l-.9,1.3Z" transform="translate(-162 -211.7)"/><path class="cls-9" d="M209.7,249.7h-.1l-19.2-11h-.2l17.7,10.2h0l-24.5-14h-.1l-.6.7,20.9,12.1h0l-21-12-.3.3L216,256.2l-33.8-19.4h0l-.3.3,8.1,4.6-8.1-4.6-.3.4,11.9,6.9h-.1l-9.6-5.6h-.4a.1.1,0,0,1,.1.1l23.1,13.5h0l-25.4-14.8-.5.5,29.9,17.6h-.1l-12.8-7.5h0c0-.1,0-.1-.1-.1h-.2l-16.9-10h-.1L349.3,339.3h.1c-.1,0-.1-.1-.1-.2H349L228,267.2h0l20.5,12h.3c.1,0,.1,0,.1-.1l25.8,15.1h.4c0-.1,0-.1-.1-.1s0-.1-.1-.1l-10-5.9h.1l32,18.8h.5l2.3,1.4h.2l-16.2-9.6h.1v-.2h-.2l-28.4-16.6h0l17,9.8h.3c.1,0,.1,0,.1-.1h-.2l-23.9-13.9L276.2,292h.3c.1,0,.1,0,.1-.1h-.2L258.2,281l57.9,33.2a.1.1,0,0,0,.1.1h.4c0-.1,0-.1-.1-.1s0-.1-.1-.2a.1.1,0,0,1-.1-.1h0l-59.5-34.4h.2a.1.1,0,0,1-.1-.1h-.1l-3.6-2h.1l28.8,16.5h.4c0-.1,0-.1.1-.1L367.7,342c0,.1.1.1.2.1h.3c.1,0,.1-.1,0-.1v-.2H368c0-.1-.1-.1-.1-.2h0L236.4,265.9h.1l11.7,6.7h.4l58.5,33.3h.4l-68.3-39.3Z" transform="translate(-162 -211.7)"/><path class="cls-5" d="M180.2,239.2h.2l31.9,18.9h0L193,247.2h-.4l-12.7-7.5-.3.3,34.8,20.7h-.1l-34.8-20.6-.5.6,13,7.9h-.1a.1.1,0,0,0,.1.1h.1l20.3,12.2h0c0,.1,0,.1.1.1l13.9,8.4h-.1l-22.7-13.5h-.4l-24.9-14.9-.3.4,33,19.9h-.1L199.5,255h-.4l-13-7.8h-.3l20,12.1h-.1l-6.9-4.1h-.4l-21.2-12.8-.3.4,166.3,102h0c0-.1-.1-.1-.1-.2a.1.1,0,0,1-.1-.1h-.1L292.4,314h.1v-.2h-.1a.1.1,0,0,0-.1-.1L256.9,292l16.9,10.2h.5L302,319.1h.4c.1,0,.1,0,.1-.1h0a.1.1,0,0,0-.1-.1c0-.1-.1-.1-.1-.2h0l-50.7-30.7,54.1,32.6a.1.1,0,0,1,.1.1h.2a.1.1,0,0,0,.1-.1h.1l18.3,11.1h.5c0-.1-.1-.1-.1-.2h-.2L272.2,299h0c0-.1,0-.1-.1-.1h0L253,286.9h.1l15.4,9.2h.4c0-.1,0-.1.1-.1h0l8.7,5.2h.3a.1.1,0,0,0,.1-.1h0c0-.1,0-.1-.1-.1h-.1l-6.8-4.1,84.8,50.6h.5v-.2h0l-.2-.2h-.1l-60.6-36.2h.1a.1.1,0,0,0-.1-.1h-.1l-23.8-14.2,4.8,2.8h.4l22.6,13.4h.5L309,317h.4a.1.1,0,0,0,.1-.1h0l8.2,4.9h.4c.1,0,.1,0,.1-.1h0v-.2h-.2L275,295.8l73.8,43.5h.5L180.4,239Z" transform="translate(-162 -211.7)"/><path class="cls-9" d="M176.5,243.7l-.2.3,37.2,22.8h-.1l-29.3-18h-.7l-7.6-4.7v.2l-.2.2,31.1,19.2h-.1L183,249.8c0-.1,0-.1-.1-.1h-.2c-.1,0-.1,0,0,.1h.1l6,3.8h0l-13.9-8.6-.4.5-.2.3,5.6,3.5h0l-5.8-3.6H174l-.2.3,16.1,10.2-16.2-10.1-.4.5L308,333h0a.1.1,0,0,0-.1-.1h-.1l-38.2-24.1h0v-.2h-.1a.1.1,0,0,0-.1-.1h0l-21.9-13.8h.1l35.5,22.2h.4a.1.1,0,0,0,.1-.1c0-.1-.1-.1-.1-.2h-.1a.1.1,0,0,0-.1-.1l-28-17.6h.1a829303603253.5,829303603253.5,0,0,0-.2-.2h0L235,285.2h0l70.6,44.2h.2s.1.1.1,0h.2c0-.1-.1-.1-.1-.2h-.2L262,301.4h0V301h-.1l-35-21.9h.1l101.2,62.9h.5a.1.1,0,0,0,.1-.1h0c0-.1,0-.1-.1-.2a.1.1,0,0,0-.1-.1c0-.1-.1-.1-.1-.2l-43.6-27h0l19.8,12.3h.5v-.2H305a.1.1,0,0,0-.1-.1h0l-69.3-43h.1l6.2,3.9h.5l22.2,13.7h.3l-10.3-6.4h.1L273.5,305h.3a.1.1,0,0,0,.1-.1h.1l62.7,38.4h.5V343H337c0-.1-.1-.1-.1-.2l-18.1-11.1h.1v-.2h-.1a.1.1,0,0,0-.1-.1c0-.1-.1-.1-.1-.2l-51.1-31.3h.1l75.1,45.9h.2a.1.1,0,0,0,.1.1h.2l-166.3-102Z" transform="translate(-162 -211.7)"/><path class="cls-5" d="M173.2,247.7l6.2,3.9h0l-6.2-3.9-.5.6,4.2,2.7h-.1l-4.2-2.7h-.1l-.4.5,12.3,7.9h-.1l-12.4-7.8-.3.5h-.1l.9.6h-.1a.1.1,0,0,1,.1.1l2.3,1.5h0l9.8,6.3-11.3-7.2h-.3l-2-1.3-.3.3,29.3,19h-.5l-27.3-17.6h-.3a.1.1,0,0,1-.1.1h0l-1.5-1-.3.4,6.9,4.5h0a.1.1,0,0,1-.1.1h.1l9.2,5.9h-.1L169.7,252h-.1l101.3,66.5h-.2l-54.1-35.3h0l96,62.2h.5v-.2a.1.1,0,0,1-.1-.1c0-.1-.1-.1-.1-.2h-.2L257,308.1h.1l15.3,9.9h.3a.1.1,0,0,0,.1-.1h.1v-.2a497582161915.8,497582161915.8,0,0,0-.2-.2l-4.8-3.1,51,32.9h.4a.1.1,0,0,0,.1-.1h.1a.3.3,0,0,0-.1-.2.1.1,0,0,0-.1-.1h-.1l-85.5-55.2L305,337.3h.6a.1.1,0,0,0-.1-.1c0-.1,0-.1-.1-.2h-.1l-43.7-28.1h-.2l-30.8-19.8h-.1l-14.9-9.6h0l66.7,42.6h.5c0-.1-.1-.1-.1-.2h-.1l-41.8-26.7h.2c0-.1,0-.1-.1-.2h-.1l-14.1-9,110.4,70.1h.5c.1,0,.1,0,.1-.1h0c0-.1,0-.1-.1-.2h-.1c0-.1-.1-.1-.1-.2L276.7,315h.1a.1.1,0,0,0-.1-.1h-.2l-11-7h0c.1,0,.1,0,.1-.1h0V307h-.1l-34.2-21.6h.1l76.2,48.1h.6a.1.1,0,0,1-.1-.1L173.3,247.6Z" transform="translate(-162 -211.7)"/><path class="cls-9" d="M169,252.7l-.7,1,11.3,7.4h-.1a.1.1,0,0,0,.1.1h0L202,276.3h-.1l-34-22.3-.3.4-.3.3,22.5,15h0l-22.6-14.9-.3.4L187.5,269h-.1l-9.7-6.5h-.4a.1.1,0,0,0,.1.1l.8.6h-.1l-11.6-7.8-.2.2-.4.6,151.9,103h.2v-.2a.1.1,0,0,0-.1-.1V359h-.1l-7-4.7h0c.1-.1.1-.1.1-.2a.1.1,0,0,1-.1-.1c0-.1-.1-.1-.1-.2h-.2L200.9,279.8h0l110.9,74.3h.5v-.2a.1.1,0,0,1-.1-.1l-.2-.2-67.2-45h0c0-.1,0-.1-.1-.1h0l-.7-.5h0l74.1,49.4h.5v-.2h0c-.1-.1-.1-.1-.1-.2h-.2l-37.5-25.1h.1a.1.1,0,0,0,0-.2v-.2h-.1L252,311.5h0a.1.1,0,0,0-.1-.1h0L215,286.4h.1l4.4,2.9h.2a.1.1,0,0,1,.1-.1h.1l30.2,19.9h.4l18.8,12.3h.5V321h-.2l-12.4-8.2h.1l71.9,47.2h.6v-.2c0-.1-.1-.1-.1-.2h-.2l-12.9-8.5h.1v-.2a.1.1,0,0,0-.1-.1v-.2h-.1l-79.4-52.2h.1l77.2,50.5h.5v-.2h0c0-.1-.1-.1-.1-.2h-.2l-72.5-47.5h.1l28.5,18.6h.5L169.6,252Z" transform="translate(-162 -211.7)"/><path class="cls-5" d="M165.8,256.6h0l16.4,11.1h-.1c.1,0,.1,0,.1.1h.1l10.3,7h0a.1.1,0,0,0-.1.1h.2l7.3,4.9h-.1l-34.6-23.4-.8,1-.3.4,2.4,1.7h.1l12.8,8.9h.1l2.6,1.8h-.1l-18.3-12.6-.4.4h0l.7.5H164l-.7-.4-.5.6,24,16.6h0l-24-16.6-.3.4,10.4,7.2h0l-10.5-7.3-.4.5,110.2,77.3h.1v-.2h-.1l-.2-.2-23-16.1h0c0-.1-.1-.1-.1-.2h-.1l-32-22.3h.1l28.4,19.7h.5a.1.1,0,0,0-.1-.1v-.2h0l-39.8-27.6,45.8,31.6h.4c0-.1,0-.1.1-.1h0l11.9,8.2h.3c0-.1,0-.1.1-.1h.1l36,24.9h.6c0-.1-.1-.1-.1-.2h-.1a.1.1,0,0,0-.1-.1l-57.5-39.7h.1l4.6,3.3h.5l11.4,7.7h0a.1.1,0,0,0,.1.1h.3a.1.1,0,0,0,.1-.1h-.1v-.2h-.2l-12.8-8.8h.2a.1.1,0,0,0-.1-.1v-.2h-.1l-24.7-16.9,20.2,13.8h0a.1.1,0,0,1,.1.1h.4v-.2h-.2L207,287.3h.1l11.4,7.8h.4l94.2,63.9h.6c0-.1,0-.2-.1-.2s0-.1-.1-.2h-.1l-82.8-56.2h.1l74.6,50.4h.2a.1.1,0,0,0,.2,0h.1s.1-.1,0-.1V352h-.3l-38.3-26h.1l50.1,33.7h0a.1.1,0,0,1,.1.1h.3l-151.9-103Z" transform="translate(-162 -211.7)"/><path class="cls-10" d="M232.3,228H232c0,.1,0,.1.1.1L256.4,240l.3-.4Z" transform="translate(-162 -211.7)"/><path class="cls-10" d="M201.3,213.7l-.4.5,45.5,22h0l-45.6-21.9v.2h-.1l21,10.1.5.2.5.2.5.3.5.2.5.3.5.2.4.3.5.2,14,6.8h-.1l-13.1-6.3.4.3c.1.1.2.1.3.3l.4.3.4.3,24.7,12h.1l2.5,1.3,1.3-2Z" transform="translate(-162 -211.7)"/><path class="cls-10" d="M219.6,224.2h1l-9.3-4.5H211l7.7,3.8h.9Z" transform="translate(-162 -211.7)"/><path class="cls-10" d="M257.4,237.5h0l.5.2v-.2l-4.4-2.2-13-6.1h0L203,211.7l-.4.4,19,9.1h0l-19.1-9v.2h-.1l11.3,5.4h.1L248,234.6h.1l8.9,4.2.9-1.4Z" transform="translate(-162 -211.7)"/><path class="cls-10" d="M206.5,215.2h-.2l50.4,24.1.3-.5Z" transform="translate(-162 -211.7)"/><path class="cls-10" d="M214.2,223.6h.4l-15.2-7.4h-.1l-.2.2h0l14.6,7.2h.5Z" transform="translate(-162 -211.7)"/><polygon class="cls-10" points="66 22.9 66.3 23.9 67.8 24.6 68.5 24.1 66 22.9"/><path class="cls-10" d="M215.2,223.6h.4l-2.6-1.3h-.3l2.1,1h.4Z" transform="translate(-162 -211.7)"/><path class="cls-10" d="M255,242.2l-11.9-5.8h-.2l1.6.8h-.1l-14.8-7.2.3.4.3.4a.8.8,0,0,1,.2.4l.3.4,8,4h0l-8-3.9c.1.1.1.2.2.4l.2.3v.4c.1.1.1.2.2.4l-.3-.5c-.1-.1-.1-.3-.2-.4l-.3-.4-.3-.4-6.3-3.1h-.3l-6.6-3.2h-2.2l18.9,9.4h-.1l-19-9.4h-1.6l10.6,5.3h-.1L213,226.4h-.6l15.2,7.7.2-.8.3,1,2.4,1.2,1.2-.9-.4,1.3.3.2h-.1l-.3-.2-.2.8,1.5.8,2.4-.6-1.4,1.1,18.2,9.1.3-.5Z" transform="translate(-162 -211.7)"/><path class="cls-10" d="M210.3,224.3h.5L198,217.8l-.2.2-.2.3,12.2,6.1h.5Z" transform="translate(-162 -211.7)"/><path class="cls-10" d="M209,224.7h.3l-8.6-4.2h-.2l8.2,4.1h.2A.1.1,0,0,1,209,224.7Z" transform="translate(-162 -211.7)"/><path class="cls-10" d="M211.9,223.9h1l-14.1-6.9-.4.5,1.9.9h-.1l-1.9-1-.2.3,12.9,6.5h.9Z" transform="translate(-162 -211.7)"/><path class="cls-10" d="M229.3,230.7l-.6-.5-.5-.5-7.1-3.4h-1.4l5.4,2.7H225l-5.6-2.7h-1.2l12,5.9-.4-.6A1.2,1.2,0,0,1,229.3,230.7Z" transform="translate(-162 -211.7)"/><path class="cls-10" d="M212.3,226.7H212c0,.1-.1.1-.2.1h-.4l15.9,8,.3-.7Z" transform="translate(-162 -211.7)"/><path class="cls-10" d="M208.4,229h-.2c-.1,0-.1,0-.1.1l13.8,7.1-.9-1Z" transform="translate(-162 -211.7)"/><path class="cls-10" d="M208.2,225h.4l-7-3.6h-.2l.8.5h0l5.6,2.8h.4Z" transform="translate(-162 -211.7)"/><polygon class="cls-10" points="65.1 24 62.5 22.7 64.7 25.2 65.1 24"/><path class="cls-10" d="M222.3,236.9l-14.4-7.4h-.3l2.4,1.2h.1l13.4,6.9h.1Z" transform="translate(-162 -211.7)"/><path class="cls-10" d="M238.5,240.9h-.2l13,6.6.3-.4Z" transform="translate(-162 -211.7)"/><path class="cls-10" d="M205.3,226.9h.3L195,221.3l-.2.3v.2l10.4,5.3h.2Z" transform="translate(-162 -211.7)"/><polygon class="cls-10" points="73.8 28.4 71 27 69.8 27.9 73.8 28.4"/><path class="cls-10" d="M204.9,227.4h0a.1.1,0,0,0,.1-.1l-10.4-5.3h-.1l-.2.3,10.4,5.3h.2Z" transform="translate(-162 -211.7)"/><polygon class="cls-10" points="69.5 26.2 68.7 25.8 68.5 26.4 69.5 26.2"/><path class="cls-10" d="M204.3,227.9h.2l-10.4-5.4-.2.3,10.3,5.4h.1Z" transform="translate(-162 -211.7)"/><path class="cls-10" d="M206.5,226l.2-.2c.1,0,.2,0,.2-.1L196,220.2l-.3.3h-.1l9.8,5.1h.1l.7.3h.3Z" transform="translate(-162 -211.7)"/><path class="cls-10" d="M209,228.4h-.3v.2h-.1l12.3,6.3h-.1l2.8,1.5,1.4.7-.3-.9Z" transform="translate(-162 -211.7)"/><path class="cls-10" d="M210.6,227.4h-.3l-.2.2h-.3l-.2.2,5.2,2.7h.1l8.9,4.5h-.1a.1.1,0,0,0,.1.1h0l.8.4-.6-2.1Z" transform="translate(-162 -211.7)"/><polygon class="cls-10" points="67.2 25.1 66.5 24.7 66.7 25.5 67.2 25.1"/><polygon class="cls-10" points="66.6 32.4 66.6 32.4 66.6 32.4 66.6 32.4"/><path class="cls-10" d="M203.5,229.1h.1l-10.4-5.4-.2.3,10.4,5.5h.1Z" transform="translate(-162 -211.7)"/><path class="cls-10" d="M203.7,228.7h.1l-4.7-2.5h-.3l4.8,2.5h.1Z" transform="translate(-162 -211.7)"/><path class="cls-10" d="M223.2,241.3l-4.5-.6,2.4-.5-3.9-2h-.3l-10.8-5.6h0a.3.3,0,0,1-.1.2v.4l9.4,5h0l-9.4-5v.4h0v.2h.1l15.7,8.4,1.7-1.4Z" transform="translate(-162 -211.7)"/><path class="cls-10" d="M202.6,231.1v-.2h.1l-5.9-3.2h-.3l3.4,1.8h0l2.6,1.3h0C202.5,231.2,202.6,231.2,202.6,231.1Z" transform="translate(-162 -211.7)"/><path class="cls-10" d="M218.9,237.6l3.5.6-15.2-7.9v.4c-.1,0-.1.1-.1.2s-.1.1-.1.2l7.9,4.1h0l.8.4h-.1a.1.1,0,0,1,.1.1h0l7,3.6h.6Z" transform="translate(-162 -211.7)"/><path class="cls-10" d="M248.9,251.6l2.4-3.8-15-7.5-2.7.6,6.2,3.1h0l-6.3-3.2-1.2.2,4.4,2.3-4.9-.8.6.7,3.3,1.7-3.2-1.6,2.4,2.7-4.4-2.4v.5l12.9,6.8h0l-7.1-3.7H236l-5.2-2.7.2.7,11.2,5.9L231,245.4l.6,2.2-2.9-3.4h-.1l-1.1,3.5-1-3.9-1.1.9,1.2.7h0l-1.3-.6-1.8,1.5.7-2.1-1.6-.9-2.2.5,1.2-1L207,235.1h-.2l12.3,6.6h0l-13.3-7a1.3,1.3,0,0,0,.1.6,1.7,1.7,0,0,0,.1.7c0,.2.1.4.1.7s.1.4.2.6L231,251h0l-8.1-4.3H222l-1.3.2H217l2.3,1.3h-.1c-.1.1,0,.1,0,.1h.1l16.8,9.3h0a.1.1,0,0,1,.1.1l5.3,2.9h0l-.8-.4h0l-26-14.3-1.3-.3-1.3-.5-1.3-.5-1.2-.6-1.1-.7-1.1-.7-.9-.8-.9-.8L192.1,234h-.2l4.4,2.4h0l38.6,21.5h-.1l-1.3-.7h-.3l-46.9-26.1-.4.4v.2l13.4,7.5h.1l30.1,16.8h-.1l-18.9-10.6h-.3L185.4,233l-.5.5,11.7,6.7-11.7-6.6-.3.3L210,248.3h0l8.5,4.8-23.8-13.4h-.3l-10.2-5.7-.3.3,27.5,15.7h-.1l-1.3-.8h-.3l29.5,16.9.9-1.3-.9-.6h.1l.9.5,2.3-3.6,2.3-3.5-2.4-1.3h0l2.4,1.3,1-1.4Z" transform="translate(-162 -211.7)"/><polygon class="cls-10" points="60.7 31.6 62.2 32.4 62.7 31.1 60.7 31.6"/><path class="cls-10" d="M202.4,231.7h.1l-11.1-5.8h-.1v.2l11.2,5.9h0Z" transform="translate(-162 -211.7)"/><path class="cls-10" d="M202.2,234.3v-1.2l-11.7-6.3-.3.3,4.4,2.4h-.1l-4.3-2.3-.3.3-.7.8,13.2,7.2a1.3,1.3,0,0,1-.1-.6C202.3,234.7,202.2,234.5,202.2,234.3Z" transform="translate(-162 -211.7)"/><path class="cls-10" d="M202.8,236.9a6181264102443.5,6181264102443.5,0,0,1-.2-.6h-.2l-13.7-7.4-.4.5h0l14.7,8.1c0-.1-.1-.2-.1-.3Z" transform="translate(-162 -211.7)"/><path class="cls-10" d="M203.6,238.7l-.3-.5c-.1-.2-.1-.4-.2-.6l-14.9-8h0l-.7.9,16.8,9.2-.4-.5Z" transform="translate(-162 -211.7)"/><path class="cls-10" d="M218.2,246.4l1.9.2h1.8l-15.3-8.2.2.4.2.4.2.3.3.4h0l.7.9.7.9.9.8a3.9,3.9,0,0,0,1,.8l3.7,2.1,1.8.6Z" transform="translate(-162 -211.7)"/><path class="cls-11" d="M224.6,226.1l-.5-.2-.5-.3-.5-.2-.5-.3-.5-.2-.5-.2,3.9,1.9-.5-.2Z" transform="translate(-162 -211.7)"/><path class="cls-11" d="M227,227.8c-.1-.2-.2-.2-.3-.3l-.4-.3-5.7-2.8h-1.9l9.1,4.4-.4-.3Z" transform="translate(-162 -211.7)"/><path class="cls-11" d="M218.8,225.9h.6l-4.8-2.4h-.9l4.5,2.2h.6Z" transform="translate(-162 -211.7)"/><path class="cls-11" d="M220.4,226.1h.7l-5.5-2.7h-.8l4.9,2.4h.7Z" transform="translate(-162 -211.7)"/><path class="cls-11" d="M213.9,226.2h.8l-3.9-1.9h-1l1.7.8h0l1.6.8h.8Z" transform="translate(-162 -211.7)"/><path class="cls-11" d="M212.7,226.5h.3l-3.7-1.8H209a.1.1,0,0,0-.1.1h-.2l3.7,1.8h.3Z" transform="translate(-162 -211.7)"/><path class="cls-11" d="M230.2,231.2l-.3-.4-.3-.4-1.4-.7.5.5.6.5a1.2,1.2,0,0,0,.5.5l.4.6.5.2-.3-.4A.8.8,0,0,0,230.2,231.2Z" transform="translate(-162 -211.7)"/><path class="cls-11" d="M230.9,232.7c.1.1.1.3.2.4l.3.5c-.1-.2-.1-.3-.2-.4v-.4l-.2-.3c-.1-.2-.1-.3-.2-.4l-.4-.2.3.4Z" transform="translate(-162 -211.7)"/><path class="cls-11" d="M216,225.9h1.1l-4.2-2.1H211l3.9,1.9H216Z" transform="translate(-162 -211.7)"/><path class="cls-11" d="M208.7,228.6h.3l-3.4-1.7h-.5l3.4,1.8h.1Z" transform="translate(-162 -211.7)"/><path class="cls-11" d="M208.2,229.1h.2l-3.4-1.8a.1.1,0,0,1-.1.1h-.2l3.4,1.8c0-.1,0-.1.1-.1Z" transform="translate(-162 -211.7)"/><path class="cls-11" d="M207.7,229.7h.2l-3.4-1.7h-.3l3.4,1.8h.1Z" transform="translate(-162 -211.7)"/><path class="cls-11" d="M210.1,227.7l.2-.2h-.2l-3.2-1.6c0,.1-.1.1-.2.1l-.2.2h-.3l3.4,1.8.2-.2Z" transform="translate(-162 -211.7)"/><path class="cls-11" d="M211.8,226.8c.1,0,.2,0,.2-.1h.3l-3.7-1.8h-.8l3.6,1.8h.4Z" transform="translate(-162 -211.7)"/><path class="cls-11" d="M207,230.7v-.4l-3.4-1.7h-.2l3.2,1.6-3.2-1.6h-.2l3.4,1.8c0-.1,0-.2.1-.2S206.9,230.7,207,230.7Z" transform="translate(-162 -211.7)"/><path class="cls-11" d="M206,232.9a.3.3,0,0,0,.1-.2h0l-3.4-1.8h-.1v.2c0,.1-.1.1-.1.2h0l3.5,1.9v-.4Z" transform="translate(-162 -211.7)"/><path class="cls-11" d="M205.9,233.7v-.4l-3.5-1.8h0l3.4,1.8v-.2Z" transform="translate(-162 -211.7)"/><path class="cls-11" d="M219.5,246.9h1.2l1.3-.2h-1.9l-1.9-.2-1.9-.4-1.8-.6,2.5,1.3h2.5Z" transform="translate(-162 -211.7)"/><path class="cls-11" d="M207,239.2l-.2-.4-.2-.4-3.8-2.1h-.2a6181264102443.5,6181264102443.5,0,0,0,.2.6v.3c0,.1.1.2.1.3l4.5,2.4-.3-.4Z" transform="translate(-162 -211.7)"/><path class="cls-11" d="M206,236.3a1.7,1.7,0,0,1-.1-.7,1.3,1.3,0,0,1-.1-.6l-3.6-1.9v1.2c0,.2.1.4.1.6a1.3,1.3,0,0,0,.1.6l3.9,2.1c-.1-.2-.1-.4-.2-.6S206,236.5,206,236.3Z" transform="translate(-162 -211.7)"/><path class="cls-11" d="M208.9,241.7l-.7-.9-.7-.9h-.1l-4.3-2.4c.1.2.1.4.2.6l.3.5.3.5.4.5,6.5,3.6a3.9,3.9,0,0,1-1-.8Z" transform="translate(-162 -211.7)"/><path class="cls-11" d="M207.4,243l1.1.7,1.1.7,1.2.6,1.3.5,1.3.5,1.3.3-9.1-4.9.9.8Z" transform="translate(-162 -211.7)"/><polygon class="cls-11" points="65.5 22.6 65.3 23.4 66.3 23.9 66 22.9 65.5 22.6"/><polygon class="cls-11" points="68.5 24.1 69.2 24.4 69.7 23.1 68.5 24.1"/><polygon class="cls-11" points="65.5 22.6 66 22.8 65.8 21.9 65.5 22.6"/><polygon class="cls-11" points="70.5 26 71.5 26.5 72.9 25.4 70.5 26"/><polygon class="cls-11" points="68.5 24.1 67.8 24.6 69 25.2 69.2 24.5 68.5 24.1"/><path class="cls-11" d="M236.7,243.4l-4.4-2.3,1.2-.2-8.9-4.5.3.9,3,1.6h0l-6.9-3.5.9,1,3.4,1.8h0l-3-1.5,1.3,1.4h-.1l7.5,3.9h0l1.4.7-.6-.7Z" transform="translate(-162 -211.7)"/><polygon class="cls-11" points="58.8 23.5 61.4 24.9 58.7 23.5 58.8 23.5"/><polygon class="cls-11" points="73.8 28.4 69.8 27.9 71 27 69.5 26.2 68.5 26.4 68.7 25.8 67.2 25.1 66.7 25.5 66.5 24.7 65.1 24 64.7 25.2 62.5 22.7 62 22.5 62.6 24.5 71.6 29.2 74.3 28.6 73.8 28.4"/><polygon class="cls-11" points="61.2 29.7 59 28.5 56.7 29 61.2 29.7"/><polygon class="cls-11" points="72.9 34.4 70.4 31.7 60.4 26.5 56.9 25.9 61.1 28.1 60.4 28.2 68.6 32.5 68.5 32 72.9 34.4"/><path class="cls-11" d="M225,241.8c0-.1,0-.1-.1-.1h-.1l3.8,2h0l2.4,1.3-.2-.7Z" transform="translate(-162 -211.7)"/><polygon class="cls-11" points="68.9 33.7 66.7 32.5 69.6 35.9 68.9 33.7"/><polygon class="cls-11" points="65.5 36 66.6 32.5 61.4 29.8 59.7 31.1 60.7 31.6 62.7 31.1 62.2 32.4 63.4 33 64.5 32.1 65.5 36"/><polygon class="cls-11" points="63.3 33.1 62.2 32.5 61.4 34.6 63.3 33.1"/><polygon class="cls-11" points="60.5 31.6 59.6 31.1 58.3 32.1 60.5 31.6"/></g></g></g><image class="cls-12" width="578" height="502" transform="translate(27.1 19.7) scale(0.24)" xlink:href="medical_yellow1.png"/><path class="cls-13" d="M212,275.1h89.2l.5.2v-2.4a4.6,4.6,0,0,0-4.7-4.3H280V254.4H231.4v14.2H216a4.6,4.6,0,0,0-4.7,4.3v49.4a4.7,4.7,0,0,0,4.7,4.4h81a4.7,4.7,0,0,0,4.7-4.4V279.6a1.2,1.2,0,0,1-1.1.5h-88s-1.1,0-1.1-.6v-3.9A.5.5,0,0,1,212,275.1Zm24.9-16.2h37.7v8.4H236.9Zm-1.6,38.6a2.3,2.3,0,0,1,2.4-2.1h8.4a1,1,0,0,0,1.1-1v-7.9a2.2,2.2,0,0,1,2.3-2h14a2.2,2.2,0,0,1,2.4,2v7.8s.1,1.1,1.1,1.1h8.4a2.2,2.2,0,0,1,2.3,2.1v13.1a2.2,2.2,0,0,1-2.3,2.2h-8.3s-1.2.2-1.2,1.1v7.6a2.2,2.2,0,0,1-2.4,2.2h-14a2.2,2.2,0,0,1-2.3-2.2v-7.8c0-1-1.3-.9-1.3-.9h-8.2a2.3,2.3,0,0,1-2.4-2.2Z" transform="translate(-162 -211.7)"/></g></g></svg>