<svg xmlns="http://www.w3.org/2000/svg" xmlns:xlink="http://www.w3.org/1999/xlink" viewBox="0 0 223.3 157"><defs><style>.cls-1{fill:none;}.cls-2{isolation:isolate;}.cls-12,.cls-3{fill:#e82327;}.cls-4{fill:#fff;}.cls-5{fill:#1e439b;}.cls-6{opacity:0.29;}.cls-7{clip-path:url(#clip-path);}.cls-8{clip-path:url(#clip-path-2);}.cls-9{fill:#272870;}.cls-10{fill:#fbca0c;}.cls-11{opacity:0.75;mix-blend-mode:multiply;}.cls-12{fill-rule:evenodd;}</style><clipPath id="clip-path" transform="translate(-106.6 -224.6)"><path class="cls-1" d="M274.2,303.9a75.6,75.6,0,0,1-142.9,34.5h0a75.6,75.6,0,0,1,67.3-110.1,75.6,75.6,0,0,1,75.6,75.6Z"/></clipPath><clipPath id="clip-path-2" transform="translate(-106.6 -224.6)"><rect class="cls-1" x="114.7" y="262.4" width="213.7" height="142.49" transform="translate(137.3 -57.9) rotate(21.4)"/></clipPath></defs><title>medical_red</title><g class="cls-2"><g id="Layer_1" data-name="Layer 1"><path class="cls-3" d="M277.3,303.9a77.7,77.7,0,0,1-146.9,35.4h0a77.7,77.7,0,1,1,146.9-35.4Z" transform="translate(-106.6 -224.6)"/><path class="cls-4" d="M275.2,303.9a75.6,75.6,0,0,1-142.9,34.5h0a75.6,75.6,0,0,1,67.3-110.1,75.6,75.6,0,0,1,75.6,75.6Z" transform="translate(-106.6 -224.6)"/><path class="cls-5" d="M199.6,303.9" transform="translate(-106.6 -224.6)"/><g class="cls-6"><g class="cls-7"><g class="cls-8"><path class="cls-3" d="M215.5,256.6h.3l-13.2-6.2v.2Z" transform="translate(-106.6 -224.6)"/><path class="cls-3" d="M274.8,291.7h-.3l-2.1-1,28,13.5h.3a.1.1,0,0,0,.1-.1h0c.1-.1.1-.1,0-.1v-.2a.1.1,0,0,1-.1-.1h-.2l-92.7-45,56.4,27.2h.4a.1.1,0,0,1-.1-.1h-.1l-57.5-27.8h0l47.3,22.8h.5c0-.1,0-.1-.1-.1h-.2L213.7,260h.1L305,303.8h.4c.1,0,.1,0,.1-.1h0a497582161915.8,497582161915.8,0,0,1-.2-.2h-.1l-26.9-12.9h-.2l-23.2-11.2h0l62.2,29.7h.5c.1,0,.1-.1,0-.1h0c-.1-.1-.1-.1-.1-.2h-.2l-46.7-22.3h0c0-.1,0-.1.1-.1h-.1l23.1,11h.3a.1.1,0,0,0,.1-.1h.1c0-.1,0-.1-.1-.1V296h-.1l-45-21.4,25.4,12a.1.1,0,0,1,.1.1h.3L318,307h.2a.1.1,0,0,0,.1.1h.1c.1,0,.1,0,.1-.1h0a.1.1,0,0,0-.1-.1h-.1a.1.1,0,0,0-.1-.1l-52.8-25.1h.2l2.2,1.1h.5l52.3,24.8h.4c.1,0,.1,0,.1-.1H321c0-.1,0-.1-.1-.1h-.2l-118.2-56-1,1.5,1.5.7-1.5-.7-.3.4,1.2.6-1.2-.6-.2.4,2.9,1.4h0l-3-1.4-1.2,1.9,12.7,6.2h0l62.4,30.5Z" transform="translate(-106.6 -224.6)"/><path class="cls-4" d="M329.9,325.1h-.1c0-.1-.1-.1-.1-.2h-.2L216.1,268.1h.1l46.1,22.9h.2a.1.1,0,1,0,.2,0h.1l63.3,31.4h.5v-.2a.1.1,0,0,0-.1-.1h-.3l-8.8-4.4h.2c-.1-.1-.1-.1-.1-.2h-.3l-69.4-34.5h0c-.1,0-.1,0-.1-.1s-.1,0-.1-.1l-27.9-13.7h.1l26.9,13.3h.2l-4.3-2.2h.1l10.4,5.1h.2l70.1,34.4h.5c0-.1,0-.1.1-.1v-.2h-.3l-69.9-34.3h.1l3.7,1.9h.5a497582161916,497582161916,0,0,1-.2-.2h-.1l-6.2-3h.2l44.6,21.7h.4a.1.1,0,0,0-.1-.1h-.1l-21.7-10.6h0l-62.4-30.5h.1l-12.9-6.3-3,4.6,76.3,38.5h-.1a.1.1,0,0,1-.1-.1h-.1l-35.7-18h0l85.7,42.9h.5v-.2a.1.1,0,0,0-.1-.1h-.1L207.7,264.6l121.6,60.7h.5a.1.1,0,0,0,.1-.1h0Z" transform="translate(-106.6 -224.6)"/><path class="cls-3" d="M196.2,260.3l5.4,2.7h0l-5.4-2.7-.3.5,3.4,1.7h0l-3.4-1.7-2.4,3.7,59.4,31,56.4,29.1h.5v-.2h-.3L201.7,268.3h0l39,20.1h.4a2487910809238.7,2487910809238.7,0,0,1-.2-.2l-10.5-5.4,41.7,21.4h.2a.1.1,0,0,0,.2,0h.1l14.5,7.4a.1.1,0,0,0,.1.1h.3a.1.1,0,0,1,.1-.1h0a.1.1,0,0,0-.1-.1c0-.1,0-.1-.1-.2a.1.1,0,0,1-.1-.1l-22.5-11.5h.2l60.6,31.2h.5c.1,0,.1,0,.1-.1h0a.1.1,0,0,0-.1-.1c0-.1-.1-.1-.1-.2h-.2l-76.3-39.1h0a.1.1,0,0,1,.1-.1h0a.1.1,0,0,0-.1-.1h-.1l-4.7-2.4h.1l6.4,3.2h.2l-17.7-9h.1a.1.1,0,0,1-.1-.1h-.1l-29.4-15,9.9,5h.3l92,46.6h.5c0-.1,0-.1-.1-.2a.1.1,0,0,1-.1-.1h-.2l-68.1-34.5h.1c0-.1,0-.1-.1-.1h-.1l-17-8.6h.1l13.6,6.8h.2l-22.6-11.4h0l59.8,29.9h.5l-76.3-38.5Z" transform="translate(-106.6 -224.6)"/><path class="cls-4" d="M190.3,269.4l27,14.5h0l94.2,50.2h.6c0-.1-.1-.1-.1-.2h-.3l-70.5-37.7h-.1a.1.1,0,0,1-.1-.1l-24.4-13h.2a.1.1,0,0,0-.1-.1h0a.1.1,0,0,1-.1-.1l-12.3-6.5h0l7.2,3.8h0a.1.1,0,0,1,.1.1h.2a.1.1,0,0,0,.1-.1L253.1,301a.1.1,0,0,0,.1.1h.3a.1.1,0,0,0-.1-.1h-.1l-40.5-21.5h-.1l-14.4-7.6h0l117,61.7h.5v-.2h-.3l-85.9-45.4h0l3.4,1.7h.4a.1.1,0,0,1-.1-.1h0l-13.6-7.1,63.9,33.4h.2a.1.1,0,1,0,.2,0c.1,0,.1,0,.1-.1h-.3l-62.7-32.9h.1l32.7,17.1h.4l44.8,23.3h.5V321h-.3l-61.4-32.1h0a.1.1,0,0,0-.1-.1h-.1l-34.8-18.2,10.9,5.7h.4c0-.1,0-.1-.1-.1a.1.1,0,0,0-.1-.1l-3.1-1.6,42,21.7-59.4-31Z" transform="translate(-106.6 -224.6)"/><path class="cls-3" d="M248.9,308.8l22.7,12.5h.5c.1-.1.1-.1,0-.1V321a.1.1,0,0,1-.1-.1h-.2l-64.4-35.6L276.3,323h.5c0-.1-.1-.1-.1-.2h-.2l-35.8-19.7h.1a.1.1,0,0,1-.1-.1h-.1l-52-28.6h0L234,298.5a.1.1,0,0,0,.1.1h.3l14.2,7.7h.2l-1.1-.6h0L290.2,328h.4a.1.1,0,0,1,.1-.1h0c0-.1-.1-.1-.1-.2h-.3l-39.2-21.4h0a.1.1,0,0,1-.1-.1h-.2l-29.5-16.1,46.1,25h0c.1,0,.2,0,.2.1h.3c0-.1.1-.1,0-.2h-.2l-.5-.2,51.1,27.6h.3a.1.1,0,0,0,.1-.1h.1V341h-.3L189.3,270.9l-2.2,3.5Z" transform="translate(-106.6 -224.6)"/><path class="cls-3" d="M189.4,270.8l36.5,19.7h0c.1,0,.1,0,.1.1h.3l66.2,35.6h.5c0-.1-.1-.1-.1-.2h-.2l-97-52.2h0l56.6,30.3h.2l-39.7-21.4h.1l4.1,2.2h.3l-27-14.5Z" transform="translate(-106.6 -224.6)"/><path class="cls-4" d="M184.7,278.1l14.2,8h.3l68.3,38.4h.4a.1.1,0,0,0,.1-.1h0L316.9,352h.5a.1.1,0,0,0,.1-.1v-.2a.1.1,0,0,0-.1-.1c0-.1-.1-.1-.1-.2h-.2L211,291.6h0l3.3,1.9h.4c-.1,0-.1,0-.1-.1h0l-14.3-8h0l1.6.9h.3l20.6,11.4h.1a.1.1,0,0,0,.2,0h.1v-.2H223l-25.8-14.5h.1l44.5,24.8h.4s.1,0,0-.1h0a.1.1,0,0,0-.1-.1H242l-29.2-16.3,56.8,31.4h.4c.1-.1.1-.1.1-.2a.1.1,0,0,1-.1-.1h-.2l-27.7-15.4h.1s.1,0,0-.1h0a.1.1,0,0,0-.1-.1H242L192.7,278l2.6,1.3h.1l53.5,29.4-61.8-34.4Z" transform="translate(-106.6 -224.6)"/><path class="cls-4" d="M252.1,318.8h0l46.7,26.6h.5c0-.1,0-.1.1-.1v-.2h-.1c0-.1-.1-.1-.1-.2H299L194.7,285.3h.1l5.3,3h0a.1.1,0,0,1,.1.1h.1a.1.1,0,0,0,.1-.1h.1l2.3,1.3h.3l97.6,55.3c.1,0,.2,0,.2.1h.2a.1.1,0,0,0,.1-.1h.1v-.2a.1.1,0,0,0-.1-.1c0-.1-.1-.1-.1-.2h-.2L184.6,278.2l-.9,1.4Z" transform="translate(-106.6 -224.6)"/><path class="cls-3" d="M154.3,262.6h-.1L135,251.8a.1.1,0,0,1-.1-.1h-.1c-.1,0-.1,0-.1.1h0l17.8,10.2h0l-24.6-14h0l-.7.8,21,12.1h-.1l-21-12-.3.3,33.7,19.5-33.8-19.3h0l-.2.3,8,4.7-8-4.7-.4.4,11.9,6.9h0l-9.7-5.6H128l23.2,13.6h-.1L125.7,251l-.5.6,29.9,17.6h0l-12.8-7.5H142l-16.9-9.9h0l-.2.2,169,100.2h0V352a.1.1,0,0,0-.1-.1v-.2h-.2l-121-71.5h0l20.6,12.1h.3l25.8,15.1h.4a.1.1,0,0,1,.1-.1h0a.1.1,0,0,1-.1-.1h-.1l-10.1-5.9h.1l32.1,18.7a.1.1,0,0,0,.1.1h.3c0-.1,0-.1.1-.1h0l2.2,1.3h.5v-.2h-.2l-16.3-9.5h0c.1,0,.1,0,.1-.1h0c0-.1,0-.1-.1-.2h-.1l-28.4-16.6h.1l16.9,9.8a.1.1,0,0,1,.1.1h.4a.1.1,0,0,0-.1-.1V303H217l-23.9-14,27.6,15.9a.1.1,0,0,1,.1.1h.4c0-.1,0-.1-.1-.1v-.2h-.2l-18.2-10.6,57.9,33.3h.2a.1.1,0,0,0,.2,0h-.2l-59.5-34.5h.2a.1.1,0,0,0-.1-.1h-.1l-3.5-2.1h0l28.9,16.5h.4L312.2,355c.1,0,.2,0,.2.1h.2a.1.1,0,0,0,.1-.1h.1v-.2h-.1c0-.1-.1-.1-.1-.2h-.2L180.9,278.9h.1l11.8,6.6h.3l58.6,33.4h.4l-68.4-39.2Z" transform="translate(-106.6 -224.6)"/><path class="cls-4" d="M124.8,252.1h.2l31.9,18.9h-.1l-19.3-11.3h-.3l-12.8-7.5-.3.3,34.8,20.7h0L124.1,253l-.6.7,13.1,7.8h0l20.3,12.2h.1l13.9,8.4h0l-22.8-13.6h-.3l-25-14.9-.2.3,33,19.9h-.1L144,268a.1.1,0,0,0-.1-.1h-.2c0,.1,0,.1-.1.1h0l-13-7.8h-.1a.1.1,0,0,0-.1.1h-.1a.1.1,0,0,0,.1.1h0l19.9,12.1h-.1l-6.9-4.2H143l-21.2-12.8-.4.4,166.4,102h-.4L237,327h0c-.1-.1-.1-.1-.1-.2s-.1,0-.1-.1l-35.3-21.5,16.9,10.3h.1a.1.1,0,0,0,.2,0h.1L246.6,332h.5v-.2a.1.1,0,0,1-.1-.1h-.1a.1.1,0,0,0-.1-.1h0l-50.6-30.8,54,32.6h.5l18.4,11.1h.4a.1.1,0,0,1,.1-.1V344h-.2c0-.1-.1-.1-.1-.2l-52.5-31.7h0a.1.1,0,0,1-.1-.1h0l-19.2-11.5h.1l15.5,9.3h.3a.1.1,0,0,0,.1-.1h0l8.7,5.2h.3a.1.1,0,0,1,.1-.1h-.2l-6.7-4L300.4,360h.5a.1.1,0,0,1,.1-.1v-.2h-.1c0-.1-.1-.1-.1-.2h-.2l-60.5-36.2h0c.1,0,.1,0,.1-.1a.1.1,0,0,1-.1-.1H240c0-.1,0-.1-.1-.1h0l-23.8-14.2,4.8,2.9h.5L244,324.7a.1.1,0,0,0,.1.1h.3l9.1,5.3h.5l8.2,4.9h.5c0-.1.1-.1,0-.2h-.1c0-.1-.1-.1-.2-.1l-42.9-25.5,73.8,43.5h.5a.1.1,0,0,1,.1-.1L124.9,252Z" transform="translate(-106.6 -224.6)"/><path class="cls-3" d="M121.1,256.6l-.3.3,37.3,22.8H158l-29.4-18H128l-7.6-4.7v.2l-.2.2,31,19.2H151l-23.4-14.4h-.3l6.1,3.8h-.1l-13.8-8.6-.5.6-.2.2,5.7,3.6h-.1c-.1,0-.1.1,0,.1h0l-5.8-3.6h0l-.3.4,16.2,10.1L118.3,260l-.5.5L252.6,346a.1.1,0,0,0-.1-.1h-.1a.1.1,0,0,0-.1-.1l-38.1-24.1h0c-.1-.1-.1-.1-.1-.2H214l-22-13.8h.1l35.5,22.3h.4a.1.1,0,0,0,.1-.1h0c-.1-.1-.1-.1-.1-.2s-.1,0-.1-.1l-28.1-17.6h.1a.1.1,0,0,1,.1-.1c0-.1-.1-.1-.1-.2h-.1l-20.3-12.6h0l70.6,44.1h.6v-.2h-.1c0-.1,0-.1-.1-.1s-.1-.1-.1-.2h0l-43.9-27.4h.1a.1.1,0,0,1-.1-.1.1.1,0,0,0-.1-.1l-35-21.9h.1l101.2,62.9h.3c.1,0,.1,0,.1-.1h.1c-.1-.1-.1-.1-.1-.2h-.2l-43.5-27.1h0l19.8,12.2a.1.1,0,0,0,.1.1h.4c0-.1,0-.1-.1-.2a2487910809932,2487910809932,0,0,0-.2-.2h0l-69.2-43h0l6.3,3.8h.4l22.3,13.7h.4a.1.1,0,0,1,.1-.1c0-.1-.1-.1-.1-.2h-.2l-10.3-6.3h.1l18.9,11.5h0a.1.1,0,0,0,.1.1h.3l62.7,38.4h.6c-.1-.1-.1-.1-.1-.2h-.3l-18-11.1h0v-.2h-.3l-51-31.3h.1l75,45.8h.5a.1.1,0,0,1,.1-.1h0l-166.4-102Z" transform="translate(-106.6 -224.6)"/><path class="cls-4" d="M117.7,260.6l6.2,3.9h0l-6.2-3.9-.5.5,4.3,2.7h0a.1.1,0,0,1-.1.1h0l-4.3-2.6h0l-.5.5,12.3,7.8h-.1l-12.3-7.8-.4.5H116l1,.6h-.1c-.1,0-.1,0,0,.1h.1l2.3,1.5h-.1c0,.1,0,.1-.1.1h0a.1.1,0,0,1,.1.1h0l9.9,6.4-11.3-7.3h-.4l-2-1.3-.3.4,29.3,18.9H144a.1.1,0,0,1-.1.1l-27.3-17.6h-.3l-1.6-.9-.3.3,7,4.5h0l9.1,5.9h0l-16.3-10.5h-.1l101.4,66.4h-.2a.1.1,0,0,0-.1-.1l-54.1-35.3h0l96.1,62.2a.1.1,0,0,0,.1.1h.4c0-.1,0-.1-.1-.2a.1.1,0,0,0-.1-.1c0-.1-.1-.1-.1-.2l-55.8-36.2h0l15.3,9.9h.5c0-.1,0-.1-.1-.2h-.1l-4.7-3,51,32.8h.5v-.2h0v-.2h-.2l-85.5-55.2,71.4,45.9h.5V350H250l-.2-.2-43.7-28.1h0v-.2h-.2l-30.7-19.7h0V301h-.1l-15-9.6h.1l66.7,42.5h.4v-.2h-.1a.1.1,0,0,0-.1-.1h-.1l-41.7-26.7h.1a.1.1,0,0,0-.1-.1h-.1l-14-9,110.4,70.1h.5c.1-.1.1-.1,0-.2h0c0-.1-.1-.1-.1-.2h-.2L221.2,328h.1v-.2h-.2l-11-7h0a.1.1,0,0,0-.1-.1l-34.3-21.7h.1l76.3,48.2h.4c.1,0,.1,0,.1-.1h0L117.8,260.5Z" transform="translate(-106.6 -224.6)"/><path class="cls-3" d="M113.6,265.7l-.8.9,11.3,7.5h0l22.5,14.9h-.1l-34-22.3-.4.4-.3.4,22.6,15h-.1l-22.5-15-.3.4L132,282h-.1l-9.7-6.4a.1.1,0,0,0-.1-.1h-.2l.9.6h-.1L111,268.7v.2l-.5.6,152,103h.1v-.2a.1.1,0,0,1-.1-.1l-.2-.2-6.9-4.7h0c0-.1,0-.1-.1-.2a.1.1,0,0,0-.1-.1c0-.1-.1-.1-.1-.2L145.4,292.8h.1l110.8,74.4h.5c.1-.1.1-.1.1-.2h-.1c0-.1-.1-.1-.1-.2h-.2l-67.1-45.1h0a.1.1,0,0,0,.1-.1h-.1a.1.1,0,0,1-.1-.1h0l-.8-.5h0l74.1,49.4h.5a.1.1,0,0,0,.1-.1c-.1-.1-.1-.1-.1-.2s-.1-.1-.1-.2h-.2l-37.5-25h.2v-.2h-.2l-28.7-19.1h.1a.1.1,0,0,0-.1-.1.1.1,0,0,0-.1-.1h0l-36.8-24.5h.1l4.3,2.8h.4L194.6,322h.4a.1.1,0,0,1,.1-.1h0l18.7,12.3h.4a.1.1,0,0,0,.1-.1h0c0-.1-.1-.1-.1-.2a.1.1,0,0,1-.1-.1l-12.4-8.2h.1l71.8,47.3h.6v-.2H274c0-.1-.1-.1-.1-.2h0L261,363.6h0v-.2a.1.1,0,0,1-.1-.1l-.2-.2-79.4-52.2h.1l77.2,50.5h.5a.1.1,0,0,1,.1-.1V361a.1.1,0,0,0-.1-.1v-.2h-.1l-72.6-47.5h.1L215,331.5a.1.1,0,0,0,.1.1h.4L114.1,265Z" transform="translate(-106.6 -224.6)"/><path class="cls-4" d="M110.4,269.5h-.1l16.4,11.1h0a.1.1,0,0,1,.1.1l10.4,7h0l7.3,5h0l-34.6-23.3-.8.9-.4.5,2.5,1.7h-.1a.1.1,0,0,1,.1.1l12.9,8.8h0l2.6,1.8h0L108.3,272l-.3.4h0l.6.5h-.1l-.6-.5-.5.7,23.9,16.6h0l-24-16.6-.3.4,10.5,7.3h-.1L107,273.7l-.4.4,110.2,77.3h0v-.2h-.1a.1.1,0,0,0-.1-.1l-23.1-16.1h0a.1.1,0,0,0-.1-.1h-.1L161.4,312h0l28.5,19.8h.1a.1.1,0,1,0,.2,0h.1c.1,0,0-.1,0-.1h-.2l-39.8-27.7,45.8,31.6h.5l11.9,8.2h.5L245.1,368h.4a.1.1,0,0,1,.1-.1v-.2h0c-.1-.1-.1-.1-.1-.2h-.2l-57.5-39.7h.1l4.7,3.2h.5l11.3,7.8h.4a.1.1,0,0,0,.1-.1h-.1c0-.1-.1-.1-.1-.2l-12.9-8.8h.2a.1.1,0,0,0-.1-.1h-.1l-24.7-16.9,20.2,13.7h.5V325h-.1l-36.1-24.6h0c0-.1,0-.1.1-.1h0l11.5,7.7h.3l94.3,64h.3a.1.1,0,0,0,.1-.1h.1v-.2a.1.1,0,0,1-.1-.1l-.2-.2L175.2,315h0a.1.1,0,0,0,.1-.1h0l74.5,50.4h.6v-.2a.1.1,0,0,0-.1-.1c0-.1,0-.1-.1-.2h-.1l-38.3-25.9h0L262,372.4h0c0,.1,0,.1.1.1h.3l-152-103Z" transform="translate(-106.6 -224.6)"/><path class="cls-9" d="M176.8,240.9h-.2L201,252.9l.2-.4Z" transform="translate(-106.6 -224.6)"/><path class="cls-9" d="M145.9,226.6l-.4.6L191,249.1h-.1l-45.5-22-.2.2h0l20.9,10.2.5.2.5.2.6.2.5.2.5.3.4.2.5.3.4.3,14,6.8h-.1l-13.1-6.3.4.3.4.3.3.3.4.3,24.7,12h.2l2.5,1.3,1.2-1.9Z" transform="translate(-106.6 -224.6)"/><path class="cls-9" d="M164.2,237.1h.5l.4.2-9.3-4.5h-.2l7.7,3.7h.9Z" transform="translate(-106.6 -224.6)"/><path class="cls-9" d="M202,250.4h0l.5.2v-.2l-4.5-2.1-12.9-6.2h0l-37.6-17.6-.4.5,19,9h-.1l-19-9-.2.2h0l11.3,5.3h0l34.3,16.4h.1l8.9,4.3,1-1.5Z" transform="translate(-106.6 -224.6)"/><path class="cls-9" d="M151.1,228.1h-.4a.1.1,0,0,0,.1.1h.1l50.3,24.1.3-.4Z" transform="translate(-106.6 -224.6)"/><path class="cls-9" d="M158.7,236.6h.4l-15.2-7.5h-.1l-.2.3h.1l14.6,7.2h.4Z" transform="translate(-106.6 -224.6)"/><polygon class="cls-9" points="66 22.9 66.3 23.9 67.8 24.6 68.5 24.1 66 22.9"/><path class="cls-9" d="M159.7,236.6h.5l-2.7-1.3c0-.1,0-.1-.1-.1h-.1l2,1h.4Z" transform="translate(-106.6 -224.6)"/><path class="cls-9" d="M199.6,255.1l-11.9-5.8h-.3l1.6.7h-.1l-14.7-7.1.3.3c.1.2.1.3.2.4l.3.4c.1.2.1.3.2.4l8,4h0l-8-3.9a.8.8,0,0,1,.2.4l.2.3c.1.2.1.3.2.4v.4c-.1-.2-.1-.3-.2-.4l-.3-.5-.3-.4-.3-.4-6.3-3c0-.1,0-.1-.1-.1h-.2l-6.5-3.2h-2.3l18.9,9.4h-.1L159.3,239h-1.6l10.5,5.3h0l-10.7-5.2h-.6l15.2,7.6.2-.7.3.9,2.5,1.3,1.2-1-.5,1.4h0l-.3.7,1.6.8,2.4-.5-1.4,1,18.1,9.2.4-.6Z" transform="translate(-106.6 -224.6)"/><path class="cls-9" d="M154.9,237.2h.5l-12.9-6.4v.2l-.3.3,12.3,6.1h.5Z" transform="translate(-106.6 -224.6)"/><path class="cls-9" d="M153.5,237.6h.3l-8.5-4.2H145l8.3,4.1h.2Z" transform="translate(-106.6 -224.6)"/><path class="cls-9" d="M156.5,236.8h.9l-14.1-7-.4.5,1.9,1h0l-1.9-.9-.3.3,13,6.4h.9Z" transform="translate(-106.6 -224.6)"/><path class="cls-9" d="M173.8,243.6c-.2-.1-.3-.3-.5-.5l-.6-.5-7-3.4h-1.5l5.4,2.6h0l-5.6-2.8h-1.2l12,5.9-.5-.5Z" transform="translate(-106.6 -224.6)"/><path class="cls-9" d="M156.8,239.6h-.2c-.1,0-.2,0-.2.1h-.5l16,8.1.2-.8Z" transform="translate(-106.6 -224.6)"/><path class="cls-9" d="M152.9,241.9h-.3l13.8,7.1-.9-1Z" transform="translate(-106.6 -224.6)"/><path class="cls-9" d="M152.8,238h.4l-7.1-3.5h0c-.1-.1-.1-.1-.1,0h-.1l.8.4h0l5.7,2.8h.4Z" transform="translate(-106.6 -224.6)"/><polygon class="cls-9" points="65.1 24 62.5 22.7 64.7 25.2 65.1 24"/><path class="cls-9" d="M166.9,249.9l-14.5-7.5h-.3l2.5,1.3h-.1a.1.1,0,0,1,.1.1h.1l13.3,7h.1Z" transform="translate(-106.6 -224.6)"/><path class="cls-9" d="M183,253.8h-.1c0-.1,0-.1-.1,0h0l13.1,6.7.3-.5Z" transform="translate(-106.6 -224.6)"/><path class="cls-9" d="M149.9,239.8a.1.1,0,0,0,.1-.1h.1l-10.5-5.4-.2.3-.2.2,10.4,5.4.2-.2Z" transform="translate(-106.6 -224.6)"/><polygon class="cls-9" points="73.8 28.4 71 27 69.8 27.9 73.8 28.4"/><path class="cls-9" d="M149.4,240.3a.1.1,0,0,1,.1-.1h.1l-10.5-5.3h0l-.2.2,10.3,5.4h.2Z" transform="translate(-106.6 -224.6)"/><polygon class="cls-9" points="69.5 26.2 68.7 25.8 68.5 26.4 69.5 26.2"/><path class="cls-9" d="M148.9,240.9h.1l-10.3-5.3-.3.3,10.3,5.3h.2Z" transform="translate(-106.6 -224.6)"/><path class="cls-9" d="M151.1,238.9h.4l-11-5.6-.3.3v.2l9.9,5h.1l.6.4.2-.2Z" transform="translate(-106.6 -224.6)"/><path class="cls-9" d="M153.6,241.4H153l12.3,6.3h0l2.7,1.4,1.4.7-.2-.9Z" transform="translate(-106.6 -224.6)"/><path class="cls-9" d="M155.1,240.3l-.2.2h-.3l-.2.2h-.3l5.3,2.7h0l8.9,4.6h.1l.7.4-.5-2.1Z" transform="translate(-106.6 -224.6)"/><polygon class="cls-9" points="67.2 25.1 66.5 24.7 66.7 25.5 67.2 25.1"/><polygon class="cls-9" points="66.6 32.4 66.6 32.4 66.6 32.4 66.6 32.4"/><path class="cls-9" d="M148,242h.1l-10.3-5.3-.3.3,10.4,5.4h.1Z" transform="translate(-106.6 -224.6)"/><path class="cls-9" d="M148.3,241.7h.1l-4.8-2.5h-.3c-.1.1,0,.1,0,.1h.1l4.8,2.5h.1Z" transform="translate(-106.6 -224.6)"/><path class="cls-9" d="M167.8,254.3l-4.5-.7,2.3-.4-3.8-2.1h-.4l-10.7-5.7v.4h-.1v.2l9.5,5.1h0l-9.5-5h0v.2h0v.2h.2l15.7,8.4,1.7-1.3Z" transform="translate(-106.6 -224.6)"/><path class="cls-9" d="M147.1,244h.1v-.2l-5.9-3.1h-.2l3.4,1.8h-.1l2.6,1.4c0-.1.1-.1.1-.2Z" transform="translate(-106.6 -224.6)"/><path class="cls-9" d="M163.4,250.6l3.6.5-15.2-7.9-.2.2c0,.1,0,.2-.1.2s-.1.1-.1.2v.2l7.9,4.1h0c-.1,0-.1,0-.1.1h.2l.7.4h0l7,3.7.6-.2Z" transform="translate(-106.6 -224.6)"/><path class="cls-9" d="M193.5,264.5l2.4-3.7-15.1-7.6-2.6.6,6.2,3.2h-.1l-6.2-3.2-1.3.3,4.5,2.2-5-.7.7.7,3.2,1.7-3.2-1.7,2.5,2.7-4.5-2.4.2.5,12.9,6.8H188l-7.1-3.7h-.3l-5.3-2.7.2.6,11.2,5.9-11.2-5.9.6,2.2-2.8-3.4h-.2l-1.1,3.5-.9-3.9-1.1,1,1.2.6h-.1l-1.2-.7-1.9,1.6.8-2.2-1.7-.9-2.2.6,1.3-1L151.6,248h-.4a.1.1,0,0,0,.1.1h0l12.4,6.6h-.1l-13.2-7.1v.7c0,.2.1.4.1.6a1.9,1.9,0,0,0,.2.7,1.4,1.4,0,0,0,.2.6l24.6,13.4h0l-8-4.3h-.7s0-.1-.1,0h-5.2l2.3,1.2h0l16.9,9.3h0c0,.1,0,.1.1.1l5.2,2.9h0l-.7-.3h-.1l-26-14.2-1.3-.4-1.3-.4-1.3-.6-1.2-.6-1.1-.7-1-.7-1-.8a6,6,0,0,1-.8-.8l-13.6-7.4h-.2l4.4,2.5h0l38.6,21.5h-.1l-1.3-.7h-.3l-46.9-26.1-.3.5h-.1l13.4,7.5h.1l30,16.9h0l-19-10.6h-.3l-24.7-13.8-.4.6,11.6,6.6-11.7-6.6-.3.4,25.4,14.3h0l8.5,4.8-23.7-13.3H139l-10.2-5.8-.3.4L156,263.4h-.1l-1.4-.7h-.2l29.4,17,.9-1.4-.9-.5h.1l.9.5,2.4-3.7,2.2-3.5-2.4-1.3h.1l2.4,1.3.9-1.4Z" transform="translate(-106.6 -224.6)"/><polygon class="cls-9" points="60.7 31.6 62.2 32.4 62.7 31.1 60.7 31.6"/><path class="cls-9" d="M147,244.6h0l-11-5.8v.2h-.2l11.2,5.9h.1Z" transform="translate(-106.6 -224.6)"/><path class="cls-9" d="M146.8,247.2a1.9,1.9,0,0,1,0-1.2L135,239.7l-.2.4,4.3,2.3h0l-4.4-2.4-.2.3-.7.9,13.1,7.1c0-.2-.1-.4-.1-.6Z" transform="translate(-106.6 -224.6)"/><path class="cls-9" d="M147.3,249.8c0-.1-.1-.2-.1-.3a.4.4,0,0,0-.1-.3H147l-13.7-7.4-.4.5h0l14.7,8-.2-.3A.4.4,0,0,0,147.3,249.8Z" transform="translate(-106.6 -224.6)"/><path class="cls-9" d="M148.2,251.6l-.3-.5-.3-.5-14.8-8.1h-.1l-.7.9,16.8,9.3-.3-.5Z" transform="translate(-106.6 -224.6)"/><path class="cls-9" d="M162.8,259.4l1.8.2h1.9l-15.3-8.3.2.4a4917165483454,4917165483454,0,0,0,.4.8l.2.4h0l.7.9a3,3,0,0,0,.8.8l.8.9,1,.8,3.8,2a6.4,6.4,0,0,0,1.8.6Z" transform="translate(-106.6 -224.6)"/><path class="cls-10" d="M169.1,239l-.4-.2-.5-.3-.5-.2-.6-.2-.5-.2-.5-.2,3.9,1.9-.4-.3Z" transform="translate(-106.6 -224.6)"/><path class="cls-10" d="M171.6,240.7l-.4-.3-.4-.3-5.7-2.7-.4-.2h-1.4l9,4.4-.4-.3Z" transform="translate(-106.6 -224.6)"/><path class="cls-10" d="M163.4,238.9h.6l-4.9-2.3h-.8l4.5,2.2h.6Z" transform="translate(-106.6 -224.6)"/><path class="cls-10" d="M164.9,239.1h.8l-5.5-2.6h-.9l4.9,2.4h.7Z" transform="translate(-106.6 -224.6)"/><path class="cls-10" d="M158.5,239.1h.8l-3.9-1.9h-1l1.6.9h0l1.7.8h.8Z" transform="translate(-106.6 -224.6)"/><path class="cls-10" d="M157.2,239.5h.3l-3.7-1.9h-.5l3.6,1.9h.3Z" transform="translate(-106.6 -224.6)"/><path class="cls-10" d="M174.7,244.1c-.1-.1-.1-.2-.2-.4l-.3-.3-1.5-.8.6.5c.2.2.3.4.5.5l.5.6.5.5.4.2c-.1-.1-.1-.2-.2-.4Z" transform="translate(-106.6 -224.6)"/><path class="cls-10" d="M175.4,245.6l.3.5c.1.1.1.2.2.4v-.4c-.1-.1-.1-.2-.2-.4l-.2-.3a.8.8,0,0,0-.2-.4l-.4-.2.3.4Z" transform="translate(-106.6 -224.6)"/><path class="cls-10" d="M160.6,238.8h1.1l-4.3-2.1h-1.8l3.8,1.9h1.2Z" transform="translate(-106.6 -224.6)"/><path class="cls-10" d="M153.3,241.6h.3l-3.5-1.8H150a.1.1,0,0,1-.1.1h-.1l-.2.2,3.4,1.7h.3Z" transform="translate(-106.6 -224.6)"/><path class="cls-10" d="M152.8,242h.1l-3.3-1.8h-.1a.1.1,0,0,0-.1.1h-.2l3.4,1.7h.2Z" transform="translate(-106.6 -224.6)"/><path class="cls-10" d="M152.3,242.6h.1l-3.4-1.7h-.3l3.4,1.8h.2Z" transform="translate(-106.6 -224.6)"/><path class="cls-10" d="M154.6,240.6h.3l.2-.2H155a.1.1,0,0,0-.1-.1h-.2l-3.2-1.6h-.6l-.2.2,3.4,1.7h.3Z" transform="translate(-106.6 -224.6)"/><path class="cls-10" d="M156.4,239.8c0-.1.1-.1.2-.1h.2l-3.6-1.8h-.8l3.5,1.8h.5Z" transform="translate(-106.6 -224.6)"/><path class="cls-10" d="M151.5,243.6c.1,0,.1-.1.1-.2l.2-.2-3.4-1.7h-.2l3.1,1.7-3.2-1.7h-.2l3.4,1.8v-.2C151.4,243.7,151.5,243.7,151.5,243.6Z" transform="translate(-106.6 -224.6)"/><path class="cls-10" d="M150.6,245.9v-.4l-3.5-1.8v.2h-.1v.2c0,.1-.1.1-.1.2l3.5,1.8V246Z" transform="translate(-106.6 -224.6)"/><path class="cls-10" d="M150.4,246.6v-.2h0l-3.5-1.9h0c-.1.1-.1.1,0,.1h.1l3.3,1.8v-.2Z" transform="translate(-106.6 -224.6)"/><path class="cls-10" d="M164,259.8h.6l-1.8-.2-1.9-.5a6.4,6.4,0,0,1-1.8-.6l2.4,1.4H164Z" transform="translate(-106.6 -224.6)"/><path class="cls-10" d="M151.6,252.1a.8.8,0,0,1-.2-.4l-.2-.4-3.9-2.1h-.2a.4.4,0,0,1,.1.3c0,.1.1.2.1.3a.4.4,0,0,1,.1.3l.2.3,4.4,2.5-.2-.4A.8.8,0,0,1,151.6,252.1Z" transform="translate(-106.6 -224.6)"/><path class="cls-10" d="M150.5,249.2c0-.2-.1-.4-.1-.6v-.7l-3.6-1.9a1.9,1.9,0,0,0,0,1.2v.6c0,.2.1.4.1.6l4,2.1a1.4,1.4,0,0,1-.2-.6A1.9,1.9,0,0,1,150.5,249.2Z" transform="translate(-106.6 -224.6)"/><path class="cls-10" d="M153.5,254.6a3,3,0,0,1-.8-.8l-.7-.9h0l-4.4-2.3.3.5.3.5.3.6.3.5,6.5,3.6-1-.8Z" transform="translate(-106.6 -224.6)"/><path class="cls-10" d="M152,255.9l1,.7,1.1.7,1.2.6,1.3.6,1.3.4,1.3.4-9-5a6,6,0,0,0,.8.8Z" transform="translate(-106.6 -224.6)"/><polygon class="cls-10" points="65.5 22.6 65.3 23.4 66.3 23.9 66 22.9 65.5 22.6"/><polygon class="cls-10" points="68.5 24.1 69.2 24.4 69.7 23.1 68.5 24.1"/><polygon class="cls-10" points="65.5 22.6 66 22.8 65.8 21.9 65.5 22.6"/><polygon class="cls-10" points="70.5 26 71.5 26.5 72.9 25.4 70.5 26"/><polygon class="cls-10" points="68.5 24.1 67.8 24.6 69 25.2 69.2 24.5 68.5 24.1"/><path class="cls-10" d="M181.3,256.3l-4.5-2.2,1.3-.3-8.9-4.5.2.9,3.1,1.6h-.1l-6.9-3.6.9,1,3.5,1.8h-.1l-2.9-1.5,1.2,1.4H168l7.5,3.8h0l1.5.8-.7-.7Z" transform="translate(-106.6 -224.6)"/><polygon class="cls-10" points="58.8 23.5 61.4 24.9 58.7 23.5 58.8 23.5"/><polygon class="cls-10" points="73.8 28.4 69.8 27.9 71 27 69.5 26.2 68.5 26.4 68.7 25.8 67.2 25.1 66.7 25.5 66.5 24.7 65.1 24 64.7 25.2 62.5 22.7 62 22.5 62.6 24.5 71.6 29.2 74.3 28.6 73.8 28.4"/><polygon class="cls-10" points="61.2 29.7 59 28.5 56.7 29 61.2 29.7"/><polygon class="cls-10" points="72.9 34.4 70.4 31.7 60.4 26.5 56.9 25.9 61.1 28.1 60.4 28.2 68.6 32.5 68.5 32 72.9 34.4"/><path class="cls-10" d="M169.6,254.7h-.3l3.9,2h0l2.3,1.3-.2-.6Z" transform="translate(-106.6 -224.6)"/><polygon class="cls-10" points="68.9 33.7 66.7 32.5 69.6 35.9 68.9 33.7"/><polygon class="cls-10" points="65.5 36 66.6 32.5 61.4 29.8 59.7 31.1 60.7 31.6 62.7 31.1 62.2 32.4 63.4 33 64.5 32.1 65.5 36"/><polygon class="cls-10" points="63.3 33.1 62.2 32.5 61.4 34.6 63.3 33.1"/><polygon class="cls-10" points="60.5 31.6 59.6 31.1 58.3 32.1 60.5 31.6"/></g></g></g><image class="cls-11" width="577" height="502" transform="translate(24.8 16.4) scale(0.24)" xlink:href="medical_red1.png"/><path class="cls-12" d="M154.1,284.9h89.2l.5.2v-2.3a4.6,4.6,0,0,0-4.7-4.4h-17V264.2H173.5v14.2H158.1a4.6,4.6,0,0,0-4.7,4.4v49.3a4.6,4.6,0,0,0,4.7,4.4h81a4.6,4.6,0,0,0,4.7-4.4V289.5c-.2.3-.5.4-1.1.4h-88s-1.1,0-1.1-.6v-3.9A.5.5,0,0,1,154.1,284.9ZM179,268.8h37.7v8.4H179Zm-1.6,38.6a2.3,2.3,0,0,1,2.4-2.2h8.4c1.1,0,1.1-.9,1.1-.9v-8a2.2,2.2,0,0,1,2.3-2h14a2.1,2.1,0,0,1,2.3,2v7.8s.2,1.1,1.1,1.1h8.4a2.3,2.3,0,0,1,2.4,2.2v13.1a2.3,2.3,0,0,1-2.4,2.1h-8.2s-1.3.2-1.3,1.1v7.7a2.1,2.1,0,0,1-2.3,2.1h-14a2.2,2.2,0,0,1-2.3-2.1v-7.8c0-1.1-1.3-1-1.3-1h-8.2a2.3,2.3,0,0,1-2.4-2.1Z" transform="translate(-106.6 -224.6)"/></g></g></svg>