<svg xmlns="http://www.w3.org/2000/svg" xmlns:xlink="http://www.w3.org/1999/xlink" viewBox="0 0 223.3 157"><defs><style>.cls-1{fill:none;}.cls-2{isolation:isolate;}.cls-13,.cls-3{fill:#0453a5;}.cls-4{fill:#fff;}.cls-5{fill:#1e439b;}.cls-6{opacity:0.29;}.cls-7{clip-path:url(#clip-path);}.cls-8{clip-path:url(#clip-path-2);}.cls-9{fill:#e82327;}.cls-10{fill:#272870;}.cls-11{fill:#fbca0c;}.cls-12{opacity:0.75;mix-blend-mode:multiply;}.cls-13{fill-rule:evenodd;}</style><clipPath id="clip-path" transform="translate(4.5 -211.3)"><path class="cls-1" d="M163.1,290.5A75.6,75.6,0,0,1,20.2,325h0a75.6,75.6,0,1,1,142.9-34.5Z"/></clipPath><clipPath id="clip-path-2" transform="translate(4.5 -211.3)"><rect class="cls-1" x="3.6" y="249.1" width="213.7" height="142.49" transform="translate(124.7 -18.2) rotate(21.4)"/></clipPath></defs><title>medical_blue</title><g class="cls-2"><g id="Layer_1" data-name="Layer 1"><path class="cls-3" d="M166.2,290.5A77.7,77.7,0,0,1,19.3,326h0a77.7,77.7,0,1,1,146.9-35.5Z" transform="translate(4.5 -211.3)"/><path class="cls-4" d="M164.1,290.5A75.6,75.6,0,0,1,21.2,325h0a75.6,75.6,0,1,1,142.9-34.5Z" transform="translate(4.5 -211.3)"/><path class="cls-5" d="M88.5,290.5" transform="translate(4.5 -211.3)"/><g class="cls-6"><g class="cls-7"><g class="cls-8"><path class="cls-9" d="M104.4,243.3h.3l-13.2-6.2v.2Z" transform="translate(4.5 -211.3)"/><path class="cls-9" d="M163.7,278.4h-.3l-2.1-1.1,28,13.6h.1L96.7,245l56.4,27.2a.1.1,0,0,0,.1.1h.3a.1.1,0,0,0-.1-.1h-.1L95.8,244h0l47.3,22.8h.4a.1.1,0,0,0,.1-.1h-.3l-40.7-19.7h.1l91.2,43.8h.4a.1.1,0,0,0,.1-.1h0c0-.1,0-.1-.1-.1h-.1a.1.1,0,0,0-.1-.1l-26.9-13H167l-23.2-11.1h0L206,295.1h.6v-.2h-.4l-46.7-22.4h.1l23,11h.4c.1,0,.1,0,.1-.1H183a.1.1,0,0,0-.1-.1h-.1l-45-21.5,25.4,12.1h.5l43.2,20.5h.5l-.2-.2h-.1l-52.8-25h.2l2.2,1h.5l52.3,24.7c0,.1.1.1.2.1h.3c0-.1,0-.1-.1-.2h-.3L91.4,237.3l-1,1.4,1.5.7-1.5-.7-.3.5,1.2.6-1.2-.6-.2.4,2.9,1.4h0l-3-1.4-1.2,1.9,12.7,6.2h0l62.4,30.6Z" transform="translate(4.5 -211.3)"/><path class="cls-4" d="M218.8,311.8c0-.1-.1-.1-.1-.2h-.3L105,254.8h.2l46,22.8h.4a.1.1,0,0,0,.1-.1L215,308.9c0,.1.1.1.2.1h.2a.1.1,0,0,0,.1-.1h0c0-.1,0-.1-.1-.1s-.1-.1-.1-.2h-.2l-8.8-4.4h.1a.1.1,0,0,0,.1-.1h-.2l-.2-.2L136.7,269h0a.1.1,0,0,1-.1-.1h-.1l-27.9-13.8h.1L135.6,268h.5a.1.1,0,0,1-.1-.1h-.1l-4.3-2.1h0l10.4,5.1h.5c0-.1,0-.1-.1-.1h-.2l70.1,34.4h.5a.1.1,0,0,0,.1-.1h-.1c0-.1-.1-.1-.1-.2h-.2l-69.9-34.3h.1l3.7,1.8h.3a.1.1,0,0,0,.1-.1h.1c0-.1,0-.1-.1-.1h-.2l-6.2-3c.1,0,.1,0,.1-.1h.1l44.6,21.6h.4a.1.1,0,0,0,.1-.1h-.1c0-.1,0-.1-.1-.1h-.1l-21.7-10.6h0l-62.4-30.6h.1l-12.9-6.3-3,4.6,76.3,38.6h0a.1.1,0,0,1-.1-.1h-.2l-35.7-17.9h0l85.7,42.9h.2a.1.1,0,0,0,.1.1h0c0-.1-.1-.1-.1-.2L96.6,251.2l121.6,60.7h.5a.1.1,0,0,0,.1-.1h0Z" transform="translate(4.5 -211.3)"/><path class="cls-9" d="M85.1,246.9l5.4,2.7h0L85.1,247l-.3.4,3.4,1.7h0l-3.4-1.8-2.4,3.7,59.4,31,56.4,29.2h.3c0-.1-.1-.1-.1-.2h0L90.6,254.9h0l39,20.1h.3c.1,0,.1,0,.1-.1h-.2l-10.5-5.5L161,290.5h.4a.1.1,0,0,0,.1-.1h0l14.5,7.4h.4a.1.1,0,0,0-.1-.1h-.1l-22.4-11.5h.1l60.7,31.1h.5v-.2h-.4l-76.3-39.2h0a.1.1,0,0,1-.1-.1l-4.7-2.4h.1l6.4,3.3h.2a.1.1,0,0,0,.1.1.1.1,0,0,1,.1-.1.1.1,0,0,0,.1-.1h-.3L122.7,268h0a.1.1,0,0,0-.1-.1h-.1l-29.4-15,9.9,5h.3l92,46.7h.5v-.2a995164323832.2,995164323832.2,0,0,1-.2-.2h-.2l-68.1-34.6h-.1l-16.9-8.6h0l13.6,6.7h.3a.1.1,0,0,1-.1-.1h0L101.5,255h.1l59.7,30h.3a.1.1,0,0,1,.1-.1.1.1,0,0,0,.1-.1h0L85.5,246.3Z" transform="translate(4.5 -211.3)"/><path class="cls-4" d="M79.2,256.1l27,14.5h0l94.2,50.2h.6v-.2a.1.1,0,0,0-.1-.1.1.1,0,0,0-.1-.1l-.2-.2h0l-70.5-37.7h0s.1-.1,0-.1h0c0-.1,0-.1-.1-.1h-.1l-24.3-13h0c.1,0,.1,0,.1-.1h-.2l-12.3-6.6h0l7.2,3.8h.4L142,287.7h.3a.1.1,0,0,1-.1-.1l-40.5-21.4h-.1l-14.4-7.6h0l117,61.7h.2a.1.1,0,0,0,.1.1h.2c.1,0,0-.1,0-.1h0l-.2-.2h-.1l-85.9-45.3h0l3.5,1.8h.3a.1.1,0,0,0,.1-.1h0V275h-.1a.1.1,0,0,0-.1-.1h0l-13.6-7.2,63.9,33.4h.5c-.1-.1-.1-.1-.1-.2h-.2L110,267.8h.1l32.7,17h.3a.1.1,0,0,0,.1-.1h.1L188,308h.4l-.2-.2-61.4-32h-.2L91.8,256.8l10.9,5.7h.3a.1.1,0,0,0,.1-.1h-.2l-3.1-1.6,42,21.6-59.4-31Z" transform="translate(4.5 -211.3)"/><path class="cls-9" d="M137.8,295.5,160.6,308h.3a.1.1,0,0,1,.1-.1h.1a.1.1,0,0,1-.1-.1h-.1a.1.1,0,0,0-.1-.1L96.3,271.8l68.9,37.9h.5c.1-.1.1-.1,0-.2h-.3l-35.7-19.7h-.1a.1.1,0,0,0-.1-.1h0l-52-28.6h0l45.4,24.8h.1c.1,0,.1.1.2,0h.2l14.1,7.7h.5c-.1-.1-.1-.1-.1-.2h-.1a.1.1,0,0,1-.1-.1l-1.1-.6h0l42.5,23.1h.5a.1.1,0,0,0-.1-.1h-.1c0-.1-.1-.1-.1-.2L140,292.7h0c0-.1-.1-.1-.1-.2a.1.1,0,0,1-.1-.1l-29.6-16.1,46.1,25.1h.5a.1.1,0,0,0,.1-.1.1.1,0,0,1-.1-.1h-.1a.1.1,0,0,0-.1-.1l-.5-.3L207.2,328c0,.1.1.1.2.1h.2a.1.1,0,0,0,.1-.1h0v-.2h-.1c0-.1-.1-.1-.2-.2L78.2,257.6,76,261.1Z" transform="translate(4.5 -211.3)"/><path class="cls-9" d="M78.3,257.5l36.5,19.7h.5l66.1,35.6h.5a.1.1,0,0,1,.1-.1h0c0-.1-.1-.1-.1-.2h-.3l-97-52.3h0l56.6,30.4h.4c.1,0,.1,0,.1-.1h0a.1.1,0,0,1-.1-.1h-.1l-39.8-21.3h.1l4.1,2.1c0,.1,0,.1.1.1h.2l-27-14.5Z" transform="translate(4.5 -211.3)"/><path class="cls-4" d="M73.6,264.7l14.2,8h.3l68.3,38.4h.5l48.9,27.6c.1,0,.2,0,.2.1h.2c.1,0,.1,0,.1-.1h.1a.1.1,0,0,0-.1-.1c0-.1,0-.2-.1-.2H206L99.9,278.3h0l3.3,1.8h.4c0-.1,0-.1.1-.1h0a.1.1,0,0,1-.1-.1h-.1l-14.3-8h0l1.6.8h.3l20.6,11.5h.2L86.1,269h.1l44.5,24.7h.5a.1.1,0,0,0-.1-.1c0-.1,0-.1-.1-.2h-.1L101.7,277l56.8,31.4h.4c0-.1,0-.1-.1-.1s-.1-.1-.1-.2L131,292.5h0c0-.1,0-.1-.1-.1L81.6,264.6l2.6,1.4h.1l53.5,29.5L76,261.1Z" transform="translate(4.5 -211.3)"/><path class="cls-4" d="M141,305.5h0l46.7,26.7h.5a.1.1,0,0,0,.1-.1h0c0-.1-.1-.1-.1-.2h-.3L83.6,272h.1l5.3,3h.4l2.4,1.3H92l97.6,55.2h.6V331a.1.1,0,0,0-.1-.1h-.2l-116.3-66-.9,1.4Z" transform="translate(4.5 -211.3)"/><path class="cls-9" d="M43.2,249.3h-.1l-19.2-11h-.3l17.8,10.2h0L16.8,235h0l-.7.7,21,12.1H37L16,236l-.2.3,33.6,19.5L15.6,236.4h0l-.2.2,8,4.7-8-4.6-.4.3,11.9,7h0l-9.7-5.6H17l23.1,13.5H40L14.6,237.6l-.4.6L44,255.8h0l-12.8-7.5h-.3L14,238.4h-.2l169,100.2h0v-.2a.1.1,0,0,0-.1-.1h-.1L61.4,266.8h0l20.6,12h.4l25.7,15.1h.3a.1.1,0,0,0,.1-.1h.1c-.1-.1-.1-.1-.1-.2h-.1l-10-5.9h0l32.1,18.8h.5l2.2,1.3h.4a.1.1,0,0,0,.1-.1h-.1a.1.1,0,0,0-.1-.1l-16.3-9.6h.1c.1,0,.1,0,.1-.1h-.1a1658607206414.5,1658607206414.5,0,0,0-.2-.2L88.7,280.3h.1l16.9,9.8h.4c.1,0,.1,0,.1-.1H106L82,275.7l27.6,15.9h.3L91.7,280.6l57.8,33.2h.5v-.2a.1.1,0,0,1-.1-.1h-.2L90.2,278.9h.1a.1.1,0,0,1-.1-.1l-3.5-2h0l28.9,16.5h.4l85.1,48.8h.6c0-.1,0-.1-.1-.2h-.1l-.2-.2h0L69.8,265.5h.1L81.7,272a.1.1,0,0,0,.1.1H82l58.6,33.3h.4L72.6,266.2Z" transform="translate(4.5 -211.3)"/><path class="cls-4" d="M13.7,238.8h.2l31.9,18.9h0L26.4,246.8h0a.1.1,0,0,0-.1-.1h-.2l-12.8-7.6-.3.4,34.8,20.7h0L13,239.7l-.6.6,13.1,7.9h0l20.4,12.2h0l13.9,8.4h0L37.1,256h-.4l-25-14.9-.2.4,33,19.9h-.1l-11.5-6.9h-.4l-12.9-7.8h-.4a.1.1,0,0,1,.1.1h0l19.9,12.1h-.1l-6.9-4.1h-.1a.1.1,0,0,0-.1.1h-.1L10.7,242.4l-.4.5,166.4,102h-.1v-.2c-.1,0-.1,0-.1-.1h-.2l-50.4-30.8h0v-.2h-.2L90.4,291.6l16.9,10.2h.4l27.8,16.9h.5a.1.1,0,0,0-.1-.1v-.2h-.1L85.1,287.4l54,32.6h.2a.1.1,0,0,0,.2,0c.1,0,.1,0,.1-.1h0L158,330.9h.5l-.2-.2h-.1l-52.5-31.7h-.1L86.4,286.5h.1l15.5,9.2h.4l8.7,5.1h.5a.1.1,0,0,0-.1-.1h-.2l-6.7-4.1,84.7,50.6h.4a.1.1,0,0,0,.1-.1h.1v-.2h-.3L129,309.9h0c0-.1,0-.1-.1-.2h-.1L105,295.1l4.8,2.9h.3c.1,0,.1,0,.1-.1h.1l22.6,13.4h.3a.1.1,0,0,1,.1-.1h.1l9,5.4h.4c.1,0,.1,0,.1-.1h0l8.2,4.8h.5a.1.1,0,0,0,.1-.1h-.1c0-.1-.1-.1-.1-.2h-.1l-42.9-25.4,73.8,43.5h.5L13.8,238.6Z" transform="translate(4.5 -211.3)"/><path class="cls-9" d="M10,243.3l-.3.2L47,266.4h-.1L17.5,248.5h-.6l-7.6-4.6v.2l-.2.2,31.1,19.2H40L16.5,249.4h-.3l6.1,3.8h-.1L8.4,245.2l-.5.5-.2.3,5.7,3.5h0l-5.9-3.7h0l-.3.3,16.2,10.2L7.2,246.7l-.5.5,134.8,85.4h-.3l-38.1-24.1h0v-.2h0a.1.1,0,0,1-.1-.1h-.1L80.9,294H81l35.5,22.3h.5v-.2h-.2L88.8,298h.1a.1.1,0,0,0-.1-.1h0a.1.1,0,0,1-.1-.1h0L68.4,284.8h.1l70.6,44.1a.1.1,0,0,0,.1.1h.4c0-.1,0-.1-.1-.1v-.2h-.1L95.5,301h0v-.2a.1.1,0,0,1-.1-.1l-35-21.8h.1l101.2,62.9c0,.1.1.1.2.1h.2a.1.1,0,0,0,.1-.1h0v-.2H162l-.2-.2-43.5-27h0l19.8,12.3h.5v-.2h-.1l-.2-.2h0L69.1,282.6h0l6.3,3.9h.4L98.1,300h.5a.1.1,0,0,0-.1-.1h-.2L88,293.1h.1L107,304.6h.5l62.6,38.4h.5a.1.1,0,0,1,.1-.1v-.2h-.1c0-.1-.1-.1-.1-.2h-.2l-18-11.1h0V331h-.1l-.2-.2-51-31.3h.1l75,45.8h.5a.1.1,0,0,0,.1-.1h0L10.3,242.9Z" transform="translate(4.5 -211.3)"/><path class="cls-4" d="M6.7,247.3l6.1,3.9h0l-6.2-3.9-.5.6,4.3,2.7h-.1L6,248H6l-.5.5,12.3,7.9h-.1L5.4,248.8l-.4.4v.2l1,.6h0l2.3,1.4H8.1c-.1,0-.1,0,0,.1h.1l9.8,6.3L6.7,251.3H6.3l-2-1.3-.2.3,29.2,18.9h-.5L5.5,251.8H5.2l-1.6-1-.3.4,7,4.5h0l9.1,6h0L3.1,251.6H3L104.4,318h-.2c0-.1,0-.1-.1-.1L50,282.4h0l96.1,62.2h.5v-.2h0v-.2h-.2L90.5,307.7h.1l15.2,9.9h.3c.1,0,.1,0,.1-.1h.1v-.2h-.1c0-.1,0-.1-.1-.1l-4.7-3.1,51,32.9h.4c.1,0,.1,0,.1-.1h0v-.2h-.3L67.1,291l71.4,45.9h.2a.1.1,0,0,0,.2,0h.1c0-.1-.1-.1-.1-.2h-.2L95,308.1h0a.1.1,0,0,0,.1-.1h-.3L64.1,287.9h0a.1.1,0,0,1-.1-.1l-15-9.6h.1l66.7,42.5a.1.1,0,0,0,.1.1h.4a.1.1,0,0,0-.1-.1V320H116L74.3,293.2h-.1l-14-8.9,110.4,70h.2a.1.1,0,0,0,.1.1h.2a.1.1,0,0,0,.1-.1c-.1-.1-.1-.1-.1-.2H171l-.2-.2-60.7-38.6h.1a.1.1,0,0,0-.1-.1H110l-11-7h.1v-.2H99a.1.1,0,0,1-.1-.1L64.6,284.8h.1L141,332.9h.4a.1.1,0,0,0,.1-.1h0L6.7,247.2Z" transform="translate(4.5 -211.3)"/><path class="cls-9" d="M2.5,252.3l-.8.9,11.4,7.5h0l22.4,14.8h-.1l-34-22.4-.3.4-.4.4,22.6,15h0L.7,254.5l-.3.4,20.5,13.7h-.1l-9.7-6.5h-.4a.1.1,0,0,0,.1.1h0l.9.5h-.1L-.1,255.4v.2l-.5.6,152,103h.1v-.2h0c0-.1-.1-.1-.1-.2h-.2l-6.9-4.7h0v-.2h0l-.2-.2a.1.1,0,0,0-.1-.1L34.3,279.4h.1l110.8,74.3h.6c0-.1-.1-.1-.1-.2h-.1c0-.1-.1-.1-.1-.2l-67.2-45h0a.1.1,0,0,0,.1-.1h-.2l-.8-.5h0l74.1,49.4h.5c0-.1,0-.1.1-.1v-.2H152V356c0-.1-.1-.1-.2-.1l-37.5-25.1h.1a.1.1,0,0,0,.1-.1h0v-.2h-.2L85.5,311.1h0c0-.1,0-.1-.1-.2h-.1L48.5,286h.1l4.3,2.9h.4l30.2,19.9h.3a.1.1,0,0,0,.1-.1H84l18.7,12.3h.4a.1.1,0,0,1,.1-.1h0v-.2H103l-12.4-8.2h.1l71.8,47.3h.6v-.2h0l-.2-.2h-.1l-12.9-8.5h0v-.2h0v-.2h-.2L70.2,297.5h.2l77.1,50.5c.1,0,.2,0,.2.1h.2a.1.1,0,0,0,.1-.1h0c0-.1,0-.1-.1-.2h-.1L75.2,299.8h.1l28.6,18.6h.3a.1.1,0,0,1,.1-.1h.1L3,251.6Z" transform="translate(4.5 -211.3)"/><path class="cls-4" d="M-.7,256.2H-.8l16.4,11.1h.1l10.4,7h0l7.3,5h0L-1.2,256.8l-.8,1-.4.4,2.5,1.7h0L13,269.1h0l2.6,1.8h0L-2.8,258.7l-.3.4h0l.6.4h-.1l-.6-.4-.5.6,23.9,16.6h0l-24-16.5-.3.4,10.5,7.2H6.3l-10.4-7.3-.4.5,110.2,77.3h0v-.2h0c0-.1,0-.1-.1-.2a.1.1,0,0,1-.1-.1L82.4,321.4h0V321h-.2L50.3,298.6h0l28.5,19.7h.4v-.2h-.1L39.2,290.2,85,321.8h.5L97.4,330h.4c.1,0,.1,0,.1-.1h0L134,354.6h.5v-.2a.1.1,0,0,1-.1-.1l-.2-.2L76.7,314.4h.1l4.7,3.2a.1.1,0,0,0,.1.1H82l11.3,7.8h.5v-.2a.1.1,0,0,1-.1-.1h-.1l-12.9-8.8h.2v-.2h-.2L56,298.3l20.3,13.8h.4v-.2h0a.1.1,0,0,0-.1-.1h-.1L40.4,286.9h.1L52,294.6h.3l94.3,63.9h.4a.1.1,0,0,0,.1-.1v-.2h0c0-.1-.1-.1-.1-.2h-.2L64.1,301.7h.1l74.5,50.3h.5a.1.1,0,0,0,.1-.1h0v-.2h-.2c0-.1,0-.1-.1-.2h0l-38.3-25.9h0l50.2,33.7h.4l-152-103Z" transform="translate(4.5 -211.3)"/><path class="cls-10" d="M65.7,227.6h-.2l24.4,11.7.2-.4Z" transform="translate(4.5 -211.3)"/><path class="cls-10" d="M34.8,213.3l-.4.5,45.5,22h-.1L34.3,213.9l-.2.2h0L55,224.3l.5.2.6.2.5.3.5.2.5.2.4.3.5.3.4.2,14,6.8h-.1l-13.1-6.3.4.2.4.3.3.3c.2.1.3.3.4.4l24.7,12H86c0,.1,0,.1.1.1l2.5,1.2,1.2-1.9Z" transform="translate(4.5 -211.3)"/><path class="cls-10" d="M53.1,223.8H54l-9.3-4.5h-.2l7.7,3.8h.9Z" transform="translate(4.5 -211.3)"/><path class="cls-10" d="M90.9,237h0l.5.3v-.2L87,234.9l-12.9-6.1h0L36.5,211.3l-.4.4,19,9.1H55l-19-9-.2.2h0l11.3,5.4h0l34.3,16.4h.1l8.9,4.2,1-1.4Z" transform="translate(4.5 -211.3)"/><path class="cls-10" d="M40,214.8h-.1c0-.1,0-.1-.1,0h0l50.3,24.1.3-.5Z" transform="translate(4.5 -211.3)"/><path class="cls-10" d="M47.6,223.2H48l-15.2-7.4h-.1l-.2.2h.1l14.6,7.2h.4Z" transform="translate(4.5 -211.3)"/><polygon class="cls-10" points="66 22.9 66.3 23.9 67.8 24.6 68.5 24.1 66 22.9"/><path class="cls-10" d="M48.7,223.2h.4l-2.7-1.3h-.2l2,1h.5Z" transform="translate(4.5 -211.3)"/><path class="cls-10" d="M88.5,241.7,76.6,236h-.3l1.6.8h-.1L63.1,230l.3.4a.8.8,0,0,1,.2.4l.3.4.2.4,8.1,4h0l-8-3.9c0,.1.1.2.1.3l.2.4.2.4v.3l-.2-.4-.3-.4-.3-.4c0-.2-.1-.3-.3-.4l-6.3-3.1h-.3l-6.5-3.2H48.4L67.2,235h-.1l-18.9-9.4H46.6l10.5,5.2h0L46.4,226h-.6L61,233.9l.3-.8.2,1,2.5,1.2,1.2-1-.5,1.4.3.2h0l-.3-.2-.3.8,1.6.8,2.4-.6L67,237.8l18.1,9.1.4-.6Z" transform="translate(4.5 -211.3)"/><path class="cls-10" d="M43.8,223.8h.5l-12.9-6.4v.3l-.3.3L43.3,224h.5Z" transform="translate(4.5 -211.3)"/><path class="cls-10" d="M42.5,224.3h.2L34.2,220H34l8.2,4.1h.3Z" transform="translate(4.5 -211.3)"/><path class="cls-10" d="M45.4,223.5h.9l-14.1-6.9-.4.5,1.9.9h0l-1.9-1-.3.3,13,6.5h.9Z" transform="translate(4.5 -211.3)"/><path class="cls-10" d="M62.7,230.3c-.1-.2-.3-.3-.5-.5l-.6-.5-7-3.4H53.1l5.4,2.7h0l-5.6-2.7H51.7l12,5.9-.5-.6C63.1,230.6,62.9,230.5,62.7,230.3Z" transform="translate(4.5 -211.3)"/><path class="cls-10" d="M45.7,226.3h-.9l16,8,.2-.7Z" transform="translate(4.5 -211.3)"/><path class="cls-10" d="M41.9,228.5h-.4L55.3,236l-.9-1Z" transform="translate(4.5 -211.3)"/><path class="cls-10" d="M41.7,224.6h.4l-7-3.5h-.3l.8.4h0c-.1,0-.1,0-.1.1h.1l5.7,2.8h.4Z" transform="translate(4.5 -211.3)"/><polygon class="cls-10" points="65.1 24 62.5 22.7 64.7 25.2 65.1 24"/><path class="cls-10" d="M55.8,236.5l-14.5-7.4H41l2.5,1.3h0a.1.1,0,0,1-.1.1h.2l13.3,6.9H57Z" transform="translate(4.5 -211.3)"/><path class="cls-10" d="M71.9,240.4h-.2l13.1,6.6.3-.4Z" transform="translate(4.5 -211.3)"/><path class="cls-10" d="M38.8,226.5H39l-10.5-5.4-.2.3h-.2l10.5,5.4h.2Z" transform="translate(4.5 -211.3)"/><polygon class="cls-10" points="73.8 28.4 71 27 69.8 27.9 73.8 28.4"/><path class="cls-10" d="M38.3,227h.2L28,221.5h0l-.2.3,10.3,5.3h.2Z" transform="translate(4.5 -211.3)"/><polygon class="cls-10" points="69.5 26.2 68.7 25.8 68.5 26.4 69.5 26.2"/><path class="cls-10" d="M37.8,227.5h.1L27.6,222l-.3.3,10.3,5.4h.2Z" transform="translate(4.5 -211.3)"/><path class="cls-10" d="M40,225.6l.2-.2h.2l-11-5.5-.2.3h-.1l9.8,5H39l.6.3H40Z" transform="translate(4.5 -211.3)"/><path class="cls-10" d="M42.5,228h-.3a.1.1,0,0,1-.1.1l-.2.2,12.3,6.3h0l2.7,1.5,1.4.7-.2-.9Z" transform="translate(4.5 -211.3)"/><path class="cls-10" d="M44,227h-.2l-.3.2h-.2l-.2.2,5.2,2.7h0l8.9,4.5h0c-.1,0,0,.1,0,.1h.1l.7.4-.5-2.1Z" transform="translate(4.5 -211.3)"/><polygon class="cls-10" points="67.2 25.1 66.5 24.7 66.7 25.5 67.2 25.1"/><polygon class="cls-10" points="66.6 32.4 66.6 32.4 66.6 32.4 66.6 32.4"/><path class="cls-10" d="M36.9,228.7h.2l-10.4-5.4-.3.3,10.4,5.5h.1Z" transform="translate(4.5 -211.3)"/><path class="cls-10" d="M37.2,228.3h.1l-4.8-2.5h-.2l4.8,2.5h.1Z" transform="translate(4.5 -211.3)"/><path class="cls-10" d="M56.7,240.9l-4.5-.6,2.3-.5-3.8-2h-.2a.1.1,0,0,0-.1.1h-.1l-10.7-5.6h-.1v.6l9.5,5h0l-9.5-5v.2h-.1v.4h.2l15.7,8.3,1.7-1.3Z" transform="translate(4.5 -211.3)"/><path class="cls-10" d="M36,230.7v-.4l-5.9-3.1H30c-.1,0-.1,0-.1.1H30l3.4,1.8h-.1l2.6,1.3H36Z" transform="translate(4.5 -211.3)"/><path class="cls-10" d="M52.3,237.2l3.6.6-15.2-7.9-.2.2v.4h-.1l7.9,4.2h.1l.7.4h-.1a.1.1,0,0,0,.1.1h0l7,3.7h.6Z" transform="translate(4.5 -211.3)"/><path class="cls-10" d="M82.4,251.1l2.4-3.7-15.1-7.5-2.6.5,6.2,3.2h-.1L67,240.5l-1.3.2,4.5,2.3-4.9-.8.6.7,3.3,1.7-3.3-1.7,2.5,2.7-4.5-2.3.2.5L77,250.6h-.1L69.8,247h-.3l-5.3-2.7.2.6,11.2,5.9L64.4,245l.7,2.2-2.9-3.4H62l-1.1,3.6-.9-3.9-1.1.9,1.2.7H60l-1.2-.6-1.9,1.5.8-2.1-1.7-.9-2.2.5,1.3-1-14.6-7.7h-.3l12.4,6.6h-.1l-13.2-7v.6c0,.2.1.5.1.7s.1.4.2.6a1.4,1.4,0,0,0,.2.7l24.6,13.4h0l-8-4.3c-.1,0-.1,0-.1-.1h-.1a.1.1,0,0,0-.1.1h-.5a.1.1,0,0,0-.1.1h-.1l-1.2.2H50.4l2.3,1.3h0l16.9,9.3h.1l5.2,2.9h0l-.7-.4h0l-26-14.3-1.4-.3-1.3-.5-1.2-.5L43,244l-1.1-.7-1-.7-1-.8a6,6,0,0,0-.8-.8l-13.5-7.5h-.3l4.4,2.4h0l38.6,21.5h-.1l-1.3-.7h0a.1.1,0,0,1-.1-.1h-.1l-47-26.1-.3.4h-.1l13.4,7.6h.1l30,16.8h0l-19-10.5h-.3L18.8,232.6l-.4.5,11.7,6.6-11.8-6.5-.2.3,25.3,14.4h0l8.5,4.8L28.2,239.7h-.3L17.7,234l-.3.3L44.9,250h-.1l-1.4-.8h-.2l29.4,16.9.9-1.4-.9-.5h.1l.9.5,2.4-3.6,2.2-3.5-2.4-1.3h.1l2.4,1.3.9-1.4Z" transform="translate(4.5 -211.3)"/><polygon class="cls-10" points="60.7 31.6 62.2 32.4 62.7 31.1 60.7 31.6"/><path class="cls-10" d="M35.9,231.3h0l-11-5.9v.2h-.1l11.1,6h.1Z" transform="translate(4.5 -211.3)"/><path class="cls-10" d="M35.7,233.8a1.3,1.3,0,0,0-.1-.6c0-.2.1-.4.1-.6l-11.8-6.2-.2.3,4.3,2.4h0l-4.4-2.3-.2.3-.7.8,13.1,7.2a1.3,1.3,0,0,0-.1-.6Z" transform="translate(4.5 -211.3)"/><path class="cls-10" d="M36.2,236.5a12362528204835.8,12362528204835.8,0,0,0-.2-.6h-.1l-13.7-7.4-.4.5h0l14.7,8.1-.2-.3A.4.4,0,0,0,36.2,236.5Z" transform="translate(4.5 -211.3)"/><path class="cls-10" d="M37.1,238.3l-.3-.5-.3-.6-14.8-8.1h-.1l-.7.9,16.8,9.2-.3-.5Z" transform="translate(4.5 -211.3)"/><path class="cls-10" d="M51.7,246l1.8.2a6,6,0,0,0,1.9,0L40.1,238l.2.4.2.4.2.3.2.4h0l.7.9.8.9.8.8,1,.8L48,245l1.8.6Z" transform="translate(4.5 -211.3)"/><path class="cls-11" d="M58,225.7l-.4-.3-.5-.2-.5-.2-.5-.3-.6-.2-.5-.2,3.9,1.9-.4-.2Z" transform="translate(4.5 -211.3)"/><path class="cls-11" d="M60.5,227.3l-.4-.3-.4-.2L54,224H52.2l9,4.4c-.1-.1-.2-.3-.4-.4Z" transform="translate(4.5 -211.3)"/><path class="cls-11" d="M52.3,225.5h.6L48,223.2h-.8l4.5,2.2h.6Z" transform="translate(4.5 -211.3)"/><path class="cls-11" d="M53.8,225.7h.8l-5.5-2.7h-.9l4.9,2.4h.7Z" transform="translate(4.5 -211.3)"/><path class="cls-11" d="M47.4,225.8h.8l-3.9-1.9h-1l1.6.8h0l1.7.9h.8Z" transform="translate(4.5 -211.3)"/><path class="cls-11" d="M46.1,226.1h.3l-3.7-1.8h-.5l3.6,1.8h.3Z" transform="translate(4.5 -211.3)"/><path class="cls-11" d="M63.6,230.8a.8.8,0,0,0-.2-.4l-.3-.4-1.5-.7.6.5c.2.2.4.3.5.5s.4.3.5.5l.5.6.4.2-.2-.4Z" transform="translate(4.5 -211.3)"/><path class="cls-11" d="M64.3,232.3l.3.4.2.4v-.3l-.2-.4-.2-.4c0-.1-.1-.2-.1-.3l-.5-.2c.2.1.3.2.3.4Z" transform="translate(4.5 -211.3)"/><path class="cls-11" d="M49.5,225.5h1.1l-4.3-2.1H44.5l3.9,1.9h1.1Z" transform="translate(4.5 -211.3)"/><path class="cls-11" d="M42.2,228.2h.3L39,226.3h-.4l3.3,1.8.2-.2A.1.1,0,0,0,42.2,228.2Z" transform="translate(4.5 -211.3)"/><path class="cls-11" d="M41.7,228.7h.2l-3.4-1.7h-.4l3.4,1.8h.2Z" transform="translate(4.5 -211.3)"/><path class="cls-11" d="M41.2,229.3h.1l-3.4-1.8h-.3l3.4,1.7h.2Z" transform="translate(4.5 -211.3)"/><path class="cls-11" d="M43.5,227.3l.3-.2h-.2l-3.2-1.6h-.2l-.2.2h-.4l3.5,1.8.2-.2Z" transform="translate(4.5 -211.3)"/><path class="cls-11" d="M45.3,226.4h.4l-3.6-1.9h-.8l3.5,1.8h.5Z" transform="translate(4.5 -211.3)"/><path class="cls-11" d="M40.4,230.3v-.2l.2-.2-3.4-1.7h-.2l3.1,1.6-3.1-1.6h-.3l3.4,1.7h.1Z" transform="translate(4.5 -211.3)"/><path class="cls-11" d="M39.5,232.5v-.2h.1l-3.5-1.9v.6h-.1l3.5,1.9v-.4Z" transform="translate(4.5 -211.3)"/><path class="cls-11" d="M39.3,233.2h.1v-.2l-3.5-1.8h0c0,.1,0,.1.1.1h0l3.3,1.8v-.4Z" transform="translate(4.5 -211.3)"/><path class="cls-11" d="M52.9,246.4h1.3l1.2-.2h0a6,6,0,0,1-1.9,0l-1.8-.2-1.9-.4L48,245l2.4,1.3h2.5Z" transform="translate(4.5 -211.3)"/><path class="cls-11" d="M40.5,238.8l-.2-.4-.2-.4-3.9-2.1H36a18543792307246.3,18543792307246.3,0,0,1,.3.9l.2.3,4.4,2.4-.2-.4Z" transform="translate(4.5 -211.3)"/><path class="cls-11" d="M39.4,235.9c0-.2-.1-.5-.1-.7v-.6l-3.6-2c0,.2-.1.4-.1.6a1.3,1.3,0,0,1,.1.6v.7a1.3,1.3,0,0,1,.1.6l4,2.1a1.4,1.4,0,0,1-.2-.7C39.5,236.3,39.5,236.1,39.4,235.9Z" transform="translate(4.5 -211.3)"/><path class="cls-11" d="M42.4,241.3l-.8-.9-.7-.9h0l-4.4-2.4.3.6.3.5.3.5.3.5,6.5,3.6-1-.8Z" transform="translate(4.5 -211.3)"/><path class="cls-11" d="M40.9,242.6l1,.7,1.1.7,1.3.6,1.2.5,1.3.5,1.4.3L39.1,241a6,6,0,0,1,.8.8Z" transform="translate(4.5 -211.3)"/><polygon class="cls-11" points="65.5 22.6 65.3 23.4 66.3 23.9 66 22.9 65.5 22.6"/><polygon class="cls-11" points="68.5 24.1 69.2 24.4 69.7 23.1 68.5 24.1"/><polygon class="cls-11" points="65.5 22.6 66 22.8 65.8 21.9 65.5 22.6"/><polygon class="cls-11" points="70.5 26 71.5 26.5 72.9 25.4 70.5 26"/><polygon class="cls-11" points="68.5 24.1 67.8 24.6 69 25.2 69.2 24.5 68.5 24.1"/><path class="cls-11" d="M70.2,243l-4.5-2.3,1.3-.2L58.1,236l.2.9,3.1,1.6h-.1L54.4,235l.9,1,3.5,1.8h-.1l-2.9-1.5,1.2,1.4h-.1l7.5,3.9h0l1.5.7-.6-.7Z" transform="translate(4.5 -211.3)"/><polygon class="cls-11" points="58.8 23.5 61.4 24.9 58.7 23.5 58.8 23.5"/><polygon class="cls-11" points="73.8 28.4 69.8 27.9 71 27 69.5 26.2 68.5 26.4 68.7 25.8 67.2 25.1 66.7 25.5 66.5 24.7 65.1 24 64.7 25.2 62.5 22.7 62 22.5 62.6 24.5 71.6 29.2 74.3 28.6 73.8 28.4"/><polygon class="cls-11" points="61.2 29.7 59 28.5 56.7 29 61.2 29.7"/><polygon class="cls-11" points="72.9 34.4 70.4 31.7 60.4 26.5 56.9 25.9 61.1 28.1 60.4 28.2 68.6 32.5 68.5 32 72.9 34.4"/><path class="cls-11" d="M58.5,241.3h-.3l3.9,2h0l2.3,1.2-.2-.6Z" transform="translate(4.5 -211.3)"/><polygon class="cls-11" points="68.9 33.7 66.7 32.5 69.6 35.9 68.9 33.7"/><polygon class="cls-11" points="65.5 36 66.6 32.5 61.4 29.8 59.7 31.1 60.7 31.6 62.7 31.1 62.2 32.4 63.4 33 64.5 32.1 65.5 36"/><polygon class="cls-11" points="63.3 33.1 62.2 32.5 61.4 34.6 63.3 33.1"/><polygon class="cls-11" points="60.5 31.6 59.6 31.1 58.3 32.1 60.5 31.6"/></g></g></g><image class="cls-12" width="578" height="502" transform="translate(25.6 20.1) scale(0.24)" xlink:href="medical_blue1.png"/><path class="cls-13" d="M44,275.1h89.2l.5.2v-2.4a4.6,4.6,0,0,0-4.7-4.3H112V254.4H63.4v14.2H48a4.6,4.6,0,0,0-4.7,4.3v49.4a4.7,4.7,0,0,0,4.7,4.4h81a4.7,4.7,0,0,0,4.7-4.4V279.6a1.2,1.2,0,0,1-1.1.5h-88s-1.1,0-1.1-.6v-3.9A.5.5,0,0,1,44,275.1Zm24.9-16.2h37.7v8.4H68.9Zm-1.6,38.6a2.3,2.3,0,0,1,2.4-2.1h8.4a1,1,0,0,0,1.1-1v-7.9a2.2,2.2,0,0,1,2.3-2h14a2.2,2.2,0,0,1,2.4,2v7.8s.1,1.1,1,1.1h8.5a2.2,2.2,0,0,1,2.3,2.1v13.1a2.2,2.2,0,0,1-2.3,2.2H99.1s-1.2.2-1.2,1.1v7.6a2.2,2.2,0,0,1-2.4,2.2h-14a2.2,2.2,0,0,1-2.3-2.2v-7.8c0-1-1.3-.9-1.3-.9H69.7a2.3,2.3,0,0,1-2.4-2.2Z" transform="translate(4.5 -211.3)"/></g></g></svg>