<svg xmlns="http://www.w3.org/2000/svg" xmlns:xlink="http://www.w3.org/1999/xlink" viewBox="0 0 223.3 157"><defs><style>.cls-1{fill:none;}.cls-2{isolation:isolate;}.cls-13,.cls-3{fill:#fff;}.cls-4{fill:#0453a5;}.cls-5{fill:#1e439b;}.cls-6{opacity:0.12;}.cls-7{clip-path:url(#clip-path);}.cls-8{clip-path:url(#clip-path-2);}.cls-9{fill:#e82327;}.cls-10{fill:#272870;}.cls-11{fill:#fbca0c;}.cls-12{opacity:0.75;mix-blend-mode:multiply;}.cls-13{fill-rule:evenodd;}</style><clipPath id="clip-path" transform="translate(-273.1 -225)"><path class="cls-1" d="M440.8,304.3a75.6,75.6,0,0,1-142.9,34.5h0a74.5,74.5,0,0,1-8.4-34.5,75.7,75.7,0,0,1,151.3,0Z"/></clipPath><clipPath id="clip-path-2" transform="translate(-273.1 -225)"><rect class="cls-1" x="281.3" y="262.8" width="213.7" height="142.49" transform="translate(149 -118.7) rotate(21.4)"/></clipPath></defs><title>medical_white</title><g class="cls-2"><g id="Layer_1" data-name="Layer 1"><path class="cls-3" d="M443.9,304.3A77.7,77.7,0,0,1,297,339.7h0a76.5,76.5,0,0,1-8.6-35.4,77.8,77.8,0,1,1,155.5,0Z" transform="translate(-273.1 -225)"/><path class="cls-4" d="M441.8,304.3a75.6,75.6,0,0,1-142.9,34.5h0a74.5,74.5,0,0,1-8.4-34.5,75.7,75.7,0,0,1,151.3,0Z" transform="translate(-273.1 -225)"/><path class="cls-5" d="M366.1,304.3" transform="translate(-273.1 -225)"/><g class="cls-6"><g class="cls-7"><g class="cls-8"><path class="cls-9" d="M382.1,257h.2l-13.2-6.3v.2Z" transform="translate(-273.1 -225)"/><path class="cls-9" d="M441.3,292.1h-.2l-2.2-1,28,13.5h.4c0-.1,0-.1-.1-.2h-.1l-92.7-45L430.7,286h.4a.1.1,0,0,0,.1-.1h-.3l-57.4-27.9h0l47.3,22.8h0a.1.1,0,0,0,.1.1h.1l-40.7-19.6h.1l91.1,43.8c.1,0,.2,0,.2.1h.2a.1.1,0,0,1,.1-.1h0c.1-.1.1-.1,0-.2h-.3l-26.9-12.9h.1c.1,0,.1-.1,0-.1h0a.1.1,0,0,0-.1-.1h-.1l-23.3-11.2h.1l62.2,29.7h.4c0-.1,0-.1-.1-.1s-.1-.1-.2-.1L437.2,286h0l23,11h.2l-44.9-21.5,25.3,12h.3c.1,0,.1,0,.1-.1h.1l43.2,20.5h.2L432,281.8h.1l2.3,1.1h.4l52.3,24.8h.2c.1,0,.1.1.2,0h.1c.1,0,.1,0,0-.1h-.3L369,251l-.9,1.5,1.4.7-1.4-.7-.3.4,1.1.6-1.1-.6-.3.4,3,1.4h-.1l-2.9-1.4-1.3,1.9,12.8,6.2h0l62.3,30.5C441.4,292.2,441.4,292.1,441.3,292.1Z" transform="translate(-273.1 -225)"/><path class="cls-3" d="M496.4,325.5a.1.1,0,0,0-.1-.1v-.2H496L382.7,268.5h.1l46.1,22.9h.4l63.3,31.4h.5c.1-.1.1-.1,0-.2h-.2a.1.1,0,0,0-.1-.1l-8.8-4.4h.1c0-.1,0-.1-.1-.2h-.3l-69.4-34.4h0s.1,0,0-.1h-.2l-27.8-13.8h.1l26.9,13.3h.4a497582161916.1,497582161916.1,0,0,0-.2-.2h0l-4.3-2.1h0l10.5,5.2h.4a.1.1,0,0,1-.1-.1.1.1,0,0,1-.1-.1L490,318.3h.5V318h-.3l-69.8-34.3h.1l3.7,1.8h.3a.1.1,0,0,1-.1-.1l-6.2-3h.1l44.6,21.7h.5v-.2h0a.1.1,0,0,1-.1-.1H463l-21.7-10.6h0L379,261.7h0l-12.9-6.3-3,4.6,76.3,38.5h-.3l-35.6-17.9h0l85.6,42.9h.6c0-.1-.1-.1-.1-.2h-.3L374.2,265l121.7,60.7h.2a.1.1,0,0,0,.1.1h.2Z" transform="translate(-273.1 -225)"/><path class="cls-9" d="M362.8,260.7l5.3,2.7h0l-5.4-2.7-.3.5,3.5,1.7h-.1l-3.4-1.7-2.4,3.7,59.4,31L475.8,325h.6c0-.1-.1-.1-.1-.2H476L368.2,268.7h.1l38.9,20h.4c0-.1,0-.1.1-.1h-.1a.1.1,0,0,0-.1-.1h-.1l-10.5-5.4,41.8,21.4h.5l14.4,7.4h.5c-.1-.1-.1-.1-.1-.2h-.2l-22.4-11.5h.1l60.7,31.1h.2a.1.1,0,0,0,.1.1h.2c.1,0,.1-.1,0-.1h0l-.2-.2h-.1L416,291h.2a.1.1,0,0,0-.1-.1h-.2l-4.7-2.4h.1l6.5,3.2a.1.1,0,0,0,.1.1h.1l-17.7-9h-.1l-29.5-15,9.9,5h.4L472.9,318h.5l-.2-.2a.1.1,0,0,1-.1-.1L405,283h-.1l-17-8.6h.1l13.5,6.8h.5a.1.1,0,0,0-.1-.1h-.2l-22.5-11.4h0l59.7,29.9h.4a.1.1,0,0,0,.1-.1h0l-76.3-38.5Z" transform="translate(-273.1 -225)"/><path class="cls-3" d="M356.9,269.8l26.9,14.5h.1l94.2,50.2h.5v-.2h-.3l-70.6-37.7h-.2l-24.3-12.9h-.1l-12.3-6.5h.1l7.2,3.8h.3l41.2,21.8h.5a.1.1,0,0,0-.1-.1h-.1c0-.1,0-.1-.1-.1l-40.4-21.5h0a.1.1,0,0,0,.1-.1h-.2l-14.4-7.6h0l116.9,61.7h.6c0-.1-.1-.1-.1-.2H482l-85.9-45.4h.1l3.4,1.7a.1.1,0,0,0,.1.1h.3a.1.1,0,0,0-.1-.1h-.1l-13.6-7.1,64,33.4a.1.1,0,0,1,.1.1h.4v-.2h-.1a.1.1,0,0,0-.1-.1h-.1l-62.7-32.9h0l32.7,17.1h.4c.1,0,.1,0,.1-.1h0l44.7,23.3h.5a.1.1,0,0,1,.1-.1h0c0-.1-.1-.1-.1-.2h-.3l-61.4-32h-.1l-34.9-18.1,10.9,5.6h.5c0-.1,0-.1-.1-.1h-.1l-3.1-1.6,41.9,21.7-59.4-31Z" transform="translate(-273.1 -225)"/><path class="cls-9" d="M415.4,309.2l22.8,12.5c0,.1.1.1.2.1h.3c0-.1,0-.1-.1-.1s0-.1-.1-.2h-.1l-64.5-35.6,69,37.8h0a.1.1,0,0,0,.1.1h.4a.1.1,0,0,0-.1-.1V323a.1.1,0,0,1-.1-.1l-35.8-19.7h.1c0-.1,0-.1-.1-.2h-.2l-52-28.6h.1l45.3,24.8h.5l14.1,7.7h.4a.1.1,0,0,0,.1-.1h0a.1.1,0,0,0-.1-.1h-.2l-1.1-.6h.1l42.4,23.1h.5v-.2a.1.1,0,0,1-.1-.1h-.2l-39.3-21.4h-.2l-29.6-16.1,46.2,25h.3a.1.1,0,0,0,.1-.1h.1c0-.1,0-.1-.1-.2h-.1a.1.1,0,0,0-.1-.1l-.4-.2,51,27.6h.6a.1.1,0,0,1-.1-.1v-.2H485L355.9,271.3l-2.3,3.5Z" transform="translate(-273.1 -225)"/><path class="cls-9" d="M355.9,271.2l36.6,19.7h0a.1.1,0,0,0,.1.1h.1c.1,0,.1,0,.1-.1h.1l66.2,35.6h.2a.1.1,0,1,0,.2,0c.1,0,.1,0,.1-.1h-.2c0-.1-.1-.1-.1-.2h0l-97-52.2h0L418.9,304h0a.1.1,0,0,0,.1.1h.3a.1.1,0,0,0,.1-.1h-.1c0-.1,0-.1-.1-.1h-.1l-39.8-21.4h.1l4.1,2.2h.3l-26.9-14.5Z" transform="translate(-273.1 -225)"/><path class="cls-3" d="M351.2,278.5l14.2,8h.3L434.1,325h.5l48.9,27.5h.5a.1.1,0,0,1,.1-.1h0v-.2h-.2c0-.1-.1-.1-.1-.2L377.5,292h.1l3.3,1.9h.3c.1,0,.1,0,.1-.1h-.2l-14.3-8.1h0l1.6.9h.4l20.5,11.4h.5a.1.1,0,0,0-.1-.1h-.2l-25.7-14.4h.1l44.4,24.8h.4a.1.1,0,0,0,.1-.1h-.3l-29.2-16.3,56.8,31.4h.5v-.2a.1.1,0,0,1-.1-.1h-.2l-27.6-15.4h.1V306h-.3l-49.3-27.3,2.6,1.3a.1.1,0,0,0,.1.1h.1l53.4,29.4-61.8-34.4Z" transform="translate(-273.1 -225)"/><path class="cls-3" d="M418.6,319.2h.1l46.7,26.6h.5v-.2a.1.1,0,0,0-.1-.1c0-.1,0-.1-.1-.1l-.2-.2L361.3,285.7h.1l5.2,3h.5l2.3,1.3h.2l97.7,55.2h.5v-.2h0l-.2-.2a.1.1,0,0,1-.1-.1L351.2,278.6l-.9,1.4Z" transform="translate(-273.1 -225)"/><path class="cls-9" d="M320.8,263h-.1l-19.2-10.9h-.3L319,262.7h0l-24.5-14h-.1l-.6.8,20.9,12.1h0l-21-12-.3.3L327,269.5l-33.7-19.3h0l-.3.3,8.1,4.7-8.1-4.7-.3.4,11.9,6.9h-.1l-9.6-5.6h-.3l23.1,13.6h0l-25.4-14.8-.5.6,29.9,17.6h-.1l-12.8-7.5h-.3l-16.9-9.9h0v.2L460.4,352.6h0c.1-.1.1-.1.1-.2h-.1c0-.1-.1-.1-.1-.2h-.2L339,280.5h.1l20.5,12.1h.4l25.8,15.1h.2l-10-5.9h.1l32,18.7h.4a.1.1,0,0,0,.1-.1h0l2.3,1.3h.3a.1.1,0,0,0,.1-.1h.1c0-.1,0-.1-.1-.2h-.1a.1.1,0,0,0-.1-.1l-16.2-9.5h-.1l-28.4-16.6h0l16.9,9.8h.5a497582161916,497582161916,0,0,1-.2-.2l-23.9-14,27.6,15.9h.4a497582161916,497582161916,0,0,0-.2-.2h0l-18.2-10.6,57.9,33.3h.4a.1.1,0,0,0-.1-.1h-.1l-59.5-34.4h-.1l-3.5-2.1h.1l28.8,16.6h.5l85.1,48.9h.5c.1-.1,0-.1,0-.2h0l-.2-.2H479L347.4,279.3h.2l11.7,6.6h.4l58.5,33.4h.4L350.3,280Z" transform="translate(-273.1 -225)"/><path class="cls-3" d="M291.3,252.6h.2l31.9,18.9h0L304,260.5h-.3L291,253l-.3.3L325.4,274h0l-34.8-20.6-.6.7,13.1,7.8h0a.1.1,0,0,0-.1.1h.1a.1.1,0,0,0,.1.1l20.3,12.2h0l14,8.4h-.1l-22.7-13.6h-.3a.1.1,0,0,1-.1.1l-24.9-14.9-.3.3,33,19.9H322l-11.5-6.8h-.3l-13-7.8h-.3l20,12.1h-.1l-6.9-4.2h-.4l-21.2-12.9-.3.4,166.3,102h-.2a.1.1,0,0,0-.1-.1l-50.5-30.8h0a.1.1,0,0,0,.1-.1h-.1c0-.1,0-.1-.1-.1s0-.1-.1-.2L368,305.3l16.9,10.3h.5l27.7,16.8h.5v-.2h-.3l-50.6-30.8,54.1,32.6a.1.1,0,0,0,.1.1h.3a.1.1,0,0,1,.1-.1h0l18.3,11h.5c.1-.1.1-.1,0-.1v-.2h-.3l-52.5-31.8h.1v-.2h-.2l-19.1-11.5h.1l15.4,9.3h.5l8.6,5.2h.3a.1.1,0,0,0,.1-.1h.1v-.2h0a.1.1,0,0,1-.1-.1H389l-6.8-4,84.7,50.5h.5a.1.1,0,0,0,.1-.1h0c0-.1,0-.1-.1-.2s0-.1-.1-.2h-.2l-60.5-36.2h.1v-.2h-.2l-23.8-14.2,4.8,2.9h.4l22.6,13.4h.5l9.1,5.3h.5l8.2,4.9h.5v-.2h-.1a.1.1,0,0,0-.1-.1H429l-42.9-25.5,73.8,43.5h.5L291.5,252.4Z" transform="translate(-273.1 -225)"/><path class="cls-9" d="M287.6,257l-.2.3,37.2,22.8h-.1l-29.4-17.9h-.3a.1.1,0,0,0-.1-.1h-.2l-7.6-4.7v.2l-.2.2,31.1,19.2h-.1l-23.5-14.4h-.3l6.1,3.8h0L286,258.9l-.4.6-.2.2,5.6,3.6h0l-5.8-3.6h-.1l-.3.3L301,270.5l-16.2-10.1-.4.6,134.7,85.4h0a.1.1,0,0,1-.1-.1h-.1L380.7,322h0c0-.1,0-.1-.1-.1h-.1l-21.9-13.9h.1l35.5,22.3h.4a.1.1,0,0,0,.1-.1h-.1c0-.1,0-.1-.1-.1s0-.1-.1-.1l-28-17.6h.1c0-.1-.1-.1-.1-.2h-.1l-20.2-12.7h0l70.6,44.1h.5v-.2h-.3l-43.8-27.5h0a.1.1,0,0,0-.1-.1h-.1l-35-21.9h.1l101.2,62.9h.6v-.2h-.1c0-.1,0-.1-.1-.2h-.2l-43.5-27.1h0l19.8,12.2h.5v-.2a.1.1,0,0,1-.1-.1h-.2l-69.2-42.9h.1l6.2,3.8h.5l22.2,13.7h.3a.1.1,0,0,0,.1-.1h.1v-.2h-.1a.1.1,0,0,1-.1-.1l-10.3-6.3h.1l18.8,11.5h.5l62.6,38.4h.4a.1.1,0,0,0,.1-.1h.1a.3.3,0,0,0-.1-.2.1.1,0,0,0-.1-.1H448L429.9,345h.1c0-.1,0-.1-.1-.2h-.2l-51.1-31.3h.1l75.1,45.8h.5L288,256.6Z" transform="translate(-273.1 -225)"/><path class="cls-3" d="M284.3,261l6.2,3.9h-.1l-6.1-3.9-.5.6,4.2,2.6h-.1l-4.2-2.6h-.1l-.4.5,12.3,7.8h-.2L283,262.6l-.3.4h-.1l.9.7h0l2.3,1.5h-.1a.1.1,0,0,1,.1.1l9.8,6.3-11.3-7.2c0-.1,0-.1-.1-.1h-.1a.1.1,0,0,0-.1.1h0l-2-1.3-.3.4L311,283.1h-.5l-27.3-17.6H283a.1.1,0,0,1-.1.1h-.1l-1.5-1-.3.3,6.9,4.6h-.1c0,.1,0,.1.1.1h0l9.2,5.9H297l-16.3-10.6h0L382,331.8h-.1a.1.1,0,0,1-.1-.1l-54.1-35.3h0l96,62.2h.5s.1-.1,0-.1V358h-.3l-55.8-36.3h.1l15.3,9.8a.1.1,0,0,0,.1.1h.3a.1.1,0,0,1,.1-.1h0a.1.1,0,0,0-.1-.1v-.2h-.2l-4.7-3,51,32.8h.5a.1.1,0,0,1,.1-.1v-.2h-.1V360h-.1l-85.5-55.2,71.3,45.9h.6c0-.1,0-.1-.1-.2a.1.1,0,0,0-.1-.1c0-.1-.1-.1-.1-.2l-43.7-28.1h0c-.1-.1-.1-.1-.1-.2a.1.1,0,0,1-.1-.1h0l-30.8-19.7h.1a.1.1,0,0,0-.1-.1h-.1l-14.9-9.6h0l66.7,42.5h.3a.1.1,0,0,0,.1-.1h.1V334h-.2L351.9,307h.1a.1.1,0,0,1-.1-.1l-14.1-9,110.4,70.1h.6v-.2h-.1c0-.1,0-.1-.1-.2h-.2l-60.7-38.6h.1a.1.1,0,0,0,.1-.1c0-.1-.1-.1-.1-.2h-.2l-11-7h.1a.1.1,0,0,0-.1-.1h-.1l-34.2-21.7h.1l76.2,48.2h0c.1,0,.2,0,.2.1h.3L284.4,261Z" transform="translate(-273.1 -225)"/><path class="cls-9" d="M280.1,266.1l-.7.9,11.3,7.5h0l22.4,14.8H313l-34-22.3-.3.4-.3.4,22.5,15h0l-22.6-15-.3.4,20.6,13.8h-.2l-9.6-6.4c-.1,0-.1,0-.1-.1h-.1a.1.1,0,0,0-.1.1h0l.8.6h-.1l-11.6-7.7h-.2l-.5.6L428.9,373c0-.1,0-.1.1-.1h.1v-.2a.1.1,0,0,0-.1-.1c0-.1-.1-.1-.1-.2l-7-4.7h0v-.2h-.1l-.2-.2L312,293.2h0l110.8,74.4h.5a.1.1,0,0,1,.1-.1v-.2h0l-.2-.2h-.1l-67.2-45.1h-.1l-.7-.5h0l74,49.4h.5a.1.1,0,0,0,.1-.1h0v-.2h-.2c0-.1-.1-.1-.1-.2l-37.5-25h0a.1.1,0,0,1,.1-.1h0c0-.1.1-.1.1-.2a.1.1,0,0,1-.1-.1h-.1c0-.1-.1-.1-.1-.2l-28.7-19.1h0v-.2H363l-36.9-24.5h.1l4.4,2.8c0,.1,0,.1.1.1h.2a.1.1,0,0,1,.1-.1l30.2,20h.3c.1,0,.1,0,.1-.1h0l18.8,12.4h.4a.1.1,0,0,0,.1-.1h-.2c0-.1,0-.1-.1-.2L368.2,326h.1l71.9,47.3h.1a.1.1,0,0,1,.1.1h.3a.1.1,0,0,0,.1-.1v-.2h-.1l-.2-.2h0L427.5,364h.1c0-.1-.1-.1-.1-.2h-.1c0-.1-.1-.1-.1-.2l-79.5-52.2h.2l77.2,50.5h.5v-.2a.1.1,0,0,1-.1-.1l-.2-.2h0l-72.5-47.5h.1l28.5,18.6h.5L280.7,265.4Z" transform="translate(-273.1 -225)"/><path class="cls-3" d="M276.9,270h0l16.4,11.1h0l10.4,7h-.1c0,.1,0,.1.1.1h0l7.4,5H311l-34.6-23.3-.8.9-.4.5,2.5,1.7h0a.1.1,0,0,0,.1.1l12.8,8.8h.1l2.6,1.8h-.1l-18.4-12.6-.3.4h0l.7.4h-.1l-.7-.5-.5.7,24,16.6h0l-24.1-16.5-.2.3,10.4,7.3h0l-10.5-7.2-.4.4,110.2,77.4h.1v-.2h-.2l-23-16.1h0V335h-.2l-32-22.3h0l28.5,19.8h.5v-.2h-.2l-39.8-27.7,45.8,31.7h.5l11.9,8.2h.4c0-.1,0-.1.1-.1h0l36,24.8h.5c.1-.1.1-.1.1-.2h-.1c0-.1,0-.1-.1-.2h-.1l-57.5-39.7h0l4.7,3.2h.3a.1.1,0,0,0,.1-.1h.1l11.3,7.8h.2a.1.1,0,0,0,.1.1c.1,0,.1,0,.1-.1h.1a.1.1,0,0,0,.1-.1h-.1a.1.1,0,0,0-.1-.1c0-.1,0-.1-.1-.1l-12.8-8.9h-.1l-24.6-16.9,20.2,13.7h.4a.1.1,0,0,0,.1-.1h-.1a.1.1,0,0,0-.1-.1l-36.1-24.7h.1l11.4,7.7h.4l94.2,64h.6c0-.1,0-.1-.1-.2h-.1c0-.1-.1-.1-.1-.2l-82.8-56.2h.1l74.6,50.4h.5v-.2h0c0-.1-.1-.1-.1-.2h-.2l-38.3-25.9h.1l50.1,33.8h.4l-152-103.1Z" transform="translate(-273.1 -225)"/><path class="cls-10" d="M343.4,241.3h-.2l24.3,11.7.3-.4Z" transform="translate(-273.1 -225)"/><path class="cls-10" d="M312.4,227l-.4.6,45.5,22h0l-45.6-22v.2h-.1l21,10.2.5.2.5.2.5.2.5.3.5.2.5.2.4.3.5.3,14,6.8h-.1l-13.2-6.3.4.3.4.3.4.3.3.3,24.8,12h.1l2.5,1.2,1.3-1.9Z" transform="translate(-273.1 -225)"/><path class="cls-10" d="M330.7,237.5h.5l.5.2-9.4-4.5h0c-.1-.1-.1-.1-.1,0h-.1l7.7,3.7h.9Z" transform="translate(-273.1 -225)"/><path class="cls-10" d="M368.5,250.8h0l.5.2v-.2l-4.4-2.1-13-6.2h0L314.1,225l-.4.5,19,9h0l-19.1-9v.2h-.1l11.3,5.4h.1l34.3,16.4h.1l8.9,4.3.9-1.5Z" transform="translate(-273.1 -225)"/><path class="cls-10" d="M317.6,228.5h-.2l50.4,24.1.3-.4Z" transform="translate(-273.1 -225)"/><path class="cls-10" d="M325.2,237h.5l-15.2-7.5h-.1l-.2.3h0l14.6,7.2h.4Z" transform="translate(-273.1 -225)"/><polygon class="cls-10" points="66 22.9 66.3 23.9 67.8 24.6 68.5 24.1 66 22.9"/><path class="cls-10" d="M326.3,237h.4l-2.6-1.3h-.3l2.1,1h.4Z" transform="translate(-273.1 -225)"/><path class="cls-10" d="M366.1,255.5l-11.9-5.8h-.3a.1.1,0,0,1-.1.1h.2l1.6.8h-.1l-14.8-7.1.3.3.3.4c.1.2.1.3.2.4l.3.4,8,4h0l-8-3.9c.1.2.1.3.2.4l.2.4c0,.1.1.2.1.3s.1.3.2.4l-.3-.4c-.1-.2-.1-.3-.2-.4l-.3-.5-.3-.4-6.3-3h-.4l-6.5-3.2H326l18.9,9.3h-.1l-19-9.4h-1.6l10.6,5.3h-.1l-10.6-5.2h-.7l15.3,7.6.2-.7.2,1,2.5,1.2,1.2-1-.5,1.4h0l-.2.7,1.5.8,2.4-.5-1.4,1,18.2,9.2.3-.6Z" transform="translate(-273.1 -225)"/><path class="cls-10" d="M321.4,237.6h.5l-12.8-6.4-.2.2-.2.3,12.2,6.1h.5Z" transform="translate(-273.1 -225)"/><path class="cls-10" d="M320.1,238h.3l-8.6-4.2h-.2c-.1,0-.1,0-.1.1h.1l8.2,4.2h.3Z" transform="translate(-273.1 -225)"/><path class="cls-10" d="M323,237.2h1l-14.1-6.9-.4.4,1.9,1h-.1l-1.9-.9-.2.3,12.9,6.4h.9Z" transform="translate(-273.1 -225)"/><path class="cls-10" d="M340.4,244.1l-.6-.6-.5-.4-7.1-3.5h-1.5l5.5,2.6h-.1l-5.6-2.8h-1.2l12,5.9-.4-.5Z" transform="translate(-273.1 -225)"/><path class="cls-10" d="M323.3,240h-.8l15.9,8.1.3-.8Z" transform="translate(-273.1 -225)"/><path class="cls-10" d="M319.5,242.3h-.3l13.7,7.1-.8-1Z" transform="translate(-273.1 -225)"/><path class="cls-10" d="M319.3,238.4h.4l-7-3.5h-.3a.1.1,0,0,1-.1.1h.2l.8.4h0l5.6,2.9h.4Z" transform="translate(-273.1 -225)"/><polygon class="cls-10" points="65.1 24 62.5 22.7 64.7 25.2 65.1 24"/><path class="cls-10" d="M333.4,250.3,319,242.8h-.3l2.4,1.3h.1l13.3,7h.2Z" transform="translate(-273.1 -225)"/><path class="cls-10" d="M349.6,254.2h-.3l13.1,6.7.3-.5Z" transform="translate(-273.1 -225)"/><path class="cls-10" d="M316.4,240.2h.3l-10.6-5.3-.2.2v.2l10.4,5.4h.1C316.4,240.3,316.4,240.3,316.4,240.2Z" transform="translate(-273.1 -225)"/><polygon class="cls-10" points="73.8 28.4 71 27 69.8 27.9 73.8 28.4"/><path class="cls-10" d="M315.9,240.7h.2l-10.4-5.4h-.1l-.2.2,10.4,5.4h.1Z" transform="translate(-273.1 -225)"/><polygon class="cls-10" points="69.5 26.2 68.7 25.8 68.5 26.4 69.5 26.2"/><path class="cls-10" d="M315.4,241.3h.2l-10.4-5.3-.3.3,10.4,5.3h.1Z" transform="translate(-273.1 -225)"/><path class="cls-10" d="M317.6,239.3h.4l-10.9-5.6-.3.4h-.1l9.8,5h.1l.7.3v-.2Z" transform="translate(-273.1 -225)"/><path class="cls-10" d="M320.1,241.8h-.5l12.3,6.3h-.1l2.8,1.4,1.4.7-.3-.9Z" transform="translate(-273.1 -225)"/><path class="cls-10" d="M321.7,240.7l-.3.2h-.2l-.3.2h-.2l5.2,2.7h.1l8.9,4.6h0l.8.4-.6-2.1Z" transform="translate(-273.1 -225)"/><polygon class="cls-10" points="67.2 25.1 66.5 24.7 66.7 25.5 67.2 25.1"/><polygon class="cls-10" points="66.6 32.4 66.6 32.4 66.6 32.4 66.6 32.4"/><path class="cls-10" d="M314.6,242.4h.1l-10.4-5.4-.3.3,10.5,5.4h.1Z" transform="translate(-273.1 -225)"/><path class="cls-10" d="M314.8,242.1h.1l-4.7-2.5h-.3l4.8,2.5h.1Z" transform="translate(-273.1 -225)"/><path class="cls-10" d="M334.3,254.7l-4.5-.6,2.4-.5-3.9-2.1H328l-10.8-5.7v.2a.3.3,0,0,0-.1.2h0c0,.1,0,.2-.1.2l9.5,5.1h0l-9.5-5h0v.4h.1l15.7,8.4,1.7-1.3Z" transform="translate(-273.1 -225)"/><path class="cls-10" d="M313.7,244.4h0c0-.1.1-.1.1-.2l-5.9-3.1h-.4a.1.1,0,0,1,.1.1l3.4,1.8h0l2.6,1.4v-.4Z" transform="translate(-273.1 -225)"/><path class="cls-10" d="M330,251l3.5.5-15.2-7.8h-.1v.6l7.9,4.1h0l.8.4h-.1c-.1,0,0,0,0,.1h.1l7,3.7.6-.2Z" transform="translate(-273.1 -225)"/><path class="cls-10" d="M360,264.9l2.4-3.7-15-7.6-2.7.6,6.2,3.2h0l-6.3-3.2-1.2.3,4.4,2.2-4.9-.7.6.7,3.3,1.7-3.2-1.7,2.4,2.7-4.4-2.4v.6l12.9,6.7h-.1l-7-3.7h-.4l-5.2-2.7.2.6,11.1,5.9-11.1-5.9.6,2.2-2.9-3.3h-.1l-1.1,3.5-1-3.9-1.1,1,1.2.6h0l-1.3-.7-1.8,1.6.7-2.2-1.7-.8-2.2.5,1.3-1-14.6-7.8h-.3c-.1.1,0,.1,0,.1h.1l12.3,6.6h0l-13.3-7.1a1.7,1.7,0,0,0,.1.7,1.3,1.3,0,0,0,.1.6,1.5,1.5,0,0,0,.1.7,6.4,6.4,0,0,1,.2.7l24.7,13.3H342l-8-4.4h-6l2.3,1.2h.1l16.8,9.3h0c-.1,0,0,0,0,.1h.1l5.3,2.9h0l-.8-.4h0l-26-14.2-1.3-.4-1.3-.4-1.3-.6-1.2-.6-1.2-.7-1-.7-.9-.8-.9-.8-13.5-7.4h-.3l4.5,2.5h0L346,271.9h-.1l-1.3-.7h-.3l-46.9-26.1-.4.5h-.1l13.4,7.5h.1l30.1,16.9h-.1l-18.9-10.6h-.3l-24.7-13.8-.5.6,11.7,6.6L296,246.9l-.3.4,25.4,14.4h0l8.5,4.8-23.8-13.3h-.3l-10.2-5.8-.3.4,27.5,15.7h-.1l-1.3-.7h-.3l29.5,17,.9-1.4-.9-.5h.1l.8.5,2.4-3.7,2.3-3.5-2.4-1.3h0l2.4,1.2,1-1.4Z" transform="translate(-273.1 -225)"/><polygon class="cls-10" points="60.7 31.6 62.2 32.4 62.7 31.1 60.7 31.6"/><path class="cls-10" d="M313.5,245h.1L302.5,239v.2h-.1l11.2,5.9h0Z" transform="translate(-273.1 -225)"/><path class="cls-10" d="M313.3,247.6v-1.2l-11.7-6.2-.3.3,4.4,2.3h-.1l-4.4-2.3-.2.3-.7.8,13.2,7.1a10998156482360.6,10998156482360.6,0,0,1-.2-1.2Z" transform="translate(-273.1 -225)"/><path class="cls-10" d="M313.9,250.2a3090632051081.6,3090632051081.6,0,0,0-.2-.6h-.2l-13.7-7.4-.4.5h0l14.7,8c0-.1-.1-.2-.1-.3A.4.4,0,0,1,313.9,250.2Z" transform="translate(-273.1 -225)"/><path class="cls-10" d="M314.7,252l-.3-.5c-.1-.2-.2-.3-.2-.5l-14.9-8.1h0l-.7.9,16.8,9.3-.4-.5Z" transform="translate(-273.1 -225)"/><path class="cls-10" d="M329.3,259.8l1.9.2H333l-15.3-8.3.2.4c.1.1.1.3.2.4l.2.4.3.4h0l.6.9.8.9.9.8,1,.8,3.7,2,1.8.7Z" transform="translate(-273.1 -225)"/><path class="cls-11" d="M335.7,239.4l-.5-.2-.5-.2-.5-.3-.5-.2-.5-.2-.5-.2,3.9,1.9-.5-.3Z" transform="translate(-273.1 -225)"/><path class="cls-11" d="M338.1,241.1l-.4-.3-.4-.3-5.6-2.7-.5-.2h-1.4l9,4.4-.3-.3Z" transform="translate(-273.1 -225)"/><path class="cls-11" d="M329.9,239.3h.6l-4.8-2.3h-.9l4.5,2.2h.6Z" transform="translate(-273.1 -225)"/><path class="cls-11" d="M331.5,239.5h.7l-5.5-2.6h-.8l4.8,2.4h.8Z" transform="translate(-273.1 -225)"/><path class="cls-11" d="M325,239.5h.8l-3.9-1.9h-1l1.7.9h0l1.6.8h.8Z" transform="translate(-273.1 -225)"/><path class="cls-11" d="M323.7,239.9h.4l-3.7-1.9h-.6l3.6,1.8h.3Z" transform="translate(-273.1 -225)"/><path class="cls-11" d="M341.3,244.5l-.3-.4-.3-.3-1.4-.7.5.4.6.6.5.5.4.5.5.2-.3-.4C341.4,244.8,341.4,244.7,341.3,244.5Z" transform="translate(-273.1 -225)"/><path class="cls-11" d="M342,246.1c.1.1.1.2.2.4l.3.4c-.1-.1-.1-.3-.2-.4s-.1-.2-.1-.3l-.2-.4c-.1-.1-.1-.2-.2-.4l-.4-.2.3.4Z" transform="translate(-273.1 -225)"/><path class="cls-11" d="M327.1,239.2h1.1l-4.2-2.1h-1.9l3.9,2h1.1Z" transform="translate(-273.1 -225)"/><path class="cls-11" d="M319.8,242h.3l-3.4-1.8h-.3c0,.1,0,.1-.1.2h-.1l3.4,1.7h.2Z" transform="translate(-273.1 -225)"/><path class="cls-11" d="M319.3,242.5h.2l-3.4-1.7h-.3l3.4,1.7h.1Z" transform="translate(-273.1 -225)"/><path class="cls-11" d="M318.8,243h.2l-3.4-1.7h-.3l3.4,1.8h.1Z" transform="translate(-273.1 -225)"/><path class="cls-11" d="M321.2,241h.2l.3-.2h-.5l-3.2-1.6h-.6v.2l3.4,1.7h.2Z" transform="translate(-273.1 -225)"/><path class="cls-11" d="M322.9,240.2h.4l-3.6-1.8h-.8l3.6,1.7h.4Z" transform="translate(-273.1 -225)"/><path class="cls-11" d="M318.1,244v-.2h.1l-3.4-1.8h-.2l3.2,1.7-3.2-1.6h-.2l3.4,1.8V244Z" transform="translate(-273.1 -225)"/><path class="cls-11" d="M317.1,246.3a.3.3,0,0,1,.1-.2v-.2l-3.4-1.8c0,.1-.1.1-.1.2h0v.4l3.4,1.8c.1,0,.1-.1.1-.2Z" transform="translate(-273.1 -225)"/><path class="cls-11" d="M317,247v-.2h0l-3.4-1.9h0l3.3,1.7h.1Z" transform="translate(-273.1 -225)"/><path class="cls-11" d="M330.6,260.2h.6l-1.9-.2-1.9-.4-1.8-.7,2.4,1.4h2.6Z" transform="translate(-273.1 -225)"/><path class="cls-11" d="M318.1,252.5c-.1-.1-.1-.3-.2-.4l-.2-.4-3.8-2.1h-.2a3090632051081.6,3090632051081.6,0,0,1,.2.6.4.4,0,0,0,.1.3c0,.1.1.2.1.3l4.5,2.5-.3-.4Z" transform="translate(-273.1 -225)"/><path class="cls-11" d="M317.1,249.6a1.3,1.3,0,0,1-.1-.6,1.7,1.7,0,0,1-.1-.7l-3.6-1.9v1.2a10998156482360.6,10998156482360.6,0,0,0,.2,1.2l3.9,2.2a6.4,6.4,0,0,0-.2-.7A1.5,1.5,0,0,1,317.1,249.6Z" transform="translate(-273.1 -225)"/><path class="cls-11" d="M320,255.1l-.8-.9-.6-.9h-.1l-4.3-2.4c0,.2.1.3.2.5l.3.5.3.6.4.5,6.5,3.6-1-.8Z" transform="translate(-273.1 -225)"/><path class="cls-11" d="M318.5,256.3l1,.7,1.2.7,1.2.6,1.3.6,1.3.4,1.3.4-9.1-5,.9.8Z" transform="translate(-273.1 -225)"/><polygon class="cls-11" points="65.5 22.6 65.3 23.4 66.3 23.9 66 22.9 65.5 22.6"/><polygon class="cls-11" points="68.5 24.1 69.2 24.4 69.7 23.1 68.5 24.1"/><polygon class="cls-11" points="65.5 22.6 66 22.8 65.8 21.9 65.5 22.6"/><polygon class="cls-11" points="70.5 26 71.5 26.5 72.9 25.4 70.5 26"/><polygon class="cls-11" points="68.5 24.1 67.8 24.6 69 25.2 69.2 24.5 68.5 24.1"/><path class="cls-11" d="M347.8,256.7l-4.4-2.2,1.2-.3-8.9-4.5.3.9,3,1.6h-.1l-6.8-3.6.8,1,3.5,1.8h-.1a.1.1,0,0,0,.1.1l-3-1.5,1.3,1.4h-.2l7.5,3.9h.1l1.4.8-.6-.7Z" transform="translate(-273.1 -225)"/><polygon class="cls-11" points="58.8 23.5 61.4 24.9 58.7 23.5 58.8 23.5"/><polygon class="cls-11" points="73.8 28.4 69.8 27.9 71 27 69.5 26.2 68.5 26.4 68.7 25.8 67.2 25.1 66.7 25.5 66.5 24.7 65.1 24 64.7 25.2 62.5 22.7 62 22.5 62.6 24.5 71.6 29.2 74.3 28.6 73.8 28.4"/><polygon class="cls-11" points="61.2 29.7 59 28.5 56.7 29 61.2 29.7"/><polygon class="cls-11" points="72.9 34.4 70.4 31.7 60.4 26.5 56.9 25.9 61.1 28.1 60.4 28.2 68.6 32.5 68.5 32 72.9 34.4"/><path class="cls-11" d="M336.1,255.1h-.4a.1.1,0,0,0,.1.1h.1l3.8,2.1h0l2.4,1.2-.2-.6Z" transform="translate(-273.1 -225)"/><polygon class="cls-11" points="68.9 33.7 66.7 32.5 69.6 35.9 68.9 33.7"/><polygon class="cls-11" points="65.5 36 66.6 32.5 61.4 29.8 59.7 31.1 60.7 31.6 62.7 31.1 62.2 32.4 63.4 33 64.5 32.1 65.5 36"/><polygon class="cls-11" points="63.3 33.1 62.2 32.5 61.4 34.6 63.3 33.1"/><polygon class="cls-11" points="60.5 31.6 59.6 31.1 58.3 32.1 60.5 31.6"/></g></g></g><image class="cls-12" width="578" height="502" transform="translate(25.7 15.7) scale(0.24)" xlink:href="medical_white1.png"/><path class="cls-13" d="M321.6,284.5h89.2l.5.2v-2.3a4.6,4.6,0,0,0-4.7-4.4H389.7V263.8H341.1V278H325.7a4.6,4.6,0,0,0-4.7,4.4v49.3a4.6,4.6,0,0,0,4.7,4.4h80.9a4.6,4.6,0,0,0,4.7-4.4V289.1c-.1.3-.5.4-1.1.4h-88s-1.1,0-1.1-.6V285C321.1,284.7,321.5,284.5,321.6,284.5Zm24.9-16.2h37.7v8.4H346.5ZM345,307a2.2,2.2,0,0,1,2.3-2.2h8.4c1.1,0,1.1-.9,1.1-.9v-8a2.2,2.2,0,0,1,2.3-2h14.1a2.1,2.1,0,0,1,2.3,2v7.8s.1,1.1,1.1,1.1H385a2.2,2.2,0,0,1,2.3,2.2v13a2.2,2.2,0,0,1-2.3,2.2h-8.3s-1.2.2-1.2,1.1V331a2.1,2.1,0,0,1-2.3,2.1H359.1a2.2,2.2,0,0,1-2.3-2.1v-7.8c0-1.1-1.2-1-1.2-1h-8.3A2.2,2.2,0,0,1,345,320Z" transform="translate(-273.1 -225)"/></g></g></svg>