<svg xmlns="http://www.w3.org/2000/svg" xmlns:xlink="http://www.w3.org/1999/xlink" viewBox="0 0 223.3 157"><defs><style>.cls-1{fill:none;}.cls-2{isolation:isolate;}.cls-3{fill:#1e439b;}.cls-4{fill:#e82327;}.cls-5{fill:#fff;}.cls-6{opacity:0.29;}.cls-7{clip-path:url(#clip-path);}.cls-8{clip-path:url(#clip-path-2);}.cls-9{fill:#272870;}.cls-10{fill:#fbca0c;}.cls-11{opacity:0.75;mix-blend-mode:multiply;}</style><clipPath id="clip-path" transform="translate(-108.3 -218)"><path class="cls-1" d="M275.9,297.2A75.6,75.6,0,0,1,133,331.7h0a75.6,75.6,0,1,1,142.9-34.5Z"/></clipPath><clipPath id="clip-path-2" transform="translate(-108.3 -218)"><rect class="cls-1" x="116.4" y="255.8" width="213.7" height="142.49" transform="translate(135 -59) rotate(21.4)"/></clipPath></defs><title>quota_red</title><g class="cls-2"><g id="Layer_1" data-name="Layer 1"><path class="cls-3" d="M201.3,297.2" transform="translate(-108.3 -218)"/><path class="cls-4" d="M279,297.2a77.7,77.7,0,0,1-146.9,35.5h0a76.9,76.9,0,0,1-8.5-35.5,77.7,77.7,0,0,1,77.7-77.7A77.8,77.8,0,0,1,279,297.2Z" transform="translate(-108.3 -218)"/><path class="cls-5" d="M276.9,297.2A75.6,75.6,0,0,1,134,331.7h0a75.6,75.6,0,1,1,142.9-34.5Z" transform="translate(-108.3 -218)"/><g class="cls-6"><g class="cls-7"><g class="cls-8"><path class="cls-4" d="M217.2,250h.3l-13.2-6.2-.2.2Z" transform="translate(-108.3 -218)"/><path class="cls-4" d="M276.5,285.1c0-.1,0-.1-.1-.1s0-.1-.1-.1h-.1l-2.1-1.1L302,297.3h.5c.1,0,.1,0,0-.1h-.3l-92.7-45.1,56.4,27.2a.1.1,0,0,0,.1.1h.2a.1.1,0,0,1-.1-.1l-57.5-27.8h0l47.3,22.8h.2l-40.7-19.7h.1l91.2,43.8h.5c0-.1,0-.1-.1-.1v-.2h-.1l-26.9-13h-.2l-23.2-11.1h0l62.2,29.8h.5c.1-.1,0-.1,0-.2H319l-46.7-22.4h0l23.1,11h.4a.1.1,0,0,0,.1-.1h-.1a.1.1,0,0,0-.1-.1h-.1l-45-21.5L276,279.9h.4l43.3,20.5h.4c0-.1,0-.1-.1-.2h-.2l-52.7-25h.2l2.2,1h.4a.1.1,0,0,1,.1-.1l52.3,24.7h.5c0-.1-.1-.1-.1-.2a.1.1,0,0,1-.1-.1h-.2L204.1,244l-.9,1.4,1.5.7-1.5-.7-.3.5,1.2.5-1.2-.5-.2.4,2.9,1.4h0l-3-1.4-1.2,1.9,12.7,6.2h0l62.4,30.6Z" transform="translate(-108.3 -218)"/><path class="cls-5" d="M331.6,318.5v-.2h-.3L217.8,261.4h.1L264,284.2h.4a.1.1,0,0,0,.1-.1l63.2,31.4h.6a.1.1,0,0,0-.1-.1c0-.1-.1-.1-.1-.2h-.2l-8.8-4.4h.2a.1.1,0,0,0-.1-.1h-.1l-.2-.2-69.4-34.4h-.3l-27.8-13.8h.1l26.9,13.2h.4c0-.1,0-.1.1-.1h0a.1.1,0,0,0-.1-.1h-.2l-4.3-2.1h.1l10.4,5.1h.4c0-.1,0-.1-.1-.1s0-.1-.1-.1l70.1,34.4h.5c.1,0,.1-.1,0-.1h0l-.2-.2a.1.1,0,0,1-.1-.1l-69.9-34.3h.1l3.7,1.8h.5a.1.1,0,0,0-.1-.1h-.1c0-.1,0-.1-.1-.1l-6.2-3h.2L298,296.2h0a.1.1,0,0,0,.1.1h.3a.1.1,0,0,0-.1-.1h-.1l-21.7-10.6h0l-62.4-30.6h.1l-13-6.3-2.9,4.6,76.3,38.6a.1.1,0,0,0-.1-.1h-.2l-35.7-17.9h0l85.7,42.9h.2a.1.1,0,0,0,.1.1h.2a.1.1,0,0,0-.1-.1h-.1c0-.1-.1-.1-.2-.2l-115-57.7L331,318.6h.6Z" transform="translate(-108.3 -218)"/><path class="cls-4" d="M197.9,253.6l5.4,2.7h-.1l-5.3-2.7-.3.4,3.4,1.7h0l-3.4-1.7-2.4,3.7,59.3,31L311,318h.2a.1.1,0,0,0,.1.1h0c0-.1-.1-.1-.1-.2h0L203.4,261.6h0l39,20.1h.2l-10.5-5.5,41.7,21.4h.4a.1.1,0,0,0,.1-.1h0l14.5,7.4h.2l-22.5-11.5h.2l60.6,31.1h.6v-.2h-.4l-76.3-39.2h.1a829303603134,829303603134,0,0,1-.2-.2l-4.7-2.4h.1l6.4,3.3h.2s0,.1.1,0h-.1l-17.7-9.1h.1a.1.1,0,0,0-.1-.1h-.1l-29.4-15,9.9,5h.3l92,46.7a.1.1,0,0,1,.1.1h.2a.1.1,0,0,0,.1-.1.1.1,0,0,0,.1-.1h-.4l-68.1-34.6h.1c.1,0,.1,0,.1-.1H240l-17-8.6h.1l13.6,6.7a.1.1,0,0,0,.1.1h.1l-22.6-11.4h0l59.8,30h.1c.1,0,.1.1.2,0h.2L198.3,253Z" transform="translate(-108.3 -218)"/><path class="cls-5" d="M192,262.8l27,14.5h0l94.2,50.2h0c.1,0,.2,0,.2.1h.2a.1.1,0,0,0,.1-.1h.1v-.2h-.1c0-.1-.1-.1-.1-.2h-.2l-70.5-37.7h0a.1.1,0,0,0-.1-.1h-.1l-24.4-13h.2c-.1,0-.1,0-.1-.1h-.2L206,268.8h0l7.2,3.8h.4l41.2,21.8h.1a.1.1,0,0,0,.1.1h.2a.1.1,0,0,1-.1-.1.1.1,0,0,1-.1-.1l-40.5-21.4h-.1L200,264.5h0l117,61.8h.2a.1.1,0,0,0,.1.1h.2a.1.1,0,0,0-.1-.1v-.2h-.2l-85.8-45.3h0l3.4,1.8h.2s.1.1.1,0h.1a.1.1,0,0,0,.1-.1h0v-.2H235l-13.6-7.2,63.9,33.4h.5c-.1-.1-.1-.1-.1-.2h-.2l-62.7-32.8h.1l32.7,17h.4l44.8,23.3h.2s.1.1.1,0h0c0-.1-.1-.1-.1-.2l-61.4-32h0c.1,0,.1,0,.1-.1h-.3l-34.8-18.2,10.9,5.7h.2l-3.1-1.6,41.9,21.6-59.3-31Z" transform="translate(-108.3 -218)"/><path class="cls-4" d="M250.6,302.2l22.7,12.5h.2a.1.1,0,0,0,.1.1h-.1L209,278.5l69,37.9h.5v-.2h-.3l-35.8-19.7h0a.1.1,0,0,0-.1-.1h0l-52-28.6h0l45.4,24.8h.4l14.2,7.7h.2c.1,0,.1,0,.1-.1h.1v-.2a2487910809933.5,2487910809933.5,0,0,0-.2-.2l-1.1-.6h0l42.4,23.2h.5a.1.1,0,0,0-.1-.1c0-.1-.1-.1-.2-.2l-39.2-21.4h0c-.1-.1-.1-.1-.1-.2h-.2L223,282.8l46.1,25h.5a.1.1,0,0,0-.1-.1h-.2l-.4-.3,51,27.6h.5a.1.1,0,0,0,.1-.1v-.2h-.2l-.2-.2L191,264.3l-2.3,3.5Z" transform="translate(-108.3 -218)"/><path class="cls-4" d="M191.1,264.2l36.5,19.7h.4l66.2,35.6h.6v-.2h-.3l-97-52.3h0L254,297h.2a.2.2,0,0,0,.3-.1h-.3l-39.7-21.3h0l4.1,2.1h.4l-27-14.5Z" transform="translate(-108.3 -218)"/><path class="cls-5" d="M186.4,271.4l14.2,8h.3l68.3,38.4h.3a.1.1,0,0,0,.1-.1h.1l48.9,27.6c.1,0,.2,0,.2.1h.2a.1.1,0,0,0,.1-.1h.1V345h-.3L212.7,285h0l3.3,1.8h.5a.1.1,0,0,0-.1-.1h-.1l-14.3-8h0l1.6.9h.3l20.5,11.4h.3l-25.8-14.4h.1l44.5,24.7h.4c0-.1-.1-.1-.1-.2h-.1l-29.2-16.3,56.7,31.4h.5a.1.1,0,0,0,.1-.1h-.1c0-.1-.1-.1-.1-.2a.1.1,0,0,1-.1-.1l-27.7-15.3h0a.1.1,0,0,0-.1-.1l-49.3-27.4,2.6,1.4h.1l53.5,29.5-61.9-34.4Z" transform="translate(-108.3 -218)"/><path class="cls-5" d="M253.8,312.2h0l46.7,26.6h.5c.1,0,.1-.1,0-.1v-.2h-.3L196.4,278.7h.1l5.3,3h.3a.1.1,0,0,0,.1-.1h0l2.3,1.3h.3L302.4,338h.6c0-.1-.1-.1-.1-.2h-.3l-116.3-66-.9,1.4Z" transform="translate(-108.3 -218)"/><path class="cls-4" d="M156,256h-.1l-19.3-11h-.2l17.8,10.2h0l-24.6-13.9h0l-.7.7,21,12.1h-.1l-21-12-.3.3,33.7,19.5-33.8-19.4h0l-.2.2,8,4.7-8.1-4.6-.3.3,11.9,7h0l-9.7-5.6h0a.1.1,0,0,0-.1-.1h-.2l23.2,13.5h-.1l-25.4-14.8-.5.6,29.9,17.6h0L144,255h-.3l-16.9-9.9h-.1v.2l169,100.2h0v-.2h-.1c0-.1-.1-.1-.2-.1l-121-71.5h0l20.6,12h0a.1.1,0,0,0,.1.1h.2l25.8,15.1h.5c0-.1,0-.1-.1-.1v-.2h-.2l-10-5.9h.1l32.1,18.8h.3a.1.1,0,0,1,.1-.1h.1l2.2,1.3h.5c0-.1-.1-.1-.1-.2h-.1L230,304.1h.1a.1.1,0,0,0-.1-.1h-.1L201.5,287h.1l16.9,9.8h.4a.1.1,0,0,0-.1-.1h-.1l-23.9-13.9,27.6,15.9h.5a.1.1,0,0,0-.1-.1h-.2l-18.2-10.5,57.9,33.2h.4a.1.1,0,0,0,.1-.1h0v-.2h-.3L203,285.6h.2a.1.1,0,0,1-.1-.1H203l-3.5-2h0l28.9,16.5h.2c.1,0,.1,0,.1-.1h.1l85.1,48.8h.6c0-.1-.1-.1-.1-.2h-.1l-.2-.2h0L182.6,272.2h.1l11.8,6.6c0,.1,0,.1.1.1h.2l58.6,33.4h.4l-68.4-39.3Z" transform="translate(-108.3 -218)"/><path class="cls-5" d="M126.5,245.5h.2l31.9,18.9h-.1l-19.3-11.3h-.3l-12.8-7.6-.3.4L160.6,267h0l-34.9-20.6-.5.6,13.1,7.9h0l20.3,12.2h0c-.1.1,0,.1,0,.1h.1l13.9,8.4h0l-22.8-13.5h-.3l-25-14.9-.2.4,33,19.9h-.1l-11.5-6.9h-.4l-13-7.8h-.2L152,266.1h-.1L145,262h-.1c0-.1,0-.1-.1-.1h-.1l-21.3-12.9-.3.5,166.4,102c0-.1-.1-.1-.1-.2h-.3l-50.4-30.8h0v-.2h0a.1.1,0,0,1-.1-.1h-.2l-35.2-21.5L220,308.5h.5l27.8,16.9h.4a.1.1,0,0,0,.1-.1h-.1c0-.1,0-.1-.1-.2h-.1l-50.6-30.7,54,32.6h.2a.1.1,0,0,0,.1.1h.2l18.4,11.1h.4a.1.1,0,0,0,.1-.1h-.1c0-.1,0-.1-.1-.2H271l-52.5-31.7h.1a.1.1,0,0,0-.1-.1h-.2l-19.1-11.6h.1l15.5,9.2h.4l8.7,5.1h.4a.1.1,0,0,0,.1-.1h-.3l-6.7-4.1,84.7,50.6h.6c-.1,0-.1-.1-.1-.2h-.3l-60.5-36.2h0a.1.1,0,0,0,.1-.1h-.1c0-.1,0-.1-.1-.2a.1.1,0,0,1-.1-.1h0l-23.8-14.2,4.8,2.9h.3a.1.1,0,0,0,.1-.1h.1l22.5,13.4h.5l9.1,5.4h.4c.1,0,.1,0,.1-.1h0l8.2,4.8h.5c0-.1-.1-.1-.1-.2h-.2l-42.9-25.4L295,345.6h.5a.1.1,0,0,0,.1-.1l-169-100.2Z" transform="translate(-108.3 -218)"/><path class="cls-4" d="M122.7,250l-.2.2,37.3,22.9h-.1l-29.4-17.9h-.6l-7.6-4.6h-.2v.3l31,19.2h-.1l-23.4-14.3H129a.1.1,0,0,1-.1.1h.1l6.1,3.7H135l-13.8-8.6-.5.5-.2.3,5.7,3.5h-.1l-5.8-3.7h-.1l-.2.3,16.1,10.2-16.2-10.1-.4.5,134.8,85.4H254L215.8,315h.1v-.2h-.1a.1.1,0,0,1-.1-.1h0l-22-13.8h.1l35.5,22.3h.5v-.2a.1.1,0,0,1-.1-.1h-.2l-28-17.6h.1a.1.1,0,0,0,.1-.1h-.3l-20.2-12.7h0l70.6,44.1h.5a.1.1,0,0,0,.1-.1c0-.1-.1-.1-.1-.2h-.2l-43.9-27.4h.1c0-.1,0-.1-.1-.2h0c-.1,0-.1,0-.1-.1L173,285.4h.1l101.3,62.9a.1.1,0,0,0,.1.1h.3a.1.1,0,0,0,.1-.1h0v-.2h-.2c0-.1,0-.1-.1-.2l-43.5-27h0l19.8,12.3h.5v-.2a.1.1,0,0,0-.1-.1c0-.1,0-.1-.1-.1s-.1-.1-.1-.2h0l-69.2-42.9h0l6.3,3.9h.3a.1.1,0,0,0,.1-.1h0l22.3,13.7h.3c0-.1,0-.1-.1-.1l-10.3-6.4h.1l18.9,11.6h.3c.1,0,.1,0,.1-.1h0l62.7,38.4h.5c.1-.1.1-.1,0-.2h0c0-.1-.1-.1-.1-.2h-.2l-18-11.1h0v-.2H265l-.2-.2-51-31.3h0c.1,0,.1,0,.1-.1h0l75,45.8h.6l-166.4-102Z" transform="translate(-108.3 -218)"/><path class="cls-5" d="M119.4,254l6.2,3.9h0l-6.2-3.9-.5.6,4.3,2.7h-.1l-4.3-2.7h-.1l-.4.5,12.3,7.9h-.1l-12.3-7.8-.4.4v.2l1,.6h-.1l2.4,1.4h-.1l9.9,6.3L119.5,258h-.4l-2-1.3-.3.3L146.1,276h-.5l-27.3-17.6H118l-1.6-1-.3.4,6.9,4.5h.1l9.1,6h0l-16.3-10.5h-.1l101.3,66.4h0a.1.1,0,0,1-.1-.1h-.1l-54.1-35.3h0l96,62.2h.6v-.2a.1.1,0,0,0-.1-.1c0-.1,0-.1-.1-.2h-.1l-55.8-36.3h0l15.3,9.9h.3c.1,0,.1,0,.1-.1h.1V324H219a.1.1,0,0,0-.1-.1l-4.7-3.1,51,32.9h.4c.1,0,.1,0,.1-.1h0v-.2a.1.1,0,0,1-.1-.1h-.2l-85.5-55.2,71.4,45.9h.4c.1,0,.1,0,.1-.1h0v-.2h-.2l-43.7-28.2h0a.1.1,0,0,0-.1-.1c0-.1,0-.1-.1-.1h0l-30.7-19.8h-.1l-15-9.6h0l66.7,42.5h.5v-.2h-.1l-41.7-26.7h.1a.1.1,0,0,1-.1-.1H187l-14-8.9,110.4,70h0c0,.1.1.1.2.1h.3v-.2h-.1l-.2-.2-60.7-38.6h-.1l-11.1-7h.2v-.2h-.1c-.1,0-.1,0-.1-.1l-34.3-21.7h.1l76.3,48.1h.5L119.5,253.9Z" transform="translate(-108.3 -218)"/><path class="cls-4" d="M115.3,259l-.8.9,11.3,7.5h0c-.1,0-.1,0-.1.1h.1l22.4,14.8h0l-34-22.4-.4.4-.3.4,22.5,15h0l-22.5-14.9-.3.4,20.5,13.7h-.1l-9.7-6.5h-.3c-.1,0-.1,0-.1.1h.1l.8.5h0l-11.7-7.8v.2l-.5.6L264,365.9h.2v-.2h0v-.2h-.2l-6.9-4.7h0v-.2a.1.1,0,0,0-.1-.1V360h-.1L147.1,286.1h.1L258,360.4c0,.1.1.1.2.1h.3s.1-.1,0-.1v-.2h-.1l-.2-.2-67.1-45H191l-.8-.5h0l74.1,49.5h.5c.1-.1.1-.1,0-.2h0v-.2h-.2L227,337.5h.2v-.2a.1.1,0,0,1-.1-.1h-.2l-28.7-19.1h.1c0-.1,0-.1-.1-.2h-.1l-36.8-24.5h.1l4.3,2.9h.4l30.2,19.9a.1.1,0,0,1,.1.1h.4l18.7,12.3h.5v-.2a.1.1,0,0,1-.1-.1h-.1l-12.4-8.2h.1l71.8,47.3h.6v-.2h-.1c0-.1,0-.1-.1-.2h-.1L262.7,357h0v-.2h0c-.1-.1-.1-.1-.1-.2h-.2L183,304.2h.1l77.2,50.5h.5c0-.1,0-.2-.1-.2h-.1L188,306.5h.1l28.6,18.6h.1a.1.1,0,0,0,.1.1h.2L115.8,258.3Z" transform="translate(-108.3 -218)"/><path class="cls-5" d="M112.1,262.9H112l16.4,11.1h.1l10.4,7h0l7.3,5h0l-34.7-23.4-.7.9-.4.5,2.5,1.7h0l12.9,8.9h0l2.6,1.8h0L110,265.4l-.3.4h0l.6.4h-.1l-.6-.4-.5.6L133,283.1h0l-24-16.5-.3.4,10.5,7.2h-.1L108.7,267l-.4.5,110.2,77.3h0v-.2h0c0-.1-.1-.1-.1-.2a.1.1,0,0,1-.1-.1l-23.1-16.1h0v-.2H195l-32-22.3h.1L191.6,325h0c0,.1,0,.1.1.1h.2a.1.1,0,0,0,.1-.1h0v-.2h-.2L152,296.9l45.8,31.6h.3a.1.1,0,0,0,.1-.1h.1l11.9,8.2h.5l36.1,24.8h.5V361a.1.1,0,0,1-.1-.1l-.2-.2-57.5-39.6h.1l4.7,3.2h.4l11.4,7.8h.5v-.2a.1.1,0,0,1-.1-.1h-.1l-12.9-8.8h.2v-.2c-.1,0-.1,0-.1-.1h-.1L168.8,305,189,318.8h.4a.1.1,0,0,0,.1-.1h0a.1.1,0,0,0-.1-.1h-.1l-36.1-24.7h.1l11.4,7.8h.4l94.3,63.9h.4a.1.1,0,0,0,.1-.1V365h0c-.1-.1-.1-.1-.1-.2h-.2l-82.7-56.2h.1l74.5,50.3h.2c.1,0,.1.1.2,0h.2c0-.1,0-.1-.1-.2a.1.1,0,0,0-.1-.1c0-.1-.1-.1-.1-.2h0l-38.3-25.9h0l50.2,33.7h.3l-151.9-103Z" transform="translate(-108.3 -218)"/><path class="cls-9" d="M178.5,234.3h0c0-.1,0-.1-.1-.1h-.1l24.4,11.7.2-.4Z" transform="translate(-108.3 -218)"/><path class="cls-9" d="M147.6,220l-.5.5,45.6,22h-.1l-45.5-21.9-.2.2h-.1l21,10.1.5.2.5.2.6.3.5.2.4.2.5.3.5.3.4.2,14,6.8h-.1l-13.1-6.4.4.3.4.3.3.3.4.4,24.7,12h.1l2.6,1.2,1.2-1.9Z" transform="translate(-108.3 -218)"/><path class="cls-9" d="M165.9,230.5h.9l-9.3-4.5h-.2l7.7,3.8h.9Z" transform="translate(-108.3 -218)"/><path class="cls-9" d="M203.7,243.7h0l.4.3.2-.2-4.5-2.2-12.9-6.1h0L149.3,218l-.4.4,19,9h-.1l-19-9-.2.2h0l11.3,5.4h0l34.3,16.4h.1l8.9,4.2.9-1.4Z" transform="translate(-108.3 -218)"/><path class="cls-9" d="M152.8,221.5h-.2l50.3,24.1.3-.5Z" transform="translate(-108.3 -218)"/><path class="cls-9" d="M160.4,229.9h.4l-15.2-7.4h-.1l-.2.2h.1L160,230h.4Z" transform="translate(-108.3 -218)"/><polygon class="cls-9" points="66 22.9 66.3 23.9 67.8 24.6 68.5 24.1 66 22.9"/><path class="cls-9" d="M161.4,229.9h.5l-2.7-1.3h-.4c0,.1,0,.1.1.1h.1l2,1h.4Z" transform="translate(-108.3 -218)"/><path class="cls-9" d="M201.2,248.4l-11.9-5.7h-.2l1.6.8h-.1l-14.7-7.2.3.4.2.4.3.4.2.4,8,3.9h0l-8-3.9.2.3c.1.2.1.3.2.4s.1.2.2.4.1.2.1.3a.5.5,0,0,1-.2-.4l-.3-.4-.3-.4-.3-.4-6.3-3.1h-.3l-6.5-3.2h-2.3l18.9,9.4h-.1l-19-9.4h-1.5l10.5,5.2h-.1l-10.6-5.3h-.6l15.2,7.7.2-.8.3,1,2.4,1.2,1.3-1-.5,1.4.3.2h0l-.3-.2-.3.8,1.6.8,2.3-.6-1.3,1.1,18.1,9.1.4-.6Z" transform="translate(-108.3 -218)"/><path class="cls-9" d="M156.6,230.5h.5L144.2,224l-.2.3-.2.3,12.3,6.1h.5Z" transform="translate(-108.3 -218)"/><path class="cls-9" d="M155.2,231h.3l-8.5-4.2h-.3a.1.1,0,0,0-.1.1h.1l8.3,4.1h.2Z" transform="translate(-108.3 -218)"/><path class="cls-9" d="M158.2,230.2h.9L145,223.1l-.4.5,1.9.9h0l-1.9-1-.3.3,12.9,6.5h1Z" transform="translate(-108.3 -218)"/><path class="cls-9" d="M175.5,237l-.5-.5-.6-.5-7-3.4h-1.5l5.4,2.7h0l-5.6-2.7h-1.2l11.9,5.9-.4-.6Z" transform="translate(-108.3 -218)"/><path class="cls-9" d="M158.5,232.9h-.9l16,8,.2-.7Z" transform="translate(-108.3 -218)"/><path class="cls-9" d="M154.6,235.2h-.3l13.8,7.1-.9-1Z" transform="translate(-108.3 -218)"/><path class="cls-9" d="M154.5,231.3h.4l-7.1-3.5h-.2l.8.4h0l5.7,2.9h.4Z" transform="translate(-108.3 -218)"/><polygon class="cls-9" points="65.1 24 62.5 22.7 64.7 25.2 65.1 24"/><path class="cls-9" d="M168.6,243.2l-14.5-7.4h-.3l2.5,1.3h.1l13.3,6.9h.1Z" transform="translate(-108.3 -218)"/><path class="cls-9" d="M184.7,247.1h-.3c-.1,0-.1,0-.1.1h.2l13.1,6.6.3-.4Z" transform="translate(-108.3 -218)"/><path class="cls-9" d="M151.6,233.2h.2l-10.5-5.4-.2.3h-.2l10.4,5.4h.2A.1.1,0,0,1,151.6,233.2Z" transform="translate(-108.3 -218)"/><polygon class="cls-9" points="73.8 28.4 71 27 69.8 27.9 73.8 28.4"/><path class="cls-9" d="M151.1,233.7h.1l-10.4-5.3h0l-.2.3,10.3,5.3h.2Z" transform="translate(-108.3 -218)"/><polygon class="cls-9" points="69.5 26.2 68.7 25.8 68.5 26.4 69.5 26.2"/><path class="cls-9" d="M150.6,234.2h.1l-10.3-5.3-.3.3,10.3,5.4h.1A.1.1,0,0,1,150.6,234.2Z" transform="translate(-108.3 -218)"/><path class="cls-9" d="M152.8,232.3c0-.1.1-.1.2-.2h.2l-11-5.5-.3.3h-.1l9.9,5h.1l.6.3h.4Z" transform="translate(-108.3 -218)"/><path class="cls-9" d="M155.2,234.7a.1.1,0,0,1-.1.1h-.2l-.2.2,12.3,6.3h0l2.7,1.5,1.4.7-.2-.9Z" transform="translate(-108.3 -218)"/><path class="cls-9" d="M156.8,233.7h-.2l-.3.2h-.2l-.3.2,5.3,2.7H161a.1.1,0,0,1,.1.1h0l8.9,4.5h.1l.7.4-.5-2.1Z" transform="translate(-108.3 -218)"/><polygon class="cls-9" points="67.2 25.1 66.5 24.7 66.7 25.5 67.2 25.1"/><polygon class="cls-9" points="66.6 32.4 66.6 32.4 66.6 32.4 66.6 32.4"/><path class="cls-9" d="M149.7,235.4h.1l-10.4-5.4-.2.3,10.4,5.5h.1Z" transform="translate(-108.3 -218)"/><path class="cls-9" d="M150,235h.1l-4.8-2.5h-.2l4.7,2.5h.2Z" transform="translate(-108.3 -218)"/><path class="cls-9" d="M169.5,247.6,165,247l2.3-.5-3.9-2h-.3l-10.7-5.6h-.1v.2c0,.1-.1.1-.1.2v.2l9.5,5h0l-9.5-5v.2h-.1v.4h.2L168,249l1.6-1.3Z" transform="translate(-108.3 -218)"/><path class="cls-9" d="M148.8,237.4V237l-5.9-3.1h-.2l3.4,1.8H146c0,.1,0,.1.1.1h0l2.6,1.3h.1Z" transform="translate(-108.3 -218)"/><path class="cls-9" d="M165.1,243.9l3.5.6-15.1-7.9-.2.2v.4H153l7.9,4.2h-.1a.1.1,0,0,1,.1.1h.1l.7.4h0l7,3.7h.6Z" transform="translate(-108.3 -218)"/><path class="cls-9" d="M195.2,257.8l2.4-3.7-15.1-7.5-2.6.5,6.2,3.2H186l-6.3-3.2-1.2.2,4.5,2.3-5-.8.7.7,3.2,1.7-3.2-1.7,2.5,2.7-4.5-2.3.2.5,12.9,6.8h-.1l-7.1-3.7h-.3L177,251l.2.6,11.2,5.9-11.2-5.8.6,2.2-2.9-3.4h-.1l-1.1,3.6-.9-3.9-1.2.9,1.3.7h-.1l-1.2-.6-1.9,1.5.8-2.1-1.7-.9-2.2.5,1.3-1-14.6-7.7H153l12.3,6.6h0l-13.2-7v.6c0,.2.1.5.1.7a1.4,1.4,0,0,0,.2.6,1.4,1.4,0,0,0,.2.7l24.6,13.4h0l-8-4.3h-1l-1.2.2h-3.8l2.3,1.3h0l16.9,9.3h-.1a.1.1,0,0,0,.1.1h.1l5.2,2.9h0l-.7-.4h-.1l-26-14.3-1.3-.3-1.3-.5-1.3-.5-1.2-.6-1.1-.7-1-.7-1-.8-.8-.8-13.6-7.5h-.2a.1.1,0,0,0-.1.1h.1l4.4,2.5h0l38.6,21.5H181l-1.3-.7h-.3l-46.9-26.1-.3.4h-.1l13.4,7.6h.1l30,16.8h-.1a.1.1,0,0,0,.1.1h0l-19-10.5h-.3l-24.7-13.8-.5.5,11.7,6.6-11.7-6.5-.3.3,25.4,14.4h0l8.5,4.8-23.8-13.4h-.3l-10.1-5.7-.3.3,27.4,15.7h0l-1.4-.8H156l29.4,16.9.9-1.4-.9-.5h.1l.9.5,2.3-3.6,2.3-3.5-2.4-1.3h.1l2.4,1.3.9-1.4Z" transform="translate(-108.3 -218)"/><polygon class="cls-9" points="60.7 31.6 62.2 32.4 62.7 31.1 60.7 31.6"/><path class="cls-9" d="M148.7,238h0l-11-5.9-.2.2h-.1l11.2,6h.1Z" transform="translate(-108.3 -218)"/><path class="cls-9" d="M148.5,240.5a1.8,1.8,0,0,1,0-1.2l-11.8-6.2-.2.3,4.3,2.4h-.1l-4.3-2.3-.3.3-.6.8,13.1,7.2c0-.2-.1-.4-.1-.6Z" transform="translate(-108.3 -218)"/><path class="cls-9" d="M149,243.2v-.3c0-.1-.1-.2-.1-.4h-.1L135,235.2l-.4.5h0l14.6,8.1a.4.4,0,0,0-.1-.3C149.1,243.4,149,243.3,149,243.2Z" transform="translate(-108.3 -218)"/><path class="cls-9" d="M149.9,245l-.3-.5-.3-.6-14.8-8.1h-.1l-.7.8,16.8,9.3-.3-.5Z" transform="translate(-108.3 -218)"/><path class="cls-9" d="M164.5,252.7l1.8.2h1.9l-15.3-8.2c0,.1.1.2.1.4l.3.3a.5.5,0,0,0,.2.4l.2.4h0l.7.9.8.9.8.8,1,.8,3.7,2.1,1.9.6Z" transform="translate(-108.3 -218)"/><path class="cls-10" d="M170.8,232.4l-.5-.3-.4-.2-.5-.2-.6-.3-.5-.2-.5-.2,3.9,1.9-.4-.2Z" transform="translate(-108.3 -218)"/><path class="cls-10" d="M173.3,234l-.4-.3-.4-.3-5.7-2.7H165l9,4.4-.4-.4Z" transform="translate(-108.3 -218)"/><path class="cls-10" d="M165.1,232.2h.6l-4.9-2.4H160l4.5,2.2h.6Z" transform="translate(-108.3 -218)"/><path class="cls-10" d="M166.6,232.4h.8l-5.5-2.7H161l4.9,2.4h.7Z" transform="translate(-108.3 -218)"/><path class="cls-10" d="M160.2,232.5h.7l-3.8-1.9h-1l1.6.8h0l1.7.9h.8Z" transform="translate(-108.3 -218)"/><path class="cls-10" d="M158.9,232.8h.3l-3.7-1.8H155l3.6,1.8h.3Z" transform="translate(-108.3 -218)"/><path class="cls-10" d="M176.4,237.5l-.2-.4-.3-.4-1.5-.7.6.5.5.5.5.5.4.6.5.2-.2-.4Z" transform="translate(-108.3 -218)"/><path class="cls-10" d="M177.1,239l.3.4a.5.5,0,0,0,.2.4c0-.1-.1-.2-.1-.3s-.1-.3-.2-.4-.1-.2-.2-.4l-.2-.3-.4-.2.3.4Z" transform="translate(-108.3 -218)"/><path class="cls-10" d="M162.2,232.2h1.2l-4.3-2.1h-1.9l3.9,1.9h1.1Z" transform="translate(-108.3 -218)"/><path class="cls-10" d="M155,234.9h.1a.1.1,0,0,0,.1-.1l-3.4-1.7h-.2a.1.1,0,0,0-.1.1h-.2l3.4,1.8.2-.2Z" transform="translate(-108.3 -218)"/><path class="cls-10" d="M154.5,235.4h.1l-3.4-1.7h-.3l3.4,1.8h.2Z" transform="translate(-108.3 -218)"/><path class="cls-10" d="M154,236h.1l-3.4-1.8h-.1a.1.1,0,0,0-.1.1h-.1l3.4,1.7h.2Z" transform="translate(-108.3 -218)"/><path class="cls-10" d="M156.3,234l.3-.2h-.2l-3.2-1.6H153c-.1.1-.2.1-.2.2h-.4l3.4,1.8.3-.2Z" transform="translate(-108.3 -218)"/><path class="cls-10" d="M158,233.1h.5l-3.6-1.8h-.8l3.5,1.8h.4Z" transform="translate(-108.3 -218)"/><path class="cls-10" d="M153.2,237v-.2l.2-.2-3.4-1.7h-.3l3.2,1.6-3.2-1.6h-.2l3.4,1.7h.1Z" transform="translate(-108.3 -218)"/><path class="cls-10" d="M152.3,239.2V239h.1l-3.5-1.9v.6h-.1l3.5,1.9v-.2C152.2,239.3,152.3,239.3,152.3,239.2Z" transform="translate(-108.3 -218)"/><path class="cls-10" d="M152.1,239.9h.1v-.2l-3.5-1.8h0a.1.1,0,0,1-.1.1h.2l3.3,1.8v-.4Z" transform="translate(-108.3 -218)"/><path class="cls-10" d="M165.7,253.1H167l1.2-.2h-1.9l-1.8-.2-1.9-.4-1.9-.6,2.5,1.3h2.5Z" transform="translate(-108.3 -218)"/><path class="cls-10" d="M153.3,245.4l-.3-.3c0-.2-.1-.3-.1-.4l-3.9-2.1h-.2c0,.2.1.3.1.4v.3c0,.1.1.2.1.3a.4.4,0,0,1,.1.3l4.5,2.4-.2-.4A.5.5,0,0,1,153.3,245.4Z" transform="translate(-108.3 -218)"/><path class="cls-10" d="M152.2,242.6c0-.2-.1-.5-.1-.7v-.6l-3.6-2a1.8,1.8,0,0,0,0,1.2v.7c0,.2.1.4.1.6l4,2.1a1.4,1.4,0,0,1-.2-.7A1.4,1.4,0,0,1,152.2,242.6Z" transform="translate(-108.3 -218)"/><path class="cls-10" d="M155.2,248l-.8-.9-.7-.9h0l-4.4-2.4.3.6.3.5.3.5.3.5,6.5,3.6-1-.8Z" transform="translate(-108.3 -218)"/><path class="cls-10" d="M153.7,249.3l1,.7,1.1.7,1.2.6,1.3.5,1.3.5,1.3.3-9-4.9.8.8Z" transform="translate(-108.3 -218)"/><polygon class="cls-10" points="65.5 22.6 65.3 23.4 66.3 23.9 66 22.9 65.5 22.6"/><polygon class="cls-10" points="68.5 24.1 69.2 24.4 69.7 23.1 68.5 24.1"/><polygon class="cls-10" points="65.5 22.6 66 22.8 65.8 21.9 65.5 22.6"/><polygon class="cls-10" points="70.5 26 71.5 26.5 72.9 25.4 70.5 26"/><polygon class="cls-10" points="68.5 24.1 67.8 24.6 69 25.2 69.2 24.5 68.5 24.1"/><path class="cls-10" d="M183,249.7l-4.5-2.3,1.2-.2-8.8-4.5.2.9,3.1,1.6h-.1l-6.9-3.5.9,1,3.5,1.8h-.1l-2.9-1.5,1.2,1.4h-.1l7.5,3.9h0l1.5.7-.7-.7Z" transform="translate(-108.3 -218)"/><polygon class="cls-10" points="58.8 23.5 61.4 24.9 58.7 23.5 58.8 23.5"/><polygon class="cls-10" points="73.8 28.4 69.8 27.9 71 27 69.5 26.2 68.5 26.4 68.7 25.8 67.2 25.1 66.7 25.5 66.5 24.7 65.1 24 64.7 25.2 62.5 22.7 62 22.5 62.6 24.5 71.6 29.2 74.3 28.6 73.8 28.4"/><polygon class="cls-10" points="61.2 29.7 59 28.5 56.7 29 61.2 29.7"/><polygon class="cls-10" points="72.9 34.4 70.4 31.7 60.4 26.5 56.9 25.9 61.1 28.1 60.4 28.2 68.6 32.5 68.5 32 72.9 34.4"/><path class="cls-10" d="M171.3,248H171l3.8,2h.1l2.3,1.2-.2-.6Z" transform="translate(-108.3 -218)"/><polygon class="cls-10" points="68.9 33.7 66.7 32.5 69.6 35.9 68.9 33.7"/><polygon class="cls-10" points="65.5 36 66.6 32.5 61.4 29.8 59.7 31.1 60.7 31.6 62.7 31.1 62.2 32.4 63.4 33 64.5 32.1 65.5 36"/><polygon class="cls-10" points="63.3 33.1 62.2 32.5 61.4 34.6 63.3 33.1"/><polygon class="cls-10" points="60.5 31.6 59.6 31.1 58.3 32.1 60.5 31.6"/></g></g></g><image class="cls-11" width="464" height="522" transform="translate(43.1 18.7) scale(0.24)" xlink:href="quota_red1.png"/><rect class="cls-4" x="88.2" y="35.2" width="52.2" height="5.06" rx="2.5"/><rect class="cls-4" x="88.2" y="44.3" width="52.2" height="5.06" rx="2.5"/><path class="cls-4" d="M161.6,247.7v25.2h25.1V247.7Zm9.8,19.5-6.7-6.8,1.8-1.9,5.2,5.2,10.4-10.3,1.5,1.6Z" transform="translate(-108.3 -218)"/><rect class="cls-4" x="88.2" y="73.2" width="52.2" height="5.06" rx="2.5"/><rect class="cls-4" x="88.2" y="82.3" width="52.2" height="5.06" rx="2.5"/><rect class="cls-4" x="53.3" y="67.7" width="25.1" height="25.15"/><rect class="cls-4" x="88.2" y="111.2" width="52.2" height="5.06" rx="2.5"/><rect class="cls-4" x="88.2" y="120.3" width="52.2" height="5.06" rx="2.5"/><rect class="cls-4" x="53.3" y="105.7" width="25.1" height="25.15"/></g></g></svg>