<svg xmlns="http://www.w3.org/2000/svg" xmlns:xlink="http://www.w3.org/1999/xlink" viewBox="0 0 223.3 157"><defs><style>.cls-1{fill:none;}.cls-2{isolation:isolate;}.cls-3{fill:#1e439b;}.cls-4{fill:#ffc50b;}.cls-5{fill:#fff;}.cls-6{opacity:0.12;}.cls-7{clip-path:url(#clip-path);}.cls-8{clip-path:url(#clip-path-2);}.cls-9{fill:#e82327;}.cls-10{fill:#272870;}.cls-11{fill:#fbca0c;}.cls-12{opacity:0.75;mix-blend-mode:multiply;}</style><clipPath id="clip-path" transform="translate(-162.6 -211.6)"><path class="cls-1" d="M330.3,290.8a75.6,75.6,0,0,1-142.9,34.5h0a73.9,73.9,0,0,1-8.4-34.5,75.7,75.7,0,0,1,151.3,0Z"/></clipPath><clipPath id="clip-path-2" transform="translate(-162.6 -211.6)"><rect class="cls-1" x="170.8" y="249.4" width="213.7" height="142.49" transform="translate(136.4 -79.3) rotate(21.4)"/></clipPath></defs><title>quota_yellow</title><g class="cls-2"><g id="Layer_1" data-name="Layer 1"><path class="cls-3" d="M255.6,290.8" transform="translate(-162.6 -211.6)"/><path class="cls-4" d="M333.4,290.8a77.7,77.7,0,0,1-146.9,35.5h0a76.9,76.9,0,0,1-8.6-35.5,77.8,77.8,0,0,1,155.5,0Z" transform="translate(-162.6 -211.6)"/><path class="cls-5" d="M331.3,290.8a75.6,75.6,0,0,1-142.9,34.5h0a73.9,73.9,0,0,1-8.4-34.5,75.7,75.7,0,0,1,151.3,0Z" transform="translate(-162.6 -211.6)"/><g class="cls-6"><g class="cls-7"><g class="cls-8"><path class="cls-9" d="M271.6,243.6h.2l-13.2-6.2v.2Z" transform="translate(-162.6 -211.6)"/><path class="cls-9" d="M330.8,278.7h0a497582161915.8,497582161915.8,0,0,1-.2-.2h0l-2.2-1.1,28,13.6h.2a.1.1,0,0,0,.1.1h.1a.1.1,0,0,0-.1-.1h-.1l-92.7-45,56.3,27.1h.4a.1.1,0,0,0-.1-.1h-.1L263,244.3h0l47.3,22.8h.3c.1,0,.1,0,.1-.1h-.1a.1.1,0,0,0-.1-.1L269.8,247h.1L361,290.8h.5c.1,0,.1-.1,0-.1h0a.1.1,0,0,0-.1-.1h-.2l-26.9-13h.2c-.1,0-.1,0-.1-.1a.1.1,0,0,1-.1-.1h-.1l-23.3-11.1h.1l62.2,29.7h.5c0-.1,0-.1-.1-.2h-.3l-46.6-22.3h0l23,11h.4c0-.1,0-.1.1-.1h0a.1.1,0,0,1-.1-.1h-.2L305,261.5l25.3,12h.4c.1,0,.1,0,.1-.1h0L374,293.9h.6a.1.1,0,0,1-.1-.1h-.3l-52.7-25.1h.1l2.3,1h.4L376.6,294h.5c.1,0,.1-.1,0-.1h0v-.2c-.1,0-.2,0-.2-.1h0L258.5,237.6l-.9,1.4,1.4.7-1.4-.7-.3.5,1.1.6-1.1-.6-.3.4,3,1.4h-.1l-2.9-1.4-1.3,2,12.8,6.2h0l62.3,30.6C330.9,278.7,330.9,278.7,330.8,278.7Z" transform="translate(-162.6 -211.6)"/><path class="cls-5" d="M385.9,312.1c0-.1,0-.1-.1-.2h-.3L272.2,255.1h.1l46.1,22.9h.4l63.3,31.5h.5c.1,0,.1-.1,0-.1h0l-.2-.2a.1.1,0,0,1-.1-.1l-8.8-4.3h.1a.1.1,0,0,0-.1-.1.1.1,0,0,0-.1-.1h-.2l-69.4-34.5h0s.1-.1,0-.1h0a.1.1,0,0,0-.1-.1h-.1l-27.8-13.8h.1l26.9,13.3h.4a497582161916,497582161916,0,0,0-.2-.2h0l-4.3-2.1h0l10.5,5.1a.1.1,0,0,0,.1.1h.1c.1,0,.1,0,.1-.1h-.1l70.1,34.4h.2a.1.1,0,1,0,.2,0h0a.1.1,0,0,0-.1-.1h-.2L309.8,270h.1l3.7,1.8h0a.1.1,0,0,0,.1.1h.1l-6.2-3h.1l44.6,21.7h.2l-21.7-10.6h0l-62.3-30.6h0l-12.9-6.2-3,4.6,76.3,38.5h0a.1.1,0,0,0-.1-.1h-.2L293,266.9h0l85.6,42.9h.6v-.2h-.4L263.7,251.6l121.7,60.6h0c0,.1.1.1.2.1h.3Z" transform="translate(-162.6 -211.6)"/><path class="cls-9" d="M252.3,247.2l5.3,2.8h0l-5.4-2.7-.3.4,3.5,1.8h-.1l-3.4-1.7-2.4,3.7,59.4,30.9,56.4,29.2h.6v-.2h-.4L257.7,255.2h.1l38.9,20.1h.4c0-.1,0-.1-.1-.1s0-.1-.1-.1l-10.5-5.5,41.8,21.5h.5l14.4,7.4h.3c.1,0,.1,0,.1-.1h.1V298h-.3l-22.4-11.5h.1l60.7,31.1h.5c.1,0,.1-.1,0-.1v-.2H382a.1.1,0,0,0-.1-.1l-76.4-39.2h.1a.1.1,0,0,0,.1-.1h-.3l-4.7-2.5h.1l6.5,3.3h.4a497582161916.1,497582161916.1,0,0,0-.2-.2l-17.7-9h0a.1.1,0,0,1-.1-.1l-29.5-15,9.9,5.1h.4l91.9,46.6h.5v-.2h0a.1.1,0,0,1-.1-.1h-.2l-68.1-34.6h-.1l-17-8.6h.1l13.5,6.7h.4a.1.1,0,0,0,.1-.1h-.3l-22.5-11.3h0l59.7,30h.5l-76.3-38.5Z" transform="translate(-162.6 -211.6)"/><path class="cls-5" d="M246.4,256.4l26.9,14.5h.1l94.2,50.2h.5v-.2h-.3l-70.6-37.6H297l-24.3-13h0a.1.1,0,0,0-.1-.1l-12.3-6.6h.1l7.2,3.8h.3L309.1,288h.3a.1.1,0,0,0,.1-.1h.1v-.2h-.2l-40.4-21.4h.1a.1.1,0,0,0-.1-.1h-.1l-14.4-7.6h0l116.9,61.7h.5a.1.1,0,0,0,.1-.1h-.1c0-.1-.1-.1-.1-.2h-.2l-85.9-45.3h.1l3.4,1.8h.3c0-.1,0-.1-.1-.1h0L275.7,268l64,33.4a.1.1,0,0,0,.1.1h.2a.1.1,0,0,0-.1-.1l-62.7-32.9h0l32.7,17h.5l44.7,23.3h.5a.1.1,0,0,0,.1-.1h-.4l-61.4-32.1h.1a.1.1,0,0,0-.1-.1h-.1l-34.9-18.2,10.9,5.7h.4a.1.1,0,0,0-.1-.1l-3.1-1.6,41.9,21.6-59.4-30.9Z" transform="translate(-162.6 -211.6)"/><path class="cls-9" d="M304.9,295.8l22.8,12.5h.5v-.2h-.1a.1.1,0,0,0-.1-.1h-.1l-64.5-35.6,69,37.8h.4a.1.1,0,0,1,.1-.1h0v-.2h-.2l-35.8-19.7h.1a.1.1,0,0,0-.1-.1h-.2l-52-28.6h.1L290,285.5h.5l14.1,7.7h.4a.1.1,0,0,1,.1-.1h0v-.2h-.2l-1.1-.7h.1L346.2,315h.5v-.2h-.3L307.1,293h0a.1.1,0,0,0,.1-.1h-.1c0-.1,0-.1-.1-.1h-.1l-29.6-16.1,46.2,25h.4a.1.1,0,0,0,.1-.1h0a.1.1,0,0,0-.1-.1h-.1c0-.1,0-.1-.1-.1l-.4-.3,51,27.6h.6c-.1-.1-.1-.1-.1-.2a.1.1,0,0,1-.1-.1h-.2L245.4,257.9l-2.3,3.5Z" transform="translate(-162.6 -211.6)"/><path class="cls-9" d="M245.4,257.8,282,277.5h.3c.1,0,.1,0,.1-.1h0L348.6,313c0,.1.1.1.2.1h.2a.1.1,0,0,0,.1-.1h0v-.2h-.3l-97-52.2h0l56.6,30.3h.5c0-.1-.1-.1-.1-.2h-.2l-39.8-21.3h.1l4.1,2.2h.3l-26.9-14.5Z" transform="translate(-162.6 -211.6)"/><path class="cls-5" d="M240.7,265l14.2,8c.1,0,.1,0,.1.1h.2l68.4,38.4a.1.1,0,0,0,.1.1h.3c0-.1,0-.1.1-.1h0L373,339h.5c0-.1,0-.1.1-.1v-.2a.1.1,0,0,1-.1-.1l-.2-.2h-.1L267,278.6h.1l3.3,1.8h.4a497582161915.7,497582161915.7,0,0,1-.2-.2h0l-14.3-8h0l1.6.8h.4l20.5,11.5h.4c.1,0,.1,0,.1-.1H279l-25.7-14.4h.1L297.8,294h.2l-29.2-16.3,56.8,31.4h.2a.1.1,0,0,0,.1.1h-.1l-27.6-15.4h0a.1.1,0,0,0,.1-.1h0a.1.1,0,0,1-.1-.1H298l-49.3-27.4,2.6,1.4h.2l53.4,29.4-61.8-34.4Z" transform="translate(-162.6 -211.6)"/><path class="cls-5" d="M308.1,305.8h.1l46.7,26.7h.3a.1.1,0,0,0,.1-.1h0c0-.1,0-.1-.1-.2h-.1L250.8,272.3h.1l5.2,3h.5l2.3,1.3h.2l97.7,55.3h.5v-.2H357L240.7,265.2l-.9,1.3Z" transform="translate(-162.6 -211.6)"/><path class="cls-9" d="M210.3,249.6h-.1l-19.2-11h-.3l17.8,10.2h0l-24.5-14h-.1l-.6.8,20.9,12.1h0l-21-12-.3.3,33.6,19.5-33.7-19.4h0l-.3.3,8.1,4.6-8.1-4.6-.3.4,11.9,6.9H194l-9.6-5.6h-.3l23.1,13.5h0L181.8,238l-.5.5,29.9,17.6h-.1l-12.8-7.5H198l-16.9-9.9H181L349.9,339.2h0c.1,0,.1,0,.1-.1a.1.1,0,0,1-.1-.1c0-.1-.1-.1-.1-.2h-.2L228.5,267.1h.1l20.5,12h.4l25.8,15.1a.1.1,0,0,0,.1.1h.3c0-.1,0-.1-.1-.1h-.1l-10-5.9h.1l32,18.8h.3c.1,0,.1,0,.1-.1h.1l2.3,1.4h.5a.1.1,0,0,0-.1-.1c0-.1,0-.1-.1-.1h-.1l-16.2-9.5h.1v-.2h-.1a.1.1,0,0,1-.1-.1l-28.4-16.6h0l16.9,9.8h.5a497582161915.9,497582161915.9,0,0,1-.2-.2L249.2,276l27.6,15.9h.1s.1.1.1,0h.2a497582161915.9,497582161915.9,0,0,0-.2-.2h0l-18.2-10.5,57.9,33.2h.4v-.2h-.1l-59.5-34.4h-.1l-3.5-2h.1l28.8,16.5h.5L368.3,342h.2a.1.1,0,0,0,.1.1h.2c.1,0,.1-.1,0-.1v-.2h-.2c0-.1-.1-.1-.1-.2h0L236.9,265.8h.2l11.7,6.7h.4l58.5,33.3h.4l-68.3-39.3Z" transform="translate(-162.6 -211.6)"/><path class="cls-5" d="M180.8,239.1h.2l31.9,18.9h0l-19.4-11.3h-.3l-12.7-7.5-.3.3,34.7,20.7h0L180.1,240l-.6.7,13.1,7.8h-.1c.1,0,.1,0,.1.1h.1L213,261h-.1c0,.1,0,.1.1.1h0l14,8.4h-.1l-22.7-13.5h-.4l-24.9-14.9-.3.4,33,19.9h-.1L200,254.9h-.3l-13-7.7a.1.1,0,0,0-.1-.1h-.2l20,12.1h-.1l-6.9-4.1H199l-21.2-12.8-.3.4,166.3,102h0a.1.1,0,0,0-.1-.1c0-.1-.1-.1-.1-.2h-.1L293,313.9h.1c0-.1-.1-.1-.1-.2h-.1a.1.1,0,0,0-.1-.1l-35.3-21.5,16.9,10.3h.5L302.6,319h.2a.1.1,0,1,0,.2,0c.1,0,.1,0,.1-.1H303l-.2-.2h0l-50.6-30.7,54.1,32.6h.5l18.3,11.1h.5c.1,0,.1,0,0-.1h0c0-.1-.1-.1-.1-.2h-.2l-52.5-31.7h.1a497582161915.8,497582161915.8,0,0,0-.2-.2h0l-19.1-11.6h.1l15.4,9.2h.4c0-.1,0-.1.1-.1h0l8.6,5.2h.4a.1.1,0,0,0,.1-.1h-.1a.1.1,0,0,0-.1-.1l-6.8-4.1L356.4,347h.6v-.2a.1.1,0,0,0-.1-.1v-.2h-.2l-60.5-36.2H296l-23.8-14.2,4.8,2.8h.4L300,311.7h.3a.1.1,0,0,0,.1-.1h.1l9.1,5.4h0a.1.1,0,0,1,.1.1h.2a.1.1,0,0,0,.1-.1h.1l8.2,4.9h.1c.1,0,.1.1.2,0h.2a.1.1,0,0,0-.1-.1v-.2h-.1l-42.9-25.4,73.8,43.5h.2a.1.1,0,0,0,.1.1h.2L181,238.9Z" transform="translate(-162.6 -211.6)"/><path class="cls-9" d="M177.1,243.6l-.2.3,37.2,22.8H214l-29.4-18H184l-7.6-4.7v.2l-.2.2L207.2,264h-.1l-23.5-14.3h-.3l6.1,3.8h0l-13.9-8.6-.4.5-.2.3,5.6,3.5h0l-5.8-3.6h-.1l-.3.3,16.2,10.2L174.3,247l-.4.5,134.7,85.4h-.2l-38.2-24.1h0v-.2H270l-21.9-13.8h.1l35.5,22.2a.1.1,0,0,0,.1.1h.4c0-.1-.1-.1-.1-.2H284a.1.1,0,0,0-.1-.1l-28-17.6h-.1l-20.2-12.7h0l70.6,44.2h.4c.1,0,.1,0,.1-.1h0v-.2h-.2l-43.8-27.4h0c0-.1,0-.1-.1-.1s0-.1-.1-.1l-35-21.9h.1l101.2,62.9h.6c0-.1-.1-.1-.1-.2a.1.1,0,0,0-.1-.1h-.2l-43.5-27.1h0l19.8,12.3h.5v-.2h-.1a.1.1,0,0,0-.1-.1h-.1l-69.2-43h.1l6.2,3.9h.2c0,.1,0,.1.1.1a.1.1,0,0,1,.1-.1h.1l22.2,13.7h.4a.1.1,0,0,0,.1-.1h-.2l-10.3-6.4h.1l18.8,11.6h.3a.1.1,0,0,0,.1-.1h.1l62.6,38.4h.5a.1.1,0,0,0,.1-.1h0c0-.1,0-.1-.1-.2h-.1c0-.1-.1-.1-.1-.2l-18.1-11h.1v-.2h-.2c0-.1-.1-.1-.1-.2l-51.1-31.2h.1l75.1,45.8h.3a.1.1,0,0,0,.1-.1h.1l-166.3-102Z" transform="translate(-162.6 -211.6)"/><path class="cls-5" d="M173.8,247.6l6.2,3.9h-.1l-6.1-3.9-.5.6,4.2,2.7h-.1l-4.2-2.7h-.1l-.4.5,12.3,7.9h-.2l-12.3-7.8-.3.5h-.1l.9.6h0l2.3,1.5h0l9.8,6.3-11.3-7.2h-.3l-2-1.3-.3.3,29.3,19h-.2a.1.1,0,0,0-.1-.1H200l-27.3-17.5h-.4l-1.5-1-.3.4,6.9,4.5h0l9.2,5.9h-.1l-16.3-10.5h0l101.3,66.4h0c0-.1,0-.1-.1-.1h-.1l-54.1-35.3h0l96,62.2h.5c0-.1.1-.1,0-.2h0c0-.1-.1-.1-.1-.2h-.2L257.6,308h.1l15.3,9.9h.5v-.2h-.2l-4.7-3.1,51,32.9h.5c0-.1,0-.2-.1-.2h-.1l-85.5-55.2,71.3,45.9h.6a.1.1,0,0,0-.1-.1v-.2h-.1l-43.7-28.1H262l-30.8-19.8h-.1l-14.9-9.6h0l66.7,42.6h.4a.1.1,0,0,0,.1-.1h0c0-.1-.1-.1-.1-.2s-.1,0-.1-.1l-41.8-26.7h.1a.1.1,0,0,1,.1-.1h-.1v-.2h-.1l-14.1-9,110.4,70.1h0c.1,0,.2,0,.2.1h.2a.1.1,0,0,0,.1-.1h.1c0-.1,0-.1-.1-.2a.1.1,0,0,0-.1-.1l-.2-.2-60.7-38.6h.1c.1,0,.1,0,.1-.1h-.1a.1.1,0,0,0-.1-.1c0-.1,0-.1-.1-.1l-11-7h.1c0-.1,0-.1-.1-.2H266l-34.2-21.6h.1l76.2,48.1h.6c-.1,0-.1,0-.1-.1L173.9,247.5Z" transform="translate(-162.6 -211.6)"/><path class="cls-9" d="M169.6,252.6l-.7,1,11.3,7.4h0l22.4,14.8h-.1l-34-22.3-.3.4-.3.3,22.5,15h0l-22.6-15-.3.4,20.6,13.7h-.2l-9.6-6.5H178l.8.6h-.1l-11.6-7.8-.2.2-.5.6,152,103h.2v-.2h-.1c0-.1,0-.1-.1-.2h-.1l-7-4.7h0c0-.1.1-.1,0-.2h0c0-.1-.1-.1-.1-.2H311L201.5,279.7h0l110.8,74.4h.5a.1.1,0,0,0,.1-.1h0v-.2h-.2c0-.1-.1-.1-.1-.2l-67.2-45h.1a.1.1,0,0,0-.1-.1c0-.1,0-.1-.1-.1h0l-.7-.5h0l74,49.4h.6v-.2h0l-.2-.2h-.1l-37.5-25.1h.1c0-.1,0-.1-.1-.2h-.1l-28.7-19.1h0a.1.1,0,0,0,.1-.1h-.2l-36.9-24.5h.1l4.4,2.9h.4L250.7,309h.4l18.8,12.3h0a.1.1,0,0,0,.1.1h.4c0-.1-.1-.1-.1-.2h-.1a.1.1,0,0,0-.1-.1l-12.4-8.2h.1l71.9,47.2h0a.1.1,0,0,0,.1.1h.5a.3.3,0,0,1-.1-.2c0-.1-.1-.1-.1-.2h-.2L317,350.6h.1v-.2H317c0-.1,0-.1-.1-.2h-.1l-79.4-52.2h0a.1.1,0,0,1,.1-.1h0l77.2,50.5a.1.1,0,0,1,.1.1h.4V348h0c-.1-.1-.1-.1-.1-.2h-.2l-72.5-47.5h.1L271,318.5h.3a.1.1,0,0,0,.1-.1h.1L170.2,252Z" transform="translate(-162.6 -211.6)"/><path class="cls-5" d="M166.4,256.5h0l16.4,11.1h-.1a.1.1,0,0,1,.1.1h0l10.4,7h0l7.4,4.9h-.1l-34.6-23.4-.8,1-.4.4,2.5,1.7h.1l12.8,8.8h.1l2.6,1.8h-.1L164.3,259l-.3.4h0l.7.5h-.1l-.7-.5-.5.6,24,16.6h0l-24.1-16.6-.2.4,10.4,7.2h0L163,260.6l-.4.5,110.2,77.3h.1v-.2h-.1l-.2-.2-23-16.1h-.1c0-.1-.1-.1-.1-.2h0l-32-22.2h0l28.5,19.7h.4a.1.1,0,0,0-.1-.1h0l-39.8-27.7,45.8,31.6h.5l11.9,8.2h.5l36,24.9h.2a.1.1,0,0,0,.1.1h.3c0-.1-.1-.1-.1-.2a.1.1,0,0,0-.1-.1.1.1,0,0,0-.1-.1l-57.5-39.7h0l4.7,3.3h.4a.1.1,0,0,0,.1-.1h0l11.3,7.7h.1a.1.1,0,0,0,.1.1h.2a.1.1,0,0,0,.1-.1h.1a.1.1,0,0,0-.1-.1V325h-.1l-12.8-8.8h.1v-.2h-.2l-24.6-16.9,20.2,13.8h0a.1.1,0,0,1,.1.1h.4c0-.1,0-.1-.1-.2h-.1l-36.1-24.7h.1l11.4,7.8h.4l94.2,63.9h.6c0-.1,0-.2-.1-.2s0-.1-.1-.2H314L231.2,302h.1l74.6,50.4h.4c.1,0,.1,0,.1-.1h0v-.2h-.3l-38.3-26h.1L318,359.4h0a.1.1,0,0,1,.1.1h.3l-152-103Z" transform="translate(-162.6 -211.6)"/><path class="cls-10" d="M232.9,227.9h-.2L257,239.9l.3-.4Z" transform="translate(-162.6 -211.6)"/><path class="cls-10" d="M201.9,213.6l-.4.5,45.5,22h0l-45.6-21.9v.2h-.1l21,10.1.5.2.5.2.5.3.5.2.5.3.5.2.4.3.5.2,14,6.8H240l-13.2-6.3.4.3.4.3.4.3.3.3,24.8,12h.1l2.5,1.3,1.3-2Z" transform="translate(-162.6 -211.6)"/><path class="cls-10" d="M220.2,224.1h1l-9.4-4.5h-.2l7.7,3.8h.9Z" transform="translate(-162.6 -211.6)"/><path class="cls-10" d="M258,237.4h0l.5.2v-.2l-4.4-2.2-13-6.1h0l-37.6-17.6-.4.4,19,9.1h0l-19.1-9v.2h-.1l11.3,5.4h.1l34.3,16.4h0c0,.1,0,.1.1.1l8.9,4.2.9-1.4Z" transform="translate(-162.6 -211.6)"/><path class="cls-10" d="M207.1,215.1h-.2l50.4,24.1.3-.5Z" transform="translate(-162.6 -211.6)"/><path class="cls-10" d="M214.7,223.5h.5L200,216.1h-.1l-.2.2h0l14.6,7.2h.4Z" transform="translate(-162.6 -211.6)"/><polygon class="cls-10" points="66 22.9 66.3 23.9 67.8 24.6 68.5 24.1 66 22.9"/><path class="cls-10" d="M215.8,223.5h.4l-2.6-1.3h-.3a.1.1,0,0,1-.1.1h.1l2.1,1h.4Z" transform="translate(-162.6 -211.6)"/><path class="cls-10" d="M255.6,242.1l-11.9-5.8h-.2l1.6.8H245l-14.8-7.2.3.4.3.4c.1.1.1.3.2.4l.3.4,8,4h0l-8-3.9.2.4.2.3c0,.1.1.3.1.4s.1.2.2.4l-.3-.5-.2-.4-.3-.4-.3-.4-6.3-3.1h-.3a.1.1,0,0,1-.1.1h0l-6.5-3.1h-2.2l18.9,9.4h-.1l-19-9.4h-1.6l10.6,5.3h-.1l-10.6-5.3h-.7l15.3,7.7.2-.7.2.9,2.5,1.3,1.2-1-.5,1.3.4.2h-.1l-.3-.2-.2.8,1.5.8,2.4-.6-1.4,1.1,18.2,9.1.3-.5Z" transform="translate(-162.6 -211.6)"/><path class="cls-10" d="M210.9,224.2h.5l-12.8-6.3-.2.2-.2.3,12.2,6.1h.5Z" transform="translate(-162.6 -211.6)"/><path class="cls-10" d="M209.6,224.6h.3l-8.6-4.2h-.2l8.2,4.1h.3Z" transform="translate(-162.6 -211.6)"/><path class="cls-10" d="M212.5,223.8h1l-14.1-7-.4.5,1.9.9h-.1l-1.9-1-.2.4,12.9,6.4h.9Z" transform="translate(-162.6 -211.6)"/><path class="cls-10" d="M229.9,230.6l-.6-.5-.5-.5-7.1-3.4h-1.5l5.5,2.7h-.1l-5.6-2.7h-1.2l12,5.9-.4-.6A1.2,1.2,0,0,1,229.9,230.6Z" transform="translate(-162.6 -211.6)"/><path class="cls-10" d="M212.8,226.6H212l15.9,8.1.3-.8Z" transform="translate(-162.6 -211.6)"/><path class="cls-10" d="M209,228.9h-.3l13.7,7.1-.8-1Z" transform="translate(-162.6 -211.6)"/><path class="cls-10" d="M208.8,224.9h.4l-7-3.5a.1.1,0,0,0-.1-.1H202l.8.5h0l5.6,2.8h.4Z" transform="translate(-162.6 -211.6)"/><polygon class="cls-10" points="65.1 24 62.5 22.7 64.7 25.2 65.1 24"/><path class="cls-10" d="M222.9,236.8l-14.4-7.4h-.3l2.4,1.2h.1l13.3,6.9h.2Z" transform="translate(-162.6 -211.6)"/><path class="cls-10" d="M239.1,240.8h-.3a.1.1,0,0,1-.1.1h.2l13,6.6.3-.4Z" transform="translate(-162.6 -211.6)"/><path class="cls-10" d="M205.9,226.8h.3l-10.6-5.4-.2.3v.2l10.4,5.3h.2Z" transform="translate(-162.6 -211.6)"/><polygon class="cls-10" points="73.8 28.4 71 27 69.8 27.9 73.8 28.4"/><path class="cls-10" d="M205.4,227.3h.2l-10.4-5.3h-.1l-.2.3,10.4,5.3h.1Z" transform="translate(-162.6 -211.6)"/><polygon class="cls-10" points="69.5 26.2 68.7 25.8 68.5 26.4 69.5 26.2"/><path class="cls-10" d="M204.9,227.8c.1,0,.1,0,.1-.1h.1l-10.4-5.4-.3.3,10.4,5.4h.1Z" transform="translate(-162.6 -211.6)"/><path class="cls-10" d="M207.1,225.9h.2l.2-.2-10.9-5.5-.3.3h-.1l9.8,5.1h.1l.7.3h.3Z" transform="translate(-162.6 -211.6)"/><path class="cls-10" d="M209.6,228.3h-.3v.2a.1.1,0,0,0-.1.1l12.3,6.3h-.1l2.8,1.5,1.4.7-.3-.9Z" transform="translate(-162.6 -211.6)"/><path class="cls-10" d="M211.2,227.3h-.3l-.2.2h-.3c0,.1-.1.1-.2.2l5.2,2.7h.1l8.9,4.5h0l.8.4-.6-2.1Z" transform="translate(-162.6 -211.6)"/><polygon class="cls-10" points="67.2 25.1 66.5 24.7 66.7 25.5 67.2 25.1"/><polygon class="cls-10" points="66.6 32.4 66.6 32.4 66.6 32.4 66.6 32.4"/><path class="cls-10" d="M204.1,229h.1l-10.4-5.4-.3.3,10.5,5.5h.1Z" transform="translate(-162.6 -211.6)"/><path class="cls-10" d="M204.3,228.6h.1l-4.7-2.5h-.3l4.8,2.5h.1Z" transform="translate(-162.6 -211.6)"/><path class="cls-10" d="M223.8,241.3l-4.5-.7,2.4-.5-3.9-2h-.3l-10.8-5.6h0v.6l9.5,5h0l-9.5-5v.4h0c0,.1,0,.1-.1.2h.2l15.7,8.4,1.7-1.4Z" transform="translate(-162.6 -211.6)"/><path class="cls-10" d="M203.2,231v-.2h.1l-5.9-3.2h-.3l3.4,1.8h0l2.6,1.3h0Z" transform="translate(-162.6 -211.6)"/><path class="cls-10" d="M219.5,237.5l3.5.6-15.2-7.9c0,.1-.1.1-.1.2v.2c-.1,0-.1.1-.1.2s-.1.1-.1.2l7.9,4.1h0l.8.4h0l7,3.6h.6Z" transform="translate(-162.6 -211.6)"/><path class="cls-10" d="M249.5,251.5l2.4-3.7-15-7.6-2.7.6,6.2,3.1h0l-6.3-3.2-1.2.2,4.4,2.3-4.9-.8.6.7,3.3,1.7-3.2-1.6,2.4,2.7-4.4-2.4v.5l12.9,6.8H244l-7-3.7h-.4l-5.2-2.7.2.7,11.1,5.9-11.1-5.9.6,2.2-2.9-3.4h-.1l-1.1,3.5-1-3.9-1.1.9,1.2.7h0l-1.3-.6-1.8,1.5.7-2.1-1.7-.9-2.2.5,1.3-1L207.6,235h-.3c-.1,0,0,.1,0,.1h0c0,.1,0,.1.1.1h0l12.3,6.6h0l-13.3-7a1.3,1.3,0,0,0,.1.6,1.5,1.5,0,0,0,.1.7,2,2,0,0,0,.1.7c.1.2.1.4.2.6l24.7,13.4h-.1l-8-4.3h-1l-1.2.2h-3.8l2.3,1.3h0a.1.1,0,0,0,.1.1l16.8,9.3h0c-.1.1,0,.1,0,.1h.1l5.3,2.9h0l-.8-.4h0l-26-14.2-1.3-.4-1.3-.5-1.3-.5-1.2-.6-1.2-.7-1-.7-.9-.8-.9-.8-13.5-7.4h-.3l4.5,2.4h0l38.6,21.5h-.1l-1.3-.7h-.3l-46.9-26.1-.4.4v.2l13.4,7.5h.1L230,257h-.1L211,246.7h-.3L186,232.9l-.5.6,11.7,6.6-11.7-6.6-.3.3,25.4,14.4h0l8.5,4.8L195.3,240H195l-10.2-5.7-.3.3L212,250.3h-.1l-1.3-.8h-.3l29.5,16.9.9-1.3-.9-.6h.1l.8.5,2.4-3.6,2.3-3.5-2.4-1.3h0l2.4,1.3,1-1.4Z" transform="translate(-162.6 -211.6)"/><polygon class="cls-10" points="60.7 31.6 62.2 32.4 62.7 31.1 60.7 31.6"/><path class="cls-10" d="M203,231.6h.1L192,225.6h-.1v.2l11.2,5.9h0Z" transform="translate(-162.6 -211.6)"/><path class="cls-10" d="M202.8,234.2V233l-11.7-6.3-.3.3,4.4,2.4h-.1l-4.4-2.4-.2.3-.7.8,13.2,7.2a10998156482015.4,10998156482015.4,0,0,1-.2-1.2Z" transform="translate(-162.6 -211.6)"/><path class="cls-10" d="M203.4,236.8a6181264102277.9,6181264102277.9,0,0,0-.2-.6H203l-13.7-7.4-.4.5h0l14.7,8.1v-.3A.4.4,0,0,1,203.4,236.8Z" transform="translate(-162.6 -211.6)"/><path class="cls-10" d="M204.2,238.6l-.3-.5a1.4,1.4,0,0,1-.2-.6l-14.9-8h0l-.7.9,16.8,9.2-.4-.5Z" transform="translate(-162.6 -211.6)"/><path class="cls-10" d="M218.8,246.3l1.9.2h1.8l-15.3-8.2c.1.1.1.2.2.4l.2.4a.5.5,0,0,1,.2.4l.3.3h0l.6.9.8.9.9.8a3.9,3.9,0,0,0,1,.8l3.7,2.1,1.8.6Z" transform="translate(-162.6 -211.6)"/><path class="cls-11" d="M225.2,226l-.5-.2-.5-.3-.5-.2-.5-.3-.5-.2-.5-.2,3.9,1.9-.5-.2Z" transform="translate(-162.6 -211.6)"/><path class="cls-11" d="M227.6,227.7l-.4-.3-.4-.3-5.6-2.8h-1.9l9,4.4-.3-.3Z" transform="translate(-162.6 -211.6)"/><path class="cls-11" d="M219.4,225.8h.6l-4.8-2.4h-.9l4.5,2.2h.6Z" transform="translate(-162.6 -211.6)"/><path class="cls-11" d="M221,226h.7l-5.5-2.7h-.8l4.8,2.4h.8Z" transform="translate(-162.6 -211.6)"/><path class="cls-11" d="M214.5,226.1h.8l-3.9-1.9h-1l1.7.8h0l1.6.8h.8Z" transform="translate(-162.6 -211.6)"/><path class="cls-11" d="M213.3,226.4h.3l-3.7-1.8h-.6l3.6,1.8h.4Z" transform="translate(-162.6 -211.6)"/><path class="cls-11" d="M230.8,231.1l-.3-.4-.3-.4-1.4-.7.5.5.6.5a1.2,1.2,0,0,0,.5.5l.4.6.5.2-.3-.4C230.9,231.4,230.9,231.2,230.8,231.1Z" transform="translate(-162.6 -211.6)"/><path class="cls-11" d="M231.5,232.6l.2.4.3.5c-.1-.2-.1-.3-.2-.4s-.1-.3-.1-.4l-.2-.3-.2-.4-.4-.2.3.4Z" transform="translate(-162.6 -211.6)"/><path class="cls-11" d="M216.6,225.8h1.1l-4.2-2.1h-1.9l3.9,1.9h1.1Z" transform="translate(-162.6 -211.6)"/><path class="cls-11" d="M209.3,228.5h.3l-3.4-1.7h-.5l3.4,1.8a.1.1,0,0,1,.1-.1Z" transform="translate(-162.6 -211.6)"/><path class="cls-11" d="M208.8,229h.2l-3.4-1.8h-.3l3.4,1.8h.1Z" transform="translate(-162.6 -211.6)"/><path class="cls-11" d="M208.3,229.6h.2l-3.4-1.7H205c0,.1,0,.1-.1.1h-.1l3.4,1.8h.1Z" transform="translate(-162.6 -211.6)"/><path class="cls-11" d="M210.7,227.6l.2-.2h-.2l-3.2-1.6-.2.2h-.5l3.4,1.8c.1-.1.2-.1.2-.2Z" transform="translate(-162.6 -211.6)"/><path class="cls-11" d="M212.4,226.7h.4l-3.6-1.8h-.8l3.6,1.8h.4Z" transform="translate(-162.6 -211.6)"/><path class="cls-11" d="M207.6,230.6v-.2c0-.1.1-.1.1-.2l-3.4-1.7h-.2l3.2,1.7-3.2-1.7H204l3.4,1.8c0-.1,0-.2.1-.2S207.5,230.6,207.6,230.6Z" transform="translate(-162.6 -211.6)"/><path class="cls-11" d="M206.6,232.8v-.2h0l-3.4-1.8h-.1v.4h0l3.4,1.9v-.4Z" transform="translate(-162.6 -211.6)"/><path class="cls-11" d="M206.5,233.6v-.4l-3.4-1.8h0l3.3,1.8c.1-.1.1-.1.1-.2Z" transform="translate(-162.6 -211.6)"/><path class="cls-11" d="M220.1,246.8h1.2l1.2-.2h-1.8l-1.9-.2-1.9-.4-1.8-.6,2.4,1.3h2.6Z" transform="translate(-162.6 -211.6)"/><path class="cls-11" d="M207.6,239.1l-.2-.4c-.1-.2-.1-.3-.2-.4l-3.8-2.1h-.2a6181264102277.9,6181264102277.9,0,0,1,.2.6.4.4,0,0,0,.1.3v.3l4.5,2.4-.3-.3A.5.5,0,0,0,207.6,239.1Z" transform="translate(-162.6 -211.6)"/><path class="cls-11" d="M206.6,236.2a1.5,1.5,0,0,1-.1-.7,1.3,1.3,0,0,1-.1-.6l-3.6-1.9v1.2a10998156482015.4,10998156482015.4,0,0,0,.2,1.2l3.9,2.1c-.1-.2-.1-.4-.2-.6A2,2,0,0,1,206.6,236.2Z" transform="translate(-162.6 -211.6)"/><path class="cls-11" d="M209.5,241.6l-.8-.9-.6-.9H208l-4.3-2.4a1.4,1.4,0,0,0,.2.6l.3.5.3.5.4.5,6.5,3.6a3.9,3.9,0,0,1-1-.8Z" transform="translate(-162.6 -211.6)"/><path class="cls-11" d="M208,242.9l1,.7,1.2.7,1.2.6,1.3.5,1.3.5,1.3.4-9.1-5,.9.8Z" transform="translate(-162.6 -211.6)"/><polygon class="cls-11" points="65.5 22.6 65.3 23.4 66.3 23.9 66 22.9 65.5 22.6"/><polygon class="cls-11" points="68.5 24.1 69.2 24.4 69.7 23.1 68.5 24.1"/><polygon class="cls-11" points="65.5 22.6 66 22.8 65.8 21.9 65.5 22.6"/><polygon class="cls-11" points="70.5 26 71.5 26.5 72.9 25.4 70.5 26"/><polygon class="cls-11" points="68.5 24.1 67.8 24.6 69 25.2 69.2 24.5 68.5 24.1"/><path class="cls-11" d="M237.3,243.3l-4.4-2.3,1.2-.2-8.9-4.5.3.9,3,1.6h-.1l-6.8-3.5.8,1,3.5,1.8h0l-3-1.5,1.3,1.4H224l7.5,3.9h0c-.1,0-.1,0-.1.1h.2l1.4.7-.6-.7Z" transform="translate(-162.6 -211.6)"/><polygon class="cls-11" points="58.8 23.5 61.4 24.9 58.7 23.5 58.8 23.5"/><polygon class="cls-11" points="73.8 28.4 69.8 27.9 71 27 69.5 26.2 68.5 26.4 68.7 25.8 67.2 25.1 66.7 25.5 66.5 24.7 65.1 24 64.7 25.2 62.5 22.7 62 22.5 62.6 24.5 71.6 29.2 74.3 28.6 73.8 28.4"/><polygon class="cls-11" points="61.2 29.7 59 28.5 56.7 29 61.2 29.7"/><polygon class="cls-11" points="72.9 34.4 70.4 31.7 60.4 26.5 56.9 25.9 61.1 28.1 60.4 28.2 68.6 32.5 68.5 32 72.9 34.4"/><path class="cls-11" d="M225.6,241.7h-.2l3.8,2h0l2.4,1.3-.2-.7Z" transform="translate(-162.6 -211.6)"/><polygon class="cls-11" points="68.9 33.7 66.7 32.5 69.6 35.9 68.9 33.7"/><polygon class="cls-11" points="65.5 36 66.6 32.5 61.4 29.8 59.7 31.1 60.7 31.6 62.7 31.1 62.2 32.4 63.4 33 64.5 32.1 65.5 36"/><polygon class="cls-11" points="63.3 33.1 62.2 32.5 61.4 34.6 63.3 33.1"/><polygon class="cls-11" points="60.5 31.6 59.6 31.1 58.3 32.1 60.5 31.6"/></g></g></g><image class="cls-12" width="464" height="522" transform="translate(45 17.6) scale(0.24)" xlink:href="quota_yellow1.png"/><rect class="cls-4" x="89.9" y="34.2" width="52.2" height="5.06" rx="2.5"/><rect class="cls-4" x="89.9" y="43.3" width="52.2" height="5.06" rx="2.5"/><path class="cls-4" d="M217.6,240.3v25.1h25.2V240.3Zm9.9,19.4-6.8-6.7,1.8-2,5.3,5.3L238.1,246l1.6,1.5Z" transform="translate(-162.6 -211.6)"/><rect class="cls-4" x="89.9" y="72.2" width="52.2" height="5.06" rx="2.5"/><rect class="cls-4" x="89.9" y="81.3" width="52.2" height="5.06" rx="2.5"/><rect class="cls-4" x="55" y="66.7" width="25.1" height="25.15"/><rect class="cls-4" x="89.9" y="110.2" width="52.2" height="5.06" rx="2.5"/><rect class="cls-4" x="89.9" y="119.3" width="52.2" height="5.06" rx="2.5"/><rect class="cls-4" x="55" y="104.7" width="25.1" height="25.15"/></g></g></svg>