<svg xmlns="http://www.w3.org/2000/svg" xmlns:xlink="http://www.w3.org/1999/xlink" viewBox="0 0 223.3 157"><defs><style>.cls-1{fill:none;}.cls-2{isolation:isolate;}.cls-3{fill:#1e439b;}.cls-4{fill:#fff;}.cls-5{fill:#0453a5;}.cls-6{opacity:0.12;}.cls-7{clip-path:url(#clip-path);}.cls-8{clip-path:url(#clip-path-2);}.cls-9{fill:#e82327;}.cls-10{fill:#272870;}.cls-11{fill:#fbca0c;}.cls-12{opacity:0.75;mix-blend-mode:multiply;}</style><clipPath id="clip-path" transform="translate(-274.8 -218.4)"><path class="cls-1" d="M442.4,297.6a75.6,75.6,0,0,1-142.9,34.5h0a75.6,75.6,0,1,1,142.9-34.5Z"/></clipPath><clipPath id="clip-path-2" transform="translate(-274.8 -218.4)"><rect class="cls-1" x="282.9" y="256.2" width="213.7" height="142.49" transform="translate(146.6 -119.8) rotate(21.4)"/></clipPath></defs><title>quota_white</title><g class="cls-2"><g id="Layer_1" data-name="Layer 1"><path class="cls-3" d="M367.8,297.6" transform="translate(-274.8 -218.4)"/><path class="cls-4" d="M445.6,297.6a77.7,77.7,0,0,1-146.9,35.5h0a76.9,76.9,0,0,1-8.6-35.5,77.8,77.8,0,0,1,155.5,0Z" transform="translate(-274.8 -218.4)"/><path class="cls-5" d="M443.4,297.6a75.6,75.6,0,0,1-142.9,34.5h0a75.6,75.6,0,1,1,142.9-34.5Z" transform="translate(-274.8 -218.4)"/><g class="cls-6"><g class="cls-7"><g class="cls-8"><path class="cls-9" d="M383.7,250.4h.3l-13.2-6.2v.2Z" transform="translate(-274.8 -218.4)"/><path class="cls-9" d="M443,285.5h-.1a.1.1,0,0,0-.1-.1h0l-2.2-1.1,28,13.6h.2s.1.1.1,0h.2a.1.1,0,0,0-.1-.1h-.2l-92.7-45,56.3,27.1h.4a497582161915.7,497582161915.7,0,0,1-.2-.2l-57.5-27.8h.1l47.3,22.8h.3a.1.1,0,0,0-.1-.1L382,253.8h0a.1.1,0,0,0,.1-.1l91.1,43.8h.2l-26.9-13h.1a.1.1,0,0,1-.1-.1h-.1l-23.3-11.1h.1l62.2,29.7h.3c.1,0,.1,0,.1-.1h.1c0-.1-.1-.1-.1-.2h-.3l-46.6-22.3h0l23,11h.2l-44.9-21.4,25.3,12h.4a.1.1,0,0,0,.1-.1h0l43.2,20.5h.5a.1.1,0,0,1,.1-.1h-.1c0-.1-.1-.1-.1-.2h-.2l-52.7-25h.1l2.3,1h.4l52.3,24.7h.5l-.2-.2H489L370.7,244.4l-1,1.4,1.5.7-1.5-.7-.3.5,1.2.6-1.2-.6-.2.4,2.9,1.4h0l-2.9-1.4-1.3,1.9,12.8,6.2h-.1L443,285.6Z" transform="translate(-274.8 -218.4)"/><path class="cls-4" d="M498.1,318.9v-.2h-.3L384.4,261.9h.1l46.1,22.9h.4l63.3,31.5h.5c.1,0,0-.1,0-.1h0l-.2-.2a.1.1,0,0,1-.1-.1l-8.8-4.4h0c0-.1,0-.1-.1-.1h-.2L416,276.1h-.2L388,261.9h.1L415,275.1h.3a.1.1,0,0,1-.1-.1h0l-4.3-2.1h0l10.4,5.1h.3c.1,0,.1,0,.1-.1h-.1l70.1,34.4h.5a.1.1,0,0,0-.1-.1H492l-.2-.2L422,276.8h0l3.8,1.8h.2c.1,0,.1,0,.1-.1h.1a.1.1,0,0,0-.1-.1H426l-6.2-3h0c0-.1,0-.1.1-.1h0l44.6,21.7h.2L443,285.6h0L380.6,255h.1l-12.9-6.2-3,4.6L441.1,292H441a.1.1,0,0,0-.1-.1h-.1l-35.6-17.9h0l85.6,42.9h.6v-.2h-.1a.1.1,0,0,0-.1-.1H491L375.9,258.4,497.6,319h0c0,.1.1.1.2.1h.3Z" transform="translate(-274.8 -218.4)"/><path class="cls-9" d="M364.4,254l5.4,2.8h0l-5.4-2.7-.3.4,3.4,1.8h0l-3.4-1.8-2.4,3.8,59.4,30.9,56.4,29.2c.1,0,.2,0,.2.1h.2a.1.1,0,0,0,.1-.1h0a.1.1,0,0,0-.1-.1h-.2L369.9,262h0l39,20.1h.5c0-.1-.1-.1-.1-.2h-.2l-10.5-5.5,41.8,21.5h.5l14.4,7.4h.3c.1,0,.1,0,.1-.1h.1v-.2h-.2a.1.1,0,0,0-.1-.1L433.1,293h.1L493.9,324c0,.1.1.1.2.1h.3v-.2h-.2c0-.1-.1-.1-.2-.1l-76.3-39.2h-.1l-4.7-2.4h.1l6.5,3.3h.4c0-.1-.1-.1-.1-.2h-.1L402,275.1h.1a.1.1,0,0,0-.1-.1h-.2l-29.4-15,9.9,5a.1.1,0,0,0,.1.1h.2l92,46.6h.5v-.2h-.2a.1.1,0,0,0-.1-.1l-68.1-34.6h.1c-.1,0-.1,0-.1-.1h-.1l-17-8.6h.1l13.5,6.7h.2l-22.5-11.4h0l59.7,30h.5l-76.3-38.5Z" transform="translate(-274.8 -218.4)"/><path class="cls-4" d="M358.5,263.2l27,14.5h.1l94.2,50.2h.5v-.2h-.2c0-.1-.1-.1-.1-.2h0l-70.6-37.6h.1a.1.1,0,0,0-.1-.1h-.2l-24.3-13h-.1l-12.3-6.6h.1l7.2,3.8h.3l41.2,21.8h.5v-.2h-.2l-40.4-21.4h0s.1,0,0-.1h-.2l-14.3-7.6h0l116.9,61.7h.5a.1.1,0,0,0,.1-.1H484c0-.1-.1-.1-.1-.2h-.2l-85.9-45.3h0l3.5,1.8h.2a.1.1,0,0,0,.1-.1h0a.1.1,0,0,0-.1-.1h0l-13.6-7.2,64,33.4a.1.1,0,0,0,.1.1h.3a.1.1,0,0,1,.1-.1h-.1c0-.1-.1-.1-.1-.2a.1.1,0,0,1-.1-.1l-62.7-32.8h0l32.7,17h.5l44.7,23.3h.5a.1.1,0,0,0-.1-.1h-.2l-61.4-32.1h.1a.1.1,0,0,0-.1-.1H406l-34.9-18.2,10.9,5.7h.4c.1,0,.1,0,.1-.1h-.2l-3.1-1.6,41.9,21.6-59.4-30.9Z" transform="translate(-274.8 -218.4)"/><path class="cls-9" d="M417.1,302.6l22.8,12.5h.5v-.2h-.1a.1.1,0,0,0-.1-.1h-.1L375.6,279l69,37.8h.5v-.2H445a.1.1,0,0,0-.1-.1h-.1L409,296.6h-.2l-52-28.6h.1l45.3,24.8h.5l14.1,7.7h.4v-.2H417l-1.1-.6h0l42.5,23.1h.4c.1,0,.1,0,.1-.1h-.3l-39.3-21.5h0a.1.1,0,0,0,.1-.1h-.1c0-.1,0-.1-.1-.1a.1.1,0,0,0-.1-.1l-29.6-16.1,46.2,25h.4a.1.1,0,0,0,.1-.1h0a.1.1,0,0,0-.1-.1c0-.1,0-.1-.1-.1h-.1l-.4-.3,51,27.6h.6a.1.1,0,0,0-.1-.1v-.2h-.2c0-.1-.1-.1-.1-.2L357.6,264.7l-2.3,3.5Z" transform="translate(-274.8 -218.4)"/><path class="cls-9" d="M357.6,264.6l36.5,19.7h.4a.1.1,0,0,0,.1-.1h0l66.2,35.6h.5v-.2a.1.1,0,0,0-.1-.1H461l-97-52.2h0l56.6,30.3h0a.1.1,0,0,1,.1.1h.4v-.2h-.1a.1.1,0,0,1-.1-.1L381,275.6h.1l4.1,2.2h.3l-27-14.5Z" transform="translate(-274.8 -218.4)"/><path class="cls-4" d="M352.9,271.8l14.2,8h.3l68.3,38.4h.6l48.9,27.6h.5c.1-.1.1-.1,0-.2h0l-.2-.2h-.1L379.2,285.4h.1l3.3,1.8h.3a.1.1,0,0,0-.1-.1h0l-14.3-8h0l1.6.8h.4L391,291h.3a.1.1,0,0,0-.1-.1h0l-25.7-14.4h.1L410,300.8h.2L381,284.1l56.8,31.4h.4c.1,0,.1,0,.1-.1h0a.1.1,0,0,0-.1-.1h-.1c0-.1,0-.1-.1-.1l-27.6-15.4h0a.1.1,0,0,1,.1-.1h-.3l-49.3-27.4,2.6,1.4h.2l53.4,29.5-61.8-34.4Z" transform="translate(-274.8 -218.4)"/><path class="cls-4" d="M420.3,312.6h.1L467,339.2h.6c0-.1,0-.1-.1-.2h-.3L363,279.1h.1l5.2,3h.5l2.3,1.3h.2L469,338.5h.5v-.2h-.3l-116.3-66-.9,1.4Z" transform="translate(-274.8 -218.4)"/><path class="cls-9" d="M322.5,256.4h-.1l-19.2-11h-.3L320.7,256h0l-24.5-14h-.1l-.6.7L316.4,255h0l-21-12-.3.3,33.6,19.5L295,243.5h-.1l-.2.3,8.1,4.6-8.1-4.6-.3.4,11.9,6.9h-.1l-9.7-5.6h-.2l23.1,13.5h0L294,244.7l-.5.6,29.9,17.6h-.1l-12.8-7.5h-.3l-16.9-9.9h-.1L462.1,346h0c.1,0,.1-.1,0-.1v-.2a.1.1,0,0,1-.1-.1h-.2L340.7,273.9h.1l20.5,12h0a.1.1,0,0,0,.1.1h.2a.1.1,0,0,0,.1-.1L387.5,301a.1.1,0,0,0,.1.1h.3a.1.1,0,0,0-.1-.1h-.1l-10-5.9h.1l32,18.8h.5l2.3,1.4h.4c0-.1,0-.1-.1-.1h-.1l-16.3-9.6h.1a.1.1,0,0,1-.1-.1l-28.4-16.6h0l16.9,9.8h.3l-24-13.9,27.6,15.9h.4a.1.1,0,0,1-.1-.1h0L371,287.7l57.9,33.2a.1.1,0,0,0,.1.1h.4a.1.1,0,0,0-.1-.1v-.2a.1.1,0,0,1-.1-.1h0L369.6,286h-.1l-3.5-2h.1l28.8,16.5h.4l85.2,48.8c0,.1.1.1.2.1h.3v-.2h-.2c0-.1-.1-.1-.2-.2h0L349.1,272.6h.2l11.7,6.7h.4l58.5,33.3h.4L352,273.3Z" transform="translate(-274.8 -218.4)"/><path class="cls-4" d="M293,245.9h.2l31.9,18.9h0l-19.4-11.3h-.3l-12.8-7.6-.2.4,34.7,20.7h0l-34.8-20.6-.6.6,13.1,7.9h0l20.4,12.2h-.1c0,.1,0,.1.1.1h0l14,8.4h-.1l-22.7-13.5H316l-24.9-14.9-.3.4,33,19.9h-.1l-11.5-6.9H312c-.1,0-.1,0-.1.1h0l-13-7.8h-.4c0,.1,0,.1.1.1h0l19.9,12.1h0l-6.9-4.1h-.4L290,249.6l-.4.4L456,352h0c0-.1-.1-.1-.1-.2h-.1a.1.1,0,0,1-.1-.1l-50.5-30.8h.1c-.1-.1-.1-.1-.1-.2H405l-35.3-21.5,16.9,10.2a.1.1,0,0,0,.1.1h.3l27.8,16.9h.4c.1,0,.1,0,.1-.1h-.1l-.2-.2h0l-50.6-30.7,54,32.6h.6L437.3,338h.2a.1.1,0,0,0,.1.1h.2c0-.1-.1-.1-.1-.2h-.2L385,305.7h0a.1.1,0,0,0-.1-.1h0l-19.1-11.6h.1l15.4,9.2h.5l8.6,5.1h.4a.1.1,0,0,0,.1-.1h0a.1.1,0,0,0-.1-.1h-.1l-6.8-4.1,84.7,50.6h.6v-.2a.1.1,0,0,0-.1-.1c0-.1,0-.2-.1-.2h-.2L408.3,317h-.2l-23.7-14.2,4.8,2.9h.4l22.6,13.4a.1.1,0,0,1,.1.1h.2a.1.1,0,0,0,.1-.1h.1l9.1,5.4h.3a.1.1,0,0,1,.1-.1h.1l8.2,4.9h.4a.1.1,0,0,0,.1-.1h0a.1.1,0,0,0-.1-.1V328h-.1l-42.9-25.4L461.6,346h.2a.1.1,0,0,0,.1.1c.1,0,.1,0,.1-.1h.1L293.2,245.7Z" transform="translate(-274.8 -218.4)"/><path class="cls-9" d="M289.3,250.4l-.2.3,37.2,22.8h-.1l-29.4-18h-.6l-7.6-4.7v.2l-.2.2,31.1,19.2h-.1l-23.5-14.3a.1.1,0,0,0-.1-.1h-.2l6.1,3.8h0l-13.9-8.6-.4.5-.2.3,5.6,3.5h-.1a.1.1,0,0,0,.1.1l-5.9-3.6h0l-.3.3,16.2,10.2-16.2-10.1-.4.5,134.7,85.4h-.2l-38.2-24.1h0v-.2a497582161916,497582161916,0,0,0-.2-.2h0l-21.9-13.8h.1l35.4,22.2h.5v-.2h-.2l-28-17.6H368l-20.2-12.7h0l70.6,44.2h.4c.1,0,.1,0,.1-.1h0v-.2h-.2l-43.8-27.4h0v-.2h-.1l-35-21.9h.1l101.2,62.9h.6c0-.1-.1-.1-.1-.2h-.1l-.2-.2-43.5-27h0l19.8,12.3h.5V333h-.3l-69.2-43h.1l6.2,3.9h.1c.1.1.1.1.2,0h.2l22.2,13.7h.4a.1.1,0,0,0,.1-.1h-.2l-10.3-6.4h.1l18.8,11.6h.3a.1.1,0,0,0,.1-.1h.1L449.4,350h.6v-.2h-.1c0-.1-.1-.1-.1-.2l-18.1-11.1h.1v-.2a497582161916.2,497582161916.2,0,0,0-.2-.2c0-.1-.1-.1-.1-.2l-51.1-31.3h.1l75.1,45.8h.3a.1.1,0,0,0,.1-.1h.1L289.6,250Z" transform="translate(-274.8 -218.4)"/><path class="cls-4" d="M286,254.4l6.2,3.9h-.1l-6.2-3.9-.4.6,4.2,2.7h-.1l-4.2-2.7h-.1l-.4.5,12.3,7.9H297l-12.3-7.8-.3.5h-.1l.9.6h0l2.3,1.5h-.1a.1.1,0,0,0,.1.1l9.8,6.3L286,258.4h-.3l-2-1.3-.3.3,29.3,19h-.5l-27.3-17.6h-.4l-1.5-1-.3.4,6.9,4.5h0l9.2,6h-.1l-16.3-10.5h0l101.3,66.5h0c0-.1,0-.1-.1-.1h-.1l-54.2-35.3h.1l96,62.2h.5v-.2h0c0-.1-.1-.1-.1-.2h-.2l-55.8-36.3h.1l15.3,9.9h.4c.1-.1.1-.1.1-.2h-.3l-4.7-3.1,51,32.9h.2a.1.1,0,0,0,.1.1h.2a.1.1,0,0,0,.1-.1c0-.1-.1-.1-.1-.2h-.3l-85.4-55.2L417.8,344h.2a.1.1,0,0,0,.1.1h.2v-.2h-.1l-43.8-28.1h.1a.1.1,0,0,1-.1-.1h-.1L343.4,295h0c.1,0,.1,0,.1-.1h0a.1.1,0,0,1-.1-.1h-.1L328.4,285h0l66.7,42.6h.4a.1.1,0,0,0,.1-.1h0v-.2h-.2l-41.7-26.7h.1V300h-.1l-14.1-8.9L449.9,361h.4a497582161916,497582161916,0,0,1,.2-.2h0c0-.1,0-.1-.1-.2a.1.1,0,0,0-.1-.1c0-.1-.1-.1-.2-.2l-60.7-38.6h.1a.1.1,0,0,0,.1-.1.1.1,0,0,1-.1-.1h-.1c0-.1,0-.1-.1-.1l-11-7h.1v-.2h-.1L344,292h.1L420.3,340h.5L286.1,254.3Z" transform="translate(-274.8 -218.4)"/><path class="cls-9" d="M281.8,259.4l-.8,1,11.4,7.4h0L314.8,283h-.1l-34-22.4-.3.5-.3.3,22.5,15h0L280,261.6l-.3.4,20.6,13.7h-.2l-9.6-6.5h-.3l.8.5h-.1l-11.6-7.8-.2.2-.5.6,152,103h.2V366h-.1v-.2h-.2l-6.9-4.7h0v-.2h0c0-.1-.1-.1-.1-.2h-.2L313.7,286.5h0l110.8,74.3h.6v-.2a.1.1,0,0,0-.1-.1c0-.1-.1-.1-.1-.2l-67.2-45h0a.1.1,0,0,0-.1-.1h0l-.7-.5h0l74,49.4h.6v-.2h-.1c0-.1,0-.1-.1-.2h-.1l-37.5-25.1h.1v-.2h-.2l-28.7-19.1h0a.1.1,0,0,0,0-.2h-.1l-36.9-24.6h.1l4.4,2.9h.3l30.3,19.9h.4L382,328h.5v-.2h-.1a.1.1,0,0,0-.1-.1l-12.4-8.2h.1l71.9,47.2h.5c.1,0,.1-.1.1-.2a.1.1,0,0,1-.1-.1c0-.1-.1-.1-.1-.2h-.2l-12.9-8.5h0c.1-.1.1-.1.1-.2h-.1c0-.1-.1-.1-.1-.2h-.2l-79.4-52.2h.2L426.9,355a.1.1,0,0,1,.1.1h.2a.1.1,0,0,0,.1-.1h.1v-.2h0c-.1-.1-.1-.1-.1-.2h-.2l-72.5-47.5h.1l28.5,18.6h.5L282.4,258.7Z" transform="translate(-274.8 -218.4)"/><path class="cls-4" d="M278.6,263.3h-.1L295,274.5h0c-.1,0-.1,0-.1.1h.1l10.4,7h0l7.4,4.9h-.1l-34.6-23.4-.8,1-.4.4,2.5,1.7h.1l12.8,8.9h.1l2.6,1.8h-.1l-18.4-12.6-.3.4h0l.6.5h0l-.7-.4-.5.6,24,16.6h-.1l-24-16.6-.3.4,10.5,7.2h0l-10.5-7.3-.4.5L385,345.2h0c.1-.1.1-.1.1-.2a.1.1,0,0,0-.1-.1h0l-.2-.2-23.1-16.1h.1v-.2a.1.1,0,0,1-.1-.1h0l-32-22.3h0l28.5,19.7h.4a.1.1,0,0,1,.1-.1h0c0-.1-.1-.1-.1-.2a.1.1,0,0,1-.1-.1h0l-39.8-27.6,45.8,31.6h.4l12,8.2h.5l36,24.9h.6c-.1-.1-.1-.1-.1-.2h-.1c0-.1-.1-.1-.1-.2L356,321.5h.1l4.7,3.2h.4a.1.1,0,0,0,.1-.1h0l11.3,7.8h.4a.1.1,0,0,0,.1-.1h0c0-.1,0-.1-.1-.2a.1.1,0,0,0-.1-.1l-12.8-8.8h.1v-.2H360l-24.6-16.9,20.2,13.8h0a.1.1,0,0,1,.1.1h.3c.1-.1.1-.1.1-.2H356a.1.1,0,0,1-.1-.1L319.7,294h.2l11.4,7.8h.4l94.2,63.9h.6v-.2h-.1c0-.1,0-.1-.1-.2h-.1l-82.8-56.2h0a.1.1,0,0,0,.1-.1h0L418.1,359h.4c.1,0,.1,0,.1-.1h0v-.2h-.3L380,332.5h.1l50.1,33.7h.4l-152-103Z" transform="translate(-274.8 -218.4)"/><path class="cls-10" d="M345.1,234.7h-.2l24.3,11.7.2-.4Z" transform="translate(-274.8 -218.4)"/><path class="cls-10" d="M314.1,220.4l-.4.5,45.5,22h0L313.6,221v.2h-.1l20.9,10.1.6.2.5.2.5.3.5.2.5.2.5.3.4.3.5.2,13.9,6.8h0L339,233.9l.4.2.4.3c.1.1.3.2.4.4l.3.3,24.8,12h.1l2.5,1.2,1.3-1.9Z" transform="translate(-274.8 -218.4)"/><path class="cls-10" d="M332.4,230.9h1l-9.4-4.5h-.2l7.7,3.8h.9Z" transform="translate(-274.8 -218.4)"/><path class="cls-10" d="M370.2,244.2h0l.5.3v-.2l-4.5-2.2-12.9-6.1h0l-37.6-17.6-.4.4,19,9.1h0l-19.1-9v.2h-.1l11.3,5.4h-.1a.1.1,0,0,0,.1.1h.1l34.3,16.4h.1l8.8,4.2,1-1.4Z" transform="translate(-274.8 -218.4)"/><path class="cls-10" d="M319.3,221.9h-.2l50.3,24.1.3-.5Z" transform="translate(-274.8 -218.4)"/><path class="cls-10" d="M326.9,230.3h.5l-15.2-7.4h-.1l-.2.2h0l14.6,7.2h.4Z" transform="translate(-274.8 -218.4)"/><polygon class="cls-10" points="66 22.9 66.3 23.9 67.8 24.6 68.5 24.1 66 22.9"/><path class="cls-10" d="M328,230.3h.4l-2.6-1.3h-.3l2,1h.5Z" transform="translate(-274.8 -218.4)"/><path class="cls-10" d="M367.8,248.9l-11.9-5.8h-.2l1.6.8h-.1l-14.8-7.2.3.4.3.4c.1.1.1.3.2.4a.8.8,0,0,1,.2.4l8.1,4h0l-8-3.9.2.3c0,.2.1.3.1.4l.2.4c.1.1.1.2.1.4s-.1-.3-.2-.5l-.2-.4-.3-.4-.3-.4-6.3-3.1h-.4l-6.5-3.2h-2.2l18.8,9.4h-.1l-18.9-9.4h-1.6l10.6,5.3h-.1l-10.7-5.3h-.6l15.3,7.7.2-.8.2,1,2.5,1.2,1.2-.9-.5,1.3.3.2h0l-.3-.2-.2.8,1.5.8,2.4-.6-1.4,1.1,18.1,9.1.4-.5Z" transform="translate(-274.8 -218.4)"/><path class="cls-10" d="M323.1,231h.5l-12.8-6.4-.2.3-.3.3,12.3,6.1h.5Z" transform="translate(-274.8 -218.4)"/><path class="cls-10" d="M321.8,231.4h.3l-8.6-4.2h-.2l8.2,4.1h.3Z" transform="translate(-274.8 -218.4)"/><path class="cls-10" d="M324.7,230.6h1l-14.2-6.9-.3.5,1.9.9H313l-1.9-1-.2.3,12.9,6.5h.9Z" transform="translate(-274.8 -218.4)"/><path class="cls-10" d="M342.1,237.4l-.6-.5-.5-.5-7.1-3.4h-1.5l5.5,2.7h-.1l-5.6-2.7H331l12,5.9-.5-.6Z" transform="translate(-274.8 -218.4)"/><path class="cls-10" d="M325,233.4h-.8l15.9,8,.2-.7Z" transform="translate(-274.8 -218.4)"/><path class="cls-10" d="M321.2,235.6h-.1a.1.1,0,0,1-.1.1h-.1l13.7,7.1-.8-1Z" transform="translate(-274.8 -218.4)"/><path class="cls-10" d="M321,231.7h.4l-7-3.6H314a.1.1,0,0,1,.1.1h.1l.8.5h0l5.6,2.8h.2C320.9,231.8,321,231.8,321,231.7Z" transform="translate(-274.8 -218.4)"/><polygon class="cls-10" points="65.1 24 62.5 22.7 64.7 25.2 65.1 24"/><path class="cls-10" d="M335.1,243.6l-14.4-7.4c-.1,0-.1,0-.1.1h-.2l2.4,1.3h.1l13.3,6.9h.2Z" transform="translate(-274.8 -218.4)"/><path class="cls-10" d="M351.3,247.6H351l13.1,6.6.3-.4Z" transform="translate(-274.8 -218.4)"/><path class="cls-10" d="M318.1,233.6h.3L307.8,228l-.2.3v.2l10.4,5.3h.2Z" transform="translate(-274.8 -218.4)"/><polygon class="cls-10" points="73.8 28.4 71 27 69.8 27.9 73.8 28.4"/><path class="cls-10" d="M317.6,234.1h.2l-10.4-5.3h-.1l-.2.3,10.4,5.3Z" transform="translate(-274.8 -218.4)"/><polygon class="cls-10" points="69.5 26.2 68.7 25.8 68.5 26.4 69.5 26.2"/><path class="cls-10" d="M317.1,234.6h.2l-10.4-5.3-.3.3,10.4,5.4h.1Z" transform="translate(-274.8 -218.4)"/><path class="cls-10" d="M319.3,232.7l.2-.2h.2l-10.9-5.5-.3.3h-.1l9.8,5.1h.1l.7.3h.3Z" transform="translate(-274.8 -218.4)"/><path class="cls-10" d="M321.8,235.1h-.4v.2l12.3,6.3h-.1l2.8,1.5,1.4.7-.3-.9Z" transform="translate(-274.8 -218.4)"/><path class="cls-10" d="M323.4,234.1h-.3l-.2.2h-.3l-.2.2,5.2,2.7h.1l8.9,4.5h0l.8.4-.6-2.1Z" transform="translate(-274.8 -218.4)"/><polygon class="cls-10" points="67.2 25.1 66.5 24.7 66.7 25.5 67.2 25.1"/><polygon class="cls-10" points="66.6 32.4 66.6 32.4 66.6 32.4 66.6 32.4"/><path class="cls-10" d="M316.3,235.8h.1L306,230.2l-.3.3,10.5,5.5h.1Z" transform="translate(-274.8 -218.4)"/><path class="cls-10" d="M316.5,235.4h.1l-4.8-2.5h-.2l4.8,2.5h.1Z" transform="translate(-274.8 -218.4)"/><path class="cls-10" d="M336,248l-4.5-.6,2.4-.5-3.9-2h-.3l-10.8-5.6h0v.6l9.5,5h0l-9.5-5v.2h0v.4h.2l15.7,8.4,1.7-1.4Z" transform="translate(-274.8 -218.4)"/><path class="cls-10" d="M315.4,237.8v-.2h.1l-5.9-3.2h-.3l3.4,1.8h0l2.6,1.3h0Z" transform="translate(-274.8 -218.4)"/><path class="cls-10" d="M331.7,244.3l3.5.6L320,237v.4c-.1,0-.1.1-.1.2l-.2.2,8,4.1h0l.8.4h-.1a.1.1,0,0,0-.1.1h.2l7,3.6h.6Z" transform="translate(-274.8 -218.4)"/><path class="cls-10" d="M361.7,258.3l2.4-3.8-15-7.5-2.7.6,6.2,3.1h0l-6.3-3.2-1.2.2,4.4,2.3-4.9-.8.6.7,3.3,1.7-3.3-1.6,2.5,2.7-4.4-2.4v.5l12.9,6.8h-.1l-7-3.7h-.4l-5.2-2.7v.6l11.2,5.9-11.1-5.8.6,2.2-2.9-3.4h-.1l-1.1,3.5-1-3.9-1.1.9,1.2.7h-.1l-1.2-.6-1.8,1.5.7-2.1-1.7-.9-2.2.5,1.3-1-14.6-7.7a.1.1,0,0,1-.1-.1h-.1a.1.1,0,0,1-.1.1h.1l12.3,6.6h-.1l-13.2-7v.6a1.7,1.7,0,0,1,.1.7c.1.2.1.4.2.6a6.4,6.4,0,0,0,.2.7l24.7,13.4h-.1l-8-4.3h-1l-1.2.2h-3.8l2.3,1.3h.1l16.8,9.3h0a.1.1,0,0,1-.1.1c0,.1,0,.1.1.1h0a.1.1,0,0,1,.1.1l5.3,2.9h0l-.8-.4h0l-26-14.3-1.3-.3-1.3-.5-1.3-.5-1.2-.6-1.2-.7-1-.7-.9-.8-.9-.8-13.5-7.5h-.3c-.1,0-.1,0-.1.1h.1l4.5,2.4h0l38.6,21.5h-.1l-1.3-.7H346l-46.9-26.1-.4.4v.2l13.4,7.5h.1l30.1,16.8h-.1l-18.9-10.6h-.3l-24.7-13.8-.5.5,11.7,6.7-11.7-6.6-.3.3L322.7,255h.1l8.5,4.8-23.8-13.4h-.3L297,241.1l-.3.3,27.5,15.7h-.1l-1.3-.8h-.3L352,273.3l.9-1.4-.9-.5h.1l.8.5,2.4-3.6,2.3-3.5-2.4-1.3h0l2.4,1.3.9-1.4Z" transform="translate(-274.8 -218.4)"/><polygon class="cls-10" points="60.7 31.6 62.2 32.4 62.7 31.1 60.7 31.6"/><path class="cls-10" d="M315.2,238.4h0c0-.1,0-.1.1-.1l-11.1-5.8H304l11.2,6h0Z" transform="translate(-274.8 -218.4)"/><path class="cls-10" d="M315,241v-1.3l-11.7-6.2-.3.3,4.4,2.4h-.1l-4.4-2.3-.2.3-.7.8,13.2,7.2a10998156481978.9,10998156481978.9,0,0,0-.2-1.2Z" transform="translate(-274.8 -218.4)"/><path class="cls-10" d="M315.6,243.6a6181264102273,6181264102273,0,0,1-.2-.6h-.2l-13.7-7.4-.4.5h0l14.7,8.1v-.3A.4.4,0,0,1,315.6,243.6Z" transform="translate(-274.8 -218.4)"/><path class="cls-10" d="M316.4,245.4l-.3-.5a1.4,1.4,0,0,1-.2-.6l-14.9-8h0l-.7.9,16.8,9.2a1,1,0,0,1-.4-.5Z" transform="translate(-274.8 -218.4)"/><path class="cls-10" d="M331,253.1l1.9.2h1.8l-15.3-8.2c.1.1.1.2.2.4l.2.4.2.3.3.4h0l.6.9.8.9.9.8.9.8,3.8,2.1,1.8.6Z" transform="translate(-274.8 -218.4)"/><path class="cls-11" d="M337.4,232.8l-.5-.3-.5-.2-.5-.2-.5-.3-.5-.2-.6-.2,4,1.9-.5-.2Z" transform="translate(-274.8 -218.4)"/><path class="cls-11" d="M339.8,234.4l-.4-.3-.4-.2-5.6-2.8h-1.9l9,4.4-.3-.3C340.1,234.6,339.9,234.5,339.8,234.4Z" transform="translate(-274.8 -218.4)"/><path class="cls-11" d="M331.6,232.6h.6l-4.8-2.4h-.9l4.5,2.2h.6Z" transform="translate(-274.8 -218.4)"/><path class="cls-11" d="M333.2,232.8h.7l-5.5-2.7h-.9l4.9,2.4h.8Z" transform="translate(-274.8 -218.4)"/><path class="cls-11" d="M326.7,232.9h.8l-3.9-1.9h-1l1.7.8h0l1.6.8h.8Z" transform="translate(-274.8 -218.4)"/><path class="cls-11" d="M325.4,233.2h.3l-3.6-1.8h-.6l3.6,1.8h.3Z" transform="translate(-274.8 -218.4)"/><path class="cls-11" d="M343,237.9l-.3-.4-.3-.4-1.4-.7.5.5.6.5.4.5.5.6.4.2a.8.8,0,0,0-.2-.4C343.1,238.2,343.1,238,343,237.9Z" transform="translate(-274.8 -218.4)"/><path class="cls-11" d="M343.7,239.4l.2.4c.1.2.2.3.2.5s0-.3-.1-.4l-.2-.4c0-.1-.1-.2-.1-.4l-.2-.3-.4-.2.3.4Z" transform="translate(-274.8 -218.4)"/><path class="cls-11" d="M328.8,232.6h1.1l-4.2-2.1h-1.9l3.9,1.9h1.1Z" transform="translate(-274.8 -218.4)"/><path class="cls-11" d="M321.5,235.3h.3l-3.4-1.7h-.5l3.4,1.8v-.2Z" transform="translate(-274.8 -218.4)"/><path class="cls-11" d="M321,235.8a.1.1,0,0,0,.1-.1h.1l-3.4-1.7h-.3l3.4,1.8h.1Z" transform="translate(-274.8 -218.4)"/><path class="cls-11" d="M320.5,236.4h.1c0-.1,0-.1.1-.1l-3.4-1.8H317l3.4,1.7h.1Z" transform="translate(-274.8 -218.4)"/><path class="cls-11" d="M322.9,234.4l.2-.2h-.2l-3.2-1.6h-.2l-.2.2H319l3.4,1.8.2-.2Z" transform="translate(-274.8 -218.4)"/><path class="cls-11" d="M324.6,233.5h.4l-3.6-1.8H321c0,.1-.1.1-.2.1h-.2l3.6,1.8h.4Z" transform="translate(-274.8 -218.4)"/><path class="cls-11" d="M319.8,237.4V237l-3.4-1.7h-.2l3.2,1.6-3.2-1.6h-.2l3.3,1.8.2-.2C319.7,237.5,319.7,237.4,319.8,237.4Z" transform="translate(-274.8 -218.4)"/><path class="cls-11" d="M318.8,239.6v-.2h0l-3.4-1.8h-.1v.4h0l3.4,1.9v-.4Z" transform="translate(-274.8 -218.4)"/><path class="cls-11" d="M318.7,240.3h0V240l-3.4-1.8c-.1,0-.1,0-.1.1h.1l3.3,1.8v-.4Z" transform="translate(-274.8 -218.4)"/><path class="cls-11" d="M332.3,253.6h1.2l1.2-.2h-1.8l-1.9-.2-1.9-.4-1.8-.6,2.4,1.3h2.6Z" transform="translate(-274.8 -218.4)"/><path class="cls-11" d="M319.8,245.9l-.2-.4c-.1-.2-.1-.3-.2-.4l-3.9-2.1h-.1a2317974038439.8,2317974038439.8,0,0,1,.3.9v.3l4.5,2.4-.3-.4Z" transform="translate(-274.8 -218.4)"/><path class="cls-11" d="M318.7,243a1.7,1.7,0,0,0-.1-.7v-.6l-3.6-2V241a10998156481978.9,10998156481978.9,0,0,1,.2,1.2l3.9,2.1a6.4,6.4,0,0,1-.2-.7C318.8,243.4,318.8,243.2,318.7,243Z" transform="translate(-274.8 -218.4)"/><path class="cls-11" d="M321.7,248.4l-.8-.9-.6-.9h-.1l-4.3-2.4a1.4,1.4,0,0,0,.2.6l.3.5.3.5a1,1,0,0,0,.4.5l6.4,3.6-.9-.8Z" transform="translate(-274.8 -218.4)"/><path class="cls-11" d="M320.2,249.7l1,.7,1.2.7,1.2.6,1.3.5,1.3.5,1.3.3-9.1-4.9.9.8Z" transform="translate(-274.8 -218.4)"/><polygon class="cls-11" points="65.5 22.6 65.3 23.4 66.3 23.9 66 22.9 65.5 22.6"/><polygon class="cls-11" points="68.5 24.1 69.2 24.4 69.7 23.1 68.5 24.1"/><polygon class="cls-11" points="65.5 22.6 66 22.8 65.8 21.9 65.5 22.6"/><polygon class="cls-11" points="70.5 26 71.5 26.5 72.9 25.4 70.5 26"/><polygon class="cls-11" points="68.5 24.1 67.8 24.6 69 25.2 69.2 24.5 68.5 24.1"/><path class="cls-11" d="M349.5,250.1l-4.4-2.3,1.2-.2-8.9-4.5.3.9,3,1.6h-.1l-6.8-3.5.8,1,3.5,1.8H338l-2.9-1.5,1.3,1.4h-.2l7.5,3.9h0a.1.1,0,0,0,.1.1h0l1.4.7-.6-.7Z" transform="translate(-274.8 -218.4)"/><polygon class="cls-11" points="58.8 23.5 61.4 24.9 58.7 23.5 58.8 23.5"/><polygon class="cls-11" points="73.8 28.4 69.8 27.9 71 27 69.5 26.2 68.5 26.4 68.7 25.8 67.2 25.1 66.7 25.5 66.5 24.7 65.1 24 64.7 25.2 62.5 22.7 62 22.5 62.6 24.5 71.6 29.2 74.3 28.6 73.8 28.4"/><polygon class="cls-11" points="61.2 29.7 59 28.5 56.7 29 61.2 29.7"/><polygon class="cls-11" points="72.9 34.4 70.4 31.7 60.4 26.5 56.9 25.9 61.1 28.1 60.4 28.2 68.6 32.5 68.5 32 72.9 34.4"/><path class="cls-11" d="M337.8,248.5h-.3c0,.1,0,.1.1.1l3.8,2h0l2.3,1.2v-.6Z" transform="translate(-274.8 -218.4)"/><polygon class="cls-11" points="68.9 33.7 66.7 32.5 69.6 35.9 68.9 33.7"/><polygon class="cls-11" points="65.5 36 66.6 32.5 61.4 29.8 59.7 31.1 60.7 31.6 62.7 31.1 62.2 32.4 63.4 33 64.5 32.1 65.5 36"/><polygon class="cls-11" points="63.3 33.1 62.2 32.5 61.4 34.6 63.3 33.1"/><polygon class="cls-11" points="60.5 31.6 59.6 31.1 58.3 32.1 60.5 31.6"/></g></g></g><image class="cls-12" width="464" height="522" transform="translate(43.7 18.3) scale(0.24)" xlink:href="quota_white1.png"/><rect class="cls-4" x="88.6" y="34.8" width="52.2" height="5.06" rx="2.5"/><rect class="cls-4" x="88.6" y="43.9" width="52.2" height="5.06" rx="2.5"/><path class="cls-4" d="M328.5,247.7v25.2h25.2V247.7Zm9.9,19.5-6.8-6.8,1.8-1.9,5.3,5.2L349,253.4l1.6,1.6Z" transform="translate(-274.8 -218.4)"/><rect class="cls-4" x="88.6" y="72.8" width="52.2" height="5.06" rx="2.5"/><rect class="cls-4" x="88.6" y="81.9" width="52.2" height="5.06" rx="2.5"/><rect class="cls-4" x="53.7" y="67.3" width="25.1" height="25.15"/><rect class="cls-4" x="88.6" y="110.8" width="52.2" height="5.06" rx="2.5"/><rect class="cls-4" x="88.6" y="119.9" width="52.2" height="5.06" rx="2.5"/><rect class="cls-4" x="53.7" y="105.3" width="25.1" height="25.15"/></g></g></svg>