<svg xmlns="http://www.w3.org/2000/svg" xmlns:xlink="http://www.w3.org/1999/xlink" viewBox="0 0 223.3 157"><defs><style>.cls-1{fill:none;}.cls-2{isolation:isolate;}.cls-3{fill:#1e439b;}.cls-4{fill:#0453a5;}.cls-5{fill:#fff;}.cls-6{opacity:0.29;}.cls-7{clip-path:url(#clip-path);}.cls-8{clip-path:url(#clip-path-2);}.cls-9{fill:#e82327;}.cls-10{fill:#272870;}.cls-11{fill:#fbca0c;}.cls-12{opacity:0.75;mix-blend-mode:multiply;}</style><clipPath id="clip-path" transform="translate(3.9 -211.2)"><path class="cls-1" d="M163.7,290.4A75.6,75.6,0,0,1,20.8,324.9h0a75.6,75.6,0,1,1,142.9-34.5Z"/></clipPath><clipPath id="clip-path-2" transform="translate(3.9 -211.2)"><rect class="cls-1" x="4.2" y="249" width="213.7" height="142.49" transform="translate(124.7 -18.4) rotate(21.4)"/></clipPath></defs><title>quota_blue</title><g class="cls-2"><g id="Layer_1" data-name="Layer 1"><path class="cls-3" d="M89.1,290.4" transform="translate(3.9 -211.2)"/><path class="cls-4" d="M166.8,290.4A77.7,77.7,0,0,1,19.9,325.9h0A77.8,77.8,0,0,1,89.1,212.7a77.8,77.8,0,0,1,77.7,77.7Z" transform="translate(3.9 -211.2)"/><path class="cls-5" d="M164.7,290.4A75.6,75.6,0,0,1,21.8,324.9h0a75.6,75.6,0,1,1,142.9-34.5Z" transform="translate(3.9 -211.2)"/><g class="cls-6"><g class="cls-7"><g class="cls-8"><path class="cls-9" d="M105,243.2h.3L92.1,237v.2Z" transform="translate(3.9 -211.2)"/><path class="cls-9" d="M164.3,278.3c0-.1,0-.1-.1-.1H164l-2.1-1.1,28,13.6h.5a.1.1,0,0,1-.1-.1H190L97.3,245l56.4,27.1h.2L96.4,243.9h0l47.3,22.8h.2l-40.7-19.7h.1l91.2,43.8h.4c0-.1,0-.1-.1-.1a.1.1,0,0,0-.1-.1l-26.9-13h.1c-.1,0-.1,0-.1-.1h-.2l-23.2-11.1h0L206.6,295h.5c.1-.1.1-.1,0-.2h-.3l-46.7-22.3h0l23.1,11h.4a.1.1,0,0,0,.1-.1h-.3l-45-21.5,25.4,12.1h.4l43.3,20.5h.4a.1.1,0,0,0,.1-.1h-.1c0-.1,0-.1-.1-.2a.1.1,0,0,1-.1-.1l-52.8-25h.2l2.2,1h.4a.1.1,0,0,1,.1-.1l52.3,24.7h.5c0-.1,0-.1-.1-.2h-.3L92,237.2l-1,1.4,1.5.7-1.5-.7-.3.5,1.2.6-1.2-.6-.2.4,2.9,1.4h0l-3-1.4-1.2,1.9,12.7,6.2h0l62.4,30.6Z" transform="translate(3.9 -211.2)"/><path class="cls-5" d="M219.4,311.7c0-.1-.1-.1-.1-.2H219L105.6,254.7h.1l46.1,22.9h.4a.1.1,0,0,0,.1-.1l63.3,31.5h.4c0-.1-.1-.1-.1-.2h-.2l-8.8-4.4h.1a.1.1,0,0,0-.1-.1h-.2l-69.4-34.5h-.1a.1.1,0,0,1-.1-.1l-27.9-13.8h.1l26.9,13.2h.5a.1.1,0,0,0-.1-.1h-.2l-4.3-2.1h.1l10.4,5.1c.1,0,.1,0,.1.1h.2a.1.1,0,0,0,.1-.1h0c0-.1,0-.1-.1-.1h-.1l70.1,34.4h.2c.1,0,.1.1.2,0h-.1c0-.1-.1-.1-.1-.2l-69.9-34.3h.1l3.7,1.8h.4c0-.1,0-.1-.1-.1s0-.1-.1-.1l-6.2-3h.2l44.6,21.6h0c0,.1.1.1.2.1h.3a.1.1,0,0,0-.1-.1h-.1a.1.1,0,0,0-.1-.1l-21.7-10.6h0l-62.4-30.6h.1l-12.9-6.2-3,4.6,76.3,38.5a.1.1,0,0,0-.1-.1h-.1a.1.1,0,0,1-.1-.1l-35.7-17.9h0l85.7,42.9h.3c0-.1-.1-.1-.1-.2L97.2,251.1l121.6,60.7h.6Z" transform="translate(3.9 -211.2)"/><path class="cls-9" d="M85.7,246.8l5.4,2.8h0l-5.4-2.7-.3.4,3.4,1.7h0l-3.4-1.8L83,251.1,142.4,282l56.4,29.2h.2a.1.1,0,0,0,.1.1h0c0-.1-.1-.1-.1-.2h0L91.2,254.8h0l39,20.1h.4a.1.1,0,0,1-.1-.1h-.1L119.9,269l41.7,21.5h.4a.1.1,0,0,0,.1-.1h0l14.5,7.4h.5v-.2a.1.1,0,0,1-.1-.1.1.1,0,0,0-.1-.1h-.1l-22.5-11.5h.2l60.6,31.1h.6c0-.1-.1-.1-.1-.2h-.3L139,277.1h.1a.1.1,0,0,1-.1-.1h-.1l-4.7-2.4h.1l6.4,3.3h.2a.1.1,0,0,0,.1.1h.2c0-.1,0-.1-.1-.2h-.2l-17.7-9.1h-.1l-29.4-15,9.9,5c0,.1,0,.1.1.1h.2l92,46.6a.1.1,0,0,1,.1.1h.2a.1.1,0,0,0,.1-.1h.1V304h-.2c0-.1-.1-.1-.2-.1l-68.1-34.6h.1c.1,0,.1,0,.1-.1h-.3l-17-8.6h.1l13.6,6.7a.1.1,0,0,0,.1.1h.1l-22.6-11.4h0l59.8,30h.5L86.1,246.3Z" transform="translate(3.9 -211.2)"/><path class="cls-5" d="M79.8,256l27,14.5h0L201,320.7h.4a.1.1,0,0,0,.1-.1h.1v-.2h-.2l-.2-.2h0l-70.5-37.7h-.1a.1.1,0,0,0-.1-.1l-24.4-13h.2a.1.1,0,0,1-.1-.1h-.1L93.8,262h0l7.2,3.8h.4l41.2,21.8h.4v-.2h0a.1.1,0,0,1-.1-.1h-.1l-40.5-21.4h-.1l-14.4-7.6h0l117,61.7h.2a.1.1,0,0,0,.1.1h.2l-.2-.2H205l-85.9-45.3h0l3.4,1.8h.2a.1.1,0,0,0,.1.1.1.1,0,0,1,.1-.1h-.1l-13.6-7.2L173.1,301h.4a.1.1,0,0,0,.1-.1h0v-.2h-.2l-62.7-32.8h.1l32.7,17h.4l44.8,23.3h.2a.1.1,0,0,0,.1.1h0a.1.1,0,0,0-.1-.1l-61.4-32.1h.1c0-.1-.1-.1-.1-.2h-.2L92.4,256.7l10.9,5.7h.2l-3.1-1.6,42,21.6L83,251.1Z" transform="translate(3.9 -211.2)"/><path class="cls-9" d="M138.4,295.4l22.7,12.5h.4a.1.1,0,0,1,.1-.1h0c.1,0,.1,0,0-.1h-.1c0-.1-.1-.1-.2-.1L96.9,271.7l68.9,37.9h.5v-.2H166l-35.8-19.7h-.1l-52-28.6h0l45.4,24.8h.4l14.2,7.7h.4c0-.1-.1-.1-.1-.2h-.1l-1.1-.6h0l42.5,23.1h.4a.1.1,0,0,0,.1-.1h-.1c0-.1,0-.1-.1-.1l-.2-.2-39.2-21.4h0c-.1-.1-.1-.1-.1-.2h-.1l-29.6-16.1,46.1,25h.5s.1-.1,0-.1h0a.1.1,0,0,0-.1-.1h-.1l-.5-.3,51.1,27.6a.1.1,0,0,0,.1.1h.3a.1.1,0,0,0,.1-.1h0c0-.1,0-.1-.1-.2a.1.1,0,0,0-.1-.1c0-.1-.1-.1-.2-.2L78.8,257.5,76.6,261Z" transform="translate(3.9 -211.2)"/><path class="cls-9" d="M78.9,257.4l36.5,19.7h.4L182,312.6h.6c0-.1-.1-.1-.1-.2h-.3l-97-52.2h0l56.6,30.4h.2a.1.1,0,0,0,.2,0h.1V290H142l-39.7-21.3h.1l4.1,2.2h.3L79.8,256Z" transform="translate(3.9 -211.2)"/><path class="cls-5" d="M74.2,264.6l14.2,8h.3L157,311.1h.5l48.9,27.6h.5c.1,0,.1,0,.1-.1h-.1c0-.1-.1-.1-.1-.2h-.2L100.5,278.2h0l3.3,1.8h.4c0-.1,0-.1.1-.1h0a.1.1,0,0,0-.1-.1h0a.1.1,0,0,1-.1-.1h0l-14.3-8h0l1.6.8h.3l20.6,11.5h.3a.1.1,0,0,0,.1-.1h-.2L86.7,268.9h.1l44.5,24.7h.4s.1-.1,0-.1h-.1a.1.1,0,0,0-.1-.1l-29.2-16.3,56.8,31.4h.4a.1.1,0,0,0-.1-.1h-.1l-27.7-15.4h.1s.1-.1,0-.1h0c0-.1,0-.1-.1-.1a.1.1,0,0,0-.1-.1L82.2,264.5l2.6,1.4h.1l53.5,29.5L76.6,261Z" transform="translate(3.9 -211.2)"/><path class="cls-5" d="M141.6,305.4h0L188.3,332h.4a.1.1,0,0,1,.1-.1h.1v-.2h-.3L84.2,271.9h.1l5.3,3h.3c.1,0,.1,0,.1-.1h0l2.3,1.3h.3l97.6,55.2h.5a.1.1,0,0,0,.1-.1h0c0-.1,0-.1-.1-.2h-.3l-116.3-66-.9,1.4Z" transform="translate(3.9 -211.2)"/><path class="cls-9" d="M43.8,249.2h-.1l-19.2-11h-.3L42,248.8h0L17.4,234.9h0l-.7.7,21,12.1h-.1l-21-12-.3.3L50,255.7,16.2,236.3h0l-.2.2,8,4.7-8-4.6-.4.4L27.5,244h0l-9.7-5.6h-.3l23.2,13.5h-.1L15.2,237.5l-.5.6,29.9,17.6h0l-12.8-7.4h-.3l-16.9-9.9h-.2l169,100.2h0c0-.1,0-.1-.1-.2h-.1c0-.1-.1-.1-.2-.1L62,266.7h0l20.6,12h0c0,.1,0,.1.1.1h.2l25.8,15.1h.3l-10.1-5.9H99l32.1,18.8h.5l2.2,1.4h.5a995164323832.2,995164323832.2,0,0,1-.2-.2l-16.3-9.6h.2c-.1,0-.1,0-.1-.1a.1.1,0,0,0-.1-.1h-.1L89.3,280.2h.1l16.9,9.8h.2L82.6,275.6l27.6,15.9h.2L92.2,280.5l57.9,33.2h.4a.1.1,0,0,0,.1-.1h0v-.2h-.2L90.8,278.8h0l-3.5-2h0l28.9,16.5h.4l85.1,48.8h.5c.1,0,.1,0,.1-.1h0v-.2h-.1l-.2-.2h0L70.4,265.4h.1l11.8,6.6c0,.1,0,.1.1.1h.2l58.6,33.3h.4L73.2,266.1Z" transform="translate(3.9 -211.2)"/><path class="cls-5" d="M14.3,238.7h.2L46.4,258h-.1L27,246.7h-.3l-12.8-7.6-.3.4,34.8,20.7h0L13.6,239.6l-.6.6,13.1,7.9h0l20.4,12.2h0l13.9,8.4h0L37.6,255.9h-.3L12.3,241l-.2.4,33,19.9H45l-11.5-6.9h-.4l-13-7.8h-.2l19.9,12.1h-.1l-6.9-4.1h-.3L11.3,242.3l-.4.5,166.4,102c0-.1,0-.1-.1-.1v-.2c-.1,0-.1,0-.1-.1h-.2l-50.4-30.8h0v-.2h-.1a.1.1,0,0,1-.1-.1L91,291.5l16.9,10.2c0,.1,0,.1.1.1h.2a.1.1,0,0,0,.1-.1l27.8,16.9h.4c0-.1,0-.1-.1-.2a.1.1,0,0,1-.1-.1h0L85.7,287.3l54,32.6h.2a.1.1,0,0,0,.1.1c.1,0,.1,0,.1-.1h.1l18.4,11.1h.4a.1.1,0,0,0,.1-.1h0a.1.1,0,0,0-.1-.1c0-.1,0-.1-.1-.2h-.1l-52.5-31.7h.1a.1.1,0,0,0-.1-.1h-.1L87,286.4h.1l15.5,9.2h.4l8.7,5.1a.1.1,0,0,0,.1.1h.3a.1.1,0,0,1,.1-.1h-.3l-6.7-4.1,84.7,50.6h.5a.3.3,0,0,0-.1-.2h-.2l-60.5-36.2h0c0-.1,0-.1-.1-.2h-.1L105.6,295l4.8,2.9h.4a.1.1,0,0,1,.1-.1h0l22.6,13.4h.4l9.1,5.4h.2a.1.1,0,0,0,.2,0c.1,0,.1,0,.1-.1h0l8.2,4.8h.5c.1,0,.1-.1,0-.1h0c0-.1-.1-.1-.1-.2h-.2l-42.8-25.4,73.7,43.5h.5a.1.1,0,0,0,.1-.1L14.4,238.5Z" transform="translate(3.9 -211.2)"/><path class="cls-9" d="M10.6,243.2l-.3.2,37.3,22.9h-.1L18.1,248.4h-.6L9.9,244v.2l-.2.2,31,19.2h-.1L17.1,249.3h-.3a.1.1,0,0,1-.1.1h.1l6.1,3.8h-.1L9,245.1l-.5.5-.2.3,5.7,3.5h-.1c-.1,0-.1,0,0,.1h0l-5.8-3.7h0l-.3.3L24,256.7,7.8,246.6l-.5.5,134.8,85.4h-.3l-38.1-24.1h0V308h-.1a.1.1,0,0,1-.1-.1h0l-22-13.8h.1L117.1,316h.4a.1.1,0,0,1,.1-.1h0v-.2h-.1a.1.1,0,0,1-.1-.1L89.3,297.9h.1c.1,0,.1,0,.1-.1h-.1a.1.1,0,0,1-.1-.1h0L69,284.7h0l70.6,44.1h.5c0-.1,0-.1-.1-.2h-.1L96,300.9h.1c-.1-.1-.1-.1-.1-.2a.1.1,0,0,1-.1-.1l-35-21.8H61l101.2,62.9c0,.1.1.1.2.1h.2a.1.1,0,0,0,.1-.1h0v-.2a.1.1,0,0,1-.1-.1l-.2-.2-43.5-27h0L138.7,326a.1.1,0,0,1,.1.1h.2a.1.1,0,0,0,.1-.1h.1v-.2a.1.1,0,0,0-.1-.1H139c0-.1,0-.1-.1-.1h0L69.7,282.5h0l6.3,3.9h.3c.1,0,.1,0,.1-.1h0l22.3,13.7h.4a.1.1,0,0,0,.1-.1h-.3L88.6,293h.1l18.9,11.6h0a.1.1,0,0,1,.1.1h.3l62.7,38.4h.6c-.1-.1-.1-.1-.1-.2s-.1-.1-.1-.2h-.2l-18-11.1h0v-.2h0a.1.1,0,0,0-.1-.1l-.2-.2-51-31.3h.1l75,45.8h.2c.1,0,.1.1.2,0h.1a.1.1,0,0,0,.1-.1h0L10.9,242.8Z" transform="translate(3.9 -211.2)"/><path class="cls-5" d="M7.2,247.2l6.2,3.9h0l-6.2-3.9-.5.6,4.3,2.7h-.1l-4.3-2.7h0l-.5.5,12.3,7.9h-.1L6,248.7l-.4.5H5.5l1,.6H6.4c-.1.1-.1.1,0,.1h.1l2.3,1.4H8.7l9.9,6.3L7.3,251.2H6.9l-2-1.3-.3.3,29.3,18.9h-.5L6.1,251.7H5.8l-1.6-1-.3.4,7,4.5h0l9.1,6h0L3.7,251.5H3.6L105,317.9h-.3L50.6,282.3h0l96.1,62.2h.4a.1.1,0,0,1,.1-.1v-.2a.1.1,0,0,0-.1-.1V344h-.1L91.1,307.6h0l15.3,9.9h.3c.1,0,.1,0,.1-.1h.1v-.2h0a.1.1,0,0,0-.1-.1h-.1l-4.7-3.1,51,32.9h.3a.1.1,0,0,0,.1-.1h.1v-.2a.1.1,0,0,1-.1-.1h-.2L67.7,290.9l71.4,45.9h.4c.1,0,.1,0,.1-.1h0c0-.1-.1-.1-.1-.2h-.2L95.6,308.1h0a.1.1,0,0,0-.1-.1h-.1L64.7,287.8h0a.1.1,0,0,1-.1-.1l-15-9.6h.1l66.7,42.5h.4a.1.1,0,0,0,.1-.1h-.1c0-.1,0-.1-.1-.2h-.1L74.9,293.1H75v-.2a.1.1,0,0,1-.1-.1h-.1l-14-8.9,110.4,70.1h.5c.1,0,.1-.1,0-.1v-.2h-.1l-.2-.2-60.7-38.6h0a.1.1,0,0,0-.1-.1l-11-7h.1v-.2c-.1,0-.1,0-.1-.1a.1.1,0,0,1-.1-.1L65.2,284.7h.1l76.3,48.1h.5L7.3,247.1Z" transform="translate(3.9 -211.2)"/><path class="cls-9" d="M3.1,252.2l-.8,1,11.3,7.4h0a.1.1,0,0,0-.1.1h.1l22.5,14.8H36L2,253.5l-.4.5-.3.3,22.6,15h-.1L1.3,254.4l-.3.4,20.5,13.7h0a.1.1,0,0,0-.1.1h0l-9.7-6.5h-.3c-.1,0-.1,0-.1.1h.1l.9.5h-.1L.5,255.3v.2l-.5.6,152,103h.1v-.2h0c-.1-.1-.1-.1-.1-.2h-.2l-6.9-4.7h0v-.2a.1.1,0,0,0-.1-.1v-.2h-.1L34.9,279.3H35l110.8,74.3h.2s.1.1.1,0h.2a.1.1,0,0,0,.1-.1v-.2h-.1l-.2-.2L78.9,308H79a.1.1,0,0,0-.1-.1h-.1L78,307h0l74.1,49.4h.5c.1-.1.1-.1.1-.2h-.1c0-.1-.1-.1-.1-.2h-.2l-37.5-25.1h.2v-.2c-.1,0-.1,0-.1-.1h-.2L86,311h0c0-.1,0-.1-.1-.1h0L49.1,285.9h.1l4.3,2.9h.4l30.2,19.9h.5l18.7,12.3h.5v-.2h-.2l-12.4-8.2h.1l71.8,47.2h.6v-.2h0l-.2-.2h-.1l-12.9-8.5h0V350h0c-.1-.1-.1-.1-.1-.2h-.2L70.8,297.4H71l77.1,50.5h.6a.1.1,0,0,0-.1-.1c0-.1,0-.1-.1-.2h-.1L75.8,299.7h.1l28.6,18.6h.5L3.6,251.5Z" transform="translate(3.9 -211.2)"/><path class="cls-5" d="M-.1,256.1H-.2l16.4,11.1h0a.1.1,0,0,0,.1.1l10.4,7h-.1a.1.1,0,0,1,.1.1L34,280h0L-.6,256.7l-.8,1-.4.4,2.5,1.7h0L13.6,269h0c-.1,0-.1,0-.1.1h.1l2.6,1.8h0L-2.2,258.6l-.3.4h0l.6.4H-2l-.6-.4-.5.6,23.9,16.6h0l-24-16.5-.3.4L7,267.4H6.9l-10.4-7.3-.4.5L106.3,338h0v-.2h-.1c0-.1-.1-.1-.1-.2L83,321.3h0c0-.1,0-.1-.1-.2h-.1L50.9,298.5h0l28.5,19.7h0a.1.1,0,0,0,.1.1h.2a.1.1,0,0,0,.1-.1h0v-.2c-.1,0-.1,0-.1-.1h-.1L39.8,290.1l45.8,31.6H86a.1.1,0,0,1,.1-.1h0L98,329.9h.5l36.1,24.9h.4a.1.1,0,0,0,.1-.1h0v-.2H135l-.2-.2L77.3,314.3h.1l4.7,3.2h.5L93.9,325h.5v-.2h-.2l-12.9-8.8h.2v-.2a.1.1,0,0,1-.1-.1h-.1L56.6,298.2,76.8,312h.3a.1.1,0,0,0,.1-.1h.1v-.2h-.1a.1.1,0,0,0-.1-.1L41,286.8h.1l11.5,7.8h.3l94.3,63.9a.1.1,0,0,0,.1.1h.3a.1.1,0,0,0,.1-.1v-.2h0c-.1-.1-.1-.1-.1-.2h-.2L64.7,301.6h.1l74.5,50.3h.6v-.2a.1.1,0,0,0-.1-.1c0-.1-.1-.1-.1-.2h0l-38.3-25.9h0L151.5,359h.4l-152-103Z" transform="translate(3.9 -211.2)"/><path class="cls-10" d="M66.3,227.5H66a.1.1,0,0,1,.1.1l24.4,11.7.2-.4Z" transform="translate(3.9 -211.2)"/><path class="cls-10" d="M35.4,213.2l-.4.5,45.5,22h-.1L34.9,213.8l-.2.2h0l20.9,10.1.5.2.5.2.6.3.5.2.5.2.4.3.5.3.4.2,14,6.8h-.1l-13.1-6.3.4.2.4.3.3.3.4.4,24.7,12h.2l2.5,1.2,1.2-1.9Z" transform="translate(3.9 -211.2)"/><path class="cls-10" d="M53.7,223.7h.9l-9.3-4.5h-.2l7.7,3.8h.9Z" transform="translate(3.9 -211.2)"/><path class="cls-10" d="M91.5,236.9h0l.5.3V237l-4.5-2.2-12.9-6.1h0L37.1,211.2l-.4.4,19,9.1h-.1l-19-9-.2.2h0l11.3,5.4h0L82,234.1h.1l8.9,4.2,1-1.4Z" transform="translate(3.9 -211.2)"/><path class="cls-10" d="M40.6,214.7h-.3a.1.1,0,0,1-.1.1h.2l50.3,24.1.3-.5Z" transform="translate(3.9 -211.2)"/><path class="cls-10" d="M48.2,223.1h.4l-15.2-7.4h-.1l-.2.2h.1l14.6,7.2h.4Z" transform="translate(3.9 -211.2)"/><polygon class="cls-10" points="66 22.9 66.3 23.9 67.8 24.6 68.5 24.1 66 22.9"/><path class="cls-10" d="M49.2,223.1h.5L47,221.8h-.2l2,1h.4Z" transform="translate(3.9 -211.2)"/><path class="cls-10" d="M89.1,241.7l-11.9-5.8h-.3l1.6.8h-.1l-14.7-7.2.3.4.2.4.3.4c.1.1.1.3.2.4l8,4h0l-7.9-3.9v.3c.1.2.2.3.2.4l.2.4c0,.1.1.2.1.3s-.1-.2-.2-.4l-.3-.4-.3-.4-.3-.4L58,228.3h-.3l-6.5-3.2H48.9l18.9,9.4h-.1l-18.9-9.4H47.2l10.5,5.3h0L47,225.9h-.6l15.2,7.7.2-.8.3,1,2.5,1.2,1.2-.9-.5,1.3.3.2h0l-.3-.2-.3.8,1.6.8,2.4-.6-1.4,1.1,18.1,9.1.4-.5Z" transform="translate(3.9 -211.2)"/><path class="cls-10" d="M44.4,223.7h.5L32,217.2v.3l-.3.3,12.3,6.1h.5Z" transform="translate(3.9 -211.2)"/><path class="cls-10" d="M43,224.2h.3l-8.5-4.2h-.3l8.3,4.1a.1.1,0,0,0,.1-.1Z" transform="translate(3.9 -211.2)"/><path class="cls-10" d="M46,223.4h.9l-14.1-6.9-.4.5,1.9.9h0l-1.9-1-.3.3,13,6.5H46Z" transform="translate(3.9 -211.2)"/><path class="cls-10" d="M63.3,230.2l-.5-.5-.6-.5-7-3.4H53.7l5.4,2.7h0l-5.6-2.7H52.3l12,5.9-.5-.6Z" transform="translate(3.9 -211.2)"/><path class="cls-10" d="M46.3,226.2h-.9l16,8,.2-.7Z" transform="translate(3.9 -211.2)"/><path class="cls-10" d="M42.4,228.4h-.2a.1.1,0,0,0-.1.1l13.8,7.1-.9-1Z" transform="translate(3.9 -211.2)"/><path class="cls-10" d="M42.3,224.5h.4l-7.1-3.5h-.2l.8.4h-.1c0,.1,0,.1.1.1h0l5.7,2.8h.4Z" transform="translate(3.9 -211.2)"/><polygon class="cls-10" points="65.1 24 62.5 22.7 64.7 25.2 65.1 24"/><path class="cls-10" d="M56.4,236.4,41.9,229h-.1c-.1,0-.1,0-.1.1h-.1l2.5,1.3h.1l13.3,6.9h.1Z" transform="translate(3.9 -211.2)"/><path class="cls-10" d="M72.5,240.3h-.2l13.1,6.6.3-.4Z" transform="translate(3.9 -211.2)"/><path class="cls-10" d="M39.4,226.4h.1a.1.1,0,0,0,.1-.1l-10.5-5.4-.2.3-.2.2,10.4,5.3h.3Z" transform="translate(3.9 -211.2)"/><polygon class="cls-10" points="73.8 28.4 71 27 69.8 27.9 73.8 28.4"/><path class="cls-10" d="M38.9,226.9H39a.1.1,0,0,1,.1-.1l-10.5-5.3h0l-.2.3L38.7,227h.2Z" transform="translate(3.9 -211.2)"/><polygon class="cls-10" points="69.5 26.2 68.7 25.8 68.5 26.4 69.5 26.2"/><path class="cls-10" d="M38.4,227.4h.1l-10.3-5.3-.3.3,10.3,5.4h.2Z" transform="translate(3.9 -211.2)"/><path class="cls-10" d="M40.6,225.5l.2-.2H41l-11-5.5-.3.3h-.1l9.9,5h.1l.6.3h.4Z" transform="translate(3.9 -211.2)"/><path class="cls-10" d="M43.1,227.9h-.4l-.2.2,12.3,6.3h0l2.7,1.5,1.4.7-.2-.9Z" transform="translate(3.9 -211.2)"/><path class="cls-10" d="M44.6,226.9h-.2l-.3.2h-.2l-.3.2,5.3,2.7h0l8.9,4.5h.1l.7.4-.5-2.1Z" transform="translate(3.9 -211.2)"/><polygon class="cls-10" points="67.2 25.1 66.5 24.7 66.7 25.5 67.2 25.1"/><polygon class="cls-10" points="66.6 32.4 66.6 32.4 66.6 32.4 66.6 32.4"/><path class="cls-10" d="M37.5,228.6h.2L27.3,223l-.3.3,10.4,5.5a.1.1,0,0,1,.1-.1Z" transform="translate(3.9 -211.2)"/><path class="cls-10" d="M37.8,228.2h.1l-4.8-2.5h-.2l4.8,2.5h.1Z" transform="translate(3.9 -211.2)"/><path class="cls-10" d="M57.3,240.8l-4.5-.6,2.3-.5-3.8-2h-.4l-10.7-5.6h-.1v.6l9.5,5h0l-9.5-5v.2h-.1v.4h.2l15.7,8.3,1.7-1.3Z" transform="translate(3.9 -211.2)"/><path class="cls-10" d="M36.6,230.6v-.4l-5.9-3.1h-.2l3.4,1.8h-.1l2.6,1.3h.1Z" transform="translate(3.9 -211.2)"/><path class="cls-10" d="M52.9,237.1l3.6.6-15.2-7.9-.2.2v.4h-.1l7.9,4.2h.1l.7.4h0l7,3.6h.6Z" transform="translate(3.9 -211.2)"/><path class="cls-10" d="M83,251.1l2.4-3.8-15.1-7.5-2.6.5,6.2,3.2h-.1l-6.2-3.2-1.3.2,4.5,2.3-5-.8.7.7,3.2,1.7-3.2-1.7,2.5,2.8-4.5-2.4.2.5,12.9,6.8h-.1l-7.1-3.7h-.3l-5.3-2.7.2.6,11.2,5.9L65,244.9l.6,2.2-2.8-3.4h-.2l-1.1,3.6-.9-3.9-1.1.9,1.2.7h-.1l-1.2-.6-1.9,1.5.8-2.1-1.7-.9-2.2.5,1.3-1-14.6-7.7h-.3l12.4,6.6h-.1l-13.2-7v.6c0,.2.1.5.1.7a1.4,1.4,0,0,0,.2.6,1.4,1.4,0,0,0,.2.7L65,250.5h0l-8-4.3H56l-1.2.2H51l2.3,1.3h-.1c0,.1,0,.1.1.1h0l16.9,9.3h.1l5.2,2.9h0l-.7-.4h-.1l-26-14.3-1.3-.3-1.3-.5-1.2-.5-1.3-.6-1.1-.7-1-.7-1-.8-.8-.8-13.6-7.5h-.3a.1.1,0,0,1,.1.1h0l4.4,2.4h0l38.6,21.5h-.1l-1.3-.7h0c-.1,0-.1,0-.1-.1h-.1c0,.1,0,.1-.1.1L20.3,231.4l-.3.4h-.1l13.4,7.6h.1l30,16.8h0l-19-10.5h-.1a.1.1,0,0,0-.1.1h-.1L19.4,232.5l-.4.5,11.6,6.7-11.7-6.6-.3.3L44,247.8h0l8.5,4.8L28.8,239.6h-.3l-10.2-5.7-.3.3,27.5,15.7h-.1l-1.4-.8h-.2l29.4,16.9.9-1.4-.9-.5h.1l.9.5,2.4-3.6,2.2-3.5-2.4-1.3h.1l2.4,1.3.9-1.4Z" transform="translate(3.9 -211.2)"/><polygon class="cls-10" points="60.7 31.6 62.2 32.4 62.7 31.1 60.7 31.6"/><path class="cls-10" d="M36.5,231.2h0l-11-5.9v.2h-.2l11.2,6h.1Z" transform="translate(3.9 -211.2)"/><path class="cls-10" d="M36.3,233.8a2,2,0,0,1-.1-.7,1.3,1.3,0,0,1,.1-.6l-11.8-6.2-.2.3,4.3,2.4h0l-4.4-2.3-.2.3-.7.8L36.4,235a1.3,1.3,0,0,0-.1-.6Z" transform="translate(3.9 -211.2)"/><path class="cls-10" d="M36.8,236.4v-.3a.4.4,0,0,0-.1-.3h-.1l-13.7-7.4-.4.5h0L37.1,237l-.2-.3A.4.4,0,0,0,36.8,236.4Z" transform="translate(3.9 -211.2)"/><path class="cls-10" d="M37.7,238.2l-.3-.5-.3-.6L22.3,229h-.1l-.7.9,16.8,9.2-.3-.5Z" transform="translate(3.9 -211.2)"/><path class="cls-10" d="M52.3,245.9l1.8.2H56l-15.3-8.2.2.4.2.4c0,.1.1.2.2.3s.1.3.2.4h0l.7.9.8.9a3,3,0,0,0,.8.8l1,.8,3.8,2.1,1.8.6Z" transform="translate(3.9 -211.2)"/><path class="cls-11" d="M58.6,225.6l-.4-.3-.5-.2-.5-.2-.6-.3-.5-.2-.5-.2,3.9,1.9-.4-.2Z" transform="translate(3.9 -211.2)"/><path class="cls-11" d="M61.1,227.2l-.4-.3-.4-.2-5.7-2.8H52.8l9,4.4-.4-.4Z" transform="translate(3.9 -211.2)"/><path class="cls-11" d="M52.9,225.4h.6l-4.9-2.4h-.8l4.5,2.2h.6Z" transform="translate(3.9 -211.2)"/><path class="cls-11" d="M54.4,225.6h.8l-5.5-2.7h-.9l4.9,2.4h.7Z" transform="translate(3.9 -211.2)"/><path class="cls-11" d="M48,225.7h.8l-3.9-1.9h-1l1.6.8h0l1.7.9H48Z" transform="translate(3.9 -211.2)"/><path class="cls-11" d="M46.7,226H47l-3.7-1.8h-.4a.1.1,0,0,1-.1.1l3.6,1.8h.3Z" transform="translate(3.9 -211.2)"/><path class="cls-11" d="M64.2,230.7l-.2-.4-.3-.4-1.5-.7.6.5.5.5.5.5.5.6.4.2c-.1-.1-.1-.3-.2-.4Z" transform="translate(3.9 -211.2)"/><path class="cls-11" d="M64.9,232.2l.3.4c.1.2.1.3.2.4s-.1-.2-.1-.3l-.2-.4c0-.1-.1-.2-.2-.4v-.3l-.5-.2.3.4Z" transform="translate(3.9 -211.2)"/><path class="cls-11" d="M50.1,225.4h1.1l-4.3-2.1H45.1l3.8,1.9h1.2Z" transform="translate(3.9 -211.2)"/><path class="cls-11" d="M42.8,228.1h.3l-3.5-1.7a.1.1,0,0,1-.1.1h-.4l3.4,1.8.2-.2Z" transform="translate(3.9 -211.2)"/><path class="cls-11" d="M42.3,228.6h.1l-3.3-1.7a.1.1,0,0,0-.1.1h-.3l3.4,1.8a.1.1,0,0,1,.1-.1Z" transform="translate(3.9 -211.2)"/><path class="cls-11" d="M41.8,229.2h.1l-3.4-1.8h-.3l3.4,1.7h.1C41.7,229.2,41.7,229.2,41.8,229.2Z" transform="translate(3.9 -211.2)"/><path class="cls-11" d="M44.1,227.2l.3-.2h-.2L41,225.2h-.2l-.2.2h-.4l3.4,1.8.3-.2Z" transform="translate(3.9 -211.2)"/><path class="cls-11" d="M45.9,226.3h.4l-3.6-1.9h-.8l3.5,1.8h.5Z" transform="translate(3.9 -211.2)"/><path class="cls-11" d="M41,230.2V230l.2-.2-3.4-1.7h-.2l3.1,1.6-3.1-1.6h-.2a.1.1,0,0,0-.1.1l3.4,1.7h.1Z" transform="translate(3.9 -211.2)"/><path class="cls-11" d="M40.1,232.4v-.2h.1l-3.5-1.9v.6h-.1l3.5,1.9v-.4Z" transform="translate(3.9 -211.2)"/><path class="cls-11" d="M39.9,233.1H40v-.2L36.5,231h0c-.1,0-.1.1,0,.1h.1l3.3,1.8v-.4Z" transform="translate(3.9 -211.2)"/><path class="cls-11" d="M53.5,246.3h1.3l1.2-.2H54.1l-1.8-.2-1.9-.4-1.8-.6,2.4,1.3h2.5Z" transform="translate(3.9 -211.2)"/><path class="cls-11" d="M41.1,238.7l-.2-.4-.2-.4-3.9-2.1h-.2a.4.4,0,0,1,.1.3v.3a.4.4,0,0,1,.1.3l.2.3,4.4,2.4c-.1-.1-.1-.2-.2-.4S41.1,238.8,41.1,238.7Z" transform="translate(3.9 -211.2)"/><path class="cls-11" d="M40,235.8c0-.2-.1-.5-.1-.7v-.6l-3.6-2a1.3,1.3,0,0,0-.1.6,2,2,0,0,0,.1.7v.6a1.3,1.3,0,0,1,.1.6l4,2.1a1.4,1.4,0,0,1-.2-.7A1.4,1.4,0,0,1,40,235.8Z" transform="translate(3.9 -211.2)"/><path class="cls-11" d="M43,241.2l-.8-.9-.7-.9h0l-4.4-2.4.3.6.3.5.3.5.3.5,6.5,3.6-1-.8A3,3,0,0,1,43,241.2Z" transform="translate(3.9 -211.2)"/><path class="cls-11" d="M41.5,242.5l1,.7,1.1.7,1.3.6,1.2.5,1.3.5,1.3.3-9-4.9.8.8Z" transform="translate(3.9 -211.2)"/><polygon class="cls-11" points="65.5 22.6 65.3 23.4 66.3 23.9 66 22.9 65.5 22.6"/><polygon class="cls-11" points="68.5 24.1 69.2 24.4 69.7 23.1 68.5 24.1"/><polygon class="cls-11" points="65.5 22.6 66 22.8 65.8 21.9 65.5 22.6"/><polygon class="cls-11" points="70.5 26 71.5 26.5 72.9 25.4 70.5 26"/><polygon class="cls-11" points="68.5 24.1 67.8 24.6 69 25.2 69.2 24.5 68.5 24.1"/><path class="cls-11" d="M70.8,242.9l-4.5-2.3,1.3-.2-8.9-4.5.2.9,3.1,1.6h-.1L55,234.9l.9,1,3.5,1.8h-.1l-2.9-1.5,1.2,1.4h-.1l7.5,3.9h0l1.5.7-.7-.7Z" transform="translate(3.9 -211.2)"/><polygon class="cls-11" points="58.8 23.5 61.4 24.9 58.7 23.5 58.8 23.5"/><polygon class="cls-11" points="73.8 28.4 69.8 27.9 71 27 69.5 26.2 68.5 26.4 68.7 25.8 67.2 25.1 66.7 25.5 66.5 24.7 65.1 24 64.7 25.2 62.5 22.7 62 22.5 62.6 24.5 71.6 29.2 74.3 28.6 73.8 28.4"/><polygon class="cls-11" points="61.2 29.7 59 28.5 56.7 29 61.2 29.7"/><polygon class="cls-11" points="72.9 34.4 70.4 31.7 60.4 26.5 56.9 25.9 61.1 28.1 60.4 28.2 68.6 32.5 68.5 32 72.9 34.4"/><path class="cls-11" d="M59.1,241.3h-.3a.1.1,0,0,1-.1.1h.1l3.9,2h0l2.3,1.2-.2-.6Z" transform="translate(3.9 -211.2)"/><polygon class="cls-11" points="68.9 33.7 66.7 32.5 69.6 35.9 68.9 33.7"/><polygon class="cls-11" points="65.5 36 66.6 32.5 61.4 29.8 59.7 31.1 60.7 31.6 62.7 31.1 62.2 32.4 63.4 33 64.5 32.1 65.5 36"/><polygon class="cls-11" points="63.3 33.1 62.2 32.5 61.4 34.6 63.3 33.1"/><polygon class="cls-11" points="60.5 31.6 59.6 31.1 58.3 32.1 60.5 31.6"/></g></g></g><image class="cls-12" width="464" height="522" transform="translate(43.5 17.5) scale(0.24)" xlink:href="quota_blue1.png"/><rect class="cls-4" x="88.5" y="34.1" width="52.2" height="5.06" rx="2.5"/><rect class="cls-4" x="88.5" y="43.2" width="52.2" height="5.06" rx="2.5"/><path class="cls-4" d="M49.7,239.8v25.1H74.9V239.8Zm9.9,19.4-6.8-6.8,1.8-1.9,5.3,5.3,10.3-10.3,1.6,1.5Z" transform="translate(3.9 -211.2)"/><rect class="cls-4" x="88.5" y="72.1" width="52.2" height="5.06" rx="2.5"/><rect class="cls-4" x="88.5" y="81.2" width="52.2" height="5.06" rx="2.5"/><rect class="cls-4" x="53.6" y="66.6" width="25.1" height="25.15"/><rect class="cls-4" x="88.5" y="110.1" width="52.2" height="5.06" rx="2.5"/><rect class="cls-4" x="88.5" y="119.2" width="52.2" height="5.06" rx="2.5"/><rect class="cls-4" x="53.6" y="104.6" width="25.1" height="25.15"/></g></g></svg>