<svg xmlns="http://www.w3.org/2000/svg" xmlns:xlink="http://www.w3.org/1999/xlink" viewBox="0 0 223.3 157"><defs><style>.cls-1{fill:none;}.cls-2{isolation:isolate;}.cls-3{fill:#fff;}.cls-4{fill:#0453a5;}.cls-5{opacity:0.12;}.cls-6{clip-path:url(#clip-path);}.cls-7{clip-path:url(#clip-path-2);}.cls-8{fill:#e82327;}.cls-9{fill:#272870;}.cls-10{fill:#fbca0c;}.cls-11{opacity:0.87;mix-blend-mode:multiply;}</style><clipPath id="clip-path" transform="translate(-246.2 -214.2)"><path class="cls-1" d="M413.9,293.5A75.6,75.6,0,0,1,271,328h0a74.5,74.5,0,0,1-8.4-34.5,75.7,75.7,0,0,1,151.3,0Z"/></clipPath><clipPath id="clip-path-2" transform="translate(-246.2 -214.2)"><rect class="cls-1" x="254.4" y="252" width="213.7" height="142.49" transform="translate(143.2 -109.7) rotate(21.4)"/></clipPath></defs><title>timewhite</title><g class="cls-2"><g id="Layer_1" data-name="Layer 1"><path class="cls-3" d="M417,293.5a77.7,77.7,0,0,1-146.9,35.4h0a76.5,76.5,0,0,1-8.6-35.4,77.8,77.8,0,1,1,155.5,0Z" transform="translate(-246.2 -214.2)"/><path class="cls-4" d="M414.9,293.5A75.6,75.6,0,0,1,272,328h0a74.5,74.5,0,0,1-8.4-34.5,75.7,75.7,0,0,1,151.3,0Z" transform="translate(-246.2 -214.2)"/><g class="cls-5"><g class="cls-6"><g class="cls-7"><path class="cls-8" d="M355.2,246.2h.2L342.2,240v.2Z" transform="translate(-246.2 -214.2)"/><path class="cls-8" d="M414.4,281.3h-.1a.1.1,0,0,1-.1-.1h0l-2.2-1,28,13.5h.4c0-.1,0-.1-.1-.2a.1.1,0,0,1-.1-.1l-92.7-45,56.3,27.2h.2l-57.4-27.9h0l47.3,22.8h0a.1.1,0,0,0,.1.1h.1l-40.7-19.6h.1l91.1,43.8c.1,0,.2,0,.2.1h.2a.1.1,0,0,1,.1-.1h0c.1-.1.1-.1,0-.2h-.3L417.9,280h0a.1.1,0,0,0-.1-.1h0l-23.3-11.2h.1l62.2,29.8h.4a.1.1,0,0,0,.1-.1h-.1c0-.1,0-.1-.1-.1h-.2l-46.6-22.4h0l23,10.9h.5a.1.1,0,0,0-.1-.1h-.2l-44.9-21.5,25.3,12h.5l43.2,20.5h.5a.1.1,0,0,0,.1-.1h-.4L405.1,271h.1l2.3,1.1h.4l52.3,24.8h.4a.1.1,0,0,1,.1-.1h0c.1,0,.1,0,0-.1h-.3l-118.3-56-.9,1.5,1.4.7-1.4-.7-.3.4,1.1.6-1.1-.6-.3.4,3,1.4h-.1l-2.9-1.4-1.3,1.9,12.8,6.2h0l62.3,30.5C414.5,281.4,414.5,281.3,414.4,281.3Z" transform="translate(-246.2 -214.2)"/><path class="cls-3" d="M469.5,314.7h-.1c0-.1,0-.1-.1-.2h-.2L355.8,257.7h.1L402,280.5h0a.1.1,0,0,1,.1.1h.3l63.3,31.4h.5c.1-.1.1-.1,0-.2H466a.1.1,0,0,0-.1-.1l-8.8-4.4h.1c0-.1,0-.1-.1-.2a.1.1,0,0,0-.1-.1h-.2L387.4,272h0s.1,0,0-.1h-.2l-27.8-13.8h.1L386.4,271h.3c0-.1,0-.1.1-.1h0a.1.1,0,0,0-.1-.1h-.1l-4.3-2.1h0l10.5,5.2h.3a.1.1,0,0,0,.1-.1h0a.1.1,0,0,1-.1-.1H393l70.1,34.3h0c0,.1.1.1.2.1h.3v-.2h-.3l-69.8-34.3h.1l3.7,1.8h.4a.1.1,0,0,1-.1-.1.1.1,0,0,1-.1-.1l-6.2-3h.1l44.6,21.7h.5v-.2h-.3l-21.7-10.6h0l-62.3-30.5h0l-12.9-6.3-3,4.6,76.3,38.5h-.3l-35.6-17.9h0l85.6,42.9h.6c0-.1-.1-.1-.1-.2a.1.1,0,0,1-.1-.1h-.2L347.3,254.2,469,314.9h.2a.1.1,0,0,0,.1.1h.2Z" transform="translate(-246.2 -214.2)"/><path class="cls-8" d="M335.9,249.9l5.3,2.7h0l-5.4-2.7-.3.5,3.5,1.7h-.1l-3.4-1.7-2.4,3.7,59.4,31,56.4,29.1h.6c0-.1-.1-.1-.1-.2h-.3L341.3,257.9h.1l38.9,20h.4c0-.1,0-.1.1-.1h0a.1.1,0,0,0-.1-.1h-.1a.1.1,0,0,0-.1-.1L370,272.1l41.8,21.4a.1.1,0,0,1,.1.1h.4l14.4,7.4h.5c-.1-.1-.1-.1-.1-.2h-.2l-22.4-11.5h.1l60.7,31.1h.2a.1.1,0,0,0,.1.1h.2c.1,0,.1,0,0-.1h0l-.2-.2h-.1l-76.4-39.1h.2a.1.1,0,0,0-.1-.1H389l-4.7-2.4h.1l6.5,3.2a.1.1,0,0,0,.1.1h.1l-17.7-9h-.1l-29.5-15,9.9,5h.4L446,307.2h.5v-.2h-.2l-68.1-34.5H378l-17-8.6h.1l13.5,6.8h.2L352.3,258h0L412,287.9h.4a.1.1,0,0,0,.1-.1h0l-76.3-38.5Z" transform="translate(-246.2 -214.2)"/><path class="cls-3" d="M330,259l26.9,14.5h.1l94.2,50.2h.5v-.2h-.3l-70.6-37.7h-.2l-24.3-12.9h-.1l-12.3-6.5h.1l7.2,3.8h.3l41.2,21.8h.5a.1.1,0,0,0-.1-.1h-.2l-40.4-21.5h-.1L338,260.7h0l116.9,61.7h.6c0-.1-.1-.1-.1-.2h-.3l-85.9-45.4h.1l3.4,1.7a.1.1,0,0,0,.1.1h.3a.1.1,0,0,0-.1-.1h-.1l-13.6-7.1,64,33.4h.5v-.2h-.1a.1.1,0,0,0-.1-.1h-.1l-62.7-32.9h.1l32.6,17.1h.5l44.8,23.3a.1.1,0,0,0,.1.1h.4c0-.1-.1-.1-.1-.2a.1.1,0,0,1-.1-.1h-.2l-61.4-32h-.1l-34.9-18.1,11,5.6h.2l-3.1-1.6,41.9,21.7-59.4-31Z" transform="translate(-246.2 -214.2)"/><path class="cls-8" d="M388.5,298.4l22.8,12.5c0,.1.1.1.2.1h.2a.1.1,0,0,0,.1-.1h0c0-.1,0-.1-.1-.1v-.2h-.1L347,274.8l69,37.9h.5a.1.1,0,0,0-.1-.1v-.2h-.1l-35.8-19.7h.1c0-.1,0-.1-.1-.2h-.2l-52-28.6h.1l45.3,24.8h.5l14.1,7.7h.2l-1.1-.6h.1l42.4,23.1h.5v-.2a.1.1,0,0,1-.1-.1H430l-39.3-21.4h0c.1,0,.1,0,.1-.1h-.2a.1.1,0,0,0-.1-.1l-29.6-16.1,46.2,25h.5c0-.1,0-.1-.1-.2h-.2l-.4-.2,51,27.6h.4a.1.1,0,0,0,.1-.1h.1a.1.1,0,0,1-.1-.1c-.1-.1-.1-.1-.1-.2h-.2L329,260.5l-2.3,3.5Z" transform="translate(-246.2 -214.2)"/><path class="cls-8" d="M329,260.4l36.6,19.7h.4l66.2,35.6h.2a.1.1,0,1,0,.2,0h-.1c0-.1-.1-.1-.1-.2h0l-97-52.2h0L392,293.2h0a.1.1,0,0,0,.1.1h.3c0-.1,0-.1-.1-.1h-.1l-39.8-21.4h.1l4.1,2.2h.1a.1.1,0,0,0,.1.1h.1L330,259Z" transform="translate(-246.2 -214.2)"/><path class="cls-3" d="M324.4,267.7l14.1,8h.3l68.4,38.5h.5l48.9,27.5h.6v-.2h-.2c0-.1-.1-.1-.1-.2L350.6,281.2h.1L354,283h.1c.1,0,.1.1.1,0h.1c.1,0,.1,0,.1-.1h-.2l-14.3-8.1h0l1.6.9h.4l20.5,11.4h.2L336.9,272h.1l44.4,24.8h.2s.1.1.1,0h-.1l-29.2-16.3,56.8,31.4h.5V311a.1.1,0,0,1-.1-.1h-.2l-27.6-15.4h.1v-.2h0c-.1,0-.1,0-.1-.1h-.2l-49.3-27.3,2.6,1.3a.1.1,0,0,0,.1.1h.1l53.4,29.4L326.7,264Z" transform="translate(-246.2 -214.2)"/><path class="cls-3" d="M391.7,308.4h.1L438.5,335h.5v-.2a.1.1,0,0,0-.1-.1h-.1c0-.1-.1-.1-.1-.2L334.4,274.9h.1l5.2,3h.5l2.3,1.3h.2l97.7,55.2h.5v-.2h0l-.2-.2a.1.1,0,0,1-.1-.1L324.3,267.8l-.9,1.4Z" transform="translate(-246.2 -214.2)"/><path class="cls-8" d="M293.9,252.3h-.1l-19.2-10.9h-.2l17.7,10.2h0l-24.5-14h-.1l-.6.8,20.9,12.1h0l-21-12-.3.3,33.6,19.5-33.7-19.3h0l-.3.3,8.1,4.7-8.1-4.7-.3.4,11.9,6.9h-.1l-9.6-5.6h-.3l23.1,13.6h0l-25.4-14.8-.5.6,29.9,17.6h-.1l-12.8-7.5h-.3l-16.9-9.9h0v.2L433.5,341.8h0v-.2a.1.1,0,0,1-.1-.1c0-.1-.1-.1-.1-.2h-.2L312.1,269.7h.1l20.5,12.1h.4l25.8,15.1h.4a497582161915.8,497582161915.8,0,0,1-.2-.2l-10-5.9h.1l32,18.7h.5l2.3,1.3h.3a.1.1,0,0,0,.1-.1h.1c0-.1,0-.1-.1-.2a497582161916,497582161916,0,0,0-.2-.2L368,300.4h0a.1.1,0,0,0-.1-.1l-28.4-16.6h0l17,9.8a.1.1,0,0,0,.1.1h.2a.1.1,0,0,1,.1-.1h0a.1.1,0,0,0-.1-.1h-.1l-23.9-14,27.6,15.9c0,.1,0,.1.1.1h.3a.1.1,0,0,0-.1-.1h-.1l-18.2-10.6,57.9,33.3h.5v-.2h-.1a.1.1,0,0,0-.1-.1h-.1L341,281.9h-.1l-3.5-2.1h.1l28.8,16.6h.5l85.1,48.9h.5c.1-.1.1-.1,0-.2h0l-.2-.2h-.1L320.5,268.5h.2l11.7,6.6h.1a.1.1,0,0,1,.1.1c.1,0,.1,0,.1-.1h.1l58.5,33.4h.4l-68.3-39.2Z" transform="translate(-246.2 -214.2)"/><path class="cls-3" d="M264.4,241.8h.2L296.5,261h0l-19.4-11.3h-.3l-12.7-7.5-.3.4,34.7,20.6h0l-34.8-20.7-.6.7,13.1,7.8h0a.1.1,0,0,0-.1.1h.2l20.3,12.2h0l14,8.4h-.1L287.8,259h0a.1.1,0,0,0-.1-.1h-.2a.1.1,0,0,1-.1.1l-24.9-14.9-.3.3,33,19.9h-.1l-11.5-6.8h-.1c-.1,0-.1,0-.1.1h-.1l-13-7.8H270l20,12.1h-.1l-6.9-4.2h-.4l-21.2-12.9-.3.4,166.3,102h-.3l-50.5-30.8h0a.1.1,0,0,0,.1-.1h-.1c0-.1,0-.1-.1-.1h-.1l-35.3-21.6L358,304.8h.5l27.7,16.8h.5v-.2h-.3l-50.6-30.8,54.1,32.6a.1.1,0,0,0,.1.1h.3a.1.1,0,0,1,.1-.1h0l18.3,11h.6c-.1-.1-.1-.1-.1-.2h-.3l-52.5-31.8h.1v-.2h-.1a.1.1,0,0,1-.1-.1h0l-19.1-11.5h.1l15.4,9.3h.5l8.6,5.2h.5v-.2a.1.1,0,0,1-.1-.1h-.1l-6.8-4L440,349.6h.6c0-.1,0-.1-.1-.2s0-.1-.1-.2h-.2l-60.5-36.2h.1v-.2h-.2l-23.8-14.2,4.8,2.9h.4l22.6,13.4h.5l9.1,5.3h0a.1.1,0,0,0,.1.1h.3a.1.1,0,0,1,.1-.1h0l8.2,4.9h.5v-.2h-.1a.1.1,0,0,0-.1-.1h-.1l-42.9-25.5L433,341.8h.5L264.6,241.6Z" transform="translate(-246.2 -214.2)"/><path class="cls-8" d="M260.7,246.2l-.2.3,37.2,22.8h-.1l-29.4-17.9h-.6L260,247v.2l-.2.2,31.1,19.2h-.1l-23.5-14.4H267l6,3.8h0l-13.9-8.6-.4.6-.2.2,5.6,3.6h0l-5.8-3.6h-.1l-.3.3,16.2,10.1-16.2-10.1-.4.6,134.7,85.4h0a.1.1,0,0,1-.1-.1H392l-38.2-24.1h0c0-.1,0-.1-.1-.1h-.1l-21.9-13.9h.1l35.5,22.3h.4c.1,0,.1,0,.1-.1h-.1c0-.1,0-.1-.1-.1h-.1l-28-17.6h0a.1.1,0,0,0-.1-.1h0l-20.2-12.7h0l70.6,44.1h.5v-.2h0a.1.1,0,0,1-.1-.1H390l-43.8-27.5h-.1a.1.1,0,0,0-.1-.1l-35-21.9h.1l101.2,62.9h.4a.1.1,0,0,0,.1-.1h.1v-.2h-.1V344h-.2L369,316.8h0L388.8,329h.4a.1.1,0,0,0,.1-.1h0c0-.1-.1-.1-.1-.2h-.1l-69.3-42.9h.1l6.2,3.8h.5l22.2,13.7h.3a.1.1,0,0,0,.1-.1h.1c0-.1-.1-.1-.1-.2a.1.1,0,0,1-.1-.1l-10.3-6.3h.1l18.8,11.5h.5l62.6,38.4h.4a.1.1,0,0,0,.1-.1h0c0-.1,0-.2-.1-.2h-.1L403,334.2h.1c0-.1,0-.1-.1-.2h-.2l-51.1-31.3h.1L426.9,348h.5l-166.3-102Z" transform="translate(-246.2 -214.2)"/><path class="cls-3" d="M257.4,250.2l6.2,3.9h-.1l-6.1-3.9-.5.6,4.2,2.6H261l-4.2-2.7h-.1l-.4.5,12.3,7.8h-.2l-12.3-7.7-.3.4h-.1l.9.7h0l2.3,1.5h0l9.8,6.3-11.3-7.2c0-.1,0-.1-.1-.1h-.2l-2-1.3-.3.4,29.3,18.9h-.5l-27.3-17.6h-.1c-.1-.1-.1-.1-.1,0h-.2l-1.5-1-.3.3,6.9,4.6h0l9.2,5.9h-.1l-16.3-10.6h0L355.1,321h-.2l-54.1-35.3h0l96,62.2h.5c.1,0,.1-.1,0-.1v-.2H397l-55.8-36.3h.1l15.3,9.8a.1.1,0,0,0,.1.1h.3a.1.1,0,0,1,.1-.1h0c-.1-.1-.1-.1-.1-.2h-.2l-4.7-3,51,32.8h.5a.1.1,0,0,1,.1-.1v-.2h-.1v-.2h-.1l-85.5-55.2,71.3,45.9h.6v-.2a.1.1,0,0,0-.1-.1c0-.1-.1-.1-.1-.2l-43.7-28.1h0c-.1-.1-.1-.1-.1-.2h-.1l-30.8-19.7h0a.1.1,0,0,0-.1-.1l-14.9-9.6h0l66.7,42.5h.4a.1.1,0,0,1,.1-.1v-.2h-.1a.1.1,0,0,0-.1-.1L325,296.2h.1a.1.1,0,0,1-.1-.1l-14.1-9,110.4,70.1h.6v-.2a.1.1,0,0,0-.1-.1c0-.1,0-.1-.1-.2h-.2l-60.7-38.6h.1a.1.1,0,0,0,.1-.1c0-.1-.1-.1-.1-.2h-.1a.1.1,0,0,0-.1-.1l-11-7h0c0-.1,0-.1-.1-.1l-34.2-21.7h.1l76.2,48.2h.5c0-.1,0-.1.1-.1h-.1L257.5,250.2Z" transform="translate(-246.2 -214.2)"/><path class="cls-8" d="M253.2,255.3l-.7.9,11.3,7.5h-.1a.1.1,0,0,1,.1.1h0l22.4,14.8h-.1l-34-22.3-.3.4-.3.4,22.5,15h0l-22.6-15-.3.4,20.6,13.8h-.1l-9.7-6.4h-.3l.8.6h-.1l-11.6-7.7h-.2l-.5.6L402,362.2h.1a.1.1,0,0,0,.1-.1h0v-.2H402c0-.1-.1-.1-.1-.2l-7-4.6h0s.1-.1,0-.1v-.2h-.1l-.2-.2L285.1,282.4h0l110.8,74.4h.5a.1.1,0,0,1,.1-.1v-.2h0l-.2-.2h-.1L329,311h.1v-.2H329a.1.1,0,0,0-.1-.1h0l-.7-.5h0l74,49.4h.2c.1,0,.1.1.2,0h.1c.1,0,.1,0,.1-.1h0v-.2h-.2c0-.1-.1-.1-.1-.2l-37.5-25h0a.1.1,0,0,1,.1-.1h0c0-.1.1-.1.1-.2a.1.1,0,0,1-.1-.1H365c0-.1-.1-.1-.1-.2L336.2,314h0v-.2h-.1a.1.1,0,0,1-.1-.1h0L299.2,289h.1l4.4,2.8c0,.1,0,.1.1.1h.2a.1.1,0,0,1,.1-.1l30.2,20h.4l18.8,12.4h.4a.1.1,0,0,0,.1-.1h-.1c0-.1,0-.1-.1-.1s0-.1-.1-.2l-12.4-8.1h.1l71.9,47.3h.4a.1.1,0,0,0,.1-.1h0a.1.1,0,0,0,.1-.1c0-.1-.1-.1-.1-.2h-.1l-.2-.2h0l-12.9-8.4h.1c0-.1-.1-.1-.1-.2h-.1c0-.1-.1-.1-.1-.2L321,300.4h.1l77.2,50.5h.5v-.2h-.1l-.2-.2h0L326,302.7h.1l28.5,18.5h.5L253.8,254.6Z" transform="translate(-246.2 -214.2)"/><path class="cls-3" d="M250,259.2h0l16.4,11.1h0l10.4,7h-.1c0,.1,0,.1.1.1h0l7.4,5h-.1l-34.6-23.3-.8.9-.4.5,2.5,1.7h.1l12.8,8.8h.1l2.6,1.8h-.1L248,261.6l-.4.4h0l.7.4h-.1l-.7-.4-.5.6,24,16.6h0l-24.1-16.5-.2.3,10.4,7.3h0l-10.5-7.2-.4.4,110.2,77.4h.1v-.2h-.2l-23-16.1h0v-.2H333l-32-22.3h0l28.5,19.8h.5v-.2h-.2L290,293.1l45.8,31.7h.5l11.9,8.2h.4c0-.1,0-.1.1-.1h0l36,24.8h.5c.1-.1.1-.1.1-.2h-.1c0-.1,0-.1-.1-.2H385l-57.5-39.7h0l4.7,3.2h.3a.1.1,0,0,0,.1-.1h.1l11.3,7.8h.4c.1,0,.1,0,.1-.1a.1.1,0,0,0,.1-.1h-.3l-12.8-8.9h-.1l-24.6-16.9L327,315h0a.1.1,0,0,0,.1.1h.3a.1.1,0,0,0,.1-.1h-.2l-36.1-24.7h.1l11.4,7.7h.4l94.2,64h.6c0-.1,0-.1-.1-.2a.1.1,0,0,0-.1-.1c0-.1-.1-.1-.1-.2l-82.8-56.2h.1l74.6,50.4h.5v-.2h0c0-.1-.1-.1-.1-.2h-.2l-38.3-25.9h.1l50.1,33.8h.4L250,259.1Z" transform="translate(-246.2 -214.2)"/><path class="cls-9" d="M316.5,230.5h-.2l24.3,11.7.3-.4Z" transform="translate(-246.2 -214.2)"/><path class="cls-9" d="M285.5,216.2l-.4.6,45.5,22h0L285,216.9h-.2l21,10.2.5.2.5.2.5.2.5.3.5.2.5.3.4.2.5.3,14,6.8h-.1l-13.1-6.3.3.3.4.3.4.3.3.3,24.8,12h0a.1.1,0,0,1,.1.1l2.5,1.2,1.3-1.9Z" transform="translate(-246.2 -214.2)"/><path class="cls-9" d="M303.8,226.7h.5l.5.2-9.4-4.5h-.3a.1.1,0,0,1,.1.1l7.7,3.7h.9Z" transform="translate(-246.2 -214.2)"/><path class="cls-9" d="M341.6,240h0l.5.2V240l-4.4-2.1-13-6.2h0l-37.6-17.6-.4.5,19,9h0l-19.1-9v.2h-.1l11.3,5.4h.1l34.3,16.4h.1l8.9,4.3.9-1.5Z" transform="translate(-246.2 -214.2)"/><path class="cls-9" d="M290.7,217.7h-.2l50.4,24.1.3-.4Z" transform="translate(-246.2 -214.2)"/><path class="cls-9" d="M298.3,226.2h.5l-15.2-7.4h-.1l-.2.3h0l14.6,7.2h.4Z" transform="translate(-246.2 -214.2)"/><polygon class="cls-9" points="66 22.9 66.3 23.9 67.8 24.6 68.5 24.1 66 22.9"/><path class="cls-9" d="M299.4,226.2h.4l-2.6-1.3h-.3l2.1,1h.4Z" transform="translate(-246.2 -214.2)"/><path class="cls-9" d="M339.2,244.7l-11.9-5.8H327a.1.1,0,0,0,.1.1l1.6.8h-.1L313.8,233l.3.4.3.3c.1.2.1.3.2.4l.3.4,8,4h0l-8-3.9.2.4.2.4v.3c.1.2.1.3.2.4l-.3-.4-.2-.4-.3-.5-.3-.4-6.3-3h-.4l-6.5-3.2h-2.2l18.9,9.3h-.1l-19-9.4h-1.6l10.6,5.3h-.1L297.2,229h-.7l15.3,7.6.2-.7.2,1,2.5,1.2,1.2-1-.5,1.4h0l-.2.7,1.5.8,2.4-.5-1.4,1,18.2,9.2.3-.6Z" transform="translate(-246.2 -214.2)"/><path class="cls-9" d="M294.5,226.8h.5l-12.8-6.4-.2.2-.2.3L294,227h.5Z" transform="translate(-246.2 -214.2)"/><path class="cls-9" d="M293.2,227.2h.3l-8.6-4.2h-.2l8.2,4.2h.2A.1.1,0,0,0,293.2,227.2Z" transform="translate(-246.2 -214.2)"/><path class="cls-9" d="M296.1,226.4h1L283,219.4l-.4.4,1.9,1h-.1l-1.9-.9-.2.3,12.9,6.4h.9Z" transform="translate(-246.2 -214.2)"/><path class="cls-9" d="M313.5,233.3l-.6-.6-.5-.4-7.1-3.5h-1.5l5.5,2.6h-.1l-5.6-2.8h-1.2l12,5.9-.4-.5Z" transform="translate(-246.2 -214.2)"/><path class="cls-9" d="M296.4,229.2h-.8l15.9,8.1.3-.8Z" transform="translate(-246.2 -214.2)"/><path class="cls-9" d="M292.6,231.5h-.3l13.7,7.1-.8-1Z" transform="translate(-246.2 -214.2)"/><path class="cls-9" d="M292.4,227.6h.4l-7-3.5h-.2l.8.4h0l5.6,2.9h.4Z" transform="translate(-246.2 -214.2)"/><polygon class="cls-9" points="65.1 24 62.5 22.7 64.7 25.2 65.1 24"/><path class="cls-9" d="M306.5,239.5,292.1,232h-.2a.1.1,0,0,1-.1.1h0l2.4,1.3h.1l13.4,7h.1Z" transform="translate(-246.2 -214.2)"/><path class="cls-9" d="M322.7,243.4h-.2l13,6.7.3-.5Z" transform="translate(-246.2 -214.2)"/><path class="cls-9" d="M289.5,229.4h.3l-10.6-5.3-.2.2v.2l10.4,5.4h.1Z" transform="translate(-246.2 -214.2)"/><polygon class="cls-9" points="73.8 28.4 71 27 69.8 27.9 73.8 28.4"/><path class="cls-9" d="M289,229.9h.2l-10.4-5.4h-.1l-.2.2,10.4,5.4h.1Z" transform="translate(-246.2 -214.2)"/><polygon class="cls-9" points="69.5 26.2 68.7 25.8 68.5 26.4 69.5 26.2"/><path class="cls-9" d="M288.5,230.5h.2L278.3,225l-.2.3,10.3,5.3h.1Z" transform="translate(-246.2 -214.2)"/><path class="cls-9" d="M290.7,228.5h.4l-10.9-5.6-.3.4h-.1l9.8,5h.1l.7.3a.1.1,0,0,1,.1-.1Z" transform="translate(-246.2 -214.2)"/><path class="cls-9" d="M293.2,231h-.3a.1.1,0,0,1-.1.1h-.1l12.3,6.3h-.1l2.8,1.4,1.4.7-.3-.9Z" transform="translate(-246.2 -214.2)"/><path class="cls-9" d="M294.8,229.9l-.3.2h-.2l-.3.2h-.2l5.2,2.7h0c-.1.1,0,.1,0,.1h.1l8.9,4.6h0l.8.4-.6-2.1Z" transform="translate(-246.2 -214.2)"/><polygon class="cls-9" points="67.2 25.1 66.5 24.7 66.7 25.5 67.2 25.1"/><polygon class="cls-9" points="66.6 32.4 66.6 32.4 66.6 32.4 66.6 32.4"/><path class="cls-9" d="M287.7,231.6h.1l-10.4-5.4-.3.3,10.5,5.4h.1Z" transform="translate(-246.2 -214.2)"/><path class="cls-9" d="M287.9,231.3h.1l-4.7-2.4H283l4.8,2.5h.1Z" transform="translate(-246.2 -214.2)"/><path class="cls-9" d="M307.4,243.9l-4.5-.6,2.4-.5-3.9-2.1h-.3l-10.8-5.7v.4h0c0,.1,0,.2-.1.2l9.5,5.1h0l-9.5-5h0v.4h.1l15.7,8.4,1.7-1.3Z" transform="translate(-246.2 -214.2)"/><path class="cls-9" d="M286.8,233.6h0v-.2l-5.9-3.1h-.3l3.4,1.8h0l2.6,1.4v-.4Z" transform="translate(-246.2 -214.2)"/><path class="cls-9" d="M303.1,240.2l3.5.5-15.2-7.8h-.1v.6l7.9,4.1h0l.8.4h-.1a.1.1,0,0,0,.1.1h0l7,3.7.6-.2Z" transform="translate(-246.2 -214.2)"/><path class="cls-9" d="M333.1,254.1l2.4-3.7-15-7.6-2.7.6,6.2,3.2h0l-6.3-3.2-1.2.3,4.4,2.2-4.9-.7.6.7,3.3,1.7-3.2-1.7,2.4,2.7-4.4-2.4v.6l12.9,6.7h-.1l-7-3.6h-.4l-5.2-2.7.2.6,11.1,5.9-11.1-5.9.6,2.2-2.9-3.3h-.1l-1.1,3.5-1-3.9-1.1,1,1.2.6h0l-1.3-.7-1.8,1.6.7-2.2-1.7-.8-2.2.5,1.3-1-14.6-7.8H291l12.3,6.6h0L290,237.5a1.7,1.7,0,0,0,.1.7,1.3,1.3,0,0,0,.1.6c0,.3.1.5.1.7a6.4,6.4,0,0,1,.2.7l24.7,13.3h-.1l-8-4.4h-6l2.4,1.3h0l16.8,9.3h0a.1.1,0,0,0,.1.1l5.3,2.9h0l-.8-.4h0l-26-14.3-1.3-.4-1.3-.4-1.3-.6-1.2-.6-1.2-.7-1-.7-.9-.8-.9-.8-13.5-7.4h-.4a.1.1,0,0,1,.1.1h0l4.5,2.5h0l38.6,21.5H319l-1.3-.8h-.3l-46.9-26.1-.4.5H270l13.4,7.5h.1l30.1,16.9h-.1l-18.9-10.6h-.3l-24.7-13.8-.5.6,11.7,6.6-11.7-6.6-.3.4,25.4,14.4h0l8.5,4.9-23.8-13.4h-.3l-10.2-5.8-.3.4L295.6,253h-.1l-1.3-.7H294a.1.1,0,0,0-.1.1l29.5,16.9.9-1.4-.9-.5h.1l.9.5,2.3-3.7,2.3-3.5-2.4-1.3h0l2.4,1.2,1-1.4Z" transform="translate(-246.2 -214.2)"/><polygon class="cls-9" points="60.7 31.6 62.2 32.4 62.7 31.1 60.7 31.6"/><path class="cls-9" d="M286.6,234.2h.1l-11.1-5.8v.2h-.1l11.2,5.9h0Z" transform="translate(-246.2 -214.2)"/><path class="cls-9" d="M286.4,236.8v-1.2l-11.7-6.2-.3.3,4.4,2.3h-.1l-4.4-2.3-.2.3-.7.8,13.2,7.1a1.3,1.3,0,0,1-.1-.6A1.3,1.3,0,0,1,286.4,236.8Z" transform="translate(-246.2 -214.2)"/><path class="cls-9" d="M287,239.4a3090632051327.6,3090632051327.6,0,0,1-.2-.6h-.2l-13.7-7.4-.4.5h0l14.7,8c0-.1-.1-.2-.1-.3A.4.4,0,0,1,287,239.4Z" transform="translate(-246.2 -214.2)"/><path class="cls-9" d="M287.8,241.2l-.3-.5-.2-.5-14.9-8.1h0l-.7.9,16.8,9.3-.4-.5Z" transform="translate(-246.2 -214.2)"/><path class="cls-9" d="M302.4,249l1.9.2h1.8l-15.3-8.3c.1.2.1.3.2.4s.1.3.2.4a.8.8,0,0,1,.2.4l.3.4h0l.6.9.8.9.9.8,1,.8,3.7,2,1.8.7Z" transform="translate(-246.2 -214.2)"/><path class="cls-10" d="M308.8,228.7l-.5-.3-.5-.2-.5-.3-.5-.2-.5-.2-.5-.2,3.9,1.9-.5-.3Z" transform="translate(-246.2 -214.2)"/><path class="cls-10" d="M311.2,230.3l-.4-.3-.3-.3-5.7-2.7-.5-.2h-1.4l9,4.4-.3-.3Z" transform="translate(-246.2 -214.2)"/><path class="cls-10" d="M303,228.5h.6l-4.8-2.3h-.9l4.5,2.2h.6Z" transform="translate(-246.2 -214.2)"/><path class="cls-10" d="M304.6,228.7h.7l-5.5-2.6H299l4.8,2.4h.8Z" transform="translate(-246.2 -214.2)"/><path class="cls-10" d="M298.1,228.7h.8l-3.9-1.9h-1l1.7.8h0l1.6.8h.8Z" transform="translate(-246.2 -214.2)"/><path class="cls-10" d="M296.9,229.1h.3l-3.7-1.9h-.3a.1.1,0,0,1-.1.1h-.2l3.6,1.8h.4Z" transform="translate(-246.2 -214.2)"/><path class="cls-10" d="M314.4,233.7l-.3-.3-.3-.4-1.4-.7.5.4.6.6.5.5.4.5.5.2-.3-.4C314.5,234,314.5,233.9,314.4,233.7Z" transform="translate(-246.2 -214.2)"/><path class="cls-10" d="M315.1,235.3l.2.4.3.4c-.1-.1-.1-.2-.2-.4v-.3l-.2-.4-.2-.4-.4-.2.3.4Z" transform="translate(-246.2 -214.2)"/><path class="cls-10" d="M300.2,228.4h1.1l-4.2-2.1h-1.9l3.9,2h1.1Z" transform="translate(-246.2 -214.2)"/><path class="cls-10" d="M292.9,231.2h.3l-3.4-1.8h-.3v.2h-.1l3.4,1.7h.1A.1.1,0,0,0,292.9,231.2Z" transform="translate(-246.2 -214.2)"/><path class="cls-10" d="M292.4,231.7h.2l-3.4-1.7h-.3l3.4,1.7h.1Z" transform="translate(-246.2 -214.2)"/><path class="cls-10" d="M291.9,232.2h.2l-3.4-1.7h-.3l3.4,1.8h0A.1.1,0,0,0,291.9,232.2Z" transform="translate(-246.2 -214.2)"/><path class="cls-10" d="M294.3,230.2h.2l.3-.2h-.5l-3.2-1.6h-.4l-.2.2a.1.1,0,0,0-.1.1l3.4,1.7h.2Z" transform="translate(-246.2 -214.2)"/><path class="cls-10" d="M296,229.4h.4l-3.6-1.8H292l3.6,1.7h.4Z" transform="translate(-246.2 -214.2)"/><path class="cls-10" d="M291.2,233.2V233h.1l-3.4-1.8h-.2l3.2,1.7-3.2-1.6h-.2l3.4,1.8v-.4Z" transform="translate(-246.2 -214.2)"/><path class="cls-10" d="M290.2,235.5v-.4l-3.4-1.8v.2h0v.4l3.4,1.8c.1,0,.1-.1.1-.2Z" transform="translate(-246.2 -214.2)"/><path class="cls-10" d="M290.1,236.2V236h0l-3.4-1.9h-.1c.1,0,.1,0,.1.1h0l3.3,1.7h.1Z" transform="translate(-246.2 -214.2)"/><path class="cls-10" d="M303.7,249.4h.6l-1.9-.2-1.9-.4-1.8-.7,2.4,1.4h2.6Z" transform="translate(-246.2 -214.2)"/><path class="cls-10" d="M291.2,241.7c-.1-.1-.1-.3-.2-.4s-.1-.2-.2-.4l-3.8-2.1h-.2a4635948076806.9,4635948076806.9,0,0,0,.3.9c0,.1.1.2.1.3l4.5,2.5-.3-.4A.8.8,0,0,0,291.2,241.7Z" transform="translate(-246.2 -214.2)"/><path class="cls-10" d="M290.2,238.8a1.3,1.3,0,0,1-.1-.6,1.7,1.7,0,0,1-.1-.7l-3.6-1.9v1.2a1.3,1.3,0,0,0,.1.6,1.3,1.3,0,0,0,.1.6l3.9,2.2a6.4,6.4,0,0,0-.2-.7C290.3,239.3,290.2,239.1,290.2,238.8Z" transform="translate(-246.2 -214.2)"/><path class="cls-10" d="M293.1,244.3l-.8-.9-.6-.9h-.1l-4.3-2.4.2.5.3.5.3.6.4.5,6.5,3.6-1-.8Z" transform="translate(-246.2 -214.2)"/><path class="cls-10" d="M291.6,245.5l1,.7,1.2.7,1.2.6,1.3.6,1.3.4,1.3.4-9.1-5,.9.8Z" transform="translate(-246.2 -214.2)"/><polygon class="cls-10" points="65.5 22.6 65.3 23.4 66.3 23.9 66 22.9 65.5 22.6"/><polygon class="cls-10" points="68.5 24.1 69.2 24.4 69.7 23.1 68.5 24.1"/><polygon class="cls-10" points="65.5 22.6 66 22.8 65.8 21.9 65.5 22.6"/><polygon class="cls-10" points="70.5 26 71.5 26.5 72.9 25.4 70.5 26"/><polygon class="cls-10" points="68.5 24.1 67.8 24.6 69 25.2 69.2 24.5 68.5 24.1"/><path class="cls-10" d="M320.9,245.9l-4.4-2.2,1.2-.3-8.9-4.5.3.9,3,1.6H312l-6.8-3.6.8,1,3.5,1.8h0l-3-1.5,1.3,1.4h-.1l7.4,3.9h.1l1.4.8-.6-.7Z" transform="translate(-246.2 -214.2)"/><polygon class="cls-10" points="58.8 23.5 61.4 24.9 58.7 23.5 58.8 23.5"/><polygon class="cls-10" points="73.8 28.4 69.8 27.9 71 27 69.5 26.2 68.5 26.4 68.7 25.8 67.2 25.1 66.7 25.5 66.5 24.7 65.1 24 64.7 25.2 62.5 22.7 62 22.5 62.6 24.5 71.6 29.2 74.3 28.6 73.8 28.4"/><polygon class="cls-10" points="61.2 29.7 59 28.5 56.7 29 61.2 29.7"/><polygon class="cls-10" points="72.9 34.4 70.4 31.7 60.4 26.5 56.9 25.9 61.1 28.1 60.4 28.2 68.6 32.5 68.5 32 72.9 34.4"/><path class="cls-10" d="M309.2,244.3H309l3.8,2.1h0l2.4,1.2-.2-.6Z" transform="translate(-246.2 -214.2)"/><polygon class="cls-10" points="68.9 33.7 66.7 32.5 69.6 35.9 68.9 33.7"/><polygon class="cls-10" points="65.5 36 66.6 32.5 61.4 29.8 59.7 31.1 60.7 31.6 62.7 31.1 62.2 32.4 63.4 33 64.5 32.1 65.5 36"/><polygon class="cls-10" points="63.3 33.1 62.2 32.5 61.4 34.6 63.3 33.1"/><polygon class="cls-10" points="60.5 31.6 59.6 31.1 58.3 32.1 60.5 31.6"/></g></g></g><image class="cls-11" width="567" height="566" transform="translate(29.1 11.4) scale(0.24)" xlink:href="timewhite1.png"/><path class="cls-3" d="M341.3,243.8a49.8,49.8,0,1,0,49.8,49.8A49.8,49.8,0,0,0,341.3,243.8Zm0,93.3a43.6,43.6,0,1,1,43.6-43.5A43.5,43.5,0,0,1,341.3,337.1Z" transform="translate(-246.2 -214.2)"/><polygon class="cls-3" points="92.3 58.1 92.3 82.9 110 100.6 115.3 95.3 99.8 79.9 99.8 58.1 92.3 58.1"/></g></g></svg>