<svg xmlns="http://www.w3.org/2000/svg" xmlns:xlink="http://www.w3.org/1999/xlink" viewBox="0 0 223.3 157"><defs><style>.cls-1{fill:none;}.cls-2{isolation:isolate;}.cls-3{fill:#0453a5;}.cls-4{fill:#fff;}.cls-5{opacity:0.29;}.cls-6{clip-path:url(#clip-path);}.cls-7{clip-path:url(#clip-path-2);}.cls-8{fill:#e82327;}.cls-9{fill:#272870;}.cls-10{fill:#fbca0c;}.cls-11{opacity:0.87;mix-blend-mode:multiply;}</style><clipPath id="clip-path" transform="translate(-246.5 -213.9)"><path class="cls-1" d="M414.1,293.2a75.6,75.6,0,0,1-142.9,34.5h0a75.6,75.6,0,1,1,142.9-34.5Z"/></clipPath><clipPath id="clip-path-2" transform="translate(-246.5 -213.9)"><rect class="cls-1" x="254.6" y="251.7" width="213.7" height="142.49" transform="translate(143.1 -109.8) rotate(21.4)"/></clipPath></defs><title>timeblue</title><g class="cls-2"><g id="Layer_1" data-name="Layer 1"><path class="cls-3" d="M417.2,293.2a77.7,77.7,0,0,1-146.9,35.4h0a77.7,77.7,0,1,1,146.9-35.4Z" transform="translate(-246.5 -213.9)"/><path class="cls-4" d="M415.1,293.2a75.6,75.6,0,0,1-142.9,34.5h0a75.6,75.6,0,1,1,142.9-34.5Z" transform="translate(-246.5 -213.9)"/><g class="cls-5"><g class="cls-6"><g class="cls-7"><path class="cls-8" d="M355.4,245.9h.3l-13.2-6.2v.2Z" transform="translate(-246.5 -213.9)"/><path class="cls-8" d="M414.7,281h-.3l-2.1-1.1,28,13.6a.1.1,0,0,1,.1.1h.2a.1.1,0,0,0,.1-.1h.1V293a.1.1,0,0,1-.1-.1h-.3l-92.6-45,56.3,27.2h.4c.1,0,.1,0,0-.1h-.1a.1.1,0,0,1-.1-.1l-57.5-27.8h0l47.3,22.8h.3a.1.1,0,0,0,.1-.1h-.2l-40.7-19.7h.1l91.2,43.8h.4c.1,0,.1,0,.1-.1h-.3l-26.9-13h.1v-.2c-.1,0-.1,0-.1-.1H418L394.8,268h.1L457,297.7h.1a.1.1,0,0,0,.1.1h.3a.1.1,0,0,1,.1-.1h0c0-.1-.1-.1-.1-.2h-.3l-46.7-22.3h.1l23,11h.3c.1,0,.1,0,.1-.1h.1c0-.1,0-.1-.1-.2h-.2l-45-21.4,25.4,12h.5l43.2,20.6h.2l-52.8-25.1h.2l2.3,1.1h.4l52.3,24.8h.4c0-.1,0-.1-.1-.1a.1.1,0,0,0-.1-.1h0l-118.3-56-1,1.5,1.5.7-1.5-.7-.3.4,1.2.6-1.2-.6-.2.4,2.9,1.4h0l-2.9-1.4-1.3,2,12.7,6.2h0l62.4,30.6Z" transform="translate(-246.5 -213.9)"/><path class="cls-4" d="M469.8,314.4h-.1c0-.1-.1-.1-.1-.2h-.2L356.1,257.4h.1l46.1,22.9h.4L466,311.6h.4c0-.1,0-.1-.1-.1l-.2-.2-8.8-4.3h.2v-.2h-.4l-69.4-34.5h-.1a.1.1,0,0,1-.1-.1l-27.8-13.7h0l27,13.3h.2l-4.3-2.2h0l10.4,5.1h.4a.1.1,0,0,1,.1-.1h0a.1.1,0,0,0-.1-.1h-.1l70,34.4h0c.1,0,.2,0,.2.1h.2a.1.1,0,0,0,.1-.1h.1V307h-.4l-69.8-34.3h0l3.7,1.8h.4a.1.1,0,0,0,.1-.1h0a.1.1,0,0,1-.1-.1h-.2l-6.1-3h0a.1.1,0,0,1,.1-.1h0l44.6,21.7h.5a.1.1,0,0,0-.1-.1h-.2l-21.7-10.6h0l-62.4-30.6h.1l-12.9-6.2-3,4.6,76.3,38.5h-.3l-35.6-18h0l85.6,42.9h.5c.1-.1.1-.1,0-.2h-.3L347.6,253.9l121.7,60.7h.4c.1,0,.1,0,.1-.1h0Z" transform="translate(-246.5 -213.9)"/><path class="cls-8" d="M336.1,249.6l5.4,2.7h0l-5.4-2.7-.3.4,3.4,1.8h0l-3.4-1.7-2.4,3.7,59.4,30.9,56.4,29.2h.5c0-.1,0-.1.1-.1v-.2h-.3L341.6,257.5h0l39,20.1h.3a.1.1,0,0,0-.1-.1l-10.5-5.4L412,293.2h.5l14.5,7.4h.5v-.2h-.2l-22.4-11.5h.1l60.7,31.1c0,.1.1.1.2.1h.2a.1.1,0,0,0,.1-.1h0v-.2h-.3l-76.3-39.1h.1c0-.1,0-.1-.1-.1a.1.1,0,0,0-.1-.1l-4.7-2.4h.1l6.4,3.3h.3l-17.7-9h.1a.1.1,0,0,1-.1-.1h-.2l-29.4-14.9,9.9,5h.3l92,46.6h.5c0-.1,0-.1-.1-.2a.1.1,0,0,0-.1-.1h-.1l-68.2-34.6h0l-17-8.6h0l13.6,6.8h.2l-22.6-11.4h.1l59.7,30h.5L336.5,249Z" transform="translate(-246.5 -213.9)"/><path class="cls-4" d="M330.2,258.7l27,14.5h0l94.3,50.2h0a.1.1,0,0,0,.1.1h.4c0-.1,0-.1-.1-.2a.1.1,0,0,0-.1-.1c0-.1-.1-.1-.2-.1h0l-70.5-37.7h0c.1,0,.1,0,.1-.1H381a.1.1,0,0,0-.1-.1l-24.3-13h-.1l-12.3-6.6h0l7.2,3.8h.2c0,.1,0,.1.1.1h.1L393,290.3h.4c0-.1,0-.1-.1-.1a.1.1,0,0,0-.1-.1l-40.4-21.5h-.1c0-.1,0-.1-.1-.1l-14.4-7.6h.1l116.9,61.7h.6c0-.1,0-.1-.1-.2h-.1c-.1-.1-.2-.1-.2-.2h0l-85.9-45.3h0l3.5,1.8h.2c.1,0,.1,0,.1-.1h0a.1.1,0,0,0-.1-.1h0l-13.6-7.2,63.9,33.5h.5c.1,0,.1,0,0-.1h0a.1.1,0,0,0-.1-.1h-.2l-62.6-32.9h0l32.7,17h.5L439,310.6h.5c.1-.1.1-.1,0-.2h-.3L377.8,278h-.1l-34.9-18.2,10.9,5.7h.2l-3-1.6,41.9,21.6-59.4-30.9Z" transform="translate(-246.5 -213.9)"/><path class="cls-8" d="M388.8,298.1l22.8,12.5h.5c0-.1-.1-.1-.1-.2a.1.1,0,0,0-.1-.1h-.1l-64.5-35.6,69,37.8h.5c0-.1-.1-.1-.1-.2a.1.1,0,0,1-.1-.1h-.1l-35.8-19.7h0c.1,0,.1,0,.1-.1h-.1a.1.1,0,0,0-.1-.1h-.1l-52-28.6h0l45.4,24.8h.5l14.1,7.7h.4c0-.1,0-.1-.1-.1s0-.1-.1-.1l-1.1-.6h0l42.5,23.1h.5v-.2h-.1a.1.1,0,0,0-.1-.1h-.1L391,295.4h0a497582161916,497582161916,0,0,1-.2-.2l-29.6-16.1,46.2,25h.5a.1.1,0,0,1-.1-.1.1.1,0,0,0-.1-.1h-.1l-.4-.2,51,27.5h.5v-.2h-.4L329.2,260.2l-2.2,3.5Z" transform="translate(-246.5 -213.9)"/><path class="cls-8" d="M329.3,260.1l36.5,19.7h.5l66.2,35.6h.4c0-.1,0-.1-.1-.2h-.1l-97.1-52.2h0l56.6,30.3h.5c0-.1-.1-.1-.1-.2h-.1l-39.8-21.4h.1l4.1,2.2h.3l-27-14.5Z" transform="translate(-246.5 -213.9)"/><path class="cls-4" d="M324.6,267.4l14.2,7.9h.3l68.3,38.4h.5l49,27.6h.5v-.2a.1.1,0,0,0-.1-.1c0-.1,0-.1-.1-.2H457L350.9,280.9h.1l3.2,1.9h.4a.1.1,0,0,1-.1-.1h0l-14.3-8h0l1.6.8a.1.1,0,0,0,.1.1h.3l20.5,11.5h.3c.1,0,.1,0,.1-.1h-.2l-25.8-14.4h.1l44.5,24.7h.4a.1.1,0,0,0-.1-.1c0-.1,0-.1-.1-.1l-29.2-16.3L409.5,311a.1.1,0,0,1,.1.1h.2a497582161916,497582161916,0,0,1,.2-.2h0a.1.1,0,0,0-.1-.1h-.1a.1.1,0,0,0-.1-.1L382,295.1h.1c0-.1,0-.1.1-.1h-.1a.1.1,0,0,0-.1-.1h-.1l-49.3-27.4,2.6,1.4h.2l53.4,29.4L327,263.7Z" transform="translate(-246.5 -213.9)"/><path class="cls-4" d="M392,308.1h0l46.7,26.6c.1,0,.2,0,.2.1h.2a.1.1,0,0,0,.1-.1h0c0-.1-.1-.1-.1-.2h-.2L334.6,274.6h.1l5.3,3h.1c.1,0,.1.1.2,0h.2l2.3,1.3h.2L440.7,334h.3c.1,0,.1,0,.1-.1s.1,0,.1-.1h0a.1.1,0,0,0-.1-.1v-.2h-.1L324.5,267.5l-.8,1.3Z" transform="translate(-246.5 -213.9)"/><path class="cls-8" d="M294.2,251.9h-.1l-19.2-10.9h-.4c0,.1,0,.1.1.1h0l17.8,10.2h0l-24.5-14h-.1l-.7.8,21,12.1H288l-21-12-.2.3,33.6,19.5L266.7,239h-.1l-.2.3,8,4.7-8-4.7-.3.4,11.9,6.9h-.1l-9.7-5.6H268L291.1,255H291l-25.4-14.8-.4.6L295,258.4h0L282.2,251h-.3L265,241.1h-.2l169,100.3h0v-.2h0l-.2-.2h-.1L312.4,269.4h0L333,281.5h.4l25.7,15h.5a.1.1,0,0,0-.1-.1h-.1l-10-5.9h0l32.1,18.7h.5l2.3,1.3h.4c.1,0,.1,0,.1-.1h-.1a.1.1,0,0,0-.1-.1h-.1l-16.3-9.5h.2v-.2h-.2L339.8,283h0l16.9,9.8h.2c0,.1,0,.1.1.1h.2v-.2h-.1c-.1,0-.1,0-.1-.1l-24-13.9,27.6,15.9h.5v-.2H361a.1.1,0,0,1-.1-.1h0l-18.2-10.5,57.8,33.3h.4c0-.1-.1-.1-.1-.2h0l-59.5-34.4h-.1l-3.5-2.1h.1l28.8,16.5h0a.1.1,0,0,0,.1.1h.2a.1.1,0,0,0,.1-.1l85.1,48.9h.5c.1,0,.1,0,.1-.1h0c0-.1,0-.1-.1-.2h-.1c0-.1-.1-.1-.2-.1h0L320.8,268.2h.1l11.8,6.7h.4L391.6,308a.1.1,0,0,0,.1.1h.3l-68.3-39.3Z" transform="translate(-246.5 -213.9)"/><path class="cls-4" d="M264.7,241.4h.2l31.9,18.9h0l-19.4-11.3h-.3l-12.8-7.5-.3.3,34.8,20.7h0L264,242.3l-.6.7,13.1,7.8h0l20.4,12.2h0l14,8.4h-.1l-22.7-13.5h-.4l-24.9-14.9-.3.3,33,19.9h-.1l-11.5-6.9h-.4l-12.9-7.8h-.3L290.2,262h-.1l-6.9-4.1h-.3l-21.2-12.8-.4.4,166.4,102h-.4l-50.4-30.9h0c0-.1-.1-.1-.1-.2a.1.1,0,0,1-.1-.1l-35.3-21.5,16.9,10.3h.3c.1,0,.1,0,.1-.1l27.8,16.9h.5v-.2a.1.1,0,0,0-.1-.1h-.2L336.1,290l54,32.6h.5L409,333.5h.5v-.2h-.1l-.2-.2-52.5-31.7h-.1l-19.2-11.5h.2l15.4,9.2a.1.1,0,0,0,.1.1h.3l8.7,5.2h.4a.1.1,0,0,0,.1-.1h0a.1.1,0,0,1-.1-.1h-.1l-6.8-4.1,84.7,50.6h.6v-.2a.1.1,0,0,0-.1-.1c0-.1-.1-.1-.1-.2h-.2L380,312.5h.1a.1.1,0,0,0-.1-.1h-.2L356,297.8l4.9,2.8h.4L383.9,314h.4c0-.1,0-.1.1-.1h0l9,5.4h.5l8.2,4.9h.4a.1.1,0,0,1,.1-.1h-.1c0-.1-.1-.1-.1-.2L359.5,298l73.8,43.5a.1.1,0,0,1,.1.1h.4l-169-100.3Z" transform="translate(-246.5 -213.9)"/><path class="cls-8" d="M261,245.9l-.2.3L298,269h-.1l-29.4-18h-.6l-7.6-4.7v.2l-.2.2,31.1,19.2H291L267.5,252h-.3l6.1,3.8h0l-13.9-8.6-.4.6-.3.2,5.7,3.6h0l-5.9-3.6h0l-.3.4,16.2,10.1-16.2-10.1-.5.5,134.8,85.4h-.2l-38.2-24.1h0c0-.1-.1-.1-.1-.2a.1.1,0,0,1-.1-.1h0l-22-13.8h.1l35.5,22.2h.4a.1.1,0,0,0,.1-.1h0c0-.1-.1-.1-.1-.2a.1.1,0,0,1-.1-.1l-28-17.6h.1v-.2h0c-.1,0-.1,0-.1-.1h-.1l-20.2-12.6h0l70.6,44.1h.4a.1.1,0,0,0,.1-.1h-.1c0-.1,0-.1-.1-.2h-.1l-43.8-27.4h-.1a.1.1,0,0,0-.1-.1l-35-21.9h.1l101.2,63h.2a.1.1,0,0,0,.1.1h.2c.1,0,.1-.1,0-.1v-.2h-.3l-43.5-27.1h0l19.8,12.2h.5v-.2h-.3l-69.2-43h0l6.3,3.8h.2c.1,0,.1,0,.1-.1h.1l22.3,13.7h.3L339,295.8h.2L358,307.2h.4c0-.1,0-.1.1-.1h0l62.6,38.3h.5a.1.1,0,0,0,.1-.1h0c0-.1-.1-.1-.1-.2h-.1c0-.1-.1-.1-.2-.2l-18-11h0a.1.1,0,0,0,.1-.1c-.1-.1-.1-.1-.1-.2h-.2L352,302h0c0-.1,0-.1.1-.1h0l75,45.8c.1,0,.2,0,.2.1h.2a.1.1,0,0,0,.1-.1h.1l-166.4-102Z" transform="translate(-246.5 -213.9)"/><path class="cls-4" d="M257.7,249.9l6.2,3.9h-.1l-6.2-3.9-.4.5,4.2,2.7h-.1l-4.2-2.6H257l-.4.6,12.3,7.8h-.2l-12.3-7.8-.4.5h-.1l1,.6h0l2.3,1.5h0l9.8,6.3-11.3-7.2h-.4l-2-1.3-.2.4L284.3,272h-.1a.1.1,0,0,1-.1-.1h-.2l-27.4-17.6h-.3l-1.5-.9-.4.3,7,4.5h-.1c.1,0,.1,0,.1.1l9.1,5.9h0l-16.3-10.5h0l101.3,66.4h0a.1.1,0,0,0-.1-.1c0-.1,0-.1-.1-.1h-.1L301,285h.1l96,62.2a.1.1,0,0,0,.1.1h.3a.1.1,0,0,0,.1-.1h0v-.2h-.1l-.2-.2-55.8-36.2h.1l15.3,9.9h.5c0-.1-.1-.1-.1-.2h-.2l-4.7-3.1,51,32.9h.5c0-.1.1-.1,0-.2h0c0-.1-.1-.1-.1-.2h-.2l-85.5-55.2,71.4,45.9h.5c0-.1.1-.1,0-.2h0c0-.1-.1-.1-.1-.2a.1.1,0,0,1-.1-.1L346,310.8h0v-.2h-.3l-30.7-19.7h0a.1.1,0,0,0,.1-.1H315l-15-9.5h.1l66.7,42.6h.2l-41.7-26.7h.1c0-.1,0-.1-.1-.1s0-.1-.1-.1l-14-9,110.4,70.1h.5c0-.1,0-.1.1-.1v-.4h-.3l-60.7-38.6h.1V317H361l-11-7h0a.1.1,0,0,0-.1-.1l-34.2-21.7h0L392,335.6h.5c.1-.1.1-.1,0-.1h0L257.7,249.8Z" transform="translate(-246.5 -213.9)"/><path class="cls-8" d="M253.5,254.9l-.8,1,11.4,7.5H264c-.1,0-.1.1,0,.1h.1l22.4,14.9h-.1l-34-22.3-.3.4-.3.4,22.5,15h0l-22.6-15-.3.4,20.5,13.7h-.1l-9.7-6.4h-.3a.1.1,0,0,1-.1.1h.2l.8.6h-.1L250.9,258v.2l-.5.6,152,103h.2c-.1-.1-.1-.1-.1-.2s-.1-.1-.1-.2h-.2l-6.9-4.7h0v-.2c-.1,0-.1-.1-.1-.2h-.2L285.4,282h0l110.8,74.4h.6V356a.1.1,0,0,0-.1-.1h-.1l-67.2-45.1h0c.1,0,.1,0,.1-.1h-.1a.1.1,0,0,0-.1-.1h0l-.8-.5h.1l74,49.4h.6v-.2H403c0-.1,0-.1-.1-.2h-.1l-37.5-25.1h.1c0-.1-.1-.1-.1-.2h-.1l-28.7-19.1h-.2l-36.8-24.5h.1l4.3,2.9c.1,0,.1,0,.1.1h.3l30.2,19.9h.5l18.7,12.3h.4a.1.1,0,0,0,.1-.1h0c0-.1-.1-.1-.1-.2a.1.1,0,0,1-.1-.1l-12.4-8.2h.1L413.6,362h0c0,.1,0,.1.1.1h.4v-.2c-.1,0-.1-.1-.1-.2h-.2l-12.9-8.5h0v-.2h0c0-.1-.1-.1-.1-.2h-.2l-79.4-52.2h.2l77.1,50.5h.5a.1.1,0,0,1,.1-.1v-.2a.1.1,0,0,0-.1-.1V350h-.1l-72.6-47.5h.1l28.6,18.6h.5L254.1,254.3Z" transform="translate(-246.5 -213.9)"/><path class="cls-4" d="M250.3,258.8h-.1L266.7,270h0l10.4,7.1H277a.1.1,0,0,1,.1.1l7.3,4.9h0l-34.6-23.4-.8,1-.4.4,2.5,1.7h0l12.9,8.8h-.1a.1.1,0,0,1,.1.1h.1l2.6,1.8h-.1l-18.4-12.6-.3.4h0l.6.5h0l-.7-.5-.5.7,23.9,16.6h0l-24-16.6-.3.4,10.5,7.3h0l-10.5-7.3-.4.5,110.2,77.3h.1c0-.1-.1-.1-.1-.2h-.1c0-.1,0-.1-.1-.1L333.4,324h0c.1,0,.1,0,.1-.1h-.2l-32-22.3h0L329.8,321h.5a.1.1,0,0,0-.1-.1h0a.1.1,0,0,0-.1-.1h0l-39.9-27.7,45.9,31.6c0,.1,0,.1.1.1h.2a.1.1,0,0,0,.1-.1h0l11.9,8.2h.4c.1,0,.1,0,.1-.1h0L385,357.3h.5v-.2h0c0-.1-.1-.1-.1-.2h-.2L327.7,317h.1l4.7,3.2h.5l11.3,7.7h.4c.1,0,.1,0,.1-.1h0c0-.1,0-.1-.1-.2a.1.1,0,0,1-.1-.1l-12.8-8.8h.1c0-.1,0-.1-.1-.2h-.1L307.1,301l20.2,13.7h.4v-.2h-.2l-36.1-24.6h.1l11.5,7.8h.1a.1.1,0,0,0,.1.1h.1l94.3,63.9h.5c.1,0,.1-.1,0-.1v-.2H398l-.2-.2-82.7-56.2h.1l74.6,50.4h.4a.1.1,0,0,0,.1-.1h0v-.2H390l-38.3-26h.1l50.1,33.7h0a.1.1,0,0,0,.1.1h.3l-152-103Z" transform="translate(-246.5 -213.9)"/><path class="cls-9" d="M316.8,230.2h-.3l24.4,11.7.2-.4Z" transform="translate(-246.5 -213.9)"/><path class="cls-9" d="M285.8,215.9l-.4.5,45.5,22h0l-45.6-21.9-.2.2h0L306,227l.5.2.6.2.5.2.5.2.5.3.4.2.5.3.4.3,14,6.7h0l-13.2-6.3.4.3.4.3.4.3.3.3,24.7,12h.2l2.5,1.3,1.3-2Z" transform="translate(-246.5 -213.9)"/><path class="cls-9" d="M304.1,226.4h.9l-9.3-4.4h-.2l7.7,3.8h.9Z" transform="translate(-246.5 -213.9)"/><path class="cls-9" d="M341.9,239.7h0l.5.2v-.2l-4.5-2.1-12.9-6.2h0l-37.6-17.6-.4.5,19,9H306l-19-8.9v.2h-.1l11.3,5.4h.1l34.3,16.4h.1l8.8,4.3,1-1.5Z" transform="translate(-246.5 -213.9)"/><path class="cls-9" d="M291,217.4h-.2l50.3,24.1.3-.4Z" transform="translate(-246.5 -213.9)"/><path class="cls-9" d="M298.6,225.9h.4l-15.2-7.4h0l-.3.3h.1l14.6,7.2h.4Z" transform="translate(-246.5 -213.9)"/><polygon class="cls-9" points="66 22.9 66.3 23.9 67.8 24.6 68.5 24.1 66 22.9"/><path class="cls-9" d="M299.7,225.8h.4l-2.7-1.2h-.2l2,1h.5Z" transform="translate(-246.5 -213.9)"/><path class="cls-9" d="M339.5,244.4l-11.9-5.8h-.2l1.6.8h-.1l-14.8-7.2.3.4.2.4.3.4.2.4,8.1,4h0l-8-3.9.2.4c0,.1.1.2.1.3l.2.4c0,.1.1.2.1.4s-.1-.3-.2-.5l-.3-.4c-.1-.1-.1-.2-.2-.4l-.3-.4-6.3-3.1h-.4l-6.5-3.2h-2.2l18.8,9.4h-.1l-18.9-9.4h-1.6l10.5,5.3h0l-10.7-5.2h-.3a.1.1,0,0,1-.1.1h-.2l15.2,7.7.3-.7.2.9L315,238l1.2-1-.5,1.3.3.2h-.3l-.2.7,1.5.8,2.4-.6-1.4,1.1,18.1,9.2.4-.6Z" transform="translate(-246.5 -213.9)"/><path class="cls-9" d="M294.8,226.5h.5L282.5,220l-.2.2-.3.3,12.3,6.1h.5Z" transform="translate(-246.5 -213.9)"/><path class="cls-9" d="M293.5,226.9h.2l-8.5-4.2H285l8.2,4.1h.3Z" transform="translate(-246.5 -213.9)"/><path class="cls-9" d="M296.4,226.1h.9l-14.1-7-.4.5,2,1h-.1l-1.9-.9-.3.3,13,6.4h.9Z" transform="translate(-246.5 -213.9)"/><path class="cls-9" d="M313.7,232.9l-.5-.5-.6-.5-7-3.4h-1.5l5.5,2.7h-.1l-5.6-2.7h-1.2l12,5.9-.5-.5Z" transform="translate(-246.5 -213.9)"/><path class="cls-9" d="M296.7,228.9h-.8l15.9,8.1.2-.8Z" transform="translate(-246.5 -213.9)"/><path class="cls-9" d="M292.9,231.2h-.1a.1.1,0,0,1-.1.1h-.2l13.8,7.1-.9-1Z" transform="translate(-246.5 -213.9)"/><path class="cls-9" d="M292.7,227.2h.4l-7-3.5h-.4c0,.1,0,.1.1.1h0l.9.4h0l5.6,2.8h.4Z" transform="translate(-246.5 -213.9)"/><polygon class="cls-9" points="65.1 24 62.5 22.7 64.7 25.2 65.1 24"/><path class="cls-9" d="M306.8,239.1l-14.5-7.4H292l2.5,1.2h.1l13.3,6.9h.2Z" transform="translate(-246.5 -213.9)"/><path class="cls-9" d="M323,243.1h-.3l13.1,6.6.3-.4Z" transform="translate(-246.5 -213.9)"/><path class="cls-9" d="M289.8,229.1h.3l-10.6-5.4-.2.3-.2.2,10.5,5.3h.2Z" transform="translate(-246.5 -213.9)"/><polygon class="cls-9" points="73.8 28.4 71 27 69.8 27.9 73.8 28.4"/><path class="cls-9" d="M289.3,229.6h.2L279,224.1h0l-.2.2,10.4,5.3h.1Z" transform="translate(-246.5 -213.9)"/><polygon class="cls-9" points="69.5 26.2 68.7 25.8 68.5 26.4 69.5 26.2"/><path class="cls-9" d="M288.8,230.1h.2l-10.4-5.4-.3.4,10.4,5.3h.1Z" transform="translate(-246.5 -213.9)"/><path class="cls-9" d="M291,228.2h.2l.2-.2-11-5.5-.2.3v.2l9.8,5h.1l.6.4.2-.2Z" transform="translate(-246.5 -213.9)"/><path class="cls-9" d="M293.5,230.6h-.2c0,.1,0,.1-.1.2H293l12.3,6.3h-.1l2.7,1.4,1.4.7-.2-.9Z" transform="translate(-246.5 -213.9)"/><path class="cls-9" d="M295.1,229.6h-.3l-.2.2h-.3l-.2.2,5.2,2.7h.1l8.8,4.5h.1l.8.3-.6-2Z" transform="translate(-246.5 -213.9)"/><polygon class="cls-9" points="67.2 25.1 66.5 24.7 66.7 25.5 67.2 25.1"/><polygon class="cls-9" points="66.6 32.4 66.6 32.4 66.6 32.4 66.6 32.4"/><path class="cls-9" d="M288,231.3h.1l-10.4-5.4-.3.4,10.4,5.4h.2Z" transform="translate(-246.5 -213.9)"/><path class="cls-9" d="M288.2,231h.1l-4.8-2.5h-.2l4.8,2.5h.1Z" transform="translate(-246.5 -213.9)"/><path class="cls-9" d="M307.7,243.6l-4.5-.7,2.3-.5-3.8-2h-.4l-10.7-5.6v.2h0v.4l9.5,5h0l-9.5-5.1v.4h-.1v.2h.2l15.7,8.4,1.7-1.3Z" transform="translate(-246.5 -213.9)"/><path class="cls-9" d="M287,233.3c.1,0,.1-.1.1-.2h.1l-6-3.1H281l3.4,1.8h-.1a.1.1,0,0,0,.1.1l2.5,1.4v-.4Z" transform="translate(-246.5 -213.9)"/><path class="cls-9" d="M303.4,239.8l3.5.6-15.2-7.9v.2l-.2.2v.4l8,4.1h-.1a.1.1,0,0,1,.1.1l.7.3h0c-.1,0-.1,0-.1.1h.2l6.9,3.6h.7Z" transform="translate(-246.5 -213.9)"/><path class="cls-9" d="M333.4,253.8l2.4-3.7-15-7.6-2.7.6,6.2,3.2h0l-6.3-3.2-1.3.3,4.5,2.2-4.9-.8.6.8,3.3,1.6-3.3-1.6,2.5,2.7-4.4-2.4v.5l12.9,6.8h-.1l-7-3.7h-.4l-5.2-2.7v.7l11.2,5.9-11.2-5.9.7,2.2-2.9-3.4h-.1l-1.1,3.5-1-3.9-1.1.9,1.2.7H311l-1.2-.7-1.9,1.5.8-2.1-1.7-.9-2.2.5,1.3-1-14.6-7.7h-.3l12.4,6.6h-.1l-13.2-7v.6a2,2,0,0,1,.1.7,6.4,6.4,0,0,1,.2.7,1.4,1.4,0,0,0,.2.6l24.6,13.4h0l-8-4.3h-6l2.3,1.2h.1l16.8,9.3h.1l5.3,2.9h-.1l-.7-.4h0l-26-14.2-1.4-.4-1.3-.4-1.2-.6-1.3-.6-1.1-.7-1-.7-.9-.8-.9-.8-13.5-7.4h-.3l4.5,2.4h-.1l38.6,21.5h-.1l-1.3-.7h-.2l-47-26.1-.3.5h-.1l13.4,7.5h.1l30,16.9h0l-19-10.6h-.3l-24.7-13.8-.4.6,11.7,6.6-11.7-6.6-.3.3,25.3,14.4h0l8.6,4.8-23.8-13.4h-.3l-10.2-5.8-.3.4,27.5,15.6h-.1l-1.3-.8h-.3l29.5,16.9.8-1.3-.9-.5h.1l.9.5,2.4-3.7,2.2-3.5-2.4-1.3h.1l2.4,1.3.9-1.4Z" transform="translate(-246.5 -213.9)"/><polygon class="cls-9" points="60.7 31.6 62.2 32.4 62.7 31.1 60.7 31.6"/><path class="cls-9" d="M286.9,233.9h0l-11-5.8h-.1v.2l11.1,5.9h.1Z" transform="translate(-246.5 -213.9)"/><path class="cls-9" d="M286.7,236.5v-1.2L275,229l-.3.4,4.3,2.3h0l-4.4-2.4-.2.3-.7.9,13.1,7.1a1.3,1.3,0,0,0-.1-.6Z" transform="translate(-246.5 -213.9)"/><path class="cls-9" d="M287.2,239.1a3090632051092.5,3090632051092.5,0,0,0-.2-.6h-.1l-13.7-7.5-.4.6h0l14.7,8a.4.4,0,0,1-.1-.3Z" transform="translate(-246.5 -213.9)"/><path class="cls-9" d="M288.1,240.9l-.3-.5-.3-.5-14.8-8.1h-.1l-.7.9,16.8,9.3-.3-.6Z" transform="translate(-246.5 -213.9)"/><path class="cls-9" d="M302.7,248.6l1.9.2h1.8l-15.3-8.3c.1.1.1.3.2.4l.2.4c.1.1.1.2.2.4l.2.3h.1l.6.9.8.8a7.6,7.6,0,0,0,.9.9l.9.7,3.8,2.1a12.7,12.7,0,0,0,1.8.6Z" transform="translate(-246.5 -213.9)"/><path class="cls-10" d="M309,228.3l-.4-.2-.5-.3-.5-.2-.5-.2-.6-.2-.5-.2,3.9,1.9-.4-.3Z" transform="translate(-246.5 -213.9)"/><path class="cls-10" d="M311.5,230l-.4-.3-.4-.3-5.7-2.8h-1.8l9,4.4-.3-.3Z" transform="translate(-246.5 -213.9)"/><path class="cls-10" d="M303.3,228.1h.6l-4.9-2.4h-.8l4.5,2.2h.6Z" transform="translate(-246.5 -213.9)"/><path class="cls-10" d="M304.9,228.4h.7l-5.5-2.7h-.9l4.9,2.4h.8Z" transform="translate(-246.5 -213.9)"/><path class="cls-10" d="M298.4,228.4h.8l-3.9-2h-1l1.7.8h-.1a.1.1,0,0,0,.1.1l1.6.8h.8Z" transform="translate(-246.5 -213.9)"/><path class="cls-10" d="M297.1,228.7h.3l-3.7-1.9h-.5l3.6,1.8h.2A.1.1,0,0,0,297.1,228.7Z" transform="translate(-246.5 -213.9)"/><path class="cls-10" d="M314.6,233.4l-.2-.4-.3-.4-1.5-.7.6.5.5.5.5.6.5.5.4.2-.2-.4Z" transform="translate(-246.5 -213.9)"/><path class="cls-10" d="M315.3,234.9l.3.4c.1.2.2.3.2.5s-.1-.3-.1-.4l-.2-.4c0-.1-.1-.2-.1-.3l-.2-.4-.4-.2.3.4C315.2,234.7,315.2,234.8,315.3,234.9Z" transform="translate(-246.5 -213.9)"/><path class="cls-10" d="M300.5,228.1h1.1l-4.3-2.1h-1.8l3.9,1.9h1.1Z" transform="translate(-246.5 -213.9)"/><path class="cls-10" d="M293.2,230.9c.1-.1.1-.1.1-.2h.2l-3.4-1.7h-.5l3.4,1.8h.2Z" transform="translate(-246.5 -213.9)"/><path class="cls-10" d="M292.7,231.3a.1.1,0,0,0,.1-.1h.1l-3.4-1.8h-.3l3.3,1.8h.2Z" transform="translate(-246.5 -213.9)"/><path class="cls-10" d="M292.2,231.9h.1L289,230h-.3l3.3,1.8h.2Z" transform="translate(-246.5 -213.9)"/><path class="cls-10" d="M294.6,229.9l.2-.2h-.2l-3.2-1.7-.2.2h-.4l-.2.2,3.5,1.7.2-.2Z" transform="translate(-246.5 -213.9)"/><path class="cls-10" d="M296.3,229h.4l-3.6-1.8h-.8l3.6,1.8h.4Z" transform="translate(-246.5 -213.9)"/><path class="cls-10" d="M291.4,232.9l.2-.2v-.2l-3.4-1.7h-.2l3.1,1.7-3.1-1.7h-.3l3.4,1.8v-.4Z" transform="translate(-246.5 -213.9)"/><path class="cls-10" d="M290.5,235.1h0v-.2l-3.4-1.8h-.1c0,.1,0,.2-.1.2v.4l3.5,1.8v-.4Z" transform="translate(-246.5 -213.9)"/><path class="cls-10" d="M290.4,235.9v-.4l-3.5-1.8h.1l3.3,1.8V236Z" transform="translate(-246.5 -213.9)"/><path class="cls-10" d="M304,249.1h.6l-1.9-.2-1.9-.4a12.7,12.7,0,0,1-1.8-.6l2.4,1.4H304Z" transform="translate(-246.5 -213.9)"/><path class="cls-10" d="M291.5,241.4l-.2-.4c-.1-.1-.1-.3-.2-.4l-3.9-2.1H287a3090632051092.5,3090632051092.5,0,0,1,.2.6l.2.3a.4.4,0,0,0,.1.3l4.4,2.4-.2-.3C291.6,241.6,291.6,241.5,291.5,241.4Z" transform="translate(-246.5 -213.9)"/><path class="cls-10" d="M290.4,238.5a2,2,0,0,0-.1-.7v-.6l-3.6-1.9v1.8a1.3,1.3,0,0,1,.1.6l4,2.1a1.4,1.4,0,0,1-.2-.6A6.4,6.4,0,0,0,290.4,238.5Z" transform="translate(-246.5 -213.9)"/><path class="cls-10" d="M293.4,243.9l-.8-.8-.6-.9h-.1l-4.4-2.3.3.5.3.5.3.5.3.6,6.5,3.5-.9-.7A7.6,7.6,0,0,1,293.4,243.9Z" transform="translate(-246.5 -213.9)"/><path class="cls-10" d="M291.9,245.2l1,.7,1.1.7,1.3.6,1.2.6,1.3.4,1.4.4-9.1-5,.9.8Z" transform="translate(-246.5 -213.9)"/><polygon class="cls-10" points="65.5 22.6 65.3 23.4 66.3 23.9 66 22.9 65.5 22.6"/><polygon class="cls-10" points="68.5 24.1 69.2 24.4 69.7 23.1 68.5 24.1"/><polygon class="cls-10" points="65.5 22.6 66 22.8 65.8 21.9 65.5 22.6"/><polygon class="cls-10" points="70.5 26 71.5 26.5 72.9 25.4 70.5 26"/><polygon class="cls-10" points="68.5 24.1 67.8 24.6 69 25.2 69.2 24.5 68.5 24.1"/><path class="cls-10" d="M321.2,245.6l-4.5-2.2,1.3-.3-8.9-4.5.2.9,3.1,1.6h-.1l-6.9-3.5.9,1,3.5,1.8h-.1l-2.9-1.5,1.3,1.5h-.2l7.5,3.9h0c0,.1,0,.1.1.1h0l1.4.8-.6-.8Z" transform="translate(-246.5 -213.9)"/><polygon class="cls-10" points="58.8 23.5 61.4 24.9 58.7 23.5 58.8 23.5"/><polygon class="cls-10" points="73.8 28.4 69.8 27.9 71 27 69.5 26.2 68.5 26.4 68.7 25.8 67.2 25.1 66.7 25.5 66.5 24.7 65.1 24 64.7 25.2 62.5 22.7 62 22.5 62.6 24.5 71.6 29.2 74.3 28.6 73.8 28.4"/><polygon class="cls-10" points="61.2 29.7 59 28.5 56.7 29 61.2 29.7"/><polygon class="cls-10" points="72.9 34.4 70.4 31.7 60.4 26.5 56.9 25.9 61.1 28.1 60.4 28.2 68.6 32.5 68.5 32 72.9 34.4"/><path class="cls-10" d="M309.5,244h-.4a.1.1,0,0,1,.1.1h.1l3.8,2h0l2.3,1.3v-.7Z" transform="translate(-246.5 -213.9)"/><polygon class="cls-10" points="68.9 33.7 66.7 32.5 69.6 35.9 68.9 33.7"/><polygon class="cls-10" points="65.5 36 66.6 32.5 61.4 29.8 59.7 31.1 60.7 31.6 62.7 31.1 62.2 32.4 63.4 33 64.5 32.1 65.5 36"/><polygon class="cls-10" points="63.3 33.1 62.2 32.5 61.4 34.6 63.3 33.1"/><polygon class="cls-10" points="60.5 31.6 59.6 31.1 58.3 32.1 60.5 31.6"/></g></g></g><image class="cls-11" width="566" height="567" transform="translate(28.1 11.2) scale(0.24)" xlink:href="timeblue1.png"/><path class="cls-3" d="M340.4,243.3a49.9,49.9,0,1,0,49.8,49.9A49.8,49.8,0,0,0,340.4,243.3Zm0,93.4a43.6,43.6,0,1,1,43.5-43.5A43.5,43.5,0,0,1,340.4,336.7Z" transform="translate(-246.5 -213.9)"/><polygon class="cls-3" points="91.1 58 91.1 82.8 108.8 100.5 114.1 95.2 98.6 79.8 98.6 58 91.1 58"/></g></g></svg>