<svg xmlns="http://www.w3.org/2000/svg" xmlns:xlink="http://www.w3.org/1999/xlink" viewBox="0 0 223.3 157"><defs><style>.cls-1{fill:none;}.cls-2{isolation:isolate;}.cls-3{fill:#e82327;}.cls-4{fill:#fff;}.cls-5{opacity:0.29;}.cls-6{clip-path:url(#clip-path);}.cls-7{clip-path:url(#clip-path-2);}.cls-8{fill:#272870;}.cls-9{fill:#fbca0c;}.cls-10{opacity:0.87;mix-blend-mode:multiply;}</style><clipPath id="clip-path" transform="translate(-246.7 -213.8)"><path class="cls-1" d="M414.3,293.1a75.6,75.6,0,0,1-142.9,34.5h0a75.6,75.6,0,0,1,67.3-110.1,75.6,75.6,0,0,1,75.6,75.6Z"/></clipPath><clipPath id="clip-path-2" transform="translate(-246.7 -213.8)"><rect class="cls-1" x="254.8" y="251.6" width="213.7" height="142.49" transform="translate(143 -109.9) rotate(21.4)"/></clipPath></defs><title>timered</title><g class="cls-2"><g id="Layer_1" data-name="Layer 1"><path class="cls-3" d="M417.4,293.1a77.7,77.7,0,0,1-146.9,35.4h0a77.7,77.7,0,1,1,146.9-35.4Z" transform="translate(-246.7 -213.8)"/><path class="cls-4" d="M415.3,293.1a75.6,75.6,0,0,1-142.9,34.5h0a75.6,75.6,0,0,1,67.3-110.1,75.6,75.6,0,0,1,75.6,75.6Z" transform="translate(-246.7 -213.8)"/><g class="cls-5"><g class="cls-6"><g class="cls-7"><path class="cls-3" d="M355.6,245.8h.3l-13.2-6.3v.2Z" transform="translate(-246.7 -213.8)"/><path class="cls-3" d="M414.9,280.9h-.3l-2.1-1,28,13.5h.5v-.2a.1.1,0,0,1-.1-.1h-.2l-92.7-45,56.4,27.2h.4a.1.1,0,0,1-.1-.1h-.1L347,246.5h0l47.3,22.8h.2l-40.7-19.7h.1L445.1,293h.2a.1.1,0,0,0,.2,0c.1,0,.1,0,.1-.1h-.3l-26.9-12.9h0c0-.1,0-.1.1-.1h-.3L395,267.9h0l62.2,29.7h.5c.1,0,.1-.1,0-.1h0c-.1-.1-.1-.1-.1-.2h-.2l-46.7-22.3h0a.1.1,0,0,1,.1-.1h-.1l23.1,11h.5c0-.1,0-.1-.1-.1v-.2H434l-45-21.5,25.4,12h.4l43.3,20.6h.2a.1.1,0,0,0,.1.1h.2a.1.1,0,0,0-.1-.1h-.1a.1.1,0,0,0-.1-.1l-52.8-25.1h.1c0-.1,0-.1.1-.1h0l2.2,1.1h.4a.1.1,0,0,0,.1-.1l52.3,24.8h.4c.1,0,.1,0,.1-.1h0a.1.1,0,0,0-.1-.1c0-.1,0-.1-.1-.1h-.2l-118.2-56-1,1.5,1.5.7-1.5-.7-.3.4,1.2.6-1.2-.6-.2.4,2.9,1.4h0l-3-1.4-1.2,1.9,12.7,6.2h0L414.9,281Z" transform="translate(-246.7 -213.8)"/><path class="cls-4" d="M470,314.3h-.1c0-.1-.1-.1-.1-.2h-.2L356.2,257.3h.1l46.1,22.9h.5l63.3,31.4a.1.1,0,0,1,.1.1h.2c.1,0,.1,0,.1-.1h.1v-.2a.1.1,0,0,0-.1-.1h-.3l-8.8-4.4h.2c-.1-.1-.1-.1-.1-.2h-.3l-69.4-34.5h0c-.1,0-.1,0-.1-.1h-.1l-27.9-13.8h.1l26.9,13.3h.4a.1.1,0,0,0,.1-.1h0c0-.1,0-.1-.1-.2H387l-4.2-2.1h0l10.4,5.2h.4a.1.1,0,0,0,.1-.1.1.1,0,0,1-.1-.1h-.2l70.1,34.4h.6c0-.1,0-.1-.1-.1v-.2a.1.1,0,0,1-.1-.1h-.2l-69.9-34.3h.1l3.7,1.9h.2l-6.2-3h.2l44.6,21.7h.4a.1.1,0,0,0,.1-.1h-.1a.1.1,0,0,0-.1-.1h-.1L414.9,281h0l-62.4-30.5h.1l-12.9-6.3-3,4.6L413,287.4h-.3l-35.7-18h0L462.7,312h.5v-.2h-.3L347.8,253.8l121.6,60.7h.5a.1.1,0,0,0,.1-.1h0Z" transform="translate(-246.7 -213.8)"/><path class="cls-3" d="M336.3,249.5l5.4,2.7h0l-5.4-2.7-.3.5,3.4,1.7h0L336,250l-2.4,3.7,59.4,31,56.4,29.1h.5v-.2h-.3L341.8,257.5h0l39,20.1a.1.1,0,0,0,.1.1h.3a.1.1,0,0,0-.1-.1H381l-10.5-5.4,41.7,21.4h.4c.1,0,.1,0,.1-.1h0l14.5,7.4a.1.1,0,0,0,.1.1h.4a.1.1,0,0,0-.1-.1V300a.1.1,0,0,1-.1-.1l-22.5-11.5h.2l60.6,31.2h.5c.1,0,.1,0,.1-.1h0a.1.1,0,0,0-.1-.1c0-.1-.1-.1-.1-.2h-.2l-76.3-39.1h.1a.1.1,0,0,0-.1-.1h-.1l-4.7-2.4h.1l6.4,3.2h.4a.1.1,0,0,1,.1-.1h-.3l-17.6-9h-.2l-29.4-15,9.9,5h.3l92,46.6h.5v-.2h-.3l-68.1-34.5h.2a.1.1,0,0,0-.1-.1h-.2l-17-8.6h.1l13.6,6.8h.3a.1.1,0,0,0-.1-.1h0l-22.6-11.4h0l59.8,29.9h0a.1.1,0,0,0,.1.1h.3c0-.1,0-.1.1-.1h0l-76.3-38.5Z" transform="translate(-246.7 -213.8)"/><path class="cls-4" d="M330.4,258.6l27,14.5h0l94.2,50.2h.6c0-.1-.1-.1-.1-.2h-.3l-70.5-37.7h-.2l-24.4-13h.2a.1.1,0,0,0-.1-.1h0a.1.1,0,0,1-.1-.1l-12.3-6.5h0l7.2,3.8h0a.1.1,0,0,1,.1.1h.2a.1.1,0,0,0,.1-.1l41.2,21.8a.1.1,0,0,0,.1.1h.3a.1.1,0,0,0-.1-.1h-.1l-40.5-21.5h-.1l-14.4-7.6h0l117,61.7h.5v-.2h-.2a.1.1,0,0,0-.1-.1h0l-85.9-45.4h0l3.4,1.7h.5a.1.1,0,0,1-.1-.1.1.1,0,0,1-.1-.1h0l-13.6-7.1,63.9,33.4h.2a.1.1,0,1,0,.2,0h-.2l-62.7-32.9h.1L394,287.3h.5l44.7,23.3h.5v-.2h-.3L378,278h.1a.1.1,0,0,0-.1-.1h-.2L343,259.3l10.9,5.7h.1c.1.1.1.1.1,0h.2c0-.1,0-.1-.1-.1h-.1L351,263l42,21.7-59.4-31Z" transform="translate(-246.7 -213.8)"/><path class="cls-3" d="M389,298l22.7,12.5h.5c.1,0,.1-.1,0-.1v-.2h-.3l-64.4-35.6,68.9,37.8h.5c0-.1-.1-.1-.1-.2h-.2L380.8,292h0a.1.1,0,0,1-.1-.1h0l-52-28.6h0l45.4,24.8a.1.1,0,0,0,.1.1h.3l14.2,7.7h.2l-1.1-.6h0l42.5,23.1a.1.1,0,0,0,.1.1h.3a.1.1,0,0,1,.1-.1h0c0-.1-.1-.1-.1-.2h-.3l-39.2-21.4H391l-29.6-16.1,46.1,25h0c.1,0,.2,0,.2.1h.3c.1-.1.1-.1,0-.2h-.2l-.5-.2,51.1,27.6h.4c.1,0,.1,0,.1-.1h-.1c0-.1,0-.1-.1-.2h-.2L329.4,260.1l-2.2,3.5Z" transform="translate(-246.7 -213.8)"/><path class="cls-3" d="M329.5,260,366,279.7h0a.1.1,0,0,1,.1.1h.3l66.2,35.6h.5c0-.1-.1-.1-.1-.2h-.2l-97-52.2h0l56.6,30.3h.2L352.9,271h.1l4.1,2.2h.3l-27-14.5Z" transform="translate(-246.7 -213.8)"/><path class="cls-4" d="M324.8,267.3l14.2,8h.3l68.3,38.5h.4a.1.1,0,0,0,.1-.1h0L457,341.2h.5a.1.1,0,0,0,.1-.1V341a.1.1,0,0,0-.1-.1c0-.1-.1-.1-.1-.2h-.2L351.1,280.8h0l3.3,1.9h.3l-14.3-8.1h0l1.6.9h.3l20.6,11.4h.1a.1.1,0,0,0,.2,0h.1v-.2a.1.1,0,0,1-.1-.1h-.1l-25.8-14.5h.1l44.5,24.8h.4s.1,0,0-.1h0a.1.1,0,0,0-.1-.1h-.1l-29.2-16.3,56.8,31.4h.5v-.2h-.3L382.2,295h.1s.1,0,0-.1h-.2l-49.3-27.3,2.6,1.3h.1L389,298l-61.8-34.4Z" transform="translate(-246.7 -213.8)"/><path class="cls-4" d="M392.2,308h0l46.7,26.6h.6v-.2h-.1c0-.1-.1-.1-.1-.2h-.2L334.8,274.5h.1l5.3,3h0a.1.1,0,0,1,.1.1h.1a.1.1,0,0,0,.1-.1h.1l2.3,1.3h.3l97.6,55.2c.1,0,.2,0,.2.1h.2a.1.1,0,0,0,.1-.1h.1v-.2h-.1c0-.1-.1-.1-.1-.2H441L324.7,267.4l-.9,1.4Z" transform="translate(-246.7 -213.8)"/><path class="cls-3" d="M294.4,251.8h-.1L275.1,241h-.3l17.8,10.2h0l-24.6-14h0l-.7.8,21,12.1h-.1l-21-12-.3.3,33.7,19.5L266.8,239h0l-.2.3,8,4.7-8-4.7-.4.4,11.9,6.9h0l-9.7-5.6h-.3L291.3,255h-.1l-25.4-14.8-.5.6,29.9,17.6h0l-12.8-7.5h-.3L265.2,241h0l-.2.2L434,341.4h0v-.2h-.1c0-.1,0-.1-.1-.2h-.2l-121-71.5h0l20.6,12.1h.4l25.7,15.1h.4a.1.1,0,0,1-.1-.1l-10-5.9h0l32.1,18.7a.1.1,0,0,0,.1.1h.3c0-.1,0-.1.1-.1h0l2.2,1.3h.3c.1,0,.1,0,.1-.1h.1v-.2h-.2L368.4,300h0c.1,0,.1,0,.1-.1h0v-.2h-.1l-28.4-16.6h.1l16.9,9.8h.5c0-.1,0-.1-.1-.1v-.2h-.2l-23.9-14,27.6,15.9h.5c0-.1,0-.1-.1-.1H361l-18.1-10.6,57.8,33.3h.2a.1.1,0,0,0,.2,0h-.2l-59.5-34.5h.1a.1.1,0,0,0-.1-.1l-3.5-2.1h0l28.9,16.5h.4l85.1,48.9c.1,0,.2,0,.2.1h.2a.1.1,0,0,0,.1-.1h.1V344a.1.1,0,0,0-.1-.1c0-.1-.1-.1-.1-.2h-.2L321,268.1h0c0-.1,0-.1.1-.1h0l11.8,6.6h.3L391.8,308h.4l-68.4-39.2Z" transform="translate(-246.7 -213.8)"/><path class="cls-4" d="M264.9,241.3h.2L297,260.6h-.1l-19.3-11.3h-.3l-12.8-7.5-.3.3L299,262.8h0l-34.8-20.6-.6.7,13.1,7.8h0l20.4,12.2h0L311,272h0l-22.8-13.6H288a.1.1,0,0,0-.1.1l-25-14.9-.2.3,33,19.9h-.1l-11.5-6.8h-.4l-13-7.8h-.2l19.9,12.1h-.1l-6.9-4.2h-.3L261.9,245l-.4.4,166.4,102h-.4l-50.4-30.8h0c0-.1-.1-.1-.1-.2h-.1l-35.3-21.5,16.9,10.3h.1a.1.1,0,1,0,.2,0h.1l27.8,16.8h.4c0-.1,0-.1.1-.1V321H387c0-.1,0-.1-.1-.1h0l-50.6-30.8,54,32.6h.4a.1.1,0,0,0,.1-.1h0l18.4,11.1h.5v-.2h-.1a.1.1,0,0,0-.1-.1c0-.1-.1-.1-.1-.2l-52.5-31.7h0a.1.1,0,0,0,.1-.1h-.2l-19.2-11.5h.1l15.5,9.3h.4l8.7,5.2h.3a.1.1,0,0,1,.1-.1h-.2l-6.7-4,84.7,50.5h.6V349H441c0-.1-.1-.1-.1-.2h-.2l-60.5-36.2h0c.1-.1.1-.1.1-.2h-.1a497582161916,497582161916,0,0,0-.2-.2h0l-23.8-14.2,4.8,2.9h.4a.1.1,0,0,0,.1-.1h0l22.6,13.4a.1.1,0,0,0,.1.1h.4l9,5.3h.5l8.2,4.9h.5c.1-.1.1-.1,0-.2h-.1a.1.1,0,0,0-.1-.1l-42.9-25.5,73.8,43.5h.5L265,241.2Z" transform="translate(-246.7 -213.8)"/><path class="cls-3" d="M261.2,245.8l-.3.3,37.3,22.8h0c-.1,0-.1,0-.1.1h0l-29.4-17.9h-.6l-7.6-4.7v.2l-.2.2,31,19.2h-.1l-23.4-14.4h-.3l6.1,3.8h-.1l-13.8-8.6-.5.6-.2.2,5.7,3.6h-.1c-.1,0-.1.1,0,.1h0l-5.8-3.6h0l-.3.4,16.2,10.1-16.2-10.1-.5.6,134.8,85.4h-.2a.1.1,0,0,0-.1-.1l-38.1-24.1h0c-.1-.1-.1-.1-.1-.2h-.1l-22-13.8h.1l35.5,22.3h.5c0-.1-.1-.1-.1-.2H368l-28.1-17.6h.2v-.2h0c-.1,0-.1,0-.1-.1h0l-20.3-12.6h0l70.6,44.1c.1,0,.2,0,.2.1h.4v-.2h-.2c0-.1-.1-.1-.1-.2h0l-43.8-27.4h0a.1.1,0,0,1-.1-.1h-.1l-35-21.9h.1l101.2,62.9h.4c.1,0,.1,0,.1-.1h0v-.2H413l-43.5-27.1h0l19.8,12.2h.5c0-.1,0-.1-.1-.2a.1.1,0,0,0-.1-.1h-.1l-69.2-43h0l6.3,3.8a.1.1,0,0,0,.1.1h.3l22.3,13.7a.1.1,0,0,1,.1.1h.3a.1.1,0,0,1,.1-.1c0-.1-.1-.1-.1-.2h-.2l-10.3-6.3h.1l18.9,11.5h.4l62.7,38.4h.2a.1.1,0,0,0,.1.1h.3v-.2h-.3l-18-11.1h0v-.2h-.3l-51-31.3h.1l75,45.8h.6l-166.4-102Z" transform="translate(-246.7 -213.8)"/><path class="cls-4" d="M257.8,249.8l6.2,3.9h0l-6.2-3.9-.5.5,4.3,2.7h-.1l-4.3-2.6h0l-.5.5L269,259h-.1l-12.3-7.8-.4.5h-.1l1,.6H257c-.1,0-.1,0,0,.1h.1l2.3,1.5h-.1l9.9,6.4-11.3-7.3h-.4l-2-1.3-.3.4,29.3,18.9h-.4a.1.1,0,0,1-.1.1l-27.3-17.6h-.3l-1.6-1-.3.3,7,4.5h0l9.1,5.9h0l-16.3-10.5h-.1l101.4,66.4a.1.1,0,0,0-.1-.1h-.1a.1.1,0,0,0-.1-.1l-54.1-35.3h0l96.1,62.2h.5c0-.1,0-.1-.1-.2a.1.1,0,0,0-.1-.1c0-.1-.1-.1-.1-.2l-55.8-36.2h0L357,320h.4a.1.1,0,0,0,.1-.1h0c0-.1,0-.1-.1-.2a.1.1,0,0,1-.1-.1l-4.7-3,51,32.8h.5v-.2h0v-.2h-.2l-85.5-55.2,71.4,45.9h.5v-.2h0a.1.1,0,0,0-.1-.1l-.2-.2-43.7-28.1h0v-.2H346l-30.7-19.7h0v-.2h-.1l-15-9.6h.1L367,323a.1.1,0,0,1,.1.1h.3v-.2a.1.1,0,0,1-.1-.1h-.1c0-.1,0-.1-.1-.1l-41.7-26.7h.1c0-.1,0-.1-.1-.1h-.1l-14-9,110.4,70.1h.5c.1-.1.1-.1,0-.2h0c0-.1-.1-.1-.1-.2H422l-60.7-38.6h.1v-.2a.1.1,0,0,1-.1-.1h-.1l-11-7h.1a.1.1,0,0,1-.1-.1h-.1l-34.3-21.7h.1l76.3,48.2h.3c.1,0,.1,0,.1-.1h.1L257.9,249.8Z" transform="translate(-246.7 -213.8)"/><path class="cls-3" d="M253.7,254.9l-.8.9,11.3,7.5h0l22.5,14.8h-.1l-34-22.3-.4.4-.3.4,22.6,15h-.1l-22.5-15-.3.4,20.5,13.8H272l-9.7-6.4a.1.1,0,0,0-.1-.1H262l.9.6h-.1l-11.7-7.8v.2l-.5.6,152,103h.1v-.2a.1.1,0,0,1-.1-.1l-.2-.2-6.9-4.7h0V356a.1.1,0,0,0-.1-.1c0-.1-.1-.1-.1-.2L285.5,282h.1l110.8,74.4h.5v-.2a.1.1,0,0,1-.1-.1c0-.1-.1-.1-.1-.2h-.2l-67.1-45.1h0a.1.1,0,0,0,.1-.1h-.2l-.8-.5h0L402.7,359h.5a.1.1,0,0,0,.1-.1c0-.1-.1-.1-.1-.2s-.1-.1-.1-.2h-.2l-37.5-25h.1l-.2-.2-28.7-19.1h.1a.1.1,0,0,0-.1-.1h-.1l-36.8-24.5h.1l4.3,2.8h.4l30.2,20h.4a.1.1,0,0,1,.1-.1h0l18.7,12.3h.4a.1.1,0,0,0,.1-.1h0c0-.1-.1-.1-.1-.2a.1.1,0,0,1-.1-.1l-12.4-8.1h.1L413.7,362h.2a.1.1,0,0,0,.1.1h.1a.1.1,0,0,0,.1-.1h.1v-.2h-.2c0-.1-.1-.1-.1-.2h0l-12.9-8.5h0v-.2a.1.1,0,0,1-.1-.1l-.2-.2L321.4,300h.2l77.1,50.5h.5a.1.1,0,0,1,.1-.1h0c0-.1,0-.2-.1-.2s0-.1-.1-.2H399l-72.6-47.5h.1l28.6,18.6a.1.1,0,0,0,.1.1h.4L254.2,254.2Z" transform="translate(-246.7 -213.8)"/><path class="cls-4" d="M250.5,258.7h-.1l16.4,11.1h0a.1.1,0,0,1,.1.1l10.4,7h0l7.3,5h0L250,259.4l-.8.9-.4.5,2.5,1.7h0c-.1,0-.1,0-.1.1h0a.1.1,0,0,1,.1.1l12.9,8.8h0l2.6,1.8h0l-18.4-12.6-.3.4h0l.6.5h-.1l-.6-.5-.5.7L271.4,279h0l-24-16.5-.3.3,10.5,7.3h-.1l-10.4-7.2-.4.4,110.2,77.3h0v-.2a.1.1,0,0,0-.1-.1h-.1L333.6,324h-.1c0-.1,0-.1-.1-.1h0l-31.9-22.3h0L330,320.9h.1a.1.1,0,1,0,.2,0h.1a.1.1,0,0,0,.1-.1h-.3l-39.8-27.7,45.8,31.6h.5l11.9,8.2h.5l36.1,24.8h.5V357h0c-.1-.1-.1-.1-.1-.2h-.2l-57.5-39.7h.1l4.7,3.2h.5l11.3,7.8h.4c0-.1-.1-.1-.1-.2l-12.9-8.8h.2a.1.1,0,0,0-.1-.1h-.1l-24.7-16.9,20.2,13.7h.5v-.2h-.1l-36.1-24.6h0a.1.1,0,0,1,.1-.1h0l11.5,7.7h.3l94.3,64h.4c.1,0,.1,0,.1-.1h0v-.2h-.1l-.2-.2-82.7-56.2h.1l74.5,50.4h.5a.1.1,0,0,1,.1-.1v-.2a.1.1,0,0,0-.1-.1V354h-.1L351.9,328h0l50.2,33.7h.2a.1.1,0,0,0,.1.1.1.1,0,0,1,.1-.1l-152-103Z" transform="translate(-246.7 -213.8)"/><path class="cls-8" d="M316.9,230.1h-.2l24.4,11.7.2-.4Z" transform="translate(-246.7 -213.8)"/><path class="cls-8" d="M286,215.8l-.4.6,45.5,21.9H331l-45.5-22-.2.2h0l20.9,10.2.5.2.5.2.6.2.5.2.5.3.4.2.5.3.4.3,14,6.8H324l-13.1-6.3.4.3.4.3.3.3.4.3,24.7,12h0a.1.1,0,0,0,.1.1h.1l2.5,1.3,1.2-1.9Z" transform="translate(-246.7 -213.8)"/><path class="cls-8" d="M304.3,226.3h.5l.4.2-9.3-4.5h-.2l7.7,3.7h.9Z" transform="translate(-246.7 -213.8)"/><path class="cls-8" d="M342.1,239.6h0l.5.2v-.2l-4.5-2.1-12.9-6.2h0l-37.6-17.6-.4.5,19,9h-.1l-19-9-.2.2h0l11.3,5.3h-.1a.1.1,0,0,0,.1.1h0l34.3,16.4h.1l8.9,4.3,1-1.5Z" transform="translate(-246.7 -213.8)"/><path class="cls-8" d="M291.2,217.3H291l50.3,24.1.3-.4Z" transform="translate(-246.7 -213.8)"/><path class="cls-8" d="M298.8,225.8h.4L284,218.3h-.1l-.2.3h.1l14.6,7.2h.4Z" transform="translate(-246.7 -213.8)"/><polygon class="cls-8" points="66 22.9 66.3 23.9 67.8 24.6 68.5 24.1 66 22.9"/><path class="cls-8" d="M299.8,225.8h.5l-2.7-1.3h-.3a.1.1,0,0,1,.1.1l2,1h.4Z" transform="translate(-246.7 -213.8)"/><path class="cls-8" d="M339.7,244.3l-11.9-5.8h-.3l1.6.7H329l-14.7-7.1.3.3c.1.2.1.3.2.4l.3.4c.1.2.1.3.2.4l8,4h0l-7.9-3.9c0,.1.1.3.1.4a.5.5,0,0,1,.2.4l.2.3v.4l-.2-.4-.3-.5-.3-.4-.3-.4-6.3-3h-.3l-6.5-3.2h-2.3l18.9,9.4h-.1l-18.9-9.4h-1.6l10.5,5.3h0l-10.7-5.2H297l15.2,7.6.2-.7.3.9,2.5,1.3,1.2-1-.5,1.4h0l-.3.7,1.6.8,2.4-.5-1.4,1,18.1,9.2.4-.6Z" transform="translate(-246.7 -213.8)"/><path class="cls-8" d="M295,226.4h.5l-12.9-6.4v.2l-.3.3,12.3,6.1h.5Z" transform="translate(-246.7 -213.8)"/><path class="cls-8" d="M293.6,226.8h.2a.1.1,0,0,0,.1-.1l-8.5-4.2H285a.1.1,0,0,1,.1.1h0l8.3,4.1h.2Z" transform="translate(-246.7 -213.8)"/><path class="cls-8" d="M296.6,226h.9l-14.1-7-.4.5,1.9,1h0l-1.9-.9-.3.3,13,6.4h.9Z" transform="translate(-246.7 -213.8)"/><path class="cls-8" d="M313.9,232.8l-.5-.5-.6-.5-7-3.4h-1.5l5.4,2.6h0l-5.6-2.8h-1.2l12,5.9-.5-.5Z" transform="translate(-246.7 -213.8)"/><path class="cls-8" d="M296.9,228.8H296l16,8.1.2-.8Z" transform="translate(-246.7 -213.8)"/><path class="cls-8" d="M293,231.1h-.1a.1.1,0,0,1-.1.1h-.1l13.8,7.1-.9-1Z" transform="translate(-246.7 -213.8)"/><path class="cls-8" d="M292.9,227.2h.4l-7.1-3.5h-.3a.1.1,0,0,1,.1.1h0l.8.4h0l5.7,2.9h.4Z" transform="translate(-246.7 -213.8)"/><polygon class="cls-8" points="65.1 24 62.5 22.7 64.7 25.2 65.1 24"/><path class="cls-8" d="M307,239.1l-14.5-7.5h-.3l2.5,1.3h.1l13.3,7h.1Z" transform="translate(-246.7 -213.8)"/><path class="cls-8" d="M323.1,243h-.2L336,250l.3-.5Z" transform="translate(-246.7 -213.8)"/><path class="cls-8" d="M290,229h.2l-10.5-5.3-.2.2-.2.2,10.4,5.4.2-.2Z" transform="translate(-246.7 -213.8)"/><polygon class="cls-8" points="73.8 28.4 71 27 69.8 27.9 73.8 28.4"/><path class="cls-8" d="M289.5,229.5h.2L279.2,224h0l-.2.2,10.3,5.4h.2Z" transform="translate(-246.7 -213.8)"/><polygon class="cls-8" points="69.5 26.2 68.7 25.8 68.5 26.4 69.5 26.2"/><path class="cls-8" d="M289,230.1h.1l-10.3-5.3-.3.3,10.3,5.3h.2Z" transform="translate(-246.7 -213.8)"/><path class="cls-8" d="M291.2,228.1h.4l-11-5.6-.3.4h-.1l9.9,5h.1l.6.4.2-.2Z" transform="translate(-246.7 -213.8)"/><path class="cls-8" d="M293.7,230.6h-.2a.1.1,0,0,0-.1.1h-.3l12.3,6.3h0l2.7,1.4,1.4.7-.2-.9Z" transform="translate(-246.7 -213.8)"/><path class="cls-8" d="M295.2,229.5l-.2.2h-.3l-.2.2h-.3l5.3,2.7h0l8.9,4.6h0a.1.1,0,0,0-.1.1h.2l.7.4-.5-2.1Z" transform="translate(-246.7 -213.8)"/><polygon class="cls-8" points="67.2 25.1 66.5 24.7 66.7 25.5 67.2 25.1"/><polygon class="cls-8" points="66.6 32.4 66.6 32.4 66.6 32.4 66.6 32.4"/><path class="cls-8" d="M288.1,231.2h.2l-10.4-5.3-.3.3,10.4,5.4h.1Z" transform="translate(-246.7 -213.8)"/><path class="cls-8" d="M288.4,230.9h.1l-4.8-2.5h-.2l4.8,2.5h.1Z" transform="translate(-246.7 -213.8)"/><path class="cls-8" d="M307.9,243.5l-4.5-.6,2.3-.5-3.8-2.1h-.4l-10.7-5.7c0,.1-.1.1-.1.2v.2h-.1v.2l9.5,5.1h0l-9.5-5h0c0,.1-.1.1-.1.2v.2h.2l15.7,8.4,1.7-1.3Z" transform="translate(-246.7 -213.8)"/><path class="cls-8" d="M287.2,233.2h.1v-.2l-5.9-3.1h0a.1.1,0,0,0-.1-.1h-.1l3.4,1.8h-.1l2.6,1.4v-.4Z" transform="translate(-246.7 -213.8)"/><path class="cls-8" d="M303.5,239.8l3.6.5-15.2-7.8h-.2c0,.1,0,.2-.1.2v.4l7.9,4.1h.1l.7.4h0l7,3.7.6-.2Z" transform="translate(-246.7 -213.8)"/><path class="cls-8" d="M333.6,253.7,336,250l-15.1-7.6-2.6.6,6.2,3.2h-.1l-6.2-3.2-1.3.3,4.5,2.2-5-.7.7.7,3.2,1.7-3.2-1.7,2.5,2.7-4.5-2.4.2.5,12.9,6.8h-.1l-7.1-3.7h-.3l-5.3-2.7.2.6,11.2,5.9-11.2-5.9.6,2.2-2.8-3.4h-.2l-1.1,3.5-.9-3.9-1.1,1,1.2.6h-.1l-1.2-.7-1.9,1.6.8-2.2-1.7-.9-2.2.6,1.3-1-14.6-7.8h-.3l12.4,6.6h-.1l-13.2-7.1v.7c0,.2.1.4.1.6s.1.5.2.7a1.4,1.4,0,0,0,.2.6l24.6,13.4h0l-8-4.3h-6l2.3,1.2h0l16.9,9.3h.1l5.2,2.9h0l-.7-.3h-.1l-26-14.2-1.3-.4-1.3-.4-1.2-.6-1.3-.6-1.1-.7-1-.7a3.9,3.9,0,0,1-1-.8l-.8-.8-13.6-7.4h-.2l4.4,2.5h0l38.6,21.5h-.1l-1.3-.7h-.3L270.9,234l-.3.5h-.1l13.4,7.5h.1l30,16.9h0l-19-10.6h-.3L270,235.1l-.4.6,11.6,6.6-11.7-6.6-.3.4,25.4,14.3h0l8.5,4.8-23.7-13.3h-.3l-10.2-5.8-.3.4,27.5,15.7H296l-1.4-.7h-.2l29.4,17,.9-1.4-.9-.5h.1l.9.5,2.4-3.7,2.2-3.5-2.4-1.3h.1l2.4,1.3.9-1.4Z" transform="translate(-246.7 -213.8)"/><polygon class="cls-8" points="60.7 31.6 62.2 32.4 62.7 31.1 60.7 31.6"/><path class="cls-8" d="M287.1,233.8h0l-11-5.8v.2h-.2L287,234h.1Z" transform="translate(-246.7 -213.8)"/><path class="cls-8" d="M286.9,236.4a1.8,1.8,0,0,1,0-1.2l-11.8-6.3-.2.4,4.3,2.3h0l-4.4-2.3-.2.2-.7.9,13.1,7.1a1.3,1.3,0,0,0-.1-.6Z" transform="translate(-246.7 -213.8)"/><path class="cls-8" d="M287.4,239a1545316025613.5,1545316025613.5,0,0,0-.2-.6h-.1l-13.7-7.4-.4.5h0l14.7,8-.2-.3A.4.4,0,0,0,287.4,239Z" transform="translate(-246.7 -213.8)"/><path class="cls-8" d="M288.3,240.8l-.3-.5-.3-.5-14.8-8.1h-.1l-.7.9,16.8,9.3-.3-.5Z" transform="translate(-246.7 -213.8)"/><path class="cls-8" d="M302.9,248.6l1.8.2h1.9l-15.3-8.3a.8.8,0,0,0,.2.4l.2.4.2.4.2.4h0l.7.9a3,3,0,0,0,.8.8l.8.9,1,.8,3.8,2a6.4,6.4,0,0,0,1.8.6Z" transform="translate(-246.7 -213.8)"/><path class="cls-9" d="M309.2,228.2l-.4-.2-.5-.3-.5-.2-.6-.2-.5-.2-.5-.2,3.9,1.9-.4-.3Z" transform="translate(-246.7 -213.8)"/><path class="cls-9" d="M311.7,229.9l-.4-.3-.4-.3-5.7-2.7-.4-.2h-1.4l9,4.4-.4-.3Z" transform="translate(-246.7 -213.8)"/><path class="cls-9" d="M303.5,228.1h.6l-4.9-2.3h-.8l4.5,2.2h.6Z" transform="translate(-246.7 -213.8)"/><path class="cls-9" d="M305,228.3h.8l-5.5-2.6h-.9l4.9,2.4h.7Z" transform="translate(-246.7 -213.8)"/><path class="cls-9" d="M298.6,228.3h.8l-3.9-1.9h-1l1.6.9h0l1.7.8h.8Z" transform="translate(-246.7 -213.8)"/><path class="cls-9" d="M297.3,228.7h.3l-3.7-1.9a.1.1,0,0,1-.1.1h-.4l3.6,1.9h.3Z" transform="translate(-246.7 -213.8)"/><path class="cls-9" d="M314.8,233.3c-.1-.1-.1-.2-.2-.4l-.3-.3-1.5-.8.6.5.5.5.5.6.5.5.4.2c-.1-.1-.1-.2-.2-.4Z" transform="translate(-246.7 -213.8)"/><path class="cls-9" d="M315.5,234.8l.3.5.2.4v-.4l-.2-.3a.5.5,0,0,0-.2-.4c0-.1-.1-.3-.1-.4l-.5-.2.3.4Z" transform="translate(-246.7 -213.8)"/><path class="cls-9" d="M300.7,228h1.1l-4.3-2.1h-1.8l3.8,1.9h1.2Z" transform="translate(-246.7 -213.8)"/><path class="cls-9" d="M293.4,230.8a.1.1,0,0,1,.1-.1h.2l-3.5-1.8h-.3l-.2.2,3.4,1.7h.3Z" transform="translate(-246.7 -213.8)"/><path class="cls-9" d="M292.9,231.2h.1l-3.3-1.8h-.4l3.4,1.7h.1A.1.1,0,0,0,292.9,231.2Z" transform="translate(-246.7 -213.8)"/><path class="cls-9" d="M292.4,231.8h.1l-3.4-1.7h-.3l3.4,1.8h.2Z" transform="translate(-246.7 -213.8)"/><path class="cls-9" d="M294.7,229.8h.3l.2-.2h-.4l-3.2-1.6H291l-.2.2,3.4,1.7h.3Z" transform="translate(-246.7 -213.8)"/><path class="cls-9" d="M296.5,229h.4l-3.6-1.8h-.8l3.5,1.7h.5Z" transform="translate(-246.7 -213.8)"/><path class="cls-9" d="M291.6,232.8c.1,0,.1-.1.1-.2h.2l-3.4-1.8h-.2l3.1,1.7-3.1-1.7H288l3.4,1.8v-.4Z" transform="translate(-246.7 -213.8)"/><path class="cls-9" d="M290.7,235.1v-.2c0-.1.1-.1.1-.2l-3.5-1.8v.2h-.1v.4l3.5,1.8v-.2Z" transform="translate(-246.7 -213.8)"/><path class="cls-9" d="M290.5,235.8c0-.1.1-.1.1-.2h0l-3.5-1.9h0c-.1.1,0,.1,0,.1h.1l3.3,1.8h0Z" transform="translate(-246.7 -213.8)"/><path class="cls-9" d="M304.1,249h.6l-1.8-.2-1.9-.5a6.4,6.4,0,0,1-1.8-.6l2.4,1.4h2.5Z" transform="translate(-246.7 -213.8)"/><path class="cls-9" d="M291.7,241.3l-.2-.4a.8.8,0,0,1-.2-.4l-3.9-2.1h-.2a9271896153749.2,9271896153749.2,0,0,0,.3.9l.2.3,4.4,2.5-.2-.4Z" transform="translate(-246.7 -213.8)"/><path class="cls-9" d="M290.6,238.4c0-.2-.1-.4-.1-.6v-.7l-3.6-1.9a1.8,1.8,0,0,0,0,1.2v.6a1.3,1.3,0,0,1,.1.6l4,2.1a1.4,1.4,0,0,1-.2-.6C290.7,238.9,290.7,238.6,290.6,238.4Z" transform="translate(-246.7 -213.8)"/><path class="cls-9" d="M293.6,243.8a3,3,0,0,1-.8-.8l-.7-.9h0l-4.4-2.3.3.5.3.5.3.6.3.5,6.5,3.6-1-.8Z" transform="translate(-246.7 -213.8)"/><path class="cls-9" d="M292.1,245.1l1,.7,1.1.7,1.3.6,1.2.6,1.3.4,1.3.4-9-5,.8.8A3.9,3.9,0,0,0,292.1,245.1Z" transform="translate(-246.7 -213.8)"/><polygon class="cls-9" points="65.5 22.6 65.3 23.4 66.3 23.9 66 22.9 65.5 22.6"/><polygon class="cls-9" points="68.5 24.1 69.2 24.4 69.7 23.1 68.5 24.1"/><polygon class="cls-9" points="65.5 22.6 66 22.8 65.8 21.9 65.5 22.6"/><polygon class="cls-9" points="70.5 26 71.5 26.5 72.9 25.4 70.5 26"/><polygon class="cls-9" points="68.5 24.1 67.8 24.6 69 25.2 69.2 24.5 68.5 24.1"/><path class="cls-9" d="M321.4,245.5l-4.5-2.2,1.3-.3-8.9-4.5.2.9,3.1,1.6h-.1l-6.9-3.6.9,1,3.5,1.8h-.1l-2.9-1.5,1.2,1.4h-.1l7.5,3.9h0l1.5.8-.7-.7Z" transform="translate(-246.7 -213.8)"/><polygon class="cls-9" points="58.8 23.5 61.4 24.9 58.7 23.5 58.8 23.5"/><polygon class="cls-9" points="73.8 28.4 69.8 27.9 71 27 69.5 26.2 68.5 26.4 68.7 25.8 67.2 25.1 66.7 25.5 66.5 24.7 65.1 24 64.7 25.2 62.5 22.7 62 22.5 62.6 24.5 71.6 29.2 74.3 28.6 73.8 28.4"/><polygon class="cls-9" points="61.2 29.7 59 28.5 56.7 29 61.2 29.7"/><polygon class="cls-9" points="72.9 34.4 70.4 31.7 60.4 26.5 56.9 25.9 61.1 28.1 60.4 28.2 68.6 32.5 68.5 32 72.9 34.4"/><path class="cls-9" d="M309.7,243.9h-.3l3.9,2h0l2.3,1.2-.2-.6Z" transform="translate(-246.7 -213.8)"/><polygon class="cls-9" points="68.9 33.7 66.7 32.5 69.6 35.9 68.9 33.7"/><polygon class="cls-9" points="65.5 36 66.6 32.5 61.4 29.8 59.7 31.1 60.7 31.6 62.7 31.1 62.2 32.4 63.4 33 64.5 32.1 65.5 36"/><polygon class="cls-9" points="63.3 33.1 62.2 32.5 61.4 34.6 63.3 33.1"/><polygon class="cls-9" points="60.5 31.6 59.6 31.1 58.3 32.1 60.5 31.6"/></g></g></g><image class="cls-10" width="566" height="566" transform="translate(28.6 11.8) scale(0.24)" xlink:href="timered1.png"/><path class="cls-3" d="M341.3,243.7a49.8,49.8,0,1,0,49.8,49.8A49.8,49.8,0,0,0,341.3,243.7Zm0,93.3a43.6,43.6,0,1,1,43.5-43.5A43.6,43.6,0,0,1,341.3,337Z" transform="translate(-246.7 -213.8)"/><polygon class="cls-3" points="91.8 58.4 91.8 83.2 109.5 101 114.8 95.7 99.3 80.2 99.3 58.4 91.8 58.4"/></g></g></svg>