<svg xmlns="http://www.w3.org/2000/svg" xmlns:xlink="http://www.w3.org/1999/xlink" viewBox="0 0 223.3 157"><defs><style>.cls-1{fill:none;}.cls-2{isolation:isolate;}.cls-12,.cls-3{fill:#ffc50b;}.cls-4{fill:#fff;}.cls-5{opacity:0.12;}.cls-6{clip-path:url(#clip-path);}.cls-7{clip-path:url(#clip-path-2);}.cls-8{fill:#e82327;}.cls-9{fill:#272870;}.cls-10{fill:#fbca0c;}.cls-11{opacity:0.87;mix-blend-mode:multiply;}.cls-12{stroke:#ffc50b;stroke-miterlimit:10;}</style><clipPath id="clip-path" transform="translate(-247 -213.3)"><path class="cls-1" d="M414.7,292.6a75.6,75.6,0,0,1-142.9,34.5h0a75.6,75.6,0,1,1,142.9-34.5Z"/></clipPath><clipPath id="clip-path-2" transform="translate(-247 -213.3)"><rect class="cls-1" x="255.2" y="251.1" width="213.7" height="142.49" transform="translate(142.9 -110) rotate(21.4)"/></clipPath></defs><title>timeyellow</title><g class="cls-2"><g id="Layer_1" data-name="Layer 1"><path class="cls-3" d="M417.8,292.6A77.7,77.7,0,0,1,270.9,328h0a76.8,76.8,0,0,1-8.6-35.4,77.8,77.8,0,1,1,155.5,0Z" transform="translate(-247 -213.3)"/><path class="cls-4" d="M415.7,292.6a75.6,75.6,0,0,1-142.9,34.5h0a75.6,75.6,0,1,1,142.9-34.5Z" transform="translate(-247 -213.3)"/><g class="cls-5"><g class="cls-6"><g class="cls-7"><path class="cls-8" d="M356,245.3h.2l-13.1-6.2-.2.2Z" transform="translate(-247 -213.3)"/><path class="cls-8" d="M415.3,280.4h-.1a.1.1,0,0,0-.1-.1H415l-2.2-1,28,13.5h.5v-.2H441l-92.7-45,56.3,27.2h.4c.1,0,.1,0,.1-.1h0c-.1,0-.1,0-.1-.1h-.2L347.4,246h0l47.3,22.8h.4c.1-.1.1-.1,0-.1h0c0-.1,0-.1-.1-.1h-.1l-40.7-19.7h.1l91.2,43.8h.1c.1,0,.1.1.2,0h.1a.1.1,0,0,0,.1-.1h-.4l-26.8-12.9h0c0-.1,0-.1-.1-.1h-.1l-23.2-11.2h0l62.2,29.7h.5c0-.1,0-.1-.1-.1v-.2h-.1l-46.7-22.3h0l23.1,11h.5v-.2a.1.1,0,0,1-.1-.1h-.2l-44.9-21.4,25.4,12a.1.1,0,0,1,.1.1h.1a.1.1,0,0,0,.1-.1h.1l43.3,20.6h.1c.1,0,.2.1.2,0h-.2l-52.7-25.1h.1l2.3,1.1h.5L461,295.8h.5a.1.1,0,0,0,.1-.1h-.1a.1.1,0,0,0-.1-.1h-.2l-118.3-56-.9,1.5,1.4.7-1.4-.7-.3.4,1.1.6-1.1-.6-.3.4,3,1.4h-.1l-2.9-1.4-1.2,1.9,12.7,6.2h0l62.4,30.5Z" transform="translate(-247 -213.3)"/><path class="cls-4" d="M470.3,313.8h0l-.2-.2a.1.1,0,0,1-.1-.1L356.6,256.8h.1l46.1,22.9h.4a.1.1,0,0,0,.1-.1L466.5,311c.1,0,.2,0,.2.1h.2a.1.1,0,0,0,.1-.1h.1v-.2a.1.1,0,0,1-.1-.1h-.3l-8.8-4.4h0a.1.1,0,0,0,.1-.1h0v-.2h-.3L388.2,271H388l-27.8-13.7h.1l26.9,13.3h.4c.1,0,.1,0,.1-.1h-.3l-4.3-2.2h0l10.5,5.1h.3a.1.1,0,0,1-.1-.1l70.1,34.4h.5v-.2h-.1a.1.1,0,0,0-.1-.1h-.1l-69.9-34.3h.1l3.7,1.9h.4c.1,0,.1-.1,0-.1h-.1a.1.1,0,0,1-.1-.1l-6.2-3h.1l44.7,21.7h.4c.1,0,.1,0,.1-.1h-.4l-21.6-10.6h0L352.9,250h.1l-13-6.3-2.9,4.6,76.2,38.5h-.2l-35.7-18h0l85.7,42.9h0a.1.1,0,0,0,.1.1h.4v-.2h-.3L348.1,253.3,469.8,314h.2a.1.1,0,0,0,.2,0h.1C470.4,313.9,470.4,313.8,470.3,313.8Z" transform="translate(-247 -213.3)"/><path class="cls-8" d="M336.7,249l5.4,2.7H342l-5.4-2.7-.2.5,3.4,1.7h0l-3.5-1.7-2.4,3.7,59.4,31,56.5,29.1h.5V313a.1.1,0,0,0-.1-.1h-.2L342.2,257h0L381.1,277h.3a.1.1,0,0,0,.1-.1h-.1l-10.6-5.4,41.8,21.4h.4a.1.1,0,0,0,.1-.1h0l14.4,7.4h.5c.1,0,.1-.1,0-.1h0c0-.1-.1-.1-.1-.2h-.2l-22.4-11.5h.1L466.1,319h.5a.1.1,0,0,0,.1-.1h0v-.2c-.1,0-.1,0-.1-.1h-.2l-76.4-39.1h-.1l-4.7-2.4h.1l6.5,3.2a.1.1,0,0,0,.1.1h.3a.1.1,0,0,0,.1-.1h-.1c0-.1,0-.1-.1-.1h-.1l-17.7-9h.1c-.1,0-.1,0-.1-.1h-.1l-29.5-14.9,9.9,5h.4l91.9,46.6h.6c-.1-.1-.1-.1-.1-.2a.1.1,0,0,1-.1-.1H447l-68.1-34.5h.1c0-.1,0-.1-.1-.1h-.1l-17-8.6h.1l13.5,6.8h.5c-.1,0-.1,0-.1-.1h-.1l-22.6-11.4h0L412.9,287h0a.1.1,0,0,0,.1.1h.3l-76.2-38.5Z" transform="translate(-247 -213.3)"/><path class="cls-4" d="M330.8,258.1l26.9,14.5h.1L452,322.8h.6c-.1-.1-.1-.1-.1-.2h-.3l-70.6-37.7h-.1l-24.4-13h0c0-.1,0-.1-.1-.1l-12.3-6.5h.1l7.2,3.8h0a.1.1,0,0,1,.1.1h.2a.1.1,0,0,1,.1-.1l41.1,21.8h.2l-40.4-21.5h-.1l-14.4-7.6h0l117,61.7h.5v-.2h-.2c0-.1-.1-.1-.2-.1h0l-85.8-45.4h0l3.4,1.8h.4a.1.1,0,0,0,.1-.1h-.1a497582161915.9,497582161915.9,0,0,0-.2-.2h0l-13.6-7.1,64,33.4h.2a.1.1,0,0,0,.1.1.1.1,0,0,1,.1-.1h.1a.1.1,0,0,0-.1-.1h-.1a.1.1,0,0,0-.1-.1l-62.7-32.9h.1l32.7,17.1h.3a.1.1,0,0,0,.1-.1h0L439.6,310h.5v-.2h-.2l-61.4-32.1h-.2l-34.9-18.2,11,5.7h.4a.1.1,0,0,0-.1-.1h-.1l-3.1-1.6,41.9,21.7-59.4-31Z" transform="translate(-247 -213.3)"/><path class="cls-8" d="M389.4,297.5,412.1,310h.5v-.2h-.3l-64.5-35.6,69,37.8h.4a.1.1,0,0,0,.1-.1h0v-.2H417l-35.8-19.7h0c-.1,0-.1,0-.1-.1h0L329,262.4h.1l45.4,24.8a.1.1,0,0,0,.1.1h.3l14.1,7.7h.4a.1.1,0,0,0,.1-.1h-.2l-1.2-.6h.1l42.4,23.1h.5c.1-.1.1-.1,0-.1v-.2h-.3l-39.3-21.4h.1a.1.1,0,0,0-.1-.1h-.2l-29.6-16.1,46.2,25h.3c.1,0,.1,0,.1-.1h.1V303h-.3l-.4-.2,51,27.6h.5a.1.1,0,0,0,.1-.1h0c0-.1-.1-.1-.1-.2h-.3L329.8,259.6l-2.3,3.5Z" transform="translate(-247 -213.3)"/><path class="cls-8" d="M329.8,259.5l36.6,19.7h0a.1.1,0,0,1,.1.1h.1c.1,0,.1,0,.1-.1h.1L433,314.8h.5v-.2h-.2l-97-52.2h0l56.6,30.3h.4c0-.1,0-.1-.1-.1s0-.1-.1-.1l-39.7-21.4h0l4.1,2.2h.3l-26.9-14.5Z" transform="translate(-247 -213.3)"/><path class="cls-4" d="M325.2,266.8l14.2,7.9h.2L408,313.2a.1.1,0,0,0,.1.1h.4l48.9,27.5h.6v-.2h-.1c0-.1-.1-.1-.1-.2h-.2L351.4,280.3h.1l3.3,1.9h.2l-14.3-8h.1l1.5.9h.3c.1,0,.1,0,.1-.1l20.5,11.5h.2c0,.1,0,.1.1.1a.1.1,0,0,1,.1-.1h.1v-.2c-.1,0-.1,0-.1-.1h-.1L337.7,271h.1l44.4,24.8h.4c.1,0,.1,0,.1-.1h-.2L353.3,279,410,310.4h.5v-.2h-.3l-27.6-15.4h-.1l-49.3-27.3,2.5,1.3h.2l53.5,29.4-61.9-34.4Z" transform="translate(-247 -213.3)"/><path class="cls-4" d="M392.5,307.5h.1l46.7,26.6h.5v-.2h0l-.2-.2h-.1L335.2,274h.1l5.3,3h.1a.1.1,0,0,0,.1.1h.2l2.3,1.3h.2l97.7,55.3h.5c0-.1-.1-.1-.1-.2h-.2L325.1,266.9l-.9,1.4Z" transform="translate(-247 -213.3)"/><path class="cls-8" d="M294.7,251.3h-.1l-19.2-10.9h-.3a.1.1,0,0,0,.1.1h0L293,251h-.1l-24.5-14h-.1l-.6.8L288.6,250h0l-21-12-.3.3L301,257.8l-33.8-19.3h0l-.3.3,8.1,4.7-8.1-4.7-.3.4,11.9,6.9h-.1l-9.6-5.6h-.3l23.1,13.6h0l-25.4-14.8-.5.6,29.9,17.5h0l-12.9-7.5h-.3l-16.9-9.9h-.1l169,100.3h0v-.2h-.1c0-.1-.1-.1-.1-.2H434L313,268.8h0l20.5,12.1h.4L359.7,296h.3a.1.1,0,0,0-.1-.1l-10-5.9h.1l32.1,18.7h.4l2.3,1.3h.3a.1.1,0,0,0,.1-.1h.1v-.2H385l-16.2-9.5h0a.1.1,0,0,1,.1-.1h0c0-.1-.1-.1-.1-.2a.1.1,0,0,1-.1-.1l-28.4-16.5h.1l16.9,9.8h.4v-.2h-.2l-23.9-14,27.6,15.9h.4v-.2h-.1l-18.2-10.6,57.9,33.3h.4c0-.1,0-.1-.1-.1s0-.1-.1-.1h0l-59.5-34.5h.2c0-.1,0-.1-.1-.1h-.1l-3.6-2.1h.1l28.8,16.5h.5l85.1,48.9h.4a.1.1,0,0,0,.1-.1h.1a.1.1,0,0,1-.1-.1c0-.1-.1-.1-.1-.2h-.2L321.4,267.6h.1l11.8,6.6h.3l58.5,33.4h.4l-68.3-39.2Z" transform="translate(-247 -213.3)"/><path class="cls-4" d="M265.2,240.8h.2c-.1.1-.1.1,0,.1h.1l31.8,18.9h0L278,248.8h-.3l-12.8-7.5-.3.3,34.8,20.7h-.1l-34.8-20.6-.5.7,13.1,7.8h0l20.3,12.1h-.1a.1.1,0,0,1,.1.1h.1l13.9,8.4h-.1L288.6,258h-.3l-25-14.9-.3.3,33.1,19.9H296l-11.5-6.8h-.4l-13-7.8h-.3c0,.1,0,.1.1.1h0l19.9,12.1h-.1l-6.9-4.2h-.3l-21.3-12.8-.3.4,166.3,102h0a.1.1,0,0,0-.1-.1H428a.1.1,0,0,0-.1-.1l-50.5-30.8h.1a.1.1,0,0,0-.1-.1v-.2h-.2l-35.3-21.5,16.9,10.3h.2a.1.1,0,0,0,.1.1.1.1,0,0,1,.1-.1h.1L387,320.7h.3c.1,0,.1,0,.1-.1h.1v-.2h-.1a.1.1,0,0,0-.1-.1h0l-50.7-30.8L390.7,322h.4a.1.1,0,0,1,.1-.1h0l18.3,11.1h.5c0-.1,0-.1.1-.1v-.2H410a.1.1,0,0,0-.1-.1c0-.1-.1-.1-.1-.2l-52.6-31.7h.1a.1.1,0,0,0-.1-.1h-.1L338,288.6h.1l15.4,9.3h.5l8.7,5.2h.3a.1.1,0,0,0-.1-.1l-6.7-4,84.7,50.5c0,.1.1.1.2.1h.3v-.2h0l-.2-.2h-.1l-60.6-36.2h0a.1.1,0,0,0-.1-.1h0l-23.8-14.2,4.8,2.8h.4a.1.1,0,0,1,.1-.1h0l22.5,13.4h.5l9.1,5.3h.5l8.2,4.9h.3c.1,0,.1,0,.1-.1h.1v-.2h-.1l-.2-.2L360,297.4l73.8,43.5h.5c0-.1,0-.1.1-.1l-169-100.3Z" transform="translate(-247 -213.3)"/><path class="cls-8" d="M261.5,245.3l-.2.3,37.2,22.8h-.1l-29.3-18h-.5c-.1,0-.1,0-.1.1h0l-7.6-4.7-.2.2-.2.2,31.1,19.2h-.1L268,251.4h-.2l6,3.8h0l-13.9-8.6-.4.6-.2.2,5.7,3.6h-.1l-5.8-3.6H259l-.2.4,16.1,10.1-16.2-10.1-.4.5L393,334.7h0a.1.1,0,0,0-.1-.1h-.1l-38.2-24.1h0a.1.1,0,0,0,.1-.1h-.1v-.2h-.2L332.5,296h.1l35.5,22.2h.5a.1.1,0,0,0-.1-.1v-.2h-.2l-28-17.6h.1v-.2h-.2L320,286.9h0L390.6,331h.3c.1,0,.1,0,.1-.1h.1v-.2H391c0-.1-.1-.1-.1-.2h0L347,303h-.2l-35-21.9h.1l101.2,63h.5a.1.1,0,0,0,.1-.1h-.1c0-.1,0-.1-.1-.2h-.1l-43.6-27.1h.1l19.7,12.2h.5a.1.1,0,0,0,.1-.1c0-.1-.1-.1-.1-.2a.1.1,0,0,0-.1-.1h-.1l-69.3-43h.1l6.3,3.8a.1.1,0,0,0,.1.1h.2a.1.1,0,0,1,.1-.1h0L349.7,302h.2c.1,0,.1,0,.1-.1h.1v-.2h-.2l-10.3-6.3h.1l18.8,11.5h.5L421.7,345h.2a.1.1,0,0,0,.2,0c.1,0,.1,0,.1-.1h0v-.2H422a.1.1,0,0,0-.1-.1l-18.1-11.1h.1v-.2h-.2c0-.1,0-.1-.1-.1l-51.1-31.3h.2l75,45.8h.5l-166.3-102Z" transform="translate(-247 -213.3)"/><path class="cls-4" d="M258.2,249.3l6.2,3.9h0l-6.2-3.9-.5.5,4.3,2.7h-.2l-4.2-2.6h-.1l-.4.5,12.3,7.8h-.1L257,250.8l-.4.5h-.1l1,.6h-.1l2.3,1.5h0l9.8,6.4-11.3-7.3h-.3l-2-1.3-.3.4,29.3,18.9h-.4a.1.1,0,0,0-.1.1l-27.3-17.6h-.4l-1.5-.9-.3.3,6.9,4.5h.1l9.1,5.9h0l-16.3-10.5h-.1l101.3,66.4h-.2l-54.1-35.3h0l96,62.2h.6c0-.1-.1-.1-.1-.2a.1.1,0,0,0-.1-.1c0-.1-.1-.1-.1-.2l-55.8-36.2h0l15.3,9.9h.5c0-.1-.1-.1-.1-.2a.1.1,0,0,1-.1-.1l-4.8-3,51,32.8h.6v-.2a.1.1,0,0,0-.1-.1c0-.1,0-.1-.1-.2h-.1L318.7,293l71.4,45.9h.4a.1.1,0,0,1,.1-.1v-.2h-.1c0-.1,0-.1-.1-.1s0-.1-.1-.2l-43.7-28.1h0v-.2h-.1a.1.1,0,0,1-.1-.1h0L315.7,290h-.2L300.6,280h0l66.7,42.6h.3c.1,0,.1,0,.1-.1h.1v-.2h-.1a.1.1,0,0,0-.1-.1l-41.8-26.7h0l-14-9,110.3,70.1h.6v-.2h0l-.2-.2h-.1l-60.7-38.6h.1c0-.1,0-.1-.1-.2h-.2l-11-7h.1a.1.1,0,0,0,.1-.1h-.3l-34.2-21.7h.1L392.6,335h0a.1.1,0,0,1,.1.1h.2a.1.1,0,0,0,.1-.1.1.1,0,0,0,.1-.1H393L258.3,249.2Z" transform="translate(-247 -213.3)"/><path class="cls-8" d="M254.1,254.3l-.8,1,11.3,7.5h0L287,278h0l-34-22.3-.4.4-.3.4,22.5,15h0l-22.6-15-.3.4,20.6,13.8h-.1l-9.7-6.4h-.2a.1.1,0,0,0-.1.1h0l.8.6h0l-11.7-7.8-.2.2-.4.6,151.9,103h.2c0-.1,0-.1-.1-.2a.3.3,0,0,0-.1-.2.1.1,0,0,1-.1-.1l-7-4.7h.1c0-.1-.1-.1-.1-.2a.1.1,0,0,0-.1-.1c0-.1-.1-.1-.1-.2L285.9,281.4h.1l110.8,74.4h.5v-.2h0v-.2H397l-67.2-45.1h.1a.1.1,0,0,0-.1-.1h-.1l-.7-.5h0l74.1,49.4a.1.1,0,0,0,.1.1h.3a.1.1,0,0,0,.1-.1h0v-.2c-.1-.1-.1-.1-.1-.2h-.2l-37.5-25h.2a.1.1,0,0,0-.1-.1c0-.1,0-.1-.1-.2h-.1L337,313.1h-.1l-36.8-24.5h0l4.4,2.8h.4l30.2,19.9a.1.1,0,0,0,.1.1h.4l18.7,12.3h0a.1.1,0,0,0,.1.1h.3a.1.1,0,0,1,.1-.1h0a.1.1,0,0,0-.1-.1v-.2h-.2l-12.3-8.2h0l71.9,47.2h.6c0-.1,0-.1-.1-.2a.1.1,0,0,0-.1-.1c0-.1-.1-.1-.2-.2h0l-12.8-8.5h0V352a.1.1,0,0,0-.1-.1c0-.1-.1-.1-.1-.2l-79.4-52.2h.1l77.2,50.5h.5c0-.1.1-.1,0-.2h0c0-.1-.1-.1-.1-.2h-.2l-72.5-47.5h.1l28.5,18.6h.5L254.6,253.7Z" transform="translate(-247 -213.3)"/><path class="cls-4" d="M250.8,258.2h0l16.4,11.1h.1l10.4,7h0l7.3,5h0l-34.7-23.3-.7.9-.4.5,2.4,1.6h.1l12.9,8.8h-.1a.1.1,0,0,1,.1.1h0l2.6,1.7h-.1l-18.3-12.6-.4.4h0l.7.5H249l-.6-.5-.6.7,24,16.6h0l-24-16.6-.3.4,10.4,7.3h0l-10.5-7.2-.4.4,110.2,77.3h.1v-.2a.1.1,0,0,1-.1-.1h-.1L334,323.5h-.1a.1.1,0,0,0-.1-.1h0l-32-22.3h.1l28.4,19.8h.2a.1.1,0,0,0,.1.1h.2a.1.1,0,0,0-.1-.1c0-.1,0-.1-.1-.1h0l-39.8-27.7,45.8,31.6h.5L349,332a.1.1,0,0,1,.1.1h.2a.1.1,0,0,0,.1-.1h.1l36,24.9h.5c0-.1,0-.1.1-.1v-.2a.1.1,0,0,0-.1-.1v-.2h-.1l-57.5-39.7h.1l4.6,3.2h.2a.1.1,0,0,0,.2,0c.1,0,.1,0,.1-.1h0l11.4,7.8h.3c0-.1,0-.1.1-.1h0c.1,0,.1,0,.1-.1a.1.1,0,0,0-.1-.1h0v-.2l-12.9-8.8h.2a.1.1,0,0,0-.1-.1h-.1l-24.7-16.9,20.2,13.7h.5c0-.1-.1-.1-.1-.2h-.1L292,289h.1l11.4,7.7h.4l94.2,63.9h.5a.1.1,0,0,0,.1-.1h0v-.2h-.1c0-.1-.1-.1-.1-.2l-82.8-56.2h.2L390.3,354h.5v-.2h-.1v-.2h-.1l-38.3-25.9h0l50.1,33.7h.4l-151.9-103Z" transform="translate(-247 -213.3)"/><path class="cls-9" d="M317.3,229.6h-.2l24.3,11.7.3-.4Z" transform="translate(-247 -213.3)"/><path class="cls-9" d="M286.4,215.3l-.5.6,45.5,21.9h0l-45.5-22-.2.2h-.1l21,10.2.5.2.5.2.5.2.5.2.5.3.5.2.5.3.4.3,14,6.7h-.1l-13.1-6.3.4.3.3.3.4.3.4.3,24.7,12h.1l2.6,1.3,1.2-1.9Z" transform="translate(-247 -213.3)"/><path class="cls-9" d="M304.7,225.8h.4l.5.2-9.3-4.5h-.4c0,.1,0,.1.1.1h0l7.7,3.7h1Z" transform="translate(-247 -213.3)"/><path class="cls-9" d="M342.5,239.1h0l.4.2.2-.2-4.5-2.1-13-6.2h0L288,213.3l-.4.5,19,9h0l-19-9-.2.2h-.1l11.4,5.4h0L333,236.2h.1l8.9,4.3.9-1.5Z" transform="translate(-247 -213.3)"/><path class="cls-9" d="M291.6,216.8h-.3l50.4,24.1.3-.4Z" transform="translate(-247 -213.3)"/><path class="cls-9" d="M299.2,225.3h.4l-15.2-7.5h-.1l-.2.3h.1l14.5,7.2h.5Z" transform="translate(-247 -213.3)"/><polygon class="cls-9" points="66 22.9 66.3 23.9 67.8 24.6 68.5 24.1 66 22.9"/><path class="cls-9" d="M300.2,225.2h.5L298,224h-.2l2,1c0-.1.1-.1.2-.1Z" transform="translate(-247 -213.3)"/><path class="cls-9" d="M340,243.8,328.1,238h-.2l1.6.7h-.1L314.7,232a.5.5,0,0,0,.2.4l.3.4.2.4.3.4,8,4h0l-8-3.9c.1.1.1.3.2.4l.2.3c0,.2.1.3.1.4s.1.3.2.4l-.3-.4c0-.2-.1-.3-.2-.5l-.3-.4-.3-.4-6.3-3h-.3l-6.5-3.2h-2.3l18.9,9.4h-.1l-19-9.4h-1.5l10.5,5.3h-.1L298,228.1h-.5a.1.1,0,0,0-.1.1l15.2,7.6.2-.7.3.9,2.4,1.3,1.2-1-.4,1.4h0l-.3.7,1.5.8,2.4-.6-1.3,1.1,18.1,9.2.4-.6Z" transform="translate(-247 -213.3)"/><path class="cls-9" d="M295.3,225.9h.5L283,219.4l-.2.2-.2.3,12.3,6.1h.4Z" transform="translate(-247 -213.3)"/><path class="cls-9" d="M294,226.3h.2a.1.1,0,0,1,.1-.1l-8.6-4.2h-.2l8.3,4.1h.2Z" transform="translate(-247 -213.3)"/><path class="cls-9" d="M296.9,225.5h1l-14.1-7-.4.5,1.9,1h-.1l-1.9-.9-.2.3,12.9,6.4h.9Z" transform="translate(-247 -213.3)"/><path class="cls-9" d="M314.3,232.3a1.2,1.2,0,0,1-.5-.5l-.6-.5-7-3.4h-1.5l5.4,2.7h0l-5.7-2.8h-1.2l12,5.9-.4-.5Z" transform="translate(-247 -213.3)"/><path class="cls-9" d="M297.3,228.3h-.9l15.9,8.1.3-.8Z" transform="translate(-247 -213.3)"/><path class="cls-9" d="M293.4,230.6h-.3l13.8,7.1-.9-1Z" transform="translate(-247 -213.3)"/><path class="cls-9" d="M293.3,226.7h.3l-7-3.5h-.2l.8.4h0l5.7,2.8h.2C293.1,226.7,293.2,226.7,293.3,226.7Z" transform="translate(-247 -213.3)"/><polygon class="cls-9" points="65.1 24 62.5 22.7 64.7 25.2 65.1 24"/><path class="cls-9" d="M307.3,238.6l-14.4-7.5h-.1a.1.1,0,0,1-.1.1h-.1l2.4,1.3h.1l13.4,7h.1Z" transform="translate(-247 -213.3)"/><path class="cls-9" d="M323.5,242.5h-.4a.1.1,0,0,1,.1.1h.1l13.1,6.7.2-.5Z" transform="translate(-247 -213.3)"/><path class="cls-9" d="M290.4,228.5h.2l-10.5-5.4-.3.3v.2l10.4,5.4v-.2Z" transform="translate(-247 -213.3)"/><polygon class="cls-9" points="73.8 28.4 71 27 69.8 27.9 73.8 28.4"/><path class="cls-9" d="M289.9,229h.1l-10.4-5.3h-.1l-.2.2,10.4,5.4h.2Z" transform="translate(-247 -213.3)"/><polygon class="cls-9" points="69.5 26.2 68.7 25.8 68.5 26.4 69.5 26.2"/><path class="cls-9" d="M289.4,229.6h.1l-10.4-5.3-.2.3,10.3,5.3h.2Z" transform="translate(-247 -213.3)"/><path class="cls-9" d="M291.6,227.6h.4l-11-5.6-.3.3v.2l9.9,5h0l.7.4.2-.2Z" transform="translate(-247 -213.3)"/><path class="cls-9" d="M294,230.1h-.1c-.1,0-.1,0-.1.1h-.3l12.3,6.3h0l2.7,1.4,1.4.7-.3-.9Z" transform="translate(-247 -213.3)"/><path class="cls-9" d="M295.6,229l-.3.2h-.2l-.2.2h-.3l5.3,2.7h0l8.9,4.6h.1l.7.4-.6-2.1Z" transform="translate(-247 -213.3)"/><polygon class="cls-9" points="67.2 25.1 66.5 24.7 66.7 25.5 67.2 25.1"/><polygon class="cls-9" points="66.6 32.4 66.6 32.4 66.6 32.4 66.6 32.4"/><path class="cls-9" d="M288.5,230.7h.1l-10.4-5.4-.2.4,10.4,5.4h0C288.5,230.8,288.5,230.8,288.5,230.7Z" transform="translate(-247 -213.3)"/><path class="cls-9" d="M288.7,230.4h.1l-4.7-2.5h-.3l4.8,2.5Z" transform="translate(-247 -213.3)"/><path class="cls-9" d="M308.3,243l-4.5-.7,2.3-.5-3.9-2h-.3l-10.8-5.7v.4h0v.2l9.5,5.1h-.1l-9.4-5.1v.4h0v.2h.2l15.6,8.4,1.7-1.3Z" transform="translate(-247 -213.3)"/><path class="cls-9" d="M287.6,232.7h0v-.2l-5.9-3.1h-.2a.1.1,0,0,0-.1.1h0l3.4,1.8h0l2.6,1.4v-.2C287.6,232.8,287.6,232.8,287.6,232.7Z" transform="translate(-247 -213.3)"/><path class="cls-9" d="M303.9,239.3l3.5.5-15.2-7.9v.2c0,.1-.1.1-.1.2v.4l7.9,4.1h0l.8.4h0l7,3.7.6-.2Z" transform="translate(-247 -213.3)"/><path class="cls-9" d="M333.9,253.2l2.4-3.7-15-7.6-2.7.6,6.3,3.2h-.1l-6.3-3.2-1.2.3,4.5,2.2-5-.7.7.7,3.2,1.7-3.2-1.7,2.4,2.7-4.4-2.4.2.5,12.8,6.8h0l-7.1-3.7h-.3l-5.3-2.7.2.6,11.2,5.9L316,247l.6,2.2-2.9-3.4h-.1l-1.1,3.5-.9-3.9-1.2,1,1.3.6h-.1l-1.3-.7-1.8,1.5.7-2.1-1.6-.9-2.2.5,1.2-.9L292,236.7h-.2c-.1,0-.1,0-.1.1h.1l12.3,6.6h0l-13.3-7.1c0,.2.1.4.1.7a1.3,1.3,0,0,0,.1.6c0,.2.1.5.1.7a1.4,1.4,0,0,1,.2.6L316,252.6h0l-8.1-4.3h-.6c0-.1,0-.1-.1-.1s0,.1-.1.1H302l2.3,1.2h0l16.9,9.3h0l5.3,2.9h0l-.8-.3h0l-26-14.2-1.3-.4-1.3-.4-1.3-.6-1.2-.6a4.1,4.1,0,0,1-1.1-.7l-1.1-.7-.9-.8a3,3,0,0,1-.8-.8l-13.6-7.4h-.2l4.4,2.5h0l38.6,21.5h-.1l-1.3-.7h-.3l-46.9-26.1-.4.5h-.1l13.5,7.5h0l30.1,16.9h-.1c0,.1,0,.1.1.1l-19-10.6h-.3l-24.7-13.8-.5.6,11.7,6.6-11.7-6.6-.3.4L295,249.9h-.1a.1.1,0,0,0,.1.1l8.5,4.8-23.8-13.3h0c0-.1,0-.1-.1-.1h-.2L269.2,236l-.3.4,27.5,15.7h0l-1.4-.7h-.3l29.5,17,.9-1.4-.9-.5h.1l.9.5,2.3-3.7,2.3-3.5-2.4-1.3h.1l2.3,1.3,1-1.4Z" transform="translate(-247 -213.3)"/><polygon class="cls-9" points="60.7 31.6 62.2 32.4 62.7 31.1 60.7 31.6"/><path class="cls-9" d="M287.4,233.3a.1.1,0,0,1,.1-.1h0l-11-5.8h-.2v.2l11.2,5.9h0Z" transform="translate(-247 -213.3)"/><path class="cls-9" d="M287.2,235.9v-1.2l-11.7-6.3-.3.4,4.4,2.3h-.1l-4.3-2.4-.3.3-.7.9,13.2,7.1c0-.2-.1-.4-.1-.6S287.2,236.1,287.2,235.9Z" transform="translate(-247 -213.3)"/><path class="cls-9" d="M287.8,238.5c0-.1-.1-.2-.1-.3v-.3h-.2l-13.6-7.4-.5.5h0l14.7,8v-.3C287.9,238.7,287.8,238.6,287.8,238.5Z" transform="translate(-247 -213.3)"/><path class="cls-9" d="M288.6,240.3l-.3-.5a.8.8,0,0,0-.2-.5l-14.9-8.1h0l-.7.9,16.8,9.3a1,1,0,0,0-.4-.5Z" transform="translate(-247 -213.3)"/><path class="cls-9" d="M303.2,248.1l1.9.2H307L291.6,240l.2.4a.8.8,0,0,1,.2.4l.3.4c0,.1.1.2.2.4h0l.7.9.7.8.9.9,1,.7,3.7,2.1a6,6,0,0,0,1.9.6Z" transform="translate(-247 -213.3)"/><path class="cls-10" d="M309.6,227.7l-.5-.2-.5-.3-.5-.2-.5-.2-.5-.2-.5-.2,3.9,1.9-.4-.3Z" transform="translate(-247 -213.3)"/><path class="cls-10" d="M312,229.4l-.3-.3-.4-.3-5.7-2.7-.5-.2h-1.4l9.1,4.4-.4-.3Z" transform="translate(-247 -213.3)"/><path class="cls-10" d="M303.8,227.6h.6l-4.8-2.3h-.9l4.5,2.2h.6Z" transform="translate(-247 -213.3)"/><path class="cls-10" d="M305.4,227.8h.8l-5.5-2.6H300c-.1,0-.2,0-.2.1l4.9,2.3h.7Z" transform="translate(-247 -213.3)"/><path class="cls-10" d="M298.9,227.8h.8l-3.9-1.9h-.9l1.6.9h0l1.7.8h.7Z" transform="translate(-247 -213.3)"/><path class="cls-10" d="M297.7,228.2h.3l-3.7-1.9a.1.1,0,0,0-.1.1h-.4l3.6,1.9a.1.1,0,0,1,.1-.1Z" transform="translate(-247 -213.3)"/><path class="cls-10" d="M315.2,232.8l-.3-.4a.5.5,0,0,1-.2-.4l-1.5-.7.6.5a1.2,1.2,0,0,0,.5.5l.5.6.4.5.5.2-.3-.4Z" transform="translate(-247 -213.3)"/><path class="cls-10" d="M315.9,234.3c.1.2.2.3.2.5l.3.4c-.1-.1-.1-.3-.2-.4s-.1-.2-.1-.4l-.2-.3c-.1-.1-.1-.3-.2-.4l-.4-.2.3.4Z" transform="translate(-247 -213.3)"/><path class="cls-10" d="M301,227.5h1.2l-4.3-2.1H296l3.9,1.9H301Z" transform="translate(-247 -213.3)"/><path class="cls-10" d="M293.8,230.3c0-.1,0-.1.1-.1h.1l-3.4-1.8h-.4v.2l3.4,1.7h.3Z" transform="translate(-247 -213.3)"/><path class="cls-10" d="M293.2,230.7h.2l-3.4-1.8h-.3l3.4,1.7h.1Z" transform="translate(-247 -213.3)"/><path class="cls-10" d="M292.7,231.3a.1.1,0,0,0,.1-.1h.1l-3.4-1.7h-.3l3.4,1.8h.1Z" transform="translate(-247 -213.3)"/><path class="cls-10" d="M295.1,229.3h.2l.3-.2h-.4l-3.2-1.6h-.6l-.2.2,3.4,1.7h.3Z" transform="translate(-247 -213.3)"/><path class="cls-10" d="M296.8,228.5h.5l-3.7-1.8h-.3c-.1,0-.2,0-.2.1h-.2l3.5,1.8h.4Z" transform="translate(-247 -213.3)"/><path class="cls-10" d="M292,232.3c0-.1.1-.1.1-.2v-.2l-3.4-1.7h-.2l3.2,1.7-3.2-1.7h-.1c0,.1,0,.1-.1.1h0l3.4,1.8v-.4Z" transform="translate(-247 -213.3)"/><path class="cls-10" d="M291,234.6v-.4l-3.4-1.8v.2h0c0,.1,0,.1-.1.2v.2l3.5,1.8v-.2Z" transform="translate(-247 -213.3)"/><path class="cls-10" d="M290.9,235.3v-.4l-3.5-1.8h0a.1.1,0,0,0-.1.1h0a.1.1,0,0,0,.1.1h0l3.4,1.8v-.2Z" transform="translate(-247 -213.3)"/><path class="cls-10" d="M304.5,248.5h.6l-1.9-.2-1.8-.5a6,6,0,0,1-1.9-.6l2.5,1.4h2.5Z" transform="translate(-247 -213.3)"/><path class="cls-10" d="M292,240.8a.8.8,0,0,0-.2-.4l-.2-.4-3.8-2.1h-.2v.3c0,.1.1.2.1.3s.1.2.1.3v.3l4.5,2.5c-.1-.2-.2-.3-.2-.4Z" transform="translate(-247 -213.3)"/><path class="cls-10" d="M291,237.9a1.3,1.3,0,0,1-.1-.6c0-.3-.1-.5-.1-.7l-3.6-1.9v1.2c0,.2.1.4.1.6s.1.4.1.6l3.9,2.1a1.4,1.4,0,0,0-.2-.6C291.1,238.4,291,238.1,291,237.9Z" transform="translate(-247 -213.3)"/><path class="cls-10" d="M293.9,243.3l-.7-.8-.7-.9h0l-4.4-2.3a.8.8,0,0,1,.2.5l.3.5.3.6a1,1,0,0,1,.4.5l6.5,3.5-1-.7Z" transform="translate(-247 -213.3)"/><path class="cls-10" d="M292.4,244.6l1.1.7a4.1,4.1,0,0,0,1.1.7l1.2.6,1.3.6,1.3.4,1.3.4-9-5a3,3,0,0,0,.8.8Z" transform="translate(-247 -213.3)"/><polygon class="cls-10" points="65.5 22.6 65.3 23.4 66.3 23.9 66 22.9 65.5 22.6"/><polygon class="cls-10" points="68.5 24.1 69.2 24.4 69.7 23.1 68.5 24.1"/><polygon class="cls-10" points="65.5 22.6 66 22.8 65.8 21.9 65.5 22.6"/><polygon class="cls-10" points="70.5 26 71.5 26.5 72.9 25.4 70.5 26"/><polygon class="cls-10" points="68.5 24.1 67.8 24.6 69 25.2 69.2 24.5 68.5 24.1"/><path class="cls-10" d="M321.8,245l-4.5-2.2,1.2-.3-8.9-4.5.3.9,3.1,1.6h-.1L306,237l.9,1,3.4,1.8h0l-3-1.5,1.3,1.4h-.1l7.5,3.8h0l1.5.8-.7-.7Z" transform="translate(-247 -213.3)"/><polygon class="cls-10" points="58.8 23.5 61.4 24.9 58.7 23.5 58.8 23.5"/><polygon class="cls-10" points="73.8 28.4 69.8 27.9 71 27 69.5 26.2 68.5 26.4 68.7 25.8 67.2 25.1 66.7 25.5 66.5 24.7 65.1 24 64.7 25.2 62.5 22.7 62 22.5 62.6 24.5 71.6 29.2 74.3 28.6 73.8 28.4"/><polygon class="cls-10" points="61.2 29.7 59 28.5 56.7 29 61.2 29.7"/><polygon class="cls-10" points="72.9 34.4 70.4 31.7 60.4 26.5 56.9 25.9 61.1 28.1 60.4 28.2 68.6 32.5 68.5 32 72.9 34.4"/><path class="cls-10" d="M310,243.4h-.2l3.8,2h0L316,247l-.2-.6Z" transform="translate(-247 -213.3)"/><polygon class="cls-10" points="68.9 33.7 66.7 32.5 69.6 35.9 68.9 33.7"/><polygon class="cls-10" points="65.5 36 66.6 32.5 61.4 29.8 59.7 31.1 60.7 31.6 62.7 31.1 62.2 32.4 63.4 33 64.5 32.1 65.5 36"/><polygon class="cls-10" points="63.3 33.1 62.2 32.5 61.4 34.6 63.3 33.1"/><polygon class="cls-10" points="60.5 31.6 59.6 31.1 58.3 32.1 60.5 31.6"/></g></g></g><image class="cls-11" width="571" height="570" transform="translate(27.8 10.9) scale(0.24)" xlink:href="timeyellow1.png"/><path class="cls-12" d="M341.3,242.7a49.9,49.9,0,1,0,49.8,49.9A50,50,0,0,0,341.3,242.7Zm0,93.4a43.6,43.6,0,1,1,43.5-43.5A43.6,43.6,0,0,1,341.3,336.1Z" transform="translate(-247 -213.3)"/><polygon class="cls-12" points="91.4 58 91.4 82.8 109.1 100.5 114.4 95.3 99 79.8 99 58 91.4 58"/></g></g></svg>