<svg xmlns="http://www.w3.org/2000/svg" xmlns:xlink="http://www.w3.org/1999/xlink" viewBox="0 0 223.3 157"><defs><style>.cls-1{fill:none;}.cls-2{isolation:isolate;}.cls-12,.cls-3{fill:#ffc50b;}.cls-4{fill:#fff;}.cls-5{opacity:0.12;}.cls-6{clip-path:url(#clip-path);}.cls-7{clip-path:url(#clip-path-2);}.cls-8{fill:#e82327;}.cls-9{fill:#272870;}.cls-10{fill:#fbca0c;}.cls-11{opacity:0.75;mix-blend-mode:multiply;}.cls-12{stroke:#ffc50b;stroke-miterlimit:10;}</style><clipPath id="clip-path" transform="translate(-186.7 -204.5)"><path class="cls-1" d="M354.4,283.7a75.6,75.6,0,0,1-142.9,34.5h0a74.2,74.2,0,0,1-8.4-34.5,75.7,75.7,0,0,1,151.3,0Z"/></clipPath><clipPath id="clip-path-2" transform="translate(-186.7 -204.5)"><rect class="cls-1" x="194.9" y="242.2" width="213.7" height="142.49" transform="translate(135.5 -88.6) rotate(21.4)"/></clipPath></defs><title>user_yellow</title><g class="cls-2"><g id="Layer_1" data-name="Layer 1"><path class="cls-3" d="M356.5,283.7a77.8,77.8,0,0,1-146.9,35.5h0a77.7,77.7,0,1,1,146.9-35.5Z" transform="translate(-186.7 -204.5)"/><path class="cls-4" d="M354.4,283.7a75.6,75.6,0,0,1-142.9,34.5h0a74.2,74.2,0,0,1-8.4-34.5,75.7,75.7,0,0,1,151.3,0Z" transform="translate(-186.7 -204.5)"/><g class="cls-5"><g class="cls-6"><g class="cls-7"><path class="cls-8" d="M295.7,236.5h.2l-13.2-6.3v.2Z" transform="translate(-186.7 -204.5)"/><path class="cls-8" d="M355,271.5c-.1,0-.1,0-.1-.1h-.2l-2.2-1.1,28,13.6h.4a.1.1,0,0,0,.1-.1h0a.1.1,0,0,0-.1-.1c0-.1,0-.1-.1-.1h-.1L288,238.2l56.3,27.2h.3a.1.1,0,0,0,.1-.1h.1c0-.1,0-.1-.1-.1h-.1c0-.1,0-.1-.1-.1l-57.4-27.8h0L334.4,260h.3a.1.1,0,0,1-.1-.1l-40.7-19.6h.1l91.1,43.8h.5c.1-.1.1-.1,0-.1h0c0-.1-.1-.1-.1-.2h-.2l-26.9-12.9h.1a.1.1,0,0,0,.1-.1.1.1,0,0,1-.1-.1h-.2L335,258.6h.1l62.2,29.8h.4c.1,0,.1,0,.1-.1h0a497582161916,497582161916,0,0,1-.2-.2h-.2l-46.6-22.4h0l23.1,11h.1l-44.9-21.5,25.3,12.1h.5l43.3,20.5h.5c0-.1-.1-.1-.1-.2a.1.1,0,0,1-.1-.1h-.2l-52.7-25h.1l2.3,1.1h.4l52.3,24.7h.4a.1.1,0,0,0,.1-.1h0v-.2c-.1,0-.1,0-.1-.1h-.2L282.6,230.5l-.9,1.4,1.4.7-1.4-.7-.3.5,1.1.5-1.1-.5-.3.4,3,1.4H284l-2.9-1.4-1.3,1.9,12.8,6.2h0L355,271.6Z" transform="translate(-186.7 -204.5)"/><path class="cls-4" d="M410,304.9h-.1a.1.1,0,0,0-.1-.1h-.2L296.3,247.9h.1l46.1,22.8h0a.1.1,0,0,0,.1.1h.3c0-.1,0-.1.1-.1l63.2,31.4h.6a.1.1,0,0,0-.1-.1v-.2h-.3l-8.8-4.4h.1a.1.1,0,0,0-.1-.1v-.2h-.1l-69.5-34.4h0c0-.1,0-.1-.1-.1h-.1L299.9,248h.1l26.9,13.2h0a.1.1,0,0,0,.1.1h.3a.1.1,0,0,0-.1-.1h-.1l-4.3-2.1h0l10.5,5.1h.3c.1,0,.1,0,.1-.1h0a497582161916.1,497582161916.1,0,0,0-.2-.2l70.1,34.3h.4a.1.1,0,0,0,.1-.1h0c0-.1,0-.1-.1-.1s0-.1-.1-.2h-.2l-69.8-34.3h.1l3.7,1.8h.3a.1.1,0,0,0-.1-.1l-6.2-3.1h.1l44.6,21.6h.5v-.2h-.2l-21.7-10.6h.1l-62.4-30.5h0l-12.9-6.3-3,4.6L353,278.1h0c0-.1,0-.1-.1-.1h-.2l-35.6-17.9h0l85.6,42.9h.4a.1.1,0,0,1,.1-.1h0c0-.1-.1-.1-.1-.2h-.2L287.8,244.4l121.7,60.7h.5Z" transform="translate(-186.7 -204.5)"/><path class="cls-8" d="M276.4,240.1l5.3,2.7h0l-5.4-2.7-.3.4,3.5,1.7h-.1l-3.4-1.7-2.4,3.7,59.4,31,56.5,29.2h.4a.1.1,0,0,0,.1-.1h-.1c0-.1-.1-.1-.1-.2h-.2L281.9,248.1h0l38.9,20.1h.2l-10.5-5.4,41.8,21.4a.1.1,0,0,0,.1.1h.3c0-.1,0-.1.1-.1h0l14.4,7.5h.5a.1.1,0,0,1-.1-.1h-.2L345,279.1h.1l60.7,31.1h.5c.1-.1.1-.1,0-.2h-.2c0-.1-.1-.1-.1-.2l-76.4-39.1h-.1l-4.7-2.4h.1l6.5,3.3h.3a.1.1,0,0,1-.1-.1l-17.7-9h-.1l-29.5-15,9.9,5h.4l91.9,46.7h.4a.1.1,0,0,1,.1-.1h0c.1,0,.1,0,0-.1h-.3l-68.1-34.6h.1a497582161915.8,497582161915.8,0,0,0-.2-.2h0l-17-8.6h.1l13.5,6.7h.3a.1.1,0,0,0,.1-.1h-.2l-22.5-11.4h0l59.7,30h.5l-76.3-38.6Z" transform="translate(-186.7 -204.5)"/><path class="cls-4" d="M270.5,249.2l26.9,14.6h.1L391.7,314h.2a.1.1,0,0,0,.1.1h.2c.1,0,.1,0,0-.1h0l-.2-.2a.1.1,0,0,1-.1-.1h0l-70.6-37.7h-.2l-24.3-13h.1a.1.1,0,0,1-.1-.1h-.1l-12.3-6.5h.1l7.2,3.9h.4l41.1,21.8h.2L293,259h-.1l-14.4-7.7h0l116.9,61.8h.6a.1.1,0,0,0-.1-.1c0-.1-.1-.1-.1-.2h-.2l-85.9-45.3h.1l3.4,1.8h.4s.1,0,0-.1h-.2l-13.6-7.2,64,33.4h.5c0-.1-.1-.1-.1-.2H364l-62.7-32.9h.1l32.6,17h.3a.1.1,0,0,0,.1-.1h.1l44.8,23.4h.4c0-.1-.1-.1-.1-.2h-.2l-61.4-32h.1a.1.1,0,0,1-.1-.1h-.1L283,250l11,5.6h.3a.1.1,0,0,1-.1-.1l-3.1-1.6L333,275.3l-59.4-31Z" transform="translate(-186.7 -204.5)"/><path class="cls-8" d="M329,288.6l22.8,12.6h.3c0-.1,0-.1-.1-.1L287.5,265l69,37.9h.4a497582161915.8,497582161915.8,0,0,0-.2-.2l-35.8-19.7h-.2l-52-28.6h.1l45.3,24.8h.5l14.1,7.7h.5v-.2h0c-.1,0-.1,0-.1-.1h-.2l-1.1-.6h.1l42.4,23.2h.5c-.1-.1-.1-.1-.1-.2h-.2l-39.3-21.4h.1c0-.1-.1-.1-.1-.2H331l-29.6-16.1,46.2,25h.5c-.1-.1-.1-.1-.1-.2h-.2l-.4-.2,51,27.6h.5a.1.1,0,0,1,.1-.1V321a.1.1,0,0,1-.1-.1c0-.1-.1-.1-.1-.2h-.2L269.5,250.8l-2.3,3.5Z" transform="translate(-186.7 -204.5)"/><path class="cls-8" d="M269.5,250.7l36.6,19.6h.4l66.2,35.6h.5v-.2H373a.1.1,0,0,0-.1-.1h0l-97-52.3h0l56.6,30.4h.5a.1.1,0,0,1-.1-.1h-.1a.1.1,0,0,0-.1-.1l-39.8-21.3h.1l4.1,2.2a.1.1,0,0,0,.1.1h.2l-26.9-14.6Z" transform="translate(-186.7 -204.5)"/><path class="cls-4" d="M264.9,257.9l14.1,8h.2s0,.1.1,0h0l68.4,38.5a.1.1,0,0,1,.1.1h.2a.1.1,0,0,0,.1-.1h.1l48.9,27.6h.2c0,.1.1.1.2.1h.2c-.1-.1-.1-.1-.1-.2h-.3L291.1,271.5h.1l3.3,1.8h.2c.1,0,.1,0,.1-.1h.1c0-.1,0-.1-.1-.1h-.1l-14.3-8h0l1.6.9h.4L302.9,277h.4a.1.1,0,0,0,.1-.1h-.3l-25.7-14.4h.1l44.4,24.8h.3a.1.1,0,0,0,.1-.1h.1v-.2c-.1,0-.1,0-.1-.1s-.1,0-.1-.1l-29.3-16.2,56.8,31.3h.4a.1.1,0,0,0,.1-.1h0v-.2h-.2l-27.6-15.3h-.1l-49.4-27.4,2.6,1.4h.2L329,288.6l-61.8-34.3Z" transform="translate(-186.7 -204.5)"/><path class="cls-4" d="M332.2,298.6h.1L379,325.2a.1.1,0,0,0,.1.1h.3a.1.1,0,0,0,.1-.1h0c0-.1,0-.1-.1-.2h-.1a.1.1,0,0,0-.1-.1L274.9,265.2h.1l5.3,2.9h0c0,.1,0,.1.1.1h.2a.1.1,0,0,1,.1-.1h0l2.3,1.3h0a.1.1,0,0,0,.1.1h.1l97.7,55.2h.5c.1,0,.1-.1,0-.1v-.2h-.3L264.8,258l-.9,1.4Z" transform="translate(-186.7 -204.5)"/><path class="cls-8" d="M234.4,242.5h-.1l-19.2-10.9h-.2l17.7,10.2h0l-24.5-13.9H208l-.6.8,20.9,12.1h0l-21-12.1-.3.4L240.6,249l-33.7-19.4h0l-.3.3,8.1,4.7-8.1-4.6-.3.3,11.9,7h-.1l-9.6-5.6h-.3l23.1,13.5h0l-25.4-14.8-.5.6L235.3,249h-.1l-12.8-7.5h-.3l-16.9-9.9h0v.2L374,332h.1c-.1-.1-.1-.1-.1-.2h-.1l-.2-.2L252.7,260h0L273.2,272h0c.1,0,.1,0,.1.1h.3l25.8,15.1h.4v-.2h-.2l-10-5.8h.1l32,18.8h.5l2.3,1.3h.5c0-.1,0-.1-.1-.1v-.2h-.2l-16.2-9.5h-.1L280,273.5h0l17,9.8c0,.1,0,.1.1.1h.2a.1.1,0,0,0,.1-.1h-.2l-23.9-13.9,27.6,15.9h.3a.1.1,0,0,0,.1-.1h0a.1.1,0,0,0-.1-.1h-.1l-18.2-10.6L340.8,307a.1.1,0,0,0,.1.1h.3c0-.1,0-.1.1-.1h0v-.2H341l-59.5-34.4h0l-3.6-2h.1L306.8,286h.2c0,.1,0,.1.1.1h.2l85.1,48.8h.5c.1,0,.1-.1,0-.1v-.2h-.2c0-.1-.1-.1-.1-.2h0L261.1,258.7h.1l11.7,6.6a.1.1,0,0,1,.1.1h.2a.1.1,0,0,0,.1-.1l58.5,33.4h.4l-68.3-39.2Z" transform="translate(-186.7 -204.5)"/><path class="cls-4" d="M204.9,232h.1a.1.1,0,0,0,.1.1h0L237,251.2h0L217.7,240h-.4l-12.7-7.6-.3.4L239,253.5h0l-34.8-20.7-.6.7,13.1,7.9h.1l20.3,12.2h0a.1.1,0,0,0,.1.1l13.9,8.3H251l-22.7-13.5h-.4L203,234.3l-.3.4,33,19.9h-.1l-11.4-6.9h-.4l-13-7.8h-.3l20,12h-.1l-6.9-4.1h-.4l-21.2-12.9-.3.4L367.9,338.1v-.2h-.1a.1.1,0,0,1-.1-.1h-.1l-50.5-30.8h0v-.2a.1.1,0,0,1-.1-.1.1.1,0,0,0-.1-.1h-.1l-35.3-21.5L298.5,295h.4a.1.1,0,0,1,.1-.1l27.7,16.8h.5c0-.1-.1-.1-.1-.2h-.2l-50.6-30.7,54.1,32.6h.1c.1,0,.1.1.2,0h.2l18.3,11.1h.5a.1.1,0,0,0,.1-.1c-.1-.1-.1-.1-.1-.2h-.3l-52.5-31.7h.1c0-.1,0-.1-.1-.2h-.1l-19.1-11.6h.1l15.4,9.2h.5l8.7,5.1h.4c0-.1-.1-.1-.1-.2h-.1l-6.8-4.1,84.8,50.6h.3c.1,0,.1,0,.1-.1h.1v-.2h-.2l-.2-.2-60.5-36.1h.1c0-.1-.1-.1-.1-.2a.1.1,0,0,1-.1-.1h0l-23.8-14.2,4.8,2.9a.1.1,0,0,1,.1.1h.3l22.6,13.4h.4a.1.1,0,0,0,.1-.1h0l9.1,5.4h.4a.1.1,0,0,0,.1-.1h0l8.2,4.8a.1.1,0,0,0,.1.1h.4v-.2h-.2a.1.1,0,0,0-.1-.1l-42.9-25.4L373.5,332h.5L205.1,231.8Z" transform="translate(-186.7 -204.5)"/><path class="cls-8" d="M201.2,236.5l-.2.2,37.2,22.9h-.1l-29.4-17.9h-.6l-7.6-4.6h-.1l-.2.3,31.1,19.1h-.1l-23.5-14.4h-.2l6,3.7h0c-.1,0-.1,0-.1.1h.1l-13.9-8.5-.4.5-.2.3,5.6,3.5h0l-5.8-3.7h-.1l-.3.3L214.6,250l-16.2-10.2-.4.6,134.7,85.4h-.2l-38.2-24.1h-.1a.1.1,0,0,0-.1-.1h0l-21.9-13.8h.1l35.5,22.3h.4v-.2a.1.1,0,0,1-.1-.1.1.1,0,0,0-.1-.1H308l-28-17.6h0c0-.1,0-.1-.1-.1h0L259.7,278h0l70.6,44.1h.5v-.2h-.3l-43.8-27.4h0v-.2h-.2l-35-21.8h.1l101.2,62.9h.6v-.2h-.2c0-.1-.1-.1-.1-.2L309.5,307h0l19.8,12.3h.4c.1,0,.1,0,.1-.1h0c0-.1-.1-.1-.1-.2a.1.1,0,0,1-.1-.1h0l-69.3-42.9h.1l6.2,3.9h.5l22.2,13.6h.4a.1.1,0,0,0-.1-.1l-10.3-6.4h.1l18.8,11.6h.4a.1.1,0,0,0,.1-.1h0l62.7,38.4h.5v-.2h-.1c0-.1,0-.1-.1-.2h-.1l-18.1-11.1h0c0-.1,0-.1-.1-.2h-.1l-51.1-31.3h.1l75.1,45.8c0,.1.1.1.2.1h.2a.1.1,0,0,0,.1-.1h0L201.6,236Z" transform="translate(-186.7 -204.5)"/><path class="cls-4" d="M197.9,240.5l6.2,3.9H204l-6.1-3.9-.5.6,4.2,2.7h-.1l-4.2-2.7h-.1l-.4.5,12.3,7.9H209L196.6,242l-.3.4v.2l.9.6h0l2.3,1.5h0l9.8,6.3-11.3-7.2h-.3l-2-1.3-.3.3,29.3,18.9h-.5L196.8,245h-.4l-1.5-1-.3.4,6.9,4.5h-.1a.1.1,0,0,1,.1.1h0l9.2,6h-.1l-16.3-10.5h0l101.3,66.4h0c-.1,0-.1,0-.1-.1h-.1l-54.1-35.4h0l96,62.3h.6a.1.1,0,0,1-.1-.1c0-.1-.1-.1-.1-.2h-.2l-55.8-36.3h.1l15.3,9.9h.3l-4.8-3.1,51,32.8h.6c0-.1,0-.1-.1-.2a.1.1,0,0,0-.1-.1c0-.1-.1-.1-.1-.2l-85.5-55.1L329.7,330h.6v-.2H330l-43.7-28.2h0a497582161915.9,497582161915.9,0,0,1-.2-.2h0l-30.8-19.8h0a.1.1,0,0,0-.1-.1l-14.9-9.6h0L307,313.6h.5v-.2a.1.1,0,0,1-.1-.1h-.1l-41.8-26.7h.1a.1.1,0,0,0,.1-.1h-.1c-.1,0-.1,0-.1-.1L251.4,277l110.4,70h.5c.1,0,.1,0,.1-.1h0v-.4a.1.1,0,0,1-.1-.1l-60.8-38.6h.2a.1.1,0,0,0-.1-.1h0l-.2-.2-11-6.9h.1v-.2h-.1a.1.1,0,0,0-.1-.1L255.9,278h.1l76.2,48.1h.5L198,240.4Z" transform="translate(-186.7 -204.5)"/><path class="cls-8" d="M193.7,245.5l-.7.9,11.3,7.5h0l22.4,14.8h-.1l-34-22.4-.3.4-.3.4,22.5,15h0l-22.6-14.9-.3.4,20.6,13.7h-.1l-9.7-6.5h-.3l.8.5h-.1l-11.6-7.8-.2.2-.4.5L342.5,352.4h.2v-.2a.1.1,0,0,0-.1-.1c0-.1,0-.2-.1-.2a.1.1,0,0,0-.1-.1l-7-4.7h0c.1-.1.1-.1,0-.2h0c0-.1-.1-.1-.1-.2h-.2L225.6,272.6h0l110.9,74.3a.1.1,0,0,0,.1.1h.4v-.2c-.1-.1-.1-.1-.1-.2h-.2l-67.2-45.1h.1c0-.1,0-.1-.1-.2h-.1l-.7-.5h0l74.1,49.5a.1.1,0,0,1,.1.1h.2a.1.1,0,0,0,.1-.1h.1v-.2h-.2V349l-37.5-25h.2c0-.1-.1-.1-.1-.2a.1.1,0,0,0-.1-.1c0-.1,0-.1-.1-.1l-28.7-19.2h.1v-.2a.1.1,0,0,1-.1-.1h0l-36.9-24.5h.1l4.4,2.9h.4l30.2,20a.1.1,0,0,1,.1.1h.1c.1,0,.1,0,.1-.1h.1L294,314.1h.4c.1-.1.1-.1.1-.2h-.1a.1.1,0,0,0-.1-.1h-.1l-12.4-8.2h.1l71.9,47.3h.6v-.2h-.1c0-.1-.1-.1-.1-.2H354l-12.9-8.5h.1a.1.1,0,0,0-.1-.1c0-.1,0-.2-.1-.2h-.1l-79.4-52.2h.1l77.2,50.5h.4c.1,0,.1,0,.1-.1h0v-.2H339L266.5,293h.1l28.5,18.6h.2s.1.1.1,0h.2L194.3,244.8Z" transform="translate(-186.7 -204.5)"/><path class="cls-4" d="M190.5,249.4h0l16.4,11.1h-.1a.1.1,0,0,0,.1.1h.1l10.3,7h0c-.1,0-.1,0-.1.1h0a.1.1,0,0,1,.1.1h.1l7.3,5h-.1L190,250l-.8.9-.3.5,2.4,1.7h.1l12.8,8.9h0a.1.1,0,0,0,.1.1h0l2.6,1.8h-.1l-18.3-12.5-.4.4h0l.7.4h-.1l-.7-.4-.5.6,24,16.6h0l-24-16.5-.3.3,10.4,7.3h0l-10.5-7.2-.4.5,110.2,77.3h.1v-.2h-.2l-23-16.1h0v-.2a.1.1,0,0,1-.1-.1h-.1l-32-22.3h0L270,311.5h.4a.1.1,0,0,1,.1-.1h0v-.2h-.1a.1.1,0,0,1-.1-.1h0l-39.8-27.7L276.3,315a.1.1,0,0,1,.1.1h.4l11.9,8.2h.5l36,24.8h.5a.1.1,0,0,0,.1-.1c0-.1-.1-.1-.1-.2a.1.1,0,0,0-.1-.1c0-.1-.1-.1-.1-.2L268,307.5h.1l4.6,3.2h.5l11.4,7.8h.5c0-.1-.1-.1-.1-.2h-.2L272,309h0a.1.1,0,0,1,.1-.1h.1c0-.1-.1-.1-.1-.2h0a.1.1,0,0,1-.1-.1h-.1l-24.6-16.9,20.2,13.8h.5a.1.1,0,0,1-.1-.1h-.1l-36.1-24.7h0a.1.1,0,0,1,.1-.1h0l11.4,7.7a.1.1,0,0,0,.1.1h.3l94.2,63.9h.5a.1.1,0,0,1,.1-.1v-.2a.1.1,0,0,0-.1-.1v-.2h-.1l-82.8-56.2h.1L330,345.1h.5v-.2h-.1l-.2-.2h0l-38.3-25.9h.1l50.1,33.7h.4L190.6,249.3Z" transform="translate(-186.7 -204.5)"/><path class="cls-9" d="M257,220.7h-.3c0,.1,0,.1-.1.1h.2l24.3,11.7.3-.4Z" transform="translate(-186.7 -204.5)"/><path class="cls-9" d="M226,206.5l-.4.5,45.5,22h0l-45.6-21.9v.2h-.1l21,10.1.5.2.5.2.5.2.5.3.5.2.5.3.4.2.5.3,14,6.8h-.1L251,219.9l.3.3.4.3.4.3.4.3,24.7,12.1h0c-.1,0-.1,0-.1.1h.2l2.5,1.2,1.3-1.9Z" transform="translate(-186.7 -204.5)"/><path class="cls-9" d="M244.3,217h1l-9.3-4.5h-.3a.1.1,0,0,0-.1.1h.1l7.7,3.7h.5Z" transform="translate(-186.7 -204.5)"/><path class="cls-9" d="M282.1,230.2h0l.5.2v-.2l-4.4-2.1-13-6.1h0l-37.6-17.5-.4.4,19,9h0l-19.1-9v.2H227l11.3,5.4h.1l34.3,16.3h.1l8.9,4.2.9-1.4Z" transform="translate(-186.7 -204.5)"/><path class="cls-9" d="M231.2,208H231l50.4,24.2.3-.5Z" transform="translate(-186.7 -204.5)"/><path class="cls-9" d="M238.9,216.4h.4L224.1,209H224l-.2.2h0l14.6,7.1h.5Z" transform="translate(-186.7 -204.5)"/><polygon class="cls-9" points="66 22.9 66.3 23.9 67.8 24.6 68.5 24.1 66 22.9"/><path class="cls-9" d="M239.9,216.4h.4l-2.6-1.3h-.3l2.1,1h.4Z" transform="translate(-186.7 -204.5)"/><path class="cls-9" d="M279.7,234.9l-11.9-5.7h-.2l1.6.8h-.1l-14.8-7.2.3.4.3.4.2.4.3.4,8,3.9h0l-8-3.8.2.3c.1.1.1.3.2.4s.1.2.1.4l.2.3-.3-.4c-.1-.1-.1-.3-.2-.4l-.3-.4-.3-.4-6.3-3.1h-.4l-6.5-3.2h-2.2l18.9,9.4h-.1l-19-9.4h-1.6l10.6,5.2h-.1l-10.6-5.3h-.6l15.2,7.6.2-.7.2,1,2.5,1.2,1.2-1-.4,1.4.3.2h-.1l-.3-.2-.2.8,1.5.8,2.4-.6-1.4,1.1,18.2,9.1.3-.6Z" transform="translate(-186.7 -204.5)"/><path class="cls-9" d="M235,217h.5l-12.8-6.4-.2.2-.2.3,12.2,6.2h.5Z" transform="translate(-186.7 -204.5)"/><path class="cls-9" d="M233.7,217.5h.3l-8.6-4.2h-.2l8.2,4.2h.3Z" transform="translate(-186.7 -204.5)"/><path class="cls-9" d="M236.6,216.7h1l-14.1-6.9-.4.5,1.9.9h-.1l-1.9-.9-.2.3,12.9,6.5h.9Z" transform="translate(-186.7 -204.5)"/><path class="cls-9" d="M254,223.5l-.6-.5-.5-.5-7.1-3.4h-1.5l5.5,2.7h-.1l-5.6-2.7h-1.2l12,5.9-.4-.6Z" transform="translate(-186.7 -204.5)"/><path class="cls-9" d="M236.9,219.4h-.8l15.9,8,.3-.7Z" transform="translate(-186.7 -204.5)"/><path class="cls-9" d="M233.1,221.7h-.3l13.7,7.2-.8-1Z" transform="translate(-186.7 -204.5)"/><path class="cls-9" d="M232.9,217.8h.4l-7-3.5H226c-.1.1,0,.1,0,.1h.1l.8.4h0l5.6,2.9h.4Z" transform="translate(-186.7 -204.5)"/><polygon class="cls-9" points="65.1 24 62.5 22.7 64.7 25.2 65.1 24"/><path class="cls-9" d="M247,229.7l-14.4-7.4h-.3l2.4,1.3h.1l13.4,6.9h.1Z" transform="translate(-186.7 -204.5)"/><path class="cls-9" d="M263.2,233.6H263l13,6.6.3-.4Z" transform="translate(-186.7 -204.5)"/><path class="cls-9" d="M230,219.7h.3l-10.6-5.4-.2.2v.2l10.4,5.4h.1A.1.1,0,0,0,230,219.7Z" transform="translate(-186.7 -204.5)"/><polygon class="cls-9" points="73.8 28.4 71 27 69.8 27.9 73.8 28.4"/><path class="cls-9" d="M229.5,220.1h.2l-10.4-5.4h-.1l-.2.3,10.4,5.3h.1Z" transform="translate(-186.7 -204.5)"/><polygon class="cls-9" points="69.5 26.2 68.7 25.8 68.5 26.4 69.5 26.2"/><path class="cls-9" d="M229,220.7h.2l-10.4-5.3-.2.3,10.3,5.4h.1Z" transform="translate(-186.7 -204.5)"/><path class="cls-9" d="M231.2,218.8l.2-.2h.2L220.7,213l-.3.3h-.1l9.8,5h.1l.7.3h.3Z" transform="translate(-186.7 -204.5)"/><path class="cls-9" d="M233.7,221.2h-.5l12.3,6.4h-.1l2.8,1.4,1.4.8-.3-1Z" transform="translate(-186.7 -204.5)"/><path class="cls-9" d="M235.3,220.2H235l-.2.2h-.3l-.2.2,5.2,2.6h0a.1.1,0,0,1,.1.1h0l8.9,4.5h0l.8.4-.6-2.1Z" transform="translate(-186.7 -204.5)"/><polygon class="cls-9" points="67.2 25.1 66.5 24.7 66.7 25.5 67.2 25.1"/><polygon class="cls-9" points="66.6 32.4 66.6 32.4 66.6 32.4 66.6 32.4"/><path class="cls-9" d="M228.2,221.9h.1l-10.4-5.4-.2.3,10.4,5.5h.1Z" transform="translate(-186.7 -204.5)"/><path class="cls-9" d="M228.4,221.5h.1l-4.7-2.4h-.3l4.8,2.5h.1Z" transform="translate(-186.7 -204.5)"/><path class="cls-9" d="M247.9,234.1l-4.5-.6,2.4-.5-3.9-2h-.3l-10.8-5.7v.8l9.4,5h0l-9.5-5v.2h0v.4h.1l15.7,8.3,1.7-1.3Z" transform="translate(-186.7 -204.5)"/><path class="cls-9" d="M227.3,223.9v-.4l-5.9-3.1h-.3l3.4,1.8h0l2.6,1.4V224Z" transform="translate(-186.7 -204.5)"/><path class="cls-9" d="M243.6,230.4l3.5.5-15.2-7.8c0,.1-.1.1-.1.2v.2h-.1a.3.3,0,0,0-.1.2l7.9,4.2h0l.8.4h0l7,3.7h.6Z" transform="translate(-186.7 -204.5)"/><path class="cls-9" d="M273.6,244.3l2.4-3.7-15-7.5-2.7.5,6.2,3.2h0l-6.3-3.1-1.2.2,4.4,2.3-4.9-.8.6.7,3.3,1.7-3.2-1.7,2.4,2.7-4.4-2.3v.5l12.9,6.8h-.1l-7-3.7h-.4l-5.2-2.7.2.6,11.1,5.9-11.1-5.8.6,2.2-2.9-3.4h-.1l-1.1,3.6-1-3.9-1.1.9,1.2.7h0l-1.3-.6-1.8,1.5.7-2.1-1.7-.9-2.1.5,1.2-1-14.6-7.7h-.2l12.3,6.6h0l-13.3-7.1a1.5,1.5,0,0,0,.1.7,2,2,0,0,0,.1.7c0,.2.1.4.1.6s.1.5.2.7l24.7,13.4h-.1l-8-4.3h-.9l-1.3.2h-3.8l2.4,1.3h0l16.8,9.4h.1l5.3,3h0l-.8-.4h0l-26-14.3-1.3-.3-1.3-.5-1.3-.5-1.2-.7-1.1-.6-1.1-.8-.9-.7-.9-.8-13.5-7.5h-.2l4.4,2.5h0l38.6,21.5h-.1l-1.3-.7a.1.1,0,0,1-.1-.1h-.2l-46.9-26-.4.4h-.1l13.4,7.6h.1l30.1,16.9H254l-18.9-10.5h-.3l-24.7-13.8-.5.5,11.7,6.6-11.7-6.5-.3.3,25.4,14.4h-.1c-.1.1,0,.1,0,.1h.1l8.5,4.8-23.8-13.4h-.3l-10.2-5.7-.3.3,27.5,15.7H236l-1.3-.8h-.3l29.5,16.9.9-1.4-.9-.5h0a.1.1,0,0,1,.1-.1h0l.9.5,2.3-3.6,2.3-3.5-2.4-1.4h0l2.4,1.3,1-1.5Z" transform="translate(-186.7 -204.5)"/><polygon class="cls-9" points="60.7 31.6 62.2 32.4 62.7 31.1 60.7 31.6"/><path class="cls-9" d="M227.1,224.5h.1l-11.1-5.9v.2h-.1l11.2,6h0Z" transform="translate(-186.7 -204.5)"/><path class="cls-9" d="M226.9,227v-1.2l-11.7-6.2-.3.3,4.4,2.4h-.1l-4.3-2.3-.3.3-.7.8,13.2,7.1a1.3,1.3,0,0,1-.1-.6C227,227.4,226.9,227.2,226.9,227Z" transform="translate(-186.7 -204.5)"/><path class="cls-9" d="M227.5,229.6a.4.4,0,0,1-.1-.3.4.4,0,0,1-.1-.3h-.2l-13.7-7.4-.4.5h0l14.7,8.1c0-.1-.1-.2-.1-.3S227.5,229.8,227.5,229.6Z" transform="translate(-186.7 -204.5)"/><path class="cls-9" d="M228.3,231.5l-.3-.6c-.1-.1-.1-.3-.2-.5l-14.9-8.1h0l-.7.8,16.8,9.3-.4-.5Z" transform="translate(-186.7 -204.5)"/><path class="cls-9" d="M242.9,239.2l1.9.2h1.8l-15.3-8.2.2.3c.1.2.1.3.2.4s.2.3.2.4l.3.4h0l.6.9.8.9.9.8,1,.8,3.7,2.1,1.8.6Z" transform="translate(-186.7 -204.5)"/><path class="cls-10" d="M249.3,218.9l-.5-.3-.5-.2-.5-.3-.5-.2-.5-.2-.5-.2,3.9,1.9-.5-.3Z" transform="translate(-186.7 -204.5)"/><path class="cls-10" d="M251.7,220.5l-.4-.3-.3-.3-5.7-2.7h-1l-.4-.2h-.5l9.1,4.4-.4-.3Z" transform="translate(-186.7 -204.5)"/><path class="cls-10" d="M243.5,218.7h.6l-4.8-2.4h-.9l4.5,2.3h.6Z" transform="translate(-186.7 -204.5)"/><path class="cls-10" d="M245.1,218.9h.7l-5.5-2.7h-.8l4.8,2.4h.8Z" transform="translate(-186.7 -204.5)"/><path class="cls-10" d="M238.6,219h.8l-3.9-1.9h-1l1.7.8h0l1.6.9h.8Z" transform="translate(-186.7 -204.5)"/><path class="cls-10" d="M237.4,219.3h.3l-3.7-1.8h-.6l3.7,1.8h.3Z" transform="translate(-186.7 -204.5)"/><path class="cls-10" d="M254.9,224l-.3-.4-.3-.4-1.4-.7.5.5.6.5.5.5.4.6.5.2-.3-.4Z" transform="translate(-186.7 -204.5)"/><path class="cls-10" d="M255.6,225.5c.1.1.1.3.2.4l.3.4-.2-.3c0-.2-.1-.3-.1-.4s-.1-.3-.2-.4l-.2-.3-.4-.2.3.4Z" transform="translate(-186.7 -204.5)"/><path class="cls-10" d="M240.7,218.7h1.1l-4.2-2.1h-1.9l3.9,1.9h1.1Z" transform="translate(-186.7 -204.5)"/><path class="cls-10" d="M233.4,221.4h.3l-3.4-1.7H230a.1.1,0,0,1-.1.1h-.1l3.4,1.7h.2Z" transform="translate(-186.7 -204.5)"/><path class="cls-10" d="M232.9,221.9h.2l-3.4-1.7h-.3l3.4,1.7h.1Z" transform="translate(-186.7 -204.5)"/><path class="cls-10" d="M232.4,222.4h.2l-3.4-1.8h-.3l3.4,1.7h.1Z" transform="translate(-186.7 -204.5)"/><path class="cls-10" d="M234.8,220.5l.2-.2h-.2l-3.2-1.6h-.2l-.2.2h-.3l3.4,1.8.2-.2Z" transform="translate(-186.7 -204.5)"/><path class="cls-10" d="M236.5,219.6h.4l-3.6-1.8h-.8l3.6,1.8h.4Z" transform="translate(-186.7 -204.5)"/><path class="cls-10" d="M231.7,223.5v-.2c0-.1.1-.1.1-.2l-3.4-1.8h-.2l3.2,1.6-3.2-1.6h-.2l3.4,1.7a.3.3,0,0,1,.1-.2Z" transform="translate(-186.7 -204.5)"/><path class="cls-10" d="M230.7,225.7v-.4l-3.4-1.8v.4h-.1v.2l3.5,1.9v-.4Z" transform="translate(-186.7 -204.5)"/><path class="cls-10" d="M230.6,226.4h0v-.2l-3.4-1.8h0l3.4,1.8v-.4Z" transform="translate(-186.7 -204.5)"/><path class="cls-10" d="M244.2,239.6h1.2l1.3-.2h-1.9l-1.9-.2-1.9-.4-1.8-.6,2.4,1.3h2.6Z" transform="translate(-186.7 -204.5)"/><path class="cls-10" d="M231.7,231.9c-.1-.1-.1-.2-.2-.4l-.2-.3-3.8-2.1h-.2a.4.4,0,0,0,.1.3.4.4,0,0,0,.1.3c0,.2,0,.3.1.4s.1.2.1.3l4.5,2.4-.3-.4C231.9,232.2,231.8,232.1,231.7,231.9Z" transform="translate(-186.7 -204.5)"/><path class="cls-10" d="M230.7,229.1a2,2,0,0,1-.1-.7,1.5,1.5,0,0,1-.1-.7l-3.6-1.9V227c0,.2.1.4.1.6a1.3,1.3,0,0,0,.1.6l3.9,2.2c-.1-.2-.1-.5-.2-.7S230.7,229.3,230.7,229.1Z" transform="translate(-186.7 -204.5)"/><path class="cls-10" d="M233.6,234.5l-.8-.9-.6-.9h-.1l-4.3-2.4c.1.2.1.4.2.5l.3.6.3.5.4.5,6.5,3.6-1-.8Z" transform="translate(-186.7 -204.5)"/><path class="cls-10" d="M232.1,235.7l1.1.8,1.1.6,1.2.7,1.3.5,1.3.5,1.3.3-9.1-4.9.9.8Z" transform="translate(-186.7 -204.5)"/><polygon class="cls-10" points="65.5 22.6 65.3 23.4 66.3 23.9 66 22.9 65.5 22.6"/><polygon class="cls-10" points="68.5 24.1 69.2 24.4 69.7 23.1 68.5 24.1"/><polygon class="cls-10" points="65.5 22.6 66 22.8 65.8 21.9 65.5 22.6"/><polygon class="cls-10" points="70.5 26 71.5 26.5 72.9 25.4 70.5 26"/><polygon class="cls-10" points="68.5 24.1 67.8 24.6 69 25.2 69.2 24.5 68.5 24.1"/><path class="cls-10" d="M261.4,236.2l-4.4-2.3,1.2-.2-8.9-4.6.3,1,3,1.6h0l-6.9-3.5.8,1L250,231h0l-3-1.5,1.3,1.4h-.1l7.5,3.9h0l1.4.7-.6-.7Z" transform="translate(-186.7 -204.5)"/><polygon class="cls-10" points="58.8 23.5 61.4 24.9 58.7 23.5 58.8 23.5"/><polygon class="cls-10" points="73.8 28.4 69.8 27.9 71 27 69.5 26.2 68.5 26.4 68.7 25.8 67.2 25.1 66.7 25.5 66.5 24.7 65.1 24 64.7 25.2 62.5 22.7 62 22.5 62.6 24.5 71.6 29.2 74.3 28.6 73.8 28.4"/><polygon class="cls-10" points="61.2 29.7 59 28.5 56.7 29 61.2 29.7"/><polygon class="cls-10" points="72.9 34.4 70.4 31.7 60.4 26.5 56.9 25.9 61.1 28.1 60.4 28.2 68.6 32.5 68.5 32 72.9 34.4"/><path class="cls-10" d="M249.7,234.5h-.2l3.8,2h0l2.4,1.2-.2-.6Z" transform="translate(-186.7 -204.5)"/><polygon class="cls-10" points="68.9 33.7 66.7 32.5 69.6 35.9 68.9 33.7"/><polygon class="cls-10" points="65.5 36 66.6 32.5 61.4 29.8 59.7 31.1 60.7 31.6 62.7 31.1 62.2 32.4 63.4 33 64.5 32.1 65.5 36"/><polygon class="cls-10" points="63.3 33.1 62.2 32.5 61.4 34.6 63.3 33.1"/><polygon class="cls-10" points="60.5 31.6 59.6 31.1 58.3 32.1 60.5 31.6"/></g></g></g><image class="cls-11" width="614" height="553" transform="translate(25.3 16) scale(0.24)" xlink:href="user_yellow1.png"/><path class="cls-12" d="M330.5,328.5H253a39,39,0,0,1,9.9-12.6,39.9,39.9,0,0,1,21.2-9l13.4-.4a35.9,35.9,0,0,1,33,22Z" transform="translate(-186.7 -204.5)"/><ellipse class="cls-12" cx="105" cy="75.5" rx="17.1" ry="22.6"/><rect class="cls-12" x="100.4" y="95.7" width="9.2" height="9.96"/><ellipse class="cls-12" cx="79" cy="57.1" rx="17.1" ry="22.6"/><path class="cls-12" d="M270.3,288.1l-12.2.4a40.1,40.1,0,0,0-21.3,9,41,41,0,0,0-9.8,12.6h31.5a45.1,45.1,0,0,1,4.4-4.3,38.6,38.6,0,0,1,11.1-6.6A24.8,24.8,0,0,1,270.3,288.1Z" transform="translate(-186.7 -204.5)"/><rect class="cls-12" x="76.1" y="75.5" width="6.8" height="9.96"/></g></g></svg>