<svg xmlns="http://www.w3.org/2000/svg" xmlns:xlink="http://www.w3.org/1999/xlink" viewBox="0 0 223.3 157"><defs><style>.cls-1{fill:none;}.cls-2{isolation:isolate;}.cls-3{fill:#fff;}.cls-4{fill:#0453a5;}.cls-5{opacity:0.12;}.cls-6{clip-path:url(#clip-path);}.cls-7{clip-path:url(#clip-path-2);}.cls-8{fill:#e82327;}.cls-9{fill:#272870;}.cls-10{fill:#fbca0c;}.cls-11{opacity:0.75;mix-blend-mode:multiply;}</style><clipPath id="clip-path" transform="translate(-246.8 -223.7)"><path class="cls-1" d="M414.4,303a75.6,75.6,0,0,1-142.9,34.5h0A75.6,75.6,0,1,1,414.4,303Z"/></clipPath><clipPath id="clip-path-2" transform="translate(-246.8 -223.7)"><rect class="cls-1" x="254.9" y="261.5" width="213.7" height="142.49" transform="translate(146.7 -109.2) rotate(21.4)"/></clipPath></defs><title>user_white</title><g class="cls-2"><g id="Layer_1" data-name="Layer 1"><path class="cls-3" d="M416.5,303a77.7,77.7,0,0,1-146.9,35.4h0a76.8,76.8,0,0,1-8.5-35.4,77.7,77.7,0,1,1,155.4,0Z" transform="translate(-246.8 -223.7)"/><path class="cls-4" d="M414.4,303a75.6,75.6,0,0,1-142.9,34.5h0A75.6,75.6,0,1,1,414.4,303Z" transform="translate(-246.8 -223.7)"/><g class="cls-5"><g class="cls-6"><g class="cls-7"><path class="cls-8" d="M355.7,255.7h.2c0-.1,0-.1.1-.1l-13.2-6.2v.2Z" transform="translate(-246.8 -223.7)"/><path class="cls-8" d="M415,290.8a.1.1,0,0,0-.1-.1h-.1a.1.1,0,0,0-.1-.1h0l-2.1-1L440.5,303h.5c.1-.1.1-.1,0-.1v-.2h-.3l-92.7-45,56.4,27.2h.3c-.1,0-.1,0-.1-.1l-57.5-27.8h0l47.3,22.8h.3a.1.1,0,0,0,.1-.1h.1c0-.1,0-.1-.1-.1s0-.1-.1-.1h-.1l-40.7-19.7h.1l91.2,43.8h.2s.1.1.1,0h.1a.1.1,0,0,0-.1-.1h-.1l-26.9-12.9h.1c0-.1,0-.1-.1-.1h-.1c0-.1,0-.1-.1-.1h0l-23.2-11.2h0l62.2,29.7h.5c.1,0,.1-.1,0-.1h0l-.2-.2a.1.1,0,0,1-.1-.1l-46.7-22.3h0l23.1,11h.3a.1.1,0,0,0,.1-.1h.1c0-.1-.1-.1-.1-.2h-.1a.1.1,0,0,1-.1-.1h0l-45-21.4,25.4,12h.4l43.3,20.6h.4c.1,0,.1,0,.1-.1h-.1a.1.1,0,0,0-.1-.1h-.1l-52.8-25.1h.2l2.2,1.1h.4a.1.1,0,0,0,.1-.1l52.3,24.8h.5a.1.1,0,0,0-.1-.1h-.3l-118.3-56-.9,1.5,1.5.7-1.5-.7-.3.4,1.2.6-1.2-.6-.2.4,2.9,1.4h0l-3-1.4-1.2,1.9,12.7,6.2h0L415,290.9Z" transform="translate(-246.8 -223.7)"/><path class="cls-3" d="M470.1,324.2H470c0-.1-.1-.1-.1-.2h-.2L356.3,267.2h.1L402.5,290h.2s.1.1.1,0h.1c.1,0,.1,0,.1-.1l63.3,31.5a.1.1,0,0,1,.1.1h.2c.1,0,.1,0,.1-.1h0a.1.1,0,0,0-.1-.1h-.2l-8.8-4.4h.2v-.2h-.1a.1.1,0,0,1-.1-.1h-.2L388,281.4h-.3l-27.8-13.7h.1l26.9,13.3h.2l-4.3-2.2h.1l10.4,5.1a.1.1,0,0,0,.1.1h.3a.1.1,0,0,0,.1-.1h-.1a.1.1,0,0,0-.1-.1h-.1L463.6,317h.5c.1-.1.1-.1,0-.2h-.2a.1.1,0,0,0-.1-.1l-69.9-34.3h.1l3.7,1.9h.4a.1.1,0,0,0-.1-.1.1.1,0,0,0-.1-.1l-6.2-3h.2L436.5,302h.1c.1,0,.1.1.2,0h.1a.1.1,0,0,0,.1-.1h0a.1.1,0,0,1-.1-.1h-.2L415,290.9h0l-62.4-30.6h.1l-13-6.3-2.9,4.6,76.3,38.5H413a.1.1,0,0,1-.1-.1h-.1l-35.7-18h0l85.7,42.9h.5c0-.1,0-.1-.1-.2a.1.1,0,0,0-.1-.1h-.2l-115-57.7,121.6,60.7h.6Z" transform="translate(-246.8 -223.7)"/><path class="cls-8" d="M336.4,259.4l5.4,2.7h0l-5.4-2.7-.3.5,3.4,1.7h0l-3.4-1.7-2.4,3.7L393,294.5l56.5,29.2h.5v-.2h-.2a.1.1,0,0,0-.1-.1h0L341.9,267.4h0l39,20.1h.2c.1,0,.1,0,.1-.1h0a.1.1,0,0,0-.1-.1l-10.5-5.4L412.3,303h.2a.1.1,0,0,0,.1.1h.1c.1,0,.1,0,.1-.1h0l14.5,7.4h.5c0-.1-.1-.1-.1-.2a.1.1,0,0,1-.1-.1h-.1L405,298.3h.2l60.6,31.1h.6c0-.1-.1-.1-.1-.2a.1.1,0,0,1-.1-.1H466l-76.3-39.1h0a.1.1,0,0,0-.1-.1l-4.7-2.4h.1l6.4,3.2h.4c0-.1,0-.1.1-.1h0a.1.1,0,0,0-.1-.1h-.1c0-.1,0-.1-.1-.1l-17.7-9h0a.1.1,0,0,1-.1-.1l-29.4-14.9,9.9,5h.3l92,46.6a.1.1,0,0,0,.1.1h.4c0-.1-.1-.1-.1-.2h-.3l-68.1-34.5h.2a.1.1,0,0,0-.1-.1h-.1c0-.1,0-.1-.1-.1h0l-17-8.6h.1l13.6,6.8h.3c.1,0,.1,0,.1-.1h0a.1.1,0,0,1-.1-.1h-.1l-22.6-11.4h0l59.8,30h.4c0-.1,0-.1.1-.1h0l-76.3-38.5Z" transform="translate(-246.8 -223.7)"/><path class="cls-3" d="M330.5,268.5l27,14.5h0l94.2,50.2h.6c0-.1-.1-.1-.1-.2h-.3L381.4,295h-.2l-24.4-13h.1a.1.1,0,0,1,.1-.1h-.3l-12.2-6.5h0l7.2,3.8h.4l41.2,21.8h.3a.1.1,0,0,0-.1-.1L353,278.2h.1a.1.1,0,0,0-.1-.1h-.1l-14.4-7.6h0l117,61.7h.5v-.2h-.2a.1.1,0,0,0-.1-.1h0L369.8,286h0l3.4,1.8h.4a.1.1,0,0,1,.1-.1h0a.1.1,0,0,1-.1-.1h-.1l-13.6-7.1,63.9,33.4h.4c.1,0,.1,0,.1-.1h0a.1.1,0,0,1-.1-.1H424l-62.7-32.9h.1l32.7,17h.4l44.8,23.3h.5v-.2h-.3l-61.4-32.1h0a.1.1,0,0,0,.1-.1h-.1c0-.1,0-.1-.1-.1a.1.1,0,0,0-.1-.1h0l-34.8-18.2,10.9,5.7h.3c0-.1,0-.1-.1-.1l-3.1-1.6L393,294.5l-59.3-30.9Z" transform="translate(-246.8 -223.7)"/><path class="cls-8" d="M389.1,307.9l22.7,12.5h.5c0-.1.1-.1,0-.1v-.2H412l-64.5-35.6,69,37.8h.5v-.2a.1.1,0,0,1-.1-.1h-.2l-35.8-19.7h.1a497582161916,497582161916,0,0,1-.2-.2h0l-52-28.6h0l45.4,24.8h.4l14.2,7.7h.3a.1.1,0,0,0-.1-.1l-1.1-.6h0l42.4,23.1h.6c0-.1-.1-.1-.1-.2h-.3l-39.2-21.4H391l-29.5-16.1,46.1,25h.5v-.2h-.3l-.4-.2,51,27.6h.2c.1,0,.2.1.2,0h.1c.1,0,.1,0,.1-.1h0c0-.1,0-.1-.1-.2h-.3L329.5,270l-2.3,3.5Z" transform="translate(-246.8 -223.7)"/><path class="cls-8" d="M329.6,269.9l36.5,19.7h.4l66.2,35.7h.6a.1.1,0,0,1-.1-.1c0-.1-.1-.1-.1-.2h-.2l-97-52.2h0l56.6,30.3h.2L353,280.9h0l4.1,2.2h.4l-27-14.5Z" transform="translate(-246.8 -223.7)"/><path class="cls-3" d="M324.9,277.2l14.2,7.9h.3l68.3,38.4h.5l48.9,27.5h.6v-.2h-.1c0-.1-.1-.1-.1-.2h-.2L351.2,290.7h0l3.3,1.9h.4c-.1,0-.1,0-.1-.1h0l-14.3-8h0l1.6.9h.3l20.5,11.5h.4a.1.1,0,0,0,.1-.1h0a.1.1,0,0,1-.1-.1h-.1l-25.8-14.5h.1L382,306.2h.2L353,289.4l56.7,31.4h.5v-.2c-.1,0-.1,0-.1-.1H410l-27.7-15.4h.1a.1.1,0,0,0-.1-.1h-.1l-49.3-27.3,2.6,1.3h0c0,.1,0,.1.1.1h0l53.5,29.4-61.9-34.4Z" transform="translate(-246.8 -223.7)"/><path class="cls-3" d="M392.3,317.9h0L439,344.5h.5v-.2a.1.1,0,0,1-.1-.1c0-.1-.1-.1-.1-.2h-.2L334.9,284.4h.1l5.3,3h.4l2.3,1.3h.3l97.6,55.3h.5a.1.1,0,0,0,.1-.1h-.1c0-.1-.1-.1-.1-.2h-.2L324.8,277.3l-.9,1.4Z" transform="translate(-246.8 -223.7)"/><path class="cls-8" d="M294.5,261.7h-.1l-19.3-10.9h-.2l17.8,10.2h0l-24.6-14h0l-.7.8,21,12.1h-.1l-21-12-.3.3,33.7,19.5-33.8-19.3h0l-.2.3,8,4.7-8.1-4.7-.3.4,11.9,6.9h0l-9.7-5.6h-.4a.1.1,0,0,1,.1.1h0l23.2,13.5h-.1l-25.4-14.8-.5.6,29.9,17.5h0l-12.8-7.5h-.1a.1.1,0,0,0-.1-.1h-.1l-16.9-9.9h-.2l169,100.3h0v-.2a.1.1,0,0,0-.1-.1c0-.1,0-.1-.1-.2h-.2l-121-71.5h0l20.6,12.1h.3l25.8,15.1h.4a.1.1,0,0,1-.1-.1L349.6,300h.1l32.1,18.7h.5l2.2,1.3h.2a.1.1,0,1,0,.2,0h-.1l-16.3-9.5h.1c0-.1,0-.1-.1-.2h-.1L340,292.8h.1l16.9,9.8a.1.1,0,0,1,.1.1h.2a.1.1,0,0,1,.1-.1h.1c0-.1-.1-.1-.1-.2h-.2l-23.9-13.9L360.9,304a.1.1,0,0,1,.1.1h.3v-.2h-.2L342.9,293l57.9,33.3h.4c.1,0,.1,0,.1-.1H401l-59.5-34.5h.1a.1.1,0,0,0,.1-.1h0V291h-.1a.1.1,0,0,0-.1-.1l-3.5-2.1h0l28.9,16.5h0c0,.1,0,.1.1.1h.2a.1.1,0,0,0,.1-.1l85.1,48.9h.5a.1.1,0,0,0,.1-.1h-.1a.3.3,0,0,0-.1-.2h-.2L321.1,278h.1l11.8,6.7h.3l58.6,33.4h.4l-68.4-39.2Z" transform="translate(-246.8 -223.7)"/><path class="cls-3" d="M265,251.2h.2l31.9,18.9H297l-19.3-11.3h-.3l-12.8-7.5-.3.3,34.8,20.7h0l-34.9-20.6-.5.7,13.1,7.8h-.1a.1.1,0,0,1,.1.1l20.3,12.1h0c-.1,0,0,0,0,.1h.1l13.9,8.4h0l-22.8-13.5h-.2c-.1,0-.1,0-.1.1l-25-14.9-.2.3,33,19.9h-.1l-11.5-6.8a.1.1,0,0,0-.1-.1h-.2a.1.1,0,0,1-.1.1h0l-13-7.8h-.2l19.9,12.1h-.1l-6.9-4.2h-.3l-21.3-12.8-.3.4L428,357.3h-.2c0-.1,0-.1-.1-.1s0-.1-.1-.1l-50.4-30.8h0v-.2h-.2L341.7,304l16.9,10.3h.4l27.8,16.8h.4c.1-.1.1-.1.1-.2h-.1a.1.1,0,0,0-.1-.1H387l-50.6-30.8,54,32.6h.5l18.4,11.1h.5v-.2a497582161916,497582161916,0,0,1-.2-.2c0-.1-.1-.1-.1-.2L357,311h-.2L337.7,299h.1l15.5,9.2c0,.1,0,.1.1.1h.2a.1.1,0,0,0,.1-.1h0l8.7,5.2h.4c.1,0,.1,0,.1-.1h-.3l-6.7-4.1,84.7,50.6h.6v-.2h-.1c0-.1-.1-.1-.1-.2h-.2l-60.5-36.2h0a.1.1,0,0,0-.1-.1h-.1l-23.8-14.2,4.8,2.8h.5l22.5,13.4h.5l9.1,5.3h.5l8.2,4.9h.5a.1.1,0,0,0-.1-.1l-.2-.2-42.9-25.4,73.8,43.5h.6L265.1,251Z" transform="translate(-246.8 -223.7)"/><path class="cls-8" d="M261.3,255.7l-.3.3,37.3,22.8h-.1l-29.4-18h-.6l-7.6-4.7-.2.2v.2l31,19.2h-.1l-23.4-14.4h-.1c-.1,0-.1-.1-.1,0h-.1l6.1,3.8h-.1l-13.8-8.6-.5.6-.2.2,5.7,3.6h-.1c0,.1,0,.1-.1.1h0c.1,0,.1,0,.1.1h0l-5.8-3.6h-.1l-.2.4,16.2,10.1-16.2-10.1-.5.5,134.8,85.5a.1.1,0,0,0-.1-.1h-.2l-38.1-24.1h0v-.2c-.1,0-.1,0-.1-.1h0l-22-13.8h.1l35.5,22.2h.5v-.2c-.1,0-.1,0-.1-.1L340,310.4h.2c0-.1-.1-.1-.1-.2h0c-.1,0-.1,0-.1-.1h-.1l-20.2-12.6h0l70.6,44.1h.5c.1-.1.1-.1.1-.2h-.1c0-.1,0-.1-.1-.1s-.1-.1-.1-.2h0l-43.9-27.4h.1a.1.1,0,0,0-.1-.1h-.1l-35-21.9h0l101.3,63h.3c.1,0,.1,0,.1-.1s.1,0,.1-.1h0a.3.3,0,0,1-.1-.2h-.2l-43.5-27.1h0l19.8,12.2a.1.1,0,0,0,.1.1h.3a.1.1,0,0,1,.1-.1h0v-.2h-.1a.1.1,0,0,0-.1-.1h0l-69.2-43h0l6.3,3.8h.4l22.3,13.7a.1.1,0,0,1,.1.1h.3c0-.1.1-.1,0-.2h-.2l-10.3-6.3h.1L358.3,317h0a.1.1,0,0,0,.1.1h.3l62.7,38.3h.5c.1,0,.1-.1,0-.1V355h-.3l-18-11.1h0v-.2a.1.1,0,0,1-.1-.1h-.2l-51-31.3h.1l75,45.8h.4a497582161916,497582161916,0,0,1,.2-.2h0l-166.4-102Z" transform="translate(-246.8 -223.7)"/><path class="cls-3" d="M257.9,259.7l6.2,3.9h0l-6.2-3.9-.5.5,4.3,2.7h0a.1.1,0,0,0-.1.1h0l-4.3-2.6h-.1l-.4.5,12.3,7.8H269l-12.3-7.8-.4.5h-.1l1,.6h-.1a.1.1,0,0,1-.1.1h.1l2.4,1.5h-.1l9.9,6.4L258,263.7h-.3a.1.1,0,0,1-.1.1h0l-2-1.3-.3.4,29.3,18.9h-.5l-27.3-17.6h-.3l-1.6-.9-.3.3,6.9,4.5h0a.1.1,0,0,0,.1.1l9.1,5.9h0L254.4,264h-.1l101.4,66.4a.1.1,0,0,0-.1-.1h0a.1.1,0,0,0-.1-.1h-.1l-54.1-35.3h0l96,62.2h.6v-.2h-.1c0-.1-.1-.1-.1-.2l-55.8-36.2h0l15.3,9.9h.4a.1.1,0,0,0,.1-.1h0v-.2a.1.1,0,0,1-.1-.1h-.1l-4.7-3,51,32.8h.5V359h0c-.1-.1-.1-.1-.1-.2h-.2l-85.5-55.2,71.4,45.9h.5v-.2h0v-.2H390l-43.7-28.1h0v-.2h-.2l-30.7-19.7h-.1l-15-9.6h0l66.8,42.6h.1a.1.1,0,0,0,.1.1h.2a.1.1,0,0,0,.1-.1h-.1a.1.1,0,0,0-.1-.1c0-.1,0-.1-.1-.1l-41.7-26.7h0c0-.1,0-.1-.1-.1l-14-9,110.4,70.1h.5c0-.1.1-.1,0-.2h0v-.2h-.2l-60.7-38.6h.1v-.2h-.2l-11.1-7h0l-34.3-21.7h.1l76.3,48.2h.2a.1.1,0,0,0,.1.1c.1,0,.1,0,.1-.1h.1L258,259.6Z" transform="translate(-246.8 -223.7)"/><path class="cls-8" d="M253.8,264.7l-.8,1,11.3,7.5h0l22.4,14.9h0l-34-22.3-.4.4-.3.4,22.5,15h0l-22.5-15-.3.4L272.2,281h-.1l-9.7-6.4h-.3a.1.1,0,0,0-.1.1h.1l.8.6h0l-11.7-7.8v.2l-.5.6,152,103h.1v-.2c-.1,0-.1-.1-.1-.2h-.2l-6.9-4.7h0c0-.1,0-.1-.1-.2h-.1c0-.1-.1-.1-.1-.2L285.6,291.8h.1l110.8,74.4h.5s.1,0,0-.1h0v-.2h-.2l-67.1-45.1h0a.1.1,0,0,1-.1-.1h0l-.8-.5h0l74.1,49.4c0,.1.1.1.2.1h.4v-.2c0-.1-.1-.1-.1-.2H403l-37.5-25a.1.1,0,0,1,.1-.1h.1c-.1-.1-.1-.1-.1-.2h-.2l-28.7-19.1h0c0-.1,0-.1-.1-.1h0l-36.8-24.5h.1l4.3,2.9h.4l30.2,19.9h.5L354,333.3h.5c-.1-.1-.1-.1-.1-.2h-.1l-12.4-8.2h.1l71.8,47.2h.4a.1.1,0,0,0,.1-.1h.1v-.2a.1.1,0,0,0-.1-.1c0-.1-.1-.1-.1-.2h0l-12.9-8.5h0v-.2c-.1-.1-.1-.1-.1-.2h-.2l-79.4-52.2h.1l77.2,50.5h.6v-.2h-.1c0-.1,0-.1-.1-.2h-.1l-72.6-47.5h.1l28.6,18.6h.5L254.3,264.1Z" transform="translate(-246.8 -223.7)"/><path class="cls-3" d="M250.6,268.6h-.1l16.4,11.1h.1l10.4,7.1h0l7.3,5h0L250,269.3l-.7.9-.4.4,2.5,1.7h0l12.9,8.8h-.1a.1.1,0,0,0,.1.1h0l2.6,1.7h0l-18.4-12.6-.3.4h0l.6.5h-.1l-.6-.5-.5.7,23.9,16.6h0l-24-16.6-.3.4,10.5,7.3h-.1l-10.4-7.3-.4.5L357,350.5h0v-.2h-.1a.1.1,0,0,0-.1-.1l-23.1-16.1h0a.1.1,0,0,0-.1-.1c0-.1,0-.1-.1-.1h0l-32-22.3h.1l28.5,19.8h.3c.1,0,.1,0,.1-.1h-.2l-39.8-27.7,45.8,31.6h.5l11.9,8.2h.3a.1.1,0,0,0,.1-.1h.1l36.1,24.9h.5v-.2h0v-.2h-.2L328,326.8h.1l4.7,3.2h.2a.1.1,0,0,0,.1-.1h.1l11.4,7.8h.4a.1.1,0,0,0,.1-.1h0a.1.1,0,0,0-.1-.1c0-.1-.1-.1-.1-.2L332,328.2h.1a.1.1,0,0,0-.1-.1h0l-24.7-16.9,20.2,13.7h.4a.1.1,0,0,1,.1-.1h0c0-.1,0-.1-.1-.2h-.1l-36.1-24.6h.1l11.5,7.7h.1c0,.1,0,.1.1.1h.1l94.3,63.9a.1.1,0,0,0,.1.1h.3c.1,0,.1,0,.1-.1h0v-.2a.1.1,0,0,1-.1-.1l-.2-.2-82.7-56.2h.1L390,364.4h.5c0-.1,0-.1.1-.1v-.2h-.1c0-.1,0-.1-.1-.2h-.1L352,337.9h0l50.2,33.7h0c0,.1,0,.1.1.1h.3l-152-103Z" transform="translate(-246.8 -223.7)"/><path class="cls-9" d="M317,240h-.2L341.2,252l.2-.4Z" transform="translate(-246.8 -223.7)"/><path class="cls-9" d="M286.1,225.7l-.5.5,45.6,22h-.1l-45.5-21.9-.2.2h-.1l21,10.2.5.2.5.2.6.2.5.2.4.3.5.2.5.3.4.3,14,6.7h-.1L311,239.2l.4.3.4.3.3.3.4.3,24.7,12h.1l2.6,1.3,1.2-1.9Z" transform="translate(-246.8 -223.7)"/><path class="cls-9" d="M304.4,236.2h.4l.5.2L296,232h-.2l7.7,3.7h.9Z" transform="translate(-246.8 -223.7)"/><path class="cls-9" d="M342.2,249.5h0l.5.2v-.2l-4.5-2.1-12.9-6.2h0l-37.6-17.6-.4.5,19,9h-.1l-19-8.9-.2.2h0l11.3,5.4h0l34.3,16.4h.1l8.9,4.3.9-1.5Z" transform="translate(-246.8 -223.7)"/><path class="cls-9" d="M291.3,227.2h-.2l50.3,24.1.3-.4Z" transform="translate(-246.8 -223.7)"/><path class="cls-9" d="M298.9,235.7h.4l-15.2-7.5H284l-.2.3h.1l14.6,7.2h.4Z" transform="translate(-246.8 -223.7)"/><polygon class="cls-9" points="66 22.9 66.3 23.9 67.8 24.6 68.5 24.1 66 22.9"/><path class="cls-9" d="M299.9,235.6h.5l-2.7-1.3h-.2l2,.9h.4Z" transform="translate(-246.8 -223.7)"/><path class="cls-9" d="M339.7,254.2l-11.9-5.8h-.3c.1,0,.1,0,.1.1l1.6.7h-.1l-14.7-7.2.3.4a.5.5,0,0,0,.2.4l.3.4a.5.5,0,0,0,.2.4l8,4h0l-8-3.9a.8.8,0,0,1,.2.4l.2.3c.1.2.1.3.2.4s.1.3.1.4-.2-.3-.2-.4l-.3-.5-.3-.4-.3-.4-6.3-3h-.3l-6.5-3.2h-2.3l18.9,9.4h-.1l-19-9.4h-1.5l10.5,5.3h-.1l-10.6-5.2h-.6l15.2,7.6.2-.7.3.9,2.4,1.3,1.3-1-.5,1.3.3.2H316l-.3.7,1.6.8,2.3-.6-1.3,1.1,18.1,9.2.4-.6Z" transform="translate(-246.8 -223.7)"/><path class="cls-9" d="M295.1,236.3h.5l-12.9-6.3-.2.2-.2.3,12.3,6.1h.5Z" transform="translate(-246.8 -223.7)"/><path class="cls-9" d="M293.7,236.7h.3l-8.5-4.2h-.3l8.3,4.1h.1A.1.1,0,0,0,293.7,236.7Z" transform="translate(-246.8 -223.7)"/><path class="cls-9" d="M296.7,235.9h.9l-14.1-7-.4.5,1.9,1h0l-1.9-.9-.3.3,13,6.4h.9Z" transform="translate(-246.8 -223.7)"/><path class="cls-9" d="M314,242.7l-.5-.5-.6-.5-7-3.4h-1.5l5.4,2.7h0l-5.6-2.8H303l11.9,5.9a1,1,0,0,0-.4-.5Z" transform="translate(-246.8 -223.7)"/><path class="cls-9" d="M297,238.7c-.1,0-.2,0-.2.1h-.7l16,8.1.2-.8Z" transform="translate(-246.8 -223.7)"/><path class="cls-9" d="M293.1,241h-.3l13.8,7.1-.9-1Z" transform="translate(-246.8 -223.7)"/><path class="cls-9" d="M293,237.1h.4l-7.1-3.5h-.2l.8.4h0l5.7,2.8h.4Z" transform="translate(-246.8 -223.7)"/><polygon class="cls-9" points="65.1 24 62.5 22.7 64.7 25.2 65.1 24"/><path class="cls-9" d="M307.1,248.9l-14.5-7.4h-.1a.1.1,0,0,0-.1.1h-.1l2.5,1.3h.1l13.3,6.9h.1Z" transform="translate(-246.8 -223.7)"/><path class="cls-9" d="M323.2,252.9H323l13.1,6.7.3-.5Z" transform="translate(-246.8 -223.7)"/><path class="cls-9" d="M290.1,238.9h.2l-10.5-5.4-.2.3-.2.2,10.4,5.4.2-.2Z" transform="translate(-246.8 -223.7)"/><polygon class="cls-9" points="73.8 28.4 71 27 69.8 27.9 73.8 28.4"/><path class="cls-9" d="M289.6,239.4h.1l-10.4-5.3h0l-.2.2,10.3,5.4h.2Z" transform="translate(-246.8 -223.7)"/><polygon class="cls-9" points="69.5 26.2 68.7 25.8 68.5 26.4 69.5 26.2"/><path class="cls-9" d="M289.1,240h.1l-10.3-5.4-.3.4,10.3,5.3h.2Z" transform="translate(-246.8 -223.7)"/><path class="cls-9" d="M291.3,238h.4l-11-5.6-.3.3v.2l9.9,5h.1l.6.4.2-.2Z" transform="translate(-246.8 -223.7)"/><path class="cls-9" d="M293.7,240.4v.2h-.1c-.1,0-.1,0-.1.1h-.2l12.3,6.3h0l2.7,1.4,1.4.7-.2-.9Z" transform="translate(-246.8 -223.7)"/><path class="cls-9" d="M295.3,239.4l-.2.2h-.3l-.2.2h-.3l5.3,2.7h0l8.9,4.5h.1l.7.4-.5-2.1Z" transform="translate(-246.8 -223.7)"/><polygon class="cls-9" points="67.2 25.1 66.5 24.7 66.7 25.5 67.2 25.1"/><polygon class="cls-9" points="66.6 32.4 66.6 32.4 66.6 32.4 66.6 32.4"/><path class="cls-9" d="M288.2,241.1h.1L278,235.5l-.3.4,10.4,5.4a.1.1,0,0,1,.1-.1Z" transform="translate(-246.8 -223.7)"/><path class="cls-9" d="M288.5,240.8h.1l-4.8-2.5h-.4c0,.1,0,.1.1.1h.1l4.7,2.5h.2Z" transform="translate(-246.8 -223.7)"/><path class="cls-9" d="M308,253.4l-4.5-.7,2.3-.5-3.9-2h-.2a.1.1,0,0,0-.1.1l-10.7-5.7c-.1.1-.1.1-.1.2h0v.4l9.5,5h0l-9.5-5.1v.4h0v.2h.2l15.7,8.4,1.7-1.3Z" transform="translate(-246.8 -223.7)"/><path class="cls-9" d="M287.3,243.1h.1v-.2l-5.9-3.1h-.2l3.4,1.8h-.1l2.6,1.4v-.4Z" transform="translate(-246.8 -223.7)"/><path class="cls-9" d="M303.6,249.7l3.5.5L292,242.3l-.2.2v.2c0,.1-.1.1-.1.2v.2l7.9,4.1h.1l.7.4h0l7,3.7.6-.2Z" transform="translate(-246.8 -223.7)"/><path class="cls-9" d="M333.7,263.6l2.4-3.7L321,252.3l-2.6.6,6.2,3.2h-.1l-6.3-3.2-1.2.3,4.5,2.2-5-.7.7.7,3.2,1.7-3.2-1.7,2.5,2.7-4.5-2.4.2.5,12.9,6.8h-.1l-7.1-3.7h-.3l-5.3-2.7.2.6,11.2,5.9-11.2-5.9.6,2.2-2.9-3.4h-.1l-1.1,3.5-.9-3.9-1.2.9,1.3.7h-.1l-1.2-.7-1.9,1.5.8-2.1-1.7-.9-2.2.5,1.3-.9-14.6-7.8h-.3l12.3,6.6h0l-13.2-7v.7c0,.2.1.4.1.6a1.9,1.9,0,0,0,.2.7,1.4,1.4,0,0,0,.2.6L315.7,263h0l-8-4.3h-.3c-.1,0-.1,0-.1.1h-5.6L304,260h0l16.9,9.3h-.1c0,.1,0,.1.1.1s0,.1.1.1l5.2,2.9h0l-.7-.4h-.1l-26-14.2-1.3-.4-1.3-.4-1.3-.6-1.2-.6a4.1,4.1,0,0,1-1.1-.7l-1-.7-1-.8a3,3,0,0,1-.8-.8L276.8,246h-.3a.1.1,0,0,0,.1.1h0l4.4,2.5h0l38.6,21.5h-.1l-1.3-.7h-.3L271,243.9l-.3.5h-.1L284,252h0c0,.1,0,.1.1.1l30,16.9h0l-19-10.6h-.3L270.1,245l-.5.6,11.7,6.6-11.7-6.6-.3.4,25.4,14.3h0l8.5,4.8-23.8-13.3h-.3L269,246.4l-.3.4,27.5,15.7h-.1l-1.4-.7h-.2l29.4,17,.9-1.4-.9-.5h.1l.9.5,2.3-3.7,2.3-3.5-2.4-1.3h.1l2.4,1.3.9-1.4Z" transform="translate(-246.8 -223.7)"/><polygon class="cls-9" points="60.7 31.6 62.2 32.4 62.7 31.1 60.7 31.6"/><path class="cls-9" d="M287.2,243.7h0l-11-5.8H276v.2l11.2,5.9h0A.1.1,0,0,1,287.2,243.7Z" transform="translate(-246.8 -223.7)"/><path class="cls-9" d="M287,246.3a1.9,1.9,0,0,1,0-1.2l-11.8-6.3-.2.4,4.3,2.3h-.1l-4.3-2.4-.3.3-.6.9,13.1,7.1c0-.2-.1-.4-.1-.6Z" transform="translate(-246.8 -223.7)"/><path class="cls-9" d="M287.5,248.9v-.6h-.1l-13.7-7.5-.4.6h0l14.7,8-.2-.3Z" transform="translate(-246.8 -223.7)"/><path class="cls-9" d="M288.4,250.7l-.3-.5-.3-.5L273,241.6h-.1l-.7.9,16.8,9.3-.3-.5Z" transform="translate(-246.8 -223.7)"/><path class="cls-9" d="M303,258.4a11.3,11.3,0,0,0,1.8.3h1.9l-15.3-8.3.2.4a.8.8,0,0,0,.2.4c0,.1.1.2.2.4s.1.2.2.4h0l.7.9a3,3,0,0,0,.8.8l.8.9,1,.7,3.7,2.1,1.9.6Z" transform="translate(-246.8 -223.7)"/><path class="cls-10" d="M309.3,238.1l-.5-.2-.4-.3-.5-.2-.6-.2-.5-.2-.5-.2,3.9,1.9-.4-.3Z" transform="translate(-246.8 -223.7)"/><path class="cls-10" d="M311.8,239.8l-.4-.3-.4-.3-5.7-2.7-.5-.2h-1.3l9,4.4-.4-.3Z" transform="translate(-246.8 -223.7)"/><path class="cls-10" d="M303.6,237.9h.6l-4.9-2.3h-.8l4.5,2.2h.6Z" transform="translate(-246.8 -223.7)"/><path class="cls-10" d="M305.1,238.2h.8l-5.5-2.6h-.9l4.9,2.4h.7Z" transform="translate(-246.8 -223.7)"/><path class="cls-10" d="M298.7,238.2h.7l-3.8-2h-1l1.6.9h0l1.7.8h.8Z" transform="translate(-246.8 -223.7)"/><path class="cls-10" d="M297.4,238.6h.3l-3.7-1.9h-.3a.1.1,0,0,1-.1.1h-.1l3.6,1.9h.3Z" transform="translate(-246.8 -223.7)"/><path class="cls-10" d="M314.9,243.2a.5.5,0,0,1-.2-.4l-.3-.4-1.5-.7.6.5.5.5.5.6a1,1,0,0,1,.4.5l.5.2a.5.5,0,0,1-.2-.4Z" transform="translate(-246.8 -223.7)"/><path class="cls-10" d="M315.6,244.7l.3.5c0,.1.1.2.2.4s-.1-.3-.1-.4-.1-.2-.2-.4l-.2-.3a.8.8,0,0,0-.2-.4l-.4-.2.3.4Z" transform="translate(-246.8 -223.7)"/><path class="cls-10" d="M300.7,237.9h1.2l-4.3-2.1h-1.8l3.8,1.9h1.1Z" transform="translate(-246.8 -223.7)"/><path class="cls-10" d="M293.5,240.7h.1v-.2l-3.4-1.7H290l-.2.2,3.4,1.7h.2C293.4,240.7,293.4,240.7,293.5,240.7Z" transform="translate(-246.8 -223.7)"/><path class="cls-10" d="M293,241.1h.1l-3.4-1.8h-.3l3.4,1.7h.2Z" transform="translate(-246.8 -223.7)"/><path class="cls-10" d="M292.5,241.7h.1l-3.4-1.7h-.3l3.4,1.8h.1A.1.1,0,0,1,292.5,241.7Z" transform="translate(-246.8 -223.7)"/><path class="cls-10" d="M294.8,239.7h.3l.2-.2h-.4l-3.2-1.6h-.6l-.2.2,3.4,1.7h.3Z" transform="translate(-246.8 -223.7)"/><path class="cls-10" d="M296.6,238.9h.2c0-.1.1-.1.2-.1l-3.6-1.8h-.8l3.5,1.8h.5Z" transform="translate(-246.8 -223.7)"/><path class="cls-10" d="M291.7,242.7v-.2l.2-.2-3.4-1.7h-.3l3.2,1.7-3.2-1.7h-.1a.1.1,0,0,0-.1.1l3.4,1.8v-.2C291.6,242.8,291.7,242.8,291.7,242.7Z" transform="translate(-246.8 -223.7)"/><path class="cls-10" d="M290.8,244.9h0c0-.1,0-.1.1-.2l-3.5-1.8v.2h-.1v.4l3.5,1.8v-.4Z" transform="translate(-246.8 -223.7)"/><path class="cls-10" d="M290.6,245.7v-.4l-3.5-1.8h0a.1.1,0,0,0-.1.1h.2l3.3,1.8v-.2Z" transform="translate(-246.8 -223.7)"/><path class="cls-10" d="M304.2,258.9h.6a11.3,11.3,0,0,1-1.8-.3l-1.9-.4-1.9-.6,2.5,1.4h2.5Z" transform="translate(-246.8 -223.7)"/><path class="cls-10" d="M291.8,251.2a.8.8,0,0,1-.2-.4l-.2-.4-3.9-2.1h-.2v.9l.2.3,4.4,2.5c-.1-.2-.1-.3-.2-.4S291.8,251.3,291.8,251.2Z" transform="translate(-246.8 -223.7)"/><path class="cls-10" d="M290.7,248.3c0-.2-.1-.4-.1-.6V247l-3.6-1.9a1.9,1.9,0,0,0,0,1.2v.6c0,.2.1.4.1.6l4,2.1a1.4,1.4,0,0,1-.2-.6A1.9,1.9,0,0,1,290.7,248.3Z" transform="translate(-246.8 -223.7)"/><path class="cls-10" d="M293.7,253.7a3,3,0,0,1-.8-.8l-.7-.9h0l-4.4-2.3.3.5.3.5.3.6.3.5,6.5,3.5-1-.7Z" transform="translate(-246.8 -223.7)"/><path class="cls-10" d="M292.2,255l1,.7a4.1,4.1,0,0,0,1.1.7l1.2.6,1.3.6,1.3.4,1.3.4-9-5a3,3,0,0,0,.8.8Z" transform="translate(-246.8 -223.7)"/><polygon class="cls-10" points="65.5 22.6 65.3 23.4 66.3 23.9 66 22.9 65.5 22.6"/><polygon class="cls-10" points="68.5 24.1 69.2 24.4 69.7 23.1 68.5 24.1"/><polygon class="cls-10" points="65.5 22.6 66 22.8 65.8 21.9 65.5 22.6"/><polygon class="cls-10" points="70.5 26 71.5 26.5 72.9 25.4 70.5 26"/><polygon class="cls-10" points="68.5 24.1 67.8 24.6 69 25.2 69.2 24.5 68.5 24.1"/><path class="cls-10" d="M321.5,255.4l-4.5-2.2,1.2-.3-8.8-4.5.2.9,3.1,1.6h-.1l-6.9-3.5.9,1,3.5,1.8H310l-2.9-1.6,1.2,1.5h-.1l7.5,3.9h0l1.5.8-.7-.7Z" transform="translate(-246.8 -223.7)"/><polygon class="cls-10" points="58.8 23.5 61.4 24.9 58.7 23.5 58.8 23.5"/><polygon class="cls-10" points="73.8 28.4 69.8 27.9 71 27 69.5 26.2 68.5 26.4 68.7 25.8 67.2 25.1 66.7 25.5 66.5 24.7 65.1 24 64.7 25.2 62.5 22.7 62 22.5 62.6 24.5 71.6 29.2 74.3 28.6 73.8 28.4"/><polygon class="cls-10" points="61.2 29.7 59 28.5 56.7 29 61.2 29.7"/><polygon class="cls-10" points="72.9 34.4 70.4 31.7 60.4 26.5 56.9 25.9 61.1 28.1 60.4 28.2 68.6 32.5 68.5 32 72.9 34.4"/><path class="cls-10" d="M309.8,253.8h-.3l3.8,2h.1l2.3,1.3-.2-.6Z" transform="translate(-246.8 -223.7)"/><polygon class="cls-10" points="68.9 33.7 66.7 32.5 69.6 35.9 68.9 33.7"/><polygon class="cls-10" points="65.5 36 66.6 32.5 61.4 29.8 59.7 31.1 60.7 31.6 62.7 31.1 62.2 32.4 63.4 33 64.5 32.1 65.5 36"/><polygon class="cls-10" points="63.3 33.1 62.2 32.5 61.4 34.6 63.3 33.1"/><polygon class="cls-10" points="60.5 31.6 59.6 31.1 58.3 32.1 60.5 31.6"/></g></g></g><image class="cls-11" width="607" height="549" transform="translate(26.2 16.4) scale(0.24)" xlink:href="user_white1.png"/><path class="cls-3" d="M390.5,347.7H313.1a39.5,39.5,0,0,1,9.8-12.6,39.9,39.9,0,0,1,21.2-9l13.4-.4a37.2,37.2,0,0,1,21.2,7.1A35.9,35.9,0,0,1,390.5,347.7Z" transform="translate(-246.8 -223.7)"/><ellipse class="cls-3" cx="105" cy="75.5" rx="17.1" ry="22.6"/><rect class="cls-3" x="100.4" y="95.7" width="9.2" height="9.96"/><ellipse class="cls-3" cx="79" cy="57.1" rx="17.1" ry="22.6"/><path class="cls-3" d="M330.3,307.4l-12.2.4a39.9,39.9,0,0,0-21.2,9,37.1,37.1,0,0,0-9.8,12.6h31.5a29.1,29.1,0,0,1,4.3-4.3,36.4,36.4,0,0,1,11.1-6.6A27.5,27.5,0,0,1,330.3,307.4Z" transform="translate(-246.8 -223.7)"/><rect class="cls-3" x="76.1" y="75.5" width="6.8" height="9.96"/></g></g></svg>