<svg xmlns="http://www.w3.org/2000/svg" xmlns:xlink="http://www.w3.org/1999/xlink" viewBox="0 0 223.3 157"><defs><style>.cls-1{fill:none;}.cls-2{isolation:isolate;}.cls-3{fill:#0453a5;}.cls-4{fill:#fff;}.cls-5{opacity:0.29;}.cls-6{clip-path:url(#clip-path);}.cls-7{clip-path:url(#clip-path-2);}.cls-8{fill:#e82327;}.cls-9{fill:#272870;}.cls-10{fill:#fbca0c;}.cls-11{opacity:0.75;mix-blend-mode:multiply;}</style><clipPath id="clip-path" transform="translate(-19.4 -204)"><path class="cls-1" d="M187.1,283.3A75.6,75.6,0,0,1,44.2,317.8h0a74.5,74.5,0,0,1-8.4-34.5,75.7,75.7,0,0,1,151.3,0Z"/></clipPath><clipPath id="clip-path-2" transform="translate(-19.4 -204)"><rect class="cls-1" x="27.6" y="241.8" width="213.7" height="142.49" transform="translate(123.7 -27.5) rotate(21.4)"/></clipPath></defs><title>user_blue</title><g class="cls-2"><g id="Layer_1" data-name="Layer 1"><path class="cls-3" d="M189.2,283.3A77.8,77.8,0,0,1,42.3,318.8h0a77.7,77.7,0,1,1,146.9-35.5Z" transform="translate(-19.4 -204)"/><path class="cls-4" d="M187.1,283.3A75.6,75.6,0,0,1,44.2,317.8h0a74.5,74.5,0,0,1-8.4-34.5,75.7,75.7,0,0,1,151.3,0Z" transform="translate(-19.4 -204)"/><g class="cls-5"><g class="cls-6"><g class="cls-7"><path class="cls-8" d="M128.4,236h.2l-13.2-6.3v.2Z" transform="translate(-19.4 -204)"/><path class="cls-8" d="M187.7,271.1c-.1,0-.1,0-.1-.1h-.2l-2.2-1,28,13.5h.4c0-.1,0-.1-.1-.2h-.1l-92.7-45L177,265h.2a.1.1,0,0,0,.1.1.1.1,0,0,1,.1-.1.1.1,0,0,0,.1-.1h0v-.2h-.2l-57.4-27.9h0l47.3,22.8h0a.1.1,0,0,0,.1.1h.1l-40.7-19.6h.1l91.1,43.8c.1,0,.2,0,.2.1h.3c.1-.1.1-.1,0-.1v-.2H218l-26.9-12.9h.2a.1.1,0,0,1-.1-.1.1.1,0,0,0-.1-.1H191l-23.3-11.2h.1L230,287.9h.4c0-.1,0-.1-.1-.1s-.1-.1-.2-.1L183.5,265h0l23,10.9h.5a.1.1,0,0,0-.1-.1h-.2l-44.9-21.5,25.3,12h.5l43.3,20.5h0a.1.1,0,0,1,.1.1h.2a.1.1,0,0,0,.1-.1h.1v-.2H231l-52.7-25.1h.1l2.3,1.1h.4l52.3,24.7h.2L115.3,230l-.9,1.5,1.4.7-1.4-.7-.3.5,1.1.5-1.1-.5-.3.3,3,1.5h-.1l-2.9-1.4-1.3,1.9,12.8,6.2h0l62.4,30.5Z" transform="translate(-19.4 -204)"/><path class="cls-4" d="M242.7,304.5a.1.1,0,0,0-.1-.1h-.1c0-.1-.1-.1-.2-.2L129,247.5h.1l46.1,22.9h.4l63.3,31.4h.5c0-.1,0-.1.1-.1h-.1v-.2h-.2a.1.1,0,0,0-.1-.1l-8.8-4.4h.1c0-.1,0-.1-.1-.2h-.2l-69.5-34.4h.1c-.1,0-.1,0-.1-.1h-.1c0-.1,0-.1-.1-.1l-27.8-13.8h.1l26.9,13.3h.4c0-.1,0-.1-.1-.1a.1.1,0,0,0-.1-.1h0l-4.3-2.1h0l10.5,5.2h.4a.1.1,0,0,1-.1-.1h-.1l70.1,34.3h.5V297h-.3l-69.8-34.3h.1l3.7,1.8h.2l-6.2-3.1h.1l44.6,21.7h.5V282c-.1,0-.1,0-.1-.1h-.2l-21.7-10.5h.1l-62.4-30.5h0l-12.9-6.3-3,4.6,76.3,38.6h0c0-.1,0-.1-.1-.1h-.2l-35.6-17.9h0l85.6,42.8h.6c0-.1-.1-.1-.1-.2h-.3L120.5,244l121.7,60.7h.5Z" transform="translate(-19.4 -204)"/><path class="cls-8" d="M109.1,239.7l5.3,2.7h0l-5.4-2.6-.3.4,3.5,1.7h-.1l-3.4-1.7-2.4,3.7,59.4,31L222.2,304a.1.1,0,0,0,.1.1h.4c0-.1-.1-.1-.1-.2h-.3L114.5,247.7h.1l38.9,20h.4a.1.1,0,0,1,.1-.1h0a.1.1,0,0,0-.1-.1h-.2l-10.5-5.4L185,283.3h.5l14.4,7.4h.2l-22.4-11.6h.1l60.7,31.1h.2c0,.1.1.1.2.1a.1.1,0,0,1,.1-.1h0c.1,0,.1,0,0-.1h0l-.2-.2h-.1L162.3,270h.2a.1.1,0,0,0-.1-.1h-.2l-4.7-2.4h.1l6.5,3.3h.2l-17.7-9h-.1l-29.5-15,9.9,5h.4l91.9,46.7h.5c.1,0,0-.1,0-.1h0v-.2h-.2L151.3,262h-.1l-17-8.6h.1l13.5,6.8h.5c0-.1,0-.1-.1-.1H148l-22.5-11.4h0l59.7,29.9h.4a.1.1,0,0,0,.1-.1h0l-76.3-38.6Z" transform="translate(-19.4 -204)"/><path class="cls-4" d="M103.2,248.8l26.9,14.5h.1l94.2,50.3h.5c.1,0,0-.1,0-.1h0l-.2-.2h-.1L154,275.3h.1V275c-.1,0-.1,0-.1-.1h-.2l-24.3-13h-.1l-12.3-6.5h.1l7.2,3.8h.4l41.1,21.9h.5a.1.1,0,0,0-.1-.1h-.2l-40.4-21.5h0a.1.1,0,0,0,.1-.1h-.2l-14.4-7.6h0l116.9,61.7h.6c0-.1-.1-.1-.1-.2h-.3l-85.9-45.4h.1l3.4,1.8h.4a.1.1,0,0,0-.1-.1h-.1l-13.6-7.1,64,33.4a.1.1,0,0,1,.1.1h.2a.1.1,0,0,0,.1-.1h.1v-.2h-.1a.1.1,0,0,0-.1-.1h-.1L134,260.5h.1l32.6,17h.4c.1,0,.1,0,.1-.1h0L212,300.7a.1.1,0,0,0,.1.1h.4c0-.1-.1-.1-.1-.2h-.3l-61.4-32h0a.1.1,0,0,1-.1-.1h0l-34.9-18.1,11,5.6a.1.1,0,0,0,.1.1h.1a.1.1,0,0,0,.1-.1h-.1l-3.1-1.6,41.9,21.7-59.4-31Z" transform="translate(-19.4 -204)"/><path class="cls-8" d="M161.7,288.2l22.8,12.5c0,.1.1.1.2.1h.2a.1.1,0,0,0,.1-.1h0c0-.1,0-.1-.1-.1s0-.1-.1-.2h-.1l-64.5-35.6,69,37.9h.4a.1.1,0,0,0,.1-.1h0a.1.1,0,0,0-.1-.1V302a.1.1,0,0,1-.1-.1l-35.8-19.7h.1v-.2h-.2l-52-28.6h.1l45.3,24.8h.5l14.1,7.7h.4a.1.1,0,0,0,.1-.1h-.3l-1.1-.6h.1L203,307.4h.5v-.2c-.1,0-.1,0-.1-.1h-.2l-39.3-21.4h.1a.1.1,0,0,1-.1-.1h-.1a.1.1,0,0,0-.1-.1l-29.6-16.1,46.2,25h.4a.1.1,0,0,1,.1-.1h0c0-.1,0-.1-.1-.2h-.2l-.4-.2,51,27.6h.5a.1.1,0,0,0,.1-.1h0a.1.1,0,0,1-.1-.1c0-.1-.1-.1-.1-.2h-.2L102.2,250.3l-2.3,3.5Z" transform="translate(-19.4 -204)"/><path class="cls-8" d="M102.2,250.3l36.6,19.6h0a.1.1,0,0,0,.1.1h.3l66.2,35.6h.2a.1.1,0,0,0,.1.1c.1,0,.1,0,.1-.1s.1,0,.1-.1h-.2a.1.1,0,0,0-.1-.1h0l-97-52.3h0L165.2,283h.4a.1.1,0,0,0,.1-.1h-.1a.1.1,0,0,0-.1-.1h-.1l-39.8-21.4h.1l4.1,2.2h.3l-26.9-14.5Z" transform="translate(-19.4 -204)"/><path class="cls-4" d="M97.6,257.5l14.1,8h.3L180.4,304h.1c.1,0,.1.1.2,0h.2l48.9,27.5h.5a.1.1,0,0,1,.1-.1h0v-.2h-.2c0-.1-.1-.1-.1-.2L123.8,271h.1l3.3,1.8h.4c0-.1,0-.1-.1-.1s0-.1-.1-.1h0l-14.3-8.1h0l1.6.9h.4l20.5,11.4h.5c0-.1,0-.1-.1-.1h-.2l-25.7-14.4h.1l44.4,24.8h.2a.1.1,0,0,0,.1.1h.1a.1.1,0,0,0,.1-.1h-.3l-29.2-16.3,56.8,31.4h.5v-.2c-.1,0-.1,0-.1-.1h-.2L155,285.3h.1v-.2h-.3l-49.3-27.3,2.6,1.4h.2l53.4,29.4L99.9,253.8Z" transform="translate(-19.4 -204)"/><path class="cls-4" d="M164.9,298.2h.1l46.7,26.6h.5v-.2a.1.1,0,0,0-.1-.1c0-.1-.1-.1-.1-.2L107.6,264.7h.1l5.2,3h.5l2.3,1.3h.2l97.7,55.2h.5c.1-.1.1-.1,0-.2h-.2c0-.1-.1-.1-.1-.2L97.5,257.6l-.9,1.4Z" transform="translate(-19.4 -204)"/><path class="cls-8" d="M67.1,242.1H67L47.8,231.2h-.3a.1.1,0,0,1-.1.1h.2l17.7,10.2h0l-24.5-14h-.1l-.6.8L61,240.7h0l-21-12-.3.4,33.6,19.5L39.6,229.2h0l-.3.3,8.1,4.7-8.1-4.7-.3.4,11.9,7h-.1l-9.6-5.6h-.3L64,245.2h0L38.6,230.4l-.5.6L68,248.6h-.1l-12.8-7.5h-.3l-16.9-9.9h0v.2L206.7,331.6h.1v-.2h-.1l-.2-.2-121-71.5h0l20.5,12.1h.4l25.8,15.1h.3a.1.1,0,0,0-.1-.1l-10-5.9h.1l32,18.7h.4a.1.1,0,0,0,.1-.1h0l2.3,1.3h.4a.1.1,0,0,1,.1-.1h0c0-.1,0-.1-.1-.2h-.1a.1.1,0,0,0-.1-.1l-16.2-9.5h0a.1.1,0,0,0-.1-.1l-28.4-16.6h0l17,9.8h.4a.1.1,0,0,0-.1-.1.1.1,0,0,0-.1-.1l-23.9-14,27.6,15.9h.4a.1.1,0,0,0-.1-.1.1.1,0,0,0-.1-.1h0l-18.2-10.6,57.9,33.3h.5v-.2h-.1a.1.1,0,0,0-.1-.1h-.1l-59.5-34.4h0l-3.6-2h.1l28.8,16.6h.5l85.1,48.9h.5c.1-.1.1-.1,0-.2h0l-.2-.2h-.1L93.8,258.3h.1l11.7,6.6h.4l58.5,33.4h.1a.1.1,0,0,1,.1.1h.2L96.6,259Z" transform="translate(-19.4 -204)"/><path class="cls-4" d="M37.6,231.6h.2l31.9,18.8h0L50.4,239.5H50L37.3,232l-.3.4L71.7,253h0L36.9,232.4l-.6.7,13.1,7.8h0a.1.1,0,0,0,.1.1l20.3,12.2h-.1a.1.1,0,0,0,.1.1h.1l13.9,8.3h-.1L61,248.8h0a.1.1,0,0,0-.1-.1h-.2c0,.1,0,.1-.1.1L35.7,233.9l-.3.3,33,20h-.1l-11.4-6.9h-.4l-13-7.8h-.3l20,12.1h-.1l-6.9-4.1h-.4L34.6,235.2l-.3.4,166.3,102h-.3l-50.5-30.8h0c.1,0,.1,0,.1-.1h-.1c0-.1,0-.1-.1-.1s0-.1-.1-.1l-35.3-21.6,16.9,10.3h.5l27.7,16.8h.4a.1.1,0,0,0,.1-.1h0v-.2h-.1a.1.1,0,0,1-.1-.1h-.1L109,280.1l54.1,32.6a.1.1,0,0,0,.1.1h.3a.1.1,0,0,1,.1-.1h0l18.3,11h.5a.1.1,0,0,0,.1-.1v-.2h-.3l-52.5-31.8h.1V291h-.2l-19.1-11.5h.1l15.4,9.3h.5l8.7,5.2a.1.1,0,0,0,.1.1h.1c.1,0,.1,0,.1-.1h.1v-.2a.1.1,0,0,1-.1-.1.1.1,0,0,1-.1-.1l-6.8-4,84.8,50.5a.1.1,0,0,0,.1.1h.3c.1,0,.1,0,.1-.1h0c0-.1,0-.1-.1-.2a.1.1,0,0,0-.1-.1c0-.1-.1-.1-.2-.2l-60.5-36.2h.1v-.2h-.2L129,287.9l4.8,2.9h.4l22.6,13.4h.5l9.1,5.3h.5l8.2,4.8h.5v-.2h-.3l-42.9-25.4,73.8,43.4h.5L37.8,231.4Z" transform="translate(-19.4 -204)"/><path class="cls-8" d="M33.9,236l-.2.3,37.2,22.8h-.1L41.4,241.3h-.1c-.1,0-.1,0-.1.1h-.4l-7.6-4.6h-.1l-.2.2L64,256.4h-.1L40.4,242.1h-.2l6,3.7h0L32.3,238l-.4.5-.2.3,5.6,3.5h0L31.5,239h-.1l-.3.3,16.2,10.1L31.1,239.4l-.4.6,134.7,85.4h-.2L127,301h0c0-.1,0-.1-.1-.1h-.1l-21.9-13.9h.1l35.5,22.3h.4c.1,0,.1,0,.1-.1h-.1c0-.1,0-.1-.1-.1s0-.1-.1-.1l-28-17.6h.1a.1.1,0,0,0-.1-.1h-.1L92.4,277.6h0L163,321.7h.5v-.2h-.3l-43.8-27.4h0a.1.1,0,0,0-.1-.1h-.1l-35-21.9h.1l101.2,62.9h.6v-.2a.1.1,0,0,0-.1-.1c0-.1,0-.1-.1-.2h-.1l-43.6-27.1h0L162,318.9h.5c0-.1-.1-.1-.1-.2h-.1L93,275.4h.1l6.2,3.8h.5L122,292.7h.4a.1.1,0,0,1,.1-.1h0c0-.1-.1-.1-.1-.2h-.1L112,285.9h.1l18.8,11.6h.5l62.7,38.4h0a.1.1,0,0,1,.1.1h.2a.1.1,0,0,0,.1-.1h.1a.1.1,0,0,0-.1-.1v-.2h-.1L176.2,324h.1a.1.1,0,0,0-.1-.1v-.2H176l-51.1-31.3h.1l75.1,45.8h.5L34.3,235.6Z" transform="translate(-19.4 -204)"/><path class="cls-4" d="M30.6,240l6.2,4h-.1l-6.1-3.9-.5.6,4.2,2.7h-.1L30,240.8h-.1l-.4.5,12.3,7.8h-.1l-12.4-7.7-.3.4h-.1l.9.7h0l2.3,1.5h0l9.8,6.3-11.3-7.2h-.3l-2-1.3-.3.4,29.3,18.9h-.5L29.5,244.6h-.4l-1.5-1-.3.4,6.9,4.5h0l9.2,6h-.1L27,244.3h0l101.3,66.4h0a.1.1,0,0,1-.1-.1c-.1,0-.1,0-.1-.1L74,275.1h0l96,62.3h.5a.1.1,0,0,0,.1-.1c-.1-.1-.1-.1-.1-.2h-.3l-55.8-36.3h.1l15.3,9.9h.4l-.2-.2-4.7-3,51,32.8h.5a.1.1,0,0,1,.1-.1h0c0-.1-.1-.1-.1-.2h-.1c0-.1-.1-.1-.1-.2L91.1,283.7l71.3,45.9h.6c0-.1,0-.1-.1-.2a.1.1,0,0,0-.1-.1h-.1L119,300.9h0c0-.1-.1-.1-.1-.2a.1.1,0,0,1-.1-.1h0L88,280.7h.1a.1.1,0,0,0-.1-.1h-.1L73,270.7h0l66.7,42.5h.4a.1.1,0,0,1,.1-.1h0v-.2H140L98.2,286h.2a.1.1,0,0,0-.1-.1h0a.1.1,0,0,1-.1-.1l-14.1-9,110.4,70.1h.6v-.2H195c0-.1,0-.1-.1-.2h-.1L134,307.4h.1a.1.1,0,0,0,.1-.1h-.1c0-.1,0-.1-.1-.2h-.1l-11-7h.1a.1.1,0,0,0-.1-.1h-.1L88.6,277.6h.1l76.2,48.1h.5c0-.1,0-.1.1-.1h0a.1.1,0,0,0-.1-.1L30.7,240Z" transform="translate(-19.4 -204)"/><path class="cls-8" d="M26.4,245.1l-.7.9L37,253.5h0l22.4,14.8h-.1l-34-22.3-.3.4-.3.4,22.5,15h0L24.6,247.3l-.3.3,20.6,13.8h-.1L35.1,255h-.3l.8.5h-.1l-11.6-7.7-.2.2-.5.5L175.2,352h.2v-.2a.1.1,0,0,0-.1-.1c0-.1-.1-.1-.1-.2l-7-4.6h0c.1,0,.1-.1,0-.1v-.2H168l-.2-.2L58.3,272.2h0l110.9,74.3h.4a.1.1,0,0,1,.1-.1v-.2h0l-.2-.2a.1.1,0,0,0-.1-.1l-67.2-45.1h.1v-.2h-.2l-.7-.5h0l74,49.4h.5c.1,0,.1,0,.1-.1h0v-.2h-.2c0-.1-.1-.1-.1-.2l-37.5-25h.1v-.2h-.2c0-.1,0-.1-.1-.1l-28.7-19.2h.1v-.2a.1.1,0,0,1-.1-.1h-.1L72.4,278.8h.1l4.4,2.8c0,.1,0,.1.1.1h.2a.1.1,0,0,1,.1-.1l30.2,20h.3c.1,0,.1,0,.1-.1h0l18.8,12.4h.1a.1.1,0,0,1,.1.1h.2c.1,0,.1,0,.1-.1H127c0-.1,0-.1-.1-.1L114.5,305h.1l71.9,47.3h.4c.1,0,.1,0,.1-.1h.1v-.2h-.1l-.2-.2h0l-12.9-8.4h.1c0-.1-.1-.1-.1-.2h-.1c0-.1-.1-.1-.1-.2L94.2,290.2h.1l77.2,50.5h.5v-.2h-.1l-.2-.2h0L99.2,292.5h.1l28.5,18.5h.5L27,244.4Z" transform="translate(-19.4 -204)"/><path class="cls-4" d="M23.2,249h0l16.4,11.1h0a.1.1,0,0,0,.1.1l10.3,7h-.1a.1.1,0,0,0,.1.1h0l7.4,5h-.1L22.7,249.6l-.8.9-.3.5,2.4,1.7h.1l12.8,8.8H37l2.6,1.8h-.1L21.2,251.5l-.4.4h0l.7.4h-.1l-.7-.4-.5.6,24,16.6h0L20.1,252.7l-.2.3,10.4,7.3h0l-10.5-7.2-.4.4,110.2,77.4h.1v-.2c-.1,0-.1,0-.1-.1h-.2l-23-16.1h0v-.2h-.2l-32-22.3h0l28.5,19.7h.5v-.2H103L63.2,282.9,109,314.6h.5l11.9,8.2h.4c0-.1,0-.1.1-.1h0l36,24.8h.5c.1-.1.1-.1.1-.2h-.1c0-.1,0-.1-.1-.2h-.1l-57.5-39.7h0l4.7,3.2h.4a.1.1,0,0,1,.1-.1h0l11.3,7.8h.1a.1.1,0,0,1,.1.1h.3c.1-.1.1-.1.1-.2h-.3l-12.8-8.9h.1c.1,0,0-.1,0-.1h-.2L80,291.1l20.2,13.7h.4a.1.1,0,0,0,.1-.1h-.1a.1.1,0,0,0-.1-.1L64.4,279.7h.1l11.4,7.7h.4l94.2,64h.6a.3.3,0,0,0-.1-.2h-.1c0-.1-.1-.1-.1-.2L88,294.4h.1l74.6,50.4h.4a.1.1,0,0,0,.1-.1v-.2h0c0-.1-.1-.1-.1-.2h-.2l-38.3-25.9h.1l50.1,33.8h.1c.1,0,.1,0,.1.1h.2L23.2,248.9Z" transform="translate(-19.4 -204)"/><path class="cls-9" d="M89.7,220.3h-.2l24.3,11.7.3-.3Z" transform="translate(-19.4 -204)"/><path class="cls-9" d="M58.7,206.1l-.4.5,45.5,22h0L58.2,206.7v.2H58l21,10.2.5.2.5.2.5.2.5.3.5.2.5.3.4.2.5.3,14,6.8h-.1l-13.1-6.3.3.3.4.3.4.3.3.3,24.8,12h.1l2.5,1.2,1.3-1.9Z" transform="translate(-19.4 -204)"/><path class="cls-9" d="M77,216.5h.5l.5.2-9.3-4.5h-.3l7.7,3.7H77Z" transform="translate(-19.4 -204)"/><path class="cls-9" d="M114.8,229.8h0l.5.2v-.2l-4.4-2.1-13-6.1h0L60.4,204l-.4.5,19,9h0l-19.1-9v.2h-.1L71,210.3h.1l34.3,16.3h.1l8.9,4.3.9-1.5Z" transform="translate(-19.4 -204)"/><path class="cls-9" d="M63.9,207.5h-.2L114.1,232l.3-.5Z" transform="translate(-19.4 -204)"/><path class="cls-9" d="M71.6,216H72l-15.2-7.4h-.1l-.2.3h0L71.1,216h.5Z" transform="translate(-19.4 -204)"/><polygon class="cls-9" points="66 22.9 66.3 23.9 67.8 24.6 68.5 24.1 66 22.9"/><path class="cls-9" d="M72.6,216H73l-2.6-1.3h-.3l2.1,1h.4Z" transform="translate(-19.4 -204)"/><path class="cls-9" d="M112.4,234.5l-11.9-5.8h-.3c0,.1,0,.1-.1.1h.2l1.6.8h-.1L87,222.8l.3.4.3.4c.1.1.1.2.2.4l.3.4,8,3.9h0l-8-3.9.2.4.2.4c0,.1.1.2.1.3l.2.4-.3-.4c-.1-.2-.1-.3-.2-.4l-.3-.5-.3-.4-6.3-3H81l-6.5-3.2H72.3l18.9,9.3h-.1l-19-9.4H70.5L81.1,224H81l-10.6-5.3h-.6L85,226.6l.2-.7.2,1,2.5,1.2,1.2-1-.5,1.4h0l-.2.8,1.5.7,2.4-.5-1.4,1,18.2,9.2.3-.6Z" transform="translate(-19.4 -204)"/><path class="cls-9" d="M67.7,216.6h.5l-12.8-6.4-.2.2-.2.3,12.2,6.2h.5Z" transform="translate(-19.4 -204)"/><path class="cls-9" d="M66.4,217.1h.3l-8.6-4.3h-.2l8.2,4.2h.3Z" transform="translate(-19.4 -204)"/><path class="cls-9" d="M69.3,216.2h1l-14.1-6.9-.4.4,1.9,1h-.1l-1.9-.9-.2.3,12.9,6.4h.9Z" transform="translate(-19.4 -204)"/><path class="cls-9" d="M86.7,223.1l-.6-.5a1.2,1.2,0,0,0-.5-.5l-7.1-3.5H77l5.5,2.6h-.1l-5.6-2.8H75.6l12,5.9-.4-.5Z" transform="translate(-19.4 -204)"/><path class="cls-9" d="M69.6,219h-.8l15.9,8,.3-.7Z" transform="translate(-19.4 -204)"/><path class="cls-9" d="M65.8,221.3h-.3l13.7,7.1-.8-1Z" transform="translate(-19.4 -204)"/><path class="cls-9" d="M65.6,217.4H66l-7-3.5h-.3c-.1,0-.1.1,0,.1h.1l.8.4h0l5.6,2.9h.4Z" transform="translate(-19.4 -204)"/><polygon class="cls-9" points="65.1 24 62.5 22.7 64.7 25.2 65.1 24"/><path class="cls-9" d="M79.7,229.3l-14.4-7.5H65l2.4,1.3h0c.1,0,.1,0,.1.1l13.4,6.9H81Z" transform="translate(-19.4 -204)"/><path class="cls-9" d="M95.9,233.2h-.3a.1.1,0,0,0-.1.1h.2l13,6.7.3-.4Z" transform="translate(-19.4 -204)"/><path class="cls-9" d="M62.7,219.3l.2-.2H63l-10.6-5.3-.2.2v.2l10.4,5.4h.2Z" transform="translate(-19.4 -204)"/><polygon class="cls-9" points="73.8 28.4 71 27 69.8 27.9 73.8 28.4"/><path class="cls-9" d="M62.2,219.7h.2L52,214.2h-.1l-.2.2,10.4,5.4h.1Z" transform="translate(-19.4 -204)"/><polygon class="cls-9" points="69.5 26.2 68.7 25.8 68.5 26.4 69.5 26.2"/><path class="cls-9" d="M61.7,220.3h.2l-10.4-5.3-.2.3,10.3,5.4h.1Z" transform="translate(-19.4 -204)"/><path class="cls-9" d="M63.9,218.3h.4l-10.9-5.6-.3.4H53l9.8,5h.1l.7.3h.2Z" transform="translate(-19.4 -204)"/><path class="cls-9" d="M66.4,220.8h-.5l12.3,6.4h-.1l2.8,1.4,1.4.8-.3-1Z" transform="translate(-19.4 -204)"/><path class="cls-9" d="M68,219.7l-.3.2h-.2l-.3.2H67l5.2,2.7h.1l8.9,4.6h0l.8.4-.6-2.1Z" transform="translate(-19.4 -204)"/><polygon class="cls-9" points="67.2 25.1 66.5 24.7 66.7 25.5 67.2 25.1"/><polygon class="cls-9" points="66.6 32.4 66.6 32.4 66.6 32.4 66.6 32.4"/><path class="cls-9" d="M60.9,221.4H61l-10.4-5.4-.2.3,10.4,5.4h.1Z" transform="translate(-19.4 -204)"/><path class="cls-9" d="M61.1,221.1h.1l-4.7-2.4h-.3l4.8,2.5h.1Z" transform="translate(-19.4 -204)"/><path class="cls-9" d="M80.6,233.7l-4.5-.6,2.4-.5-3.9-2.1h-.3l-10.8-5.7v.2c0,.1-.1.1-.1.2v.2h0l9.4,5.1h0l-9.5-5h0v.4a.1.1,0,0,1-.1.1h.2l15.7,8.4,1.7-1.3Z" transform="translate(-19.4 -204)"/><path class="cls-9" d="M60,223.4h0c0-.1.1-.1.1-.2L54.2,220h-.3l3.4,1.8h0l2.6,1.4v-.4Z" transform="translate(-19.4 -204)"/><path class="cls-9" d="M76.3,230l3.5.5-15.2-7.8v.2h-.1v.4l7.9,4.2h0l.8.4h0l7,3.7.6-.2Z" transform="translate(-19.4 -204)"/><path class="cls-9" d="M106.3,243.9l2.4-3.7-15-7.6-2.7.6,6.2,3.2h0l-6.3-3.2-1.2.3,4.4,2.3-4.9-.8.6.7,3.3,1.7-3.2-1.7,2.4,2.7L87.9,236v.6l12.9,6.7h-.1l-7-3.6h0a.1.1,0,0,0-.1-.1h-.2a.1.1,0,0,1-.1.1l-5.2-2.7.2.6,11.1,5.9-11.1-5.8.6,2.1-2.9-3.3H86L84.9,240l-1-3.9-1.1,1,1.2.6h0l-1.3-.7-1.8,1.6.7-2.1-1.7-.9-2.1.5,1.2-1-14.6-7.8h-.3a.1.1,0,0,1,.1.1h0l12.3,6.6h0l-13.3-7.1a1.7,1.7,0,0,0,.1.7,1.3,1.3,0,0,0,.1.6c0,.3.1.5.1.7a6.4,6.4,0,0,1,.2.7l24.7,13.3h-.1l-8-4.4h-6l2.4,1.3h0L93.5,250h.1l5.3,2.9h0l-.8-.4h0l-26-14.3-1.3-.4-1.3-.4-1.3-.5-1.2-.7a4.1,4.1,0,0,1-1.1-.7l-1.1-.7-.9-.8-.9-.8-13.5-7.4h-.3l4.5,2.5h0l38.6,21.5h-.1l-1.3-.7h-.3l-46.9-26-.4.4h-.1l13.4,7.5h.1l30.1,16.9h-.1L67.8,239.2h-.3L42.8,225.3l-.5.6L54,232.5l-11.7-6.6-.3.4,25.4,14.4h-.1c0,.1,0,.1-.1.1h.2l8.5,4.9L52.1,232.5h-.3l-10.2-5.8-.3.4,27.5,15.7h-.1l-1.3-.7h-.3L96.6,259l.9-1.4-.9-.5h.1l.9.5,2.3-3.7,2.3-3.5L99.8,249h0l2.4,1.3,1-1.5Z" transform="translate(-19.4 -204)"/><polygon class="cls-9" points="60.7 31.6 62.2 32.4 62.7 31.1 60.7 31.6"/><path class="cls-9" d="M59.8,224h.1L48.8,218v.2h-.1l11.2,5.9h0Z" transform="translate(-19.4 -204)"/><path class="cls-9" d="M59.6,226.6v-1.2l-11.7-6.2-.3.3,4.4,2.3h-.1l-4.3-2.3-.3.3-.7.8,13.2,7.1a1.3,1.3,0,0,1-.1-.6A1.3,1.3,0,0,1,59.6,226.6Z" transform="translate(-19.4 -204)"/><path class="cls-9" d="M60.2,229.2a6181264102392.4,6181264102392.4,0,0,1-.2-.6h-.2l-13.7-7.4-.4.5h0l14.7,8c0-.1-.1-.2-.1-.3A.4.4,0,0,1,60.2,229.2Z" transform="translate(-19.4 -204)"/><path class="cls-9" d="M61,231.1l-.3-.6-.2-.5-14.9-8.1h0l-.7.8,16.8,9.3-.4-.5Z" transform="translate(-19.4 -204)"/><path class="cls-9" d="M75.6,238.8l1.9.2h1.8L64,230.7c.1.2.1.3.2.4s.1.3.2.4l.2.4.3.4h0l.6.9.8.9.9.8,1,.8,3.7,2,1.8.7Z" transform="translate(-19.4 -204)"/><path class="cls-10" d="M82,218.5l-.5-.3L81,218l-.5-.3-.5-.2-.5-.2-.5-.2,3.9,1.9-.5-.3Z" transform="translate(-19.4 -204)"/><path class="cls-10" d="M84.4,220.1l-.4-.3-.3-.3L78,216.8l-.5-.2H76.1l9,4.4-.3-.3Z" transform="translate(-19.4 -204)"/><path class="cls-10" d="M76.2,218.3h.6L72,216h-.9l4.5,2.2h.6Z" transform="translate(-19.4 -204)"/><path class="cls-10" d="M77.8,218.5h.7L73,216h-.8l4.8,2.4h.8Z" transform="translate(-19.4 -204)"/><path class="cls-10" d="M71.3,218.5h.8l-3.9-1.9h-1l1.7.8h0l1.6.8h.8Z" transform="translate(-19.4 -204)"/><path class="cls-10" d="M70.1,218.9h.3L66.7,217h-.6l3.7,1.8h.3Z" transform="translate(-19.4 -204)"/><path class="cls-10" d="M87.6,223.6l-.3-.4-.3-.4-1.4-.7a1.2,1.2,0,0,1,.5.5l.6.5.5.5.4.5.5.3-.3-.4C87.7,223.8,87.7,223.7,87.6,223.6Z" transform="translate(-19.4 -204)"/><path class="cls-10" d="M88.3,225.1c.1.1.1.2.2.4l.3.4-.2-.4c0-.1-.1-.2-.1-.3l-.2-.4-.2-.4-.4-.2.3.4Z" transform="translate(-19.4 -204)"/><path class="cls-10" d="M73.4,218.2h1.1l-4.2-2.1H68.4l3.9,2h1.1Z" transform="translate(-19.4 -204)"/><path class="cls-10" d="M66.1,221h.3L63,219h-.1l-.2.2h-.2l3.4,1.7h.2Z" transform="translate(-19.4 -204)"/><path class="cls-10" d="M65.6,221.5h.2l-3.4-1.7h-.3l3.4,1.7Z" transform="translate(-19.4 -204)"/><path class="cls-10" d="M65.1,222h.2l-3.4-1.7h-.3l3.4,1.7h.1Z" transform="translate(-19.4 -204)"/><path class="cls-10" d="M67.5,220h.2l.3-.2h-.5l-3.2-1.6h-.4v.2h-.2l3.4,1.7h.2Z" transform="translate(-19.4 -204)"/><path class="cls-10" d="M69.2,219.2h.4L66,217.2h-.8l3.6,1.8h.4Z" transform="translate(-19.4 -204)"/><path class="cls-10" d="M64.4,223h.1v-.2l-3.4-1.8H61l3.2,1.6L61,221.3h-.2l3.4,1.8V223Z" transform="translate(-19.4 -204)"/><path class="cls-10" d="M63.4,225.3c0-.1.1-.1.1-.2v-.2l-3.4-1.8c0,.1-.1.1-.1.2h0v.4l3.5,1.8h0Z" transform="translate(-19.4 -204)"/><path class="cls-10" d="M63.3,226v-.2h0l-3.4-1.9h0l3.3,1.7a.1.1,0,0,0,.1-.1Z" transform="translate(-19.4 -204)"/><path class="cls-10" d="M76.9,239.2h.6l-1.9-.2-1.9-.4-1.8-.7,2.4,1.4h2.6Z" transform="translate(-19.4 -204)"/><path class="cls-10" d="M64.4,231.5c-.1-.1-.1-.2-.2-.4s-.1-.2-.2-.4l-3.8-2.1H60a18543792307236.9,18543792307236.9,0,0,1,.3.9c0,.1.1.2.1.3l4.5,2.5-.3-.4Z" transform="translate(-19.4 -204)"/><path class="cls-10" d="M63.4,228.6a1.3,1.3,0,0,1-.1-.6,1.7,1.7,0,0,1-.1-.7l-3.6-1.9v1.2a1.3,1.3,0,0,0,.1.6,1.3,1.3,0,0,0,.1.6l3.9,2.2a6.4,6.4,0,0,0-.2-.7C63.5,229.1,63.4,228.9,63.4,228.6Z" transform="translate(-19.4 -204)"/><path class="cls-10" d="M66.3,234.1l-.8-.9-.6-.9h-.1L60.5,230l.2.5.3.6.3.5.4.5,6.5,3.6-1-.8Z" transform="translate(-19.4 -204)"/><path class="cls-10" d="M64.8,235.3l1.1.7a4.1,4.1,0,0,0,1.1.7l1.2.7,1.3.5,1.3.4,1.3.4-9.1-5,.9.8Z" transform="translate(-19.4 -204)"/><polygon class="cls-10" points="65.5 22.6 65.3 23.4 66.3 23.9 66 22.9 65.5 22.6"/><polygon class="cls-10" points="68.5 24.1 69.2 24.4 69.7 23.1 68.5 24.1"/><polygon class="cls-10" points="65.5 22.6 66 22.8 65.8 21.9 65.5 22.6"/><polygon class="cls-10" points="70.5 26 71.5 26.5 72.9 25.4 70.5 26"/><polygon class="cls-10" points="68.5 24.1 67.8 24.6 69 25.2 69.2 24.5 68.5 24.1"/><path class="cls-10" d="M94.1,235.8l-4.4-2.3,1.2-.3L82,228.7l.3,1,3,1.5h-.1l-6.8-3.6.8,1,3.5,1.8h-.1c0,.1,0,.1.1.1l-3-1.5,1.3,1.4h-.1l7.5,3.9h-.2a.1.1,0,0,0,.1.1h.1l1.4.8-.6-.7Z" transform="translate(-19.4 -204)"/><polygon class="cls-10" points="58.8 23.5 61.4 24.9 58.7 23.5 58.8 23.5"/><polygon class="cls-10" points="73.8 28.4 69.8 27.9 71 27 69.5 26.2 68.5 26.4 68.7 25.8 67.2 25.1 66.7 25.5 66.5 24.7 65.1 24 64.7 25.2 62.5 22.7 62 22.5 62.6 24.5 71.6 29.2 74.3 28.6 73.8 28.4"/><polygon class="cls-10" points="61.2 29.7 59 28.5 56.7 29 61.2 29.7"/><polygon class="cls-10" points="72.9 34.4 70.4 31.7 60.4 26.5 56.9 25.9 61.1 28.1 60.4 28.2 68.6 32.5 68.5 32 72.9 34.4"/><path class="cls-10" d="M82.4,234.1H82a.1.1,0,0,0,.1.1h.1l3.8,2.1h0l2.4,1.2-.2-.6Z" transform="translate(-19.4 -204)"/><polygon class="cls-10" points="68.9 33.7 66.7 32.5 69.6 35.9 68.9 33.7"/><polygon class="cls-10" points="65.5 36 66.6 32.5 61.4 29.8 59.7 31.1 60.7 31.6 62.7 31.1 62.2 32.4 63.4 33 64.5 32.1 65.5 36"/><polygon class="cls-10" points="63.3 33.1 62.2 32.5 61.4 34.6 63.3 33.1"/><polygon class="cls-10" points="60.5 31.6 59.6 31.1 58.3 32.1 60.5 31.6"/></g></g></g><image class="cls-11" width="608" height="549" transform="translate(26.1 16.3) scale(0.24)" xlink:href="user_blue1.png"/><path class="cls-3" d="M163.2,328.1H85.7a39,39,0,0,1,9.9-12.6,40.3,40.3,0,0,1,21.2-9.1l13.4-.4a37.4,37.4,0,0,1,21.2,7.1A35.5,35.5,0,0,1,163.2,328.1Z" transform="translate(-19.4 -204)"/><ellipse class="cls-3" cx="105" cy="75.5" rx="17.1" ry="22.6"/><rect class="cls-3" x="100.4" y="95.7" width="9.2" height="9.96"/><ellipse class="cls-3" cx="79" cy="57.1" rx="17.1" ry="22.6"/><path class="cls-3" d="M103,287.7l-12.2.4a40.1,40.1,0,0,0-21.3,9,41,41,0,0,0-9.8,12.6H91.2a45.1,45.1,0,0,1,4.4-4.3,38.6,38.6,0,0,1,11.1-6.6A24.8,24.8,0,0,1,103,287.7Z" transform="translate(-19.4 -204)"/><rect class="cls-3" x="76.1" y="75.5" width="6.8" height="9.96"/></g></g></svg>