<svg xmlns="http://www.w3.org/2000/svg" xmlns:xlink="http://www.w3.org/1999/xlink" viewBox="0 0 223.3 157"><defs><style>.cls-1{fill:none;}.cls-2{isolation:isolate;}.cls-3{fill:#e82327;}.cls-4{fill:#fff;}.cls-5{opacity:0.29;}.cls-6{clip-path:url(#clip-path);}.cls-7{clip-path:url(#clip-path-2);}.cls-8{fill:#272870;}.cls-9{fill:#fbca0c;}.cls-10{opacity:0.75;mix-blend-mode:multiply;}</style><clipPath id="clip-path" transform="translate(-79 -223.5)"><path class="cls-1" d="M246.6,302.8a75.6,75.6,0,0,1-142.9,34.5h0A75.6,75.6,0,0,1,171,227.2a74.7,74.7,0,0,1,44.5,14.5A75.6,75.6,0,0,1,246.6,302.8Z"/></clipPath><clipPath id="clip-path-2" transform="translate(-79 -223.5)"><rect class="cls-1" x="87.1" y="261.3" width="213.7" height="142.49" transform="translate(135 -47.9) rotate(21.4)"/></clipPath></defs><title>user_red</title><g class="cls-2"><g id="Layer_1" data-name="Layer 1"><path class="cls-3" d="M248.7,302.8a77.7,77.7,0,0,1-146.9,35.4h0a76.8,76.8,0,0,1-8.5-35.4,77.7,77.7,0,1,1,155.4,0Z" transform="translate(-79 -223.5)"/><path class="cls-4" d="M246.6,302.8a75.6,75.6,0,0,1-142.9,34.5h0A75.6,75.6,0,0,1,171,227.2a74.7,74.7,0,0,1,44.5,14.5A75.6,75.6,0,0,1,246.6,302.8Z" transform="translate(-79 -223.5)"/><g class="cls-5"><g class="cls-6"><g class="cls-7"><path class="cls-3" d="M187.9,255.5h.3L175,249.3l-.2.2Z" transform="translate(-79 -223.5)"/><path class="cls-3" d="M247.2,290.6a.1.1,0,0,0-.1-.1.1.1,0,0,0-.1-.1h-.1l-2.1-1,27.9,13.5h.5c.1-.1.1-.1,0-.1v-.2a.1.1,0,0,1-.1-.1h-.2l-92.7-45,56.4,27.2h.3c.1,0,.1,0,.1-.1h-.1c-.1,0-.1,0-.1-.1l-57.5-27.8h0L226.6,279h.3a.1.1,0,0,0,.1-.1h0c0-.1,0-.1-.1-.1h-.1l-40.7-19.7h.1l91.2,43.8h.2a.1.1,0,0,0,.1.1.1.1,0,0,1,.1-.1h-.2l-26.9-12.9h.1c0-.1,0-.1-.1-.1s0-.1-.1-.1h-.1l-23.2-11.2h0l62.2,29.7h.5c.1,0,0-.1,0-.1h0l-.2-.2h-.1L243,284.5h0l23.1,11h.4c0-.1,0-.1-.1-.2h-.1l-45-21.4,25.4,12a.1.1,0,0,1,.1.1h.3l43.3,20.6h.2a.1.1,0,0,0,.1.1h.1a.1.1,0,0,0-.1-.1c0-.1-.1-.1-.2-.1l-52.7-25.1h.2l2.2,1.1h.4a.1.1,0,0,0,.1-.1L293,306h.4c.1,0,.1,0,.1-.1h-.4l-118.3-56-.9,1.5,1.5.7-1.5-.7-.3.4,1.2.6-1.2-.6-.2.4,2.9,1.4h0l-3-1.4-1.2,1.9,12.7,6.2h0l62.4,30.5Z" transform="translate(-79 -223.5)"/><path class="cls-4" d="M302.3,324a.1.1,0,0,1-.1-.1c0-.1-.1-.1-.1-.2h-.2L188.5,267h.1l46.1,22.9h.5l63.2,31.4c.1,0,.2,0,.2.1h.2a.1.1,0,0,0,.1-.1h.1V321h-.4l-8.8-4.4h.1v-.2h-.3l-69.4-34.5h0c-.1,0-.1,0-.1-.1h-.2l-27.8-13.8h.1l26.9,13.3h.2l-4.3-2.2h.1l10.4,5.2h.4a.1.1,0,0,0,.1-.1h-.3l70.1,34.4h.5c.1-.1.1-.1,0-.2H296L226.1,282h.1l3.7,1.9h.2l-6.2-3h.2l44.6,21.7h.4a.1.1,0,0,0,.1-.1h0a.1.1,0,0,1-.1-.1h-.2l-21.7-10.6h0l-62.4-30.5h.1l-13-6.3-2.9,4.6,76.3,38.5H245l-35.7-18h0L295,321.7h0c0,.1.1.1.2.1h.3c0-.1,0-.1-.1-.2h-.3l-115-57.7,121.6,60.7h.4a.1.1,0,0,1,.1-.1h.1Z" transform="translate(-79 -223.5)"/><path class="cls-3" d="M168.6,259.2l5.4,2.7h-.1l-5.3-2.7-.3.5,3.4,1.7h0l-3.4-1.7-2.4,3.7,59.3,31,56.5,29.1h.5v-.2h-.3L174.1,267.2h0l39,20.1a.1.1,0,0,0,.1.1h.3a.1.1,0,0,0-.1-.1h-.1l-10.5-5.4,41.7,21.4h.4c.1,0,.1,0,.1-.1h0l14.5,7.4h.5a.1.1,0,0,0-.1-.1c0-.1-.1-.1-.1-.2h-.1l-22.5-11.5h.1a.1.1,0,0,0,.1-.1L298,329.2h.6a.1.1,0,0,0-.1-.1c0-.1-.1-.1-.1-.2h-.2l-76.3-39.1h0a.1.1,0,0,0-.1-.1l-4.7-2.4h.1l6.4,3.2h.4c0-.1,0-.1.1-.1h0a.1.1,0,0,0-.1-.1.1.1,0,0,0-.1-.1h-.1l-17.7-9h.1a.1.1,0,0,1-.1-.1H206l-29.4-15,9.9,5h.3l92,46.6a.1.1,0,0,0,.1.1h.4c0-.1-.1-.1-.1-.2h-.3l-68.1-34.5h.2a.1.1,0,0,0-.1-.1h-.1a.1.1,0,0,0-.1-.1h0l-17-8.6h.1l13.6,6.8h.3c.1,0,.1,0,.1-.1h0a.1.1,0,0,1-.1-.1h-.1L185,267.3h0l59.8,29.9h0a.1.1,0,0,0,.1.1h.4L169,258.6Z" transform="translate(-79 -223.5)"/><path class="cls-4" d="M162.7,268.3l27,14.5h0L283.9,333h.6c0-.1-.1-.1-.1-.2h-.3l-70.5-37.7h0a.1.1,0,0,1-.1-.1h-.1l-24.4-13h.1a.1.1,0,0,1,.1-.1h-.3l-12.2-6.5h0l7.2,3.8h.4l41.2,21.8c0,.1,0,.1.1.1h.2a.1.1,0,0,0-.1-.1L185.2,278h-.1L170.7,270h0l117,61.7h.5v-.2H288a.1.1,0,0,0-.1-.1h-.1L202,285.8h0l3.4,1.7h.4a.1.1,0,0,1,.1-.1h-.2L192.1,280,256,313.4h.2a.1.1,0,1,0,.2,0h.1a.1.1,0,0,1-.1-.1h-.2L193.5,280h.1L226.3,297h.4l44.8,23.3h.5v-.2h-.3l-61.4-32h0a.1.1,0,0,0,.1-.1h-.2a.1.1,0,0,0-.1-.1h0L175.3,269l10.9,5.7h.1c.1.1.1.1.1,0h.2c0-.1,0-.1-.1-.1h-.1l-3.1-1.6,41.9,21.7-59.3-31Z" transform="translate(-79 -223.5)"/><path class="cls-3" d="M221.3,307.7,244,320.2h.5v-.2h-.3l-64.5-35.6,69,37.8h.5c0-.1-.1-.1-.1-.2h-.2l-35.8-19.7h0a.1.1,0,0,1-.1-.1h0l-52-28.6h0l45.4,24.8a.1.1,0,0,0,.1.1h.3L221,305h.3a.1.1,0,0,0-.1-.1l-1.1-.6h0l42.4,23.1h.5a.1.1,0,0,1,.1-.1h0c0-.1-.1-.1-.1-.2h-.3L223.5,305h-.3l-29.5-16.1,46.1,25h.5v-.2H240l-.4-.2,51,27.6h.5c.1,0,.1,0,.1-.1h0c0-.1,0-.1-.1-.2h-.3L161.7,269.8l-2.3,3.5Z" transform="translate(-79 -223.5)"/><path class="cls-3" d="M161.8,269.7l36.5,19.7h0a.1.1,0,0,1,.1.1h.3L264.9,325h.6a.1.1,0,0,1-.1-.1c0-.1-.1-.1-.1-.2h-.2l-97-52.2h0l56.6,30.3h.4a.1.1,0,0,1,.1-.1h-.3l-39.7-21.4h0l4.1,2.2h.4l-27-14.5Z" transform="translate(-79 -223.5)"/><path class="cls-4" d="M157.1,277l14.2,8h.3l68.3,38.4c0,.1.1.1.2.1h.2a.1.1,0,0,0,.1-.1h0l48.9,27.5h.5a.1.1,0,0,0,.1-.1v-.2h-.1c0-.1-.1-.1-.1-.2h-.2L183.4,290.5h0l3.3,1.9h.3l-14.3-8h0l1.6.9h.3l20.5,11.4h.5v-.2a.1.1,0,0,1-.1-.1h-.1l-25.8-14.5h.1L214.2,306h.2l-29.2-16.3,56.7,31.4h.5c.1-.1.1-.1.1-.2h-.3l-27.7-15.4h-.1l-49.3-27.3,2.6,1.3h.1l53.5,29.4-61.9-34.4Z" transform="translate(-79 -223.5)"/><path class="cls-4" d="M224.5,317.7h0l46.7,26.6h.5c.1-.1.1-.1,0-.2h0c0-.1-.1-.1-.1-.2h-.2L167.1,284.2h.1l5.3,3h.4l2.3,1.3h.3l97.6,55.3h.6v-.2h-.1c0-.1-.1-.1-.1-.2h-.2L157,277.1l-.9,1.4Z" transform="translate(-79 -223.5)"/><path class="cls-3" d="M126.7,261.5h-.1l-19.3-10.9h-.2l17.8,10.2h0l-24.6-14h0l-.7.8,21,12.1h-.1l-21-12-.3.3L132.9,268,99.1,248.7h0l-.2.3,8,4.7L98.8,249l-.3.4,11.9,6.9h0l-9.7-5.6h-.3l23.2,13.6h-.1L98.1,249.9l-.5.6,29.9,17.6h0l-12.8-7.5h-.2a.1.1,0,0,1-.1.1h0l-16.9-9.9h-.1v.2l169,100.2h0v-.2h-.1c0-.1,0-.1-.1-.2h-.2L144.9,279h0l20.6,12.1h.3l25.8,15.1h.5a.1.1,0,0,0-.1-.1h-.2l-10-5.9h.1L214,318.4a.1.1,0,0,0,.1.1h.4l2.2,1.3h.3c.1,0,.1,0,.1-.1h.1v-.2H217l-16.3-9.5h.1v-.2h-.1l-28.4-16.6h.1l16.9,9.8h.4a.1.1,0,0,1,.1-.1h-.1c0-.1,0-.1-.1-.2h-.1l-23.9-14,27.6,15.9h.2l-18.2-10.6L233,326.1h.4c.1,0,.1,0,.1-.1h-.3l-59.5-34.5h.1a.1.1,0,0,0-.1-.1l-3.5-2.1h0L199.1,305h0c0,.1,0,.1.1.1h.2c.1,0,.1,0,.1-.1l85.1,48.9h.4a.1.1,0,0,0,.1-.1h.1v-.2h-.1c0-.1-.1-.1-.1-.2h-.2L153.3,277.8h.1l11.8,6.6h.3l58.6,33.4h.4l-68.4-39.2Z" transform="translate(-79 -223.5)"/><path class="cls-4" d="M97.2,251h.2l31.9,18.9h-.1L109.9,259h-.3l-12.8-7.5-.3.3,34.8,20.7h0L96.4,251.9l-.5.7,13.1,7.8h-.1a.1.1,0,0,1,.1.1L129.3,273h0c-.1,0,0,0,0,.1h.1l13.9,8.4h0l-22.8-13.6h-.2c-.1,0-.1,0-.1.1l-25-14.9-.2.3,33,19.9h-.1l-11.5-6.8H116l-13-7.8h-.3c0,.1,0,.1.1.1h0l19.9,12.1h-.1l-6.9-4.2h-.3L94.1,254.7l-.3.4,166.4,102h-.1a.1.1,0,0,0-.1-.1h-.1c0-.1,0-.1-.1-.1l-50.4-30.8h0c-.1-.1-.1-.1-.1-.2h-.2l-35.2-21.5,16.8,10.3h.5L219,330.9h.4c.1-.1.1-.1.1-.2h-.1a829303603244.9,829303603244.9,0,0,0-.2-.2h0l-50.6-30.8,54,32.6h.4a.1.1,0,0,0,.1-.1h0l18.4,11.1h.5v-.2h-.1a.1.1,0,0,0-.1-.1c0-.1-.1-.1-.1-.2l-52.5-31.7H189l-19.1-11.5h.1l15.5,9.3h.4l8.7,5.2h.3a.1.1,0,0,1,.1-.1h0c.1,0,.1,0,.1-.1h-.3l-6.7-4,84.7,50.5h.5a.1.1,0,0,1,.1-.1v-.2h-.1c0-.1-.1-.1-.1-.2H273l-60.5-36.2h0c.1,0,.1,0,.1-.1h-.1a.1.1,0,0,0-.1-.1h-.1l-23.8-14.2,4.8,2.9h.5l22.5,13.4h.5l9.1,5.3h.5l8.2,4.9h.5v-.2h-.3l-42.9-25.5,73.8,43.5h.6L97.3,250.9Z" transform="translate(-79 -223.5)"/><path class="cls-3" d="M93.4,255.5l-.2.3,37.3,22.8h-.1l-29.4-18h-.3a.1.1,0,0,1-.1.1h-.1a.1.1,0,0,0-.1.1h0l-7.6-4.7-.2.2v.2l31,19.2h0c0,.1,0,.1-.1.1h0L100,261.6h-.3l6.1,3.8h-.1l-13.8-8.6-.5.6-.2.2,5.7,3.6h-.2c.1,0,.1,0,.1.1h0L91,258.5h-.1l-.2.4L106.8,269,90.6,258.9l-.4.5L225,344.9h-.3l-38.2-24.1h.1v-.2c-.1,0-.1,0-.1-.1h0l-22-13.8h.1L200,328.4h.5c-.1-.1-.1-.1-.1-.2h-.2l-28-17.6h.2c0-.1-.1-.1-.1-.2h-.2l-20.2-12.6h0l70.6,44.1h.5c.1-.1.1-.1.1-.2h-.2c0-.1-.1-.1-.1-.2h0l-43.9-27.4h.1a.1.1,0,0,0-.1-.1h-.1l-35.1-21.9h.1l101.3,62.9h.4c.1,0,.1,0,.1-.1h0l-.2-.2a.1.1,0,0,0-.1-.1l-43.5-27.1h0l19.8,12.2h.5V338a.1.1,0,0,0-.1-.1h-.1l-69.2-43h0l6.3,3.8h.4l22.3,13.7a.1.1,0,0,1,.1.1h.1c.1,0,.1,0,.1-.1h.1v-.2h-.2l-10.3-6.3h.1l18.9,11.5h.4l62.7,38.4h.2a.1.1,0,0,0,.1.1h.2c.1,0,.1-.1,0-.1v-.2h-.3l-18-11.1h0v-.2a.1.1,0,0,1-.1-.1h-.2l-51-31.3h.1l75,45.8h.6L93.8,255.1Z" transform="translate(-79 -223.5)"/><path class="cls-4" d="M90.1,259.5l6.2,3.9h0l-6.2-3.9-.5.5,4.3,2.7h-.1l-4.3-2.6h-.1l-.4.5,12.3,7.8h-.1L88.9,261l-.4.5h-.1l1,.6h-.1l2.4,1.5h-.1l9.9,6.4-11.3-7.3h-.3a.1.1,0,0,1-.1.1h0l-2-1.3-.3.4,29.3,18.9h-.5L89,264.1h-.2a.1.1,0,0,1-.1.1h0l-1.6-.9-.3.3,6.9,4.5h.1l9.1,5.9h0L86.6,263.8h-.1l101.3,66.4h-.1a.1.1,0,0,0-.1-.1l-54.1-35.3h0l96,62.2h.6v-.2a.1.1,0,0,0-.1-.1c0-.1-.1-.1-.1-.2L174,320h0l15.3,9.9h.4a.1.1,0,0,0,.1-.1h0c0-.1-.1-.1-.1-.2a.1.1,0,0,1-.1-.1l-4.7-3,51,32.8h.5v-.2h0c-.1-.1-.1-.1-.1-.2h-.2l-85.5-55.2L222,349.1h.5v-.2h-.1l-.2-.2-43.7-28.1h0v-.2h-.2l-30.7-19.7h0v-.2h-.1l-15-9.6h0l66.7,42.5h.5c0-.1.1-.1.1-.2a.1.1,0,0,1-.1-.1h-.1a.1.1,0,0,0-.1-.1l-41.7-26.7h0c0-.1,0-.1-.1-.1l-14-9,110.4,70.1h.5v-.2h0v-.2h-.2l-60.7-38.6h.1v-.2c-.1,0-.1,0-.1-.1h-.1l-11.1-7h.1a.1.1,0,0,1,.1-.1h-.2l-34.3-21.7h.1l76.3,48.2h.3c.1,0,.1,0,.1-.1h.1L90.2,259.4Z" transform="translate(-79 -223.5)"/><path class="cls-3" d="M86,264.6l-.8.9L96.5,273h-.1a.1.1,0,0,0,.1.1h0l22.4,14.9h0l-34-22.3-.4.4-.3.4,22.5,15h0l-22.5-15-.3.4,20.5,13.8h-.1l-9.7-6.4h-.3a.1.1,0,0,0-.1.1h.1l.8.6h0l-11.7-7.8v.2l-.5.6,151.9,103h.2V371a.1.1,0,0,1-.1-.1l-.2-.2-6.9-4.7h0v-.2h-.1c0-.1-.1-.1-.1-.2L117.8,291.7h.1L228.7,366h.5c0-.1.1-.1,0-.2h0c0-.1-.1-.1-.1-.2h-.2l-67.1-45.1h-.1l-.8-.5h0L235,368.7c0,.1.1.1.2.1h.3c.1,0,.1-.1,0-.1v-.2c0-.1-.1-.1-.1-.2h-.2l-37.5-25a.1.1,0,0,0,.1-.1h0c.1,0,.1,0,.1-.1h0c-.1-.1-.1-.1-.1-.2h-.2l-28.7-19.1h.1a.1.1,0,0,0-.1-.1h-.1L132,298.3h.1l4.3,2.8h.4L167,320.9h.4a.1.1,0,0,1,.1-.1h0l18.7,12.3h.5c-.1-.1-.1-.1-.1-.2h-.1l-12.4-8.2h.1L246,371.7h.2a.1.1,0,0,0,.1.1h.1a.1.1,0,0,0,.1-.1h.1c0-.1,0-.1-.1-.2a.1.1,0,0,0-.1-.1c0-.1-.1-.1-.1-.2h0l-12.9-8.5h0v-.2h-.1l-.2-.2-79.4-52.2h.1L231,360.1h.6v-.2h-.1c0-.1,0-.1-.1-.2a.1.1,0,0,1-.1-.1h0L158.7,312h.1l28.6,18.6a.1.1,0,0,0,.1.1h.3L86.5,263.9Z" transform="translate(-79 -223.5)"/><path class="cls-4" d="M82.8,268.4h-.1l16.4,11.1h0a.1.1,0,0,1,.1.1l10.4,7h0l7.3,5h0L82.2,269.1l-.7.9-.4.5,2.5,1.7h-.1a.1.1,0,0,1,.1.1l12.9,8.8h-.1a.1.1,0,0,0,.1.1h0l2.6,1.8h0L80.7,270.9l-.3.4h0l.6.5h-.1l-.6-.5-.5.7,23.9,16.6h0l-24-16.5-.3.3,10.5,7.3h-.1l-10.4-7.2-.4.4,110.2,77.3h0V350H189l-23.1-16.1h-.1c0-.1,0-.1-.1-.1h0l-32-22.3h.1l28.5,19.8h.3c.1,0,.1,0,.1-.1h-.2l-39.8-27.7L168.5,334h.5l11.9,8.2h.4a.1.1,0,0,1,.1-.1h0l36.1,24.8h.4a.1.1,0,0,1,.1-.1v-.2h0c-.1-.1-.1-.1-.1-.2h-.2l-57.5-39.7h.1l4.7,3.2h.1a.1.1,0,0,0,.2,0h.1l11.4,7.8h.5a.1.1,0,0,0-.1-.1c0-.1-.1-.1-.1-.2L164.2,328h.1a.1.1,0,0,1,.1-.1h-.1a.1.1,0,0,0-.1-.1h0l-24.7-16.9,20.2,13.7h.5c0-.1,0-.1-.1-.2H160l-36.1-24.6h.1l11.4,7.7h.4l94.3,64h.4c.1,0,.1,0,.1-.1h0v-.2h-.1l-.2-.2-82.7-56.2h.1l74.5,50.4h.5c0-.1,0-.1.1-.1V364a.1.1,0,0,0-.1-.1v-.2h-.1l-38.3-25.9h0l50.2,33.7h.3L82.8,268.4Z" transform="translate(-79 -223.5)"/><path class="cls-8" d="M149.2,239.8H149l24.4,11.7.2-.4Z" transform="translate(-79 -223.5)"/><path class="cls-8" d="M118.3,225.5l-.5.6L163.4,248h-.1l-45.5-22-.2.2h-.1l21,10.2.5.2.5.2.6.2.5.2.4.3.5.2.5.3.4.3,14,6.8h-.1L143.2,239l.4.3.4.3.3.3.4.3,24.7,12h.1l2.6,1.3,1.2-1.9Z" transform="translate(-79 -223.5)"/><path class="cls-8" d="M136.6,236h.4l.5.2-9.3-4.5H128a.1.1,0,0,1-.1.1h.1l7.7,3.7h.9Z" transform="translate(-79 -223.5)"/><path class="cls-8" d="M174.4,249.3h0l.4.2.2-.2-4.5-2.1L157.6,241h0L120,223.5l-.4.5,19,9h-.1l-19-9-.2.2h0l11.3,5.3h0l34.3,16.4h.1l8.9,4.3.9-1.5Z" transform="translate(-79 -223.5)"/><path class="cls-8" d="M123.5,227h-.4c.1,0,.1,0,.1.1h.1l50.3,24.1.3-.4Z" transform="translate(-79 -223.5)"/><path class="cls-8" d="M131.1,235.5h.4L116.3,228h-.1l-.2.3h.1l14.6,7.2h.4Z" transform="translate(-79 -223.5)"/><polygon class="cls-8" points="66 22.9 66.3 23.9 67.8 24.6 68.5 24.1 66 22.9"/><path class="cls-8" d="M132.1,235.5h.5l-2.7-1.3h-.3a.1.1,0,0,1-.1.1h.2l2,1h.4Z" transform="translate(-79 -223.5)"/><path class="cls-8" d="M171.9,254,160,248.2h-.2l1.6.7h-.1l-14.7-7.1.3.3a.5.5,0,0,0,.2.4l.3.4a.5.5,0,0,0,.2.4l8,4h0l-8-3.9a.8.8,0,0,1,.2.4l.2.3.2.4v.4l-.2-.4-.3-.5-.3-.4-.3-.4-6.3-3h-.3l-6.5-3.2h-2.3l18.9,9.4h-.1l-19-9.4h-1.5l10.5,5.3h-.1l-10.6-5.2h-.6l15.2,7.6.2-.7.3.9,2.4,1.3,1.3-1-.5,1.4h0l-.3.7,1.6.8,2.3-.5-1.3,1,18.1,9.2.4-.6Z" transform="translate(-79 -223.5)"/><path class="cls-8" d="M127.3,236.1h.5l-12.9-6.4-.2.2-.2.3,12.3,6.1h.5Z" transform="translate(-79 -223.5)"/><path class="cls-8" d="M125.9,236.5h.3l-8.5-4.2h-.3l8.3,4.1h.2Z" transform="translate(-79 -223.5)"/><path class="cls-8" d="M128.9,235.7h.9l-14.1-7-.4.5,1.9,1h0l-1.9-.9-.3.3,12.9,6.4h1Z" transform="translate(-79 -223.5)"/><path class="cls-8" d="M146.2,242.5l-.5-.5-.6-.5-7-3.4h-1.5l5.4,2.6h0l-5.6-2.8h-1.2l11.9,5.9a1,1,0,0,0-.4-.5Z" transform="translate(-79 -223.5)"/><path class="cls-8" d="M129.2,238.5h-.7c0,.1-.1.1-.2.1l16,8.1.2-.8Z" transform="translate(-79 -223.5)"/><path class="cls-8" d="M125.3,240.8H125l13.8,7.1-.9-1Z" transform="translate(-79 -223.5)"/><path class="cls-8" d="M125.2,236.9h.2c0-.1.1-.1.2-.1l-7.1-3.5h-.2l.8.4h0l5.7,2.8h.4Z" transform="translate(-79 -223.5)"/><polygon class="cls-8" points="65.1 24 62.5 22.7 64.7 25.2 65.1 24"/><path class="cls-8" d="M139.3,248.8l-14.5-7.5h-.3L127,243h.1l13.3,7h.1Z" transform="translate(-79 -223.5)"/><path class="cls-8" d="M155.4,252.7h-.2l13.1,6.7.3-.5Z" transform="translate(-79 -223.5)"/><path class="cls-8" d="M122.3,238.7h.2L112,233.1l-.2.3-.2.2L122,239l.2-.2Z" transform="translate(-79 -223.5)"/><polygon class="cls-8" points="73.8 28.4 71 27 69.8 27.9 73.8 28.4"/><path class="cls-8" d="M121.8,239.2h.1l-10.4-5.3h0l-.2.2,10.3,5.4h.2Z" transform="translate(-79 -223.5)"/><polygon class="cls-8" points="69.5 26.2 68.7 25.8 68.5 26.4 69.5 26.2"/><path class="cls-8" d="M121.3,239.8h.1l-10.3-5.3-.3.3,10.3,5.3h.2Z" transform="translate(-79 -223.5)"/><path class="cls-8" d="M123.5,237.8h.4l-11-5.6-.3.3v.2l9.9,5h.1l.6.4.2-.2Z" transform="translate(-79 -223.5)"/><path class="cls-8" d="M125.9,240.3h-.5l12.3,6.3h0l2.7,1.4,1.4.7-.2-.9Z" transform="translate(-79 -223.5)"/><path class="cls-8" d="M127.5,239.2l-.2.2H127l-.2.2h-.3l5.3,2.7h0l8.9,4.6h.1l.7.4L141,246Z" transform="translate(-79 -223.5)"/><polygon class="cls-8" points="67.2 25.1 66.5 24.7 66.7 25.5 67.2 25.1"/><polygon class="cls-8" points="66.6 32.4 66.6 32.4 66.6 32.4 66.6 32.4"/><path class="cls-8" d="M120.4,240.9h.1l-10.4-5.3-.2.3,10.4,5.4h.1Z" transform="translate(-79 -223.5)"/><path class="cls-8" d="M120.7,240.6h.1l-4.8-2.5h-.2l4.7,2.5h.2Z" transform="translate(-79 -223.5)"/><path class="cls-8" d="M140.2,253.2l-4.5-.6,2.3-.5-3.9-2.1h-.3l-10.7-5.7v.4h-.1v.2l9.5,5.1h0l-9.5-5h0v.2h0v.2h.2l15.7,8.4,1.6-1.3Z" transform="translate(-79 -223.5)"/><path class="cls-8" d="M119.5,242.9h.1v-.2l-5.9-3.1h-.3a.1.1,0,0,0,.1.1l3.4,1.8h-.1l2.6,1.4c0-.1,0-.1.1-.2Z" transform="translate(-79 -223.5)"/><path class="cls-8" d="M135.8,249.5l3.5.5-15.1-7.9-.2.2c0,.1,0,.2-.1.2v.2c0,.1-.1.1-.1.2l7.9,4.1h-.1a.1.1,0,0,0,.1.1h.1l.7.4h0l7,3.7.6-.2Z" transform="translate(-79 -223.5)"/><path class="cls-8" d="M165.9,263.4l2.4-3.7-15.1-7.6-2.6.6,6.2,3.2h-.1l-6.3-3.2-1.2.3,4.5,2.2-5-.7.7.7,3.2,1.7-3.2-1.7,2.5,2.7-4.5-2.4.2.5,12.9,6.8h-.1l-7.1-3.7H153l-5.3-2.7.2.6,11.2,5.9-11.2-5.9.6,2.2-2.9-3.4h-.1l-1.1,3.5-.9-3.9-1.2,1,1.3.6h-.1l-1.2-.7-1.9,1.6.8-2.2-1.7-.9-2.2.6,1.3-1L124,246.9h-.3l12.3,6.6h0l-13.2-7.1v.7c0,.2.1.4.1.6a1.9,1.9,0,0,0,.2.7,1.4,1.4,0,0,0,.2.6l24.6,13.4h0l-8-4.3h-.3c-.1,0-.1,0-.1.1h-5.6l2.3,1.2h0l16.9,9.3h.1l5.2,2.9h0l-.7-.3h-.1l-26-14.2-1.3-.4-1.3-.4-1.3-.6-1.2-.6a4.1,4.1,0,0,1-1.1-.7l-1-.7-1-.8a3,3,0,0,1-.8-.8L109,245.8h-.2l4.4,2.5h0l38.6,21.5h-.1l-1.3-.7h-.3l-46.9-26.1-.3.5h-.1l13.4,7.5h.1l30,16.9h0a.1.1,0,0,1-.1.1h.1l-19-10.6H127l-24.7-13.8-.5.6,11.7,6.6-11.7-6.6-.3.4,25.4,14.3h0l8.5,4.8L111.6,252h-.3l-10.1-5.8-.3.4,27.4,15.7h0l-1.4-.7h-.2l29.4,17,.9-1.4-.9-.5h.1l.9.5,2.3-3.7,2.3-3.5-2.4-1.3h.1l2.4,1.3.9-1.4Z" transform="translate(-79 -223.5)"/><polygon class="cls-8" points="60.7 31.6 62.2 32.4 62.7 31.1 60.7 31.6"/><path class="cls-8" d="M119.4,243.5h0l-11-5.8-.2.2h-.1l11.2,5.9h.1Z" transform="translate(-79 -223.5)"/><path class="cls-8" d="M119.2,246.1a1.8,1.8,0,0,1,0-1.2l-11.8-6.3-.2.4,4.3,2.3h-.1l-4.3-2.4-.3.3-.6.9,13.1,7.1c0-.2-.1-.4-.1-.6Z" transform="translate(-79 -223.5)"/><path class="cls-8" d="M119.7,248.7v-.6h-.1l-13.7-7.4-.4.5h0l14.6,8a.4.4,0,0,0-.1-.3C119.8,248.9,119.7,248.8,119.7,248.7Z" transform="translate(-79 -223.5)"/><path class="cls-8" d="M120.6,250.5l-.3-.5-.3-.5-14.8-8.1h-.1l-.7.9,16.8,9.3-.3-.5Z" transform="translate(-79 -223.5)"/><path class="cls-8" d="M135.2,258.3l1.8.2h1.9l-15.3-8.3c0,.1.1.3.1.4l.3.4a.8.8,0,0,0,.2.4l.2.4h0l.7.9a3,3,0,0,0,.8.8l.8.9,1,.8,3.7,2,1.9.6Z" transform="translate(-79 -223.5)"/><path class="cls-9" d="M141.5,237.9l-.5-.2-.4-.3-.5-.2-.6-.2-.5-.2-.5-.2,3.9,1.9-.4-.3Z" transform="translate(-79 -223.5)"/><path class="cls-9" d="M144,239.6l-.4-.3-.4-.3-5.7-2.7-.5-.2h-1.3l9,4.4-.4-.3Z" transform="translate(-79 -223.5)"/><path class="cls-9" d="M135.8,237.8h.6l-4.9-2.3h-.8l4.5,2.2h.6Z" transform="translate(-79 -223.5)"/><path class="cls-9" d="M137.3,238h.8l-5.5-2.6h-.9l4.9,2.4h.7Z" transform="translate(-79 -223.5)"/><path class="cls-9" d="M130.9,238h.7l-3.8-1.9h-1l1.6.9h0l1.7.8h.8Z" transform="translate(-79 -223.5)"/><path class="cls-9" d="M129.6,238.4h.3l-3.7-1.9h-.5l3.6,1.9h.3Z" transform="translate(-79 -223.5)"/><path class="cls-9" d="M147.1,243a.5.5,0,0,1-.2-.4l-.3-.3-1.5-.8.6.5.5.5.5.6a1,1,0,0,1,.4.5l.5.2a.5.5,0,0,1-.2-.4Z" transform="translate(-79 -223.5)"/><path class="cls-9" d="M147.8,244.5l.3.5.2.4V245l-.2-.4-.2-.3a.8.8,0,0,0-.2-.4l-.4-.2.3.4Z" transform="translate(-79 -223.5)"/><path class="cls-9" d="M132.9,237.7h1.2l-4.3-2.1h-1.9l3.9,1.9h1.1Z" transform="translate(-79 -223.5)"/><path class="cls-9" d="M125.7,240.5h.2l-3.4-1.8h-.3l-.2.2,3.4,1.7h.3Z" transform="translate(-79 -223.5)"/><path class="cls-9" d="M125.2,240.9h.1l-3.4-1.8h-.3l3.4,1.7h.2Z" transform="translate(-79 -223.5)"/><path class="cls-9" d="M124.7,241.5h.1l-3.4-1.7h-.3l3.4,1.8h.2Z" transform="translate(-79 -223.5)"/><path class="cls-9" d="M127,239.5h.3l.2-.2h-.4l-3.2-1.6h-.6l-.2.2,3.4,1.7h.3Z" transform="translate(-79 -223.5)"/><path class="cls-9" d="M128.7,238.7h.5l-3.6-1.8c-.1,0-.2,0-.2.1h-.6l3.5,1.8c.1,0,.2,0,.2-.1Z" transform="translate(-79 -223.5)"/><path class="cls-9" d="M123.9,242.5c.1,0,.1-.1.1-.2l.2-.2-3.4-1.7h-.3l3.2,1.7-3.2-1.7h-.2l3.4,1.8c0-.1.1-.1.1-.2Z" transform="translate(-79 -223.5)"/><path class="cls-9" d="M123,244.8v-.4l-3.5-1.8v.2h-.1v.2c-.1.1-.1.1-.1.2l3.5,1.8v-.2Z" transform="translate(-79 -223.5)"/><path class="cls-9" d="M122.8,245.5v-.2h0l-3.5-1.9h.1l3.3,1.8v-.2Z" transform="translate(-79 -223.5)"/><path class="cls-9" d="M136.4,258.7h.6l-1.8-.2-1.9-.5-1.9-.6,2.5,1.4h2.5Z" transform="translate(-79 -223.5)"/><path class="cls-9" d="M124,251l-.3-.4c0-.1-.1-.3-.1-.4l-3.9-2.1h-.2v.6c0,.1.1.2.1.3a.4.4,0,0,1,.1.3l4.5,2.5-.2-.4A.8.8,0,0,1,124,251Z" transform="translate(-79 -223.5)"/><path class="cls-9" d="M122.9,248.1c0-.2-.1-.4-.1-.6v-.7l-3.6-1.9a1.8,1.8,0,0,0,0,1.2v.6c0,.2.1.4.1.6l4,2.1a1.4,1.4,0,0,1-.2-.6A1.9,1.9,0,0,1,122.9,248.1Z" transform="translate(-79 -223.5)"/><path class="cls-9" d="M125.9,253.5a3,3,0,0,1-.8-.8l-.7-.9h0l-4.4-2.3.3.5.3.5.3.6.3.5,6.5,3.6-1-.8Z" transform="translate(-79 -223.5)"/><path class="cls-9" d="M124.4,254.8l1,.7a4.1,4.1,0,0,0,1.1.7l1.2.6,1.3.6,1.3.4,1.3.4-9-5a3,3,0,0,0,.8.8Z" transform="translate(-79 -223.5)"/><polygon class="cls-9" points="65.5 22.6 65.3 23.4 66.3 23.9 66 22.9 65.5 22.6"/><polygon class="cls-9" points="68.5 24.1 69.2 24.4 69.7 23.1 68.5 24.1"/><polygon class="cls-9" points="65.5 22.6 66 22.8 65.8 21.9 65.5 22.6"/><polygon class="cls-9" points="70.5 26 71.5 26.5 72.9 25.4 70.5 26"/><polygon class="cls-9" points="68.5 24.1 67.8 24.6 69 25.2 69.2 24.5 68.5 24.1"/><path class="cls-9" d="M153.7,255.2l-4.5-2.2,1.2-.3-8.8-4.5.2.9,3.1,1.6h-.1l-6.9-3.6.9,1,3.5,1.8h-.1l-2.9-1.5,1.2,1.4h-.1l7.5,3.8h0l1.5.8-.7-.7Z" transform="translate(-79 -223.5)"/><polygon class="cls-9" points="58.8 23.5 61.4 24.9 58.7 23.5 58.8 23.5"/><polygon class="cls-9" points="73.8 28.4 69.8 27.9 71 27 69.5 26.2 68.5 26.4 68.7 25.8 67.2 25.1 66.7 25.5 66.5 24.7 65.1 24 64.7 25.2 62.5 22.7 62 22.5 62.6 24.5 71.6 29.2 74.3 28.6 73.8 28.4"/><polygon class="cls-9" points="61.2 29.7 59 28.5 56.7 29 61.2 29.7"/><polygon class="cls-9" points="72.9 34.4 70.4 31.7 60.4 26.5 56.9 25.9 61.1 28.1 60.4 28.2 68.6 32.5 68.5 32 72.9 34.4"/><path class="cls-9" d="M142,253.6h-.3l3.8,2h.1l2.3,1.3-.2-.6Z" transform="translate(-79 -223.5)"/><polygon class="cls-9" points="68.9 33.7 66.7 32.5 69.6 35.9 68.9 33.7"/><polygon class="cls-9" points="65.5 36 66.6 32.5 61.4 29.8 59.7 31.1 60.7 31.6 62.7 31.1 62.2 32.4 63.4 33 64.5 32.1 65.5 36"/><polygon class="cls-9" points="63.3 33.1 62.2 32.5 61.4 34.6 63.3 33.1"/><polygon class="cls-9" points="60.5 31.6 59.6 31.1 58.3 32.1 60.5 31.6"/></g></g></g><image class="cls-10" width="607" height="549" transform="translate(26.2 16.3) scale(0.24)" xlink:href="user_red1.png"/><path class="cls-3" d="M222.7,347.5H145.3a38.3,38.3,0,0,1,9.8-12.5,39.4,39.4,0,0,1,21.2-9.1l13.4-.4a37.2,37.2,0,0,1,21.2,7.1A35.9,35.9,0,0,1,222.7,347.5Z" transform="translate(-79 -223.5)"/><ellipse class="cls-3" cx="105" cy="75.5" rx="17.1" ry="22.6"/><rect class="cls-3" x="100.4" y="95.7" width="9.2" height="9.96"/><ellipse class="cls-3" cx="79" cy="57.1" rx="17.1" ry="22.6"/><path class="cls-3" d="M162.5,307.2l-12.2.4a39.2,39.2,0,0,0-31.1,21.6h31.6a29.1,29.1,0,0,1,4.3-4.3,36.4,36.4,0,0,1,11.1-6.6A27.5,27.5,0,0,1,162.5,307.2Z" transform="translate(-79 -223.5)"/><rect class="cls-3" x="76.1" y="75.5" width="6.8" height="9.96"/></g></g></svg>