<svg xmlns="http://www.w3.org/2000/svg" xmlns:xlink="http://www.w3.org/1999/xlink" viewBox="0 0 223.3 157"><defs><style>.cls-1{fill:none;}.cls-2{isolation:isolate;}.cls-3{fill:#0453a5;}.cls-4{fill:#fff;}.cls-5{opacity:0.29;}.cls-6{clip-path:url(#clip-path);}.cls-7{clip-path:url(#clip-path-2);}.cls-8{fill:#e82327;}.cls-9{fill:#272870;}.cls-10{fill:#fbca0c;}.cls-11{opacity:0.75;mix-blend-mode:multiply;}</style><clipPath id="clip-path" transform="translate(-246.5 -214.3)"><path class="cls-1" d="M414.1,293.5A75.6,75.6,0,0,1,271.2,328h0a75.6,75.6,0,1,1,142.9-34.5Z"/></clipPath><clipPath id="clip-path-2" transform="translate(-246.5 -214.3)"><rect class="cls-1" x="254.6" y="252.1" width="213.7" height="142.49" transform="translate(143.2 -109.8) rotate(21.4)"/></clipPath></defs><title>workerblue</title><g class="cls-2"><g id="Layer_1" data-name="Layer 1"><path class="cls-3" d="M417.2,293.5A77.8,77.8,0,0,1,270.3,329h0a77.8,77.8,0,0,1,69.2-113.2,77.6,77.6,0,0,1,77.7,77.7Z" transform="translate(-246.5 -214.3)"/><path class="cls-4" d="M415.1,293.5A75.6,75.6,0,0,1,272.2,328h0a75.6,75.6,0,1,1,142.9-34.5Z" transform="translate(-246.5 -214.3)"/><g class="cls-5"><g class="cls-6"><g class="cls-7"><path class="cls-8" d="M355.4,246.3h.3L342.5,240v.2Z" transform="translate(-246.5 -214.3)"/><path class="cls-8" d="M414.7,281.3h-.3l-2.1-1.1,28,13.6h.4a.1.1,0,0,1,.1-.1h-.1a.1.1,0,0,0-.1-.1h-.2L347.8,248l56.3,27.2h.4a.1.1,0,0,0-.1-.1h-.1L346.8,247h0l47.3,22.8h.4a.1.1,0,0,0,.1-.1h-.3l-40.7-19.7h.1l91.2,43.8h.5c0-.1,0-.1-.1-.1V293a.1.1,0,0,1-.1-.1L418.2,280H418l-23.2-11.1h0L457,298.1h.2l-46.7-22.4h.1l23,11h.4a.1.1,0,0,0,.1-.1H434a.1.1,0,0,0-.1-.1h-.1l-45-21.5,25.4,12.1h.5l43.2,20.5h.5v-.2h-.3l-52.8-25a.1.1,0,0,0,.1-.1h.1l2.2,1.1h.3c.1,0,.1,0,.1-.1h.1l52.3,24.7h.5c0-.1,0-.1-.1-.2h-.3L342.4,240.3l-1,1.4,1.5.7-1.5-.7-.3.5,1.2.5-1.2-.5-.2.4,2.9,1.4h0l-3-1.4-1.2,1.9,12.7,6.2h0l62.4,30.5Z" transform="translate(-246.5 -214.3)"/><path class="cls-4" d="M469.8,314.8c0-.1-.1-.1-.1-.2h-.3L356,257.7h.2l46,22.8h.1c0,.1,0,.1.1.1h.2a.1.1,0,0,0,.1-.1L466,311.9c0,.1.1.1.2.1h.2a.1.1,0,0,0,.1-.1h0c0-.1,0-.1-.1-.2h-.3l-8.8-4.4h.1c0-.1-.1-.1-.1-.2h-.2L387.7,272h-.2l-27.9-13.8h.1L386.6,271h.4a.1.1,0,0,1,.1-.1h0a.1.1,0,0,1-.1-.1h-.1l-4.3-2.1h0l10.4,5.1h.5c0-.1,0-.1-.1-.1h-.2l70.1,34.3h.5a.1.1,0,0,0,.1-.1h-.1c0-.1-.1-.1-.1-.2h-.2l-69.9-34.3h.1l3.7,1.8h.5c0-.1,0-.1-.1-.1h-.2l-6.2-3.1h.2l44.6,21.6h.4c0-.1,0-.1-.1-.2h-.1l-21.7-10.6h0l-62.4-30.5h.1l-12.9-6.3-3,4.6,76.3,38.6h-.3l-35.7-17.9h.1l85.6,42.9h.2a.1.1,0,0,0,.1.1h.2l-.2-.2a.1.1,0,0,1-.1-.1L347.6,254.2l121.6,60.7h.6Z" transform="translate(-246.5 -214.3)"/><path class="cls-8" d="M336.1,249.9l5.4,2.7h0l-5.4-2.7-.3.4,3.4,1.7h0l-3.4-1.7-2.4,3.7,59.4,31,56.4,29.2h.5c.1,0,0-.1,0-.1h0v-.2c-.1,0-.2,0-.2-.1h0L341.6,257.9h0l39,20.1h.3c.1,0,.1,0,.1-.1h-.1a.1.1,0,0,1-.1-.1l-10.5-5.4L412,293.5h.4a.1.1,0,0,0,.1-.1h0l14.5,7.5h.3a.1.1,0,0,1,.1-.1h0a497582161915.8,497582161915.8,0,0,0-.2-.2l-22.4-11.5h.1l60.7,31.1h.5v-.2h-.2l-.2-.2-76.3-39.1h0a.1.1,0,0,1-.1-.1l-4.7-2.4h.1l6.4,3.3h.4a.1.1,0,0,0,.1-.1h-.3l-17.6-9h0c0-.1,0-.1-.1-.1h-.1l-29.4-15,9.9,5h.3l92,46.7h.4c.1,0,.1,0,.1-.1h0a497582161915.7,497582161915.7,0,0,1-.2-.2h-.1l-68.2-34.6h-.1l-16.9-8.6h0l13.6,6.7h.2L352.5,258h.1l59.7,30h.4a.1.1,0,0,0,.1-.1h0l-76.3-38.6Z" transform="translate(-246.5 -214.3)"/><path class="cls-4" d="M330.2,259l27,14.6h0l94.2,50.2h.5c.1,0,.1,0,.1-.1h0a.1.1,0,0,0-.1-.1c0-.1-.1-.1-.1-.2h-.2l-70.5-37.7h0c0-.1.1-.1,0-.1h0c0-.1,0-.1-.1-.1h-.1l-24.3-13h0c.1,0,.1,0,.1-.1h-.2l-12.3-6.6h0l7.2,3.8h.4L393,290.7h.2l-40.5-21.4h-.1l-14.4-7.7h0l117,61.8h.5c.1,0,.1-.1,0-.1h0l-.2-.2h-.1l-85.9-45.3h0l3.5,1.8h.3a.1.1,0,0,0,.1-.1h0c-.1,0-.1,0-.1-.1h-.1l-13.6-7.2,63.9,33.4h.5v-.2c-.1,0-.1,0-.1-.1h-.2L361,270.7h.1l32.7,17a.1.1,0,0,1,.1.1h.2a.1.1,0,0,0,.1-.1h.1L439,311h.5c-.1-.1-.1-.1-.1-.2h-.2l-61.4-32h-.2l-34.8-18.2,10.9,5.6h.2l-3.1-1.7,42,21.7-59.4-31Z" transform="translate(-246.5 -214.3)"/><path class="cls-8" d="M388.8,298.4,411.6,311h.1c.1,0,.1.1.2,0h0a.1.1,0,0,0-.1-.1l-64.5-35.7,68.9,37.9h0c.1,0,.2,0,.2.1h.3c.1,0,.1,0,.1-.1a.1.1,0,0,1-.1-.1h-.3l-35.7-19.7h-.1a.1.1,0,0,0-.1-.1h0l-52-28.6h0l45.4,24.8h.5l14.1,7.7a.1.1,0,0,1,.1.1h.4c-.1-.1-.1-.1-.1-.2h-.1a.1.1,0,0,1-.1-.1l-1.1-.6h0l42.5,23.2h.3a.1.1,0,0,1,.1-.1h.1a.1.1,0,0,0-.1-.1v-.2h-.1L391,295.7h0v-.2h-.1a.1.1,0,0,1-.1-.1l-29.6-16.1,46.1,25h.5a.1.1,0,0,0,.1-.1.1.1,0,0,1-.1-.1h-.1a.1.1,0,0,0-.1-.1l-.5-.3L458.2,331h.5v-.2a.1.1,0,0,0-.1-.1h-.1c0-.1-.1-.1-.2-.2L329.2,260.6l-2.2,3.5Z" transform="translate(-246.5 -214.3)"/><path class="cls-8" d="M329.3,260.5l36.5,19.7h.5l66.1,35.6h.5a.1.1,0,0,1,.1-.1h0c0-.1-.1-.1-.1-.2h-.3l-97-52.3h0l56.6,30.4h.4c.1,0,.1,0,.1-.1h-.2l-39.8-21.3h.1l4.1,2.1c0,.1,0,.1.1.1h.2l-27-14.6Z" transform="translate(-246.5 -214.3)"/><path class="cls-4" d="M324.6,267.7l14.2,8h.3l68.3,38.5h.3c.1,0,.1,0,.1-.1h.1l48.9,27.6h.4a.1.1,0,0,0,.1-.1h.1c0-.1,0-.1-.1-.2a.1.1,0,0,0-.1-.1H457L350.9,281.3h0l3.3,1.8h.3a.1.1,0,0,0,.1-.1h-.1l-14.3-8h0l1.6.9h.1c0,.1,0,.1.1.1h.2l20.5,11.4h.2L337.1,272h.1l44.5,24.7h.5a.1.1,0,0,0-.1-.1c0-.1,0-.1-.1-.2h-.1L352.7,280l56.8,31.3h.4c0-.1,0-.1-.1-.2h-.1L382,295.5h.2a.1.1,0,0,0-.1-.1H382c0-.1,0-.1-.1-.1l-49.3-27.4,2.6,1.4h.1l53.5,29.4L327,264.1Z" transform="translate(-246.5 -214.3)"/><path class="cls-4" d="M392,308.4h0L438.7,335h.6c0-.1-.1-.1-.1-.2h-.3L334.6,275h.1l5.3,3h.4l2.4,1.3h.2l97.6,55.2h.6V334a.1.1,0,0,0-.1-.1h-.2l-116.3-66-.9,1.4Z" transform="translate(-246.5 -214.3)"/><path class="cls-8" d="M294.2,252.3h-.1l-19.2-10.9h-.3l17.8,10.2h0L267.8,238h0l-.7.7,21,12.1H288l-21-12.1-.2.4,33.6,19.5-33.7-19.4h-.1l-.2.3,8,4.7-8-4.6-.4.3,11.9,7h0l-9.7-5.6H268l23.1,13.5H291l-25.4-14.8-.4.6L295,258.8h0l-12.8-7.5h-.3L265,241.4h0l-.2.2,169,100.2h0v-.2a.1.1,0,0,0-.1-.1h-.1L312.4,269.8h0L333,281.8h.4l25.7,15.1h.3a.1.1,0,0,0,.1-.1h.1v-.2c-.1,0-.1,0-.1-.1a.1.1,0,0,1-.1-.1l-10-5.8h0l32.1,18.8h.5l2.2,1.3h.5c0-.1-.1-.1-.1-.2a.1.1,0,0,1-.1-.1l-16.3-9.5h.1c.1,0,.1,0,.1-.1h-.1a497582161915.9,497582161915.9,0,0,1-.2-.2l-28.4-16.6h.1l16.9,9.9h.4a.1.1,0,0,0,.1-.1H357l-24-13.9,27.6,15.9h.4a.1.1,0,0,1,.1-.1h0a.1.1,0,0,1-.1-.1h-.1l-18.2-10.6,57.8,33.3h.5v-.2a.1.1,0,0,1-.1-.1h-.2l-59.5-34.4h0l-3.5-2h0l28.9,16.5h.4l85.1,48.8h.6c0-.1,0-.1-.1-.2h-.1l-.2-.2h0L320.8,268.5h.1l11.8,6.6a.1.1,0,0,0,.1.1h.2l58.6,33.4a.1.1,0,0,1,.1.1h.2a.1.1,0,0,0,.1-.1l-68.4-39.2Z" transform="translate(-246.5 -214.3)"/><path class="cls-4" d="M264.7,241.8h.2l31.9,18.9h0l-19.4-11.3h0c0-.1,0-.1-.1-.1h-.2l-12.8-7.6-.3.4,34.8,20.7h0L264,242.7l-.6.6,13.1,7.9h0l20.4,12.2h0l13.9,8.3h0L288.1,259h0c-.1,0-.1,0-.1-.1h-.1a.1.1,0,0,0-.1.1h-.1l-25-14.9-.2.4,33,19.9h-.1l-11.5-6.9h-.4l-12.9-7.8h-.4a.1.1,0,0,1,.1.1h0l19.9,12h-.1l-6.9-4.1h-.1c-.1,0-.1,0-.1.1h-.1l-21.2-12.9-.4.5,166.4,102v-.2h0c-.1,0-.1,0-.1-.1h-.2l-50.4-30.8h0v-.2h-.2l-35.3-21.5,16.9,10.2h.4l27.8,16.8h.5a.1.1,0,0,0-.1-.1v-.2h-.1l-50.6-30.7,54,32.6h.4c.1,0,.1,0,.1-.1h0L409,333.9h.1c.1,0,.2.1.2,0h.2l-.2-.2h-.1l-52.5-31.7h-.1l-19.2-11.6h.1l15.5,9.2h.4l8.7,5.1h.5c0-.1,0-.1-.1-.1h-.2l-6.7-4.1,84.7,50.6h.4a.1.1,0,0,0,.1-.1h.1c0-.1-.1-.1-.1-.2h-.3L380,312.9h0c0-.1,0-.1-.1-.2h-.1L356,298.1l4.8,2.9h.3c.1,0,.1,0,.1-.1h.1l22.6,13.4h.1c.1,0,.1.1.2,0h.2l9,5.4h.4c.1,0,.1,0,.1-.1h0l8.2,4.8h.5a.1.1,0,0,0,.1-.1c-.1-.1-.1-.1-.1-.2a.1.1,0,0,1-.1-.1h-.1l-42.9-25.4,73.8,43.4h.5l-169-100.2Z" transform="translate(-246.5 -214.3)"/><path class="cls-8" d="M261,246.3l-.2.2L298,269.4h-.1l-29.4-17.9h-.6l-7.6-4.6h-.1l-.2.3,31.1,19.1H291l-23.5-14.4h-.3l6.1,3.7h-.1l-13.8-8.6-.5.5-.2.3,5.7,3.5h0l-5.9-3.7h0l-.3.3,16.2,10.2-16.2-10.1-.5.5,134.8,85.4h-.3l-38.1-24.1h-.2l-22-13.8h.1l35.5,22.3h.5v-.2h-.2l-28-17.6h.1a.1.1,0,0,0-.1-.1h0a.1.1,0,0,1-.1-.1h0l-20.3-12.7h.1l70.6,44.1a.1.1,0,0,0,.1.1h.3a.1.1,0,0,1,.1-.1h0c0-.1,0-.1-.1-.2a.1.1,0,0,0-.1-.1h-.1L346.5,304h0v-.2h-.1a.1.1,0,0,1-.1-.1l-35-21.8h.1l101.2,62.9c0,.1.1.1.2.1h.2a.1.1,0,0,0,.1-.1h0v-.2H413l-.2-.2-43.5-27.1h0l19.8,12.3h.4a.1.1,0,0,0,.1-.1h-.1l-.2-.2h0l-69.2-42.9h0l6.3,3.9h.4l22.3,13.6a.1.1,0,0,0,.1.1h.4a.1.1,0,0,0-.1-.1h-.2L339,296.1h.1L358,307.6h.5l62.6,38.4h.5c0-.1,0-.1.1-.1v-.2h-.1c0-.1-.1-.1-.1-.2h-.2l-18-11.1h0c0-.1.1-.1,0-.2h0c0-.1-.1-.1-.1-.2H403l-51-31.3h.1l75,45.8h.6l-166.4-102Z" transform="translate(-246.5 -214.3)"/><path class="cls-4" d="M257.7,250.3l6.2,3.9h-.1l-6.2-3.9-.5.6,4.3,2.7h-.1L257,251h0l-.5.5,12.4,7.9h-.2l-12.3-7.8-.4.4v.2l1,.6h0l2.3,1.4h-.1c-.1,0-.1,0,0,.1h.1l9.8,6.3-11.3-7.2h-.1a.1.1,0,0,0-.1-.1.1.1,0,0,1-.1.1h-.1l-2-1.3-.2.3,29.2,18.9h-.5l-27.3-17.6h-.3l-1.6-1-.3.4,7,4.5h0l9.1,6h0l-16.3-10.5h0L355.4,321h-.3L301,285.4h0l96.1,62.3h.5v-.2h0v-.2h-.2l-55.8-36.3h.1l15.2,9.9h.2a.1.1,0,1,0,.2,0c.1,0,.1,0,.1-.1h-.1c0-.1,0-.1-.1-.1l-4.7-3.1,51,32.8c0,.1.1.1.2.1h.2c.1,0,.1,0,.1-.1h0v-.2h-.1l-.2-.2L318.1,294l71.4,45.8h.5v-.2h-.3L346,311.1h-.2l-30.7-19.8h0a.1.1,0,0,1-.1-.1l-15-9.6h.1l66.7,42.5a.1.1,0,0,0,.1.1h.4c0-.1,0-.1-.1-.1V323a.1.1,0,0,0-.1-.1l-41.7-26.7h-.1l-14-8.9,110.4,70h.2s.1.1.1,0h.3c-.1-.1-.1-.1-.1-.2H422l-.2-.2-60.7-38.6h.1a.1.1,0,0,0-.1-.1H361l-11-7h.1v-.2h-.2l-34.3-21.7h.1L392,335.9h.4a.1.1,0,0,0,.1-.1h0L257.7,250.2Z" transform="translate(-246.5 -214.3)"/><path class="cls-8" d="M253.5,255.3l-.8.9,11.4,7.5h-.2a.1.1,0,0,0,.1.1h.1l22.4,14.8h-.1l-34-22.4-.3.4-.4.4,22.6,15h0l-22.6-14.9-.3.4,20.5,13.7h-.1l-9.7-6.5h-.4a.1.1,0,0,0,.1.1h0l.9.5h-.1l-11.7-7.8v.2l-.5.6,152,103h.1v-.2h0c0-.1-.1-.1-.1-.2h-.2l-6.9-4.7h0v-.2h0l-.2-.2a.1.1,0,0,0-.1-.1L285.3,282.4h.1l110.8,74.3h.6c0-.1-.1-.1-.1-.2a.3.3,0,0,1-.1-.2h-.1L329.3,311h0a.1.1,0,0,0,.1-.1h-.1v-.2a.1.1,0,0,1-.1-.1h0l-.8-.5h.1l74,49.5h.6v-.2h-.1c0-.1-.1-.1-.2-.1l-37.5-25.1h.2v-.2h-.2L336.5,314h0c0-.1,0-.1-.1-.2h-.1L299.5,289h.1l4.3,2.9h.3c.1,0,.1,0,.1-.1l30.2,20h.3a.1.1,0,0,0,.1-.1h.1l18.7,12.3h.3a.1.1,0,0,0,.1-.1h.1v-.2h-.1a.1.1,0,0,0-.1-.1l-12.4-8.2h.1l71.8,47.3h.5a.1.1,0,0,0,.1-.1h0v-.2h0l-.2-.2h-.1l-12.9-8.5h0c0-.1-.1-.1-.1-.2h-.2l-79.4-52.2h.2l77.1,50.5h.6v-.2a.1.1,0,0,0-.1-.1h-.1l-72.6-47.5h.1l28.6,18.6h.3c0-.1,0-.1.1-.1h.1L254.1,254.6Z" transform="translate(-246.5 -214.3)"/><path class="cls-4" d="M250.3,259.2h-.1l16.4,11.1h.1l10.4,7h0l7.3,5h0l-34.6-23.3-.8.9-.4.5,2.5,1.7h0a.1.1,0,0,0-.1.1h.1l12.9,8.9h0l2.6,1.8h0l-18.4-12.5-.3.4h0l.6.4h-.1l-.6-.4-.5.6,23.9,16.6h0l-24-16.5-.3.3,10.5,7.3h-.1l-10.4-7.2-.4.5,110.2,77.3h0c0-.1,0-.1-.1-.2a.1.1,0,0,1-.1-.1l-23.1-16.1h0c.1-.1,0-.1,0-.1V324h-.2l-31.9-22.3h0l28.5,19.7h.4v-.2h-.1l-39.9-27.7L336,324.8h.5l11.9,8.2h.4a.1.1,0,0,0,.1-.1h0L385,357.6h.5v-.2h-.1l-.2-.2-57.5-39.7h.1l4.7,3.2a.1.1,0,0,0,.1.1h.4l11.3,7.8h.5v-.2h-.2l-12.9-8.8h.2v-.2h-.2L307,301.3l20.3,13.8h.3c.1,0,.1,0,.1-.1h0a.1.1,0,0,0-.1-.1h-.1l-36.1-24.7h.1l11.5,7.8h.3l94.3,63.9h.4a.1.1,0,0,0,.1-.1v-.2h0c0-.1-.1-.1-.1-.2h-.2l-82.7-56.2h.1l74.5,50.3h.5a.1.1,0,0,0,.1-.1h0v-.2h-.2c0-.1,0-.1-.1-.2h0l-38.3-25.9h0l50.2,33.7h.4l-152-103Z" transform="translate(-246.5 -214.3)"/><path class="cls-9" d="M316.7,230.6h-.2l24.4,11.7.2-.4Z" transform="translate(-246.5 -214.3)"/><path class="cls-9" d="M285.8,216.3l-.4.5,45.5,22h-.1l-45.5-21.9-.2.2h0L306,227.3l.5.2.6.2.5.2.5.3.5.2.4.3.5.2.4.3,14,6.8h-.1l-13.1-6.4.4.3.4.3.4.3.3.3L336.9,243h.1c0,.1,0,.1.1.1l2.5,1.2,1.2-1.9Z" transform="translate(-246.5 -214.3)"/><path class="cls-9" d="M304.1,226.8h.9l-9.3-4.5h-.2l7.7,3.8h.4Z" transform="translate(-246.5 -214.3)"/><path class="cls-9" d="M341.9,240h0l.5.2V240l-4.5-2.1-12.9-6.1h0l-37.6-17.5-.4.4,19,9H306l-19-9-.2.2h0l11.3,5.4h0l34.3,16.3h.1l8.9,4.2,1-1.4Z" transform="translate(-246.5 -214.3)"/><path class="cls-9" d="M291,217.8h-.2a.1.1,0,0,1-.1.1h.1l50.3,24.2.3-.5Z" transform="translate(-246.5 -214.3)"/><path class="cls-9" d="M298.6,226.2h.4l-15.2-7.4h-.1l-.2.2h.1l14.6,7.1h.4Z" transform="translate(-246.5 -214.3)"/><polygon class="cls-9" points="66 22.9 66.3 23.9 67.8 24.6 68.5 24.1 66 22.9"/><path class="cls-9" d="M299.7,226.2h.4l-2.7-1.3h-.2l2,1h.5Z" transform="translate(-246.5 -214.3)"/><path class="cls-9" d="M339.5,244.7,327.6,239h-.3l1.6.8h0L314.1,233l.3.4a.5.5,0,0,1,.2.4l.3.4.2.4,8.1,3.9h0l-8-3.8c0,.1.1.2.1.3l.2.4c.1.1.1.2.2.4v.3c-.1-.1-.1-.3-.2-.4l-.3-.4-.3-.4c0-.2-.1-.3-.3-.4l-6.3-3.1h-.3l-6.5-3.2h-2.2l18.8,9.4h-.1l-18.9-9.4h-1.6l10.5,5.2h0L297.4,229h-.6l15.2,7.7.3-.8.2,1,2.5,1.2,1.2-1-.5,1.4.3.2h0l-.3-.2-.3.8,1.6.8,2.4-.6-1.4,1.1,18.1,9.1.4-.6Z" transform="translate(-246.5 -214.3)"/><path class="cls-9" d="M294.8,226.8h.5l-12.9-6.4v.2l-.3.3,12.3,6.2h.5Z" transform="translate(-246.5 -214.3)"/><path class="cls-9" d="M293.5,227.3a.1.1,0,0,1,.1-.1h.1l-8.5-4.2H285l8.2,4.2h.3Z" transform="translate(-246.5 -214.3)"/><path class="cls-9" d="M296.4,226.5h.9l-14.1-6.9-.4.5,1.9.9h0l-1.9-1-.3.3,13,6.5h.9Z" transform="translate(-246.5 -214.3)"/><path class="cls-9" d="M313.7,233.3a1.2,1.2,0,0,0-.5-.5l-.6-.5-7-3.4h-1.5l5.4,2.7h0l-5.6-2.7h-1.2l12,5.9-.5-.6C314.1,233.6,313.9,233.5,313.7,233.3Z" transform="translate(-246.5 -214.3)"/><path class="cls-9" d="M296.7,229.2h-.9l16,8,.2-.7Z" transform="translate(-246.5 -214.3)"/><path class="cls-9" d="M292.9,231.5h-.2a.1.1,0,0,0-.1.1h-.1l13.8,7.1-.9-1Z" transform="translate(-246.5 -214.3)"/><path class="cls-9" d="M292.7,227.6h.4l-7-3.5h-.3l.8.4h0c-.1,0-.1,0-.1.1h.1l5.7,2.9h.4Z" transform="translate(-246.5 -214.3)"/><polygon class="cls-9" points="65.1 24 62.5 22.7 64.7 25.2 65.1 24"/><path class="cls-9" d="M306.8,239.5l-14.5-7.4H292l2.5,1.3h0a.1.1,0,0,1-.1.1h.2l13.3,6.9h.1Z" transform="translate(-246.5 -214.3)"/><path class="cls-9" d="M322.9,243.4h-.2l13.1,6.6.3-.4Z" transform="translate(-246.5 -214.3)"/><path class="cls-9" d="M289.8,229.5h.2l-10.5-5.4-.2.2-.2.2,10.5,5.4h.2Z" transform="translate(-246.5 -214.3)"/><polygon class="cls-9" points="73.8 28.4 71 27 69.8 27.9 73.8 28.4"/><path class="cls-9" d="M289.3,229.9h.2L279,224.4h0l-.2.3,10.3,5.3h.2Z" transform="translate(-246.5 -214.3)"/><polygon class="cls-9" points="69.5 26.2 68.7 25.8 68.5 26.4 69.5 26.2"/><path class="cls-9" d="M288.8,230.5h.1L278.6,225l-.3.3,10.3,5.4h.2Z" transform="translate(-246.5 -214.3)"/><path class="cls-9" d="M291,228.6l.2-.2h.2l-11-5.5-.2.3h-.1l9.8,5h.1l.6.3h.4Z" transform="translate(-246.5 -214.3)"/><path class="cls-9" d="M293.5,231h-.3a.1.1,0,0,1-.1.1h-.2l12.3,6.4h0l2.7,1.5,1.4.7-.2-1Z" transform="translate(-246.5 -214.3)"/><path class="cls-9" d="M295,230h-.2l-.3.2h-.2l-.2.2,5.2,2.6h0l8.9,4.5h.1l.7.4-.5-2.1Z" transform="translate(-246.5 -214.3)"/><polygon class="cls-9" points="67.2 25.1 66.5 24.7 66.7 25.5 67.2 25.1"/><polygon class="cls-9" points="66.6 32.4 66.6 32.4 66.6 32.4 66.6 32.4"/><path class="cls-9" d="M287.9,231.7h.2l-10.4-5.4-.3.3,10.4,5.5h.1Z" transform="translate(-246.5 -214.3)"/><path class="cls-9" d="M288.2,231.3h.1l-4.8-2.4h-.2l4.8,2.5h.1Z" transform="translate(-246.5 -214.3)"/><path class="cls-9" d="M307.7,243.9l-4.5-.6,2.3-.5-3.8-2a.1.1,0,0,1-.1-.1h-.1c-.1,0-.1,0-.1.1h-.1l-10.7-5.7v.8l9.5,5h0l-9.5-5v.2h-.1v.4h.2l15.7,8.3,1.7-1.3Z" transform="translate(-246.5 -214.3)"/><path class="cls-9" d="M287,233.7v-.4l-5.9-3.1H281c-.1,0-.1,0-.1.1h.1l3.4,1.8h-.1l2.6,1.4v-.2Z" transform="translate(-246.5 -214.3)"/><path class="cls-9" d="M303.3,240.2l3.6.5-15.2-7.8-.2.2v.2h-.1v.2l7.9,4.2h.1l.7.4h-.1a.1.1,0,0,0,.1.1h0l7,3.7h.6Z" transform="translate(-246.5 -214.3)"/><path class="cls-9" d="M333.4,254.1l2.4-3.7-15.1-7.5-2.6.5,6.2,3.2h-.1l-6.2-3.2-1.3.2,4.5,2.3-4.9-.8.6.7,3.3,1.7-3.3-1.7,2.5,2.7-4.5-2.3.2.5,12.9,6.8h-.1l-7.1-3.7h-.3l-5.3-2.7.2.6,11.2,5.9L315.4,248l.7,2.2-2.9-3.4H313l-1.1,3.6-.9-3.9-1.1.9,1.2.7H311l-1.2-.6-1.9,1.5.8-2.1-1.7-.9-2.2.5,1.3-1-14.6-7.7h-.3l12.4,6.6h-.1l-13.2-7.1v.7c0,.2.1.4.1.7s.1.4.2.6a1.9,1.9,0,0,0,.2.7l24.6,13.4h0l-8-4.3a.1.1,0,0,1-.1-.1h-.1c-.1,0-.1,0-.1.1h-.5c-.1,0-.1,0-.1.1h-.1l-1.2.2h-3.8l2.3,1.3h0l16.9,9.3h.1l5.3,2.9h-.1l-.7-.4h0l-26-14.3-1.4-.3-1.3-.5-1.2-.5L294,247l-1.1-.7-1-.8-1-.7-.8-.8-13.5-7.5h-.3l4.4,2.5h0l38.6,21.5h-.1l-1.3-.7h-.2l-47-26-.3.4h-.1l13.4,7.6h.1l30,16.9h0l-19-10.5h-.3l-24.7-13.8-.4.5,11.7,6.6-11.8-6.5-.2.3,25.3,14.4h0l8.5,4.8-23.7-13.4h-.3L268.7,237l-.3.3L295.9,253h-.1l-1.4-.8h-.2l29.4,16.9.9-1.4-.9-.5h.1l.9.5,2.4-3.6,2.2-3.5-2.4-1.4h.1l2.4,1.3.9-1.5Z" transform="translate(-246.5 -214.3)"/><polygon class="cls-9" points="60.7 31.6 62.2 32.4 62.7 31.1 60.7 31.6"/><path class="cls-9" d="M286.9,234.3h0l-11-5.9v.2h-.1l11.1,6h.1Z" transform="translate(-246.5 -214.3)"/><path class="cls-9" d="M286.7,236.8v-1.2l-11.8-6.2-.2.3,4.3,2.4h0l-4.4-2.3-.2.3-.7.8,13.1,7.2a1.5,1.5,0,0,0-.1-.7Z" transform="translate(-246.5 -214.3)"/><path class="cls-9" d="M287.2,239.5a.8.8,0,0,0-.1-.4.4.4,0,0,0-.1-.3h-.1l-13.7-7.4-.4.5h0l14.7,8.1-.2-.3A.4.4,0,0,0,287.2,239.5Z" transform="translate(-246.5 -214.3)"/><path class="cls-9" d="M288.1,241.3l-.3-.5-.3-.6-14.8-8.1h-.1l-.7.8,16.8,9.3-.3-.5Z" transform="translate(-246.5 -214.3)"/><path class="cls-9" d="M302.7,249l1.8.2h1.9L291.1,241l.2.4.2.3a.5.5,0,0,0,.2.4l.2.4h0l.7.9.8.9.8.8,1,.8L299,248l1.8.6Z" transform="translate(-246.5 -214.3)"/><path class="cls-10" d="M309,228.7l-.4-.3-.5-.2-.5-.3-.5-.2-.6-.2-.5-.2,3.9,1.9-.4-.3Z" transform="translate(-246.5 -214.3)"/><path class="cls-10" d="M311.5,230.3l-.4-.3-.4-.3L305,227h-.9l-.5-.2h-.4l9,4.3-.3-.3Z" transform="translate(-246.5 -214.3)"/><path class="cls-10" d="M303.3,228.5h.6l-4.9-2.4h-.8l4.5,2.3h.6Z" transform="translate(-246.5 -214.3)"/><path class="cls-10" d="M304.8,228.7h.8l-5.5-2.7h-.9l4.9,2.4h.7Z" transform="translate(-246.5 -214.3)"/><path class="cls-10" d="M298.4,228.8h.8l-3.9-1.9h-1l1.6.8h0l1.7.9h.8Z" transform="translate(-246.5 -214.3)"/><path class="cls-10" d="M297.1,229.1h.3l-3.7-1.8h-.1a.1.1,0,0,0-.1.1h-.3l3.6,1.8h.3Z" transform="translate(-246.5 -214.3)"/><path class="cls-10" d="M314.6,233.8a.5.5,0,0,0-.2-.4l-.3-.4-1.5-.7.6.5a1.2,1.2,0,0,1,.5.5c.2.2.4.3.5.5l.5.6.4.2-.2-.4Z" transform="translate(-246.5 -214.3)"/><path class="cls-10" d="M315.3,235.3l.3.4c.1.1.1.3.2.4v-.3c-.1-.2-.1-.3-.2-.4l-.2-.4c0-.1-.1-.2-.1-.3l-.5-.2c.2.1.3.2.3.4Z" transform="translate(-246.5 -214.3)"/><path class="cls-10" d="M300.5,228.5h1.1l-4.3-2.1h-1.8l3.9,1.9h1.1Z" transform="translate(-246.5 -214.3)"/><path class="cls-10" d="M293.2,231.2h.3l-3.5-1.7h-.4l3.3,1.7h.2A.1.1,0,0,0,293.2,231.2Z" transform="translate(-246.5 -214.3)"/><path class="cls-10" d="M292.7,231.7h.2l-3.4-1.7h-.4l3.4,1.8h.1A.1.1,0,0,1,292.7,231.7Z" transform="translate(-246.5 -214.3)"/><path class="cls-10" d="M292.2,232.2h.1l-3.4-1.8h-.3l3.4,1.7h.2Z" transform="translate(-246.5 -214.3)"/><path class="cls-10" d="M294.5,230.3l.3-.2h-.2l-3.2-1.6h-.2l-.2.2h-.4l3.5,1.8.2-.2Z" transform="translate(-246.5 -214.3)"/><path class="cls-10" d="M296.3,229.4h.4l-3.6-1.8h-.8l3.5,1.8h.5Z" transform="translate(-246.5 -214.3)"/><path class="cls-10" d="M291.4,233.3v-.2l.2-.2-3.4-1.8h-.2l3.1,1.6-3.1-1.6h-.3l3.4,1.7v-.2Z" transform="translate(-246.5 -214.3)"/><path class="cls-10" d="M290.5,235.5v-.4l-3.5-1.8v.4h0v.2l3.5,1.9v-.4Z" transform="translate(-246.5 -214.3)"/><path class="cls-10" d="M290.3,236.2h.1v-.2l-3.5-1.8h0c0,.1,0,.1.1.1h0l3.3,1.8v-.4Z" transform="translate(-246.5 -214.3)"/><path class="cls-10" d="M303.9,249.4h1.3l1.2-.2h-1.9l-1.8-.2-1.9-.4L299,248l2.4,1.3h2.5Z" transform="translate(-246.5 -214.3)"/><path class="cls-10" d="M291.5,241.7l-.2-.3-.2-.4-3.9-2.1H287a.4.4,0,0,1,.1.3.8.8,0,0,1,.1.4.4.4,0,0,1,.1.3l.2.3,4.4,2.4-.2-.4A.5.5,0,0,1,291.5,241.7Z" transform="translate(-246.5 -214.3)"/><path class="cls-10" d="M290.4,238.9c0-.3-.1-.5-.1-.7v-.7l-3.6-1.9v1.8a1.5,1.5,0,0,1,.1.7l4,2.1a1.9,1.9,0,0,1-.2-.7C290.5,239.3,290.5,239.1,290.4,238.9Z" transform="translate(-246.5 -214.3)"/><path class="cls-10" d="M293.4,244.3l-.8-.9-.7-.9h0l-4.4-2.4.3.6.3.5.3.5.3.5,6.5,3.6-1-.8Z" transform="translate(-246.5 -214.3)"/><path class="cls-10" d="M291.9,245.5l1,.8,1.1.7,1.3.6,1.2.5,1.3.5,1.4.3-9.1-4.9.8.8Z" transform="translate(-246.5 -214.3)"/><polygon class="cls-10" points="65.5 22.6 65.3 23.4 66.3 23.9 66 22.9 65.5 22.6"/><polygon class="cls-10" points="68.5 24.1 69.2 24.4 69.7 23.1 68.5 24.1"/><polygon class="cls-10" points="65.5 22.6 66 22.8 65.8 21.9 65.5 22.6"/><polygon class="cls-10" points="70.5 26 71.5 26.5 72.9 25.4 70.5 26"/><polygon class="cls-10" points="68.5 24.1 67.8 24.6 69 25.2 69.2 24.5 68.5 24.1"/><path class="cls-10" d="M321.2,246l-4.5-2.3,1.3-.2-8.9-4.6.2,1,3.1,1.6h-.1l-6.9-3.5.9,1,3.5,1.8h-.1l-2.9-1.5,1.2,1.4h-.1l7.5,3.9h0l1.5.7-.6-.7Z" transform="translate(-246.5 -214.3)"/><polygon class="cls-10" points="58.8 23.5 61.4 24.9 58.7 23.5 58.8 23.5"/><polygon class="cls-10" points="73.8 28.4 69.8 27.9 71 27 69.5 26.2 68.5 26.4 68.7 25.8 67.2 25.1 66.7 25.5 66.5 24.7 65.1 24 64.7 25.2 62.5 22.7 62 22.5 62.6 24.5 71.6 29.2 74.3 28.6 73.8 28.4"/><polygon class="cls-10" points="61.2 29.7 59 28.5 56.7 29 61.2 29.7"/><polygon class="cls-10" points="72.9 34.4 70.4 31.7 60.4 26.5 56.9 25.9 61.1 28.1 60.4 28.2 68.6 32.5 68.5 32 72.9 34.4"/><path class="cls-10" d="M309.5,244.3h-.3l3.9,2h0l2.3,1.2-.2-.6Z" transform="translate(-246.5 -214.3)"/><polygon class="cls-10" points="68.9 33.7 66.7 32.5 69.6 35.9 68.9 33.7"/><polygon class="cls-10" points="65.5 36 66.6 32.5 61.4 29.8 59.7 31.1 60.7 31.6 62.7 31.1 62.2 32.4 63.4 33 64.5 32.1 65.5 36"/><polygon class="cls-10" points="63.3 33.1 62.2 32.5 61.4 34.6 63.3 33.1"/><polygon class="cls-10" points="60.5 31.6 59.6 31.1 58.3 32.1 60.5 31.6"/></g></g></g><image class="cls-11" width="529" height="530" transform="translate(37.4 20.2) scale(0.24)" xlink:href="workerblue1.png"/><path class="cls-3" d="M333.5,288.5a15.1,15.1,0,0,0,5.3,8.4,12.9,12.9,0,0,0,17.2,0c5-4.6,9.8-9.4,14.4-14.3s4.1-13.2-1.3-18.5-13.2-5.6-18.4-.8c-2.9,2.6-5.5,5.4-8.3,8.1a3.1,3.1,0,0,1-1.9.8,29,29,0,0,0-15.7.4c1.1-1.3,1.7-2.3,2.5-3.2,5-5.1,9.9-10.4,15.3-15.2,7.5-6.8,16.4-8.4,25.7-4.8S383.7,260,385.4,270s-1.2,16.1-7.3,22.3c-4.6,4.6-9.1,9.4-13.9,13.7a25.1,25.1,0,0,1-33.8-.2,29.2,29.2,0,0,1-7.2-9.5,2.2,2.2,0,0,1,.5-2.8C326.4,290.8,329.1,288.4,333.5,288.5Z" transform="translate(-246.5 -214.3)"/><path class="cls-3" d="M347.4,297.7c-1.7-5.6-5-9.6-10.6-11.2a12.1,12.1,0,0,0-12.2,2.8c-4.8,4.5-9.4,9.2-13.9,14s-4.5,13.2.9,18.6,13.3,5.8,18.7.8c2.8-2.5,5.4-5.3,8.1-7.9a2.7,2.7,0,0,1,2-.8,30.7,30.7,0,0,0,15.6-.4c-1,1.3-1.6,2.2-2.3,3-5.1,5.1-10,10.5-15.4,15.3-7.5,6.8-16.4,8.5-25.9,4.8s-15.4-10.7-17-20.8c-1.4-8.5,1.2-15.8,7.2-21.9q6.1-6.5,12.6-12.6c13.3-13.1,34.1-8.9,42.4,8.4a2.2,2.2,0,0,1-.5,2.8C354.4,295.4,351.7,297.8,347.4,297.7Z" transform="translate(-246.5 -214.3)"/></g></g></svg>