<svg xmlns="http://www.w3.org/2000/svg" xmlns:xlink="http://www.w3.org/1999/xlink" viewBox="0 0 223.3 157"><defs><style>.cls-1{fill:none;}.cls-2{isolation:isolate;}.cls-3{fill:#fff;}.cls-4{fill:#0453a5;}.cls-5{opacity:0.12;}.cls-6{clip-path:url(#clip-path);}.cls-7{clip-path:url(#clip-path-2);}.cls-8{fill:#e82327;}.cls-9{fill:#272870;}.cls-10{fill:#fbca0c;}.cls-11{opacity:0.75;mix-blend-mode:multiply;}</style><clipPath id="clip-path" transform="translate(-246.2 -213.6)"><path class="cls-1" d="M413.8,292.8a75.6,75.6,0,0,1-142.9,34.5h0a75.6,75.6,0,1,1,142.9-34.5Z"/></clipPath><clipPath id="clip-path-2" transform="translate(-246.2 -213.6)"><rect class="cls-1" x="254.3" y="251.4" width="213.7" height="142.49" transform="translate(142.9 -109.7) rotate(21.4)"/></clipPath></defs><title>workerwhite</title><g class="cls-2"><g id="Layer_1" data-name="Layer 1"><path class="cls-3" d="M417,292.8a77.7,77.7,0,0,1-146.9,35.5h0a76.9,76.9,0,0,1-8.6-35.5,77.8,77.8,0,0,1,155.5,0Z" transform="translate(-246.2 -213.6)"/><path class="cls-4" d="M414.8,292.8a75.6,75.6,0,0,1-142.9,34.5h0a75.6,75.6,0,1,1,142.9-34.5Z" transform="translate(-246.2 -213.6)"/><g class="cls-5"><g class="cls-6"><g class="cls-7"><path class="cls-8" d="M355.1,245.6h.3l-13.2-6.2v.2Z" transform="translate(-246.2 -213.6)"/><path class="cls-8" d="M414.4,280.7h0a497582161916,497582161916,0,0,0-.2-.2h0l-2.2-1.1,28,13.6h.2a.1.1,0,1,0,.2,0h0a.1.1,0,0,0-.1-.1h-.1l-92.7-45,56.3,27.1h.4a.1.1,0,0,1,.1-.1h-.1a.1.1,0,0,0-.1-.1H404l-57.5-27.8h.1l47.3,22.8h.3a.1.1,0,0,0-.1-.1L353.4,249h.1l91.1,43.8h.2l-26.9-13h.1a.1.1,0,0,1-.1-.1h-.1l-23.3-11.1h.1l62.2,29.7h.5c0-.1-.1-.1-.1-.2a.1.1,0,0,1-.1-.1h-.2l-46.6-22.3h0l23,11h.2a.1.1,0,0,0,.1.1h.2c-.1,0-.1,0-.1-.1h-.2l-44.9-21.4,25.3,12h.4a.1.1,0,0,0,.1-.1h0L457.6,296h.5a.1.1,0,0,1,.1-.1h-.4l-52.7-25.1h.1l2.3,1h.4L460.2,296h.5l-.2-.2a.1.1,0,0,1-.1-.1h0L342.1,239.6l-1,1.4,1.5.7-1.5-.7-.3.5,1.2.6-1.2-.6-.2.4,2.9,1.4h0l-2.9-1.4-1.3,2,12.8,6.2H352l62.4,30.6Z" transform="translate(-246.2 -213.6)"/><path class="cls-3" d="M469.5,314.1c0-.1,0-.1-.1-.2h-.3L355.8,257.1h.1L402,279.9h.4l63.3,31.5h.5l-.2-.2a.1.1,0,0,1-.1-.1l-8.8-4.3h.1a497582161916,497582161916,0,0,0-.2-.2h-.2l-69.4-34.5h-.2l-27.8-13.8h.1l26.9,13.3h.4a497582161915.7,497582161915.7,0,0,1-.2-.2h0l-4.3-2.1h0l10.4,5.1h.3c.1,0,.1,0,.1-.1h0a.1.1,0,0,1-.1-.1l70,34.4h.4a.1.1,0,0,0,.1-.1h0a.1.1,0,0,0-.1-.1h-.2L393.4,272h0l3.8,1.8h0a.1.1,0,0,0,.1.1h.1l-6.2-3h0a.1.1,0,0,1,.1-.1h0l44.6,21.7h.5a.1.1,0,0,1-.1-.1h-.2l-21.7-10.6h0L352,250.2h.1l-12.9-6.2-3,4.6,76.3,38.5h0a497582161916,497582161916,0,0,1-.2-.2h-.1l-35.6-17.9h0l85.6,42.9h.6v-.2a.1.1,0,0,1-.1-.1h-.3L347.3,253.6,469,314.2h0c0,.1.1.1.2.1h.2a.1.1,0,0,0,.1-.1h0Z" transform="translate(-246.2 -213.6)"/><path class="cls-8" d="M335.8,249.2l5.4,2.8h0l-5.4-2.7-.3.4,3.4,1.8h0l-3.4-1.7-2.4,3.7,59.4,30.9,56.4,29.2h.6v-.2h-.4L341.3,257.2h0l39,20.1h.4c0-.1,0-.1-.1-.1s0-.1-.1-.1L370,271.4l41.8,21.5h.4l14.5,7.4h.3c.1,0,.1,0,.1-.1h.1v-.2H427a.1.1,0,0,0-.1-.1l-22.4-11.5h.1l60.7,31.1c0,.1.1.1.2.1h.3v-.2h-.2c0-.1-.1-.1-.2-.1l-76.3-39.2h.2c0-.1-.1-.1-.1-.2H389l-4.7-2.4h.1l6.5,3.3h.4a497582161915.8,497582161915.8,0,0,1-.2-.2l-17.7-9h-.2l-29.4-15,9.9,5.1h.3l92,46.6h.5v-.2h-.3l-68.1-34.6H378l-17-8.6h.1l13.5,6.8h.4a.1.1,0,0,0,.1-.1h-.3l-22.5-11.3h0l59.7,30h.5l-76.3-38.5Z" transform="translate(-246.2 -213.6)"/><path class="cls-3" d="M329.9,258.4l27,14.5h.1l94.2,50.2h.5v-.2h-.3l-70.6-37.7h-.2l-24.3-13h0a.1.1,0,0,0-.1-.1l-12.3-6.6h.1l7.2,3.8h.3L392.7,290a.1.1,0,0,1,.1.1h.2a.1.1,0,0,0,.1-.1h.1v-.2h-.2l-40.4-21.4h-.2L338,260.1h0l116.9,61.7h.5a.1.1,0,0,0,.1-.1h-.1c0-.1-.1-.1-.1-.2h-.2l-85.9-45.3h0l3.5,1.8h.3a.1.1,0,0,0-.1-.1h0L359.3,270l64,33.5h.4a.1.1,0,0,1,.1-.1h-.2c0-.1-.1-.1-.2-.1l-62.6-32.9h0l32.7,17h.4a.1.1,0,0,1,.1-.1h0l44.7,23.3h.6a.1.1,0,0,1-.1-.1h-.3l-61.4-32.1h-.1l-34.9-18.2,10.9,5.7h.3l-3.1-1.6,41.9,21.6-59.4-30.9Z" transform="translate(-246.2 -213.6)"/><path class="cls-8" d="M388.5,297.8l22.8,12.5h.5v-.2h-.1a.1.1,0,0,0-.1-.1h-.1L347,274.2,416,312h.4a.1.1,0,0,1,.1-.1h0v-.2h-.2l-35.8-19.7h.1a.1.1,0,0,0-.1-.1h-.2l-52-28.6h.1l45.3,24.8h.5l14.1,7.7h.4a.1.1,0,0,1,.1-.1h-.3l-1.1-.7h0L429.8,317h.3c.1,0,.1,0,.1-.1h.1v-.2h-.2a.1.1,0,0,0-.1-.1L390.7,295h0a.1.1,0,0,0,.1-.1h-.1c0-.1,0-.1-.1-.1h-.1l-29.6-16.1,46.2,25h.1c.1,0,.1.1.2,0h.1a.1.1,0,0,0,.1-.1h0a.1.1,0,0,0-.1-.1h-.1a.1.1,0,0,0-.1-.1l-.4-.3,51,27.6h.5c.1,0,.1-.1,0-.1V330h-.3L329,259.9l-2.3,3.5Z" transform="translate(-246.2 -213.6)"/><path class="cls-8" d="M329,259.8l36.5,19.7h.4a.1.1,0,0,0,.1-.1h0L432.2,315a.1.1,0,0,0,.1.1h.3a.1.1,0,0,0,.1-.1h0v-.2h-.2l-97-52.2h0L392,292.6h.4c0-.1.1-.1,0-.1v-.2h-.2l-39.8-21.3h.1l4.1,2.2h.3l-27-14.5Z" transform="translate(-246.2 -213.6)"/><path class="cls-3" d="M324.3,267l14.2,8a.1.1,0,0,1,.1.1h.2l68.3,38.4h.6L456.6,341h.5c.1-.1.1-.1,0-.2h0l-.2-.2h-.1L350.6,280.6h.1l3.3,1.8h.2l-14.3-8h0l1.6.8a.1.1,0,0,0,.1.1h.3l20.5,11.5h.4a.1.1,0,0,0,.1-.1.1.1,0,0,1-.1-.1h-.2l-25.7-14.4h.1L381.4,296h.2l-29.2-16.3,56.8,31.4h.2a.1.1,0,0,0,.1.1h.2a.1.1,0,0,0-.1-.1h-.1c0-.1,0-.1-.1-.1l-27.6-15.4h.1a.1.1,0,0,0-.1-.1h-.2l-49.3-27.4,2.6,1.4h.2l53.4,29.4-61.8-34.4Z" transform="translate(-246.2 -213.6)"/><path class="cls-3" d="M391.7,307.8h.1l46.6,26.7h.4a.1.1,0,0,0,.1-.1h0c0-.1,0-.1-.1-.2h-.2L334.4,274.3h0l5.3,3h.5l2.3,1.3h.2l97.7,55.3h.2a.1.1,0,0,0,.1.1h.2v-.2h-.3L324.3,267.2l-.9,1.3Z" transform="translate(-246.2 -213.6)"/><path class="cls-8" d="M293.9,251.6h-.1l-19.2-11h-.3l17.8,10.2h0l-24.5-14h-.1l-.6.8,20.9,12.1h0l-21-12-.3.3,33.6,19.5-33.7-19.4h-.1l-.2.3,8.1,4.6-8.1-4.6-.3.4,11.9,6.9h-.1l-9.7-5.6h-.2l23.1,13.5h-.1L265.4,240l-.5.5,29.9,17.6h-.1l-12.8-7.5h-.3l-16.9-9.9h-.1L433.5,341.2h0c.1,0,.1,0,0-.1h0c-.1-.1-.1-.1-.1-.2h-.2L312.1,269.1h.1l20.5,12h.4l25.8,15.1c0,.1,0,.1.1.1h.3a.1.1,0,0,0-.1-.1h-.1l-10-5.9h.1l32,18.8h.3c.1,0,.1,0,.1-.1h.1l2.3,1.4h.4c0-.1,0-.1-.1-.1h-.1l-16.3-9.5a.1.1,0,0,0,.1-.1h.1v-.2H368c-.1,0-.1,0-.1-.1l-28.4-16.6h0l16.9,9.8h.5a497582161915.9,497582161915.9,0,0,0-.2-.2l-24-13.9,27.6,15.9h.2a.1.1,0,0,0,.1.1h.2a497582161915.8,497582161915.8,0,0,1-.2-.2h0l-18.2-10.5,57.9,33.2h.4a.1.1,0,0,0,.1-.1h-.1v-.2h-.1L341,281.2h-.1l-3.5-2h.1l28.8,16.5h.4L451.9,344h.2a.1.1,0,0,0,.1.1h.2v-.2h-.2c0-.1-.1-.1-.2-.1h0L320.5,267.8h.1l11.8,6.7h.4l58.5,33.3a.1.1,0,0,0,.1.1h.3l-68.3-39.3Z" transform="translate(-246.2 -213.6)"/><path class="cls-3" d="M264.4,241.1h.2l31.9,18.9h0l-19.4-11.3h-.3L264,241.6l-.3.3,34.8,20.7h0L263.7,242l-.6.7,13.1,7.8h-.1a.1.1,0,0,1,.1.1h0L296.6,263h0l14,8.4h-.1l-22.7-13.5h-.4l-24.9-14.9-.3.4,33,19.9h-.1l-11.5-6.9h-.2c-.1,0-.1,0-.1.1h0l-13-7.8a.1.1,0,0,0-.1-.1H270c0,.1,0,.1-.1.1h.1l19.9,12.1h0l-6.9-4.1h-.4l-21.2-12.8-.4.4,166.4,102h-.1c0-.1-.1-.1-.1-.2h-.1l-50.5-30.9h0c0-.1.1-.1,0-.1v-.2h-.2l-35.3-21.5L358,304.2h.4L386.2,321h.2a.1.1,0,0,0,.1.1h.1a.1.1,0,0,0,.1-.1h-.3l-50.6-30.7,54,32.6h.5a.1.1,0,0,1,.1-.1h0l18.3,11.1h.5c0-.1-.1-.1-.1-.2h-.2l-52.5-31.7h0a.1.1,0,0,0-.1-.1h0l-19.1-11.6h.1l15.4,9.2a.1.1,0,0,0,.1.1h.4l8.6,5.2h.4a.1.1,0,0,0,.1-.1h-.1a.1.1,0,0,0-.1-.1l-6.8-4.1L440,349h.6v-.2a.1.1,0,0,0-.1-.1v-.2h-.2l-60.5-36.2h-.2l-23.8-14.2,4.9,2.8h.4l22.6,13.4a.1.1,0,0,1,.1.1h.2a.1.1,0,0,0,.1-.1h.1l9.1,5.4h0a.1.1,0,0,1,.1.1h.4l8.2,4.9h.1c.1,0,.1.1.2,0h.2a.1.1,0,0,0-.1-.1v-.2h-.1l-42.9-25.4L433,341.2h.2a.1.1,0,0,0,.1.1c.1,0,.1,0,.1-.1h.1L264.6,240.9Z" transform="translate(-246.2 -213.6)"/><path class="cls-8" d="M260.7,245.6l-.2.3,37.2,22.8h-.1l-29.4-18h-.6l-7.6-4.7v.2l-.2.2L290.8,266h-.1l-23.5-14.4h-.3l6.1,3.8h0l-13.9-8.6-.4.5-.2.3,5.6,3.6h0l-5.9-3.6h0l-.3.3,16.2,10.2L257.9,249l-.5.5,134.8,85.4H392l-38.2-24.1h0v-.2h-.2l-21.9-13.8h.1l35.4,22.2h.4a.1.1,0,0,0,.1-.1h0v-.2h-.2l-28-17.6h-.1l-20.2-12.7h0l70.6,44.2h.4a.1.1,0,0,0,.1-.1h0v-.2H390l-43.8-27.4h0c0-.1,0-.1-.1-.1s0-.1-.1-.1L311,281h0c.1,0,.1,0,.1-.1h0l101.2,62.9h.6c0-.1-.1-.1-.1-.2h-.3L369,316.2h0l19.8,12.3h.5v-.2H389l-69.2-43h.1l6.2,3.9h.3a.1.1,0,0,1,.1-.1h.1l22.2,13.7h.4a.1.1,0,0,0,.1-.1h0a.1.1,0,0,1-.1-.1h-.1l-10.3-6.4h.1l18.8,11.6h0a.1.1,0,0,1,.1.1h.2a.1.1,0,0,0,.1-.1h.1l62.6,38.4h.6c0-.1,0-.1-.1-.2h-.1c0-.1-.1-.1-.1-.2l-18.1-11h.1c0-.1-.1-.1-.1-.2h-.1a.1.1,0,0,0-.1-.1l-51.1-31.3h.1l75.1,45.8h.3a.1.1,0,0,0,.1-.1h.1L261,245.2Z" transform="translate(-246.2 -213.6)"/><path class="cls-3" d="M257.4,249.6l6.2,3.9h-.1l-6.2-3.8-.4.5,4.2,2.7H261l-4.2-2.7h-.1l-.4.5,12.3,7.9h-.2l-12.3-7.8-.3.5h-.2l1,.6h0l2.3,1.5h0l9.8,6.3-11.3-7.2h-.3l-2-1.3-.3.3,29.3,19h-.2a.1.1,0,0,0-.1-.1h-.2l-27.3-17.5h-.4l-1.5-1-.3.4,6.9,4.5h0l9.2,5.9h-.1l-16.3-10.5h0l101.3,66.4h0c0-.1,0-.1-.1-.1h-.1l-54.2-35.3h.1l96,62.2h.5v-.2h0c0-.1-.1-.1-.1-.2H397L341.2,310h.1l15.3,9.9h.5v-.2h-.2l-4.7-3.1,51,32.9h.5c.1,0,.1,0,.1-.1h-.1c0-.1-.1-.1-.1-.2h-.2l-85.4-55.2,71.3,45.9h.5c.1,0,.1,0,.1-.1h-.1v-.2h-.1l-43.8-28.1h0a.1.1,0,0,1-.1-.1h0l-30.8-19.8h.1a.1.1,0,0,1-.1-.1h-.1l-14.9-9.6h0l66.7,42.6h.4a.1.1,0,0,0,.1-.1h-.1l-.2-.2L325,295.5h.1v-.2H325l-14.1-9,110.4,70.1h.4a.1.1,0,0,0,.1-.1h.1c0-.1,0-.1-.1-.2a.1.1,0,0,0-.1-.1l-.2-.2-60.7-38.6h.1s.1,0,0-.1h0a.1.1,0,0,0-.1-.1c0-.1,0-.1-.1-.1l-11-7h.1c0-.1,0-.1-.1-.2h-.1l-34.2-21.6h.1l76.2,48.1h.6a.1.1,0,0,0-.1-.1h0L257.4,249.5Z" transform="translate(-246.2 -213.6)"/><path class="cls-8" d="M253.2,254.6l-.8,1,11.4,7.4h0l22.4,14.8h-.1l-34-22.3-.3.4-.3.3,22.5,15h0l-22.6-15-.3.4,20.6,13.7h-.2l-9.6-6.5h-.3a.1.1,0,0,0-.1.1h.1l.8.6h-.1l-11.6-7.8-.2.2-.5.6,152,103h.2v-.2h-.1c0-.1-.1-.1-.1-.2h-.2l-6.9-4.7h0v-.2h0c0-.1-.1-.1-.1-.2h-.2L285.1,281.7h0l110.8,74.4h.5a.1.1,0,0,0,.1-.1h0v-.2h-.1c0-.1-.1-.1-.1-.2l-67.2-45h.1a.1.1,0,0,0-.1-.1.1.1,0,0,0-.1-.1h0l-.7-.5h0l74,49.4h.6v-.2a.1.1,0,0,0-.1-.1c0-.1,0-.1-.1-.2h-.1L365,333.1h.1c0-.1,0-.1-.1-.2h-.1l-28.7-19.1h0a.1.1,0,0,0,.1-.1h-.2l-36.9-24.5h.1l4.4,2.9h.3L334.3,311c0,.1,0,.1.1.1h.3l18.7,12.3h.4a.1.1,0,0,0,.1-.1h0v-.2h-.1a.1.1,0,0,0-.1-.1l-12.4-8.2h.1l71.9,47.2h0a.1.1,0,0,0,.1.1h.4c.1,0,.1-.1,0-.1v-.2c0-.1-.1-.1-.1-.2h-.2l-12.9-8.5h0c.1-.1.1-.1.1-.2h-.1c0-.1-.1-.1-.1-.2h-.2l-79.4-52.2h.1c0-.1,0-.1.1-.1h0l77.2,50.5h.5V350h0c-.1-.1-.1-.1-.1-.2h-.2L326,302.1h.1l28.5,18.6c.1,0,.1,0,.1.1h.2a.1.1,0,0,0,.1-.1h.1L253.8,254Z" transform="translate(-246.2 -213.6)"/><path class="cls-3" d="M250,258.5h-.1l16.5,11.1h0a.1.1,0,0,0-.1.1h.1l10.4,7.1h0l7.4,4.9h-.1l-34.6-23.4-.8,1-.4.4,2.5,1.7h0c-.1.1-.1.1,0,.1h.1l12.8,8.8h.1l2.6,1.8h-.1L247.9,261l-.3.4h0l.6.5h0l-.7-.5-.5.6,24,16.6h-.1l-24-16.6-.3.4,10.5,7.2h0l-10.5-7.3-.4.5,110.2,77.3h0c.1-.1.1-.1.1-.2h-.1l-.2-.2-23.1-16.1h0c0-.1-.1-.1-.1-.2h0L301,301h0l28.5,19.8h.4a.1.1,0,0,0-.1-.1h0L290,292.5l45.8,31.6h.4l12,8.2h.5l36,24.9h.6c-.1,0-.1-.1-.1-.2h-.1a.1.1,0,0,0-.1-.1l-57.6-39.7h.1l4.7,3.3h.4a.1.1,0,0,0,.1-.1h0l11.3,7.7h.4a.1.1,0,0,0,.1-.1h0V327h-.1l-12.8-8.8h0a.1.1,0,0,0,.1-.1h0c0-.1,0-.1-.1-.2h-.1l-24.6-16.9L327,314.4h.5c0-.1,0-.1-.1-.2h0a.1.1,0,0,1-.1-.1l-36.2-24.7h.2l11.4,7.8h.4l94.2,63.9h.6c0-.1-.1-.1-.1-.2s-.1-.1-.1-.2h-.2L314.8,304h0c.1,0,.1,0,.1-.1h0l74.6,50.4h.4c.1,0,.1,0,.1-.1h0v-.2h-.3l-38.3-26h.1l50.1,33.7h.4l-152-103Z" transform="translate(-246.2 -213.6)"/><path class="cls-9" d="M316.5,229.9h-.3l24.4,11.7.2-.4Z" transform="translate(-246.2 -213.6)"/><path class="cls-9" d="M285.5,215.6l-.4.5,45.5,22h0L285,216.2v.2h-.1l20.9,10.1.6.2.5.2.5.3.5.2.5.3.5.2.4.3.5.2,13.9,6.8h0l-13.2-6.3.4.3.4.3.4.3.3.3,24.8,12h.1l2.5,1.3,1.3-2Z" transform="translate(-246.2 -213.6)"/><path class="cls-9" d="M303.8,226.1h1l-9.4-4.5h-.2l7.7,3.8h.9Z" transform="translate(-246.2 -213.6)"/><path class="cls-9" d="M341.6,239.4h0l.5.2v-.2l-4.5-2.2-12.9-6.1h0l-37.6-17.6-.4.5,19,9h0l-19.1-9v.2h-.1l11.3,5.4h.1l34.3,16.4h0c0,.1,0,.1.1.1l8.8,4.2,1-1.4Z" transform="translate(-246.2 -213.6)"/><path class="cls-9" d="M290.7,217.1h-.2l50.3,24.1.3-.5Z" transform="translate(-246.2 -213.6)"/><path class="cls-9" d="M298.3,225.5h.5l-15.2-7.4h-.1l-.2.2h0l14.6,7.2h.4Z" transform="translate(-246.2 -213.6)"/><polygon class="cls-9" points="66 22.9 66.3 23.9 67.8 24.6 68.5 24.1 66 22.9"/><path class="cls-9" d="M299.4,225.5h.4l-2.7-1.3h-.2l2,1h.5Z" transform="translate(-246.2 -213.6)"/><path class="cls-9" d="M339.2,244.1l-11.9-5.8h-.2l1.6.8h-.1l-14.8-7.2.3.4.3.4c.1.1.1.3.2.4l.2.4,8.1,4h0l-8-3.9.2.4v.3a.8.8,0,0,1,.2.4c.1.1.1.2.1.4s-.1-.3-.2-.5a.5.5,0,0,1-.2-.4l-.3-.4-.3-.4-6.3-3.1h-.3a.1.1,0,0,1-.1.1h0l-6.5-3.2h-2.2l18.8,9.4h-.1l-18.9-9.4h-1.6l10.6,5.3h-.1l-10.7-5.3h-.6l15.3,7.7.2-.7.2.9,2.5,1.3,1.2-1-.5,1.3.3.2h0l-.3-.2-.2.8,1.5.8,2.4-.6-1.4,1.1,18.1,9.1.4-.5Z" transform="translate(-246.2 -213.6)"/><path class="cls-9" d="M294.5,226.2h.5l-12.8-6.3-.2.2-.3.3,12.3,6.1h.5Z" transform="translate(-246.2 -213.6)"/><path class="cls-9" d="M293.2,226.6h.3l-8.6-4.2h-.2l8.2,4.1h.3Z" transform="translate(-246.2 -213.6)"/><path class="cls-9" d="M296.1,225.8h1l-14.2-7-.3.5,1.9.9h-.1l-1.9-1-.2.4,12.9,6.4h.9Z" transform="translate(-246.2 -213.6)"/><path class="cls-9" d="M313.5,232.6l-.6-.5-.5-.5-7.1-3.4h-1.5l5.5,2.7h-.1l-5.6-2.7h-1.2l12,5.9-.5-.6Z" transform="translate(-246.2 -213.6)"/><path class="cls-9" d="M296.4,228.6h-.8l15.9,8.1.2-.8Z" transform="translate(-246.2 -213.6)"/><path class="cls-9" d="M292.6,230.9h-.3l13.7,7.1-.8-1Z" transform="translate(-246.2 -213.6)"/><path class="cls-9" d="M292.4,226.9h.4l-7-3.5a.1.1,0,0,0-.1-.1h-.2l.9.5h-.1a.1.1,0,0,0,.1.1l5.6,2.8h.4Z" transform="translate(-246.2 -213.6)"/><polygon class="cls-9" points="65.1 24 62.5 22.7 64.7 25.2 65.1 24"/><path class="cls-9" d="M306.5,238.8l-14.4-7.4h-.4l2.5,1.2h0a.1.1,0,0,0,.1.1l13.3,6.9h.2Z" transform="translate(-246.2 -213.6)"/><path class="cls-9" d="M322.7,242.8h-.2c-.1,0-.1,0-.1.1h0l13.1,6.6.3-.4Z" transform="translate(-246.2 -213.6)"/><path class="cls-9" d="M289.5,228.8h.3l-10.6-5.4-.2.3v.2l10.4,5.3h.2Z" transform="translate(-246.2 -213.6)"/><polygon class="cls-9" points="73.8 28.4 71 27 69.8 27.9 73.8 28.4"/><path class="cls-9" d="M289,229.3h.2l-10.4-5.3h-.1l-.2.3,10.4,5.3h.1Z" transform="translate(-246.2 -213.6)"/><polygon class="cls-9" points="69.5 26.2 68.7 25.8 68.5 26.4 69.5 26.2"/><path class="cls-9" d="M288.5,229.8a.1.1,0,0,0,.1-.1h.1l-10.4-5.4-.3.3,10.4,5.4h.1Z" transform="translate(-246.2 -213.6)"/><path class="cls-9" d="M290.7,227.9h.2l.2-.2-10.9-5.5-.3.3h-.1l9.8,5.1h.1l.6.3h.4Z" transform="translate(-246.2 -213.6)"/><path class="cls-9" d="M293.2,230.3h-.3v.2a.1.1,0,0,0-.1.1l12.3,6.3h-.1l2.7,1.5,1.5.7-.3-.9Z" transform="translate(-246.2 -213.6)"/><path class="cls-9" d="M294.8,229.3h-.3l-.2.2H294l-.2.2,5.2,2.7h.1l8.8,4.5h.1l.8.4-.6-2.1Z" transform="translate(-246.2 -213.6)"/><polygon class="cls-9" points="67.2 25.1 66.5 24.7 66.7 25.5 67.2 25.1"/><polygon class="cls-9" points="66.6 32.4 66.6 32.4 66.6 32.4 66.6 32.4"/><path class="cls-9" d="M287.7,231h.1l-10.4-5.4-.3.3,10.5,5.5h.1Z" transform="translate(-246.2 -213.6)"/><path class="cls-9" d="M287.9,230.6h.1l-4.8-2.5H283l4.8,2.5h.1Z" transform="translate(-246.2 -213.6)"/><path class="cls-9" d="M307.4,243.3l-4.5-.7,2.4-.5-3.9-2h-.3l-10.8-5.6h0a.3.3,0,0,0-.1.2v.4l9.5,5h0l-9.5-5v.4h0v.2h.2l15.7,8.4,1.7-1.4Z" transform="translate(-246.2 -213.6)"/><path class="cls-9" d="M286.8,233v-.2h.1l-5.9-3.2h-.3l3.4,1.8h0l2.6,1.3h0Z" transform="translate(-246.2 -213.6)"/><path class="cls-9" d="M303.1,239.5l3.5.6-15.2-7.9c0,.1-.1.1-.1.2v.2l-.2.2v.2l8,4.1h0l.7.4h.1l7,3.6h.6Z" transform="translate(-246.2 -213.6)"/><path class="cls-9" d="M333.1,253.5l2.4-3.7-15-7.6-2.7.6,6.2,3.1h0l-6.3-3.2-1.2.2,4.4,2.3-4.9-.8.6.7,3.3,1.7-3.3-1.6,2.5,2.7-4.4-2.4v.5l12.9,6.8h-.1l-7-3.7h-.4l-5.2-2.7v.7l11.2,5.9-11.1-5.9.6,2.2-2.9-3.4h-.1l-1.1,3.5-1-3.9-1.1.9,1.2.7h-.1l-1.2-.6-1.8,1.5.7-2.1-1.7-.9-2.2.5,1.3-1L291.2,237h-.3c0,.1,0,.1.1.1h0l12.3,6.6h-.1l-13.2-7v.6a2,2,0,0,1,.1.7,6.4,6.4,0,0,1,.2.7c.1.2.1.4.2.6l24.7,13.4h-.1l-8-4.3h-1l-1.2.2h-3.8l2.3,1.3h0a.1.1,0,0,0,.1.1l16.8,9.3h-.1c0,.1,0,.1.1.1h.1l5.3,2.9h0l-.8-.4h0l-26-14.2-1.3-.4-1.3-.4-1.3-.6-1.2-.6-1.2-.7-1-.7-.9-.8-.9-.8-13.5-7.4H276l4.5,2.4h0l38.6,21.5H319l-1.3-.7h-.3l-46.9-26.1-.4.4v.2l13.4,7.5h.1L313.6,259h-.1l-18.9-10.6h-.3l-24.7-13.8-.5.6,11.7,6.6-11.7-6.6-.3.3,25.3,14.4h.1l8.5,4.8L278.9,242h-.3l-10.2-5.7-.3.3,27.5,15.7h-.1l-1.3-.8h-.3l29.5,16.9.9-1.3-.9-.6h.1l.8.5,2.4-3.6,2.3-3.5-2.5-1.3h.1l2.4,1.3.9-1.4Z" transform="translate(-246.2 -213.6)"/><polygon class="cls-9" points="60.7 31.6 62.2 32.4 62.7 31.1 60.7 31.6"/><path class="cls-9" d="M286.6,233.6h.1l-11.1-5.8h-.1v.2l11.2,5.9h0Z" transform="translate(-246.2 -213.6)"/><path class="cls-9" d="M286.4,236.2V235l-11.7-6.3-.3.3,4.4,2.4h-.1l-4.4-2.4-.2.3-.7.8,13.2,7.2a1.3,1.3,0,0,1-.1-.6A1.3,1.3,0,0,1,286.4,236.2Z" transform="translate(-246.2 -213.6)"/><path class="cls-9" d="M287,238.8a2060421367507.1,2060421367507.1,0,0,1-.2-.6h-.2l-13.7-7.4-.4.5h0l14.7,8.1v-.3A.4.4,0,0,1,287,238.8Z" transform="translate(-246.2 -213.6)"/><path class="cls-9" d="M287.8,240.6l-.3-.5a1.4,1.4,0,0,1-.2-.6l-14.9-8h0l-.8.9,16.9,9.2a1,1,0,0,1-.4-.5Z" transform="translate(-246.2 -213.6)"/><path class="cls-9" d="M302.4,248.3l1.9.2h1.8l-15.3-8.2.2.4c.1.1.1.2.2.4s.1.2.2.4l.3.3h0a3.5,3.5,0,0,0,.6.9l.8.9.9.8.9.8,3.8,2.1,1.8.6Z" transform="translate(-246.2 -213.6)"/><path class="cls-10" d="M308.8,228l-.5-.2-.5-.3-.5-.2-.5-.3-.5-.2-.6-.2,4,1.9-.5-.2Z" transform="translate(-246.2 -213.6)"/><path class="cls-10" d="M311.2,229.7l-.4-.3-.4-.3-5.6-2.8h-1.9l9,4.4-.3-.3Z" transform="translate(-246.2 -213.6)"/><path class="cls-10" d="M303,227.8h.6l-4.8-2.4h-.9l4.5,2.2h.6Z" transform="translate(-246.2 -213.6)"/><path class="cls-10" d="M304.6,228h.7l-5.5-2.7h-.9l4.9,2.4h.8Z" transform="translate(-246.2 -213.6)"/><path class="cls-10" d="M298.1,228.1h.8L295,226h-1l1.7.8h-.1a.1.1,0,0,0-.1.1h.2l1.6.8h.8Z" transform="translate(-246.2 -213.6)"/><path class="cls-10" d="M296.8,228.4h.3l-3.6-1.8h-.6l3.6,1.8h.3Z" transform="translate(-246.2 -213.6)"/><path class="cls-10" d="M314.4,233.1l-.3-.4-.3-.4-1.4-.7.5.5.6.5.4.5.5.6.4.2-.2-.4C314.5,233.4,314.5,233.2,314.4,233.1Z" transform="translate(-246.2 -213.6)"/><path class="cls-10" d="M315.1,234.6a.5.5,0,0,0,.2.4c.1.2.2.3.2.5s0-.3-.1-.4a.8.8,0,0,0-.2-.4v-.3l-.2-.4-.4-.2.3.4Z" transform="translate(-246.2 -213.6)"/><path class="cls-10" d="M300.2,227.8h1.1l-4.2-2.1h-1.9l3.9,1.9h1.1Z" transform="translate(-246.2 -213.6)"/><path class="cls-10" d="M292.9,230.5h.3l-3.4-1.7h-.5l3.4,1.8a.1.1,0,0,1,.1-.1Z" transform="translate(-246.2 -213.6)"/><path class="cls-10" d="M292.4,231h.2l-3.4-1.8h-.3l3.4,1.8h.1Z" transform="translate(-246.2 -213.6)"/><path class="cls-10" d="M291.9,231.6h.2l-3.4-1.7h-.1a.1.1,0,0,1-.1.1h-.1l3.3,1.8h.2Z" transform="translate(-246.2 -213.6)"/><path class="cls-10" d="M294.3,229.6l.2-.2h-.1a.1.1,0,0,0-.1.1l-3.2-1.7-.2.2h-.6l3.5,1.8.2-.2Z" transform="translate(-246.2 -213.6)"/><path class="cls-10" d="M296,228.7h.4l-3.6-1.8H292l3.6,1.8h.4Z" transform="translate(-246.2 -213.6)"/><path class="cls-10" d="M291.2,232.6v-.2c0-.1.1-.1.1-.2l-3.4-1.7h-.2l3.1,1.7-3.1-1.7h-.2l3.3,1.8v-.2Z" transform="translate(-246.2 -213.6)"/><path class="cls-10" d="M290.2,234.8a.3.3,0,0,1,.1-.2h0l-3.4-1.8h-.1v.4h0l3.4,1.9v-.4Z" transform="translate(-246.2 -213.6)"/><path class="cls-10" d="M290.1,235.6v-.4l-3.4-1.8h0l3.3,1.8v-.2Z" transform="translate(-246.2 -213.6)"/><path class="cls-10" d="M303.7,248.8h1.2l1.2-.2h-1.8l-1.9-.2-1.9-.4-1.8-.6,2.4,1.3h2.6Z" transform="translate(-246.2 -213.6)"/><path class="cls-10" d="M291.2,241.1c-.1-.2-.1-.3-.2-.4l-.2-.4-3.9-2.1h-.1a4635948076849,4635948076849,0,0,0,.3.9v.3l4.5,2.4-.3-.3C291.3,241.3,291.3,241.2,291.2,241.1Z" transform="translate(-246.2 -213.6)"/><path class="cls-10" d="M290.1,238.2a2,2,0,0,0-.1-.7v-.6l-3.6-1.9v1.2a1.3,1.3,0,0,0,.1.6,1.3,1.3,0,0,0,.1.6l3.9,2.1c-.1-.2-.1-.4-.2-.6A6.4,6.4,0,0,0,290.1,238.2Z" transform="translate(-246.2 -213.6)"/><path class="cls-10" d="M293.1,243.6l-.8-.9a3.5,3.5,0,0,1-.6-.9h-.1l-4.3-2.4a1.4,1.4,0,0,0,.2.6l.3.5.3.5a1,1,0,0,0,.4.5l6.4,3.6-.9-.8Z" transform="translate(-246.2 -213.6)"/><path class="cls-10" d="M291.6,244.9l1,.7,1.2.7,1.2.6,1.3.6,1.3.4,1.3.4-9.1-5,.9.8Z" transform="translate(-246.2 -213.6)"/><polygon class="cls-10" points="65.5 22.6 65.3 23.4 66.3 23.9 66 22.9 65.5 22.6"/><polygon class="cls-10" points="68.5 24.1 69.2 24.4 69.7 23.1 68.5 24.1"/><polygon class="cls-10" points="65.5 22.6 66 22.8 65.8 21.9 65.5 22.6"/><polygon class="cls-10" points="70.5 26 71.5 26.5 72.9 25.4 70.5 26"/><polygon class="cls-10" points="68.5 24.1 67.8 24.6 69 25.2 69.2 24.5 68.5 24.1"/><path class="cls-10" d="M320.9,245.3l-4.4-2.3,1.2-.2-8.9-4.5.3.9,3,1.6H312l-6.8-3.5.8,1,3.5,1.8h-.1l-2.9-1.5,1.3,1.5h-.2l7.5,3.9h0c-.1,0-.1,0-.1.1h.2l1.4.7-.6-.7Z" transform="translate(-246.2 -213.6)"/><polygon class="cls-10" points="58.8 23.5 61.4 24.9 58.7 23.5 58.8 23.5"/><polygon class="cls-10" points="73.8 28.4 69.8 27.9 71 27 69.5 26.2 68.5 26.4 68.7 25.8 67.2 25.1 66.7 25.5 66.5 24.7 65.1 24 64.7 25.2 62.5 22.7 62 22.5 62.6 24.5 71.6 29.2 74.3 28.6 73.8 28.4"/><polygon class="cls-10" points="61.2 29.7 59 28.5 56.7 29 61.2 29.7"/><polygon class="cls-10" points="72.9 34.4 70.4 31.7 60.4 26.5 56.9 25.9 61.1 28.1 60.4 28.2 68.6 32.5 68.5 32 72.9 34.4"/><path class="cls-10" d="M309.2,243.7h-.3a.1.1,0,0,0-.1.1h.2l3.8,2h0l2.3,1.3v-.7Z" transform="translate(-246.2 -213.6)"/><polygon class="cls-10" points="68.9 33.7 66.7 32.5 69.6 35.9 68.9 33.7"/><polygon class="cls-10" points="65.5 36 66.6 32.5 61.4 29.8 59.7 31.1 60.7 31.6 62.7 31.1 62.2 32.4 63.4 33 64.5 32.1 65.5 36"/><polygon class="cls-10" points="63.3 33.1 62.2 32.5 61.4 34.6 63.3 33.1"/><polygon class="cls-10" points="60.5 31.6 59.6 31.1 58.3 32.1 60.5 31.6"/></g></g></g><image class="cls-11" width="529" height="530" transform="translate(39.6 20.9) scale(0.24)" xlink:href="workerwhite1.png"/><path class="cls-3" d="M335.4,288.4a15.5,15.5,0,0,0,5.3,8.5,12.9,12.9,0,0,0,17.2,0q7.5-6.9,14.4-14.4c4.8-5.2,4.1-13.1-1.3-18.5s-13.2-5.5-18.4-.7c-2.9,2.5-5.5,5.4-8.3,8.1-.5.4-1.4.9-1.9.7a29.7,29.7,0,0,0-15.6.5,26.4,26.4,0,0,1,2.4-3.2c5.1-5.1,10-10.4,15.3-15.3,7.5-6.7,16.4-8.3,25.8-4.7s15.3,10.6,17,20.6-1.2,16.1-7.3,22.3c-4.5,4.6-9,9.3-13.9,13.7a25.1,25.1,0,0,1-33.8-.2,29.2,29.2,0,0,1-7.2-9.5,2.2,2.2,0,0,1,.5-2.8C328.3,290.8,331,288.4,335.4,288.4Z" transform="translate(-246.2 -213.6)"/><path class="cls-3" d="M349.4,297.6c-1.8-5.5-5.1-9.5-10.7-11.1a11.9,11.9,0,0,0-12.1,2.8c-4.9,4.5-9.5,9.2-14,14s-4.5,13.2.9,18.6,13.4,5.8,18.7.8c2.8-2.5,5.4-5.3,8.1-7.9a2.4,2.4,0,0,1,2-.8,29.7,29.7,0,0,0,15.6-.5c-1,1.4-1.6,2.3-2.3,3.1-5.1,5.1-10,10.4-15.3,15.3-7.6,6.8-16.5,8.5-25.9,4.8s-15.5-10.7-17.1-20.8c-1.4-8.5,1.3-15.8,7.2-22,4.1-4.2,8.3-8.4,12.6-12.5,13.3-13.1,34.1-8.9,42.4,8.4a2,2,0,0,1-.5,2.8C356.4,295.3,353.6,297.8,349.4,297.6Z" transform="translate(-246.2 -213.6)"/></g></g></svg>