<svg xmlns="http://www.w3.org/2000/svg" xmlns:xlink="http://www.w3.org/1999/xlink" viewBox="0 0 223.3 157"><defs><style>.cls-1{fill:none;}.cls-2{isolation:isolate;}.cls-3{fill:#e82327;}.cls-4{fill:#fff;}.cls-5{opacity:0.29;}.cls-6{clip-path:url(#clip-path);}.cls-7{clip-path:url(#clip-path-2);}.cls-8{fill:#272870;}.cls-9{fill:#fbca0c;}.cls-10{opacity:0.75;mix-blend-mode:multiply;}</style><clipPath id="clip-path" transform="translate(-246.7 -214.2)"><path class="cls-1" d="M414.3,293.4a75.6,75.6,0,0,1-142.9,34.5h0a75.6,75.6,0,1,1,142.9-34.5Z"/></clipPath><clipPath id="clip-path-2" transform="translate(-246.7 -214.2)"><rect class="cls-1" x="254.8" y="252" width="213.7" height="142.49" transform="translate(143.2 -109.8) rotate(21.4)"/></clipPath></defs><title>workerred</title><g class="cls-2"><g id="Layer_1" data-name="Layer 1"><path class="cls-3" d="M417.4,293.4a77.7,77.7,0,0,1-146.9,35.5h0a76.9,76.9,0,0,1-8.5-35.5,77.7,77.7,0,0,1,77.7-77.7,77.8,77.8,0,0,1,77.7,77.7Z" transform="translate(-246.7 -214.2)"/><path class="cls-4" d="M415.3,293.4a75.6,75.6,0,0,1-142.9,34.5h0a75.6,75.6,0,1,1,142.9-34.5Z" transform="translate(-246.7 -214.2)"/><g class="cls-5"><g class="cls-6"><g class="cls-7"><path class="cls-3" d="M355.6,246.2h.3L342.7,240l-.2.2Z" transform="translate(-246.7 -214.2)"/><path class="cls-3" d="M414.9,281.3c0-.1,0-.1-.1-.1h-.1c0-.1,0-.1-.1-.1h0l-2.1-1.1,27.9,13.6h.5c.1,0,.1,0,0-.1h-.3l-92.7-45,56.4,27.1h.3a.1.1,0,0,1-.1-.1L347,246.9h0l47.3,22.8h.5a.1.1,0,0,1-.1-.1h-.2l-40.7-19.7h.1l91.2,43.8h.4c0-.1,0-.1-.1-.1a.1.1,0,0,0-.1-.1l-26.9-13h-.2L395,268.3h0L457.2,298h.5v-.2h-.3l-46.7-22.3h0l23.1,11h.4a.1.1,0,0,0,.1-.1h0a.1.1,0,0,1-.1-.1H434l-45-21.4,25.4,12h.4l43.3,20.5h0c0,.1.1.1.2.1h.2a.1.1,0,0,0,.1-.1h-.1c0-.1,0-.1-.1-.2h-.2l-52.7-25h.2l2.2,1h.4a.1.1,0,0,1,.1-.1l52.3,24.7h.5a.1.1,0,0,0-.1-.1c0-.1-.1-.1-.1-.2h-.2L342.5,240.2l-.9,1.4,1.5.7-1.5-.7-.3.5,1.2.6-1.2-.6-.3.4,3,1.4h0l-3-1.4-1.2,1.9,12.7,6.2h0l62.4,30.6Z" transform="translate(-246.7 -214.2)"/><path class="cls-4" d="M470,314.7c-.1-.1-.1-.1-.1-.2a.1.1,0,0,1-.1-.1h-.2L356.2,257.7h.1l46.1,22.9h.5l63.2,31.5h.5c0-.1-.1-.1-.1-.2h-.2l-8.8-4.4h-.2l-69.4-34.5h0a.1.1,0,0,0-.1-.1h-.2l-27.8-13.8h.1l26.9,13.2h.4a.1.1,0,0,1,.1-.1h0a.1.1,0,0,0-.1-.1H387l-4.3-2.1h.1l10.4,5.1h.4c0-.1.1-.1,0-.1h0c0-.1,0-.1-.1-.1h-.1l70.1,34.4h.4c0-.1,0-.1.1-.1h0c.1,0,.1,0,0-.1h-.2c0-.1-.1-.1-.1-.2l-69.9-34.3h.1l3.7,1.8h.4c0-.1,0-.1-.1-.1s0-.1-.1-.1l-6.2-3h.2l44.6,21.6h0a.1.1,0,0,0,.1.1h.2a.1.1,0,0,0-.1-.1l-21.7-10.6h0l-62.4-30.6h.1l-13-6.2-2.9,4.6L413,287.8h-.2a.1.1,0,0,1-.1-.1L377,269.5h0l85.7,42.9h.3c.1,0,.1,0,.1-.1h0c0-.1,0-.1-.1-.1s-.1-.1-.2-.1L347.7,254.1l121.7,60.7h.6Z" transform="translate(-246.7 -214.2)"/><path class="cls-3" d="M336.3,249.8l5.4,2.8h-.1l-5.3-2.7-.3.4,3.4,1.8h0l-3.4-1.8-2.4,3.8L392.9,285l56.5,29.2h.2a.1.1,0,0,0,.1.1h0a.1.1,0,0,0-.1-.1h0L341.8,257.8h0l39,20.1h.4a.1.1,0,0,1-.1-.1H381L370.5,272l41.7,21.5h.4a.1.1,0,0,0,.1-.1h0l14.5,7.4h.5v-.2a.1.1,0,0,1-.1-.1h-.3l-22.4-11.5h.2l60.6,31.1h.6c0-.1-.1-.1-.1-.2h-.3l-76.3-39.2h.1a.1.1,0,0,1-.1-.1h-.1l-4.7-2.4h.1l6.4,3.3h.2c0,.1,0,.1.1.1h.2c0-.1,0-.1-.1-.2h-.2l-17.7-9.1h-.1l-29.4-15,9.9,5h.3l92,46.6a.1.1,0,0,1,.1.1h.2a.1.1,0,0,0,.1-.1h.1V307a.1.1,0,0,1-.1-.1h-.3l-68.1-34.6h.1c.1,0,.1,0,.1-.1h-.3l-17-8.6h.1l13.6,6.7a.1.1,0,0,0,.1.1h.1l-22.6-11.4h0l59.8,30h.3a.1.1,0,0,1,.1-.1h.1l-76.3-38.5Z" transform="translate(-246.7 -214.2)"/><path class="cls-4" d="M330.4,259l27,14.5h0l94.2,50.2h.4a.1.1,0,0,0,.1-.1h.1v-.2H452l-.2-.2h0l-70.5-37.6h-.1a.1.1,0,0,0-.1-.1l-24.4-13h.1s.1,0,0-.1h-.2L344.4,265h0l7.2,3.8h.4l41.1,21.8h.5v-.2a.1.1,0,0,1-.1-.1h-.1l-40.5-21.4h-.1l-14.4-7.6h0l117,61.7h.2a.1.1,0,0,0,.1.1h.1c0-.1,0-.1-.1-.2h-.2l-85.8-45.3h0l3.4,1.8h.2a.1.1,0,0,0,.1.1h.2c0-.1,0-.1-.1-.1h-.2l-13.5-7.2L423.7,304h.4a.1.1,0,0,0,.1-.1h0l-.2-.2h-.1l-62.7-32.8h.1l32.7,17h.4l44.8,23.3h.2a.1.1,0,0,0,.2,0h0c0-.1,0-.1-.1-.1a.1.1,0,0,0-.1-.1L378,278.3h0c0-.1,0-.1-.1-.1s0-.1-.1-.1h0L343,259.7l10.9,5.7h.2l-3.1-1.6L392.9,285l-59.3-30.9Z" transform="translate(-246.7 -214.2)"/><path class="cls-3" d="M389,298.4l22.7,12.5h.2a.1.1,0,0,0,.1.1h-.1l-64.5-35.6,69,37.8h.5v-.2h0a.1.1,0,0,1-.1-.1h-.2l-35.8-19.7h-.1l-52.1-28.6h.1l45.4,24.8h.3c.1,0,.1,0,.1-.1h0l14.2,7.7h.4c0-.1-.1-.1-.1-.2h-.1l-1.1-.6h0l42.4,23.1h.5a.1.1,0,0,0,.1-.1h-.1a.1.1,0,0,0-.1-.1l-.2-.2-39.2-21.4h0c-.1-.1-.1-.1-.1-.2h-.2l-29.5-16.1,46.1,25h.5a.1.1,0,0,0-.1-.1h-.2l-.4-.3,51,27.6h.5a.1.1,0,0,0,.1-.1h0c0-.1,0-.1-.1-.2h-.1l-.2-.2L329.4,260.5l-2.3,3.5Z" transform="translate(-246.7 -214.2)"/><path class="cls-3" d="M329.5,260.4,366,280.1h.4l66.2,35.6h.5a.1.1,0,0,0,.1-.1v-.2h-.3l-97-52.2h0l56.6,30.3h.5V293h-.3l-39.7-21.3h0l4.1,2.2h.4l-27-14.5Z" transform="translate(-246.7 -214.2)"/><path class="cls-4" d="M324.8,267.6l14.2,8h.3l68.3,38.4h.5L457,341.6h.5c.1,0,.1,0,.1-.1h-.1c0-.1-.1-.1-.1-.2h-.2L351,281.2h.1l3.3,1.8h.5a.1.1,0,0,0-.1-.1h0a.1.1,0,0,1-.1-.1h0l-14.3-8h0l1.6.8h.3l20.5,11.5h.3l-25.8-14.4h.1l44.5,24.7h.3a.1.1,0,0,0-.1-.1l-29.2-16.3,56.7,31.4h.5c.1,0,.1,0,0-.1h0a.1.1,0,0,0-.1-.1h-.1l-27.7-15.4h.1a497582161915.9,497582161915.9,0,0,1-.2-.2l-49.3-27.4,2.6,1.4h.1L389,298.4,327.1,264Z" transform="translate(-246.7 -214.2)"/><path class="cls-4" d="M392.2,308.4h0L438.9,335h.2a.1.1,0,0,0,.1.1h.2c.1,0,.1-.1,0-.1v-.2a.1.1,0,0,1-.1-.1h-.2L334.8,274.9h.1l5.3,3h.3c.1,0,.1,0,.1-.1h0l2.3,1.4h.3l97.6,55.2h.5a.1.1,0,0,0,.1-.1h0c0-.1-.1-.1-.1-.2H441l-116.3-66-.9,1.4Z" transform="translate(-246.7 -214.2)"/><path class="cls-3" d="M294.3,252.2h0l-19.3-11h-.2l17.8,10.2h0L268,237.9h0l-.7.7,21,12.1h-.1l-21-12-.3.3,33.7,19.5-33.8-19.4h0l-.2.3,8,4.6-8.1-4.6-.3.4,11.9,6.9h0l-9.7-5.6h-.3l23.2,13.5h-.1l-25.4-14.9-.5.6,29.9,17.6h0l-12.8-7.4h-.3l-16.9-9.9H265L434,341.7h0c0-.1,0-.1-.1-.2h-.1c0-.1-.1-.1-.2-.1l-121-71.5h0l20.6,12h0c0,.1,0,.1.1.1h.2l25.8,15.1h.2l-10-5.9h.1l32.1,18.8h.5l2.2,1.4h.5a.1.1,0,0,0-.1-.1h-.1l-16.3-9.6h.1a.1.1,0,0,0-.1-.1h-.1l-28.4-16.6h.1l16.9,9.8h.5c-.1,0-.1,0-.1-.1h-.1a.1.1,0,0,0-.1-.1l-23.9-13.9,27.6,15.9h.5a.1.1,0,0,1-.1-.1H361l-18.2-10.5,57.9,33.2h.4a.1.1,0,0,0,.1-.1h0v-.2h-.2l-59.5-34.4h.2c-.1,0-.1,0-.1-.1h-.1l-3.6-2h.1l28.9,16.5h0a.1.1,0,0,0,.1.1h.2a.1.1,0,0,1,.1-.1l85.1,48.8h.5a.1.1,0,0,0,.1-.1h0c0-.1-.1-.1-.1-.2h-.1l-.2-.2h0L321,268.4h.1l11.8,6.7h.3l58.6,33.3h.4l-68.4-39.3Z" transform="translate(-246.7 -214.2)"/><path class="cls-4" d="M264.9,241.7h.2L297,261h-.1l-19.3-11.3h-.3l-12.8-7.6-.3.4L299,263.2h0l-34.9-20.6-.5.6,13.1,7.9h0L297,263.6h0a.1.1,0,0,0,.1.1l13.9,8.4h0l-22.8-13.5h-.3l-25-14.9-.2.4,33,19.9h-.1l-11.5-6.9h-.4l-13-7.8h-.2l19.9,12.1h-.1l-6.9-4.1h-.3l-21.3-12.9-.3.5,166.4,102a.1.1,0,0,0-.1-.1v-.2h-.2L377,316.5h.1v-.2h-.3l-35.3-21.5,16.9,10.2h.5l27.7,16.9h.5c.1,0,.1,0,.1-.1h-.1c0-.1,0-.1-.1-.1s-.1-.1-.1-.2h0l-50.6-30.7,54,32.6h.3a.1.1,0,0,0,.1-.1h.1l18.4,11.1h.4a.1.1,0,0,0,.1-.1h0a.1.1,0,0,0-.1-.1c0-.1,0-.1-.1-.2h-.1l-52.5-31.7h.1a.1.1,0,0,0-.1-.1h-.2l-19.1-11.6h.1l15.5,9.2a.1.1,0,0,0,.1.1h.3l8.7,5.1a.1.1,0,0,0,.1.1h.3a.1.1,0,0,0,.1-.1h-.1c0-.1,0-.1-.1-.1h-.1l-6.7-4.1,84.7,50.6h.6v-.2H441a.3.3,0,0,0-.1-.2h-.2l-60.5-36.2h0c0-.1,0-.1-.1-.1s-.1-.1-.1-.2h0L356.2,298l4.8,2.9h.4a.1.1,0,0,1,.1-.1h0L384,314.3h.5l9.1,5.4h.2a.1.1,0,1,0,.2,0c.1,0,.1,0,.1-.1h0l8.2,4.9h.5c0-.1-.1-.1-.1-.2h-.2l-42.9-25.4,73.8,43.5h.5a.1.1,0,0,0,.1-.1L265,241.5Z" transform="translate(-246.7 -214.2)"/><path class="cls-3" d="M261.1,246.2l-.2.2,37.3,22.9h-.1l-29.4-18h-.6l-7.6-4.6-.2.2v.2l31,19.2h-.1l-23.4-14.3h-.3a.1.1,0,0,1-.1.1h.1l6.1,3.8h-.1l-13.8-8.6-.5.5-.2.3,5.7,3.5h-.1l-5.8-3.6h-.1l-.2.3,16.1,10.2-16.2-10.1-.4.5,134.8,85.4h-.3l-38.2-24.1h.1V311h-.1a.1.1,0,0,1-.1-.1h0l-22-13.8h.1L367.7,319h.4a.1.1,0,0,1,.1-.1h0v-.2h-.3l-28-17.6h-.1l-20.2-12.7h0l70.6,44.2h.5a.1.1,0,0,0,.1-.1h-.1c0-.1,0-.1-.1-.2h-.1l-43.9-27.4h.1c0-.1,0-.1-.1-.1v-.2c-.1,0-.1,0-.1-.1l-35.1-21.8h.1l101.3,62.9a.1.1,0,0,0,.1.1h.3a.1.1,0,0,0,.1-.1h0v-.2h-.2c0-.1-.1-.1-.1-.2l-43.5-27h0L389.3,329a.1.1,0,0,1,.1.1h.4v-.2a.1.1,0,0,0-.1-.1h-.1a.1.1,0,0,0-.1-.1h0l-69.2-43h0l6.3,3.9h.3a.1.1,0,0,0,.1-.1h0l22.3,13.7h.4a497582161916.1,497582161916.1,0,0,0-.2-.2L339.2,296h.1l18.9,11.6h0a.1.1,0,0,1,.1.1h.1c.1,0,.1,0,.1-.1h.1l62.7,38.4h.5c.1-.1.1-.1,0-.1v-.2a.1.1,0,0,0-.1-.1l-.2-.2-18-11.1h0v-.2h0a.1.1,0,0,1-.1-.1l-.2-.2-51-31.3h.1l75,45.8h.4c0-.1,0-.1.1-.1h.1l-166.4-102Z" transform="translate(-246.7 -214.2)"/><path class="cls-4" d="M257.8,250.2l6.2,3.9h0l-6.2-3.9-.5.6,4.3,2.7h-.1l-4.3-2.7h-.1l-.4.5,12.3,7.9h-.1l-12.3-7.8-.4.5h-.1l1,.6H257l2.4,1.5h-.1l9.8,6.3-11.2-7.2h-.4l-2-1.3-.3.3,29.3,18.9H284l-27.3-17.6h-.4l-1.5-1-.3.4,6.9,4.5h.1l9.1,6h0l-16.3-10.5h-.1L355.5,321h0a.1.1,0,0,0-.1-.1h-.1l-54.1-35.3h0l96,62.2h.5a.1.1,0,0,1,.1-.1v-.2a.1.1,0,0,0-.1-.1V347h-.1l-55.8-36.3h0l15.3,9.9h.3c.1,0,.1,0,.1-.1h.1v-.2h-.2l-4.8-3.1,51.1,32.9h.5v-.2h-.3l-85.5-55.2,71.4,45.9h.4c.1,0,.1,0,.1-.1h0v-.2h-.2l-43.7-28.1h0a.1.1,0,0,0-.1-.1H346l-30.7-19.8h0a.1.1,0,0,0-.1-.1h0l-15-9.6h0l66.7,42.6h.5s.1-.1,0-.1h0c0-.1,0-.1-.1-.2h-.1l-41.7-26.7h.1v-.2a.1.1,0,0,1-.1-.1h-.1l-14-8.9,110.4,70.1h.5v-.2h-.1l-.2-.2-60.7-38.6h0a.1.1,0,0,0-.1-.1l-11.1-7h.2c0-.1,0-.1-.1-.1v-.2c-.1,0-.1,0-.1-.1l-34.3-21.6h.1l76.3,48.1h.5L257.9,250.1Z" transform="translate(-246.7 -214.2)"/><path class="cls-3" d="M253.7,255.2l-.8,1,11.3,7.4h0c-.1,0-.1,0-.1.1h.1l22.4,14.8h0l-34-22.4-.4.5-.3.3,22.5,15h0l-22.5-14.9-.3.4,20.5,13.7H272l-9.7-6.5H262c-.1,0-.1,0-.1.1h.1l.8.5h0l-11.7-7.8v.2l-.5.6,151.9,103h.1a.1.1,0,0,0,.1-.1h0v-.2h0c-.1-.1-.1-.1-.1-.2h-.2l-6.9-4.7h0v-.2a.1.1,0,0,0-.1-.1v-.2h-.1L285.5,282.3h.1l110.8,74.3h.5s.1-.1,0-.1v-.2h-.1l-.2-.2-67.1-45h-.2l-.7-.5h0l74.1,49.4h.5c.1-.1.1-.1,0-.2h0c0-.1-.1-.1-.1-.2h-.2l-37.5-25.1h.2v-.2c-.1,0-.1,0-.1-.1h-.2L336.6,314h0c0-.1,0-.1-.1-.1h0l-36.8-24.6h.1l4.3,2.9h.4l30.2,19.9h.5l18.7,12.3h.5v-.2a.1.1,0,0,1-.1-.1h-.1l-12.4-8.2h.1l71.8,47.2h.6v-.2a.1.1,0,0,0-.1-.1c0-.1,0-.1-.1-.2H414l-12.9-8.5h0V353h0l-.2-.2h-.1l-79.4-52.2h.1l77.2,50.5h.5c0-.1,0-.1-.1-.2H399l-72.6-47.5h.1l28.6,18.6h.4L254.2,254.5Z" transform="translate(-246.7 -214.2)"/><path class="cls-4" d="M250.5,259.1h-.1l16.4,11.1h0a.1.1,0,0,0,.1.1l10.4,7h-.1a.1.1,0,0,1,.1.1l7.3,4.9h0l-34.7-23.4-.7,1-.4.4,2.5,1.7h0l12.9,8.9h0l2.6,1.8h-.1l-18.3-12.6-.3.4h0l.6.4h-.1l-.6-.4-.5.6,23.9,16.6h0l-24-16.6-.3.4,10.5,7.2h-.1l-10.4-7.3-.4.5L356.9,341h0v-.2h-.1c0-.1-.1-.1-.1-.2l-23.1-16.1h0c0-.1,0-.1-.1-.2h-.1l-32-22.3h.1L330,321.2h0c0,.1,0,.1.1.1h.2a.1.1,0,0,0,.1-.1h0c0-.1,0-.1-.1-.2h-.1l-39.8-27.6,45.8,31.6h.4a.1.1,0,0,1,.1-.1h0l11.9,8.2h.5l36.1,24.9h.4a.1.1,0,0,0,.1-.1h0v-.2h-.1l-.2-.2-57.5-39.6h.1l4.7,3.2h.4l11.4,7.8h0a.1.1,0,0,0,.1.1h.3a.1.1,0,0,1,.1-.1h0v-.2h-.2l-12.9-8.8h.2v-.2c-.1,0-.1,0-.1-.1h-.1l-24.7-16.9L327.4,315h.3a.1.1,0,0,0,.1-.1h.1v-.2h-.1a.1.1,0,0,0-.1-.1l-36.1-24.7h.1l11.4,7.8h.4l94.3,63.9a.1.1,0,0,0,.1.1h.3a.1.1,0,0,0,.1-.1v-.2h0c-.1-.1-.1-.1-.1-.2H398l-82.7-56.2h.1l74.5,50.3h.4a.1.1,0,0,1,.1-.1h.1v-.2a.1.1,0,0,0-.1-.1c0-.1-.1-.1-.1-.2h0l-38.3-25.9h0L402.1,362h.3l-151.9-103Z" transform="translate(-246.7 -214.2)"/><path class="cls-8" d="M316.9,230.5h-.2L341,242.5l.3-.4Z" transform="translate(-246.7 -214.2)"/><path class="cls-8" d="M286,216.2l-.5.5,45.5,22h0l-45.5-21.9-.2.2h-.1l21,10.1.5.2.5.2.6.3.5.2.4.2.5.3.5.3.4.2,14,6.8H324l-13.1-6.3.4.2.4.3.3.4.4.3,24.7,12h.1l2.6,1.2,1.2-1.9Z" transform="translate(-246.7 -214.2)"/><path class="cls-8" d="M304.3,226.7h.9l-9.3-4.5h-.2l7.7,3.8h.9Z" transform="translate(-246.7 -214.2)"/><path class="cls-8" d="M342.1,239.9h0l.4.3.2-.2-4.5-2.2-12.9-6.1h0l-37.7-17.6-.3.4,19,9.1h-.1l-19-9-.2.2h0l11.3,5.4h0l34.3,16.4h.1l8.9,4.2.9-1.4Z" transform="translate(-246.7 -214.2)"/><path class="cls-8" d="M291.2,217.7H291l50.3,24.1.3-.5Z" transform="translate(-246.7 -214.2)"/><path class="cls-8" d="M298.8,226.1h.4L284,218.7h-.1l-.2.2h.1l14.6,7.2h.4Z" transform="translate(-246.7 -214.2)"/><polygon class="cls-8" points="66 22.9 66.3 23.9 67.8 24.6 68.5 24.1 66 22.9"/><path class="cls-8" d="M299.8,226.1h.5l-2.7-1.3h-.2l2,1h.4Z" transform="translate(-246.7 -214.2)"/><path class="cls-8" d="M339.6,244.7l-11.9-5.8h-.2l1.6.8H329l-14.7-7.2.3.4a.8.8,0,0,0,.2.4l.3.4a.8.8,0,0,0,.2.4l8,4h0l-8-3.9.2.3.2.4c.1.1.1.3.2.4s.1.2.1.3a.5.5,0,0,1-.2-.4l-.3-.4-.3-.4-.3-.4-6.3-3.1h-.3l-6.5-3.2h-2.3l18.9,9.4h-.1l-19-9.4h-1.5l10.5,5.3h-.1l-10.6-5.3H297l15.2,7.7.2-.8.3,1,2.4,1.2,1.3-.9-.5,1.3.3.2h0l-.3-.2-.3.8,1.6.8,2.3-.6-1.3,1.1,18.1,9.1.4-.5Z" transform="translate(-246.7 -214.2)"/><path class="cls-8" d="M295,226.8c0-.1.1-.1.2-.1h.3l-12.9-6.4-.2.3-.2.3,12.3,6.1h.5Z" transform="translate(-246.7 -214.2)"/><path class="cls-8" d="M293.6,227.2h.3l-8.5-4.2h-.3l8.3,4.1h.1A.1.1,0,0,1,293.6,227.2Z" transform="translate(-246.7 -214.2)"/><path class="cls-8" d="M296.6,226.4h.9l-14.1-6.9-.4.5,1.9.9h0l-1.9-1-.3.3,12.9,6.5h1Z" transform="translate(-246.7 -214.2)"/><path class="cls-8" d="M313.9,233.2l-.5-.5-.6-.5-7-3.4h-1.5l5.4,2.7h0l-5.6-2.7h-1.3l12,5.9-.4-.6Z" transform="translate(-246.7 -214.2)"/><path class="cls-8" d="M296.9,229.2H296l16,8,.2-.7Z" transform="translate(-246.7 -214.2)"/><path class="cls-8" d="M293,231.4h-.2a.1.1,0,0,0-.1.1l13.8,7.1-.9-1Z" transform="translate(-246.7 -214.2)"/><path class="cls-8" d="M292.9,227.5h.4l-7.1-3.6H286l.8.4h-.1c0,.1,0,.1.1.1h0l5.7,2.8h.4Z" transform="translate(-246.7 -214.2)"/><polygon class="cls-8" points="65.1 24 62.5 22.7 64.7 25.2 65.1 24"/><path class="cls-8" d="M307,239.4,292.5,232h-.3l2.5,1.3h.1l13.3,6.9h.1Z" transform="translate(-246.7 -214.2)"/><path class="cls-8" d="M323.1,243.4h-.2l13.1,6.6.3-.4Z" transform="translate(-246.7 -214.2)"/><path class="cls-8" d="M290,229.4h.2l-10.5-5.4-.2.3-.2.2,10.4,5.3h.3Z" transform="translate(-246.7 -214.2)"/><polygon class="cls-8" points="73.8 28.4 71 27 69.8 27.9 73.8 28.4"/><path class="cls-8" d="M289.5,229.9h.1l-10.4-5.3h0l-.2.3,10.3,5.3h.2Z" transform="translate(-246.7 -214.2)"/><polygon class="cls-8" points="69.5 26.2 68.7 25.8 68.5 26.4 69.5 26.2"/><path class="cls-8" d="M289,230.4h0c.1,0,.1,0,.1-.1l-10.3-5.3-.3.3,10.3,5.4h.2Z" transform="translate(-246.7 -214.2)"/><path class="cls-8" d="M291.2,228.5l.2-.2h.2l-11-5.5-.3.3h-.1l9.9,5H290a.1.1,0,0,0,.1.1h.1l.6.3h.4Z" transform="translate(-246.7 -214.2)"/><path class="cls-8" d="M293.6,230.9h-.4c0,.1,0,.1-.1.2l12.3,6.3h0l2.7,1.5,1.4.7-.2-.9Z" transform="translate(-246.7 -214.2)"/><path class="cls-8" d="M295.2,229.9H295l-.3.2h-.2l-.3.2,5.3,2.7h0l8.9,4.5h-.1a.1.1,0,0,1,.1.1h.1l.7.4-.5-2.1Z" transform="translate(-246.7 -214.2)"/><polygon class="cls-8" points="67.2 25.1 66.5 24.7 66.7 25.5 67.2 25.1"/><polygon class="cls-8" points="66.6 32.4 66.6 32.4 66.6 32.4 66.6 32.4"/><path class="cls-8" d="M288.1,231.6h.1L277.8,226l-.2.3,10.4,5.5c0-.1,0-.1.1-.1Z" transform="translate(-246.7 -214.2)"/><path class="cls-8" d="M288.4,231.2h.1l-4.8-2.5h-.2l4.7,2.5h.2Z" transform="translate(-246.7 -214.2)"/><path class="cls-8" d="M307.9,243.8l-4.5-.6,2.3-.5-3.9-2h-.3l-10.7-5.6h-.1v.6l9.5,5h0l-9.5-5v.2h-.1v.4h.2l15.7,8.4,1.6-1.4Z" transform="translate(-246.7 -214.2)"/><path class="cls-8" d="M287.2,233.6v-.2h0l-5.9-3.2H281c0,.1,0,.1.1.1h.1l3.3,1.8h0l2.6,1.3h.1Z" transform="translate(-246.7 -214.2)"/><path class="cls-8" d="M303.5,240.1l3.5.6-15.2-7.9v.6h-.1l7.9,4.2h.1l.7.4H300c.1,0,.1,0,.1.1h0l7,3.6h.6Z" transform="translate(-246.7 -214.2)"/><path class="cls-8" d="M333.6,254.1l2.4-3.8-15.1-7.5-2.6.5,6.2,3.2h-.1l-6.3-3.2-1.2.2,4.5,2.3-5-.8.7.7,3.2,1.7-3.2-1.6,2.4,2.7-4.4-2.4.2.5,12.9,6.8h-.1l-7.1-3.7h-.3l-5.3-2.7.2.6,11.2,5.9-11.2-5.8.6,2.2-2.9-3.4h-.1l-1.1,3.6-.9-3.9-1.2.9,1.3.7h-.1l-1.2-.6-1.9,1.5.8-2.1-1.7-.9-2.2.5,1.3-1-14.6-7.7h-.3l12.3,6.6h0l-13.2-7v.6c0,.2.1.5.1.7s.1.4.1.6l.3.7,24.6,13.4h0l-8-4.3h-1l-1.2.2h-3.8l2.3,1.3h0l16.9,9.3h-.1a.1.1,0,0,0,.1.1h.1l5.2,2.9h0l-.7-.4h-.1l-26-14.3-1.3-.3-1.3-.5-1.3-.5-1.2-.6-1.1-.7-1-.7-1-.8-.8-.8-13.6-7.5h-.3a.1.1,0,0,1,.1.1h0l4.4,2.4h0l38.6,21.5h-.1l-1.3-.7H318c-.1-.1-.1-.1-.1,0h-.1l-46.9-26.1-.4.4v.2l13.5,7.5h.1l30,16.8h0c-.1,0-.1,0-.1.1h.1l-19-10.6h-.3L270,235.5l-.5.5,11.7,6.7-11.7-6.6-.3.3,25.4,14.4h0l8.5,4.8-23.8-13.4H279l-10.1-5.7-.3.3L296,252.9h0l-1.4-.8h-.3l29.5,16.9.9-1.4-.9-.5h.1l.9.5,2.3-3.6,2.3-3.5-2.4-1.3h.1l2.4,1.3.9-1.4Z" transform="translate(-246.7 -214.2)"/><polygon class="cls-8" points="60.7 31.6 62.2 32.4 62.7 31.1 60.7 31.6"/><path class="cls-8" d="M287.1,234.2h0l-11-5.8h-.3l11.2,6h0A.1.1,0,0,1,287.1,234.2Z" transform="translate(-246.7 -214.2)"/><path class="cls-8" d="M286.9,236.8a1.7,1.7,0,0,1-.1-.7,1.3,1.3,0,0,1,.1-.6l-11.8-6.2-.2.3,4.3,2.4h-.1l-4.3-2.3-.3.3-.6.8L287,238c0-.2-.1-.4-.1-.6Z" transform="translate(-246.7 -214.2)"/><path class="cls-8" d="M287.4,239.4v-.6h-.1l-13.7-7.4-.4.5h-.1l14.7,8.1a.4.4,0,0,0-.1-.3Z" transform="translate(-246.7 -214.2)"/><path class="cls-8" d="M288.2,241.2c-.1-.2-.1-.4-.2-.5l-.3-.6-14.9-8h0l-.7.9,16.8,9.2-.3-.5Z" transform="translate(-246.7 -214.2)"/><path class="cls-8" d="M302.9,248.9l1.8.2h1.9l-15.3-8.2c0,.1.1.2.1.4l.3.4c0,.1.1.2.2.3s.1.3.2.4h0l.7.9.7.9.9.8,1,.8,3.7,2.1,1.9.6Z" transform="translate(-246.7 -214.2)"/><path class="cls-9" d="M309.2,228.6l-.5-.3-.4-.2-.5-.2-.6-.3-.5-.2-.5-.2,3.9,1.9-.4-.2Z" transform="translate(-246.7 -214.2)"/><path class="cls-9" d="M311.7,230.2l-.4-.3-.4-.2-5.7-2.8h-1.8l9,4.4-.4-.3Z" transform="translate(-246.7 -214.2)"/><path class="cls-9" d="M303.5,228.4h.6l-4.9-2.4h-.8l4.4,2.2h.7Z" transform="translate(-246.7 -214.2)"/><path class="cls-9" d="M305,228.6h.8l-5.5-2.7h-.9l4.9,2.4h.7Z" transform="translate(-246.7 -214.2)"/><path class="cls-9" d="M298.5,228.7h.8l-3.8-1.9h-.3c-.1,0-.2,0-.2.1h-.5l1.6.8h0l1.7.9h.7Z" transform="translate(-246.7 -214.2)"/><path class="cls-9" d="M297.3,229h.3l-3.7-1.8h-.3a.1.1,0,0,0-.1.1h-.1l3.6,1.8h.3Z" transform="translate(-246.7 -214.2)"/><path class="cls-9" d="M314.8,233.7a.8.8,0,0,1-.2-.4l-.3-.4-1.5-.7.6.5.5.5.5.5.4.6.5.2a.8.8,0,0,1-.2-.4Z" transform="translate(-246.7 -214.2)"/><path class="cls-9" d="M315.5,235.2l.3.4a.5.5,0,0,0,.2.4c0-.1-.1-.2-.1-.3s-.1-.3-.2-.4l-.2-.4-.2-.3-.4-.2.3.4Z" transform="translate(-246.7 -214.2)"/><path class="cls-9" d="M300.6,228.4h1.2l-4.3-2.1h-1.9l3.9,1.9h1.1Z" transform="translate(-246.7 -214.2)"/><path class="cls-9" d="M293.4,231.1h.2l-3.4-1.7h-.5l3.4,1.8c.1-.1.1-.1.1-.2Z" transform="translate(-246.7 -214.2)"/><path class="cls-9" d="M292.9,231.6h.1l-3.4-1.7h-.3l3.4,1.8a.1.1,0,0,1,.1-.1Z" transform="translate(-246.7 -214.2)"/><path class="cls-9" d="M292.3,232.2h.2l-3.4-1.8c0,.1,0,.1-.1.1h-.2l3.4,1.7h.1Z" transform="translate(-246.7 -214.2)"/><path class="cls-9" d="M294.7,230.2l.3-.2h-.2l-3.2-1.6h-.2l-.2.2h-.4l3.4,1.8.3-.2Z" transform="translate(-246.7 -214.2)"/><path class="cls-9" d="M296.4,229.3h.5l-3.6-1.8h-.8l3.5,1.8h.4Z" transform="translate(-246.7 -214.2)"/><path class="cls-9" d="M291.6,233.2v-.4l-3.3-1.7h-.3l3.2,1.6-3.2-1.6h-.1c-.1,0-.1,0-.1.1l3.4,1.7h.1Z" transform="translate(-246.7 -214.2)"/><path class="cls-9" d="M290.7,235.4v-.2h.1l-3.5-1.8h0v.4h-.1l3.5,1.9v-.4Z" transform="translate(-246.7 -214.2)"/><path class="cls-9" d="M290.5,236.1h.1v-.2l-3.5-1.8h0a.1.1,0,0,0-.1.1h.2l3.3,1.8v-.4Z" transform="translate(-246.7 -214.2)"/><path class="cls-9" d="M304.1,249.4h1.3l1.2-.2h-1.9l-1.8-.2-1.9-.4-1.9-.6,2.5,1.3h2.5Z" transform="translate(-246.7 -214.2)"/><path class="cls-9" d="M291.7,241.7l-.3-.4c0-.2-.1-.3-.1-.4l-3.9-2.1h-.2v.9a.4.4,0,0,1,.1.3l4.5,2.4c-.1-.1-.1-.2-.2-.4S291.7,241.8,291.7,241.7Z" transform="translate(-246.7 -214.2)"/><path class="cls-9" d="M290.6,238.8c0-.2-.1-.5-.1-.7v-.6l-3.6-2a1.3,1.3,0,0,0-.1.6,1.7,1.7,0,0,0,.1.7v.6c0,.2.1.4.1.6l4,2.1-.3-.7C290.7,239.2,290.6,239,290.6,238.8Z" transform="translate(-246.7 -214.2)"/><path class="cls-9" d="M293.5,244.2l-.7-.9-.7-.9h0l-4.4-2.4.3.6c.1.1.1.3.2.5l.4.5.3.5,6.5,3.6-1-.8Z" transform="translate(-246.7 -214.2)"/><path class="cls-9" d="M292.1,245.5l1,.7,1.1.7,1.2.6,1.3.5,1.3.5,1.3.3-9-4.9.8.8Z" transform="translate(-246.7 -214.2)"/><polygon class="cls-9" points="65.5 22.6 65.3 23.4 66.3 23.9 66 22.9 65.5 22.6"/><polygon class="cls-9" points="68.5 24.1 69.2 24.4 69.7 23.1 68.5 24.1"/><polygon class="cls-9" points="65.5 22.6 66 22.8 65.8 21.9 65.5 22.6"/><polygon class="cls-9" points="70.5 26 71.5 26.5 72.9 25.4 70.5 26"/><polygon class="cls-9" points="68.5 24.1 67.8 24.6 69 25.2 69.2 24.5 68.5 24.1"/><path class="cls-9" d="M321.4,245.9l-4.5-2.3,1.2-.2-8.8-4.5.2.9,3.1,1.6h-.1l-6.9-3.5.9,1,3.5,1.8h-.1l-2.9-1.5,1.2,1.4h-.1l7.5,3.9h0l1.5.7-.7-.7Z" transform="translate(-246.7 -214.2)"/><polygon class="cls-9" points="58.8 23.5 61.4 24.9 58.7 23.5 58.8 23.5"/><polygon class="cls-9" points="73.8 28.4 69.8 27.9 71 27 69.5 26.2 68.5 26.4 68.7 25.8 67.2 25.1 66.7 25.5 66.5 24.7 65.1 24 64.7 25.2 62.5 22.7 62 22.5 62.6 24.5 71.6 29.2 74.3 28.6 73.8 28.4"/><polygon class="cls-9" points="61.2 29.7 59 28.5 56.7 29 61.2 29.7"/><polygon class="cls-9" points="72.9 34.4 70.4 31.7 60.4 26.5 56.9 25.9 61.1 28.1 60.4 28.2 68.6 32.5 68.5 32 72.9 34.4"/><path class="cls-9" d="M309.7,244.3h-.3a.1.1,0,0,1-.1.1h.1l3.8,2h.1l2.3,1.2-.2-.6Z" transform="translate(-246.7 -214.2)"/><polygon class="cls-9" points="68.9 33.7 66.7 32.5 69.6 35.9 68.9 33.7"/><polygon class="cls-9" points="65.5 36 66.6 32.5 61.4 29.8 59.7 31.1 60.7 31.6 62.7 31.1 62.2 32.4 63.4 33 64.5 32.1 65.5 36"/><polygon class="cls-9" points="63.3 33.1 62.2 32.5 61.4 34.6 63.3 33.1"/><polygon class="cls-9" points="60.5 31.6 59.6 31.1 58.3 32.1 60.5 31.6"/></g></g></g><image class="cls-10" width="530" height="530" transform="translate(41.1 18.4) scale(0.24)" xlink:href="workerred1.png"/><path class="cls-3" d="M337.4,286.6a15.6,15.6,0,0,0,5.3,8.4c5,4.3,12.3,4.6,17.2.1s9.8-9.4,14.4-14.4,4.1-13.2-1.3-18.5-13.2-5.6-18.4-.8c-2.9,2.6-5.5,5.4-8.3,8.1a3.1,3.1,0,0,1-1.9.8,29.6,29.6,0,0,0-15.6.4,34.3,34.3,0,0,1,2.4-3.1c5.1-5.2,9.9-10.5,15.3-15.3,7.5-6.7,16.4-8.4,25.8-4.8s15.3,10.6,17,20.6-1.2,16.1-7.3,22.3c-4.5,4.7-9.1,9.4-13.9,13.7a25.3,25.3,0,0,1-33.8-.1,29.6,29.6,0,0,1-7.2-9.6,2.2,2.2,0,0,1,.5-2.8C330.3,288.9,333,286.5,337.4,286.6Z" transform="translate(-246.7 -214.2)"/><path class="cls-3" d="M351.4,295.8c-1.8-5.6-5.1-9.6-10.7-11.2a11.9,11.9,0,0,0-12.2,2.9c-4.8,4.4-9.4,9.1-13.9,13.9s-4.5,13.2.9,18.7,13.3,5.7,18.7.8c2.8-2.6,5.4-5.4,8.1-8a2.7,2.7,0,0,1,2-.8,29.7,29.7,0,0,0,15.6-.4c-1,1.3-1.6,2.2-2.3,3-5.1,5.1-10,10.5-15.3,15.3-7.6,6.8-16.5,8.5-26,4.8s-15.4-10.6-17-20.8c-1.4-8.5,1.3-15.8,7.2-21.9q6.2-6.5,12.6-12.6c13.3-13.1,34.1-8.8,42.4,8.5.6,1.1.4,1.8-.5,2.8C358.4,293.5,355.6,295.9,351.4,295.8Z" transform="translate(-246.7 -214.2)"/></g></g></svg>